<?xml version="1.0" encoding="UTF-8"?>
<svg width="116px" height="14px" viewBox="0 0 116 14" version="1.1" xmlns="http://www.w3.org/2000/svg" xmlns:xlink="http://www.w3.org/1999/xlink">
    <title>Fill 20</title>
    <g id="DSIGN" stroke="none" stroke-width="1" fill="none" fill-rule="evenodd">
        <g id="DSIGN---Bảng-giá" transform="translate(-212.000000, -725.000000)" fill="#B3B3B3">
            <path d="M212,730.523984 C215.228532,728.566302 219.001214,727.946614 222.69626,727.540949 C229.201584,726.69255 235.753769,726.191065 242.304556,725.840654 C269.688325,724.073914 297.128748,725.368544 324.467055,727.17725 C325.362315,727.195435 326.431032,727.238099 327.026939,727.996972 C327.51024,728.619458 327.205991,729.649007 326.349899,729.677683 C325.372806,729.702862 324.396413,729.741331 323.419321,729.744128 C300.504158,729.860932 277.599487,730.993995 254.733984,732.445296 C270.226181,733.397209 285.665921,735.045047 301.121048,736.456481 C302.547869,736.633435 304.044632,736.495649 305.410603,737.004128 C306.371609,737.339152 306.15339,738.842209 305.12384,738.868787 C301.623933,739.139464 298.100245,739.000279 294.644401,738.368001 C295.216528,738.21203 295.806141,738.072845 296.38806,737.941354 C279.345944,736.415215 262.316417,734.488308 245.207856,733.920377 C243.918822,733.88051 242.630486,733.83155 241.340752,733.804273 C240.173417,733.781192 239.005382,733.770701 237.838047,733.753215 C237.068683,733.804273 236.536423,732.854458 237.013428,732.232672 C237.900295,731.336712 240.930891,731.542342 242.236012,731.373082 C246.084931,731.119192 249.931752,730.824735 253.781371,730.580637 C271.58236,729.385325 289.407829,728.572596 307.240991,728.057822 C282.865435,726.578544 258.381469,726.428169 234.025498,728.318706 C226.661983,728.855163 219.360717,730.033689 212,730.523984" id="Fill-20"></path>
        </g>
    </g>
</svg>