<svg id="Layer_1" data-name="Layer 1" xmlns="http://www.w3.org/2000/svg" width="16" height="16" viewBox="0 0 16 16">
  <title>aaa</title>
  <rect width="16" height="16" style="fill:none"/>
  <path d="M7.09,3a1,1,0,0,1,1.32-.5,1,1,0,0,1,.5.5l1,2.15a1,1,0,0,0,.78.58L13,6.08a1,1,0,0,1,.57,1.7L11.77,9.53a1,1,0,0,0-.28.89l.45,2.45A1,1,0,0,1,11.13,14a1,1,0,0,1-.68-.12L8.5,12.79a1,1,0,0,0-1,0L5.55,13.92a1,1,0,0,1-1.49-1.05l.45-2.45a1,1,0,0,0-.29-.89L2.46,7.78a1,1,0,0,1,0-1.41A1,1,0,0,1,3,6.08l2.32-.3a1,1,0,0,0,.78-.59Z" style="fill:#fff"/>
</svg>