<svg width="28" height="24" viewBox="0 0 28 24" fill="none" xmlns="http://www.w3.org/2000/svg">
<path d="M19.0487 0.100952H8.918C7.77993 0.100952 6.71648 0.714881 6.13811 1.70089L1.06341 10.4447C0.485047 11.4307 0.485047 12.6586 1.06341 13.6446L6.13811 22.3884C6.71648 23.3745 7.76127 23.9884 8.918 23.9884H19.0487C20.1868 23.9884 21.2503 23.3745 21.8286 22.3884L26.9033 13.6446C27.4817 12.6586 27.4817 11.4307 26.9033 10.4447L21.8286 1.70089C21.2503 0.714881 20.1868 0.100952 19.0487 0.100952Z" fill="#00C86B"/>
<path fill-rule="evenodd" clip-rule="evenodd" d="M17.6465 20.5881H17.4422C16.9779 20.5881 16.4765 20.6809 14.4709 20.6809C14.2295 20.6809 14.0252 20.5881 13.8581 20.3653C13.5424 20.161 13.3195 19.9754 12.9481 19.9754C12.6324 19.9754 12.3353 20.161 11.6296 20.5138C11.3696 20.6995 10.831 20.8666 10.6268 20.978C10.6268 20.8666 10.6268 20.5881 10.7382 20.5138C10.831 20.0682 10.831 19.6597 10.7382 19.5112C10.6268 19.3626 10.5339 19.3626 10.4411 19.3626C9.82823 19.3626 9.25253 20.0682 8.54685 20.6809C8.10115 21.0708 7.63689 21.5907 7.39547 21.5907C7.22833 21.2379 7.93402 19.8825 8.10115 19.2698C8.54685 18.2672 8.71399 18.063 8.41685 17.8216C8.324 17.7287 8.17544 17.7287 7.91545 17.8216C7.52546 18.1744 7.00548 18.5643 6.6155 19.0656C5.72411 19.9011 4.81415 20.7737 4.10846 20.5138C4.01561 20.3653 3.79276 20.5138 3.66276 20.6066C3.56991 20.6995 3.66276 20.8666 3.77419 20.9965C4.81415 21.4978 5.81696 20.5324 6.89406 19.5297C7.19119 19.2884 7.35833 18.9913 7.6926 18.8242C7.59975 18.917 7.59975 19.0099 7.50689 19.0841C6.89406 20.3838 6.50408 21.405 6.80121 21.8878C6.89406 21.9806 6.98691 22.092 7.19119 22.092C7.59975 22.092 8.08258 21.6278 8.69541 20.9965C9.23396 20.5324 9.69823 19.9939 10.1068 19.9011C10.1068 19.9939 10.1068 20.161 10.0139 20.3653C9.86537 20.7737 9.86537 21.2193 10.0139 21.405C10.1068 21.4978 10.2182 21.6093 10.3111 21.6093C10.5711 21.6093 11.0167 21.405 11.5739 20.9965C11.9267 20.7923 12.4838 20.5324 12.5767 20.5324C12.8181 20.5324 13.0224 20.6252 13.1895 20.7923C13.4309 20.9965 13.7281 21.2379 14.0995 21.2379C15.2137 21.2379 16.3651 21.0894 17.4051 21.0894C17.5722 21.0522 17.8136 20.5881 17.6465 20.5881Z" fill="#FFFBF6"/>
<path fill-rule="evenodd" clip-rule="evenodd" d="M17.6278 20.3095C17.6092 20.5323 17.7021 20.588 17.8878 20.458C18.4078 20.0681 18.6492 19.8638 18.6492 19.8638C18.3892 19.641 18.0735 19.4739 17.7578 19.3811C17.665 19.9938 17.6278 20.3095 17.6278 20.3095Z" fill="#FFFBF6"/>
<path fill-rule="evenodd" clip-rule="evenodd" d="M17.8135 18.8241C18.2963 18.8984 18.742 19.1398 19.0763 19.5111C20.5805 18.3043 21.6019 17.4873 22.1219 17.0603L18.2963 14.8879C17.962 17.5059 17.8135 18.8241 17.8135 18.8241Z" fill="#FFFBF6"/>
<path fill-rule="evenodd" clip-rule="evenodd" d="M23.5891 5.5116L23.2548 6.10574L22.5677 7.33116L18.5378 14.4609L22.5677 16.7446L23.5334 15.1107L23.5519 15.0736L23.5705 15.0365L23.6076 14.9808L23.7191 14.7765L23.8119 14.6094L23.9233 14.4052L23.9605 14.3309L24.0162 14.2195L24.109 14.071L24.1833 13.941L24.2205 13.8668L24.2947 13.7182L24.4062 13.4954L24.4433 13.4397L24.6662 13.0498L24.7219 12.957L24.7404 12.9384L26.2818 10.1719" fill="#FFFBF6"/>
<path d="M12.2417 9.80795C12.2761 8.64809 13.1544 7.69402 14.2393 7.67531C15.3759 7.6566 16.3059 8.64809 16.3059 9.88278C16.3059 10.0137 16.2887 10.1447 16.2714 10.2569C16.1681 10.8743 15.8237 11.4168 15.3415 11.7348C15.1521 11.8658 15.0487 12.1277 15.0832 12.3709L15.6687 15.4763C15.7031 15.6634 15.5654 15.8317 15.3932 15.8317L13.0683 15.813C12.8961 15.813 12.7583 15.6447 12.7928 15.4389L13.4127 12.3334C13.4644 12.0903 13.3611 11.8284 13.1716 11.6974C12.6894 11.3607 12.3622 10.8369 12.2589 10.2008C12.2417 10.1073 12.2417 9.95761 12.2417 9.80795Z" fill="#2A894E"/>
</svg>
