<svg width="33" height="24" viewBox="0 0 33 24" fill="none" xmlns="http://www.w3.org/2000/svg">
<g id="Group 53 Copy">
<g id="Group 30">
<path id="Line 3" d="M13.8447 14.9263L14.1481 13.986L28.2155 18.5238L27.9122 19.4642L13.8447 14.9263Z" fill="#415086"/>
<path id="Line 4 Copy 3" d="M4.31079 5.1455L5.01461 4.45203L15.1652 14.7542L14.4614 15.4476L4.31079 5.1455Z" fill="#415086"/>
<path id="Line 4 Copy 8" d="M23.4774 6.14807L24.1166 6.90148L14.0472 15.4452L13.408 14.6918L23.4774 6.14807Z" fill="#415086"/>
<ellipse id="Oval Copy 26" cx="4.93887" cy="4.93925" rx="3.52879" ry="3.52918" transform="rotate(28 4.93887 4.93925)" fill="#34B933"/>
<ellipse id="Oval Copy 27" cx="23.8532" cy="6.84025" rx="3.52879" ry="3.52918" transform="rotate(28 23.8532 6.84025)" fill="#415086"/>
<ellipse id="Oval Copy 28" cx="14.5372" cy="14.5957" rx="5.64606" ry="5.64655" transform="rotate(-32 14.5372 14.5957)" fill="#28B0FF"/>
<ellipse id="Oval Copy 29" cx="27.382" cy="18.7721" rx="3.52879" ry="3.52918" transform="rotate(28 27.382 18.7721)" fill="#FFC107"/>
</g>
</g>
</svg>
