<svg width="183" height="40" viewBox="0 0 183 40" fill="none" xmlns="http://www.w3.org/2000/svg">
<g clip-path="url(#clip0_0_38456)">
<path d="M43.184 16V4.64H47.312C48.5493 4.64 49.584 4.896 50.416 5.408C51.248 5.90933 51.872 6.592 52.288 7.456C52.704 8.30933 52.912 9.25867 52.912 10.304C52.912 11.456 52.6827 12.4587 52.224 13.312C51.7653 14.1653 51.1147 14.8267 50.272 15.296C49.44 15.7653 48.4533 16 47.312 16H43.184ZM50.688 10.304C50.688 9.568 50.5547 8.92267 50.288 8.368C50.0213 7.80267 49.6373 7.36533 49.136 7.056C48.6347 6.736 48.0267 6.576 47.312 6.576H45.392V14.064H47.312C48.0373 14.064 48.6507 13.904 49.152 13.584C49.6533 13.2533 50.032 12.8053 50.288 12.24C50.5547 11.664 50.688 11.0187 50.688 10.304ZM54.6371 16V4.64H56.8451V16H54.6371ZM63.9353 16.08C63.1993 16.08 62.5006 15.9307 61.8393 15.632C61.1886 15.3333 60.6126 14.9227 60.1113 14.4C59.6206 13.8667 59.2366 13.248 58.9593 12.544C58.6819 11.84 58.5433 11.0773 58.5433 10.256C58.5433 9.47733 58.6819 8.74667 58.9593 8.064C59.2366 7.37067 59.6259 6.76267 60.1273 6.24C60.6286 5.71733 61.2153 5.30667 61.8873 5.008C62.5593 4.70933 63.2899 4.56 64.0793 4.56C65.1459 4.56 66.0579 4.78933 66.8153 5.248C67.5833 5.696 68.1593 6.29333 68.5433 7.04L66.8953 8.256C66.6073 7.69067 66.2019 7.25867 65.6793 6.96C65.1673 6.66133 64.6073 6.512 63.9993 6.512C63.5193 6.512 63.0819 6.61333 62.6873 6.816C62.2926 7.01867 61.9513 7.296 61.6633 7.648C61.3753 8 61.1513 8.40533 60.9913 8.864C60.8419 9.32267 60.7673 9.808 60.7673 10.32C60.7673 10.864 60.8473 11.3653 61.0073 11.824C61.1779 12.2827 61.4126 12.6827 61.7113 13.024C62.0206 13.3653 62.3779 13.6373 62.7833 13.84C63.1886 14.032 63.6366 14.128 64.1273 14.128C64.7033 14.128 65.2526 13.9787 65.7753 13.68C66.3086 13.3813 66.8046 12.944 67.2633 12.368V14.544C66.3139 15.568 65.2046 16.08 63.9353 16.08ZM67.1033 11.776H64.8153V10.16H68.9273V16H67.1033V11.776ZM70.809 16V4.64H73.017V16H70.809ZM83.8831 6.576H80.2511V16H78.0591V6.576H74.4271V4.64H83.8831V6.576ZM87.3189 4.64H89.5589L93.7349 16H91.4629L90.4069 13.168H86.4389L85.3989 16H83.1269L87.3189 4.64ZM90.0069 11.616L88.4389 6.928L86.8069 11.616H90.0069ZM94.9809 16V4.64H97.1889V14.064H102.981V16H94.9809ZM106.996 10.24C106.996 9.54667 107.119 8.86933 107.364 8.208C107.62 7.536 107.988 6.928 108.468 6.384C108.948 5.82933 109.535 5.392 110.228 5.072C110.921 4.74133 111.711 4.576 112.596 4.576C113.641 4.576 114.543 4.80533 115.3 5.264C116.068 5.72267 116.639 6.32 117.012 7.056L115.316 8.224C115.124 7.79733 114.873 7.46133 114.564 7.216C114.255 6.96 113.924 6.784 113.572 6.688C113.22 6.58133 112.873 6.528 112.532 6.528C111.977 6.528 111.492 6.64 111.076 6.864C110.671 7.088 110.329 7.38133 110.052 7.744C109.775 8.10667 109.567 8.512 109.428 8.96C109.3 9.408 109.236 9.856 109.236 10.304C109.236 10.8053 109.316 11.2907 109.476 11.76C109.636 12.2187 109.86 12.6293 110.148 12.992C110.447 13.344 110.799 13.6267 111.204 13.84C111.62 14.0427 112.073 14.144 112.564 14.144C112.916 14.144 113.273 14.0853 113.636 13.968C113.999 13.8507 114.335 13.664 114.644 13.408C114.953 13.152 115.193 12.8213 115.364 12.416L117.172 13.456C116.948 14.0213 116.58 14.5013 116.068 14.896C115.567 15.2907 115.001 15.5893 114.372 15.792C113.743 15.9947 113.119 16.096 112.5 16.096C111.689 16.096 110.948 15.9307 110.276 15.6C109.604 15.2587 109.023 14.8107 108.532 14.256C108.052 13.6907 107.673 13.0613 107.396 12.368C107.129 11.664 106.996 10.9547 106.996 10.24ZM123.36 16.08C122.528 16.08 121.771 15.92 121.088 15.6C120.416 15.28 119.835 14.848 119.344 14.304C118.864 13.7493 118.491 13.1307 118.224 12.448C117.957 11.7547 117.824 11.0453 117.824 10.32C117.824 9.56267 117.963 8.84267 118.24 8.16C118.528 7.46667 118.917 6.85333 119.408 6.32C119.909 5.776 120.496 5.34933 121.168 5.04C121.851 4.72 122.597 4.56 123.408 4.56C124.229 4.56 124.976 4.72533 125.648 5.056C126.331 5.38667 126.912 5.82933 127.392 6.384C127.872 6.93867 128.245 7.55733 128.512 8.24C128.779 8.92267 128.912 9.62667 128.912 10.352C128.912 11.0987 128.773 11.8187 128.496 12.512C128.219 13.1947 127.829 13.808 127.328 14.352C126.837 14.8853 126.251 15.3067 125.568 15.616C124.896 15.9253 124.16 16.08 123.36 16.08ZM120.064 10.32C120.064 10.8107 120.139 11.2853 120.288 11.744C120.437 12.2027 120.651 12.6133 120.928 12.976C121.216 13.328 121.563 13.6107 121.968 13.824C122.384 14.0267 122.853 14.128 123.376 14.128C123.909 14.128 124.384 14.0213 124.8 13.808C125.216 13.584 125.563 13.2907 125.84 12.928C126.117 12.5547 126.325 12.144 126.464 11.696C126.613 11.2373 126.688 10.7787 126.688 10.32C126.688 9.82933 126.608 9.36 126.448 8.912C126.299 8.45333 126.08 8.048 125.792 7.696C125.515 7.33333 125.168 7.05067 124.752 6.848C124.347 6.63467 123.888 6.528 123.376 6.528C122.832 6.528 122.352 6.64 121.936 6.864C121.531 7.07733 121.189 7.36533 120.912 7.728C120.635 8.09067 120.421 8.496 120.272 8.944C120.133 9.392 120.064 9.85067 120.064 10.32ZM132.814 8.704V16H130.606V4.64H132.366L138.238 12.128V4.656H140.446V16H138.606L132.814 8.704ZM151.305 6.576H147.673V16H145.481V6.576H141.849V4.64H151.305V6.576ZM160.603 14.064V16H152.715V4.64H160.459V6.576H154.923V9.312H159.707V11.104H154.923V14.064H160.603ZM164.533 8.704V16H162.325V4.64H164.085L169.957 12.128V4.656H172.165V16H170.325L164.533 8.704ZM183.024 6.576H179.392V16H177.2V6.576H173.568V4.64H183.024V6.576ZM52.448 35V27.544L49.536 33.096H48.304L45.392 27.544V35H43.184V23.64H45.552L48.912 30.104L52.304 23.64H54.656V35H52.448ZM60.1158 23.64H62.3558L66.5318 35H64.2598L63.2038 32.168H59.2358L58.1957 35H55.9238L60.1158 23.64ZM62.8038 30.616L61.2358 25.928L59.6038 30.616H62.8038ZM69.9858 27.704V35H67.7778V23.64H69.5378L75.4097 31.128V23.656H77.6178V35H75.7778L69.9858 27.704ZM83.0689 23.64H85.3089L89.4849 35H87.2129L86.1569 32.168H82.1889L81.1489 35H78.8769L83.0689 23.64ZM85.7569 30.616L84.1889 25.928L82.5569 30.616H85.7569ZM95.0134 35.08C94.2774 35.08 93.5787 34.9307 92.9174 34.632C92.2667 34.3333 91.6907 33.9227 91.1894 33.4C90.6987 32.8667 90.3147 32.248 90.0374 31.544C89.76 30.84 89.6214 30.0773 89.6214 29.256C89.6214 28.4773 89.76 27.7467 90.0374 27.064C90.3147 26.3707 90.704 25.7627 91.2054 25.24C91.7067 24.7173 92.2934 24.3067 92.9654 24.008C93.6374 23.7093 94.368 23.56 95.1574 23.56C96.224 23.56 97.136 23.7893 97.8934 24.248C98.6614 24.696 99.2374 25.2933 99.6214 26.04L97.9734 27.256C97.6854 26.6907 97.28 26.2587 96.7574 25.96C96.2454 25.6613 95.6854 25.512 95.0774 25.512C94.5974 25.512 94.16 25.6133 93.7654 25.816C93.3707 26.0187 93.0294 26.296 92.7414 26.648C92.4534 27 92.2294 27.4053 92.0694 27.864C91.92 28.3227 91.8454 28.808 91.8454 29.32C91.8454 29.864 91.9254 30.3653 92.0854 30.824C92.256 31.2827 92.4907 31.6827 92.7894 32.024C93.0987 32.3653 93.456 32.6373 93.8614 32.84C94.2667 33.032 94.7147 33.128 95.2054 33.128C95.7814 33.128 96.3307 32.9787 96.8534 32.68C97.3867 32.3813 97.8827 31.944 98.3414 31.368V33.544C97.392 34.568 96.2827 35.08 95.0134 35.08ZM98.1814 30.776H95.8934V29.16H100.005V35H98.1814V30.776ZM109.775 33.064V35H101.887V23.64H109.631V25.576H104.095V28.312H108.879V30.104H104.095V33.064H109.775ZM120.761 35V27.544L117.849 33.096H116.617L113.705 27.544V35H111.497V23.64H113.865L117.225 30.104L120.617 23.64H122.969V35H120.761ZM133.228 33.064V35H125.34V23.64H133.084V25.576H127.548V28.312H132.332V30.104H127.548V33.064H133.228ZM137.158 27.704V35H134.95V23.64H136.71L142.582 31.128V23.656H144.79V35H142.95L137.158 27.704ZM155.649 25.576H152.017V35H149.825V25.576H146.193V23.64H155.649V25.576Z" fill="#2F281E"/>
<path fill-rule="evenodd" clip-rule="evenodd" d="M31.4775 7.62388L27.1655 15.0925L18.5415 15.0925L14.2295 7.62388L18.5415 0.155273L27.1655 0.155273L31.4775 7.62388Z" fill="white"/>
<path fill-rule="evenodd" clip-rule="evenodd" d="M31.4775 7.62388L27.1655 15.0925L18.5415 15.0925L14.2295 7.62388L18.5415 0.155273L27.1655 0.155273L31.4775 7.62388Z" fill="#415086" fill-opacity="0.5"/>
<path fill-rule="evenodd" clip-rule="evenodd" d="M17.248 32.2025L12.936 39.6711H4.31205L4.76837e-05 32.2025L4.31205 24.7339L12.936 24.7339L17.248 32.2025Z" fill="#FFC515"/>
<path fill-rule="evenodd" clip-rule="evenodd" d="M17.248 15.8167L12.936 23.2854H4.31205L4.76837e-05 15.8167L4.31205 8.34814L12.936 8.34814L17.248 15.8167Z" fill="white"/>
<path fill-rule="evenodd" clip-rule="evenodd" d="M17.248 15.8167L12.936 23.2854H4.31205L4.76837e-05 15.8167L4.31205 8.34814L12.936 8.34814L17.248 15.8167Z" fill="#28B0FF" fill-opacity="0.5"/>
<path fill-rule="evenodd" clip-rule="evenodd" d="M31.4775 24.0096L27.1655 31.4782H18.5415L14.2295 24.0096L18.5415 16.541L27.1655 16.541L31.4775 24.0096Z" fill="white"/>
<path fill-rule="evenodd" clip-rule="evenodd" d="M31.4775 24.0096L27.1655 31.4782H18.5415L14.2295 24.0096L18.5415 16.541L27.1655 16.541L31.4775 24.0096Z" fill="#34B933" fill-opacity="0.5"/>
</g>
<defs>
<clipPath id="clip0_0_38456">
<rect width="183" height="39.5156" fill="white" transform="translate(0 0.155273)"/>
</clipPath>
</defs>
</svg>
