<svg width="164" height="36" viewBox="0 0 164 36" fill="none" xmlns="http://www.w3.org/2000/svg">
<g clip-path="url(#clip0_0_7260)">
<path d="M8.75263 27.7621L19.6119 8.95331L30.4712 27.7621H8.75263Z" fill="#D8D8D8" stroke="#979797" stroke-width="0.893617"/>
<circle cx="19.6119" cy="21.4925" r="13.4328" fill="#415086"/>
<path fill-rule="evenodd" clip-rule="evenodd" d="M33.0447 21.4925C33.0447 14.0738 27.0307 8.05969 19.6119 8.05969C12.1932 8.05969 6.17908 14.0738 6.17908 21.4925C6.17908 28.9113 12.1932 34.9254 19.6119 34.9254C27.0307 34.9254 33.0447 28.9113 33.0447 21.4925ZM6.77839 21.4925C6.77839 14.4048 12.5242 8.659 19.6119 8.659C26.6997 8.659 32.4454 14.4048 32.4454 21.4925C32.4454 28.5803 26.6997 34.3261 19.6119 34.3261C12.5242 34.3261 6.77839 28.5803 6.77839 21.4925Z" fill="white"/>
<circle cx="8.0597" cy="27.9403" r="8.0597" fill="#34B933"/>
<circle cx="30.8955" cy="27.9403" r="8.0597" fill="#28B0FF"/>
<circle cx="19.3433" cy="8.0597" r="8.0597" fill="#FFC107"/>
<path d="M46.44 24V11.238H48.456V17.808L54.468 11.22H56.7L51.66 16.872L56.988 24H54.702L50.382 18.15L48.456 20.148V24H46.44ZM62.3368 24.18C61.6048 24.18 60.9388 24.054 60.3388 23.802C59.7508 23.538 59.2408 23.184 58.8088 22.74C58.3768 22.284 58.0408 21.768 57.8008 21.192C57.5728 20.604 57.4588 19.98 57.4588 19.32C57.4588 18.432 57.6628 17.622 58.0708 16.89C58.4788 16.146 59.0488 15.552 59.7808 15.108C60.5128 14.652 61.3708 14.424 62.3548 14.424C63.3388 14.424 64.1848 14.652 64.8928 15.108C65.6128 15.552 66.1708 16.14 66.5668 16.872C66.9628 17.604 67.1608 18.39 67.1608 19.23C67.1608 19.374 67.1548 19.512 67.1428 19.644C67.1308 19.764 67.1188 19.866 67.1068 19.95H59.5648C59.6008 20.502 59.7508 20.988 60.0148 21.408C60.2908 21.816 60.6388 22.14 61.0588 22.38C61.4788 22.608 61.9288 22.722 62.4088 22.722C62.9368 22.722 63.4348 22.59 63.9028 22.326C64.3828 22.062 64.7068 21.714 64.8748 21.282L66.5668 21.768C66.3628 22.224 66.0508 22.638 65.6308 23.01C65.2228 23.37 64.7368 23.658 64.1728 23.874C63.6088 24.078 62.9968 24.18 62.3368 24.18ZM59.5108 18.636H65.1988C65.1628 18.096 65.0068 17.622 64.7308 17.214C64.4668 16.794 64.1248 16.47 63.7048 16.242C63.2968 16.002 62.8408 15.882 62.3368 15.882C61.8448 15.882 61.3888 16.002 60.9688 16.242C60.5608 16.47 60.2248 16.794 59.9608 17.214C59.6968 17.622 59.5468 18.096 59.5108 18.636ZM59.5468 12.912L61.4188 11.202H62.8408L64.7128 12.912L63.6508 13.416L62.1208 12.282L60.5908 13.416L59.5468 12.912ZM65.2168 11.706L63.9208 11.31L64.9468 9.33H66.8368L65.2168 11.706ZM74.0139 23.514C73.8459 23.598 73.6359 23.688 73.3839 23.784C73.1319 23.88 72.8439 23.964 72.5199 24.036C72.2079 24.108 71.8839 24.144 71.5479 24.144C71.1399 24.144 70.7619 24.072 70.4139 23.928C70.0659 23.784 69.7839 23.556 69.5679 23.244C69.3639 22.92 69.2619 22.506 69.2619 22.002V16.116H68.0199V14.586H69.2619V11.49H71.2419V14.586H73.2939V16.116H71.2419V21.372C71.2659 21.696 71.3679 21.936 71.5479 22.092C71.7399 22.248 71.9739 22.326 72.2499 22.326C72.5259 22.326 72.7899 22.278 73.0419 22.182C73.2939 22.086 73.4799 22.008 73.5999 21.948L74.0139 23.514ZM88.2745 24H86.2945V18.726C86.2945 17.85 86.1505 17.208 85.8625 16.8C85.5865 16.392 85.1725 16.188 84.6205 16.188C84.2365 16.188 83.8525 16.284 83.4685 16.476C83.0965 16.668 82.7605 16.932 82.4605 17.268C82.1605 17.592 81.9445 17.97 81.8125 18.402V24H79.8325V14.586H81.6325V16.476C81.8725 16.056 82.1845 15.696 82.5685 15.396C82.9645 15.084 83.4085 14.844 83.9005 14.676C84.3925 14.508 84.9145 14.424 85.4665 14.424C86.0305 14.424 86.4925 14.526 86.8525 14.73C87.2245 14.934 87.5125 15.216 87.7165 15.576C87.9325 15.924 88.0765 16.332 88.1485 16.8C88.2325 17.256 88.2745 17.742 88.2745 18.258V24ZM94.8028 24.18C94.0588 24.18 93.3928 24.054 92.8048 23.802C92.2168 23.538 91.7068 23.178 91.2748 22.722C90.8548 22.266 90.5308 21.75 90.3028 21.174C90.0748 20.586 89.9608 19.962 89.9608 19.302C89.9608 18.642 90.0748 18.018 90.3028 17.43C90.5308 16.842 90.8548 16.326 91.2748 15.882C91.7068 15.426 92.2168 15.072 92.8048 14.82C93.4048 14.556 94.0708 14.424 94.8028 14.424C95.5348 14.424 96.1948 14.556 96.7828 14.82C97.3828 15.072 97.8928 15.426 98.3128 15.882C98.7448 16.326 99.0748 16.842 99.3028 17.43C99.5308 18.018 99.6448 18.642 99.6448 19.302C99.6448 19.962 99.5308 20.586 99.3028 21.174C99.0748 21.75 98.7448 22.266 98.3128 22.722C97.8928 23.178 97.3828 23.538 96.7828 23.802C96.1948 24.054 95.5348 24.18 94.8028 24.18ZM91.9948 19.32C91.9948 19.92 92.1208 20.46 92.3728 20.94C92.6248 21.42 92.9608 21.798 93.3808 22.074C93.8008 22.35 94.2748 22.488 94.8028 22.488C95.3188 22.488 95.7868 22.35 96.2068 22.074C96.6388 21.786 96.9808 21.402 97.2328 20.922C97.4848 20.43 97.6108 19.89 97.6108 19.302C97.6108 18.702 97.4848 18.162 97.2328 17.682C96.9808 17.202 96.6388 16.824 96.2068 16.548C95.7868 16.26 95.3188 16.116 94.8028 16.116C94.2748 16.116 93.8008 16.26 93.3808 16.548C92.9608 16.836 92.6248 17.22 92.3728 17.7C92.1208 18.168 91.9948 18.708 91.9948 19.32ZM92.0488 12.912L93.9208 11.202H95.3428L97.2148 12.912L96.1528 13.416L94.6228 12.282L93.0928 13.416L92.0488 12.912ZM97.7188 11.706L96.4228 11.31L97.4488 9.33H99.3388L97.7188 11.706ZM101.401 24V14.586H103.381V24H101.401ZM101.401 13.038V10.86H103.381V13.038H101.401ZM115.554 24.18C114.798 24.18 114.132 24 113.556 23.64C112.98 23.28 112.524 22.812 112.188 22.236V27.834H110.208V14.586H111.954V16.278C112.314 15.714 112.782 15.264 113.358 14.928C113.934 14.592 114.576 14.424 115.284 14.424C115.932 14.424 116.526 14.556 117.066 14.82C117.606 15.072 118.074 15.426 118.47 15.882C118.866 16.338 119.172 16.86 119.388 17.448C119.616 18.024 119.73 18.636 119.73 19.284C119.73 20.184 119.55 21.006 119.19 21.75C118.842 22.494 118.35 23.088 117.714 23.532C117.09 23.964 116.37 24.18 115.554 24.18ZM114.906 22.488C115.326 22.488 115.704 22.398 116.04 22.218C116.388 22.038 116.682 21.798 116.922 21.498C117.174 21.198 117.366 20.856 117.498 20.472C117.63 20.088 117.696 19.692 117.696 19.284C117.696 18.852 117.624 18.444 117.48 18.06C117.336 17.676 117.126 17.34 116.85 17.052C116.586 16.764 116.274 16.536 115.914 16.368C115.566 16.2 115.182 16.116 114.762 16.116C114.51 16.116 114.246 16.164 113.97 16.26C113.694 16.356 113.436 16.488 113.196 16.656C112.956 16.824 112.746 17.022 112.566 17.25C112.386 17.478 112.26 17.718 112.188 17.97V20.436C112.356 20.82 112.578 21.168 112.854 21.48C113.13 21.78 113.448 22.026 113.808 22.218C114.168 22.398 114.534 22.488 114.906 22.488ZM129.952 24H127.972V18.726C127.972 17.874 127.816 17.238 127.504 16.818C127.192 16.398 126.754 16.188 126.19 16.188C125.842 16.188 125.482 16.284 125.11 16.476C124.738 16.668 124.408 16.932 124.12 17.268C123.832 17.592 123.622 17.97 123.49 18.402V24H121.51V10.86H123.49V16.476C123.85 15.84 124.342 15.342 124.966 14.982C125.59 14.61 126.262 14.424 126.982 14.424C127.57 14.424 128.056 14.526 128.44 14.73C128.824 14.934 129.124 15.216 129.34 15.576C129.568 15.924 129.724 16.332 129.808 16.8C129.904 17.256 129.952 17.742 129.952 18.258V24ZM131.567 21.246C131.567 20.646 131.735 20.124 132.071 19.68C132.419 19.224 132.893 18.876 133.493 18.636C134.093 18.384 134.789 18.258 135.581 18.258C136.001 18.258 136.427 18.288 136.859 18.348C137.303 18.408 137.693 18.504 138.029 18.636V18.042C138.029 17.382 137.831 16.866 137.435 16.494C137.039 16.122 136.469 15.936 135.725 15.936C135.197 15.936 134.699 16.032 134.231 16.224C133.763 16.404 133.265 16.662 132.737 16.998L132.071 15.666C132.695 15.246 133.319 14.934 133.943 14.73C134.579 14.526 135.245 14.424 135.941 14.424C137.201 14.424 138.191 14.76 138.911 15.432C139.643 16.092 140.009 17.034 140.009 18.258V21.768C140.009 21.996 140.045 22.158 140.117 22.254C140.201 22.35 140.339 22.404 140.531 22.416V24C140.351 24.036 140.189 24.06 140.045 24.072C139.901 24.084 139.781 24.09 139.685 24.09C139.265 24.09 138.947 23.988 138.731 23.784C138.515 23.58 138.389 23.34 138.353 23.064L138.299 22.524C137.891 23.052 137.369 23.46 136.733 23.748C136.097 24.036 135.455 24.18 134.807 24.18C134.183 24.18 133.625 24.054 133.133 23.802C132.641 23.538 132.257 23.184 131.981 22.74C131.705 22.296 131.567 21.798 131.567 21.246ZM137.561 21.822C137.705 21.666 137.819 21.51 137.903 21.354C137.987 21.198 138.029 21.06 138.029 20.94V19.86C137.693 19.728 137.339 19.632 136.967 19.572C136.595 19.5 136.229 19.464 135.869 19.464C135.149 19.464 134.561 19.608 134.105 19.896C133.661 20.184 133.438 20.58 133.438 21.084C133.438 21.36 133.511 21.624 133.655 21.876C133.811 22.128 134.027 22.332 134.303 22.488C134.591 22.644 134.945 22.722 135.365 22.722C135.797 22.722 136.211 22.638 136.607 22.47C137.003 22.302 137.321 22.086 137.561 21.822ZM135.923 12.498C136.187 12.498 136.415 12.378 136.607 12.138C136.811 11.886 136.931 11.58 136.967 11.22H138.065C138.065 11.844 137.861 12.366 137.453 12.786C137.045 13.206 136.535 13.416 135.923 13.416C135.311 13.416 134.801 13.206 134.393 12.786C133.985 12.366 133.781 11.844 133.781 11.22H134.879C134.879 11.556 134.981 11.856 135.185 12.12C135.401 12.372 135.647 12.498 135.923 12.498ZM134.663 9.816L133.997 9.168C134.261 8.916 134.525 8.73 134.789 8.61C135.065 8.49 135.365 8.43 135.688 8.43C136.132 8.43 136.469 8.556 136.697 8.808C136.937 9.06 137.057 9.354 137.057 9.69C137.057 9.978 136.967 10.26 136.787 10.536C136.619 10.812 136.349 11.1 135.977 11.4L135.455 10.806C135.659 10.626 135.803 10.47 135.887 10.338C135.971 10.194 136.013 10.05 136.013 9.906C136.013 9.762 135.965 9.642 135.869 9.546C135.773 9.45 135.653 9.402 135.509 9.402C135.353 9.402 135.215 9.432 135.095 9.492C134.975 9.552 134.831 9.66 134.663 9.816ZM150.853 24H148.873V18.726C148.873 17.85 148.729 17.208 148.441 16.8C148.165 16.392 147.751 16.188 147.199 16.188C146.815 16.188 146.431 16.284 146.047 16.476C145.675 16.668 145.339 16.932 145.039 17.268C144.739 17.592 144.523 17.97 144.391 18.402V24H142.411V14.586H144.211V16.476C144.451 16.056 144.763 15.696 145.147 15.396C145.543 15.084 145.987 14.844 146.479 14.676C146.971 14.508 147.493 14.424 148.045 14.424C148.609 14.424 149.071 14.526 149.431 14.73C149.803 14.934 150.091 15.216 150.295 15.576C150.511 15.924 150.655 16.332 150.727 16.8C150.811 17.256 150.853 17.742 150.853 18.258V24ZM156.877 24.09C156.241 24.09 155.659 23.964 155.131 23.712C154.603 23.448 154.147 23.094 153.763 22.65C153.391 22.206 153.097 21.696 152.881 21.12C152.677 20.544 152.575 19.938 152.575 19.302C152.575 18.63 152.683 18 152.899 17.412C153.115 16.824 153.415 16.308 153.799 15.864C154.195 15.408 154.657 15.054 155.185 14.802C155.713 14.55 156.301 14.424 156.949 14.424C157.705 14.424 158.365 14.604 158.929 14.964C159.505 15.324 159.979 15.792 160.351 16.368V14.586H162.097V23.73C162.097 24.642 161.875 25.416 161.431 26.052C160.999 26.688 160.405 27.174 159.649 27.51C158.893 27.846 158.041 28.014 157.093 28.014C156.049 28.014 155.185 27.834 154.501 27.474C153.817 27.114 153.235 26.622 152.755 25.998L153.871 24.954C154.231 25.458 154.693 25.842 155.257 26.106C155.833 26.37 156.445 26.502 157.093 26.502C157.633 26.502 158.131 26.4 158.587 26.196C159.055 26.004 159.427 25.698 159.703 25.278C159.979 24.87 160.117 24.354 160.117 23.73V22.29C159.781 22.854 159.319 23.298 158.731 23.622C158.143 23.934 157.525 24.09 156.877 24.09ZM157.525 22.488C157.825 22.488 158.113 22.44 158.389 22.344C158.665 22.236 158.917 22.098 159.145 21.93C159.385 21.75 159.589 21.552 159.757 21.336C159.925 21.108 160.045 20.868 160.117 20.616V18.15C159.961 17.742 159.739 17.388 159.451 17.088C159.163 16.776 158.839 16.536 158.479 16.368C158.119 16.2 157.753 16.116 157.381 16.116C156.949 16.116 156.559 16.212 156.211 16.404C155.875 16.584 155.587 16.83 155.347 17.142C155.107 17.442 154.921 17.784 154.789 18.168C154.657 18.552 154.591 18.948 154.591 19.356C154.591 19.788 154.663 20.19 154.807 20.562C154.963 20.934 155.173 21.27 155.437 21.57C155.701 21.858 156.013 22.086 156.373 22.254C156.733 22.41 157.117 22.488 157.525 22.488Z" fill="#2F281E"/>
</g>
<defs>
<clipPath id="clip0_0_7260">
<rect width="164" height="36" fill="white"/>
</clipPath>
</defs>
</svg>
