<svg width="161" height="40" viewBox="0 0 161 40" fill="none" xmlns="http://www.w3.org/2000/svg">
<g clip-path="url(#clip0_0_30646)">
<path d="M66.736 14.64V26H64.544V21.152H59.392V26H57.184V14.64H59.392V19.232H64.544V14.64H66.736ZM73.9219 26.08C73.0152 26.08 72.2419 25.9307 71.6019 25.632C70.9725 25.3227 70.4605 24.9013 70.0659 24.368C69.6819 23.8347 69.3992 23.232 69.2179 22.56C69.0365 21.8773 68.9459 21.168 68.9459 20.432V14.64H71.1539V20.432C71.1539 20.9013 71.1965 21.36 71.2819 21.808C71.3779 22.2453 71.5325 22.64 71.7459 22.992C71.9592 23.344 72.2419 23.6213 72.5939 23.824C72.9459 24.0267 73.3832 24.128 73.9059 24.128C74.4392 24.128 74.8819 24.0267 75.2339 23.824C75.5965 23.6107 75.8792 23.328 76.0819 22.976C76.2952 22.624 76.4499 22.2293 76.5459 21.792C76.6419 21.344 76.6899 20.8907 76.6899 20.432V14.64H78.8819V20.432C78.8819 21.2107 78.7859 21.9413 78.5939 22.624C78.4125 23.3067 78.1192 23.9093 77.7139 24.432C77.3192 24.944 76.8072 25.3493 76.1779 25.648C75.5485 25.936 74.7965 26.08 73.9219 26.08ZM90.2579 23.072C90.2579 23.712 90.0925 24.2507 89.7619 24.688C89.4312 25.1147 88.9832 25.44 88.4179 25.664C87.8632 25.888 87.2552 26 86.5939 26H81.1059V14.64H87.1859C87.7192 14.64 88.1779 14.784 88.5619 15.072C88.9565 15.3493 89.2552 15.712 89.4579 16.16C89.6712 16.5973 89.7779 17.056 89.7779 17.536C89.7779 18.08 89.6392 18.5973 89.3619 19.088C89.0845 19.5787 88.6792 19.9413 88.1459 20.176C88.7965 20.368 89.3085 20.7147 89.6819 21.216C90.0659 21.7173 90.2579 22.336 90.2579 23.072ZM88.0339 22.656C88.0339 22.368 87.9752 22.112 87.8579 21.888C87.7405 21.6533 87.5805 21.472 87.3779 21.344C87.1859 21.2053 86.9619 21.136 86.7059 21.136H83.3139V24.128H86.5939C86.8605 24.128 87.1005 24.064 87.3139 23.936C87.5379 23.7973 87.7139 23.616 87.8419 23.392C87.9699 23.168 88.0339 22.9227 88.0339 22.656ZM83.3139 16.528V19.392H86.2579C86.5032 19.392 86.7272 19.3333 86.9299 19.216C87.1325 19.0987 87.2925 18.9333 87.4099 18.72C87.5379 18.5067 87.6019 18.2507 87.6019 17.952C87.6019 17.664 87.5432 17.4133 87.4259 17.2C87.3192 16.9867 87.1699 16.8213 86.9779 16.704C86.7965 16.5867 86.5885 16.528 86.3539 16.528H83.3139ZM102.593 17.616C102.518 17.5413 102.379 17.44 102.177 17.312C101.985 17.184 101.745 17.0613 101.457 16.944C101.179 16.8267 100.875 16.7253 100.545 16.64C100.214 16.544 99.878 16.496 99.5366 16.496C98.9393 16.496 98.486 16.608 98.1766 16.832C97.878 17.056 97.7286 17.3707 97.7286 17.776C97.7286 18.0853 97.8246 18.3307 98.0166 18.512C98.2086 18.6933 98.4966 18.848 98.8806 18.976C99.2646 19.104 99.7446 19.2427 100.321 19.392C101.067 19.5733 101.713 19.7973 102.257 20.064C102.811 20.32 103.233 20.6613 103.521 21.088C103.819 21.504 103.969 22.0587 103.969 22.752C103.969 23.36 103.857 23.8827 103.633 24.32C103.409 24.7467 103.099 25.0933 102.705 25.36C102.31 25.6267 101.862 25.824 101.361 25.952C100.859 26.0693 100.326 26.128 99.7606 26.128C99.1953 26.128 98.63 26.0693 98.0646 25.952C97.4993 25.8347 96.9553 25.6693 96.4326 25.456C95.91 25.232 95.43 24.9653 94.9926 24.656L95.9686 22.752C96.0646 22.848 96.2353 22.976 96.4806 23.136C96.726 23.2853 97.0246 23.44 97.3766 23.6C97.7286 23.7493 98.1126 23.8773 98.5286 23.984C98.9446 24.0907 99.366 24.144 99.7926 24.144C100.39 24.144 100.843 24.0427 101.153 23.84C101.462 23.6373 101.617 23.3493 101.617 22.976C101.617 22.6347 101.494 22.368 101.249 22.176C101.003 21.984 100.662 21.8187 100.225 21.68C99.7873 21.5307 99.27 21.3707 98.6726 21.2C97.958 20.9973 97.3606 20.7733 96.8806 20.528C96.4006 20.272 96.0433 19.952 95.8086 19.568C95.574 19.184 95.4566 18.704 95.4566 18.128C95.4566 17.3493 95.638 16.6987 96.0006 16.176C96.374 15.6427 96.8753 15.2427 97.5046 14.976C98.134 14.6987 98.8326 14.56 99.6006 14.56C100.134 14.56 100.635 14.6187 101.105 14.736C101.585 14.8533 102.033 15.008 102.449 15.2C102.865 15.392 103.238 15.6 103.569 15.824L102.593 17.616ZM113.525 24.064V26H105.637V14.64H113.381V16.576H107.845V19.312H112.629V21.104H107.845V24.064H113.525ZM115.247 26V14.64H120.271C120.793 14.64 121.273 14.7467 121.711 14.96C122.159 15.1733 122.543 15.4613 122.863 15.824C123.193 16.1867 123.444 16.592 123.615 17.04C123.796 17.488 123.887 17.9467 123.887 18.416C123.887 18.896 123.801 19.36 123.631 19.808C123.471 20.2453 123.236 20.6293 122.927 20.96C122.617 21.2907 122.255 21.5467 121.839 21.728L124.431 26H121.999L119.663 22.192H117.455V26H115.247ZM117.455 20.256H120.223C120.5 20.256 120.745 20.176 120.959 20.016C121.172 19.8453 121.343 19.6213 121.471 19.344C121.599 19.0667 121.663 18.7573 121.663 18.416C121.663 18.0533 121.588 17.7387 121.439 17.472C121.289 17.1947 121.097 16.976 120.863 16.816C120.639 16.656 120.393 16.576 120.127 16.576H117.455V20.256ZM126.664 14.64L129.737 23.376L132.777 14.64H135.097L130.793 26H128.665L124.345 14.64H126.664ZM136.309 26V14.64H138.517V26H136.309ZM140.199 20.24C140.199 19.5467 140.322 18.8693 140.567 18.208C140.823 17.536 141.191 16.928 141.671 16.384C142.151 15.8293 142.738 15.392 143.431 15.072C144.124 14.7413 144.914 14.576 145.799 14.576C146.844 14.576 147.746 14.8053 148.503 15.264C149.271 15.7227 149.842 16.32 150.215 17.056L148.519 18.224C148.327 17.7973 148.076 17.4613 147.767 17.216C147.458 16.96 147.127 16.784 146.775 16.688C146.423 16.5813 146.076 16.528 145.735 16.528C145.18 16.528 144.695 16.64 144.279 16.864C143.874 17.088 143.532 17.3813 143.255 17.744C142.978 18.1067 142.77 18.512 142.631 18.96C142.503 19.408 142.439 19.856 142.439 20.304C142.439 20.8053 142.519 21.2907 142.679 21.76C142.839 22.2187 143.063 22.6293 143.351 22.992C143.65 23.344 144.002 23.6267 144.407 23.84C144.823 24.0427 145.276 24.144 145.767 24.144C146.119 24.144 146.476 24.0853 146.839 23.968C147.202 23.8507 147.538 23.664 147.847 23.408C148.156 23.152 148.396 22.8213 148.567 22.416L150.375 23.456C150.151 24.0213 149.783 24.5013 149.271 24.896C148.77 25.2907 148.204 25.5893 147.575 25.792C146.946 25.9947 146.322 26.096 145.703 26.096C144.892 26.096 144.151 25.9307 143.479 25.6C142.807 25.2587 142.226 24.8107 141.735 24.256C141.255 23.6907 140.876 23.0613 140.599 22.368C140.332 21.664 140.199 20.9547 140.199 20.24ZM159.744 24.064V26H151.856V14.64H159.6V16.576H154.064V19.312H158.848V21.104H154.064V24.064H159.744Z" fill="#2F281E"/>
<path d="M23.0746 24.8771L23.5801 23.3098L47.0259 30.873L46.5203 32.4402L23.0746 24.8771Z" fill="#415086"/>
<path d="M7.18469 8.57571L8.35773 7.41992L25.2754 24.5901L24.1024 25.7459L7.18469 8.57571Z" fill="#415086"/>
<path d="M39.129 10.2468L40.1945 11.5025L23.4121 25.7421L22.3467 24.4864L39.129 10.2468Z" fill="#415086"/>
<ellipse cx="8.23153" cy="8.23216" rx="5.88132" ry="5.88196" transform="rotate(28 8.23153 8.23216)" fill="#00C86B"/>
<ellipse cx="39.7553" cy="11.4004" rx="5.88132" ry="5.88196" transform="rotate(28 39.7553 11.4004)" fill="#415086"/>
<ellipse cx="24.2287" cy="24.3261" rx="9.41011" ry="9.41092" transform="rotate(-32 24.2287 24.3261)" fill="#28B0FF"/>
<ellipse cx="45.6367" cy="31.2869" rx="5.88132" ry="5.88196" transform="rotate(28 45.6367 31.2869)" fill="#FFC515"/>
</g>
<defs>
<clipPath id="clip0_0_30646">
<rect width="161" height="40" fill="white"/>
</clipPath>
</defs>
</svg>
