<svg width="99" height="36" viewBox="0 0 99 36" fill="none" xmlns="http://www.w3.org/2000/svg">
<g clip-path="url(#clip0_0_26509)">
<path d="M50.184 24V12.64H54.312C55.5493 12.64 56.584 12.896 57.416 13.408C58.248 13.9093 58.872 14.592 59.288 15.456C59.704 16.3093 59.912 17.2587 59.912 18.304C59.912 19.456 59.6827 20.4587 59.224 21.312C58.7653 22.1653 58.1147 22.8267 57.272 23.296C56.44 23.7653 55.4533 24 54.312 24H50.184ZM57.688 18.304C57.688 17.568 57.5547 16.9227 57.288 16.368C57.0213 15.8027 56.6373 15.3653 56.136 15.056C55.6347 14.736 55.0267 14.576 54.312 14.576H52.392V22.064H54.312C55.0373 22.064 55.6507 21.904 56.152 21.584C56.6533 21.2533 57.032 20.8053 57.288 20.24C57.5547 19.664 57.688 19.0187 57.688 18.304ZM68.3583 15.616C68.2836 15.5413 68.1449 15.44 67.9423 15.312C67.7503 15.184 67.5103 15.0613 67.2223 14.944C66.9449 14.8267 66.6409 14.7253 66.3103 14.64C65.9796 14.544 65.6436 14.496 65.3023 14.496C64.7049 14.496 64.2516 14.608 63.9423 14.832C63.6436 15.056 63.4943 15.3707 63.4943 15.776C63.4943 16.0853 63.5903 16.3307 63.7823 16.512C63.9743 16.6933 64.2623 16.848 64.6463 16.976C65.0303 17.104 65.5103 17.2427 66.0863 17.392C66.8329 17.5733 67.4783 17.7973 68.0223 18.064C68.5769 18.32 68.9983 18.6613 69.2863 19.088C69.5849 19.504 69.7343 20.0587 69.7343 20.752C69.7343 21.36 69.6223 21.8827 69.3983 22.32C69.1743 22.7467 68.8649 23.0933 68.4703 23.36C68.0756 23.6267 67.6276 23.824 67.1263 23.952C66.6249 24.0693 66.0916 24.128 65.5263 24.128C64.9609 24.128 64.3956 24.0693 63.8303 23.952C63.2649 23.8347 62.7209 23.6693 62.1983 23.456C61.6756 23.232 61.1956 22.9653 60.7583 22.656L61.7343 20.752C61.8303 20.848 62.0009 20.976 62.2463 21.136C62.4916 21.2853 62.7903 21.44 63.1423 21.6C63.4943 21.7493 63.8783 21.8773 64.2943 21.984C64.7103 22.0907 65.1316 22.144 65.5583 22.144C66.1556 22.144 66.6089 22.0427 66.9183 21.84C67.2276 21.6373 67.3823 21.3493 67.3823 20.976C67.3823 20.6347 67.2596 20.368 67.0143 20.176C66.7689 19.984 66.4276 19.8187 65.9903 19.68C65.5529 19.5307 65.0356 19.3707 64.4383 19.2C63.7236 18.9973 63.1263 18.7733 62.6463 18.528C62.1663 18.272 61.8089 17.952 61.5743 17.568C61.3396 17.184 61.2223 16.704 61.2223 16.128C61.2223 15.3493 61.4036 14.6987 61.7663 14.176C62.1396 13.6427 62.6409 13.2427 63.2703 12.976C63.8996 12.6987 64.5983 12.56 65.3663 12.56C65.8996 12.56 66.4009 12.6187 66.8703 12.736C67.3503 12.8533 67.7983 13.008 68.2143 13.2C68.6303 13.392 69.0036 13.6 69.3343 13.824L68.3583 15.616ZM71.4028 24V12.64H73.6108V24H71.4028ZM80.7009 24.08C79.9649 24.08 79.2662 23.9307 78.6049 23.632C77.9542 23.3333 77.3782 22.9227 76.8769 22.4C76.3862 21.8667 76.0022 21.248 75.7249 20.544C75.4475 19.84 75.3089 19.0773 75.3089 18.256C75.3089 17.4773 75.4475 16.7467 75.7249 16.064C76.0022 15.3707 76.3915 14.7627 76.8929 14.24C77.3942 13.7173 77.9809 13.3067 78.6529 13.008C79.3249 12.7093 80.0555 12.56 80.8449 12.56C81.9115 12.56 82.8235 12.7893 83.5809 13.248C84.3489 13.696 84.9249 14.2933 85.3089 15.04L83.6609 16.256C83.3729 15.6907 82.9675 15.2587 82.4449 14.96C81.9329 14.6613 81.3729 14.512 80.7649 14.512C80.2849 14.512 79.8475 14.6133 79.4529 14.816C79.0582 15.0187 78.7169 15.296 78.4289 15.648C78.1409 16 77.9169 16.4053 77.7569 16.864C77.6075 17.3227 77.5329 17.808 77.5329 18.32C77.5329 18.864 77.6129 19.3653 77.7729 19.824C77.9435 20.2827 78.1782 20.6827 78.4769 21.024C78.7862 21.3653 79.1435 21.6373 79.5489 21.84C79.9542 22.032 80.4022 22.128 80.8929 22.128C81.4689 22.128 82.0182 21.9787 82.5409 21.68C83.0742 21.3813 83.5702 20.944 84.0289 20.368V22.544C83.0795 23.568 81.9702 24.08 80.7009 24.08ZM83.8689 19.776H81.5809V18.16H85.6929V24H83.8689V19.776ZM89.7826 16.704V24H87.5746V12.64H89.3346L95.2066 20.128V12.656H97.4146V24H95.5746L89.7826 16.704Z" fill="#2F281E"/>
<path d="M27.8556 0H12.5347C10.8135 0 9.20525 0.925234 8.33058 2.41122L0.656006 15.5888C-0.218669 17.0748 -0.218669 18.9252 0.656006 20.4112L8.33058 33.5888C9.20525 35.0748 10.7853 36 12.5347 36H27.8556C29.5767 36 31.185 35.0748 32.0597 33.5888L39.7342 20.4112C40.6089 18.9252 40.6089 17.0748 39.7342 15.5888L32.0597 2.41122C31.185 0.925234 29.5767 0 27.8556 0Z" fill="#00C86B"/>
<path fill-rule="evenodd" clip-rule="evenodd" d="M25.7347 30.8753H25.4258C24.7237 30.8753 23.9654 31.0152 20.9322 31.0152C20.5671 31.0152 20.2582 30.8753 20.0054 30.5395C19.528 30.2317 19.191 29.9519 18.6293 29.9519C18.1519 29.9519 17.7025 30.2317 16.6353 30.7634C16.2421 31.0432 15.4276 31.295 15.1187 31.4629C15.1187 31.295 15.1187 30.8753 15.2872 30.7634C15.4276 30.0918 15.4276 29.4762 15.2872 29.2523C15.1187 29.0285 14.9783 29.0285 14.8378 29.0285C13.911 29.0285 13.0404 30.0918 11.9732 31.0152C11.2992 31.6028 10.597 32.3863 10.2319 32.3863C9.97918 31.8547 11.0464 29.812 11.2992 28.8886C11.9732 27.3776 12.226 27.0698 11.7766 26.706C11.6362 26.5661 11.4115 26.5661 11.0183 26.706C10.4285 27.2377 9.64216 27.8253 9.05238 28.5808C7.70431 29.84 6.32816 31.1551 5.26093 30.7634C5.12051 30.5395 4.78349 30.7634 4.5869 30.9033C4.44648 31.0432 4.5869 31.295 4.75541 31.4909C6.32816 32.2464 7.84474 30.7913 9.47365 29.2803C9.92301 28.9166 10.1758 28.4689 10.6813 28.217C10.5409 28.3569 10.5409 28.4968 10.4005 28.6088C9.47365 30.5675 8.88387 32.1065 9.33323 32.834C9.47365 32.9739 9.61408 33.1418 9.92301 33.1418C10.5409 33.1418 11.2711 32.4423 12.1979 31.4909C13.0123 30.7913 13.7145 29.9799 14.3323 29.84C14.3323 29.9799 14.3323 30.2317 14.1919 30.5395C13.9672 31.1551 13.9672 31.8267 14.1919 32.1065C14.3323 32.2464 14.5008 32.4143 14.6413 32.4143C15.0344 32.4143 15.7085 32.1065 16.551 31.4909C17.0846 31.1831 17.9272 30.7913 18.0676 30.7913C18.4327 30.7913 18.7416 30.9313 18.9944 31.1831C19.3595 31.4909 19.8089 31.8547 20.3706 31.8547C22.0556 31.8547 23.7969 31.6308 25.3696 31.6308C25.6224 31.5748 25.9875 30.8753 25.7347 30.8753Z" fill="#FFFBF6"/>
<path fill-rule="evenodd" clip-rule="evenodd" d="M25.7067 30.4557C25.6786 30.7915 25.819 30.8755 26.0998 30.6796C26.8862 30.092 27.2513 29.7842 27.2513 29.7842C26.8581 29.4484 26.3807 29.1965 25.9032 29.0566C25.7628 29.98 25.7067 30.4557 25.7067 30.4557Z" fill="#FFFBF6"/>
<path fill-rule="evenodd" clip-rule="evenodd" d="M25.9874 28.217C26.7176 28.329 27.3917 28.6927 27.8972 29.2524C30.1721 27.4336 31.7167 26.2024 32.5031 25.5588L26.7176 22.2849C26.2121 26.2303 25.9874 28.217 25.9874 28.217Z" fill="#FFFBF6"/>
<path fill-rule="evenodd" clip-rule="evenodd" d="M34.7218 8.1543L34.2163 9.04971L33.1772 10.8965L27.0828 21.6415L33.1772 25.0833L34.6376 22.6209L34.6657 22.5649L34.6937 22.5089L34.7499 22.425L34.9184 22.1172L35.0588 21.8654L35.2274 21.5576L35.2835 21.4456L35.3678 21.2777L35.5082 21.0539L35.6205 20.858L35.6767 20.7461L35.789 20.5222L35.9576 20.1865L36.0137 20.1025L36.3507 19.5149L36.435 19.375L36.4631 19.347L38.7941 15.1777" fill="#FFFBF6"/>
<path d="M17.561 14.629C17.6131 12.881 18.9414 11.4431 20.5821 11.4149C22.301 11.3867 23.7074 12.881 23.7074 14.7418C23.7074 14.9391 23.6813 15.1365 23.6553 15.3056C23.499 16.236 22.9781 17.0536 22.2489 17.5329C21.9624 17.7302 21.8062 18.125 21.8583 18.4915L22.7438 23.1716C22.7958 23.4535 22.5875 23.7072 22.3271 23.7072L18.8111 23.679C18.5507 23.679 18.3423 23.4253 18.3944 23.1152L19.332 18.4351C19.4101 18.0686 19.2539 17.6739 18.9674 17.4765C18.2382 16.969 17.7433 16.1796 17.5871 15.221C17.561 15.0801 17.561 14.8545 17.561 14.629Z" fill="#2A894E"/>
</g>
<defs>
<clipPath id="clip0_0_26509">
<rect width="99" height="36" fill="white"/>
</clipPath>
</defs>
</svg>
