<svg width="197" height="38" viewBox="0 0 197 38" fill="none" xmlns="http://www.w3.org/2000/svg">
<g clip-path="url(#clip0_0_19)">
<path d="M60.184 15V3.64H64.312C65.5493 3.64 66.584 3.896 67.416 4.408C68.248 4.90933 68.872 5.592 69.288 6.456C69.704 7.30933 69.912 8.25867 69.912 9.304C69.912 10.456 69.6827 11.4587 69.224 12.312C68.7653 13.1653 68.1147 13.8267 67.272 14.296C66.44 14.7653 65.4533 15 64.312 15H60.184ZM67.688 9.304C67.688 8.568 67.5547 7.92267 67.288 7.368C67.0213 6.80267 66.6373 6.36533 66.136 6.056C65.6347 5.736 65.0267 5.576 64.312 5.576H62.392V13.064H64.312C65.0373 13.064 65.6507 12.904 66.152 12.584C66.6533 12.2533 67.032 11.8053 67.288 11.24C67.5547 10.664 67.688 10.0187 67.688 9.304ZM71.6371 15V3.64H73.8451V15H71.6371ZM80.9353 15.08C80.1993 15.08 79.5006 14.9307 78.8393 14.632C78.1886 14.3333 77.6126 13.9227 77.1113 13.4C76.6206 12.8667 76.2366 12.248 75.9593 11.544C75.6819 10.84 75.5433 10.0773 75.5433 9.256C75.5433 8.47733 75.6819 7.74667 75.9593 7.064C76.2366 6.37067 76.6259 5.76267 77.1273 5.24C77.6286 4.71733 78.2153 4.30667 78.8873 4.008C79.5593 3.70933 80.2899 3.56 81.0793 3.56C82.1459 3.56 83.0579 3.78933 83.8153 4.248C84.5833 4.696 85.1593 5.29333 85.5433 6.04L83.8953 7.256C83.6073 6.69067 83.2019 6.25867 82.6793 5.96C82.1673 5.66133 81.6073 5.512 80.9993 5.512C80.5193 5.512 80.0819 5.61333 79.6873 5.816C79.2926 6.01867 78.9513 6.296 78.6633 6.648C78.3753 7 78.1513 7.40533 77.9913 7.864C77.8419 8.32267 77.7673 8.808 77.7673 9.32C77.7673 9.864 77.8473 10.3653 78.0073 10.824C78.1779 11.2827 78.4126 11.6827 78.7113 12.024C79.0206 12.3653 79.3779 12.6373 79.7833 12.84C80.1886 13.032 80.6366 13.128 81.1273 13.128C81.7033 13.128 82.2526 12.9787 82.7753 12.68C83.3086 12.3813 83.8046 11.944 84.2633 11.368V13.544C83.3139 14.568 82.2046 15.08 80.9353 15.08ZM84.1033 10.776H81.8153V9.16H85.9273V15H84.1033V10.776ZM87.809 15V3.64H90.017V15H87.809ZM100.883 5.576H97.2511V15H95.0591V5.576H91.4271V3.64H100.883V5.576ZM104.319 3.64H106.559L110.735 15H108.463L107.407 12.168H103.439L102.399 15H100.127L104.319 3.64ZM107.007 10.616L105.439 5.928L103.807 10.616H107.007ZM111.981 15V3.64H114.189V13.064H119.981V15H111.981ZM124.684 15V3.64H129.5C130.023 3.64 130.503 3.74667 130.94 3.96C131.377 4.17333 131.756 4.46133 132.076 4.824C132.407 5.18667 132.663 5.592 132.844 6.04C133.025 6.488 133.116 6.94667 133.116 7.416C133.116 8.056 132.967 8.664 132.668 9.24C132.369 9.816 131.959 10.2853 131.436 10.648C130.913 11.0107 130.295 11.192 129.58 11.192H126.892V15H124.684ZM126.892 9.256H129.452C129.719 9.256 129.959 9.18133 130.172 9.032C130.385 8.88267 130.556 8.66933 130.684 8.392C130.812 8.104 130.876 7.77867 130.876 7.416C130.876 7.02133 130.801 6.68533 130.652 6.408C130.513 6.13067 130.327 5.92267 130.092 5.784C129.868 5.64533 129.623 5.576 129.356 5.576H126.892V9.256ZM134.653 15V3.64H139.677C140.199 3.64 140.679 3.74667 141.117 3.96C141.565 4.17333 141.949 4.46133 142.269 4.824C142.599 5.18667 142.85 5.592 143.021 6.04C143.202 6.488 143.293 6.94667 143.293 7.416C143.293 7.896 143.207 8.36 143.037 8.808C142.877 9.24533 142.642 9.62933 142.333 9.96C142.023 10.2907 141.661 10.5467 141.245 10.728L143.837 15H141.405L139.069 11.192H136.861V15H134.653ZM136.861 9.256H139.629C139.906 9.256 140.151 9.176 140.365 9.016C140.578 8.84533 140.749 8.62133 140.877 8.344C141.005 8.06667 141.069 7.75733 141.069 7.416C141.069 7.05333 140.994 6.73867 140.845 6.472C140.695 6.19467 140.503 5.976 140.269 5.816C140.045 5.656 139.799 5.576 139.533 5.576H136.861V9.256ZM150.079 15.08C149.247 15.08 148.49 14.92 147.807 14.6C147.135 14.28 146.554 13.848 146.063 13.304C145.583 12.7493 145.21 12.1307 144.943 11.448C144.676 10.7547 144.543 10.0453 144.543 9.32C144.543 8.56267 144.682 7.84267 144.959 7.16C145.247 6.46667 145.636 5.85333 146.127 5.32C146.628 4.776 147.215 4.34933 147.887 4.04C148.57 3.72 149.316 3.56 150.127 3.56C150.948 3.56 151.695 3.72533 152.367 4.056C153.05 4.38667 153.631 4.82933 154.111 5.384C154.591 5.93867 154.964 6.55733 155.231 7.24C155.498 7.92267 155.631 8.62667 155.631 9.352C155.631 10.0987 155.492 10.8187 155.215 11.512C154.938 12.1947 154.548 12.808 154.047 13.352C153.556 13.8853 152.97 14.3067 152.287 14.616C151.615 14.9253 150.879 15.08 150.079 15.08ZM146.783 9.32C146.783 9.81067 146.858 10.2853 147.007 10.744C147.156 11.2027 147.37 11.6133 147.647 11.976C147.935 12.328 148.282 12.6107 148.687 12.824C149.103 13.0267 149.572 13.128 150.095 13.128C150.628 13.128 151.103 13.0213 151.519 12.808C151.935 12.584 152.282 12.2907 152.559 11.928C152.836 11.5547 153.044 11.144 153.183 10.696C153.332 10.2373 153.407 9.77867 153.407 9.32C153.407 8.82933 153.327 8.36 153.167 7.912C153.018 7.45333 152.799 7.048 152.511 6.696C152.234 6.33333 151.887 6.05067 151.471 5.848C151.066 5.63467 150.607 5.528 150.095 5.528C149.551 5.528 149.071 5.64 148.655 5.864C148.25 6.07733 147.908 6.36533 147.631 6.728C147.354 7.09067 147.14 7.496 146.991 7.944C146.852 8.392 146.783 8.85067 146.783 9.32ZM156.637 9.24C156.637 8.54667 156.759 7.86933 157.005 7.208C157.261 6.536 157.629 5.928 158.109 5.384C158.589 4.82933 159.175 4.392 159.869 4.072C160.562 3.74133 161.351 3.576 162.237 3.576C163.282 3.576 164.183 3.80533 164.941 4.264C165.709 4.72267 166.279 5.32 166.653 6.056L164.957 7.224C164.765 6.79733 164.514 6.46133 164.205 6.216C163.895 5.96 163.565 5.784 163.213 5.688C162.861 5.58133 162.514 5.528 162.173 5.528C161.618 5.528 161.133 5.64 160.717 5.864C160.311 6.088 159.97 6.38133 159.693 6.744C159.415 7.10667 159.207 7.512 159.069 7.96C158.941 8.408 158.877 8.856 158.877 9.304C158.877 9.80533 158.957 10.2907 159.117 10.76C159.277 11.2187 159.501 11.6293 159.789 11.992C160.087 12.344 160.439 12.6267 160.845 12.84C161.261 13.0427 161.714 13.144 162.205 13.144C162.557 13.144 162.914 13.0853 163.277 12.968C163.639 12.8507 163.975 12.664 164.285 12.408C164.594 12.152 164.834 11.8213 165.005 11.416L166.813 12.456C166.589 13.0213 166.221 13.5013 165.709 13.896C165.207 14.2907 164.642 14.5893 164.013 14.792C163.383 14.9947 162.759 15.096 162.141 15.096C161.33 15.096 160.589 14.9307 159.917 14.6C159.245 14.2587 158.663 13.8107 158.173 13.256C157.693 12.6907 157.314 12.0613 157.037 11.368C156.77 10.664 156.637 9.95467 156.637 9.24ZM176.181 13.064V15H168.293V3.64H176.037V5.576H170.501V8.312H175.285V10.104H170.501V13.064H176.181ZM184.671 6.616C184.596 6.54133 184.457 6.44 184.255 6.312C184.063 6.184 183.823 6.06133 183.535 5.944C183.257 5.82667 182.953 5.72533 182.623 5.64C182.292 5.544 181.956 5.496 181.615 5.496C181.017 5.496 180.564 5.608 180.255 5.832C179.956 6.056 179.807 6.37067 179.807 6.776C179.807 7.08533 179.903 7.33067 180.095 7.512C180.287 7.69333 180.575 7.848 180.959 7.976C181.343 8.104 181.823 8.24267 182.399 8.392C183.145 8.57333 183.791 8.79733 184.335 9.064C184.889 9.32 185.311 9.66133 185.599 10.088C185.897 10.504 186.047 11.0587 186.047 11.752C186.047 12.36 185.935 12.8827 185.711 13.32C185.487 13.7467 185.177 14.0933 184.783 14.36C184.388 14.6267 183.94 14.824 183.439 14.952C182.937 15.0693 182.404 15.128 181.839 15.128C181.273 15.128 180.708 15.0693 180.143 14.952C179.577 14.8347 179.033 14.6693 178.511 14.456C177.988 14.232 177.508 13.9653 177.071 13.656L178.047 11.752C178.143 11.848 178.313 11.976 178.559 12.136C178.804 12.2853 179.103 12.44 179.455 12.6C179.807 12.7493 180.191 12.8773 180.607 12.984C181.023 13.0907 181.444 13.144 181.871 13.144C182.468 13.144 182.921 13.0427 183.231 12.84C183.54 12.6373 183.695 12.3493 183.695 11.976C183.695 11.6347 183.572 11.368 183.327 11.176C183.081 10.984 182.74 10.8187 182.303 10.68C181.865 10.5307 181.348 10.3707 180.751 10.2C180.036 9.99733 179.439 9.77333 178.959 9.528C178.479 9.272 178.121 8.952 177.887 8.568C177.652 8.184 177.535 7.704 177.535 7.128C177.535 6.34933 177.716 5.69867 178.079 5.176C178.452 4.64267 178.953 4.24267 179.583 3.976C180.212 3.69867 180.911 3.56 181.679 3.56C182.212 3.56 182.713 3.61867 183.183 3.736C183.663 3.85333 184.111 4.008 184.527 4.2C184.943 4.392 185.316 4.6 185.647 4.824L184.671 6.616ZM194.483 6.616C194.409 6.54133 194.27 6.44 194.067 6.312C193.875 6.184 193.635 6.06133 193.347 5.944C193.07 5.82667 192.766 5.72533 192.435 5.64C192.105 5.544 191.769 5.496 191.427 5.496C190.83 5.496 190.377 5.608 190.067 5.832C189.769 6.056 189.619 6.37067 189.619 6.776C189.619 7.08533 189.715 7.33067 189.907 7.512C190.099 7.69333 190.387 7.848 190.771 7.976C191.155 8.104 191.635 8.24267 192.211 8.392C192.958 8.57333 193.603 8.79733 194.147 9.064C194.702 9.32 195.123 9.66133 195.411 10.088C195.71 10.504 195.859 11.0587 195.859 11.752C195.859 12.36 195.747 12.8827 195.523 13.32C195.299 13.7467 194.99 14.0933 194.595 14.36C194.201 14.6267 193.753 14.824 193.251 14.952C192.75 15.0693 192.217 15.128 191.651 15.128C191.086 15.128 190.521 15.0693 189.955 14.952C189.39 14.8347 188.846 14.6693 188.323 14.456C187.801 14.232 187.321 13.9653 186.883 13.656L187.859 11.752C187.955 11.848 188.126 11.976 188.371 12.136C188.617 12.2853 188.915 12.44 189.267 12.6C189.619 12.7493 190.003 12.8773 190.419 12.984C190.835 13.0907 191.257 13.144 191.683 13.144C192.281 13.144 192.734 13.0427 193.043 12.84C193.353 12.6373 193.507 12.3493 193.507 11.976C193.507 11.6347 193.385 11.368 193.139 11.176C192.894 10.984 192.553 10.8187 192.115 10.68C191.678 10.5307 191.161 10.3707 190.563 10.2C189.849 9.99733 189.251 9.77333 188.771 9.528C188.291 9.272 187.934 8.952 187.699 8.568C187.465 8.184 187.347 7.704 187.347 7.128C187.347 6.34933 187.529 5.69867 187.891 5.176C188.265 4.64267 188.766 4.24267 189.395 3.976C190.025 3.69867 190.723 3.56 191.491 3.56C192.025 3.56 192.526 3.61867 192.995 3.736C193.475 3.85333 193.923 4.008 194.339 4.2C194.755 4.392 195.129 4.6 195.459 4.824L194.483 6.616ZM69.448 34V26.544L66.536 32.096H65.304L62.392 26.544V34H60.184V22.64H62.552L65.912 29.104L69.304 22.64H71.656V34H69.448ZM77.1158 22.64H79.3558L83.5318 34H81.2598L80.2038 31.168H76.2358L75.1957 34H72.9238L77.1158 22.64ZM79.8038 29.616L78.2358 24.928L76.6038 29.616H79.8038ZM86.9858 26.704V34H84.7778V22.64H86.5378L92.4097 30.128V22.656H94.6178V34H92.7778L86.9858 26.704ZM100.069 22.64H102.309L106.485 34H104.213L103.157 31.168H99.1889L98.1489 34H95.8769L100.069 22.64ZM102.757 29.616L101.189 24.928L99.5569 29.616H102.757ZM112.013 34.08C111.277 34.08 110.579 33.9307 109.917 33.632C109.267 33.3333 108.691 32.9227 108.189 32.4C107.699 31.8667 107.315 31.248 107.037 30.544C106.76 29.84 106.621 29.0773 106.621 28.256C106.621 27.4773 106.76 26.7467 107.037 26.064C107.315 25.3707 107.704 24.7627 108.205 24.24C108.707 23.7173 109.293 23.3067 109.965 23.008C110.637 22.7093 111.368 22.56 112.157 22.56C113.224 22.56 114.136 22.7893 114.893 23.248C115.661 23.696 116.237 24.2933 116.621 25.04L114.973 26.256C114.685 25.6907 114.28 25.2587 113.757 24.96C113.245 24.6613 112.685 24.512 112.077 24.512C111.597 24.512 111.16 24.6133 110.765 24.816C110.371 25.0187 110.029 25.296 109.741 25.648C109.453 26 109.229 26.4053 109.069 26.864C108.92 27.3227 108.845 27.808 108.845 28.32C108.845 28.864 108.925 29.3653 109.085 29.824C109.256 30.2827 109.491 30.6827 109.789 31.024C110.099 31.3653 110.456 31.6373 110.861 31.84C111.267 32.032 111.715 32.128 112.205 32.128C112.781 32.128 113.331 31.9787 113.853 31.68C114.387 31.3813 114.883 30.944 115.341 30.368V32.544C114.392 33.568 113.283 34.08 112.013 34.08ZM115.181 29.776H112.893V28.16H117.005V34H115.181V29.776ZM126.775 32.064V34H118.887V22.64H126.631V24.576H121.095V27.312H125.879V29.104H121.095V32.064H126.775ZM137.761 34V26.544L134.849 32.096H133.617L130.705 26.544V34H128.497V22.64H130.865L134.225 29.104L137.617 22.64H139.969V34H137.761ZM150.228 32.064V34H142.34V22.64H150.084V24.576H144.548V27.312H149.332V29.104H144.548V32.064H150.228ZM154.158 26.704V34H151.95V22.64H153.71L159.582 30.128V22.656H161.79V34H159.95L154.158 26.704ZM172.649 24.576H169.017V34H166.825V24.576H163.193V22.64H172.649V24.576Z" fill="#2F281E"/>
<path d="M17.9332 6.92017L19.6351 7.90127L6.62183 30.4754L4.91992 29.4943L17.9332 6.92017Z" fill="#415086"/>
<path d="M42.3659 6.92017L44.0678 7.90127L31.0544 30.4754L29.3525 29.4943L42.3659 6.92017Z" fill="#415086"/>
<path d="M16.9463 7.92476L18.6308 6.91406L32.1648 29.4708L30.4803 30.4815L16.9463 7.92476Z" fill="#415086"/>
<circle cx="6.13889" cy="29.0112" r="6.13889" fill="#34B933"/>
<circle cx="30.6946" cy="29.0112" r="6.13889" fill="#28B0FF"/>
<circle cx="18.4162" cy="8.13889" r="6.13889" fill="#FFC107"/>
<circle cx="42.9719" cy="8.13889" r="6.13889" fill="#415086"/>
</g>
<defs>
<clipPath id="clip0_0_19">
<rect width="197" height="38" fill="white"/>
</clipPath>
</defs>
</svg>
