<svg width="20" height="20" viewBox="0 0 20 20" fill="none" xmlns="http://www.w3.org/2000/svg">
<path fill-rule="evenodd" clip-rule="evenodd" d="M14.0208 1.15448V0.322581C14.0208 0.144435 14.1652 0 14.3433 0C14.5215 0 14.6659 0.144435 14.6659 0.322581V1.15448C14.6659 1.33262 14.5215 1.47706 14.3433 1.47706C14.1652 1.47706 14.0208 1.33266 14.0208 1.15448ZM10.4891 5.88C10.4891 3.75476 12.2181 2.02573 14.3433 2.02573C16.4686 2.02573 18.1976 3.75476 18.1976 5.88C18.1976 6.87911 17.8957 7.39516 17.576 7.94149C17.2249 8.54153 16.8619 9.16202 16.7747 10.6265V11.1894C16.7747 11.5627 16.5452 11.8833 16.22 12.018V12.3372C16.22 12.7233 15.9745 13.0533 15.6314 13.1792V13.485C15.6314 13.9793 15.2293 14.3815 14.735 14.3815H13.9901C13.4958 14.3815 13.0937 13.9794 13.0937 13.485V13.1792C12.7505 13.0533 12.5051 12.7233 12.5051 12.3372V12.0329C12.1597 11.9082 11.912 11.5772 11.912 11.1894V10.6265C11.8248 9.16202 11.4618 8.54149 11.1107 7.94149C10.791 7.39516 10.4891 6.87911 10.4891 5.88ZM12.9128 6.40407H13.4109V5.90597C13.4109 5.63133 13.1875 5.40786 12.9128 5.40786C12.6381 5.40786 12.4146 5.63133 12.4146 5.90597C12.4146 6.1806 12.6381 6.40407 12.9128 6.40407ZM14.056 10.2928V7.04923H14.6306V10.2928H14.056ZM16.1295 11.1893V10.9379H12.5572V11.1893C12.5572 11.3279 12.6699 11.4406 12.8085 11.4406H15.8783C16.0168 11.4406 16.1295 11.3279 16.1295 11.1893ZM15.3235 12.5884H13.4016C13.2629 12.5884 13.1502 12.4757 13.1502 12.3371V12.0858H15.5748V12.3371C15.5748 12.4757 15.4621 12.5884 15.3235 12.5884ZM13.9901 13.7363H14.735C14.8735 13.7363 14.9862 13.6235 14.9863 13.485V13.2336H13.7388V13.485C13.7388 13.6235 13.8515 13.7363 13.9901 13.7363ZM17.0191 7.61564C16.6884 8.18089 16.282 8.87548 16.1528 10.2928H15.2758V7.04923H15.774C16.4044 7.04923 16.9172 6.53637 16.9172 5.90597C16.9172 5.27556 16.4044 4.7627 15.774 4.7627C15.1435 4.7627 14.6306 5.27556 14.6306 5.90597V6.40407H14.056V5.90597C14.056 5.27556 13.5432 4.7627 12.9128 4.7627C12.2824 4.7627 11.7695 5.27556 11.7695 5.90597C11.7695 6.53637 12.2824 7.04923 12.9128 7.04923H13.4109V10.2928H12.5339C12.4047 8.87548 11.9983 8.18089 11.6676 7.61564C11.3696 7.10641 11.1342 6.70419 11.1342 5.88C11.1342 4.11048 12.5738 2.67089 14.3433 2.67089C16.1129 2.67089 17.5525 4.11048 17.5525 5.88C17.5525 6.70419 17.3171 7.10641 17.0191 7.61564ZM15.2758 5.90597V6.40407H15.774C16.0486 6.40407 16.2721 6.1806 16.2721 5.90597C16.2721 5.63133 16.0486 5.40786 15.774 5.40786C15.4993 5.40786 15.2758 5.63129 15.2758 5.90597ZM11.1024 0.868387C10.9481 0.95746 10.8952 1.15472 10.9844 1.30903L11.4003 2.02948C11.46 2.13294 11.5684 2.19081 11.68 2.19081C11.7346 2.19081 11.7901 2.17685 11.8409 2.14754C11.9952 2.05847 12.0481 1.86121 11.959 1.7069L11.5431 0.986452C11.454 0.832218 11.2568 0.779315 11.1024 0.868387ZM8.72992 3.24093C8.81895 3.08665 9.01629 3.03371 9.17056 3.12286L9.89101 3.53879C10.0453 3.62786 10.0982 3.82516 10.0091 3.97944C9.94935 4.0829 9.84089 4.14077 9.72939 4.14077C9.67468 4.14077 9.61923 4.12681 9.56843 4.0975L8.84798 3.68157C8.69371 3.5925 8.64081 3.3952 8.72992 3.24093ZM17.1436 0.986492L16.7277 1.70694C16.6386 1.86121 16.6915 2.05851 16.8458 2.14758C16.8966 2.1769 16.952 2.19085 17.0067 2.19085C17.1182 2.19085 17.2267 2.13298 17.2864 2.02952L17.7023 1.30907C17.7915 1.1548 17.7385 0.9575 17.5843 0.868427C17.43 0.779315 17.2327 0.832177 17.1436 0.986492ZM19.8387 3.68157L19.1183 4.0975C19.0675 4.12681 19.012 4.14077 18.9573 4.14077C18.8458 4.14077 18.7374 4.0829 18.6776 3.97944C18.5885 3.82516 18.6414 3.62786 18.7957 3.53879L19.5161 3.12286C19.6705 3.03379 19.8677 3.08669 19.9568 3.24093C20.0459 3.3952 19.993 3.5925 19.8387 3.68157ZM11.5514 12.0011V13.5373C11.9467 13.672 12.232 14.0467 12.232 14.4869V15.6801C12.232 16.1204 11.9467 16.495 11.5514 16.6297V18.2335C11.5514 18.3779 11.4554 18.5047 11.3165 18.5439L6.20367 19.9879C6.17504 19.9959 6.14552 20 6.11601 20C6.08649 20 6.05698 19.996 6.02835 19.9879L0.915524 18.5439C0.776573 18.5047 0.680605 18.3779 0.680605 18.2335V16.6297C0.285282 16.495 0 16.1204 0 15.6801V14.4869C0 14.0467 0.285282 13.672 0.680605 13.5373V12.0011C0.680605 11.9001 0.727984 11.8048 0.808548 11.7439C0.889113 11.6829 0.99371 11.6632 1.09085 11.6907L1.75444 11.8781C1.94456 11.1592 2.61105 10.6242 3.67552 10.3506C4.21355 10.2123 4.75742 10.1209 5.30536 10.0761C4.51181 9.66847 3.9504 8.68181 3.9504 7.53153C3.9504 6.1496 4.7802 5.29109 6.11601 5.29109C7.45181 5.29109 8.28161 6.14956 8.28161 7.53153C8.28161 8.68448 7.71758 9.67298 6.92113 10.0789C7.46367 10.1245 8.00847 10.2147 8.55383 10.35C9.6044 10.6106 10.2828 11.1569 10.4766 11.8784L11.1412 11.6907C11.2382 11.6632 11.3429 11.6829 11.4235 11.7439C11.504 11.8049 11.5514 11.9001 11.5514 12.0011ZM4.59556 7.53149C4.59556 6.14343 5.54819 5.93621 6.11601 5.93621C6.68383 5.93621 7.63645 6.14347 7.63645 7.53149C7.63645 8.68927 6.95439 9.63117 6.11601 9.63117C5.27762 9.63117 4.59556 8.68927 4.59556 7.53149ZM8.39851 10.9761C6.85677 10.5936 5.32177 10.5933 3.83617 10.9754C3.23819 11.1292 2.53573 11.4388 2.37669 12.0538L6.11601 13.1099L9.85516 12.0539C9.68395 11.3946 8.89077 11.0982 8.39851 10.9761ZM0.645161 14.4869C0.645161 14.2895 0.805766 14.129 1.00319 14.129C1.2006 14.129 1.36117 14.2895 1.36117 14.4869V15.6801C1.36117 15.8775 1.2006 16.0381 1.00319 16.0381C0.805766 16.0381 0.645161 15.8775 0.645161 15.6801V14.4869ZM2.00633 15.6801C2.00633 16.1204 1.72109 16.495 1.32577 16.6297V17.9894L5.79343 19.2511V13.6892L1.32577 12.4274V13.5373C1.72109 13.672 2.00633 14.0467 2.00633 14.4869V15.6801ZM6.43859 19.2511V13.6892L10.9062 12.4274V13.5373C10.5109 13.672 10.2257 14.0467 10.2257 14.487V15.6801C10.2257 16.1204 10.5109 16.4951 10.9062 16.6298V17.9894L6.43859 19.2511ZM11.2288 16.0381C11.4262 16.0381 11.5868 15.8775 11.5868 15.6801V14.4869C11.5868 14.2895 11.4262 14.129 11.2288 14.129C11.0314 14.129 10.8708 14.2895 10.8708 14.4869V15.6801C10.8708 15.8775 11.0314 16.0381 11.2288 16.0381Z" fill="#FDC113"/>
</svg>
