<svg width="19" height="20" viewBox="0 0 19 20" fill="none" xmlns="http://www.w3.org/2000/svg">
<path fill-rule="evenodd" clip-rule="evenodd" d="M2.78325 13.6667H1.66659C0.930206 13.6667 0.333252 13.0697 0.333252 12.3333V2C0.333252 1.26362 0.930206 0.666667 1.66659 0.666667H2.99992V0.333333C2.99992 0.149238 3.14916 0 3.33325 0C3.51735 0 3.66659 0.149238 3.66659 0.333333V0.666667H5.99992V0.333333C5.99992 0.149238 6.14916 0 6.33325 0C6.51735 0 6.66659 0.149238 6.66659 0.333333V0.666667H8.99992V0.333333C8.99992 0.149238 9.14916 0 9.33325 0C9.51735 0 9.66658 0.149238 9.66658 0.333333V0.666667H11.9999V0.333333C11.9999 0.149238 12.1492 0 12.3333 0C12.5173 0 12.6666 0.149238 12.6666 0.333333V0.666667H14.9999V0.333333C14.9999 0.149238 15.1492 0 15.3333 0C15.5173 0 15.6666 0.149238 15.6666 0.333333V0.666667H16.9999C17.7363 0.666667 18.3333 1.26362 18.3333 2V12.3333C18.3333 13.0697 17.7363 13.6667 16.9999 13.6667H15.8833C16.177 14.4851 15.9038 15.3995 15.2093 15.9227C16.2996 16.3988 17.0032 17.4769 16.9999 18.6667V19.3333C16.9999 19.7015 16.7014 20 16.3333 20H2.33325C1.96506 20 1.66659 19.7015 1.66659 19.3333V18.6667C1.66827 17.4782 2.37056 16.4026 3.45792 15.923C2.76288 15.4 2.48939 14.4854 2.78325 13.6667ZM4.66659 13C3.93021 13 3.33325 13.597 3.33325 14.3333C3.33325 15.0697 3.93021 15.6667 4.66659 15.6667C5.40297 15.6667 5.99992 15.0697 5.99992 14.3333C5.99992 13.597 5.40297 13 4.66659 13ZM12.7913 15.923C12.562 16.0242 12.3464 16.1537 12.1493 16.3083C11.8684 15.5414 11.2884 14.9212 10.5419 14.5897C10.8516 14.354 11.0861 14.0333 11.2166 13.6667H12.1166C11.8227 14.4854 12.0962 15.4 12.7913 15.923ZM6.99992 17.3333V19.3333H11.6666V17.3333C11.6666 16.0447 10.6219 15 9.33325 15C8.04459 15 6.99992 16.0447 6.99992 17.3333ZM9.33325 14.3333C8.59687 14.3333 7.99992 13.7364 7.99992 13C7.99992 12.2636 8.59687 11.6667 9.33325 11.6667C10.0696 11.6667 10.6666 12.2636 10.6666 13C10.6666 13.7364 10.0696 14.3333 9.33325 14.3333ZM6.51792 16.3073C6.79853 15.5407 7.37836 14.9208 8.12459 14.5897C7.81486 14.354 7.58043 14.0333 7.44992 13.6667H6.54992C6.84364 14.4851 6.57047 15.3995 5.87592 15.9227C6.10507 16.0237 6.32073 16.1529 6.51792 16.3073ZM2.33325 19.3333V18.6667C2.33237 17.7223 2.90078 16.8706 3.77315 16.509C4.64551 16.1474 5.64981 16.3473 6.31725 17.0153C6.32346 17.0215 6.32921 17.0281 6.33498 17.0346L6.33499 17.0347C6.33913 17.0394 6.34327 17.0441 6.34759 17.0487C6.33892 17.1423 6.33325 17.2373 6.33325 17.3333V19.3333H2.33325ZM16.3333 18.6667C16.3338 18.0471 16.088 17.4528 15.6499 17.0147C15.2064 16.5718 14.6032 16.3263 13.9764 16.3335C13.3497 16.3406 12.7523 16.5998 12.3189 17.0527C12.3276 17.145 12.3333 17.2387 12.3333 17.3333V19.3333H16.3333V18.6667ZM13.9999 15.6667C13.2635 15.6667 12.6666 15.0697 12.6666 14.3333C12.6666 13.597 13.2635 13 13.9999 13C14.7363 13 15.3333 13.597 15.3333 14.3333C15.3333 15.0697 14.7363 15.6667 13.9999 15.6667ZM15.4866 13H16.9999C17.3681 13 17.6666 12.7015 17.6666 12.3333V3.33333H0.999919V12.3333C0.999919 12.7015 1.2984 13 1.66659 13H3.17992C3.55771 12.5759 4.09863 12.3334 4.66659 12.3334C5.23454 12.3334 5.77546 12.5759 6.15325 13H7.33325C7.33325 11.8954 8.22868 11 9.33325 11C10.4378 11 11.3333 11.8954 11.3333 13H12.5133C12.891 12.5759 13.432 12.3334 13.9999 12.3334C14.5679 12.3334 15.1088 12.5759 15.4866 13ZM1.66659 1.33333H2.99992V1.66667C2.99992 1.85076 3.14916 2 3.33325 2C3.51735 2 3.66659 1.85076 3.66659 1.66667V1.33333H5.99992V1.66667C5.99992 1.85076 6.14916 2 6.33325 2C6.51735 2 6.66658 1.85076 6.66658 1.66667V1.33333H8.99992V1.66667C8.99992 1.85076 9.14916 2 9.33325 2C9.51735 2 9.66659 1.85076 9.66659 1.66667V1.33333H11.9999V1.66667C11.9999 1.85076 12.1492 2 12.3333 2C12.5173 2 12.6666 1.85076 12.6666 1.66667V1.33333H14.9999V1.66667C14.9999 1.85076 15.1492 2 15.3333 2C15.5173 2 15.6666 1.85076 15.6666 1.66667V1.33333H16.9999C17.3681 1.33333 17.6666 1.63181 17.6666 2V2.66667H0.999919V2C0.999919 1.63181 1.2984 1.33333 1.66659 1.33333ZM11.7459 5.95933L10.6333 5.66667L9.92159 4.639C9.78763 4.44738 9.56855 4.33322 9.33475 4.33322C9.10095 4.33322 8.88187 4.44738 8.74792 4.639L8.03325 5.66667L6.91925 5.95967C6.65837 6.02656 6.4503 6.22304 6.36859 6.47967C6.28746 6.7316 6.34203 7.00756 6.51292 7.20967L7.22159 8.05633L7.16659 9.27033C7.15615 9.50211 7.26206 9.72381 7.44892 9.86133C7.6403 10.0031 7.88987 10.0397 8.11392 9.959L9.33325 9.52233L10.5536 9.959C10.7777 10.0395 11.0271 10.0029 11.2186 9.86133C11.4054 9.72368 11.5109 9.50176 11.4999 9.27L11.4426 8.056L12.1509 7.20933C12.3219 7.00729 12.3766 6.73132 12.2956 6.47933C12.2141 6.22296 12.0064 6.02653 11.7459 5.95933ZM11.6409 6.78167L10.8489 7.728C10.7951 7.79209 10.7674 7.87408 10.7713 7.95767L10.8223 9.32433C10.8094 9.33335 10.793 9.33559 10.7783 9.33033L9.44492 8.85333C9.37232 8.82711 9.29285 8.82711 9.22025 8.85333L7.88692 9.33033C7.86725 9.337 7.85192 9.33033 7.82992 9.30033L7.89359 7.95633C7.89727 7.87282 7.8697 7.79094 7.81625 7.72667L7.02392 6.78C6.99936 6.75289 6.99157 6.71454 7.00359 6.68C7.01607 6.64095 7.0485 6.61157 7.08859 6.603L8.32192 6.27833C8.39886 6.25778 8.46598 6.21052 8.51125 6.145L9.29292 5.01567C9.30076 5.00168 9.31555 4.99302 9.33158 4.99302C9.34762 4.99302 9.36241 5.00168 9.37025 5.01567L10.1523 6.14467C10.1973 6.21025 10.2644 6.25754 10.3413 6.278L11.5746 6.60267C11.6148 6.6113 11.6472 6.64082 11.6596 6.68C11.6727 6.71473 11.6655 6.75387 11.6409 6.78167Z" fill="#28B0FF"/>
</svg>
