<svg width="182" height="40" viewBox="0 0 182 40" fill="none" xmlns="http://www.w3.org/2000/svg">
<g id="Group 16" clip-path="url(#clip0_0_17273)">
<path id="K&#225;&#186;&#191;t n&#225;&#187;&#145;i ph&#225;&#186;&#179;ng Copy" d="M50.48 27V12.82H53.24V19.56L59.2 12.8H62.24L56.8 19.1L62.58 27H59.46L55.04 20.88L53.24 22.76V27H50.48ZM68.4589 27.2C67.6189 27.2 66.8589 27.06 66.1789 26.78C65.4989 26.4867 64.9189 26.0933 64.4389 25.6C63.9589 25.0933 63.5856 24.52 63.3189 23.88C63.0656 23.2267 62.9389 22.54 62.9389 21.82C62.9389 20.82 63.1589 19.9067 63.5989 19.08C64.0522 18.2533 64.6922 17.5933 65.5189 17.1C66.3589 16.5933 67.3456 16.34 68.4789 16.34C69.6256 16.34 70.6056 16.5933 71.4189 17.1C72.2322 17.5933 72.8522 18.2533 73.2789 19.08C73.7189 19.8933 73.9389 20.7733 73.9389 21.72C73.9389 21.88 73.9322 22.0467 73.9189 22.22C73.9056 22.38 73.8922 22.5133 73.8789 22.62H65.7789C65.8322 23.1533 65.9856 23.62 66.2389 24.02C66.5056 24.42 66.8389 24.7267 67.2389 24.94C67.6522 25.14 68.0922 25.24 68.5589 25.24C69.0922 25.24 69.5922 25.1133 70.0589 24.86C70.5389 24.5933 70.8656 24.2467 71.0389 23.82L73.3389 24.46C73.0856 24.9933 72.7189 25.4667 72.2389 25.88C71.7722 26.2933 71.2189 26.62 70.5789 26.86C69.9389 27.0867 69.2322 27.2 68.4589 27.2ZM65.7189 20.92H71.1989C71.1456 20.3867 70.9922 19.9267 70.7389 19.54C70.4989 19.14 70.1789 18.8333 69.7789 18.62C69.3789 18.3933 68.9322 18.28 68.4389 18.28C67.9589 18.28 67.5189 18.3933 67.1189 18.62C66.7322 18.8333 66.4122 19.14 66.1589 19.54C65.9189 19.9267 65.7722 20.3867 65.7189 20.92ZM65.1989 14.68L67.3189 12.66H69.2589L71.3789 14.68L69.9989 15.32L68.2989 14.06L66.5989 15.32L65.1989 14.68ZM72.0789 13.36L70.3589 12.84L71.4389 10.46H73.9389L72.0789 13.36ZM81.8516 26.46C81.6249 26.5533 81.3516 26.66 81.0316 26.78C80.7116 26.9 80.3649 26.9933 79.9916 27.06C79.6316 27.14 79.2649 27.18 78.8916 27.18C78.3982 27.18 77.9449 27.0933 77.5316 26.92C77.1182 26.7467 76.7849 26.4733 76.5316 26.1C76.2916 25.7133 76.1716 25.2133 76.1716 24.6V18.58H74.7916V16.52H76.1716V13.12H78.8516V16.52H81.0516V18.58H78.8516V23.7C78.8649 24.06 78.9649 24.32 79.1516 24.48C79.3382 24.64 79.5716 24.72 79.8516 24.72C80.1316 24.72 80.4049 24.6733 80.6716 24.58C80.9382 24.4867 81.1516 24.4067 81.3116 24.34L81.8516 26.46ZM97.792 27H95.112V21.12C95.112 20.28 94.9654 19.6667 94.672 19.28C94.3787 18.8933 93.972 18.7 93.452 18.7C93.092 18.7 92.7254 18.7933 92.352 18.98C91.992 19.1667 91.6654 19.4267 91.372 19.76C91.0787 20.08 90.8654 20.4533 90.732 20.88V27H88.052V16.52H90.472V18.46C90.7387 18.0067 91.0787 17.6267 91.492 17.32C91.9054 17 92.3787 16.76 92.912 16.6C93.4587 16.4267 94.032 16.34 94.632 16.34C95.2854 16.34 95.8187 16.46 96.232 16.7C96.6587 16.9267 96.9787 17.24 97.192 17.64C97.4187 18.0267 97.572 18.4667 97.652 18.96C97.7454 19.4533 97.792 19.9533 97.792 20.46V27ZM104.962 27.2C104.109 27.2 103.342 27.06 102.662 26.78C101.982 26.4867 101.402 26.0867 100.922 25.58C100.456 25.0733 100.096 24.4933 99.8423 23.84C99.589 23.1867 99.4623 22.5 99.4623 21.78C99.4623 21.0467 99.589 20.3533 99.8423 19.7C100.096 19.0467 100.456 18.4667 100.922 17.96C101.402 17.4533 101.982 17.06 102.662 16.78C103.342 16.4867 104.109 16.34 104.962 16.34C105.816 16.34 106.576 16.4867 107.242 16.78C107.922 17.06 108.502 17.4533 108.982 17.96C109.462 18.4667 109.822 19.0467 110.062 19.7C110.316 20.3533 110.442 21.0467 110.442 21.78C110.442 22.5 110.316 23.1867 110.062 23.84C109.822 24.4933 109.462 25.0733 108.982 25.58C108.516 26.0867 107.942 26.4867 107.262 26.78C106.582 27.06 105.816 27.2 104.962 27.2ZM102.222 21.78C102.222 22.3933 102.342 22.94 102.582 23.42C102.822 23.8867 103.149 24.2533 103.562 24.52C103.976 24.7867 104.442 24.92 104.962 24.92C105.469 24.92 105.929 24.7867 106.342 24.52C106.756 24.24 107.082 23.8667 107.322 23.4C107.576 22.92 107.702 22.3733 107.702 21.76C107.702 21.16 107.576 20.62 107.322 20.14C107.082 19.66 106.756 19.2867 106.342 19.02C105.929 18.7533 105.469 18.62 104.962 18.62C104.442 18.62 103.976 18.76 103.562 19.04C103.149 19.3067 102.822 19.68 102.582 20.16C102.342 20.6267 102.222 21.1667 102.222 21.78ZM101.722 14.68L103.842 12.66H105.782L107.902 14.68L106.522 15.32L104.822 14.06L103.122 15.32L101.722 14.68ZM108.602 13.36L106.882 12.84L107.962 10.46H110.462L108.602 13.36ZM112.251 27V16.52H114.931V27H112.251ZM112.251 15.06V12.4H114.931V15.06H112.251ZM128.434 27.2C127.62 27.2 126.9 27.02 126.274 26.66C125.66 26.2867 125.18 25.7867 124.834 25.16V31.26H122.154V16.52H124.494V18.32C124.894 17.7067 125.4 17.2267 126.014 16.88C126.627 16.52 127.327 16.34 128.114 16.34C128.82 16.34 129.467 16.48 130.054 16.76C130.654 17.04 131.174 17.4333 131.614 17.94C132.054 18.4333 132.394 19.0067 132.634 19.66C132.887 20.3 133.014 20.9933 133.014 21.74C133.014 22.7533 132.814 23.6733 132.414 24.5C132.027 25.3267 131.487 25.9867 130.794 26.48C130.114 26.96 129.327 27.2 128.434 27.2ZM127.534 24.92C127.947 24.92 128.32 24.8333 128.654 24.66C128.987 24.4867 129.274 24.2533 129.514 23.96C129.767 23.6533 129.954 23.3133 130.074 22.94C130.207 22.5533 130.274 22.1533 130.274 21.74C130.274 21.3 130.2 20.8933 130.054 20.52C129.92 20.1467 129.72 19.82 129.454 19.54C129.187 19.2467 128.874 19.02 128.514 18.86C128.167 18.7 127.787 18.62 127.374 18.62C127.12 18.62 126.86 18.6667 126.594 18.76C126.34 18.84 126.094 18.96 125.854 19.12C125.614 19.28 125.4 19.4667 125.214 19.68C125.04 19.8933 124.914 20.1267 124.834 20.38V22.84C124.994 23.2267 125.207 23.58 125.474 23.9C125.754 24.22 126.074 24.4733 126.434 24.66C126.794 24.8333 127.16 24.92 127.534 24.92ZM144.569 27H141.889V21.12C141.889 20.3067 141.729 19.7 141.409 19.3C141.103 18.9 140.676 18.7 140.129 18.7C139.809 18.7 139.469 18.7933 139.109 18.98C138.749 19.1667 138.423 19.4267 138.129 19.76C137.849 20.08 137.643 20.4533 137.509 20.88V27H134.829V12.4H137.509V18.46C137.896 17.7933 138.423 17.2733 139.089 16.9C139.756 16.5267 140.483 16.34 141.269 16.34C141.949 16.34 142.503 16.46 142.929 16.7C143.356 16.9267 143.689 17.24 143.929 17.64C144.169 18.0267 144.336 18.4667 144.429 18.96C144.523 19.44 144.569 19.94 144.569 20.46V27ZM146.18 23.9C146.18 23.22 146.366 22.6267 146.74 22.12C147.126 21.6 147.66 21.2 148.34 20.92C149.02 20.64 149.8 20.5 150.68 20.5C151.12 20.5 151.566 20.5333 152.02 20.6C152.473 20.6667 152.866 20.7733 153.2 20.92V20.36C153.2 19.6933 153 19.18 152.6 18.82C152.213 18.46 151.633 18.28 150.86 18.28C150.286 18.28 149.74 18.38 149.22 18.58C148.7 18.78 148.153 19.0733 147.58 19.46L146.72 17.7C147.413 17.2467 148.12 16.9067 148.84 16.68C149.573 16.4533 150.34 16.34 151.14 16.34C152.633 16.34 153.793 16.7133 154.62 17.46C155.46 18.2067 155.88 19.2733 155.88 20.66V24C155.88 24.28 155.926 24.48 156.02 24.6C156.126 24.72 156.293 24.7933 156.52 24.82V27C156.28 27.04 156.06 27.0733 155.86 27.1C155.673 27.1267 155.513 27.14 155.38 27.14C154.846 27.14 154.44 27.02 154.16 26.78C153.893 26.54 153.726 26.2467 153.66 25.9L153.6 25.36C153.146 25.9467 152.58 26.4 151.9 26.72C151.22 27.04 150.526 27.2 149.82 27.2C149.126 27.2 148.5 27.06 147.94 26.78C147.393 26.4867 146.96 26.0933 146.64 25.6C146.333 25.0933 146.18 24.5267 146.18 23.9ZM152.7 24.44C152.846 24.28 152.966 24.12 153.06 23.96C153.153 23.8 153.2 23.6533 153.2 23.52V22.46C152.88 22.3267 152.533 22.2267 152.16 22.16C151.786 22.08 151.433 22.04 151.1 22.04C150.406 22.04 149.833 22.1933 149.38 22.5C148.94 22.7933 148.72 23.1867 148.72 23.68C148.72 23.9467 148.793 24.2 148.94 24.44C149.086 24.68 149.3 24.8733 149.58 25.02C149.86 25.1667 150.193 25.24 150.58 25.24C150.98 25.24 151.373 25.1667 151.76 25.02C152.146 24.86 152.46 24.6667 152.7 24.44ZM151.14 14.16C151.446 14.16 151.713 14.02 151.94 13.74C152.166 13.46 152.3 13.1067 152.34 12.68H153.76C153.76 13.4533 153.513 14.0933 153.02 14.6C152.54 15.1067 151.913 15.36 151.14 15.36C150.38 15.36 149.753 15.1067 149.26 14.6C148.766 14.0933 148.52 13.4533 148.52 12.68H149.96C149.96 13.08 150.08 13.4267 150.32 13.72C150.56 14.0133 150.833 14.16 151.14 14.16ZM149.66 11.02L148.84 10.2C149.16 9.89333 149.48 9.66667 149.8 9.52C150.133 9.36 150.48 9.28 150.84 9.28C151.373 9.28 151.78 9.42667 152.06 9.72C152.353 10 152.5 10.3467 152.5 10.76C152.5 11.1467 152.393 11.5 152.18 11.82C151.98 12.14 151.66 12.48 151.22 12.84L150.54 12.1C150.766 11.9133 150.926 11.7467 151.02 11.6C151.126 11.44 151.18 11.2733 151.18 11.1C151.18 10.94 151.126 10.8067 151.02 10.7C150.926 10.5933 150.793 10.54 150.62 10.54C150.446 10.54 150.293 10.58 150.16 10.66C150.026 10.7267 149.86 10.8467 149.66 11.02ZM168.124 27H165.444V21.12C165.444 20.28 165.297 19.6667 165.004 19.28C164.711 18.8933 164.304 18.7 163.784 18.7C163.424 18.7 163.057 18.7933 162.684 18.98C162.324 19.1667 161.997 19.4267 161.704 19.76C161.411 20.08 161.197 20.4533 161.064 20.88V27H158.384V16.52H160.804V18.46C161.071 18.0067 161.411 17.6267 161.824 17.32C162.237 17 162.711 16.76 163.244 16.6C163.791 16.4267 164.364 16.34 164.964 16.34C165.617 16.34 166.151 16.46 166.564 16.7C166.991 16.9267 167.311 17.24 167.524 17.64C167.751 18.0267 167.904 18.4667 167.984 18.96C168.077 19.4533 168.124 19.9533 168.124 20.46V27ZM174.554 27.06C173.861 27.06 173.221 26.9267 172.634 26.66C172.061 26.38 171.561 25.9933 171.134 25.5C170.721 25.0067 170.401 24.44 170.174 23.8C169.948 23.16 169.834 22.48 169.834 21.76C169.834 21 169.954 20.2933 170.194 19.64C170.434 18.9867 170.768 18.4133 171.194 17.92C171.634 17.4133 172.148 17.0267 172.734 16.76C173.334 16.48 173.994 16.34 174.714 16.34C175.528 16.34 176.241 16.5267 176.854 16.9C177.468 17.26 177.974 17.7467 178.374 18.36V16.52H180.714V26.5C180.714 27.54 180.461 28.4267 179.954 29.16C179.461 29.9067 178.774 30.4733 177.894 30.86C177.014 31.26 176.014 31.46 174.894 31.46C173.761 31.46 172.801 31.2667 172.014 30.88C171.228 30.5067 170.554 29.9733 169.994 29.28L171.454 27.86C171.854 28.3533 172.354 28.74 172.954 29.02C173.568 29.3 174.214 29.44 174.894 29.44C175.468 29.44 175.988 29.3333 176.454 29.12C176.934 28.92 177.314 28.6 177.594 28.16C177.888 27.7333 178.034 27.18 178.034 26.5V25.18C177.688 25.78 177.194 26.2467 176.554 26.58C175.928 26.9 175.261 27.06 174.554 27.06ZM175.454 24.92C175.748 24.92 176.028 24.8733 176.294 24.78C176.561 24.6867 176.808 24.56 177.034 24.4C177.261 24.24 177.461 24.0533 177.634 23.84C177.808 23.6133 177.941 23.3867 178.034 23.16V20.66C177.874 20.2467 177.648 19.8867 177.354 19.58C177.074 19.2733 176.754 19.04 176.394 18.88C176.048 18.7067 175.681 18.62 175.294 18.62C174.881 18.62 174.508 18.7067 174.174 18.88C173.841 19.0533 173.554 19.3 173.314 19.62C173.074 19.9267 172.888 20.2733 172.754 20.66C172.634 21.0333 172.574 21.4267 172.574 21.84C172.574 22.2667 172.648 22.6667 172.794 23.04C172.941 23.4133 173.141 23.74 173.394 24.02C173.661 24.3 173.968 24.52 174.314 24.68C174.674 24.84 175.054 24.92 175.454 24.92Z" fill="#2F281E"/>
<g id="Group 47 Copy">
<path id="Polygon" d="M9.59611 30.3648L21.4586 9.81848L33.321 30.3648H9.59611Z" fill="#D8D8D8" stroke="#979797"/>
<circle id="Oval" cx="21.4586" cy="23.5161" r="14.6976" fill="#415086"/>
<path id="Oval_2" fill-rule="evenodd" clip-rule="evenodd" d="M36.1561 23.5161C36.1561 15.3988 29.5758 8.81848 21.4586 8.81848C13.3413 8.81848 6.76099 15.3988 6.76099 23.5161C6.76099 31.6333 13.3413 38.2136 21.4586 38.2136C29.5758 38.2136 36.1561 31.6333 36.1561 23.5161ZM7.41672 23.5161C7.41672 15.761 13.7035 9.47422 21.4586 9.47422C29.2136 9.47422 35.5004 15.761 35.5004 23.5161C35.5004 31.2711 29.2136 37.5579 21.4586 37.5579C13.7035 37.5579 7.41672 31.2711 7.41672 23.5161Z" fill="white"/>
<circle id="Oval Copy 13" cx="8.81854" cy="30.571" r="8.81854" fill="#34B933"/>
<circle id="Oval Copy 14" cx="33.8044" cy="30.571" r="8.81854" fill="#28B0FF"/>
<circle id="Oval Copy 15" cx="21.1645" cy="8.81854" r="8.81854" fill="#FFC107"/>
</g>
</g>
<defs>
<clipPath id="clip0_0_17273">
<rect width="182" height="40" fill="white"/>
</clipPath>
</defs>
</svg>
