<?xml version="1.0" encoding="utf-8"?>
<svg width="572px" height="341px" viewBox="0 0 572 341" version="1.1" xmlns:xlink="http://www.w3.org/1999/xlink" xmlns="http://www.w3.org/2000/svg">
  <defs>
    <linearGradient gradientUnits="userSpaceOnUse" x1="38.429333" y1="-27.92947" x2="237.53822" y2="153.0008" id="gradient_1">
      <stop offset="0%" stop-color="#FF9085" />
      <stop offset="100%" stop-color="#FB6FBB" />
    </linearGradient>
    <linearGradient gradientUnits="userSpaceOnUse" x1="29.529259" y1="-17.427416" x2="171.6012" y2="111.67332" id="gradient_2">
      <stop offset="0%" stop-color="#FF9085" />
      <stop offset="100%" stop-color="#FB6FBB" />
    </linearGradient>
    <linearGradient gradientUnits="userSpaceOnUse" x1="33.403236" y1="-16.206656" x2="180.96033" y2="117.87854" id="gradient_3">
      <stop offset="0.359712%" stop-color="#E38DDD" />
      <stop offset="100%" stop-color="#9571F6" />
    </linearGradient>
    <linearGradient gradientUnits="userSpaceOnUse" x1="32.784855" y1="6.428453" x2="126.44807" y2="46.87269" id="gradient_4">
      <stop offset="0%" stop-color="#FF9085" />
      <stop offset="100%" stop-color="#FB6FBB" />
    </linearGradient>
    <linearGradient gradientUnits="userSpaceOnUse" x1="-55.808197" y1="-16.968517" x2="33.1318" y2="21.436527" id="gradient_5">
      <stop offset="0%" stop-color="#FF9085" />
      <stop offset="100%" stop-color="#FB6FBB" />
    </linearGradient>
    <linearGradient gradientUnits="userSpaceOnUse" x1="24.74685" y1="4.5362277" x2="94.83865" y2="34.802418" id="gradient_6">
      <stop offset="0.359712%" stop-color="#E38DDD" />
      <stop offset="100%" stop-color="#9571F6" />
    </linearGradient>
    <linearGradient gradientUnits="userSpaceOnUse" x1="-42.637573" y1="-12.821726" x2="25.32042" y2="16.523138" id="gradient_7">
      <stop offset="0.359712%" stop-color="#E38DDD" />
      <stop offset="100%" stop-color="#9571F6" />
    </linearGradient>
    <linearGradient gradientUnits="userSpaceOnUse" x1="87.237724" y1="92.41824" x2="-50.458008" y2="-20.006962" id="gradient_8">
      <stop offset="0%" stop-color="#FFC444" />
      <stop offset="99.64%" stop-color="#F36F56" />
    </linearGradient>
    <linearGradient gradientUnits="userSpaceOnUse" x1="140.70862" y1="89.77647" x2="26.753733" y2="10.487546" id="gradient_9">
      <stop offset="0%" stop-color="#FF9085" />
      <stop offset="100%" stop-color="#FB6FBB" />
    </linearGradient>
    <linearGradient gradientUnits="userSpaceOnUse" x1="124.78458" y1="103.18835" x2="10.829948" y2="23.899431" id="gradient_10">
      <stop offset="0%" stop-color="#FF9085" />
      <stop offset="100%" stop-color="#FB6FBB" />
    </linearGradient>
    <linearGradient gradientUnits="userSpaceOnUse" x1="95.60007" y1="75.28249" x2="-18.354805" y2="-4.006664" id="gradient_11">
      <stop offset="0%" stop-color="#FF9085" />
      <stop offset="100%" stop-color="#FB6FBB" />
    </linearGradient>
    <linearGradient gradientUnits="userSpaceOnUse" x1="51.583" y1="75.85411" x2="-62.37164" y2="-3.4348211" id="gradient_12">
      <stop offset="0%" stop-color="#FF9085" />
      <stop offset="100%" stop-color="#FB6FBB" />
    </linearGradient>
    <linearGradient gradientUnits="userSpaceOnUse" x1="0.019827722" y1="38.9053" x2="49.887016" y2="38.9053" id="gradient_13">
      <stop offset="0.359712%" stop-color="#E38DDD" />
      <stop offset="100%" stop-color="#9571F6" />
    </linearGradient>
    <linearGradient gradientUnits="userSpaceOnUse" x1="175.5928" y1="10.118917" x2="39.802464" y2="171.54005" id="gradient_14">
      <stop offset="0%" stop-color="#AA80F9" />
      <stop offset="99.64%" stop-color="#6165D7" />
    </linearGradient>
    <linearGradient gradientUnits="userSpaceOnUse" x1="106.667816" y1="17.54867" x2="72.22582" y2="78.36248" id="gradient_15">
      <stop offset="0%" stop-color="#FFFFFF" />
      <stop offset="99.64%" stop-color="#EBEFF2" />
    </linearGradient>
    <linearGradient gradientUnits="userSpaceOnUse" x1="0.04243403" y1="55.65863" x2="134.16174" y2="55.65863" id="gradient_16">
      <stop offset="0%" stop-color="#AA80F9" />
      <stop offset="99.64%" stop-color="#6165D7" />
    </linearGradient>
    <linearGradient gradientUnits="userSpaceOnUse" x1="-0.011883352" y1="50.725845" x2="70.32306" y2="50.725845" id="gradient_17">
      <stop offset="0%" stop-color="#AA80F9" />
      <stop offset="99.64%" stop-color="#6165D7" />
    </linearGradient>
    <linearGradient gradientUnits="userSpaceOnUse" x1="146.30554" y1="5.60569" x2="36.718018" y2="135.57573" id="gradient_18">
      <stop offset="0%" stop-color="#AA80F9" />
      <stop offset="99.64%" stop-color="#6165D7" />
    </linearGradient>
    <linearGradient gradientUnits="userSpaceOnUse" x1="86.57875" y1="12.6947565" x2="59.70257" y2="60.03912" id="gradient_19">
      <stop offset="0%" stop-color="#FFFFFF" />
      <stop offset="99.64%" stop-color="#EBEFF2" />
    </linearGradient>
    <linearGradient gradientUnits="userSpaceOnUse" x1="-0.026234271" y1="41.58435" x2="113.31921" y2="41.58435" id="gradient_20">
      <stop offset="0%" stop-color="#AA80F9" />
      <stop offset="99.64%" stop-color="#6165D7" />
    </linearGradient>
    <linearGradient gradientUnits="userSpaceOnUse" x1="0.029751083" y1="37.897804" x2="59.470276" y2="37.897804" id="gradient_21">
      <stop offset="0%" stop-color="#AA80F9" />
      <stop offset="99.64%" stop-color="#6165D7" />
    </linearGradient>
    <linearGradient gradientUnits="userSpaceOnUse" x1="4.3617578" y1="-16.111141" x2="6.8737364" y2="29.208586" id="gradient_22">
      <stop offset="0%" stop-color="#444B8C" />
      <stop offset="99.64%" stop-color="#26264F" />
    </linearGradient>
    <linearGradient gradientUnits="userSpaceOnUse" x1="2.1138504" y1="10.638132" x2="0.7792954" y2="-50.549778" id="gradient_23">
      <stop offset="0%" stop-color="#FFC444" />
      <stop offset="99.64%" stop-color="#F36F56" />
    </linearGradient>
    <linearGradient gradientUnits="userSpaceOnUse" x1="3.0673635" y1="-13.907459" x2="5.5793424" y2="31.410145" id="gradient_24">
      <stop offset="0%" stop-color="#444B8C" />
      <stop offset="99.64%" stop-color="#26264F" />
    </linearGradient>
    <linearGradient gradientUnits="userSpaceOnUse" x1="3.9334629" y1="15.286176" x2="2.5991435" y2="-45.90197" id="gradient_25">
      <stop offset="0%" stop-color="#FFC444" />
      <stop offset="99.64%" stop-color="#F36F56" />
    </linearGradient>
    <linearGradient gradientUnits="userSpaceOnUse" x1="-1.3831445" y1="63.54571" x2="23.971518" y2="29.440693" id="gradient_26">
      <stop offset="0%" stop-color="#311944" />
      <stop offset="100%" stop-color="#6B3976" />
    </linearGradient>
    <linearGradient gradientUnits="userSpaceOnUse" x1="-4.842327" y1="65.38947" x2="54.541016" y2="9.884708" id="gradient_27">
      <stop offset="0%" stop-color="#311944" />
      <stop offset="100%" stop-color="#6B3976" />
    </linearGradient>
    <linearGradient gradientUnits="userSpaceOnUse" x1="6.404451" y1="26.962357" x2="71.97858" y2="21.038143" id="gradient_28">
      <stop offset="0%" stop-color="#FFC444" />
      <stop offset="99.64%" stop-color="#F36F56" />
    </linearGradient>
    <linearGradient gradientUnits="userSpaceOnUse" x1="82.65958" y1="93.580956" x2="24.477217" y2="43.181576" id="gradient_29">
      <stop offset="0%" stop-color="#311944" />
      <stop offset="100%" stop-color="#6B3976" />
    </linearGradient>
    <linearGradient gradientUnits="userSpaceOnUse" x1="-5.3440924" y1="65.57907" x2="20.010572" y2="31.473816" id="gradient_30">
      <stop offset="0%" stop-color="#311944" />
      <stop offset="100%" stop-color="#6B3976" />
    </linearGradient>
    <linearGradient gradientUnits="userSpaceOnUse" x1="0.05429491" y1="24.15926" x2="47.233753" y2="17.604677" id="gradient_31">
      <stop offset="0%" stop-color="#FFC444" />
      <stop offset="99.64%" stop-color="#F36F56" />
    </linearGradient>
    <linearGradient gradientUnits="userSpaceOnUse" x1="-21.14581" y1="62.048294" x2="44.428078" y2="56.12408" id="gradient_32">
      <stop offset="0%" stop-color="#FFC444" />
      <stop offset="99.64%" stop-color="#F36F56" />
    </linearGradient>
    <linearGradient gradientUnits="userSpaceOnUse" x1="21.63629" y1="-13.270594" x2="36.004257" y2="74.792915" id="gradient_33">
      <stop offset="0%" stop-color="#FFC444" />
      <stop offset="99.64%" stop-color="#F36F56" />
    </linearGradient>
    <linearGradient gradientUnits="userSpaceOnUse" x1="10.388092" y1="12.344255" x2="25.900969" y2="-10.225177" id="gradient_34">
      <stop offset="0%" stop-color="#FFC444" />
      <stop offset="99.64%" stop-color="#F36F56" />
    </linearGradient>
    <linearGradient gradientUnits="userSpaceOnUse" x1="1.2782608" y1="4.5938163" x2="25.798504" y2="-10.201489" id="gradient_35">
      <stop offset="0%" stop-color="#FFC444" />
      <stop offset="99.64%" stop-color="#F36F56" />
    </linearGradient>
    <linearGradient gradientUnits="userSpaceOnUse" x1="63.033535" y1="38.91529" x2="88.23326" y2="22.695242" id="gradient_36">
      <stop offset="0%" stop-color="#AB316D" />
      <stop offset="100%" stop-color="#792D3D" />
    </linearGradient>
    <linearGradient gradientUnits="userSpaceOnUse" x1="71.47076" y1="18.752752" x2="66.37726" y2="35.642166" id="gradient_37">
      <stop offset="0%" stop-color="#AB316D" />
      <stop offset="100%" stop-color="#792D3D" />
    </linearGradient>
    <linearGradient gradientUnits="userSpaceOnUse" x1="1.4760807" y1="-2.805814" x2="75.542915" y2="41.367043" id="gradient_38">
      <stop offset="0%" stop-color="#FFC444" />
      <stop offset="99.64%" stop-color="#F36F56" />
    </linearGradient>
    <linearGradient gradientUnits="userSpaceOnUse" x1="-6.520271" y1="-3.3802285" x2="21.1682" y2="10.372676" id="gradient_39">
      <stop offset="0%" stop-color="#AB316D" />
      <stop offset="100%" stop-color="#792D3D" />
    </linearGradient>
    <linearGradient gradientUnits="userSpaceOnUse" x1="2.9689574" y1="2.1610072" x2="10.697834" y2="49.533463" id="gradient_40">
      <stop offset="0%" stop-color="#FFC444" />
      <stop offset="99.64%" stop-color="#F36F56" />
    </linearGradient>
    <linearGradient gradientUnits="userSpaceOnUse" x1="18.794243" y1="55.454002" x2="17.501385" y2="2.69188" id="gradient_41">
      <stop offset="0%" stop-color="#FFC444" />
      <stop offset="99.64%" stop-color="#F36F56" />
    </linearGradient>
    <linearGradient gradientUnits="userSpaceOnUse" x1="4.9570537" y1="0.00082779117" x2="18.395187" y2="9.859092" id="gradient_42">
      <stop offset="0%" stop-color="#FFC444" />
      <stop offset="99.64%" stop-color="#F36F56" />
    </linearGradient>
    <linearGradient gradientUnits="userSpaceOnUse" x1="0.0113043515" y1="105.01956" x2="290.01877" y2="105.01956" id="gradient_43">
      <stop offset="0%" stop-color="#AB316D" />
      <stop offset="100%" stop-color="#792D3D" />
    </linearGradient>
    <linearGradient gradientUnits="userSpaceOnUse" x1="0.9396789" y1="0.07012535" x2="2.2378917" y2="6.751969" id="gradient_44">
      <stop offset="0%" stop-color="#FFC444" />
      <stop offset="99.64%" stop-color="#F36F56" />
    </linearGradient>
    <linearGradient gradientUnits="userSpaceOnUse" x1="9.71643" y1="1.2039187" x2="15.583474" y2="31.402613" id="gradient_45">
      <stop offset="0%" stop-color="#AA80F9" />
      <stop offset="99.64%" stop-color="#6165D7" />
    </linearGradient>
    <linearGradient gradientUnits="userSpaceOnUse" x1="2.7814136" y1="1.0318892" x2="0.17124383" y2="1.6053874" id="gradient_46">
      <stop offset="0%" stop-color="#FFC444" />
      <stop offset="99.64%" stop-color="#F36F56" />
    </linearGradient>
    <linearGradient gradientUnits="userSpaceOnUse" x1="4.476162" y1="1.5289592" x2="-0.15966713" y2="2.5475292" id="gradient_47">
      <stop offset="0%" stop-color="#444B8C" />
      <stop offset="99.64%" stop-color="#26264F" />
    </linearGradient>
    <linearGradient gradientUnits="userSpaceOnUse" x1="1.1378509" y1="0.50003606" x2="1.9122334" y2="1.5677547" id="gradient_48">
      <stop offset="0%" stop-color="#444B8C" />
      <stop offset="99.64%" stop-color="#26264F" />
    </linearGradient>
    <linearGradient gradientUnits="userSpaceOnUse" x1="15.819736" y1="4.750751" x2="7.4381266" y2="35.0393" id="gradient_49">
      <stop offset="0%" stop-color="#40447E" />
      <stop offset="99.64%" stop-color="#3C3B6B" />
    </linearGradient>
    <linearGradient gradientUnits="userSpaceOnUse" x1="4.201513" y1="17.82226" x2="16.749397" y2="14.4889555" id="gradient_50">
      <stop offset="0%" stop-color="#40447E" />
      <stop offset="99.64%" stop-color="#3C3B6B" />
    </linearGradient>
    <linearGradient gradientUnits="userSpaceOnUse" x1="2.2032108" y1="3.1404417" x2="0.063207716" y2="2.645466" id="gradient_51">
      <stop offset="0%" stop-color="#444B8C" />
      <stop offset="99.64%" stop-color="#26264F" />
    </linearGradient>
    <linearGradient gradientUnits="userSpaceOnUse" x1="29.523363" y1="-3.2203524" x2="8.851561" y2="20.515133" id="gradient_52">
      <stop offset="0%" stop-color="#40447E" />
      <stop offset="99.64%" stop-color="#3C3B6B" />
    </linearGradient>
    <linearGradient gradientUnits="userSpaceOnUse" x1="-0.028739242" y1="11.974784" x2="13.523462" y2="11.974784" id="gradient_53">
      <stop offset="0%" stop-color="#AA80F9" />
      <stop offset="99.64%" stop-color="#6165D7" />
    </linearGradient>
    <linearGradient gradientUnits="userSpaceOnUse" x1="8.903285" y1="0.20812798" x2="14.770567" y2="30.407059" id="gradient_54">
      <stop offset="0%" stop-color="#AA80F9" />
      <stop offset="99.64%" stop-color="#6165D7" />
    </linearGradient>
    <linearGradient gradientUnits="userSpaceOnUse" x1="2.4150972" y1="7.3126526" x2="6.17094" y2="-1.8226442" id="gradient_55">
      <stop offset="0%" stop-color="#FFC444" />
      <stop offset="99.64%" stop-color="#F36F56" />
    </linearGradient>
    <linearGradient gradientUnits="userSpaceOnUse" x1="-0.3558357" y1="7.9265747" x2="2.9140086" y2="0.32317853" id="gradient_56">
      <stop offset="0%" stop-color="#311944" />
      <stop offset="100%" stop-color="#6B3976" />
    </linearGradient>
    <linearGradient gradientUnits="userSpaceOnUse" x1="2.0548408" y1="0.63476735" x2="2.269183" y2="11.554488" id="gradient_57">
      <stop offset="0%" stop-color="#FFC444" />
      <stop offset="99.64%" stop-color="#F36F56" />
    </linearGradient>
    <linearGradient gradientUnits="userSpaceOnUse" x1="35.782238" y1="18.243628" x2="0.74203366" y2="16.724705" id="gradient_58">
      <stop offset="0%" stop-color="#AA80F9" />
      <stop offset="99.64%" stop-color="#6165D7" />
    </linearGradient>
    <linearGradient gradientUnits="userSpaceOnUse" x1="22.249395" y1="-8.727105" x2="-6.5327177" y2="23.014585" id="gradient_59">
      <stop offset="0%" stop-color="#FF9085" />
      <stop offset="100%" stop-color="#FB6FBB" />
    </linearGradient>
    <linearGradient gradientUnits="userSpaceOnUse" x1="4.009542" y1="-1.2261382" x2="-0.45328534" y2="3.6955357" id="gradient_60">
      <stop offset="0%" stop-color="#FFC444" />
      <stop offset="99.64%" stop-color="#F36F56" />
    </linearGradient>
    <linearGradient gradientUnits="userSpaceOnUse" x1="38.414066" y1="130.81683" x2="9.581603" y2="33.19537" id="gradient_61">
      <stop offset="0%" stop-color="#311944" />
      <stop offset="100%" stop-color="#893976" />
    </linearGradient>
    <linearGradient gradientUnits="userSpaceOnUse" x1="8.971197" y1="67.53944" x2="5.185144" y2="37.395317" id="gradient_62">
      <stop offset="0%" stop-color="#311944" />
      <stop offset="100%" stop-color="#893976" />
    </linearGradient>
    <linearGradient gradientUnits="userSpaceOnUse" x1="15.191004" y1="50.2339" x2="4.476935" y2="247.69028" id="gradient_63">
      <stop offset="0%" stop-color="#FFC444" />
      <stop offset="99.64%" stop-color="#F36F56" />
    </linearGradient>
    <linearGradient gradientUnits="userSpaceOnUse" x1="34.258465" y1="89.79298" x2="5.4391603" y2="-7.783569" id="gradient_64">
      <stop offset="0%" stop-color="#311944" />
      <stop offset="100%" stop-color="#893976" />
    </linearGradient>
    <linearGradient gradientUnits="userSpaceOnUse" x1="15.025073" y1="-4.6338615" x2="4.3208747" y2="192.63675" id="gradient_65">
      <stop offset="0%" stop-color="#FFC444" />
      <stop offset="99.64%" stop-color="#F36F56" />
    </linearGradient>
    <linearGradient gradientUnits="userSpaceOnUse" x1="35.868572" y1="80.44855" x2="6.8307323" y2="-17.86848" id="gradient_66">
      <stop offset="0%" stop-color="#311944" />
      <stop offset="100%" stop-color="#893976" />
    </linearGradient>
    <linearGradient gradientUnits="userSpaceOnUse" x1="17.164127" y1="-29.039755" x2="6.466743" y2="168.10904" id="gradient_67">
      <stop offset="0%" stop-color="#FFC444" />
      <stop offset="99.64%" stop-color="#F36F56" />
    </linearGradient>
    <linearGradient gradientUnits="userSpaceOnUse" x1="36.391647" y1="69.405304" x2="7.5714" y2="-28.174765" id="gradient_68">
      <stop offset="0%" stop-color="#311944" />
      <stop offset="100%" stop-color="#893976" />
    </linearGradient>
    <linearGradient gradientUnits="userSpaceOnUse" x1="19.5572" y1="-55.78102" x2="8.875558" y2="141.07854" id="gradient_69">
      <stop offset="0%" stop-color="#FFC444" />
      <stop offset="99.64%" stop-color="#F36F56" />
    </linearGradient>
    <linearGradient gradientUnits="userSpaceOnUse" x1="45.082268" y1="86.834435" x2="9.375368" y2="-34.06228" id="gradient_70">
      <stop offset="0%" stop-color="#311944" />
      <stop offset="100%" stop-color="#893976" />
    </linearGradient>
    <linearGradient gradientUnits="userSpaceOnUse" x1="21.940165" y1="-71.98267" x2="11.276148" y2="124.55097" id="gradient_71">
      <stop offset="0%" stop-color="#FFC444" />
      <stop offset="99.64%" stop-color="#F36F56" />
    </linearGradient>
    <linearGradient gradientUnits="userSpaceOnUse" x1="36.826237" y1="-2.6330495" x2="36.07469" y2="12.327243" id="gradient_72">
      <stop offset="0%" stop-color="#FF9085" />
      <stop offset="100%" stop-color="#FB6FBB" />
    </linearGradient>
    <linearGradient gradientUnits="userSpaceOnUse" x1="36.826237" y1="-2.6330495" x2="36.07469" y2="12.327243" id="gradient_73">
      <stop offset="0%" stop-color="#FFC444" />
      <stop offset="99.64%" stop-color="#F36F56" />
    </linearGradient>
    <linearGradient gradientUnits="userSpaceOnUse" x1="0.0052059246" y1="13.008603" x2="43.925938" y2="13.008603" id="gradient_74">
      <stop offset="0%" stop-color="#FFC444" />
      <stop offset="99.64%" stop-color="#F36F56" />
    </linearGradient>
    <linearGradient gradientUnits="userSpaceOnUse" x1="-0.7046929" y1="12.8945" x2="43.216038" y2="12.8945" id="gradient_75">
      <stop offset="0%" stop-color="#FF9085" />
      <stop offset="100%" stop-color="#FB6FBB" />
    </linearGradient>
    <linearGradient gradientUnits="userSpaceOnUse" x1="7.27655" y1="5.81956" x2="-1.1769253" y2="-4.7851553" id="gradient_76">
      <stop offset="0%" stop-color="#AA80F9" />
      <stop offset="99.64%" stop-color="#6165D7" />
    </linearGradient>
    <linearGradient gradientUnits="userSpaceOnUse" x1="3.9633648" y1="4.3384013" x2="-7.683471" y2="-10.432725" id="gradient_77">
      <stop offset="0%" stop-color="#FFC444" />
      <stop offset="99.64%" stop-color="#F36F56" />
    </linearGradient>
    <linearGradient gradientUnits="userSpaceOnUse" x1="26.226093" y1="10.525842" x2="16.548756" y2="30.817593" id="gradient_78">
      <stop offset="0%" stop-color="#FFC444" />
      <stop offset="99.64%" stop-color="#F36F56" />
    </linearGradient>
    <linearGradient gradientUnits="userSpaceOnUse" x1="35.29535" y1="38.274822" x2="23.742456" y2="0.96891207" id="gradient_79">
      <stop offset="0%" stop-color="#FF9085" />
      <stop offset="100%" stop-color="#FB6FBB" />
    </linearGradient>
    <linearGradient gradientUnits="userSpaceOnUse" x1="13.973648" y1="-4.7706995" x2="15.570447" y2="21.267818" id="gradient_80">
      <stop offset="0%" stop-color="#FF9085" />
      <stop offset="100%" stop-color="#FB6FBB" />
    </linearGradient>
    <linearGradient gradientUnits="userSpaceOnUse" x1="0.010175216" y1="1.9469967" x2="30.059958" y2="1.9469967" id="gradient_81">
      <stop offset="0%" stop-color="#AA80F9" />
      <stop offset="99.64%" stop-color="#6165D7" />
    </linearGradient>
    <linearGradient gradientUnits="userSpaceOnUse" x1="14.741055" y1="23.532444" x2="3.1881623" y2="-13.7737055" id="gradient_82">
      <stop offset="0%" stop-color="#FF9085" />
      <stop offset="100%" stop-color="#FB6FBB" />
    </linearGradient>
    <linearGradient gradientUnits="userSpaceOnUse" x1="8.393029" y1="0.38071638" x2="4.3541784" y2="10.133115" id="gradient_83">
      <stop offset="0%" stop-color="#FFC444" />
      <stop offset="99.64%" stop-color="#F36F56" />
    </linearGradient>
    <linearGradient gradientUnits="userSpaceOnUse" x1="-5.160672" y1="7.9126735" x2="5.083022" y2="1.6791797" id="gradient_84">
      <stop offset="0%" stop-color="#311944" />
      <stop offset="100%" stop-color="#6B3976" />
    </linearGradient>
    <linearGradient gradientUnits="userSpaceOnUse" x1="3.292587" y1="1.103185" x2="-5.9299555" y2="14.581659" id="gradient_85">
      <stop offset="0%" stop-color="#FFC444" />
      <stop offset="99.64%" stop-color="#F36F56" />
    </linearGradient>
    <linearGradient gradientUnits="userSpaceOnUse" x1="-4.250793" y1="6.693662" x2="6.0042214" y2="0.45387885" id="gradient_86">
      <stop offset="0%" stop-color="#311944" />
      <stop offset="100%" stop-color="#6B3976" />
    </linearGradient>
    <linearGradient gradientUnits="userSpaceOnUse" x1="1.630399" y1="0.6759147" x2="0.21366732" y2="2.1652591" id="gradient_87">
      <stop offset="0%" stop-color="#FFC444" />
      <stop offset="100%" stop-color="#F36F56" />
    </linearGradient>
    <linearGradient gradientUnits="userSpaceOnUse" x1="-0.008192332" y1="10.797221" x2="33.977978" y2="10.797221" id="gradient_88">
      <stop offset="49.399998%" stop-color="#EBEFF2" />
      <stop offset="100%" stop-color="#FFFFFF" />
    </linearGradient>
    <linearGradient gradientUnits="userSpaceOnUse" x1="3.115667" y1="-8.766004" x2="4.568078" y2="9.625485" id="gradient_89">
      <stop offset="0.3597%" stop-color="#26264F" />
      <stop offset="100%" stop-color="#444B8C" />
    </linearGradient>
    <linearGradient gradientUnits="userSpaceOnUse" x1="1.243294" y1="3.530377" x2="0.97928417" y2="-15.517723" id="gradient_90">
      <stop offset="0%" stop-color="#AB316D" />
      <stop offset="100%" stop-color="#792D3D" />
    </linearGradient>
    <linearGradient gradientUnits="userSpaceOnUse" x1="1.4951787" y1="-9.232748" x2="2.9475894" y2="9.1585045" id="gradient_91">
      <stop offset="0.3597%" stop-color="#26264F" />
      <stop offset="100%" stop-color="#444B8C" />
    </linearGradient>
    <linearGradient gradientUnits="userSpaceOnUse" x1="1.5747917" y1="5.8806515" x2="1.3107817" y2="-13.167684" id="gradient_92">
      <stop offset="0%" stop-color="#AB316D" />
      <stop offset="100%" stop-color="#792D3D" />
    </linearGradient>
    <linearGradient gradientUnits="userSpaceOnUse" x1="0.00015492708" y1="28.61036" x2="14.154506" y2="28.61036" id="gradient_93">
      <stop offset="0%" stop-color="#311944" />
      <stop offset="100%" stop-color="#6B3976" />
    </linearGradient>
    <linearGradient gradientUnits="userSpaceOnUse" x1="-0.006178449" y1="28.610516" x2="13.169363" y2="28.610516" id="gradient_94">
      <stop offset="0.3597%" stop-color="#26264F" />
      <stop offset="100%" stop-color="#444B8C" />
    </linearGradient>
    <linearGradient gradientUnits="userSpaceOnUse" x1="-0.001901061" y1="28.007986" x2="28.492155" y2="28.007986" id="gradient_95">
      <stop offset="0%" stop-color="#311944" />
      <stop offset="100%" stop-color="#6B3976" />
    </linearGradient>
    <linearGradient gradientUnits="userSpaceOnUse" x1="1.0820372" y1="-1.2966757" x2="9.405848" y2="21.855276" id="gradient_96">
      <stop offset="0%" stop-color="#AB316D" />
      <stop offset="100%" stop-color="#792D3D" />
    </linearGradient>
    <linearGradient gradientUnits="userSpaceOnUse" x1="17.84125" y1="14.0028" x2="32.41282" y2="68.843445" id="gradient_97">
      <stop offset="0.359712%" stop-color="#EBEFF2" />
      <stop offset="100%" stop-color="#FFFFFF" />
    </linearGradient>
    <linearGradient gradientUnits="userSpaceOnUse" x1="-0.1517387" y1="10.377157" x2="10.851303" y2="10.13844" id="gradient_98">
      <stop offset="0.359712%" stop-color="#EBEFF2" />
      <stop offset="100%" stop-color="#FFFFFF" />
    </linearGradient>
    <linearGradient gradientUnits="userSpaceOnUse" x1="-0.16086195" y1="10.392822" x2="10.842418" y2="10.1541" id="gradient_99">
      <stop offset="0.3597%" stop-color="#F36F56" />
      <stop offset="100%" stop-color="#FFC444" />
    </linearGradient>
    <linearGradient gradientUnits="userSpaceOnUse" x1="10.950135" y1="-5.6766224" x2="25.5217" y2="49.163784" id="gradient_100">
      <stop offset="0.359712%" stop-color="#EBEFF2" />
      <stop offset="100%" stop-color="#FFFFFF" />
    </linearGradient>
    <linearGradient gradientUnits="userSpaceOnUse" x1="1.1192464" y1="-3.7550886" x2="5.615763" y2="3.0234482" id="gradient_101">
      <stop offset="0%" stop-color="#FF9085" />
      <stop offset="100%" stop-color="#FB6FBB" />
    </linearGradient>
    <linearGradient gradientUnits="userSpaceOnUse" x1="3.9334605" y1="2.4433897" x2="1.6112847" y2="11.789679" id="gradient_102">
      <stop offset="0%" stop-color="#AB316D" />
      <stop offset="100%" stop-color="#792D3D" />
    </linearGradient>
    <linearGradient gradientUnits="userSpaceOnUse" x1="1.204685" y1="-1.0964756" x2="1.1697024" y2="7.6512837" id="gradient_103">
      <stop offset="0%" stop-color="#AB316D" />
      <stop offset="100%" stop-color="#792D3D" />
    </linearGradient>
    <linearGradient gradientUnits="userSpaceOnUse" x1="7.8559275" y1="-12.560429" x2="22.427492" y2="42.27998" id="gradient_104">
      <stop offset="0.3597%" stop-color="#F36F56" />
      <stop offset="100%" stop-color="#FFC444" />
    </linearGradient>
  </defs>
  <g id="Group-36">
    <g id="Group-35">
      <g id="Group">
        <path d="M189.651 240.965C96.187 252.364 0.165967 264.075 0.000209436 281.45C-0.165548 299.063 98.105 328.268 133.672 309.268C137.413 307.284 152.047 298.561 160.406 304.201C165.308 307.499 165.9 314.263 166.255 316.008C173.098 349.347 459.883 351.76 462.866 308.408C463.861 294.044 433.077 282.477 436.961 272.989C441.199 262.641 477.264 277.339 520.503 262.88C536.131 257.646 565.305 244.382 563.955 235.062C560.403 210.637 348.636 221.583 189.651 240.965Z" id="Path" fill="#6165D7" fill-opacity="0.19" stroke="none" />
        <path d="M110.877 284.461C108.933 284.589 83.0951 286.439 83.0003 289.969C82.9054 293.415 107.63 297.583 129.841 297.966C148.687 298.306 174.833 296.094 174.999 292.458C175.189 288.374 142.618 282.271 110.877 284.461Z" id="Path" fill="#6165D7" fill-opacity="0.32" stroke="none" />
        <path d="M180.63 247.698C99.9321 259.672 82.9295 262.907 83.0002 267.134C83.1181 275.14 143.866 284.846 203.929 282.697C238.382 281.469 280.712 274.644 365.348 261.041C382.87 258.231 402.938 254.854 430.246 255.492C447.06 255.893 451.871 257.452 469.086 257.168C489.413 256.814 528.088 253.815 528.984 245.502C529.668 239.173 508.161 232.041 501.794 229.939C461.233 216.526 425.152 221.981 420.247 222.713C337.215 235.182 492.621 201.435 180.63 247.698Z" id="Path" fill="#6165D7" fill-opacity="0.32" stroke="none" />
        <path d="M200.116 299.431C188.576 300.109 170.733 300.46 170.022 304.929C169.359 309.047 183.553 314.709 190.638 317.049C222.082 327.413 243.692 315.2 295.988 305.49C340.37 297.255 368.52 297.957 368.994 291.171C369.325 286.562 356.53 282.164 352.265 280.713C304.803 264.475 275.278 295.055 200.116 299.431Z" id="Path" fill="#6165D7" fill-opacity="0.32" stroke="none" />
        <path d="M390.006 299.201C376.211 298.497 354.625 299.529 354.013 304.176C353.519 308.001 367.29 313.633 378.942 315.768C401.941 319.992 426.164 312.389 425.999 307.484C425.858 302.674 402.271 299.811 390.006 299.201Z" id="Path" fill="#6165D7" fill-opacity="0.32" stroke="none" />
        <g id="Group" transform="translate(69 37)">
          <path d="M356.036 28.284L206.544 28.7797C194.392 28.8269 184.225 39.6853 184.036 53.0459C183.847 66.4065 193.659 76.9345 205.835 76.5332L355.398 71.8357C365.375 71.5289 373.508 61.6382 373.697 49.7412C373.886 37.8441 366.013 28.2604 356.036 28.284Z" id="Path" fill="url(#gradient_1)" fill-opacity="0.3" stroke="none" />
          <path d="M429.092 117.465L319.106 122.139C310.406 122.516 303.148 130.566 303.006 140.126C302.864 149.686 309.886 156.98 318.586 156.437L428.619 149.544C436.161 149.072 442.332 141.566 442.45 132.808C442.592 124.003 436.634 117.158 429.092 117.465Z" id="Path" fill="url(#gradient_2)" fill-opacity="0.5" stroke="none" />
          <path d="M136.443 156.366L17.9466 165.195C8.25317 165.926 0.143749 174.613 0.00189293 184.622C-0.139963 194.63 7.70939 201.901 17.4029 200.909L135.947 188.729C143.796 187.927 150.204 180.113 150.345 171.285C150.487 162.48 144.293 155.776 136.443 156.366Z" id="Path" fill="url(#gradient_3)" fill-opacity="0.3" stroke="none" />
          <g id="Group" transform="translate(362.60742 0)" opacity="0.3">
            <path d="M86.3206 2.31827L10.8061 0.00494789C4.96636 -0.183894 0.0959785 5.05648 0.00140802 11.666C-0.0931625 18.299 4.58808 23.7283 10.4514 23.8227L85.966 25.0502C91.262 25.1446 95.5886 20.1403 95.6831 13.9085C95.7777 7.67667 91.5929 2.4835 86.3206 2.31827Z" id="Path" fill="url(#gradient_4)" stroke="none" />
            <path d="M118.687 14.4043C118.593 20.518 114.408 25.4043 109.301 25.3335C104.171 25.2391 100.057 20.164 100.128 13.9794C100.222 7.79478 104.478 2.90849 109.632 3.05012C114.739 3.19175 118.758 8.29049 118.687 14.4043Z" id="Path" fill="url(#gradient_5)" stroke="none" />
          </g>
          <g id="Group" transform="translate(413.3921 30.219238)" opacity="0.5">
            <path d="M64.8764 0.708566L8.03956 0.000407577C3.68932 -0.046803 0.0719945 4.01331 0.00106661 9.08844C-0.0698613 14.1636 3.40561 18.2709 7.75585 18.2945L64.5927 18.3653C68.612 18.3653 71.9219 14.4468 71.9929 9.60776C72.0638 4.76868 68.8957 0.755777 64.8764 0.708566Z" id="Path" fill="url(#gradient_6)" stroke="none" />
            <path d="M89.6067 9.65487C89.5358 14.4231 86.3204 18.2708 82.4193 18.2708C78.4946 18.2708 75.3502 14.3523 75.4211 9.56045C75.492 4.74497 78.7547 0.897311 82.6794 0.944522C86.5804 0.968127 89.6776 4.8866 89.6067 9.65487Z" id="Path" fill="url(#gradient_7)" stroke="none" />
          </g>
        </g>
        <g id="Group" transform="translate(104 0)" opacity="0.5">
          <g id="Group">
            <path d="M119.816 109.638L87.8085 0C37.7671 13.8842 0.21244 59.161 0 114.039L119.816 109.638Z" id="Path" fill="url(#gradient_8)" stroke="none" />
          </g>
          <g id="Group" transform="translate(32.14917 24.576416)">
            <path d="M0 96.1931C1.91196 121.891 14.8236 144.27 33.9904 159.025L84.5747 92.8044L0 96.1931Z" id="Path" fill="url(#gradient_9)" stroke="none" />
            <path d="M94.6065 81.391C113.348 63.4592 135.513 42.2092 152.791 25.5481C137.472 10.4167 116.393 0.721212 92.7418 0.038766C85.4716 -0.173028 78.3431 0.485886 71.4978 1.94491L94.6065 81.391Z" id="Path" fill="url(#gradient_10)" stroke="none" />
            <path d="M98.5486 88.1214L164.735 135.799C173.681 121.914 178.851 105.418 178.851 87.839C178.851 66.142 170.967 46.2804 157.843 30.9607C153.098 35.5496 147.811 40.6561 141.981 46.2804C124.112 63.5298 105.842 81.0852 98.5486 88.1214Z" id="Path" fill="url(#gradient_11)" stroke="none" />
            <path d="M96.5657 96.0989L97.8875 176.933C123.593 174.251 145.875 160.908 160.463 141.87L96.5657 96.0989Z" id="Path" fill="url(#gradient_12)" stroke="none" />
            <path d="M88.9416 99.6289L40.3401 163.496C54.7624 172.698 71.9228 177.781 90.2162 177.404L88.9416 99.6289Z" id="Path" fill="url(#gradient_13)" stroke="none" />
          </g>
        </g>
        <g id="Group" transform="translate(265 58)">
          <path d="M183.817 86.172C178.754 90.6482 174.12 92.3916 170.127 92.8157C153.158 94.6297 145.362 73.2146 128.06 76.1359C109.118 79.3164 104.793 107.281 88.9639 106.15C78.9106 105.443 77.0568 93.9229 65.7676 90.2242C60.9429 88.6457 55.8569 88.9755 50.6757 90.7189C13.5046 146.577 -6.76839 169.783 2.04906 182.458C4.78223 186.392 8.2284 186.274 43.926 187.546C105.506 189.737 99.5638 190.209 104.911 189.926C161.761 186.863 168.749 168.04 211.41 173.293C217.684 174.071 221.226 174.919 223.84 172.28C232.586 163.446 213.882 133.384 183.817 86.172Z" id="Path" fill="url(#gradient_14)" stroke="none" />
          <path d="M65.7914 90.2242C77.0806 93.923 78.9344 105.443 88.9877 106.15C104.816 107.281 109.118 79.3164 128.084 76.1359C145.386 73.2146 153.182 94.6297 170.151 92.8157C174.144 92.3916 178.778 90.6483 183.841 86.1721C170.531 65.2752 155.012 40.9859 138.66 13.7281C136.426 10.0058 131.292 1.43031 123.188 0.158119C108.12 -2.19778 93.5984 22.3743 86.7774 33.7768C73.5631 55.8281 61.4421 74.6281 50.7471 90.7189C55.8807 88.9756 60.9668 88.6222 65.7914 90.2242Z" id="Path" fill="url(#gradient_15)" stroke="none" />
          <path d="M115.796 142.831C116.319 125.515 126.23 119.272 125.066 97.6216C124.661 90.2241 123.14 84.0752 121.025 78.6802C107.692 86.4075 102.63 107.116 88.9639 106.126C78.9106 105.42 77.0568 93.8993 65.7676 90.2005C60.9429 88.6221 55.8569 88.9519 50.6757 90.6953C13.5046 146.554 -6.76839 169.759 2.04906 182.434C4.78223 186.368 8.2284 186.251 43.926 187.523C105.506 189.714 99.5638 190.185 104.911 189.902C116.462 189.29 125.969 188.018 134.121 186.416C119.219 168.793 115.464 154.21 115.796 142.831Z" id="Path" fill="url(#gradient_16)" fill-opacity="0.3" stroke="none" />
          <path d="M109.237 4.72852C99.6588 12.0318 91.4117 25.9552 86.7535 33.7532C73.5392 55.8044 61.4182 74.6045 50.7231 90.6953C55.9043 88.9755 60.9666 88.6221 65.815 90.2006C77.1042 93.8994 78.958 105.42 89.0113 106.126C102.677 107.092 107.763 86.4076 121.073 78.6802C114.323 61.3879 101.584 51.823 100.918 33.1407C100.657 25.8138 102.226 16.2724 109.237 4.72852Z" id="Path" fill="url(#gradient_17)" fill-opacity="0.3" stroke="none" />
        </g>
        <g id="Group" transform="translate(127 132)">
          <path d="M155.295 64.4251C151.011 67.7675 147.108 69.0621 143.728 69.3916C129.4 70.7568 122.807 54.7509 108.17 56.9399C92.1517 59.3173 88.5101 80.1956 75.134 79.3718C66.6371 78.8304 65.0663 70.239 55.5459 67.4615C51.476 66.2846 47.168 66.52 42.8125 67.8145C11.3953 109.548 -5.7175 126.872 1.73217 136.358C4.04086 139.3 6.94456 139.206 37.1241 140.171C89.1528 141.795 84.1308 142.172 88.6767 141.936C136.731 139.653 142.633 125.601 178.692 129.508C183.999 130.096 186.998 130.732 189.212 128.755C196.518 122.141 180.691 99.6852 155.295 64.4251Z" id="Path" fill="url(#gradient_18)" stroke="none" />
          <path d="M55.5458 67.4379C65.0662 70.1918 66.6608 78.8068 75.1339 79.3482C88.51 80.1955 92.1516 59.3172 108.17 56.9163C122.807 54.7273 129.376 70.7332 143.728 69.368C147.108 69.0385 151.035 67.7674 155.295 64.4014C144.061 48.7721 130.923 30.6478 117.095 10.2637C115.215 7.48624 110.883 1.06033 104.028 0.118803C91.2947 -1.64656 79.0373 16.7132 73.2537 25.234C62.0911 41.7107 51.8567 55.763 42.7886 67.7909C47.1679 66.5199 51.4521 66.261 55.5458 67.4379Z" id="Path" fill="url(#gradient_19)" stroke="none" />
          <path d="M97.8163 106.747C98.2685 93.8242 106.646 89.1401 105.647 72.9694C105.314 67.438 104.028 62.848 102.243 58.823C90.9854 64.5898 86.6775 80.0544 75.134 79.3247C66.6371 78.7833 65.0663 70.1919 55.5459 67.4144C51.476 66.2375 47.168 66.4729 42.8125 67.7675C11.3953 109.501 -5.7175 126.825 1.73217 136.311C4.04086 139.253 6.94456 139.159 37.1241 140.124C89.1528 141.748 84.1308 142.124 88.6767 141.889C98.4351 141.418 106.48 140.477 113.358 139.276C100.696 126.142 97.5069 115.267 97.8163 106.747Z" id="Path" fill="url(#gradient_20)" fill-opacity="0.3" stroke="none" />
          <path d="M92.2469 3.57886C84.1546 9.0397 77.1809 19.4436 73.23 25.2575C62.0674 41.7342 51.833 55.7864 42.7649 67.8144C47.1443 66.5198 51.4284 66.2609 55.4984 67.4613C65.0187 70.2153 66.6134 78.8303 75.0865 79.3716C86.6299 80.1013 90.9379 64.6368 102.196 58.8699C96.4834 45.9475 85.7255 38.8154 85.178 24.8338C84.9876 19.3259 86.3205 12.1938 92.2469 3.57886Z" id="Path" fill="url(#gradient_21)" fill-opacity="0.3" stroke="none" />
        </g>
        <g id="Group" transform="translate(344 45)">
          <path d="M112.871 199.028C112.871 199.028 113.177 201.53 112.965 202.38C112.753 203.23 105.498 203.821 103.024 203.537C100.55 203.254 104.485 200.728 106.063 200.255C107.641 199.76 112.871 199.028 112.871 199.028Z" id="Path" fill="url(#gradient_22)" stroke="none" />
          <path d="M109.22 194.848L109.997 199.878C109.997 199.878 111.952 200.751 112.895 199.878L112.989 194.612L109.22 194.848Z" id="Path" fill="url(#gradient_23)" stroke="none" />
          <path d="M150.187 194.636C150.187 194.636 148.656 195.793 149.056 197.162C149.457 198.532 153.061 204.033 155.629 205.591C158.197 207.15 157.396 203.891 156.642 201.861C155.888 199.83 153.98 195.368 153.249 194.612C152.519 193.88 150.187 194.636 150.187 194.636Z" id="Path" fill="url(#gradient_24)" stroke="none" />
          <path d="M147.431 189.111C148.185 191.189 148.891 192.912 149.457 194.164C150.705 196.95 151.365 198.012 152.142 198.91C152.802 199.712 154.404 201.389 154.828 201.105C155.252 200.822 154.098 198.768 151.86 192.747C151.53 191.873 150.517 189.087 150.517 189.087L147.431 189.087L147.431 189.111Z" id="Path" fill="url(#gradient_25)" stroke="none" />
          <path d="M94.0013 102.081C93.4595 107.323 92.9648 115.445 93.7186 125.291C94.708 138.135 97.2759 146.257 100.48 159.975C102.435 168.357 105.097 180.658 107.476 196.076C108.042 196.407 109.667 197.233 111.764 196.926C112.942 196.761 113.814 196.289 114.355 195.935C120.645 176.692 118.784 164.768 115.745 157.331C114.45 154.167 112.895 151.664 112.047 146.8C110.939 140.355 112.306 136.766 114.261 121.844C115.651 111.219 115.415 109.566 114.497 107.96C110.822 101.585 99.4903 101.703 94.0013 102.081Z" id="Path" fill="url(#gradient_26)" stroke="none" />
          <path d="M115.627 104.324C119.467 124.252 123.26 134.711 126.111 140.638C126.817 142.102 129.173 146.8 131.388 153.553C133.367 159.527 134.168 163.918 134.592 165.854C135.911 171.969 139.209 180.871 148.02 192.582C148.137 192.653 149.645 193.503 151.082 192.747C151.812 192.369 152.166 191.755 152.307 191.472C151.153 180.281 149.834 170.883 148.679 163.635C148.444 162.124 147.383 155.465 145.711 146.659C145.051 143.211 144.109 138.182 142.955 132.988C141.541 126.542 139.35 117.759 135.981 107.252C129.22 106.284 122.436 105.316 115.627 104.324Z" id="Path" fill="url(#gradient_27)" stroke="none" />
          <path d="M54.4475 55.6149C55.3192 54.5997 56.1908 53.5844 57.0624 52.5455C57.4865 52.8524 63.4937 57.2913 70.6553 54.7177C75.6025 52.9233 77.9583 48.3191 79.466 45.3914C84.0127 36.5609 79.8194 31.1304 85.1435 24.8263C86.6276 23.0791 89.6901 20.7888 91.9281 21.0249C97.2758 21.6388 102.411 36.797 99.0897 49.7358C98.4301 52.3566 94.7551 66.7357 82.3401 69.9467C72.3515 72.5676 60.5726 66.8773 54.4475 55.6149Z" id="Path" fill="url(#gradient_28)" stroke="none" />
          <path d="M112.353 25.5109C110.162 23.4804 105.992 21.1665 103.895 15.736C103.259 14.1069 101.021 8.32219 104.32 3.90695C106.275 1.28614 109.903 -0.50829 113.107 0.129205C115.839 0.672256 116.263 2.58474 120.928 6.43332C122.742 7.92081 125.639 10.3291 128.89 11.6749C134.427 13.9652 137.772 11.8166 143.331 12.0527C150.163 12.3597 158.126 16.1846 161.942 21.7568C168.75 31.6262 158.903 41.6608 166.347 53.2301C168.798 57.0315 169.999 56.1815 175.771 63.5009C181.566 70.8439 184.44 74.5272 183.945 79.0369C183.238 85.2938 176.525 91.2437 170.187 91.6687C164.015 92.0701 160.081 87.1826 156.948 89.3312C154.71 90.8423 155.982 93.7937 153.603 97.3353C150.54 101.916 144.509 102.813 143.543 102.955C134.521 104.324 122.341 93.6992 117.159 81.1382C107.853 58.4245 124.226 36.5136 112.353 25.5109Z" id="Path" fill="url(#gradient_29)" stroke="none" />
          <path d="M115.769 157.331C114.473 154.167 112.918 151.664 112.07 146.8C110.963 140.354 112.329 136.765 114.285 121.843C115.674 111.218 115.439 109.566 114.52 107.96C112.518 104.489 108.23 102.955 103.895 102.317C103.943 102.53 104.013 102.766 104.06 102.978C106.345 113.438 97.6291 119.813 101.563 131.311C103.495 136.978 106.605 138.277 107.311 144.864C107.995 151.026 105.545 152.301 106.063 157.897C106.84 166.255 112.777 168.286 114.308 174.708C115.321 178.864 114.473 184.955 107.146 193.786C107.264 194.541 107.382 195.297 107.5 196.076C108.065 196.407 109.691 197.233 111.787 196.926C112.965 196.761 113.837 196.289 114.379 195.934C120.669 176.692 118.808 164.768 115.769 157.331Z" id="Path" fill="url(#gradient_30)" fill-opacity="0.3" stroke="none" />
          <path d="M92.8469 36.0885C84.5545 44.7537 87.5464 58.755 81.916 60.2661C80.1963 60.7383 80.1021 59.3689 75.7439 58.5897C69.3597 57.4564 66.7683 59.8647 62.2687 58.9439C60.4077 58.5661 57.9105 57.5508 55.2014 54.7175C54.9422 55.0245 54.7066 55.3078 54.4475 55.6147C60.5726 66.8771 72.3515 72.5674 82.3636 69.9702C94.7551 66.7355 98.4301 52.3564 99.1133 49.7592C100.668 43.6912 100.362 37.1274 99.0426 31.8149C96.9695 32.7358 94.7786 34.0816 92.8469 36.0885Z" id="Path" fill="url(#gradient_31)" stroke="none" />
          <path d="M85.9681 23.9998C86.5335 23.1026 88.371 20.6235 96.1451 18.7818C98.9249 18.1207 103.424 17.129 109.125 17.3415C110.091 17.3651 113.177 17.5304 116.499 18.2624C123.59 19.7971 137.748 25.2276 138.243 32.5942C138.596 37.8594 131.576 38.2136 127.618 47.5399C124.721 54.3398 124.744 62.8162 127.901 69.4272C130.422 74.716 134.898 78.7063 138.314 81.7285C143.402 86.2618 146.041 86.9465 147.76 91.0076C149.622 95.4228 147.737 97.595 150.069 100.617C152.543 103.876 155.464 102.364 159.657 105.646C163.968 109.023 162.437 111.785 166.348 115.516C172.049 120.923 179.611 119.175 179.964 121.607C180.27 123.709 174.899 126.542 170.329 127.699C161.283 129.989 153.414 126.141 151.059 124.96C144.58 121.702 145.687 119.577 140.74 117.098C132.448 112.919 126.794 117.57 107.924 118.042C97.6999 118.302 92.5407 118.349 89.7138 114.902C87.1224 111.738 88.4888 108.267 90.0436 93.2978C90.0436 93.2978 90.0436 93.2978 90.0436 93.2978C90.5383 88.2923 91.5749 77.8327 91.5984 71.8827C91.5984 68.3647 90.3734 62.6036 87.9469 51.1051C87.8056 50.4204 86.4864 44.2108 85.4262 35.8997C84.4839 28.3914 84.6253 26.1012 85.9681 23.9998Z" id="Path" fill="url(#gradient_32)" stroke="none" />
          <path d="M166.371 115.516C162.461 111.785 163.992 109.023 159.681 105.646C155.464 102.364 152.566 103.876 150.093 100.617C147.784 97.595 149.645 95.4228 147.784 91.0076C146.064 86.9465 143.426 86.2618 138.337 81.7285C134.945 78.7063 130.469 74.716 127.925 69.4272C123.543 60.2189 126.605 50.4204 127.642 47.5399C130.987 38.308 137.725 33.4442 140.175 31.8386C139.939 31.5789 128.514 41.7788 128.231 41.4719C112.141 43.6913 113.884 42.5344 112.73 45.2968C110.044 51.6718 114.285 54.0329 114.402 72.4258C114.45 81.2326 113.507 84.7034 116.358 88.3631C119.609 92.5659 123.378 91.2673 128.09 96.745C131.718 100.971 131.129 103.639 134.521 105.41C138.149 107.323 140.481 105.103 144.58 105.977C151.436 107.441 152.896 115.35 157.419 119.695C160.835 122.977 167.172 125.267 179.658 122.811C179.941 122.386 180.082 121.985 180.035 121.584C179.611 119.175 172.072 120.923 166.371 115.516Z" id="Path" fill="url(#gradient_33)" stroke="none" />
          <path d="M111.293 8.29858C111.293 8.29858 112.094 14.8152 114.497 16.3027C116.899 17.7902 120.763 19.7499 121.187 20.2693C121.611 20.7888 106.346 22.4415 98.7834 18.6166C101.281 18.0971 101.964 17.9082 101.964 17.9082C102.647 17.7193 103.896 17.3652 105.168 16.6332C106.039 16.1374 107.429 15.1694 108.701 13.3749L108.678 9.76246L111.293 8.29858Z" id="Path" fill="url(#gradient_34)" stroke="none" />
          <path d="M111.646 10.5889C111.646 10.5889 110.091 12.7375 107.641 11.8403C105.45 11.0375 106.746 5.37088 108.489 4.70977C109.078 4.49727 110.138 4.59171 110.845 5.04032C111.34 5.34726 112.683 7.02364 111.929 8.8889C112.494 8.72363 112.965 8.86529 113.083 9.14862C113.248 9.50278 112.777 9.975 112.659 10.0694C112.306 10.4472 111.858 10.5653 111.646 10.5889Z" id="Path" fill="url(#gradient_35)" stroke="none" />
          <g id="Group" transform="translate(0 28.077637)">
            <path d="M164.18 71.2173C164.109 75.0659 162.625 78.2297 159.728 80.7561L27.8977 19.0608L32.3501 9.52197L164.18 71.2173Z" id="Path" fill="url(#gradient_36)" stroke="none" />
            <path d="M161.989 78.2534C162.743 77.1436 163.309 75.9631 163.686 74.6645L30.9368 12.5442L29.2642 16.133L161.989 78.2534Z" id="Path" fill="url(#gradient_37)" stroke="none" />
            <path d="M32.3502 9.52197C32.7272 13.5358 31.2666 16.7233 27.8978 19.0608L0.146582 0.644267C-0.15967 0.408158 0.0523509 -0.0640604 0.429277 0.0303832L32.3502 9.52197Z" id="Path" fill="url(#gradient_38)" stroke="none" />
            <path d="M0.146582 0.644359L10.9361 7.79846C11.9255 6.59431 12.5616 5.22488 12.8443 3.71378L0.429277 0.00686422C0.0523509 -0.0639685 -0.15967 0.431861 0.146582 0.644359Z" id="Path" fill="url(#gradient_39)" stroke="none" />
          </g>
          <path d="M58.8294 61.1871C58.8294 61.1871 54.6596 57.4565 53.1755 55.2135C51.6913 52.9705 52.4216 57.8343 53.1755 59.3218C53.9293 60.8093 59.2534 64.5634 58.8294 61.1871Z" id="Path" fill="url(#gradient_40)" stroke="none" />
          <path d="M127.618 22.1108C132.471 24.5192 147.713 31.7441 151.035 52.5689C154.357 73.3937 136.618 84.2311 136.618 84.2311L132.471 81.4451C132.471 81.4451 136.9 48.9564 121.116 39.7954C105.309 30.6108 127.618 22.1108 127.618 22.1108Z" id="Path" fill="url(#gradient_41)" stroke="none" />
          <path d="M133.461 82.0827C132.471 82.2479 131.93 83.0979 129.715 81.9882C127.501 80.8785 121.965 82.2715 121.965 82.2715C121.965 82.2715 124.744 84.7743 127.783 84.2076C130.822 83.641 133.649 85.1521 134.45 85.3882C135.251 85.6007 135.534 83.4757 135.534 83.4757L133.461 82.0827Z" id="Path" fill="url(#gradient_42)" stroke="none" />
        </g>
        <path d="M56.3895 283C55.6359 283 55 282.388 55 281.612L55 248.564C55 247.858 55.5181 247.27 56.2246 247.2L103.397 241.743L103.397 207.871C103.397 207.142 103.962 206.554 104.668 206.483L147.342 203.096L147.342 173.623C147.342 172.894 147.931 172.282 148.661 172.235L187.426 170.471L187.426 132.201C187.426 131.448 188.038 130.813 188.815 130.813L225.201 130.813L343.002 73.1374C343.685 72.8081 344.509 73.0904 344.862 73.7725C345.192 74.4547 344.909 75.2779 344.227 75.6308L226.143 133.448C225.955 133.542 225.743 133.589 225.531 133.589L190.205 133.589L190.205 171.788C190.205 172.518 189.616 173.129 188.886 173.176L150.121 174.94L150.121 204.366C150.121 205.095 149.556 205.683 148.85 205.754L106.176 209.141L106.176 242.966C106.176 243.671 105.658 244.259 104.951 244.33L57.779 249.787L57.779 281.612C57.779 282.388 57.1667 283 56.3895 283Z" id="Path" fill="url(#gradient_43)" stroke="none" />
        <g id="Group" transform="translate(235 7)">
          <path d="M9.9139 57.0149C9.9139 57.0149 10.1024 57.7889 10.2908 57.7889C10.4793 57.7889 11.0682 58.3752 11.2566 58.9381C11.4451 59.5244 9.89034 60.486 9.51343 60.2984C9.13653 60.1107 8.54761 59.712 8.54761 59.712C8.54761 59.712 8.92452 59.3368 9.32498 59.3368C9.70189 59.3368 9.51343 58.9615 9.32498 58.7504C9.13653 58.5628 9.13653 57.3901 9.13653 57.3901L9.9139 57.0149Z" id="Path" fill="url(#gradient_44)" stroke="none" />
          <path d="M8.38264 57.9063C8.0764 56.6163 6.78078 50.8234 10.1494 46.2265C13.73 41.3483 20.3495 40.7619 23.4354 40.5039C25.155 40.3632 28.8063 39.9645 29.8664 40.0583C29.7015 47.1178 25.9089 49.7914 24.3306 50.4247C21.5744 51.527 18.7241 47.7041 15.4732 48.6657C12.5286 49.5335 11.1152 53.7081 10.385 57.4841C9.70181 57.6248 9.04222 57.7656 8.38264 57.9063Z" id="Path" fill="url(#gradient_45)" stroke="none" />
          <path d="M48.6882 91.2567C48.7589 91.2802 49.9839 92.359 50.5963 93.0861L51.6328 92.1949C51.6328 92.1949 50.9261 92.1011 50.2901 90.9049C49.6776 89.6854 48.6882 91.2567 48.6882 91.2567Z" id="Path" fill="url(#gradient_46)" stroke="none" />
          <path d="M52.4337 93.4849C52.4337 93.4849 51.7505 93.9071 51.4443 93.9774L51.4207 93.9774C51.2558 94.0243 51.0674 94.0009 50.926 93.8836C50.6905 93.6725 50.3371 93.3676 50.3136 93.2738C50.2665 93.1096 50.6198 92.7109 50.9732 92.4764C51.3265 92.2419 51.3736 92.0542 51.9625 91.3272C52.5515 90.6001 53.588 89.6855 54.2711 90.0842C54.9307 90.4829 54.6951 91.8666 52.4337 93.4849Z" id="Path" fill="url(#gradient_47)" stroke="none" />
          <path d="M53.8706 90.2483C53.3053 90.6236 53.2817 91.3506 52.363 92.2888C51.8448 92.8282 51.1852 93.3442 50.714 93.696C50.5256 93.5318 50.3371 93.3442 50.3136 93.2738C50.2665 93.1096 50.6198 92.7109 50.9732 92.4764C51.3265 92.2419 51.3736 92.0542 51.9625 91.3272C52.5515 90.6001 53.588 89.6855 54.2711 90.0842C54.436 90.178 54.5538 90.3421 54.6009 90.5767C54.3889 90.2952 54.1533 90.0607 53.8706 90.2483Z" id="Path" fill="url(#gradient_48)" stroke="none" />
          <path d="M34.0124 58.2581C36.745 61.6353 39.6896 65.7866 42.4693 70.7118C46.5917 78.0761 49.0652 84.9479 50.6199 90.5063C50.0074 90.9285 49.395 91.3507 48.7825 91.7963C47.2748 91.2334 44.9898 90.178 43.0111 88.0907C39.7838 84.643 40.9852 82.2742 38.017 77.9588C35.1431 73.7607 32.7639 74.2063 29.6073 69.6329C27.7227 66.9123 26.8511 64.2621 26.4036 62.5031C28.9241 61.0725 31.4683 59.6653 34.0124 58.2581Z" id="Path" fill="url(#gradient_49)" stroke="none" />
          <path d="M30.5261 60.1812C30.2199 62.2216 30.5732 63.6288 31.0915 64.6138C32.8111 67.8738 36.6038 67.4282 38.347 71.1104C39.5248 73.573 38.1349 74.4877 39.5248 77.0206C41.0089 79.6943 42.8227 79.1783 44.4717 81.8989C45.7909 84.0566 45.1549 85.1824 46.2149 88.372C46.5918 89.4743 47.0394 90.4594 47.5105 91.3037C46.1207 90.6704 44.4482 89.6854 42.9405 88.0906C39.7132 84.6429 40.9146 82.2742 37.9465 77.9587C35.0726 73.7606 32.6933 74.2062 29.5367 69.6328C27.6522 66.9122 26.7806 64.262 26.333 62.503C27.77 61.7291 29.1363 60.9551 30.5261 60.1812Z" id="Path" fill="url(#gradient_50)" fill-opacity="0.3" stroke="none" />
          <path d="M1.50409 81.8989C1.50409 81.8989 0.962287 81.9693 0.585379 82.626C0.208471 83.2592 -0.121323 86.2378 0.0435739 87.0352C0.184914 87.8092 1.1743 87.8561 1.55121 87.387C1.95167 86.9179 2.44636 83.0012 2.44636 83.0012L1.50409 81.8989Z" id="Path" fill="url(#gradient_51)" stroke="none" />
          <path d="M37.0042 62.6672C34.1067 65.1298 31.9866 67.3579 30.5967 68.9293C27.6521 72.2596 26.7334 73.9717 23.4826 76.9268C20.4673 79.6709 18.7006 80.5152 17.9939 80.8201C16.2742 81.5706 14.955 81.7817 11.5629 82.2273C8.59472 82.626 5.46167 83.0247 2.16373 83.4C1.62192 83.3296 1.43347 83.0482 1.40991 82.5322C1.99883 80.2338 3.03533 78.9907 3.78914 78.2871C5.43812 76.7861 6.73374 77.0676 11.186 75.2617C13.5652 74.3001 14.7666 73.7841 15.8973 72.8225C16.4391 72.3535 17.3578 71.4622 19.3602 67.7332C20.1846 66.2087 21.2211 64.1214 22.2812 61.5649C27.2046 61.9167 32.1044 62.292 37.0042 62.6672Z" id="Path" fill="url(#gradient_52)" stroke="none" />
          <path d="M52.0332 25.2124C51.515 25.0951 50.9732 25.0013 50.4549 24.884C49.9602 25.5407 49.2771 26.5961 48.7589 27.9799C47.5575 31.1226 48.2877 32.952 47.581 34.8517C46.9921 36.3996 45.3196 38.3228 40.3726 39.5658C40.2784 42.6616 40.1842 45.7575 40.0664 48.8298C42.0923 48.6188 45.3431 47.9621 48.5233 45.7575C50.3607 44.4675 52.363 43.0838 53.1875 40.5743C54.224 37.4081 53.0462 33.5618 52.5986 32.0607C52.3395 31.193 51.8212 29.7389 51.7977 27.675C51.7741 26.643 51.9155 25.7753 52.0332 25.2124Z" id="Path" fill="url(#gradient_53)" stroke="none" />
          <path d="M40.7968 39.4485C38.6767 39.3782 36.3917 39.4251 33.9182 39.6127C29.2069 39.988 25.0844 40.8557 21.6451 41.8173C21.6451 43.717 21.8572 45.1477 22.0692 46.1327C22.1634 46.5549 22.3754 47.6806 22.5167 49.1582C22.5639 49.5569 22.5639 50.0025 22.5639 50.5654C22.4696 53.9661 21.4096 54.4352 20.7264 58.821C20.1611 62.4328 20.7029 63.2536 19.737 64.7077C19.0303 65.7631 18.1352 66.2557 17.5463 67.9443C17.3578 68.5072 16.8631 69.8675 17.2871 70.3365C17.9938 71.087 19.9019 68.2961 23.2941 68.0381C25.108 67.8974 25.3436 68.6479 27.2281 68.3195C29.2775 67.9677 29.1833 67.0531 31.0914 66.6778C32.5048 66.4198 33.1644 66.7951 34.6014 66.8889C34.9783 66.9123 34.8369 66.8889 36.4623 66.8654C40.0901 66.7951 40.1843 66.9358 40.4434 66.7013C41.0088 66.1853 40.7732 65.2472 39.454 58.7741C39.2656 57.8125 39.1243 57.1323 39.1478 56.1942C39.1714 54.7166 39.6189 53.9661 39.9487 52.1602C40.1136 51.2455 40.2785 50.1432 40.4434 48.6422C40.6083 46.6487 40.9146 43.1073 40.7968 39.4485Z" id="Path" fill="url(#gradient_54)" stroke="none" />
          <g id="Group" transform="translate(28.947266 33.42456)">
            <path d="M4.57047 3.11572C4.57047 3.58479 4.4998 4.3822 3.93444 5.03889C3.65176 5.36724 3.34552 5.53141 2.87439 5.76594C0.848508 6.75098 -0.0230924 6.86825 0.000464347 7.07933C0.0240211 7.47804 2.66238 7.66566 4.87671 7.5953C5.44207 7.57185 7.53863 7.50149 7.56218 7.07933C7.58574 6.65717 5.88965 6.46954 5.55986 5.53141C5.34785 4.94508 5.74831 4.31184 6.19589 3.84277C5.8661 3.39716 4.90027 3.53788 4.57047 3.11572Z" id="Path" fill="url(#gradient_55)" stroke="none" />
            <g id="Group" transform="translate(3.4645996 0)">
              <path d="M4.38037 2.4591C4.80439 1.96658 4.87506 1.12226 4.45104 0.582833C4.07413 0.113767 3.46166 0.0434076 3.08475 0.0199543C2.00114 -0.0973122 0.611289 0.301394 0.0930402 1.23953C-0.213198 1.77895 0.328608 2.90471 0.399278 3.11579C0.493505 3.35032 0.681959 3.42068 0.846856 3.60831C1.08242 3.84284 1.45933 4.24155 2.07181 4.87479C2.14248 4.68716 2.21315 4.45263 2.35449 4.19464C2.4016 4.10083 2.61361 3.72557 2.91985 3.39723C3.53233 2.74054 3.9799 2.90471 4.38037 2.4591Z" id="Path" fill="url(#gradient_56)" stroke="none" />
              <path d="M1.2001 4.28845C1.2001 4.28845 1.85969 5.3673 3.27309 5.27349C4.54516 5.20313 4.87495 2.57636 4.09758 2.01348C3.83845 1.82585 3.29665 1.75549 2.84907 1.87276C2.58995 1.94312 2.49572 2.03693 2.04814 2.13075C1.64768 2.22456 1.52989 2.17765 1.41211 2.27147C1.24721 2.38873 1.12943 2.67017 1.34144 3.44413C1.10587 3.2096 0.823189 3.13924 0.611178 3.2096C0.587622 3.23305 0.493395 3.27996 0.422724 3.35032C0.257827 3.70212 0.540508 4.07737 1.2001 4.28845Z" id="Path" fill="url(#gradient_57)" stroke="none" />
            </g>
          </g>
          <path d="M25.6734 66.3259C26.9926 65.6223 26.8277 64.9891 28.194 63.9337C31.0914 61.7056 33.8476 63.1832 34.837 61.6353C35.9677 59.8763 32.6697 57.6013 33.6591 54.482C34.248 52.6057 35.6379 52.8168 36.8628 50.2135C38.0407 47.704 37.1455 46.6955 38.2291 45.7339C39.9723 44.1391 42.752 46.5313 45.5317 44.702C46.3562 44.1626 46.1442 43.9984 47.8874 42.0283C50.62 38.9794 51.7271 38.7683 52.6694 37.3376C52.9757 36.8686 53.2583 36.2822 53.4232 35.5317C53.6588 37.1031 53.7059 38.9325 53.1877 40.5507C52.3632 43.0602 50.3609 44.444 48.5234 45.7339C45.5082 47.8213 42.4458 48.5249 40.4199 48.7828C40.2786 50.2135 40.1137 51.3158 39.9488 52.207C39.619 54.0129 39.195 54.74 39.1478 56.241C39.1243 57.1791 39.2656 57.8593 39.4541 58.8209C40.7733 65.294 41.0088 66.2321 40.4435 66.7481C40.1843 66.9826 40.0901 66.8419 36.4624 66.9122C34.837 66.9357 34.9783 66.9826 34.6014 66.9357C33.1644 66.8419 32.5048 66.4666 31.0914 66.7246C29.1598 67.0764 29.2776 67.9911 27.2281 68.3663C25.3436 68.6947 25.108 67.9676 23.2941 68.0849C19.902 68.3429 17.9703 71.1338 17.2872 70.3833C16.8632 69.9143 17.3343 68.5305 17.5463 67.9911C17.5699 67.9442 17.5699 67.8973 17.5934 67.8504C18.5357 67.1937 19.4073 66.9122 20.1375 66.8184C22.0456 66.5135 23.6475 67.4048 25.6734 66.3259Z" id="Path" fill="url(#gradient_58)" fill-opacity="0.15" stroke="none" />
          <g id="Group" transform="translate(49.371338 0)">
            <path d="M1.1308 1.52445C4.05183 0.0703489 6.85509 0.469055 8.24494 1.07884C9.89391 1.80589 10.4357 2.34532 11.8962 2.62676C13.1919 2.86129 14.5346 1.28992 15.5475 2.41568C15.6182 2.48604 15.6889 2.57985 15.7831 2.74402C16.5134 3.98705 15.6418 5.48806 15.8773 8.11483C15.9951 9.45167 16.3013 9.82692 16.5605 12.4068C16.6547 13.3918 16.6311 13.5325 16.6076 13.6498C16.16 15.3854 12.65 15.057 10.1766 14.3065C6.76086 13.2746 5.67725 11.539 3.43936 12.313C2.40286 12.6882 1.62549 13.4153 1.1308 13.9782C1.38992 9.85037 0.918785 5.67569 1.1308 1.52445Z" id="Path" fill="url(#gradient_59)" stroke="none" />
            <path d="M1.17784 34.5936C0.989384 34.5936 0.848043 34.4529 0.848043 34.2653L0.848043 0.328346C0.848043 0.14072 0.989384 0 1.17784 0C1.36629 0 1.50763 0.14072 1.50763 0.328346L1.50763 34.2653C1.50763 34.4529 1.36629 34.5936 1.17784 34.5936Z" id="Path" fill="#26264F" stroke="none" />
          </g>
          <path d="M51.9863 25.2827C51.9863 25.2827 52.4339 23.7348 52.4339 22.8671C52.4339 21.9758 50.0076 21.9758 49.56 21.9758C49.1124 21.9758 49.348 23.5237 50.2196 23.6176C51.1147 23.7348 50.8792 25.0482 50.8792 25.0482L51.9863 25.2827Z" id="Path" fill="url(#gradient_60)" stroke="none" />
        </g>
        <g id="Group" transform="translate(178 174)">
          <g id="Group" transform="translate(141.53198 0)">
            <path d="M32.9197 32.628L28.1025 0.0837402L17.3403 1.16541C16.4239 1.00081 14.7085 1.9414 14.2855 2.9055L0.1395 35.8965C-0.306968 36.9312 0.374483 38.0834 1.38491 38.0834L5.42663 37.9188L5.42663 114.788C5.42663 116.152 6.41356 117.14 7.63547 116.975L17.3168 119.138C18.4682 118.997 29.3244 113.142 29.3244 111.825L29.3244 34.7678L31.7683 34.7443C32.7082 34.7208 33.3192 33.5921 32.9197 32.628Z" id="Path" fill="url(#gradient_61)" stroke="none" />
            <path d="M16.1183 37.5425L5.42651 37.8952L5.42651 114.765C5.42651 116.128 6.41344 117.116 7.63536 116.951L17.3167 119.115C17.7866 119.044 19.925 118.033 22.2513 116.74L16.1183 37.5425Z" id="Path" fill="url(#gradient_62)" fill-opacity="0.3" stroke="none" />
            <path d="M43.3529 35.2852L29.3478 0.906782C28.8779 -0.245435 27.468 -0.315979 26.9745 0.789209L12.2411 35.3792C11.8181 36.3904 12.476 37.5661 13.4865 37.5661L16.1183 37.5426L16.1183 117.069C16.1183 118.433 17.1052 119.421 18.3036 119.256L37.7368 116.74C38.8647 116.599 39.7811 115.4 39.7811 114.083L39.7811 37.378L42.2014 37.3545C43.1414 37.378 43.7288 36.2493 43.3529 35.2852Z" id="Path" fill="url(#gradient_63)" stroke="none" />
          </g>
          <g id="Group" transform="translate(115.42383 52.849854)">
            <path d="M12.4071 70.4976L2.30284 68.1461C1.03393 68.3107 0 67.3466 0 65.9828L0 3.17519C0 1.81134 1.03393 0.682639 2.30284 0.63561L23.9918 0.000714939C25.1902 -0.0227997 35.271 0.541551 35.271 0.541551L26.1537 62.7378C26.1302 64.0311 12.4071 70.4976 12.4071 70.4976Z" id="Path" fill="url(#gradient_64)" stroke="none" />
            <path d="M34.7305 67.6524L13.253 70.4271C11.9841 70.5917 10.9736 69.6276 10.9736 68.2638L10.9736 3.62207C10.9736 2.25822 12.0076 1.12951 13.253 1.106L34.7305 0.471105C35.9054 0.44759 36.8688 1.45872 36.8688 2.77554L36.8688 65.0188C36.8688 66.3121 35.9054 67.5113 34.7305 67.6524Z" id="Path" fill="url(#gradient_65)" stroke="none" />
          </g>
          <g id="Group" transform="translate(80.7168 74.975586)">
            <path d="M13.2061 52.7692L2.53782 50.4178C1.12792 50.6059 0 49.5948 0 48.1604L0.328977 4.16449C0.328977 2.7301 1.4569 1.50734 2.8668 1.41328L26.6941 0.00240477C28.01 -0.0681391 38.9602 1.4368 38.9602 1.4368L28.7385 44.6097C28.7385 45.95 14.522 52.6046 13.2061 52.7692Z" id="Path" fill="url(#gradient_66)" stroke="none" />
            <path d="M37.4328 49.6653L13.8405 52.7222C12.4541 52.9103 11.3262 51.8991 11.3262 50.4647L11.3262 5.08151C11.3262 3.67063 12.4541 2.44787 13.8405 2.35381L37.4328 0.919418C38.7252 0.848875 39.7827 1.88352 39.7827 3.24737L39.7827 46.8905C39.7827 48.2544 38.7487 49.5006 37.4328 49.6653Z" id="Path" fill="url(#gradient_67)" stroke="none" />
          </g>
          <g id="Group" transform="translate(42.43799 99.63306)">
            <path d="M12.8066 32.603L2.8198 30.6043C1.26891 30.7924 0 29.7342 0 28.2293L0 5.37309C0 3.86815 1.26891 2.52782 2.8198 2.38673L29.1379 0.0117531C30.5713 -0.129335 40.5581 1.0464 40.5581 1.0464L31.7463 24.2789C31.7463 25.7368 14.2635 32.4149 12.8066 32.603Z" id="Path" fill="url(#gradient_68)" stroke="none" />
            <path d="M40.5581 29.5697L14.4984 32.9323C12.971 33.1204 11.7256 32.0858 11.7256 30.5809L11.7256 6.40781C11.7256 4.90287 12.971 3.58606 14.4984 3.44497L40.5581 1.06999C41.9914 0.928902 43.1429 1.98706 43.1429 3.44497L43.1429 26.6304C43.1194 28.0648 41.9679 29.3816 40.5581 29.5697Z" id="Path" fill="url(#gradient_69)" stroke="none" />
          </g>
          <path d="M32.3337 113.33L3.12528 116.34C1.87987 116.458 0.798944 117.257 0.305478 118.268C0.117492 118.668 0 119.091 0 119.515L0 132.071C0 133.647 1.33941 134.964 3.12528 135.599L13.4411 137.644C15.0624 137.433 35.2005 130.261 35.2005 128.732L40.0412 122.901L44.9288 114.6C44.9523 114.647 33.9081 113.166 32.3337 113.33Z" id="Path" fill="url(#gradient_70)" stroke="none" />
          <path d="M44.13 134.235L15.227 137.974C13.5116 138.185 12.1252 137.103 12.1252 135.528L12.1252 120.949C12.1252 119.373 13.5116 117.939 15.227 117.774L44.13 114.765C45.7044 114.6 46.9968 115.682 46.9968 117.21L46.9968 131.154C46.9733 132.636 45.7044 134.023 44.13 134.235Z" id="Path" fill="url(#gradient_71)" stroke="none" />
        </g>
        <g id="Group" transform="translate(89 230)">
          <path d="M45.1603 47.1464L80.2056 38.2964L81.9567 46.884L49.8693 61.8168L24.4549 55.4954L9.12109 40.324L45.1603 47.1464Z" id="Path" fill="url(#gradient_72)" stroke="none" />
          <path d="M45.1603 47.1464L80.2056 38.2964L81.9567 46.884L49.8693 61.8168L24.4549 55.4954L9.12109 40.324L45.1603 47.1464Z" id="Path" fill="url(#gradient_73)" stroke="none" />
          <path d="M44.0481 59.0258C51.0051 55.2569 56.1637 51.4163 59.6659 48.5299C66.5282 42.8287 69.6991 38.5349 76.6561 36.8174C77.9103 36.5073 84.9856 34.7898 87.2809 37.9624C89.8129 41.469 84.8909 48.8162 84.2994 49.6988C75.402 62.9618 52.7799 62.3416 45.6809 61.9122C45.1129 60.9581 44.5924 60.0039 44.0481 59.0258Z" id="Path" fill="url(#gradient_74)" stroke="none" />
          <path d="M87.2573 37.9623C86.5948 37.032 85.5062 36.531 84.2758 36.2925C84.678 37.7237 84.7254 39.0357 84.2048 40.2046C82.8086 43.3772 78.6912 42.3992 75.8043 46.1444C72.9647 49.8179 74.9288 53.3484 72.4204 54.8512C69.5572 56.5926 65.984 52.5373 62.9078 54.4695C60.8254 55.7815 61.4643 58.2862 59.027 59.6459C57.3469 60.5763 55.6905 60.1469 53.7738 59.9083C51.5731 59.6221 48.5442 59.5744 44.7581 60.3616C45.042 60.8864 45.326 61.4112 45.6099 61.936C52.7089 62.3653 75.3547 62.9856 84.2284 49.7225C84.8673 48.816 89.7893 41.4689 87.2573 37.9623Z" id="Path" fill="url(#gradient_75)" fill-opacity="0.3" stroke="none" />
          <path d="M49.3249 61.0058C49.3249 61.0058 50.6028 60.0755 52.4485 60.7196C54.2942 61.3398 57.2521 61.8646 57.2285 62.771C57.2285 63.6775 54.2706 64.25 52.2355 63.8922C50.3188 63.5105 48.7807 61.8169 49.3249 61.0058Z" id="Path" fill="url(#gradient_76)" stroke="none" />
          <path d="M47.4557 59.4551L50.8632 60.5524C50.8632 60.5524 51.4075 61.4827 50.6739 62.0791C49.9167 62.6754 47.3374 61.4111 47.3374 61.4111L47.4557 59.4551Z" id="Path" fill="url(#gradient_77)" stroke="none" />
          <path d="M0.0580421 43.6159C-0.959479 49.5318 11.7004 55.9248 14.5873 57.3799C20.4795 60.3617 31.6012 64.5601 48.0709 62.9618C48.2838 61.626 48.5205 60.314 48.7334 58.9781C46.5564 58.2148 43.3382 56.9982 39.5757 55.1376C33.1867 51.9649 30.7493 49.6988 21.8993 44.3077C12.079 38.3202 9.2394 37.5569 6.30515 38.2964C3.82051 38.9404 0.531308 40.8726 0.0580421 43.6159Z" id="Path" fill="url(#gradient_78)" stroke="none" />
          <path d="M13.2385 32.3805C11.1088 24.5801 14.6346 14.0604 22.0649 9.00322C28.1463 4.85255 35.2453 5.1388 37.4697 5.21037C39.907 5.30578 39.6467 5.61589 47.29 7.04716C57.9148 9.02707 58.885 8.54998 61.9849 10.029C67.7824 12.8438 70.622 17.9248 71.1425 18.9267C73.8402 24.0076 76.0409 33.4301 70.9059 38.0579C67.9953 40.6819 63.9016 40.6819 61.6062 40.4195C61.4406 39.3699 61.2986 38.3441 61.133 37.2945C61.6062 36.9367 64.3512 34.6944 64.7061 30.7584C65.1084 26.2261 61.9612 23.3159 61.6062 23.0058C60.4941 25.1765 59.1216 28.4684 58.5064 32.6668C57.7018 38.1056 58.53 42.5664 59.2399 45.1904C56.424 46.7409 51.786 48.8639 45.7282 49.5319C41.1612 50.0328 35.5293 50.6769 31.9325 47.8382C26.8449 43.8307 26.4189 33.3824 31.4355 22.5048C29.5898 23.7452 26.9395 25.9876 25.8273 29.5657C25.6617 30.1144 25.3777 31.164 25.2594 35.2431C25.0701 42.5664 15.4628 40.4433 13.2385 32.3805Z" id="Path" fill="url(#gradient_79)" stroke="none" />
          <path d="M47.716 37.7715C45.1604 38.0816 44.4505 40.7772 42.0841 40.6102C36.9019 40.2762 32.7608 31.2354 34.9378 26.3214C36.3576 23.1011 40.0728 22.5524 39.8125 20.4532C39.5995 18.7834 37.0439 17.4953 34.9378 17.4237C31.6723 17.3283 29.4953 20.1908 28.738 21.2166C26.9633 23.5782 26.5847 26.1544 26.5374 27.8242C27.8388 25.248 29.9212 23.5304 31.4357 22.5047C26.419 33.3823 26.845 43.8067 31.9326 47.8381C35.5294 50.6768 41.1849 50.0565 45.7283 49.5317C50.6266 48.9831 54.6257 47.5041 57.4416 46.1206C54.7203 41.5882 51.2182 37.3421 47.716 37.7715Z" id="Path" fill="url(#gradient_80)" fill-opacity="0.3" stroke="none" />
          <path d="M56.6369 45.1188L26.6555 44.6655L34.63 48.5538L56.7079 47.0987L56.6369 45.1188Z" id="Path" fill="url(#gradient_81)" stroke="none" />
          <path d="M25.6145 45.4765C25.6145 46.049 25.9695 46.55 26.49 46.7408L36.0737 50.5337L36.121 47.9097L26.6793 44.6894C26.1351 44.5224 25.6145 44.9279 25.6145 45.4765Z" id="Path" fill="#D8DEE8" stroke="none" />
          <path d="M14.682 27.1801C17.001 24.9616 22.6802 26.369 24.7862 29.5417C26.348 31.8794 25.0465 33.7878 26.206 36.7457C27.6021 40.3477 32.8791 43.6158 36.1209 44.6892C35.624 45.7865 35.766 46.0728 35.2454 47.1701C33.1867 46.9077 18.3025 44.6177 14.6583 35.6961C14.469 35.219 12.221 29.5417 14.682 27.1801Z" id="Path" fill="url(#gradient_82)" stroke="none" />
          <path d="M48.4969 3.92212C48.4969 3.92212 46.0832 6.56996 44.0719 6.83236C42.0605 7.11861 39.1499 6.56996 38.653 6.83236C38.156 7.09476 41.1849 8.19206 43.5749 8.83613C45.9649 9.50405 50.3426 10.816 51.5495 10.5298C52.7563 10.2435 50.2243 8.693 49.2305 8.26362C48.2366 7.8581 49.6564 5.73505 49.6564 5.73505L48.4969 3.92212Z" id="Path" fill="url(#gradient_83)" stroke="none" />
          <g id="Group" transform="translate(46.689453 0)">
            <path d="M5.40406 5.42494C6.2796 5.18639 7.08415 4.18451 7.06049 3.15877C7.06049 2.27616 6.44524 1.6798 6.06663 1.29813C5.00178 0.248532 3.13238 -0.395537 1.80723 0.272387C1.00268 0.677912 0.647733 2.53856 0.55308 2.84866C0.458427 3.20648 0.600407 3.46888 0.647733 3.82669C0.69506 4.32764 0.789713 5.11483 0.884366 6.40297C1.121 6.21213 1.40496 5.99745 1.75991 5.80661C1.90189 5.73505 2.44614 5.42494 3.03773 5.30567C4.24455 5.06712 4.57584 5.66348 5.40406 5.42494Z" id="Path" fill="url(#gradient_84)" stroke="none" />
            <path d="M0.387541 5.01952C0.387541 5.01952 0.174571 6.90401 1.80734 7.97746C3.2508 8.95549 5.8301 5.99755 5.45149 4.6617C5.33317 4.20847 4.81258 3.65981 4.22099 3.42127C3.88971 3.27814 3.7004 3.32585 3.13248 3.08731C2.61189 2.87262 2.5409 2.72949 2.32793 2.72949C2.06763 2.72949 1.68902 2.99189 1.26308 4.11305C1.21576 3.63596 0.979123 3.302 0.6715 3.23043C0.624173 3.23043 0.482194 3.20658 0.340214 3.27814C-0.109389 3.49283 -0.133052 4.20847 0.387541 5.01952Z" id="Path" fill="url(#gradient_85)" stroke="none" />
            <path d="M2.39885 2.53856C2.42251 2.63398 2.0439 2.7294 1.75994 3.06336C1.21568 3.73128 1.26301 5.09098 1.92558 5.68734C2.30419 6.04516 2.61182 5.87818 3.34538 6.35527C3.79498 6.64152 4.12627 6.97548 4.29191 7.19017C3.93696 8.09664 3.15607 8.693 2.39885 8.66915C1.57063 8.62144 1.0737 7.8581 0.860732 7.54799C0.718752 7.3333 0.26915 6.66537 0.363803 5.83047C0.482119 4.97171 1.0737 4.87629 1.00271 4.18452C0.955385 3.8267 0.766079 3.54045 0.837069 2.96794C0.860732 2.80096 0.884395 2.68169 0.908058 2.58627C1.54697 2.49085 2.37518 2.39544 2.39885 2.53856Z" id="Path" fill="url(#gradient_86)" stroke="none" />
            <path d="M3.58202 7.09469C3.58202 7.09469 3.15608 7.02313 2.68282 6.59375C2.65915 6.56989 2.63549 6.56989 2.61183 6.56989C2.5645 6.6176 2.73014 7.09469 3.08509 7.23782C3.34539 7.33324 3.67668 7.26167 3.67668 7.19011C3.70034 7.1424 3.65301 7.11855 3.58202 7.09469Z" id="Path" fill="url(#gradient_87)" stroke="none" />
          </g>
          <g id="Group" transform="translate(34.791992 27.632812)">
            <path d="M2.1099 1.86124L0.00386218 21.2549C-0.0671277 21.9228 0.855741 22.9247 1.51831 22.9008L32.5172 20.9925C33.0378 20.9686 33.4401 20.587 33.5348 20.086L37.4155 1.3603C37.5338 0.668523 36.327 -0.0232547 35.6408 0.000599715L3.15108 0.930922C2.60682 0.907067 2.18089 1.31259 2.1099 1.86124Z" id="Path" fill="#D8DEE8" stroke="none" />
            <path d="M2.8198 2.43374L0.713762 21.8274C0.642772 22.4953 1.18703 23.0678 1.8496 23.044L33.2271 21.5411C33.7477 21.5173 34.15 21.1356 34.2447 20.6347L37.4629 1.81353C37.5812 1.12175 37.0369 0.525391 36.3507 0.525391L3.86098 1.45571C3.31672 1.45571 2.86712 1.88509 2.8198 2.43374Z" id="Path" fill="#FFFFFF" stroke="none" />
          </g>
          <path d="M56.0455 44.6177C53.3006 43.4488 54.2707 41.2065 51.0289 38.4394C46.7695 34.7658 42.4154 36.3641 40.8773 33.5254C40.4041 32.6428 40.1674 31.2592 40.9956 29.0408L38.653 29.1123C38.1087 29.1362 37.6591 29.5417 37.6118 30.0904L35.5058 49.484C35.4348 50.1519 35.979 50.7244 36.6416 50.7006L68.0191 49.1977C68.5397 49.1739 68.942 48.7922 69.0366 48.2913L69.4862 45.6911C68.5397 45.1664 67.4039 44.6654 66.0787 44.403C61.4644 43.425 59.1927 45.9774 56.0455 44.6177Z" id="Path" fill="url(#gradient_88)" stroke="none" />
        </g>
        <g id="Group" transform="translate(347 188)">
          <path d="M29.3581 114.862C29.3581 114.862 23.5123 117.51 23.4173 117.936C23.3222 118.362 27.1719 117.794 28.7402 117.865C30.3086 117.936 31.6156 117.463 31.473 116.801C31.3304 116.139 30.7839 114.46 30.7839 114.46L29.3581 114.862Z" id="Path" fill="url(#gradient_89)" stroke="none" />
          <path d="M29.1443 112.71L29.5007 115.335C29.5007 115.335 30.4275 115.666 31.0453 115.264L31.3067 112.403L29.1443 112.71Z" id="Path" fill="url(#gradient_90)" stroke="none" />
          <path d="M56.6859 112.781L57.375 113.869C57.5651 114.177 57.6126 114.531 57.5413 114.886C57.3037 115.784 56.8284 117.558 56.6146 118.007C56.3294 118.622 52.5511 119 52.5511 119C52.5511 119 52.2184 118.527 53.0026 117.96C53.7867 117.392 54.2858 117.298 54.5709 116.446C54.8561 115.595 55.0224 113.231 55.0224 113.231L56.6859 112.781Z" id="Path" fill="url(#gradient_91)" stroke="none" />
          <path d="M53.8579 110.015C54.0955 110.204 55.3312 113.893 55.3312 113.893C55.3312 113.893 55.7352 114.389 56.4719 113.656C57.2085 112.923 56.8046 113.325 56.8046 113.325L56.662 109.708L53.8579 110.015Z" id="Path" fill="url(#gradient_92)" stroke="none" />
          <path d="M25.9361 60.1013C25.6272 67.904 25.6035 76.3925 26.0787 85.472C26.5778 95.6865 27.5996 105.121 28.9066 113.68C29.3818 113.704 29.8809 113.704 30.4036 113.68C30.7601 113.68 31.0928 113.656 31.4255 113.633C32.0908 111.859 32.875 109.519 33.5879 106.728C34.3246 103.797 34.7761 101.172 35.1088 98.6657C36.2256 89.8226 34.9187 89.0423 35.8217 82.4928C36.6296 76.6762 37.7703 76.4634 39.1248 68.2114C40.5981 59.2738 39.505 57.926 38.9584 57.4295C36.7247 55.3724 31.4017 56.7674 25.9361 60.1013Z" id="Path" fill="url(#gradient_93)" stroke="none" />
          <path d="M38.9821 57.4294C36.8197 55.4669 31.9007 56.6491 26.6965 59.652C32.6849 66.0833 33.3265 70.2684 32.6136 72.9639C31.8056 76.0141 29.3343 76.9126 29.3343 80.2465C29.3343 84.3606 33.0889 85.4483 32.9938 89.7989C32.9463 92.6835 31.3066 92.6362 30.9026 96.2066C30.4511 100.415 32.5898 101.858 31.9007 104.979C31.5918 106.326 30.7601 108.076 28.3124 109.873C28.4788 111.15 28.6689 112.427 28.859 113.656C29.3343 113.68 29.8333 113.68 30.3561 113.656C30.7125 113.656 31.0452 113.633 31.3779 113.609C32.0433 111.836 32.8275 109.495 33.5404 106.705C34.277 103.773 34.7285 101.148 35.0612 98.642C36.1781 89.7989 34.8711 89.0186 35.7741 82.4691C36.5821 76.6525 37.7227 76.4397 39.0772 68.1877C40.598 59.25 39.5049 57.9259 38.9821 57.4294Z" id="Path" fill="url(#gradient_94)" fill-opacity="0.3" stroke="none" />
          <path d="M29.6433 59.983C34.7999 67.4783 40.3605 76.818 45.3271 88.0019C49.0817 96.443 51.8144 104.388 53.8106 111.457C54.0719 111.576 54.7136 111.836 55.5453 111.717C56.6621 111.576 57.3275 110.866 57.4939 110.677C58.3018 105.617 58.2068 101.314 57.9454 98.2163C57.779 96.2302 57.4463 92.92 56.1869 88.8531C54.7611 84.2897 53.7868 84.0296 51.9333 79.2061C50.0084 74.1934 50.4837 72.9403 48.6302 66.6744C47.8697 64.0972 46.6103 60.2667 44.5191 55.6797C39.5526 57.0747 34.5861 58.517 29.6433 59.983Z" id="Path" fill="url(#gradient_95)" stroke="none" />
          <path d="M5.26214 6.54617C5.26214 6.54617 4.26408 5.36394 3.62247 4.46544C2.98086 3.56695 0.0342191 1.10791 0.0342191 1.10791C0.0342191 1.10791 -0.17965 1.50987 0.461958 2.14827C1.10357 2.78668 2.43431 3.85069 2.12539 4.32358C1.84023 4.79647 1.00851 5.22207 1.62636 6.09692C2.2442 6.97177 3.31355 6.33337 3.8601 7.04271C4.40666 7.7284 5.00074 8.48503 5.00074 8.48503L5.26214 6.54617Z" id="Path" fill="url(#gradient_96)" stroke="none" />
          <path d="M5.40481 5.29297C4.73943 6.12053 4.07406 6.94809 3.40869 7.7993C4.26417 11.4642 6.07018 16.9971 10.3 22.388C14.7913 28.0864 24.3441 36.6221 30.2849 33.832C33.9207 32.1296 38.816 26.2657 37.0575 23.452C35.3703 20.7329 28.0512 22.0334 23.0134 20.8984C18.0944 19.7871 11.7021 16.2168 5.40481 5.29297Z" id="Path" fill="url(#gradient_97)" stroke="none" />
          <path d="M51.363 26.9751C51.363 26.9751 55.2601 40.1924 52.8363 45.276C50.4124 50.3596 42.7131 44.7795 42.7131 44.7795L51.363 26.9751Z" id="Path" fill="url(#gradient_98)" stroke="none" />
          <path d="M50.6501 26.9751C50.6501 26.9751 54.5472 40.1924 52.1234 45.276C49.6995 50.3596 42.0002 44.7795 42.0002 44.7795L50.6501 26.9751Z" id="Path" fill="url(#gradient_99)" fill-opacity="0.3" stroke="none" />
          <path d="M39.2437 22.0808C34.2297 21.9862 30.38 22.1517 28.2413 24.3743C25.9838 26.7151 28.3839 29.2451 28.0037 35.2509C27.4334 44.4486 21.6114 46.8131 21.3738 56.129C21.3025 59.2738 21.8728 61.8274 22.3243 63.3643C23.655 64.9248 25.8175 67.1474 28.9542 68.9681C33.5405 71.6163 36.1545 71.0724 42.7132 72.7039C53.4304 75.3758 54.4522 78.8042 59.7039 77.8112C65.0269 76.8181 69.5894 72.231 68.9716 69.7956C68.5914 68.3297 66.4527 68.8026 63.9338 66.6036C60.6782 63.7899 61.8426 60.9998 59.3475 57.9497C55.7592 53.5754 50.959 56.3891 47.9173 52.606C44.8281 48.7519 45.8499 41.0438 48.2975 36.7878C49.8897 34.0213 50.5313 30.782 51.862 27.8737C51.9808 27.6373 52.0997 27.2353 52.0284 26.7388C51.767 24.8709 48.6065 23.9251 46.2064 23.2394C42.5943 22.1754 39.6477 22.0808 39.2437 22.0808Z" id="Path" fill="url(#gradient_100)" stroke="none" />
          <path d="M34.3484 21.9861L35.3227 21.655C35.3227 21.655 35.6078 22.9791 38.7921 23.0737C40.5506 23.0264 41.6675 22.0333 41.6675 22.0333L42.3566 22.5062C42.3566 22.5062 40.9071 24.3742 38.5545 24.3742C35.5366 24.3978 34.3484 21.9861 34.3484 21.9861Z" id="Path" fill="url(#gradient_101)" stroke="none" />
          <g id="Group" transform="translate(35.104736 0)">
            <path d="M0.0515604 17.7065C-0.209836 16.2642 0.598116 15.0111 0.788222 14.751C1.54865 13.6397 1.71499 13.4742 2.04767 13.3086L2.49918 13.0958C2.49918 13.0958 2.52294 13.0958 2.5467 13.0722C2.83186 13.0013 3.75863 13.0486 3.94874 13.1195C4.54282 13.3086 4.94679 15.815 4.44776 19.2434C4.47153 19.5035 4.49529 19.7873 4.51905 20.0474C5.87356 19.8582 6.25377 20.0001 6.32506 20.1656C6.46764 20.5439 5.54087 22.8374 4.25766 23.263C2.64176 23.8305 0.408009 22.3645 0.26543 21.8207C0.217903 21.6079 0.217903 21.7971 1.31101 21.1587C1.40607 20.8513 1.71499 19.9764 1.83381 19.669C1.59617 19.5508 0.241666 18.7705 0.0515604 17.7065Z" id="Path" fill="url(#gradient_102)" stroke="none" />
            <path d="M1.88132 16.5478C2.19024 16.2168 2.61798 16.5951 2.57045 17.068C2.52293 17.5409 2.0239 17.9902 1.59616 17.8483C1.16842 17.7064 1.50111 16.9971 1.88132 16.5478Z" id="Path" fill="url(#gradient_103)" stroke="none" />
            <path d="M49.5742 1.24983C43.0393 -2.43872 32.2271 2.62122 27.3318 8.81611C25.0506 11.7008 24.3139 14.4908 20.9395 15.7676C18.3731 16.7607 13.9056 17.0917 10.8164 14.9874C10.4362 14.7273 8.84401 13.5923 6.5865 12.2446C5.58845 11.6535 4.61415 11.1096 3.42599 11.2988C3.11707 11.3461 2.11901 11.488 1.69127 12.3155C1.33482 12.9776 1.50116 13.8761 1.85761 14.4435C2.07148 14.7746 2.1903 14.7982 2.26159 15.0346C2.42793 15.7203 1.28729 16.4297 1.45364 16.7607C1.57245 16.9971 2.21406 16.6898 2.40417 16.9735C2.6418 17.2809 2.02396 17.8011 1.97643 18.7468C1.52493 19.3143 1.4774 20.3783 1.76256 21.7024C2.1903 23.6413 2.85567 25.0836 3.59233 26.124C7.08553 31.0893 9.60444 34.636 13.2877 35.8892C18.1592 37.5443 20.8445 33.7139 30.7062 30.0963C44.2275 25.1309 49.1227 28.6539 53.0437 23.9014C57.9389 17.9666 56.3705 5.08026 49.5742 1.24983Z" id="Path" fill="#26264F" stroke="none" />
          </g>
          <g id="Group" transform="translate(21.34375 29.765137)" opacity="0.3">
            <path d="M34.6054 40.1249C29.5676 36.791 25.005 40.5978 21.4405 37.6659C18.5177 35.2541 20.9178 32.1094 17.7335 27.8534C14.264 23.1954 9.41633 24.3776 8.27569 20.9018C7.08753 17.3079 11.8639 14.8488 11.9828 9.8598C12.0541 7.30618 10.8897 3.97229 6.27958 0C6.51721 1.46597 6.77861 3.23931 6.63603 5.50919C6.06571 14.7069 0.243711 17.0714 0.0060781 26.3874C-0.0652117 29.5321 0.505107 32.0857 0.956609 33.6226C2.28735 35.1832 4.44981 37.4058 7.58656 39.2264C12.1729 41.8746 14.7868 41.3308 21.3455 42.9623C32.0627 45.6341 33.0845 49.0626 38.3362 48.0695C39.8571 47.7858 41.3304 47.1946 42.6374 46.438C41.1165 46.2016 39.9759 45.6814 39.0966 45.0903C36.8154 43.4588 37.2194 41.8746 34.6054 40.1249Z" id="Path" fill="url(#gradient_104)" stroke="none" />
          </g>
        </g>
      </g>
    </g>
  </g>
</svg>