<svg width="137" height="210" viewBox="0 0 137 210" fill="none" xmlns="http://www.w3.org/2000/svg">
<g id="Group">
<path id="Path" d="M128.952 205.232C127.902 204.656 126.853 204.131 125.803 203.502L126.38 202.506C127.377 203.083 128.427 203.66 129.477 204.184L128.952 205.232Z" fill="#666666"/>
<path id="Shape" fill-rule="evenodd" clip-rule="evenodd" d="M15.3947 11.3336C17.4413 12.5917 19.4878 13.9021 21.4294 15.265L22.1116 14.3215C20.1175 12.9062 18.071 11.5957 15.9719 10.3376L15.3947 11.3336ZM32.7116 24.2811C30.9275 22.6561 29.0908 21.0836 27.2017 19.6158L27.9364 18.7247C29.8255 20.2449 31.7146 21.8174 33.4988 23.4424L32.7116 24.2811ZM37.9067 29.3134C39.5859 31.0432 41.2127 32.8255 42.7345 34.6601L43.6265 33.9263C42.0523 32.0916 40.4255 30.2569 38.7463 28.5271L37.9067 29.3134ZM51.3405 46.2448C50.0286 44.2528 48.6642 42.2609 47.2474 40.3214L48.1394 39.64C49.5563 41.5795 50.9731 43.5714 52.285 45.6157L51.3405 46.2448ZM55.0137 52.4302C56.1682 54.527 57.3227 56.6762 58.3197 58.8254L59.3692 58.3536C58.3197 56.152 57.1652 53.9504 56.0108 51.8536L55.0137 52.4302ZM63.6197 72.2447C62.8851 69.9383 62.0455 67.6843 61.2059 65.4304L61.2058 65.4302L62.2554 65.0108C63.1474 67.2649 63.9871 69.5713 64.7217 71.8777L63.6197 72.2447ZM65.6138 79.164C66.191 81.4705 66.7158 83.8293 67.1356 86.1882L68.2376 86.0309C67.8178 83.6721 67.293 81.2608 66.7158 78.9019L65.6138 79.164ZM68.8148 100.551C68.7098 98.1397 68.4999 95.7285 68.2376 93.3696L69.392 93.2648C69.6544 95.676 69.8643 98.0873 69.9693 100.499L68.8148 100.551ZM68.9722 107.732C68.9722 110.196 69.0772 112.607 69.2871 115.019L70.4415 114.914C70.2841 112.555 70.1792 110.144 70.1267 107.732H68.9722ZM71.3861 129.434C70.8613 127.075 70.4415 124.664 70.1267 122.253L71.2287 122.095C71.596 124.454 72.0158 126.865 72.4881 129.172L71.3861 129.434ZM73.1178 136.563C73.7475 138.869 74.5346 141.176 75.3218 143.482L76.4237 143.115C75.5841 140.861 74.8495 138.555 74.2198 136.248L73.1178 136.563ZM81.0941 156.849C79.9921 154.7 78.9426 152.446 77.998 150.244L79.0475 149.773C79.9921 151.974 81.0416 154.176 82.0911 156.325L81.0941 156.849ZM84.6099 163.192C85.8693 165.289 87.1812 167.333 88.5456 169.325L89.4902 168.696C88.1258 166.704 86.8139 164.66 85.607 162.615L84.6099 163.192ZM97.5189 180.805C95.8922 179.023 94.3179 177.135 92.8486 175.248L93.7407 174.567C95.21 176.454 96.7842 178.289 98.411 180.071L97.5189 180.805ZM102.609 186.047C104.341 187.724 106.125 189.401 107.962 190.974L108.696 190.135C106.912 188.563 105.128 186.938 103.396 185.26L102.609 186.047ZM113.629 195.535C115.57 197.002 117.565 198.418 119.611 199.728L120.241 198.785C118.194 197.474 116.2 196.059 114.311 194.643L113.629 195.535Z" fill="#666666"/>
<path id="Path_2" d="M8.99271 7.76915C7.9432 7.24496 6.89369 6.72077 5.84418 6.19658L6.31646 5.14819C7.36597 5.67238 8.46795 6.19658 9.51746 6.72077L8.99271 7.76915Z" fill="#666666"/>
<path id="Path_3" d="M130.264 198.837L136.613 208.22L125.278 209.006L130.264 198.837Z" fill="#666666"/>
<ellipse id="Oval" cx="6.27661" cy="5.94852" rx="4.24682" ry="4.24969" transform="rotate(-64.4881 6.27661 5.94852)" fill="#666666"/>
</g>
</svg>
