<svg width="137" height="209" viewBox="0 0 137 209" fill="none" xmlns="http://www.w3.org/2000/svg">
<g id="Group">
<path id="Path" d="M126.524 6.61454L125.947 5.61858C126.997 5.04196 128.046 4.46535 129.096 3.94116L129.62 4.93713C128.571 5.46132 127.574 6.03793 126.524 6.61454Z" fill="#666666"/>
<path id="Shape" fill-rule="evenodd" clip-rule="evenodd" d="M113.773 13.5861L114.455 14.4772C116.397 13.0619 118.391 11.6466 120.385 10.3361L119.755 9.39258C117.709 10.7031 115.714 12.1184 113.773 13.5861ZM103.54 23.9127L102.753 23.1264C104.485 21.449 106.269 19.7716 108.106 18.199L108.84 19.0377C107.004 20.5579 105.219 22.2353 103.54 23.9127ZM92.9926 33.9247L93.8847 34.6062C95.354 32.7191 96.9282 30.8844 98.5025 29.1022L97.6629 28.3683C96.0886 30.1506 94.5144 32.0377 92.9926 33.9247ZM85.6985 46.5053L84.7014 45.9287C85.9084 43.8844 87.2727 41.7876 88.6371 39.7957L89.5817 40.4247C88.2173 42.4166 86.9054 44.461 85.6985 46.5053ZM78.0895 58.8763L79.139 59.348C80.0836 57.1464 81.1331 54.9448 82.1826 52.7956L81.1856 52.2715C80.0836 54.4206 79.0341 56.6747 78.0895 58.8763ZM74.3638 72.9246L73.2618 72.6101C73.944 70.2512 74.6786 67.9448 75.4657 65.6908L76.5153 66.0577C75.7281 68.3117 74.9935 70.6182 74.3638 72.9246ZM70.2707 86.8681L71.3727 87.0254C71.6875 84.6665 72.1073 82.2552 72.6321 79.8963L71.5301 79.6867C71.0578 82.0455 70.638 84.4568 70.2707 86.8681ZM70.2182 101.388H69.0637C69.1162 98.9769 69.2212 96.5132 69.3786 94.1019L70.533 94.2068C70.3756 96.5656 70.2707 98.9769 70.2182 101.388ZM68.3291 115.803L69.4835 115.908C69.7459 113.497 69.9558 111.086 70.0608 108.674L68.9063 108.622C68.8014 111.033 68.5915 113.445 68.3291 115.803ZM66.8598 130.219L65.7578 129.957C66.335 127.65 66.8598 125.291 67.2796 122.932L68.3815 123.142C67.9617 125.501 67.437 127.912 66.8598 130.219ZM61.3498 143.69L62.3993 144.11C63.2914 141.856 64.131 139.549 64.8657 137.295L63.7637 136.928C63.029 139.182 62.2419 141.489 61.3498 143.69ZM56.1548 157.267L55.1577 156.69C56.3122 154.594 57.4142 152.444 58.4637 150.295L59.5132 150.767C58.4637 152.969 57.3617 155.118 56.1548 157.267ZM47.3913 168.799L48.2834 169.481C49.7003 167.541 51.1171 165.549 52.429 163.505L51.4844 162.876C50.1725 164.868 48.8082 166.86 47.3913 168.799ZM38.8378 180.594L37.9982 179.807C39.6774 178.077 41.3042 176.295 42.826 174.461L43.7181 175.194C42.1438 177.029 40.517 178.864 38.8378 180.594ZM27.3457 189.505L28.0803 190.396C29.9695 188.876 31.8061 187.303 33.6428 185.678L32.8556 184.84L32.6979 184.978C30.9633 186.508 29.1792 188.08 27.3457 189.505ZM15.5387 197.735L16.1159 198.731C18.1625 197.473 20.209 196.162 22.2031 194.747L21.5734 193.803C19.6318 195.166 17.5852 196.477 15.5387 197.735Z" fill="#666666"/>
<path id="Path_2" d="M6.46044 203.92L5.98816 202.872C7.03767 202.348 8.08718 201.824 9.13669 201.299L9.66145 202.295C8.61194 202.872 7.56242 203.396 6.46044 203.92Z" fill="#666666"/>
<path id="Path_3" d="M125.422 0.114502L136.757 0.900789L130.408 10.2838L125.422 0.114502Z" fill="#666666"/>
<ellipse id="Oval" cx="6.46447" cy="203.194" rx="4.24969" ry="4.24682" transform="rotate(-25.5119 6.46447 203.194)" fill="#666666"/>
</g>
</svg>
