<svg width="64" height="59" viewBox="0 0 64 59" fill="none" xmlns="http://www.w3.org/2000/svg">
<path id="Combined Shape Copy 3" fill-rule="evenodd" clip-rule="evenodd" d="M42.7376 0.714355C46.1735 0.714355 48.9689 3.5097 48.9689 6.94562C48.9689 10.3815 46.1735 13.1769 42.7376 13.1769C39.3017 13.1769 36.5063 10.3815 36.5063 6.94562C36.5063 3.5097 39.3017 0.714355 42.7376 0.714355ZM42.7376 13.1769C36.5529 13.1769 31.5213 18.2085 31.5213 24.3932V31.8707C31.5213 32.5589 32.0794 33.1169 32.7676 33.1169H37.1294C37.8176 33.1169 38.3757 32.5589 38.3757 31.8707C38.3757 31.1825 37.8176 30.6244 37.1294 30.6244H34.0138V24.3932C34.0138 19.5829 37.9273 15.6694 42.7376 15.6694C47.5479 15.6694 51.4614 19.5829 51.4614 24.3932V30.6244H48.3457C47.6575 30.6244 47.0995 31.1825 47.0995 31.8707C47.0995 32.5589 47.6575 33.1169 48.3457 33.1169H52.7076C53.3958 33.1169 53.9539 32.5589 53.9539 31.8707V24.3932C53.9539 18.2085 48.9222 13.1769 42.7376 13.1769ZM38.9988 6.94562C38.9988 9.00717 40.676 10.6844 42.7376 10.6844C44.7991 10.6844 46.4763 9.00717 46.4763 6.94562C46.4763 4.88407 44.7991 3.20686 42.7376 3.20686C40.676 3.20686 38.9988 4.88407 38.9988 6.94562ZM42.7376 33.1169C43.4259 33.1169 43.9838 32.559 43.9838 31.8707C43.9838 31.1824 43.4259 30.6244 42.7376 30.6244C42.0493 30.6244 41.4913 31.1824 41.4913 31.8707C41.4913 32.559 42.0493 33.1169 42.7376 33.1169ZM55.8553 35.4707L45.185 43.038C44.8558 40.6058 42.766 38.7251 40.2451 38.7251H38.9664C33.8208 38.7251 28.8579 37.4412 22.9895 35.5134C21.9247 35.1635 20.8118 34.9863 19.6818 34.9863C16.5317 34.9863 13.622 36.3411 11.6037 38.7251H1.36198C0.67367 38.7251 0.115723 39.2832 0.115723 39.9713V51.1876C0.115723 51.8758 0.67367 52.4339 1.36198 52.4339C5.9303 52.4339 10.4531 53.7185 15.2416 55.0786L15.2437 55.0792C20.3718 56.5358 25.6746 58.042 31.4079 58.042C42.1366 58.042 47.3189 55.0678 62.0528 43.28C64.205 41.5587 64.553 38.4242 62.8306 36.2726C61.1216 34.1375 58.0001 33.7819 55.8553 35.4707ZM60.4958 41.3336C45.5501 53.2909 40.9286 55.5495 31.4079 55.5495C26.0218 55.5495 20.8888 54.0915 15.9248 52.6814L15.9239 52.6811C11.3841 51.3917 7.0745 50.1677 2.60823 49.9693V41.2175H12.2031C12.5951 41.2175 12.9641 41.0331 13.1995 40.7198C14.7472 38.6602 17.1099 37.4787 19.6819 37.4787C20.5471 37.4787 21.3982 37.6142 22.2117 37.8814C28.3076 39.8837 33.4896 41.2175 38.9664 41.2175H40.2451C41.6194 41.2175 42.7376 42.3356 42.7376 43.71C42.7376 45.0643 41.6485 46.2025 40.2451 46.2025H25.1031C24.4148 46.2025 23.8568 46.7606 23.8568 47.4487C23.8568 48.1369 24.4148 48.695 25.1031 48.695H40.2451C41.7398 48.695 43.1679 48.0105 44.1106 46.8556C49.6435 42.9314 52.8641 40.6476 54.7409 39.3169L54.7441 39.3146C57.3445 37.4706 57.3614 37.4586 57.3771 37.4452L57.3818 37.4412C58.4543 36.5829 60.0261 36.7574 60.8848 37.8302C61.7459 38.9059 61.5721 40.4727 60.4958 41.3336Z" fill="#28B0FF"/>
</svg>
