<svg width="59" height="64" viewBox="0 0 59 64" fill="none" xmlns="http://www.w3.org/2000/svg">
<path id="Combined Shape" fill-rule="evenodd" clip-rule="evenodd" d="M45.5117 34.6174L57.3787 45.2754C57.8617 45.7095 58.1385 46.3308 58.1385 46.9802C58.1385 47.6296 57.8615 48.251 57.3784 48.685L45.5115 59.3431C44.829 59.9557 43.8846 60.1045 43.047 59.7309C42.2093 59.3573 41.6889 58.5554 41.6889 57.6381V54.4006H40.402C36.9838 54.4006 33.5616 55.2081 30.5055 56.7361C27.9244 58.0266 25.597 59.8335 23.7021 62.0082H47.3004C48.6042 62.0082 49.665 60.9475 49.665 59.6437V57.7139C49.665 57.1976 50.0833 56.7792 50.5997 56.7792C51.116 56.7792 51.5344 57.1976 51.5344 57.7139V59.6437C51.5344 61.9783 49.6349 63.8776 47.3004 63.8776H5.17277C2.83823 63.8776 0.938904 61.9783 0.938904 59.6438V4.3021C0.938904 1.96745 2.83823 0.0681152 5.17277 0.0681152H36.0493C36.2972 0.0681152 36.535 0.166571 36.7104 0.341798L51.2607 14.8921C51.4359 15.0676 51.5344 15.3053 51.5344 15.5531V36.1725C51.5344 36.6888 51.116 37.1072 50.5997 37.1072C50.0833 37.1072 49.665 36.6888 49.665 36.1725V16.4879H38.5423C36.6523 16.4879 35.1146 14.9502 35.1146 13.0602V1.93753H5.17277C3.86891 1.93753 2.80832 2.99824 2.8082 4.3021V59.6437C2.8082 60.9475 3.86891 62.0082 5.17277 62.0082H19.6618C19.6629 61.9959 19.6642 61.9836 19.6655 61.9713C19.6676 61.9525 19.67 61.9337 19.6727 61.9149C20.5602 55.7569 24.4813 41.4694 41.6891 40.0802V36.3223C41.6891 35.405 42.2095 34.6031 43.0472 34.2295C43.885 33.8558 44.8293 34.0046 45.5117 34.6174ZM36.9841 3.25934V13.0602C36.9841 13.9195 37.6831 14.6184 38.5423 14.6184H48.3431L36.9841 3.25934ZM56.1293 47.2943L44.2625 57.9522C44.0851 58.1114 43.9018 58.0654 43.8086 58.0236C43.7151 57.982 43.5583 57.8764 43.5583 57.6381V53.4658C43.5583 52.9495 43.1399 52.5311 42.6236 52.5311H40.402C36.6952 52.5311 32.984 53.407 29.6696 55.0641C26.5539 56.6217 23.7795 58.873 21.6128 61.5965C22.1402 58.3637 23.3783 53.9154 26.2709 50.0271C30.0036 45.0092 35.5223 42.2708 42.6737 41.8877C43.1697 41.8611 43.5584 41.4511 43.5584 40.9543V36.3223C43.5584 36.084 43.7152 35.9784 43.8087 35.9368C43.8523 35.9174 43.9155 35.8969 43.9886 35.8969C44.072 35.8969 44.1681 35.9235 44.2625 36.0083L56.1292 46.6661C56.2512 46.7757 56.2692 46.9099 56.2692 46.9803C56.2692 47.0507 56.2512 47.1848 56.1293 47.2943ZM26.6803 10.3519H7.86037C7.34403 10.3519 6.92566 9.93354 6.92566 9.41721C6.92566 8.90087 7.34403 8.4825 7.86037 8.4825H26.6803C27.1966 8.4825 27.615 8.90087 27.615 9.41721C27.615 9.93354 27.1966 10.3519 26.6803 10.3519ZM26.6803 16.5007H7.86037C7.34403 16.5007 6.92566 16.0823 6.92566 15.566C6.92566 15.0496 7.34403 14.6313 7.86037 14.6313H26.6803C27.1966 14.6313 27.615 15.0496 27.615 15.566C27.615 16.0823 27.1966 16.5007 26.6803 16.5007ZM45.5475 27.7359C45.5475 27.2196 45.1291 26.8012 44.6128 26.8012H7.86037C7.34403 26.8012 6.92566 27.2196 6.92566 27.7359C6.92566 28.2522 7.34403 28.6706 7.86037 28.6706H44.6128C45.1291 28.6706 45.5475 28.2522 45.5475 27.7359ZM36.0493 35.2299C36.5657 35.2299 36.9841 35.6483 36.9841 36.1646C36.9841 36.6808 36.5657 37.0993 36.0493 37.0993H7.86037C7.34403 37.0993 6.92566 36.6809 6.92566 36.1646C6.92566 35.6483 7.34403 35.2299 7.86037 35.2299H36.0493ZM7.86037 43.6587C7.34403 43.6587 6.92566 44.0771 6.92566 44.5935C6.92566 45.1098 7.34403 45.5282 7.86037 45.5282H23.5366C24.0529 45.5282 24.4713 45.1098 24.4713 44.5935C24.4713 44.0771 24.0529 43.6587 23.5366 43.6587H7.86037Z" fill="#415086"/>
</svg>
