<svg width="52" height="64" viewBox="0 0 52 64" fill="none" xmlns="http://www.w3.org/2000/svg">
<path id="Combined Shape" fill-rule="evenodd" clip-rule="evenodd" d="M35.3726 0.561272C35.08 0.25311 34.6788 0.0681152 34.2631 0.0681152H9.37109C4.77787 0.0681152 0.98645 3.84444 0.98645 8.43718V55.5081C0.98645 60.1013 4.77787 63.8776 9.37109 63.8776H43.156C47.7492 63.8776 51.5406 60.1013 51.5406 55.5081V18.1319C51.5406 17.7312 51.3556 17.3461 51.0937 17.0531L35.3726 0.561272ZM35.8195 5.50891L46.3466 16.5599H39.5033C37.4689 16.5599 35.8195 14.9261 35.8195 12.8917V5.50891ZM9.37109 60.795H43.156C46.0536 60.795 48.458 58.4062 48.458 55.5081V19.6425H39.5033C35.7581 19.6425 32.7369 16.6368 32.7369 12.8917V3.15071H9.37109C6.47349 3.15071 4.06905 5.55515 4.06905 8.43718V55.5081C4.06905 58.4062 6.48907 60.795 9.37109 60.795ZM40.5052 51.7016C40.5052 50.8535 39.8115 50.1603 38.9483 50.1603H13.5787C12.7312 50.1603 12.0374 50.8535 12.0374 51.7016C12.0374 52.5492 12.7312 53.2429 13.5787 53.2429H38.9639C39.8115 53.2429 40.5052 52.5492 40.5052 51.7016ZM24.7222 26.7478L18.3721 33.576C17.7864 34.1923 16.8157 34.2386 16.1682 33.6529C15.5519 33.0824 15.5056 32.096 16.0913 31.4797L25.1234 21.785C25.416 21.4769 25.8166 21.2919 26.2484 21.2919C26.6798 21.2919 27.0804 21.4769 27.3735 21.785L36.4056 31.4797C36.9913 32.096 36.945 33.0673 36.3282 33.6529C36.0356 33.9304 35.6501 34.0692 35.2801 34.0692C34.8643 34.0692 34.4632 33.8993 34.155 33.576L27.8048 26.7478V43.5789C27.8048 44.4264 27.1116 45.1202 26.2635 45.1202C25.416 45.1202 24.7222 44.4264 24.7222 43.5789V26.7478Z" fill="#565AA4"/>
</svg>
