<svg width="65" height="64" viewBox="0 0 65 64" fill="none" xmlns="http://www.w3.org/2000/svg">
<path id="Combined Shape Copy 2" fill-rule="evenodd" clip-rule="evenodd" d="M34.1912 34.1692L25.2394 25.2171L43.129 2.21543C43.581 1.63316 43.4773 0.798304 42.8977 0.348972C42.3181 -0.105678 41.4807 0.00599033 41.0313 0.580285L23.3441 23.3217L21.7505 21.7281C21.2321 21.2097 20.3893 21.2097 19.8708 21.7281C19.3524 22.2466 19.3524 23.0894 19.8708 23.6079L21.553 25.2901C17.7592 28.5361 12.6725 30.0377 7.70467 29.3269C6.9948 29.2179 6.35139 29.6912 6.21314 30.3824L0.895764 56.9702C0.871841 57.0928 0.865366 57.2166 0.875392 57.3383C0.899587 57.6424 1.02779 57.9397 1.26 58.1719C1.49322 58.4027 1.80123 58.5382 2.12126 58.5577C2.14783 58.5593 2.17448 58.5601 2.20118 58.5601C2.28892 58.5601 2.374 58.5521 2.46173 58.5362L29.0486 53.2186C29.7399 53.0804 30.2052 52.4263 30.1041 51.7271C29.3934 46.7517 30.8927 41.6708 34.1405 37.878L35.823 39.5605C36.0835 39.8184 36.4238 39.9487 36.7641 39.9487C37.1045 39.9487 37.4448 39.8184 37.7027 39.5605C38.2211 39.0421 38.2211 38.1992 37.7027 37.6808L36.0818 36.0598L64.1912 13.0606C64.7601 12.5926 64.8452 11.7551 64.3799 11.1888C63.912 10.6198 63.0745 10.5347 62.5082 11L34.1912 34.1692ZM6.24432 55.0672L14.1239 47.1874C14.9157 47.6559 15.8389 47.925 16.824 47.925C19.7565 47.925 22.1413 45.5401 22.1413 42.6075C22.1413 39.6749 19.7565 37.2899 16.824 37.2899C13.8914 37.2899 11.5066 39.6749 11.5066 42.6075C11.5066 43.5925 11.7757 44.5158 12.2442 45.3076L4.36462 53.1875L8.58203 32.0974C13.9545 32.5225 19.3656 30.7326 23.4377 27.1749L32.256 35.9934C28.6988 40.0633 26.9111 45.4599 27.3338 50.8497L6.24432 55.0672ZM14.1653 42.6075C14.1653 41.1425 15.359 39.9487 16.824 39.9487C18.2889 39.9487 19.4827 41.1425 19.4827 42.6075C19.4827 44.0725 18.2889 45.2662 16.824 45.2662C15.359 45.2662 14.1653 44.0725 14.1653 42.6075ZM15.4946 63.8776H59.4534C62.3354 63.8776 64.6804 61.5326 64.6804 58.6505C64.6804 56.4464 63.2872 54.4656 61.2108 53.7265L47.7419 48.9167C46.7422 48.5578 46.0695 47.6033 46.0695 46.5425C46.0695 45.5055 46.6917 44.5883 47.6515 44.2054L58.5255 39.8556C59.2088 39.5818 59.5411 38.8081 59.2673 38.1274C58.9961 37.4415 58.2118 37.1145 57.5391 37.3857L46.6651 41.7354C44.687 42.5251 43.4109 44.4128 43.4109 46.5425C43.4109 48.7226 44.7907 50.6848 46.8459 51.4186L60.3148 56.2284C61.3357 56.5953 62.0217 57.5657 62.0217 58.6505C62.0217 60.065 60.8678 61.2189 59.4534 61.2189H15.4946C14.7608 61.2189 14.1653 61.8144 14.1653 62.5483C14.1653 63.2821 14.7608 63.8776 15.4946 63.8776Z" fill="#00C86B"/>
</svg>
