<svg width="65" height="64" viewBox="0 0 65 64" fill="none" xmlns="http://www.w3.org/2000/svg">
<path id="Combined Shape" fill-rule="evenodd" clip-rule="evenodd" d="M61.6382 0.517858C62.2376 -0.0820549 63.2095 -0.0815432 63.8089 0.517858C64.4085 1.11726 64.4085 2.08914 63.8089 2.68855L22.1074 44.3901C21.8075 44.6899 21.4148 44.8398 21.0219 44.8398C20.6289 44.8398 20.236 44.6899 19.9364 44.3901L8.77318 33.2268C8.17378 32.6277 8.17378 31.6558 8.77318 31.0564C9.37232 30.4567 10.3445 30.4567 10.9439 31.0564L21.0216 41.1342L61.6382 0.517858ZM51.8165 22.4542C51.8165 21.6067 52.5039 20.9193 53.3515 20.9193C54.199 20.9193 54.8864 21.6067 54.8864 22.4542V62.3424C54.8864 63.19 54.199 63.8774 53.3515 63.8774H1.98406C1.1365 63.8774 0.449097 63.19 0.449097 62.3424V10.9753C0.449097 10.1277 1.1365 9.44032 1.98406 9.44032H41.0723C41.9201 9.44032 42.6073 10.1277 42.6073 10.9753C42.6073 11.8228 41.9201 12.5102 41.0723 12.5102H3.51901V60.8075H51.8165V22.4542Z" fill="#FFC107"/>
</svg>
