<?xml version="1.0" encoding="utf-8"?>
<svg width="65px" height="65px" viewBox="0 0 65 65" version="1.1" xmlns:xlink="http://www.w3.org/1999/xlink" xmlns="http://www.w3.org/2000/svg">
  <g id="Group-5">
    <path d="M17.8226 0L1.04839 0C0.469379 0 0 0.469379 0 1.04839L0 17.8226C0 18.4016 0.469379 18.871 1.04839 18.871L17.8226 18.871C18.4016 18.871 18.871 18.4016 18.871 17.8226L18.871 1.04839C18.871 0.469379 18.4016 0 17.8226 0ZM40.887 0L24.1128 0C23.5338 0 23.0645 0.469379 23.0645 1.04839L23.0645 17.8226C23.0645 18.4016 23.5338 18.871 24.1128 18.871L40.887 18.871C41.466 18.871 41.9354 18.4016 41.9354 17.8226L41.9354 1.04839C41.9354 0.469379 41.466 0 40.887 0ZM63.9517 0L47.1775 0C46.5985 0 46.1292 0.469379 46.1292 1.04839L46.1292 17.8226C46.1292 18.4016 46.5985 18.871 47.1775 18.871L63.9517 18.871C64.5307 18.871 65.0001 18.4016 65.0001 17.8226L65.0001 1.04839C65.0001 0.469379 64.5307 0 63.9517 0ZM16.7741 16.7742L2.09668 16.7742L2.09668 2.0968L16.7741 2.0968L16.7741 16.7742ZM39.8386 16.7742L25.1611 16.7742L25.1611 2.0968L39.8386 2.0968L39.8386 16.7742ZM62.9033 16.7742L48.2258 16.7742L48.2258 2.0968L62.9033 2.0968L62.9033 16.7742ZM9.43559 5.24192L4.19365 5.24192C3.61464 5.24192 3.14526 4.77254 3.14526 4.19353C3.14526 3.61452 3.61464 3.14514 4.19365 3.14514L9.43559 3.14514C10.0146 3.14514 10.484 3.61452 10.484 4.19353C10.484 4.77254 10.0146 5.24192 9.43559 5.24192ZM13.629 5.24192L12.5806 5.24192C12.0016 5.24192 11.5322 4.77254 11.5322 4.19353C11.5322 3.61452 12.0016 3.14514 12.5806 3.14514L13.629 3.14514C14.208 3.14514 14.6774 3.61452 14.6774 4.19353C14.6774 4.77254 14.208 5.24192 13.629 5.24192ZM17.8226 23.0645L1.04839 23.0645C0.469379 23.0645 0 23.5339 0 24.1129L0 40.8871C0 41.4661 0.469379 41.9355 1.04839 41.9355L17.8226 41.9355C18.4016 41.9355 18.871 41.4661 18.871 40.8871L18.871 24.1129C18.871 23.5339 18.4016 23.0645 17.8226 23.0645ZM40.887 23.0645L24.1128 23.0645C23.5338 23.0645 23.0645 23.5339 23.0645 24.1129L23.0645 40.8871C23.0645 41.4661 23.5338 41.9355 24.1128 41.9355L40.887 41.9355C41.466 41.9355 41.9354 41.4661 41.9354 40.8871L41.9354 24.1129C41.9354 23.5339 41.466 23.0645 40.887 23.0645ZM63.9517 23.0645L47.1775 23.0645C46.5985 23.0645 46.1292 23.5339 46.1292 24.1129L46.1292 40.8871C46.1292 41.4661 46.5985 41.9355 47.1775 41.9355L63.9517 41.9355C64.5307 41.9355 65.0001 41.4661 65.0001 40.8871L65.0001 24.1129C65.0001 23.5339 64.5307 23.0645 63.9517 23.0645ZM16.7741 39.8387L2.09668 39.8387L2.09668 25.1613L16.7741 25.1613L16.7741 39.8387ZM39.8386 39.8387L25.1611 39.8387L25.1611 25.1613L39.8386 25.1613L39.8386 39.8387ZM62.9033 39.8387L48.2258 39.8387L48.2258 25.1613L62.9033 25.1613L62.9033 39.8387ZM17.8226 46.129L1.04839 46.129C0.469379 46.129 0 46.5984 0 47.1774L0 63.9516C0 64.5306 0.469379 65 1.04839 65L17.8226 65C18.4016 65 18.871 64.5306 18.871 63.9516L18.871 47.1774C18.871 46.5984 18.4016 46.129 17.8226 46.129ZM40.887 46.129L24.1128 46.129C23.5338 46.129 23.0645 46.5984 23.0645 47.1774L23.0645 63.9516C23.0645 64.5306 23.5338 65 24.1128 65L40.887 65C41.466 65 41.9354 64.5306 41.9354 63.9516L41.9354 47.1774C41.9354 46.5984 41.466 46.129 40.887 46.129ZM63.9517 46.129L47.1775 46.129C46.5985 46.129 46.1292 46.5984 46.1292 47.1774L46.1292 63.9516C46.1292 64.5306 46.5985 65 47.1775 65L63.9517 65C64.5307 65 65.0001 64.5306 65.0001 63.9516L65.0001 47.1774C65.0001 46.5984 64.5307 46.129 63.9517 46.129ZM16.7741 62.9033L2.09668 62.9033L2.09668 48.2258L16.7741 48.2258L16.7741 62.9033ZM39.8386 62.9033L25.1611 62.9033L25.1611 48.2258L39.8386 48.2258L39.8386 62.9033ZM62.9033 62.9033L48.2258 62.9033L48.2258 48.2258L62.9033 48.2258L62.9033 62.9033Z" id="Combined-Shape" fill="#544837" fill-rule="evenodd" stroke="none" />
  </g>
</svg>