<?xml version="1.0" encoding="utf-8"?>
<svg width="69.85889px" height="69.89783px" viewBox="0 0 69.85889 69.89783" version="1.1" xmlns:xlink="http://www.w3.org/1999/xlink" xmlns="http://www.w3.org/2000/svg">
  <g id="Group-9">
    <g id="intersection">
      <path d="M20.9597 69.8978C26.122 69.8955 31.1002 67.9781 34.9306 64.5166C41.3703 70.3048 50.7092 71.5305 58.4252 67.6006C66.1411 63.6707 70.6412 55.3965 69.7464 46.7841C68.8516 38.1711 62.7473 30.9986 54.3884 28.7384C57.8868 19.9906 55.1178 9.98374 47.6196 4.2785C40.1219 -1.42617 29.7387 -1.42617 22.241 4.2785C14.7434 9.98374 11.9738 19.9906 15.4727 28.7384C5.33452 31.4824 -1.2024 41.3114 0.185252 51.7219C1.5729 62.1324 10.4571 69.9046 20.9597 69.8978ZM30.2737 48.9415C30.2709 46.4487 30.7711 43.9815 31.7449 41.6871C33.8534 42.0453 36.0074 42.0453 38.1158 41.6871C40.9059 48.2678 39.6666 55.8667 34.9307 61.2206C31.9314 57.8336 30.2748 53.466 30.2737 48.9415ZM36.9937 39.511C35.6231 39.6725 34.2383 39.6725 32.8677 39.511C33.464 38.4986 34.1547 37.5447 34.9307 36.6618C35.7061 37.5447 36.3968 38.4986 36.9937 39.511ZM36.5747 35.0183C40.4932 31.4995 45.7323 29.8287 50.9646 30.4302C48.4269 34.7307 44.2725 37.8351 39.429 39.0511C38.64 37.5975 37.6815 36.2423 36.5747 35.0138L36.5747 35.0183ZM30.4317 39.0602C25.5871 37.8426 21.4321 34.7341 18.8967 30.4302C24.1273 29.8265 29.3664 31.4932 33.2866 35.0087C32.1786 36.2406 31.2207 37.5992 30.4317 39.0557L30.4317 39.0602ZM67.5294 48.9415C67.5419 56.2709 63.2477 62.9243 56.5635 65.9321C49.8788 68.9399 42.0514 67.7405 36.5747 62.8692C41.8837 56.9712 43.3743 48.5663 40.4165 41.2028C45.9745 39.6867 50.6673 35.9569 53.3988 30.8849C61.69 32.9548 67.5129 40.3956 67.5294 48.9415L67.5294 48.9415ZM34.9306 2.37183C41.1759 2.37183 47.0056 5.50186 50.4563 10.7074C53.9064 15.913 54.5192 22.5016 52.0867 28.254C45.8869 27.2387 39.5637 29.1232 34.9306 33.3663C30.2975 29.1232 23.9744 27.2387 17.774 28.254C15.342 22.5016 15.9543 15.913 19.4049 10.7074C22.8556 5.50186 28.6853 2.37183 34.9306 2.37183L34.9306 2.37183ZM16.4607 30.8849C19.1928 35.9569 23.8856 39.6867 29.4436 41.2028C26.4852 48.5663 27.9757 56.9712 33.2853 62.8692C27.5022 67.9968 19.1513 69.0161 12.3051 65.429C5.45837 61.8425 1.54213 54.3972 2.46534 46.7233C3.38854 39.0494 8.95905 32.7456 16.4607 30.8849Z" id="Shape" fill="#544837" stroke="none" />
    </g>
  </g>
</svg>