<?xml version="1.0" encoding="utf-8"?>
<svg width="68.29248px" height="70px" viewBox="0 0 68.29248 70" version="1.1" xmlns:xlink="http://www.w3.org/1999/xlink" xmlns="http://www.w3.org/2000/svg">
  <g id="Group-8">
    <path d="M55.7886 2.55867C56.3028 8.84878 60.246 14.2791 66.0797 16.7309C67.5484 17.3483 68.4309 18.8202 68.2749 20.393C67.9194 23.9823 66.5639 33.4047 61.6669 43.3643C55.7414 55.4153 46.7506 64.3191 34.9447 69.8268C34.4493 70.0575 33.8434 70.0581 33.348 69.8263C21.5421 64.3186 12.5513 55.4148 6.62527 43.3627C1.72877 33.4031 0.373279 23.9807 0.017784 20.3919C-0.137711 18.818 0.737889 17.3494 2.19686 16.7379C8.03009 14.293 11.9791 8.86961 12.5025 2.58377C12.6247 1.11084 13.8295 0 15.3046 0L52.9886 0C54.4417 0 55.6712 1.12366 55.7886 2.55867ZM59.8177 42.4618C64.5672 32.8028 65.8814 23.6699 66.2262 20.1916C66.2927 19.5182 65.912 18.8864 65.2793 18.6204C58.7356 15.87 54.3126 9.77965 53.7362 2.72529C53.7051 2.34718 53.3769 2.05078 52.9887 2.05078L15.3047 2.05078C14.9101 2.05078 14.5878 2.35306 14.5546 2.7536C13.9674 9.80368 9.53849 15.8861 2.99535 18.6284C2.37337 18.8891 2.00072 19.5171 2.0672 20.1911C2.41198 23.6689 3.72564 32.8012 8.47469 42.4607C14.1765 54.0567 22.813 62.6272 34.147 67.9341C45.4794 62.6272 54.1163 54.0572 59.8177 42.4618ZM51.5124 6.20202C52.9301 12.1819 56.8561 17.2917 62.284 20.2205C62.9531 20.5815 63.3322 21.3335 63.2277 22.0907C62.3649 28.32 58.9317 38.0409 57.3499 41.258C52.2813 51.5669 44.7623 59.3722 35.0026 64.4564C34.5366 64.6988 33.7527 64.6973 33.2905 64.4564C23.5302 59.3722 16.0117 51.5669 10.9426 41.257C9.15118 37.6126 5.97049 29.1841 5.06379 22.0795C4.96621 21.3126 5.33671 20.5826 6.0091 20.2199C11.4359 17.2917 15.3624 12.1824 16.7806 6.20202C16.9774 5.36943 17.7168 4.78784 18.5774 4.78784L49.7151 4.78784C50.5757 4.78784 51.3151 5.36943 51.5124 6.20202ZM35.176 30.4231L59.1528 30.4231C60.0408 27.4874 60.8102 24.4417 61.1684 21.9503C55.3448 18.7588 51.1218 13.2665 49.5486 6.83862L35.176 6.83862L35.176 13.1603C35.176 13.7264 34.7154 14.1856 34.1465 14.1856C33.5781 14.1856 33.117 13.7264 33.117 13.1603L33.117 6.83862L18.7444 6.83862C17.1707 13.2671 12.9471 18.7604 7.12354 21.9508C7.48439 24.7007 8.19431 27.6508 9.02594 30.4231L33.117 30.4231L33.117 17.9315C33.117 17.3649 33.5781 16.9061 34.1465 16.9061C34.7154 16.9061 35.176 17.3649 35.176 17.9315L35.176 30.4231ZM35.1758 62.0334C43.9923 57.15 50.8261 49.8633 55.5006 40.3566C56.2438 38.8441 57.41 35.847 58.5086 32.4739L35.1758 32.4739L35.1758 48.777C35.1758 49.3431 34.7152 49.8024 34.1463 49.8024C33.5779 49.8024 33.1168 49.3431 33.1168 48.777L33.1168 32.4739L9.67236 32.4739C10.7555 35.7524 11.9372 38.6161 12.7919 40.3549C17.467 49.8633 24.3007 57.1505 33.1168 62.0334L33.1168 53.6428C33.1168 53.0767 33.5779 52.6174 34.1463 52.6174C34.7152 52.6174 35.1758 53.0762 35.1758 53.6428L35.1758 62.0334Z" id="Combined-Shape" fill="#544837" fill-rule="evenodd" stroke="none" />
  </g>
</svg>