<svg width="202" height="130" viewBox="0 0 202 130" fill="none" xmlns="http://www.w3.org/2000/svg">
<path d="M159.973 68.5733C156.975 68.4719 153.957 68.2893 150.938 68.046C150.897 68.0865 149.205 61.7991 151.897 58.1078C157.22 50.9483 152.488 45.5533 150.959 42.227C148.572 37.5622 148.96 32.1875 153.936 31.5587C159.443 30.7474 159.443 21.5394 157.505 13.3658C156.282 9.41083 159.565 4.09696 163.257 2.55553C167.03 0.892408 171.19 3.00173 173.291 10.9117C176.126 20.0386 169.926 26.4071 167.907 31.3559C165.928 36.2236 172.128 39.2861 167.927 43.8699C164.399 47.906 159.749 51.0497 162.053 55.39C164.419 59.6695 164.378 63.3811 159.973 68.5733Z" fill="url(#paint0_linear_0_6212)"/>
<path d="M155.894 69.4049C155.853 69.1412 157.322 55.1669 160.626 41.9228C161.054 39.7324 161.564 37.5013 162.033 35.3717C164.684 23.4257 167.193 12.1286 161.849 0.466489L162.033 0.385361C167.417 12.1083 164.909 23.4257 162.237 35.4123C161.768 37.5622 161.258 39.7729 160.83 41.9837C157.424 55.5726 156.098 69.3237 156.098 69.4049H155.894Z" fill="#BEB8F2"/>
<path d="M164.46 24.2978L164.297 24.1761C167.193 20.1603 170.599 14.5422 172.414 11.5404C173.903 9.08632 173.903 9.08632 174.005 9.08632V9.18773L174.066 9.26886C173.984 9.34998 173.372 10.3641 172.597 11.6418C170.762 14.6639 167.356 20.282 164.46 24.2978Z" fill="#BEB8F2"/>
<path d="M164.827 19.1665C162.563 11.0537 156.995 8.94435 156.934 8.94435V8.86322L156.853 8.76181C156.914 8.72124 156.975 8.74153 157.036 8.76181C158.219 9.12688 163.012 11.9461 165.011 19.1259L164.827 19.1665Z" fill="#BEB8F2"/>
<path d="M158.892 50.8063H158.688C158.749 42.3893 152.223 35.25 149.409 32.5728C149.266 32.4308 149.205 32.3903 149.184 32.3497L149.347 32.228C149.368 32.2483 149.449 32.3294 149.551 32.4106C152.366 35.1283 158.953 42.3082 158.892 50.8063Z" fill="#BEB8F2"/>
<path d="M159.769 46.5877L159.586 46.5065C162.502 40.4219 169.926 39.1847 170.048 39.1847L170.028 39.2861L169.926 39.3064L170.028 39.2861V39.3876C169.966 39.3876 162.624 40.6045 159.769 46.5877Z" fill="#BEB8F2"/>
<path d="M156.139 67.1535C156.016 65.4701 155.078 62.651 151.387 58.8988C151.163 58.6757 151.163 58.6757 151.183 58.6351H151.285L151.366 58.5743C151.387 58.5946 151.448 58.6554 151.53 58.7568C155.282 62.5698 156.22 65.4296 156.343 67.1535H156.139Z" fill="#BEB8F2"/>
<path d="M156.751 63.8679L156.547 63.8273C157.097 60.7039 161.074 58.0469 163.399 56.7286C163.481 56.6881 163.522 56.6678 163.542 56.6475L163.665 56.83C163.644 56.8503 163.603 56.8706 163.522 56.9112C161.197 58.2092 157.281 60.8459 156.751 63.8679Z" fill="#BEB8F2"/>
<path opacity="0.19" d="M36.2738 95.7624C36.2534 95.3159 25.9932 80.4367 39.3947 79.4826C62.8728 77.8181 74.6016 76.9858 85.4533 75.2198C118.049 69.9015 147.647 74.55 175.49 75.1589C180.732 75.2807 192.033 74.347 197.989 81.411C201.192 85.2069 202.558 90.8501 201.477 95.7827C200.478 100.37 197.377 104.308 173.593 116.934C160.967 123.633 154.97 127.348 145.913 128.667C139.059 129.662 135.245 128.87 133.409 128.383C124.883 126.089 120.395 119.959 116.825 116.163C102.588 101.02 77.2533 96.0872 61.8121 96.5744C49.3693 96.9601 36.4777 103.172 36.2738 95.7624Z" fill="#6165D7"/>
<path opacity="0.32" d="M157.057 70.9868C163.072 73.2 169.638 76.1372 169.332 78.702C169.006 81.4944 160.768 81.3703 147.882 84.8245C127.371 90.3472 126.412 96.5937 116.095 95.7043C104.229 94.6908 104.453 86.3344 90.364 84.0385C85.0628 83.1698 77.4779 84.3281 62.2879 86.6033C52.0525 88.1546 44.0598 89.8921 39.2887 85.2175C39.0441 84.99 36.6585 82.632 36.7809 80.9979C37.209 76.0338 61.2684 71.2971 157.057 70.9868Z" fill="#6165D7"/>
<path d="M170.587 75.7852C170.526 76.2547 170.3 76.6426 169.992 76.7651C169.233 77.0714 168.247 77.1734 167.098 77.1734C165.928 77.1734 164.922 77.0509 164.163 76.7447C163.875 76.6222 163.65 76.2547 163.567 75.8056L161.515 60.9836H172.312L170.587 75.7852Z" fill="url(#paint1_linear_0_6212)"/>
<ellipse cx="166.913" cy="60.9223" rx="5.39842" ry="0.85747" fill="url(#paint2_linear_0_6212)"/>
<path d="M161.782 60.7182C162.069 60.9019 162.685 61.4736 163.526 61.5348C169.048 61.9635 171.347 60.8407 171.552 60.6773C171.593 60.6569 171.388 58.3091 171.408 58.2887C171.244 57.4312 171.285 56.5125 171.675 55.5938C172.866 52.8784 180.399 51.5922 178.305 46.427C176.766 42.65 171.306 41.3434 178.121 35.6882C184.935 30.0126 187.234 17.6609 179.578 16.3543C175.185 15.5989 173.523 22.8466 168.904 24.0919C164.512 25.2761 162.931 29.0734 164.286 33.8916C165.641 38.7098 163.034 39.5672 159.75 41.9763C155.808 44.855 159.729 49.3056 161.474 51.1635C162.87 52.6539 164.306 58.8807 161.782 60.7182Z" fill="url(#paint3_linear_0_6212)"/>
<path d="M167.221 61.1265C165.148 44.855 171.039 27.6647 182.575 16.2726L182.718 16.4155C171.224 27.7668 165.374 44.8958 167.426 61.1061L167.221 61.1265Z" fill="#FCFDFE"/>
<path d="M166.872 52.2047C164.799 46.0799 157.923 43.0788 157.861 43.0584L157.943 42.8746C158.005 42.895 164.963 45.937 167.057 52.1435L166.872 52.2047Z" fill="#FCFDFE"/>
<path d="M167.118 58.1049L166.934 58.0641C168.042 51.6331 179.085 47.0803 179.208 47.0395L179.291 47.2232C179.167 47.2641 168.206 51.776 167.118 58.1049Z" fill="#FCFDFE"/>
<path d="M170.177 36.3619L169.972 36.3415C170.423 31.1763 165.107 25.2148 165.045 25.1536L165.189 25.0311C165.251 25.0923 170.628 31.0946 170.177 36.3619Z" fill="#FCFDFE"/>
<path d="M174.569 26.8889L174.426 26.7664C178.223 22.2341 186.187 21.3766 186.269 21.3562L186.29 21.5604C186.208 21.5604 178.305 22.4178 174.569 26.8889Z" fill="#FCFDFE"/>
<path d="M118.029 46.4226L87.1863 46.5851C86.3522 46.5851 85.6604 45.9351 85.6401 45.1429L84.928 23.0226C84.9077 22.2101 85.5587 21.5804 86.3928 21.6008L117.297 22.332C118.07 22.3523 118.721 22.982 118.741 23.7539L119.413 45.0008C119.413 45.7929 118.802 46.4226 118.029 46.4226Z" fill="#D8DEE8"/>
<path d="M118.578 46.2398L87.7356 46.4023C86.9015 46.4023 86.2097 45.7523 86.1894 44.9601L85.4773 22.8398C85.457 22.0273 86.108 21.3976 86.9422 21.4179L117.846 22.1492C118.619 22.1695 119.27 22.7992 119.291 23.5711L119.962 44.8179C119.962 45.6101 119.352 46.2398 118.578 46.2398Z" fill="#F4F7FA"/>
<path d="M119.962 38.1961L85.9453 38.0539L85.9656 38.6836L119.962 38.8258V38.1961Z" fill="white"/>
<path d="M105.883 21.7226L106.412 38.582H107.043L106.514 21.7226H105.883Z" fill="white"/>
<path d="M102.262 41.9133H90.2381C90.177 41.9133 90.1363 41.8726 90.1363 41.8117L90.0956 40.7351C90.0956 40.6742 90.1363 40.6336 90.1974 40.6336L102.221 40.6539C102.282 40.6539 102.323 40.6945 102.323 40.7554L102.364 41.8117C102.364 41.8726 102.323 41.9133 102.262 41.9133Z" fill="#C281E8"/>
<path d="M105.537 44.2898L90.2991 44.3304C90.2381 44.3304 90.1974 44.2898 90.1974 44.2289L90.1567 43.1523C90.1567 43.0914 90.1974 43.0507 90.2584 43.0507L105.497 43.0304C105.558 43.0304 105.598 43.0711 105.598 43.132L105.639 44.1882C105.639 44.2492 105.598 44.2898 105.537 44.2898Z" fill="#D8DEE8"/>
<path d="M117.643 27.7758L108.426 27.6133L108.325 24.0179L117.541 24.2211L117.643 27.7758Z" fill="#D8DEE8"/>
<path d="M117.907 36.3273L108.711 36.2664L108.487 29.1367L117.683 29.2789L117.907 36.3273Z" fill="#D8DEE8"/>
<path d="M95.7311 27.5929C97.1756 27.6132 98.376 28.7711 98.437 30.1726C98.4574 30.5586 98.376 30.9445 98.2132 31.2695L101.306 32.6914C101.652 31.9398 101.835 31.107 101.794 30.2132C101.692 27.0039 98.9456 24.3429 95.6294 24.282H95.6091L95.7108 27.5726C95.7108 27.5929 95.7108 27.5929 95.7311 27.5929Z" fill="white"/>
<path d="M98.1929 31.2695C97.8063 32.1226 96.9315 32.6914 95.8939 32.6914C94.4494 32.6711 93.2287 31.5132 93.188 30.1117C93.1473 28.7101 94.2663 27.5929 95.7108 27.5929L95.6091 24.3023C92.2928 24.2414 89.6683 26.8211 89.7701 30.0711C89.8718 33.3211 92.6794 35.982 96.016 36.0023C98.3963 36.0226 100.41 34.6617 101.306 32.7117L98.1929 31.2695Z" fill="url(#paint4_linear_0_6212)"/>
<path d="M160.672 74.6976C160.713 76.1195 159.655 77.3179 158.292 77.3789L40.2913 83.1679C36.8937 83.3711 35.3678 81.5632 35.3068 79.9179L33.1096 15.7304L33.5368 9.79918C33.4758 8.15387 34.2285 5.02574 36.0392 5.10699L156.298 10.0226C157.661 10.0836 158.8 11.282 158.841 12.7039L160.672 74.6976Z" fill="#D8DEE8"/>
<path d="M159.044 19.407L158.841 12.7242C158.8 11.3023 157.661 10.0836 157.803 9.53512L37.6465 4.72105C33.4351 4.90387 32.7434 7.34137 32.8044 8.98668L33.1096 15.7304L35.3678 15.3445L159.044 19.407Z" fill="#F8924E"/>
<path d="M164.212 74.9414C164.253 76.3633 163.174 77.6023 161.811 77.6633L41.0034 83.1273C39.1724 83.2086 37.6465 81.9086 37.5855 80.2633L35.3679 15.3648L36.0189 7.76794C35.9579 6.10231 36.7106 5.18825 38.5417 5.2695L159.797 9.59606C161.16 9.657 162.32 10.8758 162.361 12.3179L164.212 74.9414Z" fill="white"/>
<path d="M162.564 19.0617L162.361 12.3179C162.32 10.8757 161.16 9.657 159.797 9.59606L38.3382 4.59919C36.5071 4.51794 35.0423 5.83825 35.1033 7.50387L35.3678 15.3445L162.564 19.0617Z" fill="#FFC244"/>
<path d="M43.4448 10.3476C43.4651 11.1804 42.7531 11.8304 41.8579 11.7898C40.9424 11.7695 40.1896 11.0586 40.1692 10.2257C40.1489 9.39293 40.861 8.74293 41.7562 8.78356C42.6513 8.82418 43.4041 9.51481 43.4448 10.3476Z" fill="#9C73F4"/>
<path d="M50.4841 10.5914C50.5045 11.4039 49.8127 12.0539 48.9176 12.0336C48.0224 12.0133 47.2696 11.3023 47.2493 10.4898C47.2289 9.657 47.9207 9.02731 48.8158 9.04763C49.711 9.06794 50.4638 9.77888 50.4841 10.5914Z" fill="#9C73F4"/>
<path d="M57.4218 10.8351C57.4421 11.6476 56.7707 12.2773 55.8755 12.257C55.0007 12.2367 54.2683 11.5461 54.2276 10.7336C54.2073 9.92106 54.899 9.27106 55.7738 9.31168C56.6487 9.33199 57.3811 10.0226 57.4218 10.8351Z" fill="#9C73F4"/>
<path fill-rule="evenodd" clip-rule="evenodd" d="M85.518 45.0211C85.5587 45.9148 86.3318 46.6461 87.2677 46.6461L118.131 46.5039C118.558 46.5039 118.965 46.3414 119.25 46.0367C119.535 45.732 119.697 45.3257 119.677 44.8992L119.006 23.6523C118.985 22.7789 118.253 22.0476 117.378 22.0273L86.4742 21.2961C86.0063 21.2757 85.5791 21.4382 85.2536 21.7632C84.9484 22.0679 84.7856 22.4742 84.806 22.9007L85.518 45.0211ZM85.5384 22.0476C85.7622 21.8039 86.0877 21.682 86.4336 21.682C86.4336 21.682 86.4539 21.682 86.4539 21.7023L117.358 22.4336C118.029 22.4539 118.599 23.0023 118.619 23.6726L119.291 44.9195C119.291 45.2445 119.189 45.5492 118.965 45.7726C118.741 45.9961 118.456 46.1179 118.131 46.1179L87.288 46.2804C86.5556 46.2804 85.9453 45.7117 85.9249 45.0211L85.2129 22.9007C85.1925 22.5757 85.3146 22.2711 85.5384 22.0476Z" fill="#F4F7FA"/>
<path d="M153.633 46.2601L125.414 46.4023C124.662 46.4023 124.011 45.7929 123.99 45.0211L123.339 23.8961C123.319 23.1242 123.909 22.5148 124.682 22.5351L152.941 23.2054C153.653 23.2257 154.243 23.8351 154.263 24.5664L154.874 44.8992C154.894 45.6507 154.324 46.2601 153.633 46.2601Z" fill="#D8DEE8"/>
<path d="M154.121 46.057L125.903 46.1992C125.15 46.1992 124.499 45.5898 124.478 44.8179L123.827 23.6929C123.807 22.9211 124.397 22.3117 125.17 22.332L153.429 23.0023C154.141 23.0226 154.731 23.632 154.752 24.3632L155.362 44.6961C155.382 45.4476 154.833 46.057 154.121 46.057Z" fill="#F4F7FA"/>
<path d="M124.275 38.2164L124.295 38.8257L155.464 38.9476L155.443 38.3585L124.275 38.2164Z" fill="white"/>
<path d="M135.811 41.9132H128.019C127.957 41.9132 127.917 41.8726 127.917 41.8117L127.876 40.7757C127.876 40.7148 127.917 40.6742 127.957 40.6742L135.75 40.6945C135.79 40.6945 135.851 40.7351 135.851 40.796L135.892 41.8117C135.912 41.8726 135.872 41.9132 135.811 41.9132Z" fill="#FFC244"/>
<path d="M145.271 44.1882L128.08 44.2289C128.019 44.2289 127.978 44.1882 127.978 44.1273L127.937 43.0914C127.937 43.0304 127.978 42.9898 128.019 42.9898L145.21 42.9695C145.251 42.9695 145.291 43.0101 145.312 43.0711L145.352 44.0867C145.373 44.1476 145.332 44.1882 145.271 44.1882Z" fill="#D8DEE8"/>
<path d="M128.425 35.1289C128.385 35.1289 128.324 35.1086 128.283 35.0882C128.141 35.007 128.1 34.8242 128.181 34.682C130.195 31.1882 132.474 29.2789 134.997 29.0554C136.584 28.9132 137.825 29.482 139.005 30.0304C140.083 30.5382 141.182 31.0461 142.606 31.0867C145.251 31.1476 147.936 29.5226 150.581 26.2523C150.683 26.1304 150.866 26.1101 150.988 26.2117C151.11 26.3132 151.13 26.4961 151.029 26.6179C148.262 30.0507 145.413 31.757 142.585 31.6757C141.039 31.6351 139.859 31.0867 138.74 30.5586C137.581 30.0101 136.462 29.5023 135.037 29.6242C132.718 29.8476 130.582 31.6351 128.67 34.9664C128.608 35.0882 128.527 35.1289 128.425 35.1289Z" fill="url(#paint5_linear_0_6212)"/>
<path d="M144.091 31.4117C144.111 32.0617 143.623 32.5695 142.992 32.5695C142.362 32.5695 141.833 32.0414 141.812 31.3914C141.792 30.7414 142.28 30.2336 142.911 30.2336C143.562 30.2336 144.091 30.7617 144.091 31.4117Z" fill="white"/>
<path fill-rule="evenodd" clip-rule="evenodd" d="M141.69 31.3914C141.71 32.1023 142.301 32.7117 143.013 32.7117C143.358 32.7117 143.664 32.5898 143.887 32.3461C144.132 32.1023 144.274 31.7773 144.254 31.4117C144.233 30.7007 143.643 30.1117 142.952 30.0914H142.931C142.585 30.0914 142.28 30.2132 142.056 30.457C141.812 30.7007 141.67 31.0257 141.69 31.3914ZM142.26 30.6398C142.423 30.4773 142.667 30.3757 142.911 30.3757C143.481 30.3961 143.928 30.8429 143.948 31.3914C143.948 31.6757 143.847 31.9398 143.664 32.1226C143.481 32.3054 143.257 32.407 142.992 32.407C142.443 32.407 141.995 31.9398 141.975 31.3711C141.975 31.0867 142.077 30.8226 142.26 30.6398Z" fill="#A67FF7"/>
<path d="M137.621 26.3539L127.673 26.1507L127.612 24.4242L137.581 24.6476L137.621 26.3539Z" fill="#D8DEE8"/>
<path d="M148.608 34.0726L144.681 34.032L144.661 32.732L148.567 32.7929L148.608 34.0726Z" fill="#C281E8"/>
<path d="M79.8215 75.3273L46.0083 76.607C45.0928 76.6476 44.3197 75.9976 44.2993 75.1445L43.5059 51.9882C43.4855 51.1554 44.1976 50.4648 45.1131 50.4445L78.9874 50.1398C79.8418 50.1398 80.5336 50.7898 80.5743 51.582L81.3067 73.7836C81.327 74.6164 80.6556 75.307 79.8215 75.3273Z" fill="#D8DEE8"/>
<path d="M80.3097 75.1242L46.4965 76.4039C45.581 76.4445 44.8079 75.7945 44.7875 74.9414L43.9941 51.7851C43.9737 50.9523 44.6858 50.2617 45.6013 50.2414L79.4756 49.9367C80.3301 49.9367 81.0218 50.5867 81.0625 51.3789L81.7949 73.5804C81.8152 74.4132 81.1642 75.1039 80.3097 75.1242Z" fill="#F4F7FA"/>
<path d="M81.7949 66.3289L44.5231 67.3648L44.5434 68.0351L81.8153 66.9586L81.7949 66.3289Z" fill="white"/>
<path d="M78.4177 59.7882L48.4701 60.3976L48.2056 52.9632L78.1736 52.5976L78.4177 59.7882Z" fill="#D8DEE8"/>
<path d="M78.5398 63.6882L48.5921 64.4398L48.5107 61.8195L78.4584 61.1695L78.5398 63.6882Z" fill="#D8DEE8"/>
<path d="M58.3577 70.9601L48.8566 71.2648C48.7956 71.2648 48.7345 71.2242 48.7345 71.1632L48.6938 70.0257C48.6938 69.9648 48.7345 69.9242 48.7956 69.9242L58.2966 69.6398C58.3577 69.6398 58.3984 69.6804 58.4187 69.7413L58.4594 70.8585C58.4594 70.8992 58.4187 70.9601 58.3577 70.9601Z" fill="url(#paint6_linear_0_6212)"/>
<path d="M67.2687 73.1539L48.9583 73.8039C48.8973 73.8039 48.8362 73.7632 48.8362 73.7023L48.7955 72.5648C48.7955 72.5039 48.8362 72.4632 48.8973 72.4632L67.2077 71.8539C67.2687 71.8539 67.3094 71.8945 67.3094 71.9554L67.3501 73.0523C67.3704 73.1132 67.3297 73.1539 67.2687 73.1539Z" fill="#D8DEE8"/>
<path d="M80.3097 45.1429C80.3301 45.9554 79.679 46.6054 78.8245 46.6054L44.9503 46.7679C44.0348 46.7679 43.2617 46.0976 43.2413 45.2445L42.4479 22.0476C42.4275 21.2148 43.1396 20.5445 44.0551 20.5648L78.0108 21.3773C78.8652 21.3976 79.5773 22.0679 79.5977 22.8804L80.3097 45.1429Z" fill="#D8DEE8"/>
<path d="M80.859 44.9601C80.8794 45.7726 80.2283 46.4226 79.3739 46.4226L45.4996 46.5851C44.5841 46.5851 43.811 45.9148 43.7906 45.0617L42.9972 21.8648C42.9768 21.032 43.6889 20.3617 44.6044 20.382L78.5601 21.1945C79.4146 21.2148 80.1266 21.8851 80.147 22.6976L80.859 44.9601Z" fill="#F4F7FA"/>
<path d="M80.859 38.0335L43.5058 37.871L43.5261 38.5414L80.8794 38.6835L80.859 38.0335Z" fill="white"/>
<path d="M60.8804 20.6257L61.4704 38.3992H62.1824L61.5924 20.646L60.8804 20.6257Z" fill="white"/>
<path d="M58.0525 31.3304L47.4731 31.2086L47.1883 22.6976L57.788 22.9414L58.0525 31.3304Z" fill="#D8DEE8"/>
<path d="M58.2152 35.9211L47.6358 35.8398L47.5341 32.8539L58.1135 32.9554L58.2152 35.9211Z" fill="#D8DEE8"/>
<path d="M53.0883 41.8929H47.88C47.8189 41.8929 47.7579 41.8523 47.7579 41.7914L47.7172 40.6539C47.7172 40.5929 47.7579 40.5523 47.8189 40.5523H53.0272C53.0883 40.5523 53.1493 40.5929 53.1493 40.6539L53.19 41.771C53.19 41.8523 53.1493 41.8929 53.0883 41.8929Z" fill="url(#paint7_linear_0_6212)"/>
<path d="M60.7583 44.4117L47.9613 44.4523C47.9003 44.4523 47.8393 44.4117 47.8393 44.3507L47.7986 43.2132C47.7986 43.1523 47.8393 43.1117 47.9003 43.1117H60.6972C60.7583 43.1117 60.799 43.1523 60.799 43.2132L60.8397 44.3101C60.86 44.371 60.799 44.4117 60.7583 44.4117Z" fill="#D8DEE8"/>
<path d="M68.0011 35.7789L65.0511 35.7586L64.6238 23.0836L67.5942 23.1445L68.0011 35.7789Z" fill="white"/>
<path d="M72.9042 35.8195L69.9745 35.7992L69.5676 23.1851L72.4769 23.2461L72.9042 35.8195Z" fill="white"/>
<path d="M77.7463 35.8398L74.8573 35.8195L74.4504 23.2867L77.3394 23.3476L77.7463 35.8398Z" fill="white"/>
<path d="M68.0011 35.7789L65.0511 35.7586L64.8273 29.1773L67.7773 29.2179L68.0011 35.7789Z" fill="url(#paint8_linear_0_6212)"/>
<path d="M72.9042 35.8195L69.9745 35.7992L69.6694 26.1101L72.5787 26.171L72.9042 35.8195Z" fill="url(#paint9_linear_0_6212)"/>
<path d="M77.7463 35.8398L74.8573 35.8195L74.5725 27.3085L77.4615 27.3492L77.7463 35.8398Z" fill="url(#paint10_linear_0_6212)"/>
<path d="M154.406 72.5039L126.248 73.5804C125.496 73.6007 124.845 73.0117 124.824 72.2398L124.173 51.1554C124.153 50.3835 124.743 49.7539 125.516 49.7539L153.734 49.4898C154.446 49.4898 155.036 50.0789 155.057 50.8101L155.667 71.1226C155.667 71.8539 155.118 72.4632 154.406 72.5039Z" fill="#D8DEE8"/>
<path d="M154.914 72.3007L126.757 73.3773C126.004 73.3976 125.353 72.8085 125.333 72.0367L124.682 50.9523C124.662 50.1804 125.252 49.5507 126.025 49.5507L154.243 49.2867C154.955 49.2867 155.545 49.8757 155.565 50.607L156.176 70.9195C156.176 71.6507 155.626 72.2601 154.914 72.3007Z" fill="#F4F7FA"/>
<path d="M125.109 65.1101L125.129 65.7195L156.237 64.8257L156.216 64.2367L125.109 65.1101Z" fill="white"/>
<path d="M134.142 68.5023L128.832 68.6648C128.771 68.6648 128.731 68.6242 128.731 68.5836L128.69 67.5476C128.69 67.4867 128.731 67.4461 128.771 67.4461L134.081 67.2836C134.122 67.2836 134.183 67.3242 134.183 67.3648L134.224 68.3804C134.244 68.4617 134.203 68.5023 134.142 68.5023Z" fill="#FFC244"/>
<path d="M139.757 70.5945L128.914 70.9804C128.853 70.9804 128.812 70.9398 128.812 70.8992L128.771 69.8632C128.771 69.8023 128.812 69.7617 128.853 69.7617L139.696 69.396C139.737 69.396 139.798 69.4367 139.798 69.4773L139.839 70.4929C139.859 70.5539 139.819 70.5945 139.757 70.5945Z" fill="#D8DEE8"/>
<path d="M129.646 62.8148L128.018 62.8554L127.673 52.2726L129.321 52.2523L129.646 62.8148Z" fill="white"/>
<path d="M132.087 62.7539L130.44 62.7945L130.114 52.232L131.762 52.2117L132.087 62.7539Z" fill="white"/>
<path d="M134.488 62.6929L132.881 62.7335L132.555 52.2117L134.163 52.1914L134.488 62.6929Z" fill="white"/>
<path d="M136.889 62.632L135.282 62.6726L134.956 52.1711L136.563 52.1507L136.889 62.632Z" fill="white"/>
<path d="M139.269 62.5711L137.682 62.6117L137.357 52.1507L138.964 52.1304L139.269 62.5711Z" fill="white"/>
<path d="M141.65 62.5101L140.063 62.5507L139.737 52.1101L141.324 52.0898L141.65 62.5101Z" fill="white"/>
<path d="M144.01 62.4492L142.423 62.4898L142.117 52.0898L143.684 52.0695L144.01 62.4492Z" fill="white"/>
<path d="M146.349 62.3882L144.783 62.4289L144.457 52.0492L146.044 52.0289L146.349 62.3882Z" fill="white"/>
<path d="M148.689 62.3273L147.122 62.3679L146.797 52.0289L148.363 52.0085L148.689 62.3273Z" fill="white"/>
<path d="M151.008 62.2664L149.442 62.307L149.137 52.0085L150.683 51.9882L151.008 62.2664Z" fill="white"/>
<path d="M153.307 62.2257L151.761 62.2461L151.456 51.9679L153.002 51.9476L153.307 62.2257Z" fill="white"/>
<path d="M129.646 62.8148L128.019 62.8554L127.835 57.3507L129.483 57.3304L129.646 62.8148Z" fill="#FFC244"/>
<path d="M132.087 62.7539L130.439 62.7945L130.195 54.6898L131.823 54.6695L132.087 62.7539Z" fill="#FFC244"/>
<path d="M134.488 62.6929L132.881 62.7335L132.657 55.5835L134.264 55.5429L134.488 62.6929Z" fill="#FFC244"/>
<path d="M136.889 62.632L135.282 62.6726L135.058 55.4617L136.665 55.4414L136.889 62.632Z" fill="#FFC244"/>
<path d="M139.269 62.571L137.682 62.6117L137.438 54.5679L139.025 54.5476L139.269 62.571Z" fill="#FFC244"/>
<path d="M141.65 62.5101L140.063 62.5507L139.839 55.4617L141.426 55.4414L141.65 62.5101Z" fill="#FFC244"/>
<path d="M144.01 62.4492L142.423 62.4898L142.199 54.832L143.765 54.8117L144.01 62.4492Z" fill="#FFC244"/>
<path d="M146.349 62.3882L144.783 62.4289L144.579 55.5632L146.146 55.5226L146.349 62.3882Z" fill="#FFC244"/>
<path d="M148.689 62.3273L147.122 62.3679L146.899 55.3398L148.465 55.3195L148.689 62.3273Z" fill="#FFC244"/>
<path d="M151.008 62.2664L149.442 62.307L149.198 54.3851L150.764 54.3648L151.008 62.2664Z" fill="#FFC244"/>
<path d="M153.307 62.2257L151.761 62.2461L151.537 54.8117L153.083 54.7914L153.307 62.2257Z" fill="#FFC244"/>
<path d="M118.924 73.8445L88.1425 75.0226C87.3084 75.0632 86.6167 74.4335 86.5963 73.621L85.8843 51.5617C85.8639 50.7695 86.5149 50.0992 87.3491 50.0992L118.192 49.8148C118.965 49.8148 119.616 50.4242 119.636 51.196L120.308 72.4023C120.308 73.1742 119.697 73.8242 118.924 73.8445Z" fill="#D8DEE8"/>
<path d="M119.433 73.6414L88.6511 74.8195C87.817 74.8601 87.1253 74.2304 87.1049 73.4179L86.3929 51.3585C86.3725 50.5664 87.0236 49.896 87.8577 49.896L118.701 49.6117C119.474 49.6117 120.125 50.221 120.145 50.9929L120.816 72.1992C120.816 72.971 120.206 73.621 119.433 73.6414Z" fill="#F4F7FA"/>
<path d="M120.796 65.232L86.8608 66.1867L86.8811 66.8164L120.816 65.8414L120.796 65.232Z" fill="white"/>
<path d="M101.346 69.5585L91.1333 69.8835C91.0722 69.8835 91.0315 69.8429 91.0315 69.782L90.9908 68.7054C90.9908 68.6445 91.0315 68.6038 91.0926 68.6038L101.306 68.2788C101.367 68.2788 101.407 68.3195 101.407 68.3804L101.448 69.4367C101.448 69.5179 101.407 69.5585 101.346 69.5585Z" fill="#C281E8"/>
<path d="M109.627 71.671L91.2146 72.321C91.1536 72.321 91.1129 72.2804 91.1129 72.2195L91.0722 71.1429C91.0722 71.082 91.1129 71.0413 91.1739 71.0413L109.586 70.4117C109.647 70.4117 109.688 70.4523 109.688 70.5132L109.728 71.5695C109.708 71.6101 109.667 71.671 109.627 71.671Z" fill="#D8DEE8"/>
<path d="M89.8922 59.9913C89.8515 59.9913 89.8108 59.9913 89.7701 59.971C89.6277 59.9101 89.5667 59.7273 89.6277 59.5851C90.706 57.371 91.947 56.1523 93.3305 55.9898C94.1849 55.8882 94.836 56.2132 95.4463 56.5179C96.0974 56.8429 96.7281 57.1476 97.6436 57.046C98.3353 56.9648 98.6812 56.7007 99.0881 56.3554C99.5153 56.0101 100.004 55.6242 100.96 55.3804C101.997 55.096 102.628 55.2382 103.381 55.3804C103.93 55.482 104.541 55.6242 105.456 55.6038C106.738 55.5835 107.429 55.2992 108.284 54.9335C108.915 54.6695 109.647 54.3648 110.725 54.121C112.597 53.6945 114.632 53.6742 116.747 54.0398C116.91 54.0601 117.012 54.2226 116.992 54.3851C116.971 54.5476 116.808 54.6492 116.646 54.6288C114.611 54.2835 112.658 54.3038 110.868 54.7101C109.83 54.9335 109.138 55.2382 108.528 55.482C107.633 55.8476 106.88 56.1726 105.476 56.1929C104.5 56.2132 103.849 56.071 103.279 55.9695C102.587 55.8273 102.038 55.7054 101.123 55.9492C100.288 56.1726 99.8612 56.4976 99.4543 56.8226C99.0067 57.1882 98.5794 57.5132 97.7046 57.6148C96.606 57.757 95.8532 57.371 95.1818 57.046C94.5918 56.7617 94.0629 56.4976 93.3915 56.5788C92.2115 56.721 91.1332 57.8179 90.1363 59.8492C90.0956 59.9304 89.9939 59.9913 89.8922 59.9913Z" fill="url(#paint11_linear_0_6212)"/>
<path d="M117.073 62.7132L106.616 62.957L106.473 58.5898L116.951 58.3867L117.073 62.7132Z" fill="#D8DEE8"/>
<path d="M96.0973 53.4507L90.6042 53.532C90.5432 53.532 90.5025 53.4914 90.5025 53.4304L90.4618 52.3539C90.4618 52.2929 90.5025 52.2523 90.5635 52.2523L96.0566 52.1914C96.1177 52.1914 96.1584 52.232 96.1584 52.2929L96.1991 53.3695C96.1991 53.4101 96.1584 53.4507 96.0973 53.4507Z" fill="#D8DEE8"/>
<path opacity="0.19" d="M42.2243 106.58C36.8114 106.803 30.7676 107.291 23.6454 109.728C22.0378 110.277 6.97923 115.822 7.44727 119.011C7.79321 121.367 15.7295 120.331 28.1426 123.744C41.2476 127.339 43.6488 129.208 51.3205 129.492C60.1521 129.817 60.5998 125.998 71.9955 124.942C78.4462 124.353 80.5829 125.348 86.7487 126.1C89.2517 126.405 90.6151 126.486 94.6036 126.689C112.755 127.644 116.031 128.558 116.662 127.136C117.72 124.739 110.13 118.462 103.008 114.806C96.842 111.617 91.5715 110.683 81.4579 108.855C64.0999 105.727 51.2188 106.194 42.2243 106.58Z" fill="#6165D7"/>
<path opacity="0.32" d="M82.6586 112.409C36.669 100.811 34.0643 103.208 33.3113 104.406C31.9479 106.62 33.4741 110.642 36.262 114.298C33.7997 113.791 31.3985 113.75 29.3839 114.522C25.2123 116.127 19.8808 114.827 19.7587 116.025C19.6162 117.366 25.5989 119.641 28.9769 119.702C36.3027 119.864 44.361 121.977 48.4716 122.647C57.3236 124.922 67.3355 122.139 71.853 121.286C79.9317 119.763 83.1673 117.772 91.5512 117.731C98.2665 117.711 103.211 118.93 103.313 118.503C103.496 117.691 84.9987 112.998 82.6586 112.409Z" fill="#6165D7"/>
<path d="M27.4914 90.8781H37.137C37.137 90.8781 38.9481 85.9422 36.5875 82.4484C31.7647 75.3391 38.3376 71.6016 40.8609 69.6312C44.6662 66.6656 46.3349 62.8266 41.7766 60.3281C36.6079 57.5047 41.1661 50.0094 48.0035 46.0891C54.6985 42.25 51.7275 28.1734 36.4858 35.1406C27.3896 39.3047 28.8141 48.9328 28.3664 53.9703C27.9187 59.0078 20.4301 59.4141 22.9942 65.5687C25.1919 70.8297 29.3635 74.6484 26.1687 78.2641C22.9942 81.9 22.6686 85.9625 27.4914 90.8781Z" fill="url(#paint12_linear_0_6212)"/>
<path d="M31.663 91.7719C31.6427 91.65 29.4042 79.1984 30.9101 66.1984C31.8055 58.5609 33.7794 52.2234 36.8114 47.3484C40.6167 41.2547 46.0704 37.4969 53.0299 36.1359L53.0706 36.3391C37.4422 39.3859 32.4973 54.275 31.1136 66.2188C29.6077 79.1984 31.8462 91.6094 31.8665 91.7313L31.663 91.7719Z" fill="#BEB8F2"/>
<path d="M35.3462 49.9688C34.5119 43.2047 37.0759 33.6375 37.0963 33.5359L37.2998 33.5969C37.2794 33.6984 34.7154 43.2453 35.5497 49.9485L35.3462 49.9688Z" fill="#BEB8F2"/>
<path d="M37.9916 45.9875L37.8899 45.8047C44.829 41.4781 51.3408 43.5703 51.4019 43.5906L51.3408 43.7938C51.2391 43.7734 44.8494 41.7219 37.9916 45.9875Z" fill="#BEB8F2"/>
<path d="M30.6049 74.7703L30.4014 74.7297C32.7008 65.0406 45.9483 62.6234 46.0704 62.6234V62.8266C45.9483 62.8266 32.8636 65.1828 30.6049 74.7703Z" fill="#BEB8F2"/>
<path d="M30.5234 70.7078C29.2618 64.6344 22.6482 60.45 22.5668 60.4094L22.6686 60.2266C22.7296 60.2672 29.4246 64.5125 30.7066 70.6672L30.5234 70.7078Z" fill="#BEB8F2"/>
<path d="M31.5613 89.7812L31.3578 89.7609C31.663 85.9219 36.9335 82.9969 37.1574 82.875L37.2591 83.0578C37.1981 83.0984 31.8665 86.0438 31.5613 89.7812Z" fill="#BEB8F2"/>
<path d="M30.9915 86.8359C30.5031 83.9922 26.1484 80.7828 24.7035 79.7266C24.4187 79.5234 24.2966 79.4219 24.2559 79.3813L24.4187 79.2391C24.439 79.2594 24.6221 79.4016 24.8256 79.5438C26.2704 80.6203 30.7066 83.8703 31.195 86.775L30.9915 86.8359Z" fill="#BEB8F2"/>
<path d="M48.614 75.5828C48.614 75.5828 42.1226 64.3703 33.3723 83.4437C26.535 98.2922 30.9508 114.786 46.7622 119.316C62.5533 123.845 87.2371 114.705 79.484 108.245C63.0417 94.575 50.5676 82.4484 48.614 75.5828Z" fill="url(#paint13_linear_0_6212)"/>
<g opacity="0.35">
<path d="M41.0848 85.6781C40.6574 87.0391 39.9045 90.8781 40.108 95.3266C40.2911 99.2875 39.9249 101.359 46.2535 104.244C48.4105 105.239 49.9164 108.367 53.2333 110.236C54.7392 111.089 60.3963 114.136 67.7221 112.917C72.5652 112.105 76.1671 109.728 78.5886 107.514C62.594 94.1281 50.5269 82.3266 48.614 75.5828C48.614 75.5828 46.2535 71.5 42.4278 72.4547C43.3435 73.4906 44.361 75.0344 44.6663 77.1469C45.0936 80.1125 42.4889 81.1891 41.0848 85.6781Z" fill="url(#paint14_linear_0_6212)"/>
</g>
<g opacity="0.13">
<path d="M72.0158 114.806C64.5476 118.93 52.0734 121.428 42.7738 114.542C34.166 108.164 33.3927 97.4797 33.1078 94.2094C32.5991 88.5015 33.7183 83.5453 35.3259 79.5437C34.6747 80.6812 34.0236 81.9609 33.352 83.4234C26.5146 98.2719 30.9304 114.766 46.7419 119.295C62.2888 123.764 86.4435 114.969 79.8096 108.53C77.9171 110.683 75.3735 112.958 72.0158 114.806Z" fill="url(#paint15_linear_0_6212)"/>
</g>
<path d="M60.2539 116.045C60.03 116.045 59.8062 116.045 59.5824 116.045C53.8031 115.923 45.7041 113.994 39.8638 105.605C34.9393 98.5156 35.5905 90.5125 37.0149 85.0687C38.5411 79.1578 41.2883 74.8719 41.3086 74.8312C41.3493 74.7703 41.4307 74.75 41.4918 74.7906C41.5528 74.8312 41.5732 74.9125 41.5325 74.9734C41.5121 75.0141 38.7853 79.2797 37.2591 85.15C35.855 90.5531 35.2038 98.475 40.0673 105.483C45.8262 113.791 53.8642 115.68 59.562 115.802C65.7686 115.944 70.6728 114.095 70.7135 114.075C70.7745 114.055 70.8559 114.075 70.8763 114.156C70.8966 114.217 70.8763 114.298 70.7949 114.319C70.7745 114.319 66.1755 116.045 60.2539 116.045Z" fill="#FFA6A4"/>
<path d="M91.2256 114.969C90.8186 114.522 90.086 112.612 91.4291 112.227C92.7721 111.841 93.5251 111.333 95.3972 109.85C97.2694 108.367 97.7374 109.647 95.1123 112.064C92.4669 114.481 91.8157 115.598 91.2256 114.969Z" fill="url(#paint16_linear_0_6212)"/>
<path d="M89.4756 112.186L90.5745 113.161C90.7983 113.364 91.1442 113.384 91.4088 113.222C91.5309 113.141 91.6123 113.019 91.6123 112.877C91.6123 112.734 91.5716 112.592 91.4495 112.511L89.8215 111.13L89.4756 112.186Z" fill="url(#paint17_linear_0_6212)"/>
<path d="M56.2858 102.883C54.3322 104.589 58.4225 110.216 64.9546 108.387C72.8705 106.173 82.9231 107.169 89.7198 112.694C90.1064 112.348 91.0832 111.8 90.6355 111.353C84.5104 105.158 78.8329 101.623 74.1322 100.669C67.0099 99.2062 61.8615 98.0078 56.2858 102.883Z" fill="url(#paint18_linear_0_6212)"/>
<g opacity="0.24">
<path d="M79.2398 105.239C80.3794 105.909 80.6236 104.548 81.2341 103.655C78.6904 102.091 76.3095 101.095 74.1322 100.648C67.0302 99.2062 61.8818 98.0078 56.3061 102.883C54.3526 104.589 58.4428 110.216 64.9749 108.387C67.3355 107.737 69.8995 107.372 72.4839 107.311C74.5391 106.011 76.2485 102.984 79.2398 105.239Z" fill="#552D63"/>
</g>
<path d="M55.1259 108.733L54.7189 108.895C54.7189 108.895 52.1142 106.437 51.6461 105.828C51.0764 105.056 57.4457 103.127 59.5213 100.587C61.6987 97.9266 59.969 103.756 59.969 103.756L55.1259 108.733Z" fill="url(#paint19_linear_0_6212)"/>
<path d="M52.7653 84.7031C52.7653 84.7031 55.0648 85.0281 57.6085 89.4969C59.5213 92.8687 63.6522 95.6515 63.6522 95.6515L64.0796 98.2922L60.6609 98.9015L59.4399 98.089L56.1026 90.9797L52.7653 84.7031Z" fill="url(#paint20_linear_0_6212)"/>
<path d="M48.2885 84.4187C48.2885 84.4187 42.5906 85.1094 42.4685 91.65C42.3465 97.6828 44.5442 100.019 49.8757 105.036C50.4048 105.544 51.2798 105.544 51.3409 105.605C51.6868 105.991 52.0328 106.397 52.399 106.823C57.1811 102.233 62.5737 100.689 62.5737 100.689C62.5737 100.689 57.5881 90.3906 55.3904 86.9578C53.152 83.464 49.7536 84.0531 48.2885 84.4187Z" fill="url(#paint21_linear_0_6212)"/>
<g opacity="0.2">
<path d="M57.7306 99.6328C55.3294 100.912 51.931 100.77 50.6694 99.1859C49.7333 97.9875 49.5705 97.5406 48.4309 95.6719C47.5152 94.1687 47.0675 93.925 45.0326 92.6453C44.2797 92.1578 43.4046 91.4672 42.55 90.4312C42.4889 90.8172 42.4686 91.2234 42.4482 91.65C42.3261 97.6828 44.5239 100.019 49.8554 105.036C50.3845 105.544 51.2595 105.544 51.3205 105.605C51.6665 105.991 52.0124 106.397 52.3787 106.823C57.1608 102.233 62.5534 100.689 62.5534 100.689C62.5534 100.689 61.7191 99.0641 60.6202 96.7891C59.8876 98.1297 59.2771 98.8 57.7306 99.6328Z" fill="url(#paint22_linear_0_6212)"/>
</g>
<path d="M53.8032 99.8156C53.8032 99.8156 54.8817 99.8562 55.655 99.5516C56.4282 99.2469 56.3672 99.1656 57.2422 99.0641C58.0969 98.9625 59.7859 98.4547 58.8295 97.5812C57.7713 96.6062 55.9398 96.8906 55.4108 97.5203C54.902 98.1297 54.027 98.5359 54.027 98.5359L53.8032 99.8156Z" fill="url(#paint23_linear_0_6212)"/>
<path d="M44.1982 87.6687C44.1982 87.6687 41.0441 88.0344 42.8755 98.1906C43.8319 103.452 48.553 102.72 54.2712 100.547C54.6578 99.7344 54.1694 98.0281 54.1694 98.0281C54.1694 98.0281 47.0675 100.953 46.8844 96.6875C46.6809 91.914 46.0297 87.1609 44.1982 87.6687Z" fill="url(#paint24_linear_0_6212)"/>
<path d="M49.6112 86.5719C48.2478 86.5719 46.8843 85.5766 46.8029 85.5156C46.7826 85.4953 46.7622 85.4547 46.7826 85.4344C46.8029 85.4141 46.8436 85.3937 46.864 85.4141C46.8843 85.4344 48.6751 86.7344 50.1402 86.3687C50.5472 86.2672 50.8118 86.0641 50.9542 85.7797C51.2188 85.2312 50.9135 84.5406 50.9135 84.5203C50.8932 84.4797 50.9135 84.4594 50.9542 84.4391C50.9949 84.4187 51.0153 84.4391 51.0356 84.4797C51.056 84.5203 51.3612 85.2516 51.0763 85.8406C50.9135 86.1656 50.6083 86.3891 50.1809 86.4906C49.9978 86.5516 49.8147 86.5719 49.6112 86.5719Z" fill="#9F73F8"/>
<path d="M51.6258 105.422C51.6054 105.422 51.5851 105.422 51.5851 105.402C51.5647 105.381 51.5647 105.341 51.5851 105.32C51.6461 105.28 56.7335 100.73 61.3324 99.5922C61.3731 99.5922 61.3935 99.6125 61.4138 99.6328C61.4138 99.6734 61.3935 99.6937 61.3731 99.7141C56.7945 100.831 51.7275 105.361 51.6868 105.402C51.6461 105.422 51.6461 105.422 51.6258 105.422Z" fill="#AE87F9"/>
<path d="M46.7826 80.4578C46.7826 80.4578 47.5966 83.7078 47.4338 84.3781C47.271 85.0484 48.2274 85.7594 49.896 85.8406C51.5647 85.9219 49.7129 82.4891 49.7129 82.4891L46.7826 80.4578Z" fill="url(#paint25_linear_0_6212)"/>
<path d="M52.4601 77.2891C53.4979 75.5625 52.1752 73.0844 50.0182 73.9578C48.5327 74.5469 47.5966 74.1203 46.6198 74.4859C44.8698 75.1359 45.0733 76.3547 45.4599 77.6141C45.8058 80.1125 45.8058 81.0875 48.4716 82.55C49.5094 79.0156 51.1984 79.3813 52.4601 77.2891Z" fill="url(#paint26_linear_0_6212)"/>
<path d="M47.0879 81.6562C47.0879 81.6562 48.1664 83.4234 50.3234 83.3016C52.4804 83.1797 51.87 78.2234 51.3205 77.9391C50.6897 77.6141 49.8147 78.0406 48.3902 77.7969C47.7797 77.6953 47.2303 77.0047 46.9658 77.7969C46.6809 78.7109 46.8844 80.1125 46.8844 80.1125C46.8844 80.1125 46.2128 79.5437 45.8873 80.1531C45.6227 80.6609 46.0704 81.2906 47.0879 81.6562Z" fill="url(#paint27_linear_0_6212)"/>
<path d="M46.9454 76.7609C46.9454 76.7609 46.8437 79.7063 47.5762 80.6203C47.9018 81.1891 47.4745 81.2094 47.1082 80.7828C46.7419 80.3563 46.3553 79.0156 46.3553 79.0156L46.9454 76.7609Z" fill="url(#paint28_linear_0_6212)"/>
<path d="M47.3931 74.5469C47.3728 74.5469 47.3728 74.5469 47.3931 74.5469C47.3524 74.5469 47.3117 74.5266 47.3117 74.4859C47.3117 74.4453 47.3321 74.425 47.3728 74.425C47.4745 74.425 49.3466 74.3031 49.7536 73.5109C49.774 73.4906 49.7943 73.4703 49.835 73.4906C49.8554 73.5109 49.8757 73.5312 49.8554 73.5719C49.428 74.4047 47.5762 74.5469 47.3931 74.5469Z" fill="url(#paint29_linear_0_6212)"/>
<path d="M54.5764 101.197C54.5153 101.197 54.4746 101.237 54.4543 101.298L54.4746 101.562C54.4746 101.623 54.5153 101.684 54.556 101.705L59.3992 103.269L68.4343 99.7344L64.1406 100.059L54.5764 101.197Z" fill="#26264F"/>
<path d="M54.556 101.156C54.495 101.156 54.4543 101.217 54.4543 101.278C54.4543 101.339 54.495 101.4 54.5357 101.42L59.3788 102.984L68.4139 99.45L64.1202 99.775L54.556 101.156Z" fill="#444B8C"/>
<path d="M59.1754 102.903L59.8876 93.4984C59.9079 93.3563 60.0097 93.2344 60.1725 93.1938L70.9983 91.5078C71.1001 91.4875 71.2018 91.5281 71.2629 91.5891C71.3443 91.65 71.385 91.7516 71.3646 91.8531L70.9576 100.628C70.9576 100.77 70.8355 100.913 70.6931 100.933L59.4399 103.005L59.1754 102.903Z" fill="url(#paint30_linear_0_6212)"/>
<path d="M59.3992 103.248L60.1521 93.6203C60.1724 93.4781 60.2742 93.3563 60.437 93.3156L71.2628 91.6297C71.3646 91.6094 71.4663 91.65 71.5274 91.7109C71.6088 91.7719 71.6495 91.8734 71.6291 91.975L71.2222 100.75C71.2222 100.892 71.1001 101.034 70.9576 101.055L59.3992 103.248Z" fill="#26264F"/>
<path d="M59.3992 103.248L70.9576 101.055C71.1001 101.034 71.2222 100.892 71.2222 100.75L71.3442 98.1094C67.9052 100.059 63.5911 100.303 59.562 101.095L59.3992 103.248Z" fill="#1F1F44"/>
<path d="M78.955 101.278C78.7922 100.73 78.4462 100.12 79.6875 99.6937C80.5829 99.3687 82.1702 99.2672 83.5946 99.2062C85.5889 99.1047 86.0569 100.303 83.1266 101.055C81.2341 101.542 79.1992 102.07 78.955 101.278Z" fill="url(#paint31_linear_0_6212)"/>
<path d="M80.5218 100.445C80.5422 100.75 80.3387 100.994 80.0945 101.034C79.5044 101.116 79.6061 100.811 79.5858 100.506C79.5654 100.202 79.3212 99.9781 80.0131 99.9172C80.2776 99.8969 80.5015 100.141 80.5218 100.445Z" fill="url(#paint32_linear_0_6212)"/>
<path d="M74.4578 98.6781L75.0479 98.5766C75.0479 98.5766 76.1875 98.6781 79.3213 99.5516C79.9928 99.6531 80.9085 101.623 78.9346 101.705C76.9607 101.786 74.5799 103.248 74.5799 103.248L74.4578 98.6781Z" fill="url(#paint33_linear_0_6212)"/>
<path d="M54.0066 107.798C54.0066 107.798 54.2915 110.337 60.2132 110.114C66.1349 109.891 76.6962 103.756 76.6351 100.547C76.5741 97.3375 72.6467 98.6172 68.5564 100.466C65.1174 102.03 59.8062 102.944 58.7277 103.106C57.3439 103.309 53.6811 106.58 54.0066 107.798Z" fill="url(#paint34_linear_0_6212)"/>
<g opacity="0.2">
<path d="M61.7598 104.609C64.507 104.325 65.1174 102.375 68.5158 101.806C70.7135 101.441 71.5071 102.091 72.6263 101.339C73.5217 100.75 73.9694 99.7141 74.1932 98.5766C72.6874 98.6984 70.6525 99.4906 68.5768 100.445C65.2395 101.969 60.1318 102.862 58.8498 103.066C58.8091 103.066 57.9545 102.761 57.9545 102.761C57.9545 102.761 57.3033 103.127 56.8556 103.411C58.626 104.386 60.7627 104.711 61.7598 104.609Z" fill="url(#paint35_linear_0_6212)"/>
</g>
<path d="M23.7065 108.977C21.9564 111.739 22.8721 114.847 23.8489 117C24.1541 117.041 24.3169 117.142 24.6018 117.264C27.2269 118.28 30.0351 118.787 32.7823 119.356C33.3724 119.478 33.9422 119.498 34.5527 119.58L35.1631 119.641C35.1631 119.641 39.0906 111.333 35.6922 108.875C32.2939 106.417 34.6341 99.4906 35.448 95.6516C37.6865 85.2312 26.1484 84.6828 27.9391 71.0734C28.4072 67.4578 30.5438 60.6937 27.8577 57.4234C24.8053 53.6859 21.8343 56.5703 19.9622 53.5234C17.0319 48.7703 11.5579 46.475 7.5694 50.4562C3.64198 54.3766 6.55194 63.5984 15.7295 71.9062C21.6308 78.6094 21.5087 80.3765 20.4099 84.5406C19.6569 87.4656 15.7702 94.8391 19.4127 98.475C23.0553 102.07 25.7007 105.828 23.7065 108.977Z" fill="url(#paint36_linear_0_6212)"/>
<path d="M30.0147 118.584H29.8112C29.8112 117.366 29.8112 116.147 29.7909 114.948C29.6281 106.052 28.6513 97.4797 26.8809 89.4969C25.3751 82.7328 23.2791 76.2734 20.6337 70.3219C18.5173 65.5281 16.0347 61.0391 13.2875 56.9766C11.3543 54.1125 9.27871 51.4922 7.16237 49.1562C6.79608 48.75 6.3891 48.3641 6.00246 47.9781C5.47338 47.4703 4.94429 46.9422 4.47626 46.3734L4.63905 46.2312C5.10709 46.7797 5.63617 47.3078 6.16525 47.8156C6.55189 48.2016 6.95888 48.5875 7.32517 48.9937C9.46185 51.3297 11.5171 53.9703 13.4707 56.8344C16.2382 60.9172 18.7208 65.4266 20.8371 70.2203C23.4826 76.1922 25.5785 82.6516 27.0844 89.4359C28.8751 97.4391 29.8519 106.011 29.9944 114.928C30.0147 116.147 30.0351 117.366 30.0147 118.584Z" fill="#FCFDFE"/>
<path d="M23.5436 77.7156C20.8575 69.2859 26.0669 55.1078 26.1076 54.9656L26.3111 55.0469C26.2501 55.1891 21.0813 69.2859 23.7471 77.6547L23.5436 77.7156Z" fill="#FCFDFE"/>
<path d="M28.9159 101.745C27.7967 95.9562 17.8662 90.2484 17.7848 90.1875L17.8865 90.0047C17.9883 90.0656 28.0002 95.8141 29.1397 101.705L28.9159 101.745Z" fill="#FCFDFE"/>
<path d="M29.2821 105.137C29.2211 101.177 31.2764 95.7734 35.0207 89.9031C35.1021 89.7812 35.1631 89.6594 35.1835 89.6391L35.2649 89.6797H35.387C35.387 89.7203 35.387 89.7203 35.2038 90.0047C31.4799 95.8344 29.4449 101.197 29.506 105.117L29.2821 105.137Z" fill="#FCFDFE"/>
<path d="M29.7909 116.37C28.5292 112.348 22.6686 110.033 22.6075 110.012L22.6889 109.809C22.75 109.83 28.7124 112.186 29.9944 116.289L29.7909 116.37Z" fill="#FCFDFE"/>
<path d="M30.1165 118.645L29.913 118.564C31.1339 115.273 33.3317 112.227 36.6486 109.241L36.791 109.403C33.5148 112.369 31.3374 115.375 30.1165 118.645Z" fill="#FCFDFE"/>
<path d="M14.8748 59.3937C13.1247 54.8031 12.3718 49.6031 12.1073 47.8766C12.0666 47.5719 12.0259 47.3484 12.0259 47.3078L12.2294 47.2469C12.2497 47.2875 12.2701 47.45 12.3311 47.8562C12.5753 49.5625 13.3486 54.7625 15.0783 59.3328L14.8748 59.3937Z" fill="#FCFDFE"/>
<path d="M18.8022 66.4016C16.0347 62.8672 6.73505 61.7297 6.6333 61.7297L6.65365 61.5266C7.04029 61.5672 16.1568 62.6641 18.965 66.2797L18.8022 66.4016Z" fill="#FCFDFE"/>
<path d="M23.6047 116.959C23.6454 116.98 23.6861 117 23.7064 117C26.3518 118.016 29.1397 118.523 31.8868 119.092C32.2531 119.173 32.6194 119.234 33.0061 119.295C33.4944 117.914 33.8811 115.883 32.1107 115.355C29.3635 114.502 29.3432 109.687 30.0961 107.981C31.0525 105.869 33.1689 100.912 28.9362 99.5516C25.4157 98.4141 22.9128 98.3937 22.7093 93.8641C22.5058 89.3344 20.0435 86.4906 15.9329 86.7141C11.5985 86.9578 8.09844 81.1687 4.51695 83.0781C-1.68961 86.3891 3.82507 96.4234 11.334 99.3687C18.8429 102.314 14.4881 104.995 14.2643 108.692C13.9387 113.75 20.8168 112.734 22.6075 114.725C23.1977 115.375 23.4826 116.167 23.6047 116.959Z" fill="url(#paint37_linear_0_6212)"/>
<path d="M27.817 118.259C24.9478 103.675 14.9766 90.5531 1.83087 84.0125L1.93262 83.8297C15.1394 90.3906 25.1309 103.573 28.0205 118.219L27.817 118.259Z" fill="#FCFDFE"/>
<path d="M25.7617 110.398H25.5582C25.5786 104.427 30.7066 99.8156 30.7473 99.775L30.8898 99.9375C30.8491 99.9984 25.8024 104.548 25.7617 110.398Z" fill="#FCFDFE"/>
<path d="M27.2065 115.578C24.4593 110.439 13.7352 109.647 13.6335 109.647L13.6538 109.444C13.7556 109.444 24.5814 110.236 27.3897 115.497L27.2065 115.578Z" fill="#FCFDFE"/>
<path d="M18.3545 97.6625C16.462 93.2344 19.3516 86.5109 19.372 86.45L19.5755 86.5312C19.5551 86.5922 16.6859 93.2547 18.558 97.5812L18.3545 97.6625Z" fill="#FCFDFE"/>
<path d="M11.8427 90.7562C7.34551 87.9734 0.304628 89.4765 0.24358 89.4765L0.202881 89.2734C0.284278 89.2531 7.38621 87.7297 11.9648 90.5734L11.8427 90.7562Z" fill="#FCFDFE"/>
<path d="M35.8143 119.62L35.8753 119.966C29.9333 119.925 22.75 117.061 22.6686 117.041C22.6075 117.02 22.7296 116.655 22.7703 116.594C22.7907 116.533 22.8517 116.512 22.8924 116.533C22.9535 116.553 29.8926 119.377 35.7939 119.417C35.855 119.417 35.8957 119.458 35.8957 119.519C35.916 119.58 35.855 119.62 35.8143 119.62Z" fill="#5A2F71"/>
<path d="M129.795 50.2868L98.5126 48.6642C97.6505 48.6237 97.0963 47.9138 97.281 47.1025L102.515 24.6301C102.7 23.8188 103.542 23.2307 104.404 23.3321L135.07 26.5163C135.809 26.5975 136.281 27.2668 136.117 28.0172L131.498 48.9887C131.314 49.7189 130.554 50.3071 129.795 50.2868Z" fill="#D8DEE8"/>
<path d="M130.185 50.3882L98.9437 48.7656C98.0816 48.7251 97.5274 48.0355 97.7121 47.2242L102.905 25.0763C103.09 24.2853 103.932 23.6971 104.794 23.7986L135.419 26.9625C136.158 27.0437 136.63 27.713 136.466 28.4431L131.868 49.0902C131.704 49.8406 130.944 50.4085 130.185 50.3882Z" fill="url(#paint38_linear_0_6212)"/>
<path d="M133.325 42.5999L99.3542 40.2472L99.1899 40.8962L133.202 43.2084L133.325 42.5999Z" fill="white"/>
<path d="M123.781 25.7456L120.065 42.1334L120.702 42.174L124.417 25.8065L123.781 25.7456Z" fill="white"/>
<path d="M115.036 45.1555L102.741 44.405C102.679 44.405 102.638 44.3645 102.659 44.3036L102.905 43.2287C102.926 43.1678 102.967 43.1273 103.028 43.1273L115.303 43.9183C115.365 43.9183 115.385 43.9588 115.385 44.0197L115.139 45.0743C115.139 45.1149 115.077 45.1555 115.036 45.1555Z" fill="#C281E8"/>
<path d="M117.725 47.711L102.166 46.8389C102.105 46.8389 102.064 46.7983 102.084 46.7374L102.331 45.6625C102.351 45.6017 102.392 45.5611 102.454 45.5611L117.992 46.4738C118.054 46.4738 118.074 46.5143 118.074 46.5752L117.828 47.6299C117.828 47.6704 117.787 47.711 117.725 47.711Z" fill="#D8DEE8"/>
<path d="M133.859 32.3373L124.868 31.526L125.648 28.0172L134.639 28.9096L133.859 32.3373Z" fill="#D8DEE8"/>
<path d="M132.012 40.6529L122.939 40.0038L124.519 33.0268L133.531 33.8178L132.012 40.6529Z" fill="#D8DEE8"/>
<path d="M112.142 30.5524C113.599 30.6944 114.523 31.9113 114.195 33.2905C114.113 33.6759 113.928 34.0409 113.682 34.3452L116.432 35.9677C116.966 35.2579 117.356 34.4466 117.561 33.5745C118.279 30.4308 116.206 27.6116 112.881 27.287H112.861L112.101 30.5322C112.122 30.5524 112.142 30.5524 112.142 30.5524Z" fill="white"/>
<path d="M113.682 34.3654C113.066 35.1767 112.019 35.6838 110.972 35.6026C109.494 35.481 108.571 34.2438 108.899 32.8443C109.227 31.4651 110.664 30.4307 112.122 30.5524L112.881 27.3073C109.535 27.0031 106.169 29.3355 105.409 32.5604C104.65 35.7852 106.826 38.6247 110.233 38.8883C112.655 39.0709 115.036 37.8742 116.453 36.0083L113.682 34.3654Z" fill="url(#paint39_linear_0_6212)"/>
<path opacity="0.47" d="M99.9494 35.1767C99.5184 35.5621 101.078 38.8883 103.87 41.5047C106.703 44.1616 108.837 44.2225 111.075 47.3662C112.142 48.8873 111.752 49.0293 112.594 50.1245C115.857 54.4243 124.478 55.7223 127.947 52.3961C128.317 52.0513 129.117 50.5099 130.739 47.4473C130.924 47.1025 131.765 45.5002 132.586 43.2895C133.305 41.383 133.695 40.3081 133.305 39.9835C132.504 39.3548 129.774 42.7622 127.947 41.9915C126.798 41.5047 127.373 39.6387 125.854 38.3001C124.622 37.2252 122.939 37.286 122.508 37.3063C118.71 37.428 118.279 41.5655 114.708 42.3565C111.732 43.0056 108.612 40.8962 104.014 37.7931C101.55 36.1908 100.257 34.9131 99.9494 35.1767Z" fill="#D8DEE8"/>
<path d="M100.565 36.5762L99.7852 35.8055C99.7852 35.8055 99.19 35.055 99.58 33.9801C99.97 32.9051 100.504 33.2094 100.504 33.2094L100.36 33.9598C100.36 33.9598 100.257 34.4466 100.729 35.055C101.14 35.7852 101.222 36.3328 101.222 36.3328L100.565 36.5762Z" fill="url(#paint40_linear_0_6212)"/>
<path d="M133.243 39.5982L134.126 38.8072L134.516 37.3672C134.516 37.3672 135.604 37.7931 135.008 39.152C134.639 39.5982 133.715 40.2878 133.325 40.9368C132.935 41.5858 133.243 39.5982 133.243 39.5982Z" fill="url(#paint41_linear_0_6212)"/>
<path d="M124.54 49.2524C124.54 49.2524 128.768 46.6766 129.815 45.7436C130.883 44.7904 133.715 41.0991 133.962 40.6529C134.208 40.2067 133.202 39.3345 133.202 39.3345C133.202 39.3345 128.276 45.4191 122.097 43.614C123.062 45.8045 124.54 49.2524 124.54 49.2524Z" fill="url(#paint42_linear_0_6212)"/>
<path d="M125.156 84.9487C125.156 84.9487 125.936 86.8754 125.731 87.7273C126.572 87.707 127.106 87.6056 127.106 87.6056C127.106 87.6056 126.777 86.7335 126.695 86.2873C126.613 85.6991 126.613 84.7458 126.613 84.7458L125.156 84.9487Z" fill="url(#paint43_linear_0_6212)"/>
<path d="M116.596 89.4715C116.637 89.5324 116.74 89.6541 116.74 89.8163C116.74 89.9177 116.72 89.9786 116.699 90.0597C116.576 90.4045 116.35 90.4451 116.124 90.8101C115.981 91.0332 116.022 91.0941 115.878 91.1955C115.714 91.3375 115.508 91.3375 115.344 91.3375C115.057 91.3375 114.626 91.3375 114.092 91.2766C114.38 90.9115 114.667 90.5668 114.975 90.2017C115.118 90.0394 115.242 89.8772 115.385 89.7352L116.206 89.4715C116.35 89.4512 116.473 89.4715 116.596 89.4715Z" fill="#26264F"/>
<path d="M115.919 85.5368C115.919 85.5368 115.447 87.9504 116.042 88.6197C116.555 89.289 115.796 88.8225 115.796 88.8225L114.893 89.5932L114.359 90.5059C114.359 90.5059 114.852 88.1329 114.728 87.2C114.605 86.267 114.523 85.6382 114.523 85.6382L115.919 85.5368Z" fill="url(#paint44_linear_0_6212)"/>
<path d="M118.238 43.5937C115.96 43.2084 112.696 44.3645 108.919 42.3768C105.204 40.4298 103.008 37.57 101.735 35.7446C101.181 36.0083 100.627 36.2922 100.073 36.5559C101.017 38.1582 103.234 41.6061 106.189 44.0197C109.905 47.0417 113.538 47.2242 115.508 49.6986C116.412 48.7859 119.347 43.7966 118.238 43.5937Z" fill="url(#paint45_linear_0_6212)"/>
<path d="M114.133 59.1094C114.133 59.1094 112.881 60.225 112.881 64.8087C112.881 69.3924 113.476 79.3508 113.476 79.3508L114.421 86.4698C114.421 86.4698 115.406 86.5104 116.063 86.3075C116.658 83.6303 117.623 79.0872 117.171 75.2944C116.966 71.1772 118.834 66.0053 118.834 66.0053C118.834 66.0053 120.414 71.2381 121.543 73.8544C122.672 76.4708 124.807 84.685 125.012 85.2732C126.326 85.3949 126.901 85.0501 126.901 85.0501C126.901 85.0501 126.059 76.2274 125.258 72.8809C124.458 69.5344 124.52 61.4824 123.206 59.1906C120.23 57.9939 114.133 59.1094 114.133 59.1094Z" fill="url(#paint46_linear_0_6212)"/>
<path d="M114.133 59.1094C114.133 59.1094 112.881 60.225 112.881 64.8087C112.881 69.3924 113.476 79.3508 113.476 79.3508L114.421 86.4698C114.421 86.4698 115.406 86.5104 116.063 86.3075C116.658 83.6303 117.623 79.0872 117.171 75.2944C116.966 71.1772 118.834 66.0053 118.834 66.0053C118.834 66.0053 120.414 71.2381 121.543 73.8544C122.672 76.4708 124.807 84.685 125.012 85.2732C126.326 85.3949 126.901 85.0501 126.901 85.0501C126.901 85.0501 126.059 76.2274 125.258 72.8809C124.458 69.5344 124.52 61.4824 123.206 59.1906C120.23 57.9939 114.133 59.1094 114.133 59.1094Z" fill="url(#paint47_linear_0_6212)"/>
<path opacity="0.25" d="M120.681 67.5062C121.071 70.0211 121.851 71.38 123.822 73.1243C125.382 74.2803 124.212 76.8156 124.807 78.7424C125.012 79.3306 125.587 79.8984 125.792 80.4866C126.531 81.9266 125.833 83.6912 126.162 85.2326C126.675 85.1718 126.901 85.0298 126.901 85.0298C126.901 85.0298 126.059 76.2071 125.258 72.8606C124.458 69.5141 124.52 61.4621 123.206 59.1703C120.23 57.9939 114.133 59.1094 114.133 59.1094C114.133 59.1094 112.881 60.225 112.881 64.8087C112.881 65.1737 112.881 65.5794 112.902 66.0256C114.215 67.1614 116.884 67.425 118.526 66.1473C118.628 66.0662 118.731 66.0256 118.834 66.0053C118.834 65.985 118.834 65.985 118.834 65.985C118.834 65.985 118.834 65.985 118.834 66.0053C119.614 65.8633 120.517 66.8369 120.681 67.5062Z" fill="url(#paint48_linear_0_6212)"/>
<path d="M125.525 88.4777C125.525 88.4777 125.341 88.4777 125.341 88.7211C125.361 88.9645 125.258 89.8163 126.244 89.8569C127.229 89.8974 127.373 89.796 127.414 89.796C127.455 89.796 127.147 88.9848 127.147 88.9848L126.839 88.5791L125.997 88.498L125.525 88.4777Z" fill="#26264F"/>
<path d="M127.701 89.3295C127.681 89.1267 127.558 88.8022 127.455 88.5386C127.291 88.1532 127.414 88.0112 127.25 87.6461C127.188 87.5245 127.126 87.4028 127.024 87.3014C127.003 87.2811 126.716 87.0174 126.326 87.0377C126.244 87.0377 126.121 87.0377 125.998 87.1188C125.854 87.1999 125.772 87.3216 125.71 87.423C125.608 87.5853 125.628 87.6461 125.464 88.1126C125.443 88.1532 125.423 88.2343 125.402 88.356C125.382 88.4371 125.382 88.5183 125.382 88.5588C125.649 88.5588 126.634 88.5994 126.839 88.7414C127.044 88.8833 127.147 89.147 127.147 89.4107C127.147 89.6743 127.27 89.7758 127.414 89.7758C127.516 89.7758 127.763 89.5729 127.701 89.3295Z" fill="#444B8C"/>
<path d="M115.775 88.2952C116.001 88.2952 116.165 88.4777 116.288 88.8833C116.412 89.3093 117.007 89.6743 116.309 89.5932C115.611 89.5121 115.118 90.4653 114.872 90.8304C114.626 91.1955 113.969 91.4997 113.989 91.1549C114.01 90.8101 114.297 90.6479 114.379 90.2828C114.462 89.9177 115.283 88.2749 115.775 88.2952Z" fill="#444B8C"/>
<path d="M120.455 43.4518C119.347 43.4112 116.514 43.107 115.18 44.4253C113.825 45.7639 115.201 47.3662 114.954 49.5769C114.79 51.0778 114.852 51.9499 114.564 54.3837C114.503 54.8908 114.421 55.4384 114.256 56.1077C113.887 57.6897 113.23 60.8334 112.861 61.6041C113.99 62.172 116.904 63.2064 120.394 62.6993C121.974 62.456 123.247 61.9489 124.15 61.4824C123.247 58.7849 123.411 55.0733 123.76 53.755C124.417 51.1183 124.561 50.084 126.428 46.3115C126.942 45.2771 125.731 45.845 124.93 44.9323C123.74 43.5329 121.584 43.4923 120.455 43.4518Z" fill="url(#paint49_linear_0_6212)"/>
<path opacity="0.25" d="M117.151 50.3476C117.212 49.8609 117.294 48.9685 116.863 48.0355C116.781 47.8732 116.535 47.3865 116.083 46.9606C115.098 46.0681 113.825 46.129 112.368 46.0276C111.301 45.9465 109.782 45.7639 107.914 45.2569C110.705 46.9808 113.312 47.5284 115.016 49.151C115.016 49.293 114.995 49.4147 114.995 49.5566C114.831 51.0575 114.893 51.9296 114.605 54.3635C114.544 54.8705 114.462 55.4181 114.297 56.0874C113.928 57.6694 113.271 60.8131 112.902 61.5838C114.031 62.1517 116.945 63.1861 120.435 62.6791C122.015 62.4357 123.288 61.9286 124.191 61.4621C123.924 60.6306 123.739 59.7179 123.637 58.8052C122.364 58.8052 120.496 58.6024 118.567 57.6289C117.479 57.0812 116.945 56.8176 116.637 56.2294C115.96 55.1139 116.719 54.039 117.151 50.3476Z" fill="url(#paint50_linear_0_6212)"/>
<path d="M118.834 40.2067C118.998 38.9695 119.983 38.1987 120.188 38.0162C121.092 37.3063 121.276 37.2455 121.584 37.1846L122.015 37.1238C122.015 37.1238 122.036 37.1238 122.056 37.1238C122.303 37.1441 123.042 37.428 123.185 37.5092C123.616 37.8134 123.308 39.9227 121.995 42.5391C121.954 42.7622 121.892 42.9853 121.851 43.2084C122.98 43.4112 123.267 43.614 123.267 43.7763C123.288 44.1211 122.036 44.5673 120.886 44.6078C119.449 44.6484 117.91 44.0399 117.951 43.5735C117.972 43.3909 118.238 43.1678 119.285 42.9447C119.449 42.7216 119.614 42.4985 119.778 42.2551C119.614 42.0726 118.71 41.0991 118.834 40.2067Z" fill="url(#paint51_linear_0_6212)"/>
<path d="M121.584 36.3328C121.133 36.779 121.03 37.5294 121.153 38.0771C121.235 38.4016 121.338 38.4421 121.317 38.6449C121.276 39.2534 120.168 39.5171 120.229 39.8213C120.271 40.0444 120.845 39.9633 120.948 40.2269C121.051 40.5312 120.414 40.7746 120.147 41.525C120.106 41.6467 119.839 42.3565 120.168 42.7622C120.476 43.1475 121.174 43.0664 121.954 42.965C122.816 42.8636 123.432 42.5999 123.616 42.5188C124.191 42.2754 124.807 42.0118 125.299 41.4033C125.423 41.2613 126.121 40.3892 126.059 39.152C125.977 37.5497 124.622 36.1705 123.226 35.9474C123.021 35.9272 122.138 35.7852 121.584 36.3328Z" fill="url(#paint52_linear_0_6212)"/>
<path d="M120.619 39.7402C120.948 39.5373 121.194 39.9633 121.051 40.3283C120.886 40.6934 120.373 40.9165 120.065 40.6934C119.737 40.4906 120.168 40.0038 120.619 39.7402Z" fill="url(#paint53_linear_0_6212)"/>
<path d="M117.315 43.5126L118.115 43.2692C118.115 43.2692 118.32 44.3442 120.886 44.4659C122.303 44.4659 123.226 43.6749 123.226 43.6749L123.842 43.9588C123.842 43.9588 122.569 45.5408 120.681 45.5002C118.238 45.4597 117.315 43.5126 117.315 43.5126Z" fill="url(#paint54_linear_0_6212)"/>
<path opacity="0.82" d="M60.722 64.2881L38.0195 101.876H98.8999L77.2794 65.0631L60.722 64.2881Z" fill="white"/>
<path d="M68.7251 14.8309C68.6638 14.8309 68.623 14.7901 68.623 14.7289V13.1789C68.623 13.1178 68.6638 13.077 68.7251 13.077C68.7863 13.077 68.8272 13.1178 68.8272 13.1789V14.7289C68.8476 14.7697 68.7863 14.8309 68.7251 14.8309Z" fill="#6567D9"/>
<path d="M68.7251 57.721C68.6638 57.721 68.623 57.6803 68.623 57.6191V14.7085C68.623 14.6474 68.6638 14.6066 68.7251 14.6066C68.7863 14.6066 68.8272 14.6474 68.8272 14.7085V57.6191C68.8476 57.6803 68.7863 57.721 68.7251 57.721Z" fill="#6567D9"/>
<path d="M68.7251 59.2914C68.6638 59.2914 68.623 59.2507 68.623 59.1895V57.6395C68.623 57.5783 68.6638 57.5375 68.7251 57.5375C68.7863 57.5375 68.8272 57.5783 68.8272 57.6395V59.1895C68.8476 59.2303 68.7863 59.2914 68.7251 59.2914Z" fill="#6567D9"/>
<path d="M77.7898 66.0013V63.248C77.7898 61.1066 76.034 59.3526 73.8903 59.3526H63.6007C61.457 59.3526 59.7012 61.1066 59.7012 63.248V66.0013H77.7898Z" fill="url(#paint55_linear_0_6212)"/>
<ellipse cx="68.7455" cy="65.9197" rx="9.06469" ry="1.79474" fill="url(#paint56_linear_0_6212)"/>
<path d="M68.7455 63.5947C64.9073 63.5947 61.5591 63.0441 60.7833 62.3099C60.7629 62.2895 60.7629 62.2487 60.7833 62.2283C60.8037 62.2079 60.8446 62.2079 60.865 62.2283C61.6204 62.9625 64.9278 63.4928 68.7455 63.4928C72.2775 63.4928 75.4624 63.0237 76.4628 62.371C76.4832 62.3507 76.524 62.3507 76.5444 62.3914C76.5649 62.4118 76.5649 62.4526 76.524 62.473C75.5032 63.1257 72.3592 63.5947 68.7455 63.5947Z" fill="#726BDF"/>
<path d="M72.2979 59.475C72.2775 58.6388 71.6038 57.9658 70.7463 57.9658H66.6835C65.826 57.9658 65.1319 58.6592 65.1319 59.5158C65.1319 59.9033 66.7243 60.2296 68.7047 60.2296C70.685 60.2296 72.2775 59.9033 72.2775 59.5158C72.3183 59.4954 72.3183 59.4954 72.2979 59.475Z" fill="url(#paint57_linear_0_6212)"/>
<path opacity="0.3" d="M149.955 110.998C151.109 112.734 157.085 110.957 160.974 109.059C167.233 105.996 166.99 103.056 172.236 100.484C179.812 96.7683 187.246 99.4837 187.57 97.8912C187.773 96.85 184.714 94.9105 181.473 94.2776C177.706 93.5426 175.883 94.9717 167.112 97.7075C160.022 99.9328 159.313 99.5857 156.902 101.178C152.446 104.118 148.82 109.283 149.955 110.998Z" fill="#6165D7"/>
<path d="M185.646 88.2549C185.849 87.9895 186.294 87.9078 186.618 87.9895C187.246 88.1732 187.246 89.4186 187.388 90.7456C187.55 92.2564 187.793 93.8489 187.125 93.8284C186.821 93.8284 186.294 92.9097 186.173 92.0727C186.031 91.011 185.666 90.1127 185.666 90.1127C185.626 89.9086 185.565 89.6228 185.525 89.2757C185.504 88.7653 185.464 88.459 185.646 88.2549Z" fill="#26264F"/>
<path d="M186.456 89.3369C186.456 89.9902 185.363 90.2556 184.714 90.2556C184.066 90.2556 184.086 89.9902 184.086 89.3369C184.086 88.6836 184.107 88.2141 184.775 88.2141C185.444 88.2141 186.456 88.6836 186.456 89.3369Z" fill="url(#paint58_linear_0_6212)"/>
<path d="M157.814 100.709C157.449 102.138 157.105 103.567 156.74 104.976C156.822 105.118 157.024 105.425 157.389 105.486C157.774 105.568 158.118 105.282 158.26 105.18C158.543 103.159 159.029 101.893 159.495 101.056C159.84 100.464 160.164 100.096 160.144 99.892C160.083 99.5041 158.928 100.076 157.814 100.709Z" fill="url(#paint59_linear_0_6212)"/>
<path d="M155.262 74.862L154.614 74.9641C154.614 74.9641 153.459 74.9233 152.77 75.0458C152.102 75.1683 151.697 75.5153 151.697 76.2095C151.697 76.924 152.547 77.0057 153.297 77.0874C153.743 77.1282 154.37 76.7607 154.836 76.3932C155.16 76.1482 156.011 75.9236 156.011 75.9236L155.262 74.862Z" fill="url(#paint60_linear_0_6212)"/>
<path d="M159.819 51.1182C158.989 51.6695 158.847 53.2619 159.07 54.2215C159.232 54.936 159.536 55.6506 159.819 56.1406C159.981 56.5693 160.123 56.9572 160.245 57.3247C160.326 57.5901 160.387 57.7943 160.447 58.0188C160.549 58.4272 160.609 58.8559 160.65 59.2846C160.65 59.305 160.67 59.3255 160.711 59.3255C160.731 59.3255 160.771 59.305 160.751 59.2642C160.711 58.8355 160.65 58.4067 160.549 57.978C160.488 57.7534 160.427 57.5493 160.346 57.2839C160.285 57.1001 160.225 56.896 160.144 56.6918C160.427 57.2022 160.69 57.7943 160.832 58.6517C161.278 61.2854 163.81 62.0612 165.289 61.4896C166.605 60.9792 167.537 59.6725 167.719 58.4067C168.246 54.4665 161.642 49.8933 159.819 51.1182Z" fill="url(#paint61_linear_0_6212)"/>
<path d="M165.005 73.8412C163.081 77.2099 161.825 82.2526 160.224 87.9282C158.766 93.0322 157.51 97.6054 156.882 101.199C157.186 101.464 157.571 101.729 157.996 101.954C159.657 102.852 161.298 102.873 162.21 102.791C162.27 101.852 162.392 100.464 162.675 98.8099C163.101 96.4621 163.85 92.1135 165.613 88.1732C166.848 85.4375 167.456 84.0696 168.509 83.1305C169.157 82.5588 170.636 81.3339 170.9 79.476C170.92 79.3944 170.92 79.3127 170.92 79.2514C170.92 76.6586 166.139 74.3516 165.005 73.8412Z" fill="url(#paint62_linear_0_6212)"/>
<path d="M165.005 73.8412C163.952 75.6787 163.101 78.0265 162.291 80.701C164.215 81.7422 165.856 83.4775 165.106 85.6008C164.397 87.7649 161.703 88.6836 161.156 91.2152C160.609 93.9305 161.865 96.2784 161.339 98.9937C161.075 100.259 160.974 101.546 160.933 102.791C161.44 102.832 161.865 102.811 162.21 102.791C162.27 101.852 162.392 100.464 162.676 98.8099C163.101 96.4621 163.85 92.1135 165.613 88.1732C166.848 85.4375 167.456 84.0696 168.509 83.1305C169.158 82.5588 170.636 81.3339 170.9 79.476C170.92 79.3944 170.92 79.3127 170.92 79.2514C170.92 76.6586 166.139 74.3516 165.005 73.8412Z" fill="url(#paint63_linear_0_6212)"/>
<path d="M166.808 78.6186C166.788 78.6594 166.747 78.7615 166.747 78.9044C166.707 79.8639 168.469 81.1297 172.297 87.2749C172.966 88.357 174.12 90.2761 176.004 90.8273C176.227 90.8885 176.409 90.9294 176.612 90.9498C177.179 91.0315 177.604 90.9498 177.685 90.9294C178.151 90.8681 179.954 90.9294 185.059 91.3989C185.099 91.3173 185.97 89.2553 184.856 87.8466C184.552 87.4587 184.167 87.2137 183.843 87.0708C182.648 86.887 181.635 86.8054 180.866 86.7441C179.934 86.6829 179.367 86.6829 178.718 86.7441C178.273 86.7849 177.908 86.8462 177.645 86.887C175.822 81.5789 176.713 76.9444 174.505 76.8628C174.06 76.8424 167.253 77.2711 166.808 78.6186Z" fill="url(#paint64_linear_0_6212)"/>
<path d="M160.893 64.3274C159.779 64.7153 161.46 68.7372 159.171 71.82C158.017 73.3716 156.275 74.127 154.755 74.4945C155.059 75.4949 155.019 75.4949 155.323 76.4953C156.113 76.5361 159.09 76.5565 161.622 74.372C162.27 73.8208 164.256 72.1059 164.377 69.4314C164.519 66.0423 161.946 63.9599 160.893 64.3274Z" fill="url(#paint65_linear_0_6212)"/>
<path d="M162.27 60.3871C161.703 61.0608 161.48 61.6733 161.177 62.4899C160.711 63.7762 160.447 64.5111 160.468 65.4094C160.528 67.1652 161.683 68.431 162.23 68.9414C163.425 72.8 163.709 73.7187 163.709 73.7187V73.7391C163.668 74.1883 163.587 74.8824 163.364 75.7195C162.777 77.8836 161.946 78.2919 162.149 79.0677C162.514 80.4356 165.552 81.0072 167.861 80.7418C169.077 80.6193 169.198 80.3539 170.231 80.1702C174.586 79.3944 176.592 83.2938 179.448 82.2934C181.473 81.5789 181.494 79.2106 184.127 78.7615C185.038 78.5981 186.072 78.7002 186.153 78.3531C186.234 78.0061 185.383 77.4548 184.654 77.169C183.094 76.5565 181.656 76.9444 181.028 77.0465C178.172 77.4957 175.275 74.5149 173.533 72.7183C168.611 67.6552 168.752 60.6117 168.813 59.1417C168.428 58.9376 166.99 58.223 163.871 59.0805C163.587 59.2438 162.898 59.6317 162.27 60.3871Z" fill="url(#paint66_linear_0_6212)"/>
<path opacity="0.24" d="M186.132 78.3736C186.213 78.0265 185.363 77.4753 184.633 77.1894C183.074 76.577 181.635 76.9649 181.007 77.0669C178.151 77.5161 175.255 74.5354 173.513 72.7388C171.041 70.1868 169.846 67.1448 169.279 64.5724C168.894 67.451 167.861 70.3705 169.056 72.9225C169.948 75.2703 173.371 75.0866 174.627 77.8019C175.174 78.884 176.612 78.7002 177.868 78.884C178.759 78.884 179.124 80.3335 180.379 80.1497C180.926 79.966 181.271 79.0677 181.635 79.0677C182.101 79.0677 182.587 79.0677 183.094 79.1085C183.398 78.9656 183.722 78.8431 184.127 78.7819C185.038 78.6186 186.051 78.7206 186.132 78.3736Z" fill="#F8944E"/>
<path d="M171.325 78.8023C171.001 79.0677 170.251 79.5985 169.34 79.5985C169.198 79.5985 168.935 79.5985 168.59 79.4964C168.104 79.3331 167.78 79.0269 167.618 78.8431C168.894 78.2102 169.745 77.9448 169.745 77.9448L170.434 77.7611L171.325 78.8023Z" fill="url(#paint67_linear_0_6212)"/>
<path d="M181.635 73.29L165.268 79.9252C164.843 80.0885 164.357 79.8843 164.195 79.4556L160.488 70.0847C160.326 69.6559 160.528 69.166 160.954 69.0026L177.321 62.3674C177.746 62.2041 178.232 62.4083 178.394 62.837L182.101 72.2079C182.263 72.6163 182.061 73.1062 181.635 73.29Z" fill="#6165D7"/>
<path d="M181.939 73.3717L165.572 80.0068C165.147 80.1702 164.661 79.966 164.499 79.5373L160.792 70.1663C160.63 69.7376 160.832 69.2476 161.258 69.0843L177.625 62.4491C178.05 62.2858 178.536 62.4899 178.698 62.9187L182.405 72.2896C182.587 72.7183 182.365 73.2083 181.939 73.3717Z" fill="url(#paint68_linear_0_6212)"/>
<path d="M167.942 71.1871C168.833 71.2076 169.644 71.9425 169.745 72.8613C169.765 73.1062 169.745 73.3512 169.664 73.5758L171.649 74.4945C171.811 74.0046 171.892 73.4737 171.811 72.9021C171.568 70.8401 169.745 69.1251 167.699 69.0843H167.679L167.942 71.1871Z" fill="white"/>
<path d="M169.664 73.5554C169.461 74.1066 168.955 74.4741 168.327 74.4741C167.436 74.4537 166.626 73.7187 166.524 72.8C166.423 71.9017 167.051 71.1667 167.942 71.1871L167.699 69.0639C165.653 69.0231 164.175 70.6972 164.418 72.7796C164.661 74.8824 166.524 76.5974 168.57 76.5974C170.029 76.6178 171.203 75.7399 171.649 74.4741L169.664 73.5554Z" fill="url(#paint69_linear_0_6212)"/>
<path d="M179.65 68.1043L172.824 70.9217C172.783 70.9421 172.763 70.9217 172.743 70.8809L172.48 70.2276C172.459 70.1868 172.48 70.1663 172.52 70.1459L179.346 67.3285C179.387 67.3081 179.407 67.3285 179.428 67.3694L179.691 68.0227C179.691 68.0431 179.691 68.0839 179.65 68.1043Z" fill="#4C53A5"/>
<path d="M179.083 66.7161L172.257 69.5335C172.216 69.5539 172.196 69.5335 172.176 69.4926L171.912 68.8393C171.892 68.7985 171.912 68.7781 171.953 68.7576L178.779 65.9402C178.82 65.9198 178.84 65.9402 178.86 65.9811L179.124 66.6344C179.124 66.6548 179.103 66.6956 179.083 66.7161Z" fill="#4C53A5"/>
<path d="M180.785 70.983L173.958 73.8004C173.918 73.8208 173.897 73.8004 173.877 73.7596L173.614 73.1062C173.594 73.0654 173.614 73.045 173.654 73.0246L180.481 70.2072C180.521 70.1868 180.542 70.2072 180.562 70.248L180.825 70.9013C180.825 70.9217 180.805 70.9626 180.785 70.983Z" fill="#4C53A5"/>
<path d="M180.197 69.5743L173.371 72.3917C173.33 72.4121 173.31 72.3917 173.29 72.3509L173.027 71.6975C173.006 71.6567 173.027 71.6363 173.067 71.6159L179.893 68.7985C179.934 68.7781 179.954 68.7985 179.974 68.8393L180.238 69.4926C180.238 69.5335 180.238 69.5743 180.197 69.5743Z" fill="#4C53A5"/>
<path d="M166.808 60.6729C168.469 59.0396 173.675 60.8975 175.619 65.1644C177.301 68.8393 177.787 71.6567 176.085 75.2703C174.769 78.0673 172.48 79.231 171.69 79.5985C171.548 79.3535 171.062 78.9452 170.393 77.9244C172.054 77.2915 173.614 74.2904 173.776 72.4325C173.999 69.9826 172.723 67.6143 171.507 66.7365C170.373 65.9198 166.97 66.859 165.876 66.0831C164.478 65.0828 165.532 61.9183 166.808 60.6729Z" fill="url(#paint70_linear_0_6212)"/>
<path d="M163.992 53.9969C163.709 55.3852 163.587 57.0389 164.499 57.9168C165.309 58.6722 166.484 58.3863 166.565 58.7742C166.727 59.55 162.311 61.3058 161.987 60.7546C161.825 60.4892 163.202 59.8563 163.182 58.8355C163.162 58.4272 162.979 58.1209 161.906 56.6306L161.541 56.7531L163.992 53.9969Z" fill="url(#paint71_linear_0_6212)"/>
<path d="M178.03 55.4669C177.321 53.3028 175.174 52.2207 174.748 52.037C172.216 50.8733 171.224 52.4453 168.226 51.3428C168.104 51.302 167.962 51.2407 167.861 51.1999C169.016 51.5674 169.684 51.5674 170.251 51.5878C170.312 51.5878 170.373 51.5878 170.434 51.5878C170.454 51.5878 170.474 51.5878 170.494 51.5878C170.819 51.5878 171.264 51.5062 171.69 51.4449C171.973 51.4041 172.236 51.3632 172.439 51.3428C173.047 51.302 173.371 51.3632 173.695 51.4449C173.756 51.4653 173.816 51.4653 173.877 51.4857C173.897 51.4857 173.918 51.4653 173.938 51.4449C173.938 51.4245 173.918 51.4041 173.897 51.3837C173.837 51.3632 173.776 51.3632 173.715 51.3428C173.391 51.2612 173.047 51.1999 172.439 51.2407C172.236 51.2612 171.973 51.302 171.669 51.3428C171.244 51.4041 170.758 51.4857 170.434 51.4857C170.373 51.4857 170.312 51.4857 170.251 51.4857C169.583 51.4653 168.752 51.4653 167.132 50.8324C166.929 50.7303 166.747 50.6283 166.565 50.5262C166.626 50.5466 166.686 50.567 166.747 50.6079C167.233 50.7916 167.719 50.9958 168.205 51.0774C168.388 51.0978 168.57 51.1183 168.773 51.1183C168.813 51.1183 168.874 51.1183 168.914 51.1183C168.935 51.1183 168.975 51.0978 168.975 51.057C168.975 51.0366 168.955 50.9958 168.914 50.9958C168.692 50.9958 168.449 50.9958 168.226 50.9549C167.74 50.8733 167.253 50.6895 166.788 50.5058C166.605 50.4241 166.403 50.3629 166.22 50.2812C166.139 50.2608 166.058 50.22 165.977 50.1995C165.349 49.8525 164.64 49.5462 163.526 49.3625C162.534 49.1992 160.69 49.2196 160.204 49.73C159.678 50.3016 161.926 50.8937 162.716 54.7319C162.919 55.7118 163.445 58.0597 165.592 59.9992C166.099 60.4483 170.15 64.0007 174.201 62.2858C176.916 61.1425 178.86 57.978 178.03 55.4669Z" fill="url(#paint72_linear_0_6212)"/>
<g opacity="0.2">
<path d="M178.03 55.4669C177.321 53.3028 175.174 52.2207 174.748 52.037C174.485 51.9145 174.222 51.8124 173.979 51.7512C174.262 51.9553 174.505 52.2207 174.728 52.527C174.931 52.8128 175.437 53.5273 175.315 54.3644C175.214 55.1402 174.667 55.3444 174.141 56.2018C173.27 57.6105 173.897 58.468 173.33 59.2642C172.317 60.6729 168.854 60.1217 166.646 59.1417C165.228 58.5088 164.134 57.6105 163.303 56.7122C163.729 57.733 164.418 58.9376 165.613 60.0196C166.119 60.4688 170.17 64.0212 174.222 62.3062C176.916 61.1425 178.86 57.978 178.03 55.4669Z" fill="url(#paint73_linear_0_6212)"/>
</g>
<path d="M163.385 55.4669C163.385 55.4669 163.466 57.1001 161.886 57.3451C159.941 57.6514 158.969 52.5065 159.394 52.1391C159.9 51.7103 160.488 52.4861 161.724 51.9961C162.25 51.792 162.615 51.0366 162.979 51.7307C163.405 52.5474 163.364 54.099 163.364 54.099C163.364 54.099 163.769 53.6498 163.911 54.099C164.114 54.6911 163.729 55.1198 163.385 55.4669Z" fill="url(#paint74_linear_0_6212)"/>
<path d="M159.495 50.3016C158.969 51.0366 158.807 52.3024 159.333 52.8536C160.083 53.6498 161.764 52.4453 162.655 53.4253C163.06 53.854 163.121 54.5073 163.303 54.4869C163.445 54.4665 163.465 53.9765 163.486 53.5886C163.628 51.4449 164.114 51.1387 163.871 50.567C163.364 49.4237 160.569 48.8112 159.495 50.3016Z" fill="url(#paint75_linear_0_6212)"/>
<path d="M154.431 103.689C154.573 103.485 155.485 103.587 155.93 103.853C156.7 104.281 157.146 105.037 157.348 105.139C157.794 105.384 158.219 105.18 158.26 105.18C158.26 105.18 158.563 105.792 158.017 106.078C157.47 106.364 153.56 104.894 154.431 103.689Z" fill="#26264F"/>
<defs>
<linearGradient id="paint0_linear_0_6212" x1="151.652" y1="-2.45069" x2="123.963" y2="49.062" gradientUnits="userSpaceOnUse">
<stop stop-color="#AA80F9"/>
<stop offset="0.9964" stop-color="#6165D7"/>
</linearGradient>
<linearGradient id="paint1_linear_0_6212" x1="161.377" y1="77.4294" x2="175.522" y2="79.5325" gradientUnits="userSpaceOnUse">
<stop stop-color="#AB316D"/>
<stop offset="1" stop-color="#792D3D"/>
</linearGradient>
<linearGradient id="paint2_linear_0_6212" x1="161.512" y1="61.7824" x2="172.319" y2="61.7824" gradientUnits="userSpaceOnUse">
<stop stop-color="#FFC444"/>
<stop offset="0.9964" stop-color="#F36F56"/>
</linearGradient>
<linearGradient id="paint3_linear_0_6212" x1="158.069" y1="61.6305" x2="184.383" y2="61.6305" gradientUnits="userSpaceOnUse">
<stop offset="0.00359712" stop-color="#E38DDD"/>
<stop offset="1" stop-color="#9571F6"/>
</linearGradient>
<linearGradient id="paint4_linear_0_6212" x1="89.7455" y1="35.9842" x2="101.288" y2="35.9842" gradientUnits="userSpaceOnUse">
<stop stop-color="#FF9085"/>
<stop offset="1" stop-color="#FB6FBB"/>
</linearGradient>
<linearGradient id="paint5_linear_0_6212" x1="128.127" y1="35.1386" x2="151.099" y2="35.1386" gradientUnits="userSpaceOnUse">
<stop stop-color="#FF9085"/>
<stop offset="1" stop-color="#FB6FBB"/>
</linearGradient>
<linearGradient id="paint6_linear_0_6212" x1="48.7059" y1="71.4634" x2="58.4647" y2="71.4634" gradientUnits="userSpaceOnUse">
<stop stop-color="#FF9085"/>
<stop offset="1" stop-color="#FB6FBB"/>
</linearGradient>
<linearGradient id="paint7_linear_0_6212" x1="47.7117" y1="42.2475" x2="53.1872" y2="42.2475" gradientUnits="userSpaceOnUse">
<stop stop-color="#FF9085"/>
<stop offset="1" stop-color="#FB6FBB"/>
</linearGradient>
<linearGradient id="paint8_linear_0_6212" x1="59.1494" y1="42.017" x2="73.8858" y2="45.0335" gradientUnits="userSpaceOnUse">
<stop stop-color="#FF9085"/>
<stop offset="1" stop-color="#FB6FBB"/>
</linearGradient>
<linearGradient id="paint9_linear_0_6212" x1="63.0268" y1="44.6761" x2="76.8914" y2="46.039" gradientUnits="userSpaceOnUse">
<stop stop-color="#FF9085"/>
<stop offset="1" stop-color="#FB6FBB"/>
</linearGradient>
<linearGradient id="paint10_linear_0_6212" x1="64.7682" y1="40.5616" x2="78.7383" y2="42.2739" gradientUnits="userSpaceOnUse">
<stop stop-color="#FF9085"/>
<stop offset="1" stop-color="#FB6FBB"/>
</linearGradient>
<linearGradient id="paint11_linear_0_6212" x1="89.5972" y1="59.9897" x2="116.976" y2="59.9897" gradientUnits="userSpaceOnUse">
<stop stop-color="#FF9085"/>
<stop offset="1" stop-color="#FB6FBB"/>
</linearGradient>
<linearGradient id="paint12_linear_0_6212" x1="30.8967" y1="15.6548" x2="-7.61011" y2="43.1493" gradientUnits="userSpaceOnUse">
<stop stop-color="#AA80F9"/>
<stop offset="0.9964" stop-color="#6165D7"/>
</linearGradient>
<linearGradient id="paint13_linear_0_6212" x1="-0.493416" y1="97.2119" x2="34.8851" y2="180.585" gradientUnits="userSpaceOnUse">
<stop stop-color="#FF9085"/>
<stop offset="1" stop-color="#FB6FBB"/>
</linearGradient>
<linearGradient id="paint14_linear_0_6212" x1="8.41241" y1="97.273" x2="50.7199" y2="177.307" gradientUnits="userSpaceOnUse">
<stop stop-color="#FF9085"/>
<stop offset="1" stop-color="#FB6FBB"/>
</linearGradient>
<linearGradient id="paint15_linear_0_6212" x1="-8.13106" y1="94.4585" x2="18.1453" y2="180.253" gradientUnits="userSpaceOnUse">
<stop stop-color="#FF9085"/>
<stop offset="1" stop-color="#FB6FBB"/>
</linearGradient>
<linearGradient id="paint16_linear_0_6212" x1="94.1373" y1="117.198" x2="99.0207" y2="110.898" gradientUnits="userSpaceOnUse">
<stop stop-color="#40447E"/>
<stop offset="0.9964" stop-color="#3C3B6B"/>
</linearGradient>
<linearGradient id="paint17_linear_0_6212" x1="41.735" y1="124.895" x2="101.249" y2="195.777" gradientUnits="userSpaceOnUse">
<stop stop-color="#FFC444"/>
<stop offset="0.9964" stop-color="#F36F56"/>
</linearGradient>
<linearGradient id="paint18_linear_0_6212" x1="29.9569" y1="106.25" x2="39.081" y2="134.838" gradientUnits="userSpaceOnUse">
<stop stop-color="#311944"/>
<stop offset="1" stop-color="#6B3976"/>
</linearGradient>
<linearGradient id="paint19_linear_0_6212" x1="44.3034" y1="126.443" x2="79.6596" y2="117.612" gradientUnits="userSpaceOnUse">
<stop stop-color="#311944"/>
<stop offset="1" stop-color="#893976"/>
</linearGradient>
<linearGradient id="paint20_linear_0_6212" x1="78.1543" y1="106.721" x2="63.8556" y2="88.4621" gradientUnits="userSpaceOnUse">
<stop stop-color="#AA80F9"/>
<stop offset="0.9964" stop-color="#6165D7"/>
</linearGradient>
<linearGradient id="paint21_linear_0_6212" x1="61.2978" y1="101.417" x2="55.3226" y2="86.859" gradientUnits="userSpaceOnUse">
<stop stop-color="#AA80F9"/>
<stop offset="0.9964" stop-color="#6165D7"/>
</linearGradient>
<linearGradient id="paint22_linear_0_6212" x1="63.8541" y1="102.175" x2="60.5637" y2="86.8204" gradientUnits="userSpaceOnUse">
<stop stop-color="#AA80F9"/>
<stop offset="0.9964" stop-color="#6165D7"/>
</linearGradient>
<linearGradient id="paint23_linear_0_6212" x1="58.8845" y1="104.274" x2="70.0053" y2="91.6704" gradientUnits="userSpaceOnUse">
<stop stop-color="#FFC444"/>
<stop offset="0.9964" stop-color="#F36F56"/>
</linearGradient>
<linearGradient id="paint24_linear_0_6212" x1="57.7016" y1="103.244" x2="50.7443" y2="88.3048" gradientUnits="userSpaceOnUse">
<stop offset="0.2828" stop-color="#AA80F9"/>
<stop offset="0.9964" stop-color="#6165D7"/>
</linearGradient>
<linearGradient id="paint25_linear_0_6212" x1="52.2948" y1="87.8649" x2="51.8292" y2="78.0125" gradientUnits="userSpaceOnUse">
<stop stop-color="#FFC444"/>
<stop offset="0.9964" stop-color="#F36F56"/>
</linearGradient>
<linearGradient id="paint26_linear_0_6212" x1="51.2059" y1="86.5711" x2="55.1423" y2="76.1692" gradientUnits="userSpaceOnUse">
<stop stop-color="#311944"/>
<stop offset="1" stop-color="#6B3976"/>
</linearGradient>
<linearGradient id="paint27_linear_0_6212" x1="39.0268" y1="78.8614" x2="39.9095" y2="97.8205" gradientUnits="userSpaceOnUse">
<stop stop-color="#FFC444"/>
<stop offset="0.9964" stop-color="#F36F56"/>
</linearGradient>
<linearGradient id="paint28_linear_0_6212" x1="47.6212" y1="88.8257" x2="55.135" y2="84.3721" gradientUnits="userSpaceOnUse">
<stop stop-color="#311944"/>
<stop offset="1" stop-color="#6B3976"/>
</linearGradient>
<linearGradient id="paint29_linear_0_6212" x1="52.2796" y1="85.7267" x2="54.2447" y2="74.8754" gradientUnits="userSpaceOnUse">
<stop stop-color="#311944"/>
<stop offset="1" stop-color="#6B3976"/>
</linearGradient>
<linearGradient id="paint30_linear_0_6212" x1="59.2608" y1="103.689" x2="72.0871" y2="102.808" gradientUnits="userSpaceOnUse">
<stop stop-color="#40447E"/>
<stop offset="0.9964" stop-color="#3C3B6B"/>
</linearGradient>
<linearGradient id="paint31_linear_0_6212" x1="82.109" y1="102.534" x2="83.5948" y2="98.5013" gradientUnits="userSpaceOnUse">
<stop stop-color="#40447E"/>
<stop offset="0.9964" stop-color="#3C3B6B"/>
</linearGradient>
<linearGradient id="paint32_linear_0_6212" x1="46.437" y1="132.548" x2="114.602" y2="195.251" gradientUnits="userSpaceOnUse">
<stop stop-color="#FFC444"/>
<stop offset="0.9964" stop-color="#F36F56"/>
</linearGradient>
<linearGradient id="paint33_linear_0_6212" x1="54.2491" y1="116.684" x2="82.9859" y2="109.934" gradientUnits="userSpaceOnUse">
<stop stop-color="#311944"/>
<stop offset="1" stop-color="#6B3976"/>
</linearGradient>
<linearGradient id="paint34_linear_0_6212" x1="49.1197" y1="120.098" x2="71.927" y2="98.2039" gradientUnits="userSpaceOnUse">
<stop stop-color="#311944"/>
<stop offset="1" stop-color="#893976"/>
</linearGradient>
<linearGradient id="paint35_linear_0_6212" x1="61.4494" y1="109.381" x2="67.0687" y2="96.5501" gradientUnits="userSpaceOnUse">
<stop stop-color="#311944"/>
<stop offset="1" stop-color="#6B3976"/>
</linearGradient>
<linearGradient id="paint36_linear_0_6212" x1="46.791" y1="53.6334" x2="-8.21963" y2="35.3973" gradientUnits="userSpaceOnUse">
<stop stop-color="#FFC444"/>
<stop offset="0.9964" stop-color="#F36F56"/>
</linearGradient>
<linearGradient id="paint37_linear_0_6212" x1="-5.23306" y1="97.6004" x2="20.7967" y2="129.446" gradientUnits="userSpaceOnUse">
<stop offset="0.00359712" stop-color="#E38DDD"/>
<stop offset="1" stop-color="#9571F6"/>
</linearGradient>
<linearGradient id="paint38_linear_0_6212" x1="87.7683" y1="54.0688" x2="137.365" y2="54.0688" gradientUnits="userSpaceOnUse">
<stop stop-color="#E3E7EF"/>
<stop offset="1" stop-color="#FAFBFD"/>
</linearGradient>
<linearGradient id="paint39_linear_0_6212" x1="105.034" y1="38.8326" x2="116.791" y2="39.453" gradientUnits="userSpaceOnUse">
<stop stop-color="#FF9085"/>
<stop offset="1" stop-color="#FB6FBB"/>
</linearGradient>
<linearGradient id="paint40_linear_0_6212" x1="99.7324" y1="33.2331" x2="97.0926" y2="34.2564" gradientUnits="userSpaceOnUse">
<stop stop-color="#FFC444"/>
<stop offset="0.9964" stop-color="#F36F56"/>
</linearGradient>
<linearGradient id="paint41_linear_0_6212" x1="132.738" y1="36.4862" x2="128.789" y2="37.7914" gradientUnits="userSpaceOnUse">
<stop stop-color="#FFC444"/>
<stop offset="0.9964" stop-color="#F36F56"/>
</linearGradient>
<linearGradient id="paint42_linear_0_6212" x1="107.528" y1="37.2334" x2="117.965" y2="60.8444" gradientUnits="userSpaceOnUse">
<stop stop-color="#FF9085"/>
<stop offset="1" stop-color="#FB6FBB"/>
</linearGradient>
<linearGradient id="paint43_linear_0_6212" x1="127.338" y1="88.1907" x2="127.338" y2="84.6748" gradientUnits="userSpaceOnUse">
<stop stop-color="#FFC444"/>
<stop offset="0.9964" stop-color="#F36F56"/>
</linearGradient>
<linearGradient id="paint44_linear_0_6212" x1="116.158" y1="89.1927" x2="116.158" y2="84.9556" gradientUnits="userSpaceOnUse">
<stop stop-color="#FFC444"/>
<stop offset="0.9964" stop-color="#F36F56"/>
</linearGradient>
<linearGradient id="paint45_linear_0_6212" x1="93.0637" y1="48.3338" x2="110.996" y2="73.0126" gradientUnits="userSpaceOnUse">
<stop stop-color="#FF9085"/>
<stop offset="1" stop-color="#FB6FBB"/>
</linearGradient>
<linearGradient id="paint46_linear_0_6212" x1="112.884" y1="86.4764" x2="126.913" y2="86.4764" gradientUnits="userSpaceOnUse">
<stop stop-color="#311944"/>
<stop offset="1" stop-color="#893976"/>
</linearGradient>
<linearGradient id="paint47_linear_0_6212" x1="108.213" y1="72.2489" x2="122.798" y2="78.3887" gradientUnits="userSpaceOnUse">
<stop stop-color="#311944"/>
<stop offset="1" stop-color="#893976"/>
</linearGradient>
<linearGradient id="paint48_linear_0_6212" x1="111.996" y1="69.4628" x2="126.71" y2="76.2453" gradientUnits="userSpaceOnUse">
<stop stop-color="#311944"/>
<stop offset="1" stop-color="#893976"/>
</linearGradient>
<linearGradient id="paint49_linear_0_6212" x1="99.2258" y1="47.8094" x2="122.232" y2="65.7258" gradientUnits="userSpaceOnUse">
<stop stop-color="#FF9085"/>
<stop offset="1" stop-color="#FB6FBB"/>
</linearGradient>
<linearGradient id="paint50_linear_0_6212" x1="87.8428" y1="44.8271" x2="109.164" y2="73.6061" gradientUnits="userSpaceOnUse">
<stop stop-color="#FF9085"/>
<stop offset="1" stop-color="#FB6FBB"/>
</linearGradient>
<linearGradient id="paint51_linear_0_6212" x1="120.253" y1="36.5159" x2="114.696" y2="41.1676" gradientUnits="userSpaceOnUse">
<stop stop-color="#FFC444"/>
<stop offset="0.9964" stop-color="#F36F56"/>
</linearGradient>
<linearGradient id="paint52_linear_0_6212" x1="120.019" y1="43.0532" x2="126.079" y2="43.0532" gradientUnits="userSpaceOnUse">
<stop stop-color="#311944"/>
<stop offset="1" stop-color="#6B3976"/>
</linearGradient>
<linearGradient id="paint53_linear_0_6212" x1="117.607" y1="37.2942" x2="115.349" y2="44.2978" gradientUnits="userSpaceOnUse">
<stop stop-color="#FFC444"/>
<stop offset="0.9964" stop-color="#F36F56"/>
</linearGradient>
<linearGradient id="paint54_linear_0_6212" x1="110.337" y1="40.8287" x2="110.762" y2="46.5351" gradientUnits="userSpaceOnUse">
<stop offset="0.00359712" stop-color="#E38DDD"/>
<stop offset="1" stop-color="#9571F6"/>
</linearGradient>
<linearGradient id="paint55_linear_0_6212" x1="46.3975" y1="59.9194" x2="48.4605" y2="72.6574" gradientUnits="userSpaceOnUse">
<stop offset="0.00359712" stop-color="#E38DDD"/>
<stop offset="1" stop-color="#9571F6"/>
</linearGradient>
<linearGradient id="paint56_linear_0_6212" x1="32.5683" y1="60.0941" x2="33.1105" y2="71.632" gradientUnits="userSpaceOnUse">
<stop offset="0.00359712" stop-color="#E38DDD"/>
<stop offset="1" stop-color="#9571F6"/>
</linearGradient>
<linearGradient id="paint57_linear_0_6212" x1="65.1562" y1="60.2211" x2="72.3155" y2="60.2211" gradientUnits="userSpaceOnUse">
<stop stop-color="#AA80F9"/>
<stop offset="0.9964" stop-color="#6165D7"/>
</linearGradient>
<linearGradient id="paint58_linear_0_6212" x1="184.075" y1="90.2494" x2="186.455" y2="90.2494" gradientUnits="userSpaceOnUse">
<stop stop-color="#FFC444"/>
<stop offset="0.9964" stop-color="#F36F56"/>
</linearGradient>
<linearGradient id="paint59_linear_0_6212" x1="159.294" y1="107.895" x2="163.889" y2="102.841" gradientUnits="userSpaceOnUse">
<stop stop-color="#FFC444"/>
<stop offset="0.9964" stop-color="#F36F56"/>
</linearGradient>
<linearGradient id="paint60_linear_0_6212" x1="151.697" y1="77.8252" x2="158.876" y2="77.8252" gradientUnits="userSpaceOnUse">
<stop stop-color="#FFC444"/>
<stop offset="0.9964" stop-color="#F36F56"/>
</linearGradient>
<linearGradient id="paint61_linear_0_6212" x1="158.971" y1="61.6666" x2="167.739" y2="61.6666" gradientUnits="userSpaceOnUse">
<stop stop-color="#6E1F3F"/>
<stop offset="1" stop-color="#792D3D"/>
</linearGradient>
<linearGradient id="paint62_linear_0_6212" x1="156.872" y1="102.828" x2="170.92" y2="102.828" gradientUnits="userSpaceOnUse">
<stop stop-color="#311944"/>
<stop offset="1" stop-color="#893976"/>
</linearGradient>
<linearGradient id="paint63_linear_0_6212" x1="156.444" y1="98.2496" x2="181.704" y2="110.051" gradientUnits="userSpaceOnUse">
<stop stop-color="#311944"/>
<stop offset="1" stop-color="#893976"/>
</linearGradient>
<linearGradient id="paint64_linear_0_6212" x1="168.698" y1="92.197" x2="185.779" y2="89.0498" gradientUnits="userSpaceOnUse">
<stop stop-color="#311944"/>
<stop offset="1" stop-color="#893976"/>
</linearGradient>
<linearGradient id="paint65_linear_0_6212" x1="153.695" y1="73.028" x2="160.555" y2="74.8913" gradientUnits="userSpaceOnUse">
<stop stop-color="#FFC444"/>
<stop offset="0.9964" stop-color="#F36F56"/>
</linearGradient>
<linearGradient id="paint66_linear_0_6212" x1="155.659" y1="81.7337" x2="181.583" y2="101.043" gradientUnits="userSpaceOnUse">
<stop stop-color="#FFC444"/>
<stop offset="0.9964" stop-color="#F36F56"/>
</linearGradient>
<linearGradient id="paint67_linear_0_6212" x1="166.966" y1="78.9092" x2="167.67" y2="81.5819" gradientUnits="userSpaceOnUse">
<stop stop-color="#FFC444"/>
<stop offset="0.9964" stop-color="#F36F56"/>
</linearGradient>
<linearGradient id="paint68_linear_0_6212" x1="160.731" y1="80.0741" x2="182.468" y2="80.0741" gradientUnits="userSpaceOnUse">
<stop stop-color="#AA80F9"/>
<stop offset="0.9964" stop-color="#6165D7"/>
</linearGradient>
<linearGradient id="paint69_linear_0_6212" x1="164.383" y1="76.5977" x2="171.637" y2="76.5977" gradientUnits="userSpaceOnUse">
<stop stop-color="#FF9085"/>
<stop offset="1" stop-color="#FB6FBB"/>
</linearGradient>
<linearGradient id="paint70_linear_0_6212" x1="164.573" y1="73.2785" x2="176.586" y2="78.4567" gradientUnits="userSpaceOnUse">
<stop stop-color="#FFC444"/>
<stop offset="0.9964" stop-color="#F36F56"/>
</linearGradient>
<linearGradient id="paint71_linear_0_6212" x1="169.07" y1="60.6901" x2="164.029" y2="50.8729" gradientUnits="userSpaceOnUse">
<stop stop-color="#FFC444"/>
<stop offset="0.9964" stop-color="#F36F56"/>
</linearGradient>
<linearGradient id="paint72_linear_0_6212" x1="153.328" y1="56.5496" x2="166.481" y2="70.2331" gradientUnits="userSpaceOnUse">
<stop stop-color="#AB316D"/>
<stop offset="1" stop-color="#792D3D"/>
</linearGradient>
<linearGradient id="paint73_linear_0_6212" x1="151.389" y1="56.4143" x2="165.597" y2="71.4436" gradientUnits="userSpaceOnUse">
<stop stop-color="#AB316D"/>
<stop offset="1" stop-color="#792D3D"/>
</linearGradient>
<linearGradient id="paint74_linear_0_6212" x1="154.442" y1="54.362" x2="158.759" y2="71.8182" gradientUnits="userSpaceOnUse">
<stop stop-color="#FFC444"/>
<stop offset="0.9964" stop-color="#F36F56"/>
</linearGradient>
<linearGradient id="paint75_linear_0_6212" x1="153.259" y1="59.4185" x2="172.201" y2="69.754" gradientUnits="userSpaceOnUse">
<stop stop-color="#AB316D"/>
<stop offset="1" stop-color="#792D3D"/>
</linearGradient>
</defs>
</svg>
