<svg width="92" height="80" viewBox="0 0 92 80" fill="none" xmlns="http://www.w3.org/2000/svg">
<path fill-rule="evenodd" clip-rule="evenodd" d="M35.0159 55.4286C35.0159 55.4286 36.1572 25.4141 69.3026 29.4865C102.448 33.559 91.1005 62.4464 83.8326 69.7606C76.5648 77.0747 63.8132 85.065 46.002 75.8597C34.5816 68.9537 35.0159 55.4286 35.0159 55.4286Z" fill="#FFC107" fill-opacity="0.5"/>
<path fill-rule="evenodd" clip-rule="evenodd" d="M35.0006 70C34.5968 70.0007 34.2092 69.8409 33.9233 69.5556L24.793 60.4252C24.2091 59.8207 24.2259 58.8573 24.8304 58.2734C25.4201 57.7037 26.355 57.7037 26.9447 58.2734L33.4789 64.8052V36.5217H5.19656L11.7276 43.0528C12.3226 43.6463 12.3237 44.6098 11.7303 45.2049C11.4448 45.4912 11.0573 45.6521 10.6532 45.6521C10.2493 45.6529 9.8617 45.4931 9.57581 45.2077L0.445531 36.0773C-0.115129 35.5165 -0.146635 34.6269 0.351018 34.0291C0.386949 33.9858 0.425237 33.9445 0.465685 33.9054L9.57581 24.7951C10.1803 24.2113 11.1437 24.228 11.7276 24.8325C12.2971 25.4223 12.2971 26.3571 11.7276 26.9467L5.19627 33.4781H33.4789V5.19592L26.9477 11.7296C26.3433 12.3135 25.3799 12.2967 24.796 11.6922C24.2265 11.1025 24.2265 10.1676 24.796 9.57796L33.8652 0.508612C34.1439 0.196501 34.5493 0 35.0006 0C35.4323 0 35.8219 0.179719 36.0989 0.468405L45.2083 9.57796C45.8016 10.1732 45.8001 11.1367 45.2049 11.73C44.9197 12.0142 44.5335 12.1739 44.1309 12.174C43.727 12.1747 43.3394 12.0149 43.0535 11.7296L36.5224 5.19592V33.4781H64.8042L58.2706 26.9469C57.6867 26.3424 57.7035 25.379 58.308 24.7951C58.8977 24.2255 59.8326 24.2255 60.4223 24.7951L69.4928 33.8657C69.8041 34.1443 70 34.5493 70 34.9999C70 35.4296 69.8219 35.8177 69.5356 36.0944L60.4223 45.2077C60.1372 45.4924 59.7508 45.6521 59.348 45.6521C58.5075 45.6537 57.8251 44.9735 57.8235 44.1331C57.8228 43.7279 57.9837 43.3391 58.2706 43.053L64.8042 36.5217H36.5224V64.8046L43.0536 58.2734C43.658 57.6895 44.6214 57.7063 45.2053 58.3108C45.7749 58.9005 45.7749 59.8354 45.2053 60.4252L36.0934 69.5372C35.8169 69.8226 35.4295 70 35.0006 70Z" fill="#544837"/>
</svg>
