<svg width="97" height="95" viewBox="0 0 97 95" fill="none" xmlns="http://www.w3.org/2000/svg">
<path fill-rule="evenodd" clip-rule="evenodd" d="M21.4481 65.9145C21.4481 65.9145 14.1292 30.7406 54.9799 25.5755C95.8305 20.4103 90.6072 57.322 84.0246 67.9794C77.4421 78.6367 64.4915 91.7153 40.5095 86.3473C24.8419 81.7406 21.4481 65.9145 21.4481 65.9145Z" fill="#28B0FF" fill-opacity="0.5"/>
<path fill-rule="evenodd" clip-rule="evenodd" d="M69.6799 1.66674C69.1475 0.606086 68.0828 0 66.942 0H3.05801C1.91723 0 0.852495 0.681847 0.320129 1.66674C-0.212238 2.72739 -0.0601332 3.93956 0.624338 4.84869L27.4708 38.4865V60.3813C27.4708 61.5177 28.0792 62.5026 29.0679 63.033C29.5242 63.2602 29.9805 63.4118 30.5129 63.4118C31.1213 63.4118 31.7297 63.2602 32.2621 62.8814L40.7039 57.0479C41.9208 56.1387 42.6052 54.775 42.6052 53.3356V38.4107L69.3757 4.84869C70.0601 3.93956 70.2122 2.72739 69.6799 1.66674ZM39.8674 36.9713C39.7152 37.1985 39.5631 37.5016 39.5631 37.8804V53.2598C39.5631 53.7901 39.335 54.2447 38.9547 54.5478L30.5129 60.3813V37.8804C30.5129 37.3501 30.2848 36.8955 29.9045 36.6682L12.7167 15.1522H40.3237C41.1602 15.1522 41.8447 14.4703 41.8447 13.6369C41.8447 12.8036 41.1602 12.1217 40.3237 12.1217H10.6632H10.359L3.05801 3.03043H66.942L39.8674 36.9713ZM49.4499 15.1522H47.1684C46.3318 15.1522 45.6473 14.4703 45.6473 13.6369C45.6473 12.8036 46.3318 12.1217 47.1684 12.1217H49.4499C50.2865 12.1217 50.971 12.8036 50.971 13.6369C50.971 14.4703 50.2865 15.1522 49.4499 15.1522Z" fill="#544837"/>
</svg>
