<svg width="98" height="81" viewBox="0 0 98 81" fill="none" xmlns="http://www.w3.org/2000/svg">
<path fill-rule="evenodd" clip-rule="evenodd" d="M26.8965 53.3328C26.8965 53.3328 27.7206 19.7677 68.7358 23.604C109.751 27.4403 96.2998 59.966 87.4664 68.2961C78.6331 76.6262 63.0402 85.83 40.8633 75.9272C26.624 68.4561 26.8965 53.3328 26.8965 53.3328Z" fill="#34B933" fill-opacity="0.5"/>
<path fill-rule="evenodd" clip-rule="evenodd" d="M65.7537 30.625H37.991C37.1834 30.625 36.5299 29.9727 36.5297 29.1668V1.45838C36.5297 0.652285 37.1833 0 37.991 0C54.1055 0 67.2149 13.0837 67.2149 29.1666C67.2149 29.9727 66.5613 30.625 65.7537 30.625ZM64.2526 27.7084C63.5176 14.3925 52.7942 3.69004 39.4522 2.95654V27.7084H64.2526ZM40.7762 33.5416H68.5388C69.3464 33.5416 70 34.1939 70 35C70 42.7901 66.9607 50.1145 61.4415 55.6246C61.1675 55.898 60.7965 56.0518 60.4083 56.0518C60.0201 56.0518 59.6491 55.898 59.3752 55.6246L39.7432 36.031C39.325 35.6137 39.1995 34.9871 39.4263 34.4416C39.6518 33.8963 40.1854 33.5416 40.7762 33.5416ZM44.3036 36.4584L60.3796 52.5029C64.3864 48.0438 66.7123 42.4383 67.0377 36.4584H44.3036ZM33.6074 34.3961V7.29162C33.6074 6.48553 32.9538 5.83324 32.1461 5.83324C14.4207 5.83338 0 20.2259 0 37.9166C0 55.6073 14.4207 70 32.1463 70C41.3971 70 50.2143 65.9924 56.3358 59.0041C56.8424 58.4259 56.8124 57.5557 56.2687 57.0131L33.6074 34.3961ZM32.1463 67.0834C16.0318 67.0834 2.92248 53.9997 2.92248 37.9168C2.92248 22.3237 15.247 9.54762 30.6852 8.78568V35C30.6852 35.3873 30.8393 35.7577 31.1133 36.0311L53.2138 58.0884C47.7043 63.8206 40.1015 67.0834 32.1463 67.0834Z" fill="#544837"/>
</svg>
