<svg width="97" height="94" viewBox="0 0 97 94" fill="none" xmlns="http://www.w3.org/2000/svg">
<path fill-rule="evenodd" clip-rule="evenodd" d="M26.0199 59.7928C26.0199 59.7928 27.4479 18.0079 68.9187 23.6773C110.39 29.3468 96.1917 69.5626 87.0984 79.7451C78.005 89.9276 62.0505 101.051 39.7655 88.236C25.4766 78.6218 26.0199 59.7928 26.0199 59.7928Z" fill="#6989F7" fill-opacity="0.5"/>
<path fill-rule="evenodd" clip-rule="evenodd" d="M35 0C15.6701 0 0 15.6701 0 35C0 54.3299 15.6701 70 35 70C54.3299 70 70 54.3299 70 35C70 15.6701 54.3299 0 35 0ZM53.9151 8.90464C52.6102 9.29385 51.344 9.7088 50.1173 10.15C49.11 8.86678 47.5754 8.1094 45.9442 8.09038C45.55 8.09123 45.1572 8.13632 44.7731 8.225C43.6019 6.24615 42.4981 4.60385 41.6096 3.35192C46.059 4.30954 50.2533 6.20291 53.9151 8.90464ZM43.0769 54.4923C43.6645 54.4985 44.2469 54.6032 44.8 54.8019C48.7259 48.3131 50.572 40.7784 50.0904 33.2096C50.0396 33.2009 49.9889 33.1914 49.9383 33.1813C47.0588 32.6045 45.1922 29.8025 45.7692 26.9231C41.5812 25.0849 37.0916 24.031 32.5231 23.8135C28.2256 28.0407 25.0514 33.2739 23.2885 39.0385C23.6358 39.2205 23.9615 39.4408 24.2599 39.6952C26.4719 41.5812 26.7361 44.9033 24.85 47.1154C28.7045 51.3043 33.4087 54.6224 38.6481 56.8481C39.6461 55.3811 41.3027 54.4999 43.0769 54.4923ZM45.7692 59.8365C45.7692 61.3235 44.5639 62.5288 43.0769 62.5288C41.5899 62.5288 40.3846 61.3235 40.3846 59.8365C40.3846 58.3495 41.5899 57.1442 43.0769 57.1442C44.5639 57.1442 45.7692 58.3495 45.7692 59.8365ZM28.7269 23.8942C25.3715 24.1034 22.0539 24.7182 18.8462 25.725C18.905 25.9017 18.9545 26.0814 18.9942 26.2635C18.9767 28.2309 17.8879 30.032 16.1538 30.9615C16.8841 33.6185 17.8621 36.2009 19.075 38.675C19.5833 38.5059 20.1144 38.415 20.65 38.4058C22.262 33.0419 25.0176 28.0909 28.7269 23.8942ZM45.9308 18.8462C46.2426 18.8421 46.5534 18.8106 46.8596 18.7519C47.4519 20.2865 47.968 21.8166 48.4077 23.3423C47.898 23.6511 47.4432 24.0423 47.0615 24.5C43.3377 22.8712 39.3895 21.8137 35.35 21.3635C37.3983 19.6925 39.5872 18.2017 41.8923 16.9077C42.8861 18.1186 44.3643 18.8281 45.9308 18.8462ZM45.9308 10.7692C44.4438 10.7692 43.2385 11.9745 43.2385 13.4615H43.2788C43.2787 14.9329 44.4596 16.1318 45.9308 16.1538C47.4178 16.1538 48.6231 14.9485 48.6231 13.4615C48.6231 11.9745 47.4178 10.7692 45.9308 10.7692ZM48.4615 27.9596C48.4615 26.4726 49.6669 25.2673 51.1538 25.2673C52.6408 25.2673 53.8462 26.4726 53.8462 27.9596C53.8462 29.4466 52.6408 30.6519 51.1538 30.6519C49.6669 30.6519 48.4615 29.4466 48.4615 27.9596ZM35 2.69231C27.4597 2.70257 20.1634 5.36661 14.3904 10.2173C14.0104 13.8186 13.9924 17.449 14.3365 21.0538C15.8028 21.243 17.1268 22.0266 17.9981 23.2212C22.3482 21.8259 26.8913 21.1264 31.4596 21.1481C34.2497 18.5396 37.346 16.2795 40.6808 14.4173C40.6202 14.1023 40.5886 13.7823 40.5865 13.4615C40.6062 11.966 41.2564 10.5483 42.3769 9.55769C41.0092 7.21067 39.4798 4.96175 37.8 2.82692C36.8712 2.69231 35.9423 2.69231 35 2.69231ZM13.6231 23.6654L13.6365 23.6788C15.1235 23.6788 16.3288 24.8842 16.3288 26.3712C16.3288 27.8581 15.1235 29.0635 13.6365 29.0635C12.1495 29.0635 10.9442 27.8581 10.9442 26.3712C10.9368 24.8843 12.1361 23.6728 13.6231 23.6654ZM11.6038 21.3769C11.354 18.5931 11.3 15.7953 11.4423 13.0038C6.86454 17.8584 3.91024 24.0166 2.98846 30.625C4.71709 29.4128 6.51505 28.3025 8.37308 27.3C8.31115 26.9761 8.27952 26.6471 8.27885 26.3173C8.29281 24.1517 9.60279 22.2053 11.6038 21.3769ZM2.69231 35V34.2192C4.80611 32.5347 7.05755 31.0307 9.42308 29.7231C10.4196 30.9289 11.8973 31.6333 13.4615 31.6481C14.3046 34.5734 15.4318 37.4094 16.8269 40.1154C14.822 42.2509 14.9278 45.6075 17.0635 47.6125C17.5782 48.0957 18.1844 48.4713 18.8462 48.7173C18.5446 53.6843 18.9434 58.6691 20.0308 63.525C9.40642 57.9703 2.73151 46.9888 2.69231 35ZM18.025 43.7365H18.0788C18.0785 45.2027 19.2515 46.3996 20.7173 46.4288C22.2043 46.4288 23.4096 45.2235 23.4096 43.7365C23.4096 42.2495 22.2043 41.0442 20.7173 41.0442C19.2303 41.0442 18.025 42.2495 18.025 43.7365ZM34.0577 67.2269C30.3251 67.1221 26.6395 66.3659 23.1673 64.9923C21.7697 59.7835 21.2198 54.3836 21.5385 49C21.9344 48.9458 22.3229 48.8465 22.6962 48.7038C26.8721 53.3548 32.0191 57.0313 37.7731 59.4731V59.8904C37.7701 60.9727 38.0988 62.0298 38.7154 62.9192C37.2403 64.4367 35.6855 65.8747 34.0577 67.2269ZM40.7077 64.6154C39.9675 65.4448 39.1515 66.2653 38.2607 67.077C42.5851 66.6395 46.7751 65.3256 50.575 63.2154C49.5654 63.0404 48.5827 62.825 47.6135 62.5962C46.6456 64.1863 44.9249 65.1636 43.0635 65.1808C42.245 65.1781 41.4383 64.9844 40.7077 64.6154ZM53.983 61.0464C52.062 60.7773 50.1945 60.428 48.3942 60.0115V59.8365C48.3946 58.5353 47.9153 57.2797 47.0481 56.3096C51.3315 49.3143 53.3486 41.1664 52.8231 32.9808C53.4659 32.7536 54.0597 32.4065 54.5731 31.9577C58.9053 35.1925 62.8131 38.9599 66.2038 43.1712C64.3078 50.3579 59.9915 56.6711 53.983 61.0464ZM56.1346 29.7231C60.0945 32.6654 63.7072 36.0481 66.9038 39.8058L66.9442 39.7519C68.5623 29.0204 64.6657 18.1956 56.5788 10.9577C54.6808 11.4692 52.9038 12.0346 51.1942 12.6404C51.2429 12.9115 51.2698 13.1861 51.275 13.4615C51.2868 15.0448 50.5908 16.5506 49.3769 17.5673C50.032 19.2455 50.5974 20.9147 51.0731 22.575C54.0469 22.575 56.4577 24.9858 56.4577 27.9596C56.4513 28.5615 56.3421 29.158 56.1346 29.7231Z" fill="#544837"/>
</svg>
