<svg width="83" height="84" viewBox="0 0 83 84" fill="none" xmlns="http://www.w3.org/2000/svg">
<path fill-rule="evenodd" clip-rule="evenodd" d="M24.8181 63.6525C24.8181 63.6525 18.0149 31.3828 53.0696 27.2512C88.1242 23.1197 84.167 56.7969 78.6607 66.4469C73.1543 76.0969 62.2069 87.8687 41.5058 82.6127C27.9658 78.1734 24.8181 63.6525 24.8181 63.6525Z" fill="#28B0FF" fill-opacity="0.5"/>
<path fill-rule="evenodd" clip-rule="evenodd" d="M57 9.95192H46V6.96635C45.9956 3.1208 42.8641 0.00435397 39 0H21C17.1359 0.00435397 14.0044 3.1208 14 6.96635V9.95192H3C1.34312 9.95192 0 11.2886 0 12.9375V32.8413C0.00525 34.102 0.805625 35.2236 2 35.6438V48.7644C2 50.4133 3.34312 51.75 5 51.75H55C56.6569 51.75 58 50.4133 58 48.7644V35.6438C59.1944 35.2236 59.9948 34.102 60 32.8413V12.9375C60 11.2886 58.6569 9.95192 57 9.95192ZM16 6.96635C16.0033 4.21962 18.24 1.99362 21 1.99038H39C41.76 1.99362 43.9967 4.21962 44 6.96635V9.95192H41.96L42 6.96635C41.9967 5.31881 40.6555 3.984 39 3.98077H20.963C19.3075 3.984 17.9662 5.31881 17.963 6.96635V6.9763L17.99 9.95192H16V6.96635ZM39.96 9.95192L40 6.95241C39.9924 6.40817 39.5469 5.97115 39 5.97115H20.959C20.4067 5.97115 19.959 6.41675 19.959 6.96635L19.99 9.95192H39.96ZM56 48.7644C56 49.314 55.5522 49.7596 55 49.7596H5C4.44775 49.7596 4 49.314 4 48.7644V35.8269H11V38.8125C11 39.3621 11.4478 39.8077 12 39.8077H16C16.5522 39.8077 17 39.3621 17 38.8125V35.8269H43V38.8125C43 39.3621 43.4478 39.8077 44 39.8077H48C48.5522 39.8077 49 39.3621 49 38.8125V35.8269H56V48.7644ZM13 32.8413V37.8173H15V34.8317V32.8413C15 32.2918 14.5522 31.8462 14 31.8462C13.7393 31.8432 13.4889 31.9468 13.307 32.1328C13.1106 32.3165 12.9995 32.573 13 32.8413ZM45 37.8173V32.8413C45 32.2918 45.4478 31.8462 46 31.8462C46.2697 31.8453 46.5279 31.9555 46.713 32.1507C46.8985 32.3329 47.002 32.582 47 32.8413V34.8317V37.8173H45ZM57 33.8365C57.5522 33.8365 58 33.3909 58 32.8413V12.9375C58 12.3879 57.5522 11.9423 57 11.9423H3C2.44775 11.9423 2 12.3879 2 12.9375V32.8413C2 33.3909 2.44775 33.8365 3 33.8365H11V32.8413C11.0092 31.1963 12.347 29.865 14 29.8558C15.6569 29.8558 17 31.1924 17 32.8413V33.8365H43V32.8413C43 31.1924 44.3431 29.8558 46 29.8558C47.6539 29.8629 48.9929 31.1954 49 32.8413V33.8365H57Z" fill="#544837"/>
</svg>
