<svg width="90" height="86" viewBox="0 0 90 86" fill="none" xmlns="http://www.w3.org/2000/svg">
<path fill-rule="evenodd" clip-rule="evenodd" d="M26.0179 59.0197C26.0179 59.0197 27.3051 26.0626 64.6873 30.5342C102.069 35.0059 89.2714 66.7254 81.0746 74.7567C72.8778 82.788 58.4962 91.5616 38.4084 81.4538C25.5282 73.8707 26.0179 59.0197 26.0179 59.0197Z" fill="#FFC107" fill-opacity="0.5"/>
<path fill-rule="evenodd" clip-rule="evenodd" d="M65.625 17.5H4.375C1.96292 17.5 0 15.5371 0 13.125V4.375C0 1.96292 1.96292 0 4.375 0H65.625C68.0371 0 70 1.96292 70 4.375V13.125C70 15.5371 68.0371 17.5 65.625 17.5ZM4.375 2.91667C3.57 2.91667 2.91667 3.57 2.91667 4.375V13.125C2.91667 13.93 3.57 14.5833 4.375 14.5833H65.625C66.43 14.5833 67.0833 13.93 67.0833 13.125V4.375C67.0833 3.57 66.43 2.91667 65.625 2.91667H4.375ZM27.7083 70H4.375C1.96292 70 0 68.0371 0 65.625V27.7083C0 25.2963 1.96292 23.3333 4.375 23.3333H27.7083C30.1204 23.3333 32.0833 25.2963 32.0833 27.7083V65.625C32.0833 68.0371 30.1204 70 27.7083 70ZM4.375 26.25C3.57 26.25 2.91667 26.9033 2.91667 27.7083V65.625C2.91667 66.43 3.57 67.0833 4.375 67.0833H27.7083C28.5133 67.0833 29.1667 66.43 29.1667 65.625V27.7083C29.1667 26.9033 28.5133 26.25 27.7083 26.25H4.375ZM42.2917 43.75H65.625C68.0371 43.75 70 41.7871 70 39.375V27.7083C70 25.2963 68.0371 23.3333 65.625 23.3333H42.2917C39.8796 23.3333 37.9167 25.2963 37.9167 27.7083V39.375C37.9167 41.7871 39.8796 43.75 42.2917 43.75ZM40.8333 27.7083C40.8333 26.9033 41.4867 26.25 42.2917 26.25H65.625C66.43 26.25 67.0833 26.9033 67.0833 27.7083V39.375C67.0833 40.18 66.43 40.8333 65.625 40.8333H42.2917C41.4867 40.8333 40.8333 40.18 40.8333 39.375V27.7083ZM65.625 70H42.2917C39.8796 70 37.9167 68.0371 37.9167 65.625V53.9583C37.9167 51.5462 39.8796 49.5833 42.2917 49.5833H65.625C68.0371 49.5833 70 51.5462 70 53.9583V65.625C70 68.0371 68.0371 70 65.625 70ZM42.2917 52.5C41.4867 52.5 40.8333 53.1533 40.8333 53.9583V65.625C40.8333 66.43 41.4867 67.0833 42.2917 67.0833H65.625C66.43 67.0833 67.0833 66.43 67.0833 65.625V53.9583C67.0833 53.1533 66.43 52.5 65.625 52.5H42.2917Z" fill="#544837"/>
</svg>
