<svg width="87" height="93" viewBox="0 0 87 93" fill="none" xmlns="http://www.w3.org/2000/svg">
<path fill-rule="evenodd" clip-rule="evenodd" d="M24.0177 66.0197C24.0177 66.0197 25.2848 33.0626 62.0828 37.5342C98.8809 42.0059 86.2828 73.7254 78.214 81.7567C70.1453 89.788 55.9884 98.5616 36.2145 88.4538C23.5355 80.8707 24.0177 66.0197 24.0177 66.0197Z" fill="#6989F7" fill-opacity="0.5"/>
<path fill-rule="evenodd" clip-rule="evenodd" d="M61.8474 3.3871H49.0034C48.1136 1.3284 46.0906 -0.00265681 43.8554 3.98184e-06H5.62249C2.51882 0.00373669 0.00371772 2.52898 0 5.64516V64.3548C0.00371772 67.471 2.51882 69.9963 5.62249 70H43.8554C46.9591 69.9963 49.4742 67.471 49.4779 64.3548V57.5806H61.8474C64.9511 57.5769 67.4662 55.0517 67.4699 51.9355V9.03226C67.4662 5.91607 64.9511 3.39083 61.8474 3.3871ZM2.249 9.03226H35.9839V51.9355C35.9889 53.7193 36.8363 55.395 38.2678 56.4516H2.249V9.03226ZM65.2209 11.2903H38.2329V44.0323H65.2209V11.2903ZM65.2209 9.03226H38.2329C38.2329 7.16162 39.7433 5.64516 41.6064 5.64516H61.8474C63.7105 5.64516 65.2209 7.16162 65.2209 9.03226ZM5.62249 2.25807C3.75936 2.25807 2.249 3.77452 2.249 5.64516V6.7742H36.4607C37.3539 4.71942 39.3735 3.39005 41.6064 3.3871H46.3664C45.7279 2.66865 44.8144 2.2579 43.8554 2.25807H5.62249ZM47.2289 64.3548C47.2289 66.2255 45.7186 67.7419 43.8554 67.7419H5.62249C3.75936 67.7419 2.249 66.2255 2.249 64.3548V58.7097H47.2289V64.3548ZM61.8474 55.3226C63.7105 55.3226 65.2209 53.8061 65.2209 51.9355V46.2903H38.2329V51.9355C38.2329 53.8061 39.7433 55.3226 41.6064 55.3226H61.8474ZM12.3695 10.1613H4.49799C3.87695 10.1613 3.37349 10.6668 3.37349 11.2903C3.37349 11.9139 3.87695 12.4194 4.49799 12.4194H12.3695C12.9905 12.4194 13.494 11.9139 13.494 11.2903C13.494 10.6668 12.9905 10.1613 12.3695 10.1613ZM28.1124 63.2258C28.1124 65.0964 26.6021 66.6129 24.739 66.6129C22.8758 66.6129 21.3655 65.0964 21.3655 63.2258C21.3655 61.3552 22.8758 59.8387 24.739 59.8387C26.6021 59.8387 28.1124 61.3552 28.1124 63.2258ZM25.8635 63.2258C25.8635 62.6023 25.36 62.0968 24.739 62.0968C24.1179 62.0968 23.6145 62.6023 23.6145 63.2258C23.6145 63.8493 24.1179 64.3548 24.739 64.3548C25.36 64.3548 25.8635 63.8493 25.8635 63.2258ZM15.743 10.1613H16.8675C17.4885 10.1613 17.992 10.6668 17.992 11.2903C17.992 11.9139 17.4885 12.4194 16.8675 12.4194H15.743C15.1219 12.4194 14.6185 11.9139 14.6185 11.2903C14.6185 10.6668 15.1219 10.1613 15.743 10.1613ZM51.7269 54.1935C53.59 54.1935 55.1004 52.6771 55.1004 50.8064C55.1004 48.9358 53.59 47.4193 51.7269 47.4193C49.8638 47.4193 48.3534 48.9358 48.3534 50.8064C48.3534 52.6771 49.8638 54.1935 51.7269 54.1935ZM51.7269 49.6774C52.3479 49.6774 52.8514 50.1829 52.8514 50.8064C52.8514 51.43 52.3479 51.9355 51.7269 51.9355C51.1059 51.9355 50.6024 51.43 50.6024 50.8064C50.6024 50.1829 51.1059 49.6774 51.7269 49.6774Z" fill="#544837"/>
</svg>
