<svg width="87" height="94" viewBox="0 0 87 94" fill="none" xmlns="http://www.w3.org/2000/svg">
<path fill-rule="evenodd" clip-rule="evenodd" d="M28.0079 66.5344C28.0079 66.5344 28.6192 33.5616 63.1537 37.4312C97.6882 41.3008 86.4453 73.2213 79.0302 81.3833C71.615 89.5452 58.5122 98.5489 39.8201 88.7658C27.8157 81.3911 28.0079 66.5344 28.0079 66.5344Z" fill="#34B933" fill-opacity="0.5"/>
<path fill-rule="evenodd" clip-rule="evenodd" d="M24.1129 0H40.8871C41.4661 0 41.9355 0.469379 41.9355 1.04839V17.8226C41.9355 18.4016 41.4661 18.871 40.8871 18.871H24.1129C23.5339 18.871 23.0645 18.4016 23.0645 17.8226V1.04839C23.0645 0.469379 23.5339 0 24.1129 0ZM25.1613 16.7742H39.8387V2.09677H25.1613V16.7742ZM24.1129 23.0645H40.8871C41.4661 23.0645 41.9355 23.5339 41.9355 24.1129V40.8871C41.9355 41.4661 41.4661 41.9355 40.8871 41.9355H24.1129C23.5339 41.9355 23.0645 41.4661 23.0645 40.8871V24.1129C23.0645 23.5339 23.5339 23.0645 24.1129 23.0645ZM25.1613 39.8387H39.8387V25.1613H25.1613V39.8387ZM40.8871 46.129H24.1129C23.5339 46.129 23.0645 46.5984 23.0645 47.1774V63.9516C23.0645 64.5306 23.5339 65 24.1129 65H40.8871C41.4661 65 41.9355 64.5306 41.9355 63.9516V47.1774C41.9355 46.5984 41.4661 46.129 40.8871 46.129ZM39.8387 62.9032H25.1613V48.2258H39.8387V62.9032ZM17.8226 23.0645C18.4016 23.0645 18.871 23.5339 18.871 24.1129V40.8871C18.871 41.4661 18.4016 41.9355 17.8226 41.9355H1.04839C0.469379 41.9355 0 41.4661 0 40.8871V24.1129C0 23.5339 0.469379 23.0645 1.04839 23.0645H17.8226ZM16.7742 39.8387V25.1613H2.09677V39.8387H16.7742ZM17.8226 0H1.04839C0.469379 0 0 0.469379 0 1.04839V17.8226C0 18.4016 0.469379 18.871 1.04839 18.871H17.8226C18.4016 18.871 18.871 18.4016 18.871 17.8226V1.04839C18.871 0.469379 18.4016 0 17.8226 0ZM16.7742 2.09677V16.7742H2.09677V2.09677H16.7742ZM17.8226 46.129C18.4016 46.129 18.871 46.5984 18.871 47.1774V63.9516C18.871 64.5306 18.4016 65 17.8226 65H1.04839C0.469379 65 0 64.5306 0 63.9516V47.1774C0 46.5984 0.469379 46.129 1.04839 46.129H17.8226ZM16.7742 62.9032V48.2258H2.09677V62.9032H16.7742ZM63.9516 23.0645H47.1774C46.5984 23.0645 46.129 23.5339 46.129 24.1129V40.8871C46.129 41.4661 46.5984 41.9355 47.1774 41.9355H63.9516C64.5306 41.9355 65 41.4661 65 40.8871V24.1129C65 23.5339 64.5306 23.0645 63.9516 23.0645ZM62.9032 39.8387H48.2258V25.1613H62.9032V39.8387ZM47.1774 0H63.9516C64.5306 0 65 0.469379 65 1.04839V17.8226C65 18.4016 64.5306 18.871 63.9516 18.871H47.1774C46.5984 18.871 46.129 18.4016 46.129 17.8226V1.04839C46.129 0.469379 46.5984 0 47.1774 0ZM48.2258 16.7742H62.9032V2.09677H48.2258V16.7742ZM63.9516 46.129H47.1774C46.5984 46.129 46.129 46.5984 46.129 47.1774V63.9516C46.129 64.5306 46.5984 65 47.1774 65H63.9516C64.5306 65 65 64.5306 65 63.9516V47.1774C65 46.5984 64.5306 46.129 63.9516 46.129ZM62.9032 62.9032H48.2258V48.2258H62.9032V62.9032ZM4.19355 5.24194H9.43548C10.0145 5.24194 10.4839 4.77256 10.4839 4.19355C10.4839 3.61454 10.0145 3.14516 9.43548 3.14516H4.19355C3.61454 3.14516 3.14516 3.61454 3.14516 4.19355C3.14516 4.77256 3.61454 5.24194 4.19355 5.24194ZM13.629 5.24194H12.5806C12.0016 5.24194 11.5323 4.77256 11.5323 4.19355C11.5323 3.61454 12.0016 3.14516 12.5806 3.14516H13.629C14.208 3.14516 14.6774 3.61454 14.6774 4.19355C14.6774 4.77256 14.208 5.24194 13.629 5.24194Z" fill="#544837"/>
</svg>
