<svg width="98" height="81" viewBox="0 0 98 81" fill="none" xmlns="http://www.w3.org/2000/svg">
<path fill-rule="evenodd" clip-rule="evenodd" d="M26.8965 53.3327C26.8965 53.3327 27.7206 19.7676 68.7358 23.6039C109.751 27.4402 96.2998 59.9658 87.4664 68.2959C78.6331 76.6261 63.0402 85.8299 40.8633 75.9271C26.624 68.456 26.8965 53.3327 26.8965 53.3327Z" fill="#34B933" fill-opacity="0.5"/>
<path fill-rule="evenodd" clip-rule="evenodd" d="M35 0C30.3484 0 26.5517 3.786 26.5517 8.42456C26.5517 12.6544 29.7094 16.1742 33.7931 16.7617V21.7207C30.0218 22.0618 26.7011 23.9828 24.5024 26.8135L16.1461 21.5113C16.6264 20.4546 16.8966 19.2843 16.8966 18.0526C16.8966 13.4141 13.0999 9.62807 8.44828 9.62807C3.79665 9.62807 0 13.4141 0 18.0526C0 22.6912 3.79665 26.4772 8.44828 26.4772C11.0011 26.4772 13.2947 25.3353 14.8463 23.5394L23.2036 28.8423C22.2605 30.6596 21.7241 32.7191 21.7241 34.9018C21.7241 37.7719 22.6486 40.4302 24.2125 42.6018L13.9802 51.4141C12.4957 50.1269 10.5611 49.3439 8.44828 49.3439C3.79665 49.3439 0 53.1299 0 57.7684C0 62.407 3.79665 66.193 8.44828 66.193C13.0999 66.193 16.8966 62.407 16.8966 57.7684C16.8966 56.1011 16.4041 54.5449 15.5596 53.2341L25.7914 44.4227C28.1808 46.7217 31.4271 48.1404 35 48.1404C38.3361 48.1404 41.3869 46.9029 43.7222 44.8678L54.6763 55.2945C53.6878 56.6737 53.1034 58.3584 53.1034 60.1754C53.1034 64.814 56.9001 68.6 61.5517 68.6C66.2033 68.6 70 64.814 70 60.1754C70 55.5369 66.2033 51.7509 61.5517 51.7509C59.5893 51.7509 57.7804 52.4268 56.3432 53.5542L45.3892 43.1275C47.1938 40.8663 48.2759 38.008 48.2759 34.9018C48.2759 34.4755 48.2534 34.0542 48.2136 33.6381L53.5413 32.7547C54.6654 36.0932 57.8345 38.5123 61.5517 38.5123C66.2033 38.5123 70 34.7263 70 30.0877C70 25.4492 66.2033 21.6632 61.5517 21.6632C56.9001 21.6632 53.1034 25.4492 53.1034 30.0877C53.1034 30.1726 53.1064 30.2567 53.1094 30.3409L53.1109 30.3857L47.7644 31.2729C46.2838 26.106 41.7282 22.2199 36.2069 21.7204V16.7617C40.2906 16.1742 43.4483 12.6544 43.4483 8.42456C43.4483 3.786 39.6516 0 35 0ZM35 2.40702C38.347 2.40702 41.0345 5.08699 41.0345 8.42456C41.0345 11.7621 38.347 14.4421 35 14.4421C31.653 14.4421 28.9655 11.7621 28.9655 8.42456C28.9655 5.08699 31.653 2.40702 35 2.40702ZM14.4828 18.0526C14.4828 14.7151 11.7952 12.0351 8.44828 12.0351C5.10131 12.0351 2.41379 14.7151 2.41379 18.0526C2.41379 21.3902 5.10131 24.0702 8.44828 24.0702C11.7952 24.0702 14.4828 21.3902 14.4828 18.0526ZM35 24.0702C41.0132 24.0702 45.8621 28.9054 45.8621 34.9018C45.8621 40.8981 41.0132 45.7333 35 45.7333C28.9868 45.7333 24.1379 40.8981 24.1379 34.9018C24.1379 28.9054 28.9868 24.0702 35 24.0702ZM67.5862 30.0877C67.5862 26.7501 64.8987 24.0702 61.5517 24.0702C58.2048 24.0702 55.5172 26.7501 55.5172 30.0877C55.5172 33.4253 58.2048 36.1053 61.5517 36.1053C64.8987 36.1053 67.5862 33.4253 67.5862 30.0877ZM8.44828 51.7509C11.7952 51.7509 14.4828 54.4309 14.4828 57.7684C14.4828 61.106 11.7952 63.786 8.44828 63.786C5.10131 63.786 2.41379 61.106 2.41379 57.7684C2.41379 54.4309 5.10131 51.7509 8.44828 51.7509ZM67.5862 60.1754C67.5862 56.8379 64.8987 54.1579 61.5517 54.1579C58.2048 54.1579 55.5172 56.8379 55.5172 60.1754C55.5172 63.513 58.2048 66.193 61.5517 66.193C64.8987 66.193 67.5862 63.513 67.5862 60.1754Z" fill="#544837"/>
</svg>
