<svg width="97" height="94" viewBox="0 0 97 94" fill="none" xmlns="http://www.w3.org/2000/svg">
<path fill-rule="evenodd" clip-rule="evenodd" d="M26.0199 59.7928C26.0199 59.7928 27.4479 18.0079 68.9187 23.6773C110.39 29.3468 96.1917 69.5626 87.0984 79.7451C78.005 89.9276 62.0505 101.051 39.7655 88.236C25.4766 78.6218 26.0199 59.7928 26.0199 59.7928Z" fill="#6989F7" fill-opacity="0.5"/>
<path fill-rule="evenodd" clip-rule="evenodd" d="M35.0014 0C35.4027 0 35.7875 0.159682 36.0709 0.443809L43.9124 8.28588C44.1959 8.56922 44.3553 8.95365 44.3553 9.35451C44.3553 9.75538 44.1959 10.1398 43.9124 10.4231C43.3227 11.0117 42.3678 11.0117 41.7781 10.4231L36.512 5.15703V23.718C36.5094 24.5425 35.841 25.2098 35.0165 25.2112H34.9857C34.1614 25.2095 33.4934 24.5423 33.4907 23.718V5.16307L28.2228 10.4244C27.6331 11.0129 26.6783 11.0129 26.0886 10.4244C25.805 10.141 25.6457 9.75659 25.6457 9.35572C25.6457 8.95485 25.805 8.57043 26.0886 8.28709L33.9318 0.443809C34.2152 0.159682 34.6001 0 35.0014 0ZM23.7573 33.4895H5.15703L10.4231 28.2234C10.8158 27.8441 10.9733 27.2825 10.8351 26.7543C10.6968 26.2261 10.2844 25.8136 9.7562 25.6754C9.22804 25.5371 8.66637 25.6946 8.28709 26.0873L0.443809 33.9318C0.159682 34.2152 0 34.6001 0 35.0014C0 35.4027 0.159682 35.7875 0.443809 36.0709L8.28709 43.9142C8.57043 44.1978 8.95485 44.3571 9.35572 44.3571C9.75659 44.3571 10.141 44.1978 10.4244 43.9142C11.0129 43.3245 11.0129 42.3696 10.4244 41.7799L5.16307 36.5108H23.7187C24.5429 36.5085 25.2104 35.8407 25.2124 35.0165V34.9464C25.2129 34.5602 25.0598 34.1896 24.7868 33.9163C24.5139 33.6431 24.1435 33.4895 23.7573 33.4895ZM69.5589 33.9318L61.7157 26.0886C61.4323 25.805 61.0479 25.6457 60.647 25.6457C60.2462 25.6457 59.8617 25.805 59.5784 26.0886C58.9899 26.6783 58.9899 27.6331 59.5784 28.2228L64.8397 33.4895H46.2841C45.4592 33.4918 44.7914 34.1607 44.7904 34.9857V35.0558C44.79 35.4419 44.9432 35.8123 45.2161 36.0854C45.489 36.3586 45.8593 36.512 46.2454 36.512H64.8457L59.5796 41.7781C58.9911 42.3678 58.9911 43.3227 59.5796 43.9124C59.8629 44.1959 60.2474 44.3553 60.6482 44.3553C61.0491 44.3553 61.4335 44.1959 61.7169 43.9124L69.5601 36.0691C69.8436 35.7856 70.0027 35.4011 70.0024 35.0002C70.0022 34.5993 69.8427 34.215 69.5589 33.9318ZM43.9124 59.5772C43.3227 58.9887 42.3678 58.9887 41.7781 59.5772L36.512 64.8397V46.2448C36.5122 45.8586 36.3588 45.4882 36.0856 45.2151C35.8125 44.9421 35.442 44.7888 35.0558 44.7892H34.9857C34.1607 44.7908 33.4924 45.4592 33.4907 46.2841V64.8457L28.2246 59.5796C27.8453 59.1869 27.2837 59.0294 26.7555 59.1677C26.2273 59.3059 25.8149 59.7184 25.6766 60.2465C25.5384 60.7747 25.6959 61.3364 26.0886 61.7157L33.9318 69.5589C34.5236 70.147 35.4791 70.147 36.0709 69.5589L43.9142 61.7157C44.1978 61.4323 44.3571 61.0479 44.3571 60.647C44.3571 60.2462 44.1978 59.8617 43.9142 59.5784L43.9124 59.5772ZM35.0014 43.2785C39.5734 43.2785 43.2797 39.5722 43.2797 35.0002C43.2797 30.4282 39.5734 26.7218 35.0014 26.7218C30.4294 26.7218 26.723 30.4282 26.723 35.0002C26.728 39.5701 30.4314 43.2735 35.0014 43.2785ZM35.0014 29.7431C37.9048 29.7431 40.2584 32.0968 40.2584 35.0002C40.2584 37.9036 37.9048 40.2572 35.0014 40.2572C32.098 40.2572 29.7443 37.9036 29.7443 35.0002C29.7473 32.098 32.0992 29.7461 35.0014 29.7431Z" fill="#544837"/>
</svg>
