<svg width="99" height="88" viewBox="0 0 99 88" fill="none" xmlns="http://www.w3.org/2000/svg">
<path fill-rule="evenodd" clip-rule="evenodd" d="M27.9326 58.4052C27.9326 58.4052 28.7138 22.4864 69.6793 26.643C110.645 30.7997 97.2521 65.5903 88.4408 74.4938C79.6296 83.3973 64.069 93.2273 41.9091 82.6021C27.6794 74.5891 27.9326 58.4052 27.9326 58.4052Z" fill="#34B933" fill-opacity="0.5"/>
<path fill-rule="evenodd" clip-rule="evenodd" d="M34.1454 5.88003H64.1665C67.3822 5.88003 69.9999 8.5172 70 11.7601V52.9198C70 56.1628 67.3824 58.7999 64.1666 58.7999C63.8306 58.7999 63.5059 58.6835 63.2467 58.4697L0.538397 7.01987C0.196601 6.74135 0 6.32213 0 5.88003C0 2.63717 2.61761 0.000137812 5.83323 0H27.7082C28.0956 0 28.4659 0.155039 28.7393 0.430663L34.1454 5.88003ZM64.6394 55.8212C66.0237 55.593 67.0833 54.38 67.0833 52.92V11.7601C67.0833 10.1394 65.7759 8.82011 64.1666 8.82011H33.5417C33.1542 8.82011 32.784 8.66507 32.5106 8.38945L27.1044 2.94008H5.83337C4.44335 2.94008 3.27837 3.92489 2.98785 5.23837L64.6394 55.8212ZM5.83337 55.8599C4.22405 55.8599 2.91675 54.5406 2.91675 52.92C2.91675 52.1074 2.26447 51.4499 1.45838 51.4499C0.652284 51.4499 0 52.1074 0 52.92C0 56.1628 2.61761 58.8 5.83337 58.8C6.63946 58.8 7.29174 58.1425 7.29174 57.33C7.29174 56.5174 6.63946 55.8599 5.83337 55.8599ZM2.91675 16.17C2.91675 16.9826 2.26447 17.6401 1.45838 17.6401C0.652284 17.6401 0 16.9826 0 16.17V13.2301C0 12.4176 0.652284 11.7601 1.45838 11.7601C2.26447 11.7601 2.91675 12.4176 2.91675 13.2301V16.17ZM1.45838 34.1775C2.26447 34.1775 2.91675 33.52 2.91675 32.7075V26.0925C2.91675 25.28 2.26447 24.6225 1.45838 24.6225C0.652284 24.6225 0 25.28 0 26.0925V32.7075C0 33.52 0.652284 34.1775 1.45838 34.1775ZM2.91675 45.5699C2.91675 46.3824 2.26447 47.0399 1.45838 47.0399C0.652284 47.0399 0 46.3824 0 45.5699V42.63C0 41.8174 0.652284 41.1599 1.45838 41.1599C2.26447 41.1599 2.91675 41.8174 2.91675 42.63V45.5699ZM16.0416 55.8599H13.125C12.3189 55.8599 11.6666 56.5174 11.6666 57.33C11.6666 58.1425 12.3189 58.7999 13.125 58.7999H16.0416C16.8477 58.7999 17.5 58.1424 17.5 57.3298C17.5 56.5173 16.8477 55.8599 16.0416 55.8599ZM39.3749 55.8599H45.2083C46.0144 55.8599 46.6667 56.5174 46.6667 57.33C46.6667 58.1425 46.0144 58.8 45.2083 58.8H39.3749C38.5688 58.8 37.9165 58.1425 37.9165 57.33C37.9165 56.5174 38.5688 55.8599 39.3749 55.8599ZM30.6249 55.8599H24.7916C23.9855 55.8599 23.3332 56.5174 23.3332 57.33C23.3332 58.1425 23.9855 58.8 24.7916 58.8H30.6249C31.431 58.8 32.0833 58.1425 32.0833 57.33C32.0833 56.5174 31.431 55.8599 30.6249 55.8599ZM53.9583 55.8599H56.8749C57.681 55.8599 58.3333 56.5174 58.3333 57.33C58.3333 58.1425 57.681 58.8 56.8749 58.8H53.9583C53.1522 58.8 52.4999 58.1425 52.4999 57.33C52.4999 56.5174 53.1522 55.8599 53.9583 55.8599Z" fill="#544837"/>
</svg>
