<svg width="97" height="95" viewBox="0 0 97 95" fill="none" xmlns="http://www.w3.org/2000/svg">
<path fill-rule="evenodd" clip-rule="evenodd" d="M21.4481 65.9145C21.4481 65.9145 14.1292 30.7406 54.9799 25.5755C95.8305 20.4103 90.6072 57.322 84.0246 67.9794C77.4421 78.6367 64.4915 91.7153 40.5095 86.3473C24.8419 81.7406 21.4481 65.9145 21.4481 65.9145Z" fill="#28B0FF" fill-opacity="0.5"/>
<path fill-rule="evenodd" clip-rule="evenodd" d="M60.8171 36.1664H44.3222V52.4996H50.154C52.0864 52.4996 53.6531 54.0667 53.6531 55.9996V62.9995C53.6531 63.6438 54.1754 64.1662 54.8195 64.1662H60.8171C61.4043 61.891 63.5918 60.4076 65.9223 60.7038C68.2527 60.9994 70 62.983 70 65.3328C70 67.6832 68.2527 69.6662 65.9223 69.9624C63.5918 70.2587 61.4043 68.7753 60.8171 66.4995H54.8195C52.8871 66.4995 51.3204 64.9329 51.3204 62.9995V55.9996C51.3204 55.3553 50.7981 54.8329 50.154 54.8329H44.3222V60.6662C44.3222 65.9874 34.7953 69.9995 22.1611 69.9995C9.52689 69.9995 0 65.9874 0 60.6662V9.33326C0 4.01209 9.52689 0 22.1611 0C34.7953 0 44.3222 4.01209 44.3222 9.33326V19.8332H50.154C50.7981 19.8332 51.3204 19.3108 51.3204 18.6665V8.1666C51.3204 6.23376 52.8871 4.66663 54.8195 4.66663H60.8171C61.4043 2.39142 63.5918 0.908033 65.9223 1.20425C68.2527 1.49991 70 3.48345 70 5.83329C70 8.18369 68.2527 10.1667 65.9223 10.4629C63.5918 10.7591 61.4043 9.27573 60.8171 6.99995H54.8195C54.1754 6.99995 53.6531 7.52232 53.6531 8.1666V18.6665C53.6531 20.5999 52.0864 22.1665 50.154 22.1665H44.3222V33.8331H60.8171C61.4043 31.5579 63.5918 30.0745 65.9223 30.3707C68.2527 30.6663 70 32.6499 70 34.9997C70 37.3501 68.2527 39.3331 65.9223 39.6293C63.5918 39.9256 61.4043 38.4422 60.8171 36.1664ZM67.6496 34.9997C67.6496 33.7112 66.6051 32.6664 65.3169 32.6664C64.0286 32.6664 62.9841 33.7112 62.9841 34.9997C62.9841 36.2889 64.0286 37.333 65.3169 37.333C66.6051 37.333 67.6496 36.2889 67.6496 34.9997ZM65.3169 3.49997C66.6051 3.49997 67.6496 4.54472 67.6496 5.83329C67.6496 7.12242 66.6051 8.1666 65.3169 8.1666C64.0286 8.1666 62.9841 7.12242 62.9841 5.83329C62.9841 4.54472 64.0286 3.49997 65.3169 3.49997ZM67.6496 65.3328C67.6496 64.0443 66.6051 62.9995 65.3169 62.9995C64.0286 62.9995 62.9841 64.0443 62.9841 65.3328C62.9841 66.622 64.0286 67.6661 65.3169 67.6661C66.6051 67.6661 67.6496 66.622 67.6496 65.3328ZM22.1611 2.33332C33.847 2.33332 41.9894 6.02241 41.9894 9.33326C41.9894 12.6447 33.847 16.3332 22.1611 16.3332C10.4751 16.3332 2.33274 12.6447 2.33274 9.33326C2.33274 6.02241 10.4751 2.33332 22.1611 2.33332ZM22.1611 18.6665C13.2476 18.6665 5.8985 16.6647 2.33274 13.6199V26.8331C2.33274 30.1445 10.4751 33.8331 22.1611 33.8331C33.847 33.8331 41.9894 30.1445 41.9894 26.8331V13.6199C38.4237 16.6647 31.0746 18.6665 22.1611 18.6665ZM22.1611 67.6661C10.4751 67.6661 2.33274 63.9776 2.33274 60.6662V47.453C5.8985 50.4978 13.2476 52.4996 22.1611 52.4996C31.0746 52.4996 38.4237 50.4978 41.9894 47.453V60.6662C41.9894 63.9776 33.847 67.6661 22.1611 67.6661ZM2.33274 43.1663C2.33274 46.4777 10.4751 50.1663 22.1611 50.1663C33.847 50.1663 41.9894 46.4777 41.9894 43.1663V31.1198C38.4237 34.1646 31.0746 36.1664 22.1611 36.1664C13.2476 36.1664 5.8985 34.1646 2.33274 31.1198V43.1663Z" fill="#544837"/>
</svg>
