<svg width="92" height="80" viewBox="0 0 92 80" fill="none" xmlns="http://www.w3.org/2000/svg">
<path fill-rule="evenodd" clip-rule="evenodd" d="M35.0159 55.4286C35.0159 55.4286 36.1572 25.4141 69.3026 29.4865C102.448 33.559 91.1005 62.4464 83.8326 69.7606C76.5648 77.0747 63.8132 85.065 46.002 75.8597C34.5816 68.9537 35.0159 55.4286 35.0159 55.4286Z" fill="#FFC107" fill-opacity="0.5"/>
<path fill-rule="evenodd" clip-rule="evenodd" d="M45.8028 18.0474L35.6611 0.542076C35.2887 -0.0161994 34.5327 -0.168058 33.9724 0.203055C33.8375 0.292333 33.7219 0.407576 33.6322 0.542076L23.4904 18.0474C23.167 18.6056 23.359 19.3194 23.919 19.6416C24.0972 19.744 24.2992 19.798 24.5047 19.798H44.7884C45.4351 19.7981 45.9596 19.2757 45.9596 18.6311C45.9597 18.4263 45.9056 18.2248 45.8028 18.0474ZM26.533 17.4639L34.6466 3.45964L42.7602 17.4639H26.533ZM68.8221 48.7879H68.8215H49.9663C49.3157 48.7877 48.788 49.3151 48.7879 49.9657V49.9663V68.8215C48.7877 69.4722 49.3151 69.9999 49.9657 70H49.9663H68.8215C69.4722 70.0002 69.9999 69.4728 70 68.8221V68.8215V49.9663C70.0002 49.3157 69.4728 48.788 68.8221 48.7879ZM67.6431 67.6431H51.1448V51.1448H67.6431V67.6431ZM0 59.3939C0 53.5363 4.74842 48.7879 10.6061 48.7879C16.4609 48.7945 21.2055 53.5391 21.2121 59.3939C21.2121 65.2514 16.4637 70 10.6061 70C4.74842 70 0 65.2514 0 59.3939ZM2.3569 59.3939C2.3569 63.9498 6.05017 67.6431 10.6061 67.6431C15.1597 67.6378 18.8499 63.9476 18.8552 59.3939C18.8552 54.838 15.162 51.1448 10.6061 51.1448C6.05017 51.1448 2.3569 54.838 2.3569 59.3939ZM22.3774 10.6061L23.3333 12.7168C10.9377 18.4837 4.92178 32.8644 9.45439 45.8936L7.29289 46.6667C2.36526 32.5051 8.90391 16.8739 22.3774 10.6061ZM45.0839 61.825C41.8851 63.2262 38.4658 63.9435 35.0151 63.9368C31.3164 63.9453 27.6566 63.1206 24.2681 61.5152L23.3333 63.8306C30.5289 67.2217 38.6806 67.3432 45.9596 64.1676L45.0839 61.825ZM49.2171 11.7259L49.2168 11.7263C61.3237 18.4462 67.096 32.7087 63.072 45.9596L60.8268 45.2764C61.6021 42.7234 61.9951 40.0696 61.9929 37.4014C61.9872 27.5836 56.6602 18.5407 48.0769 13.7775L48.6465 12.7516L48.0757 13.7775C47.8438 13.6484 47.6098 13.5231 47.3737 13.4016L48.4464 11.3131C48.7054 11.4462 48.9627 11.5849 49.2171 11.7259Z" fill="#544837"/>
</svg>
