<svg width="92" height="84" viewBox="0 0 92 84" fill="none" xmlns="http://www.w3.org/2000/svg">
<path fill-rule="evenodd" clip-rule="evenodd" d="M30.0174 57.0197C30.0174 57.0197 31.2644 24.0626 67.4783 28.5342C103.692 33.0059 91.2942 64.7254 83.3535 72.7567C75.4128 80.788 61.4807 89.5616 42.0206 79.4538C29.5429 71.8707 30.0174 57.0197 30.0174 57.0197Z" fill="#FFC107" fill-opacity="0.5"/>
<path fill-rule="evenodd" clip-rule="evenodd" d="M64.1302 21.0175C65.5851 19.2708 66.8822 17.397 68.0058 15.4184L70 16.5752C68.8077 18.6738 67.4309 20.6606 65.8863 22.5122C59.7411 29.8279 52.3652 35.9999 44.0952 40.7463C44.0773 40.9295 44.0149 41.1057 43.9135 41.2588L37.9919 49.8194C37.811 50.0809 37.5311 50.2558 37.2179 50.303C34.1323 50.7761 25.6461 52.457 23.5323 54.5833L23.1252 54.9917L23.001 54.8667C22.9101 54.897 22.8158 54.9156 22.7204 54.9223C22.6131 54.9234 22.5063 54.9091 22.4031 54.8797C21.8046 54.7097 21.4566 54.084 21.6255 53.482L21.5002 53.3571L21.9073 52.9475C24.0188 50.8236 25.615 42.2213 26.0532 39.0851C26.0979 38.7646 26.2739 38.4777 26.5385 38.2938L34.184 32.9851C34.1639 32.7366 34.2253 32.4883 34.3588 32.2782L35.7274 30.1496C40.809 22.2407 47.2109 15.2744 54.6503 9.55783L56.1051 8.43801L57.9429 6.98849L68.3646 0L69.6412 1.92499L59.2907 8.86604L57.5254 10.2635L56.8147 9.35307L57.5139 10.2716L56.0465 11.4007C52.0975 14.4412 48.4425 17.8496 45.1302 21.5809L54.3191 30.8241C57.8673 27.849 61.1501 24.5677 64.1302 21.0175ZM28.1428 49.9467C30.8534 49.1613 33.609 48.5433 36.3944 48.0957L41.4799 40.7347L35.594 34.8129L28.2567 39.9099C27.8312 42.7663 27.2283 45.5929 26.4511 48.3734L31.4136 43.3839C30.7854 42.0614 31.051 40.4844 32.0772 39.4437C33.4428 38.1343 35.59 38.1343 36.9557 39.4437C37.9946 40.483 38.2659 42.0699 37.6317 43.3987C36.8087 45.1231 34.7517 45.8499 33.0374 45.022L28.1428 49.9467ZM33.5305 41.1457C33.5668 41.1036 33.606 41.0642 33.6964 41.0841C34.1455 40.6325 34.8735 40.6325 35.3226 41.0841C35.772 41.5356 35.7724 42.2681 35.3235 42.7202L35.3226 42.721C34.8677 43.1585 34.1513 43.1585 33.6964 42.721C33.2161 42.303 33.1149 41.629 33.5305 41.1457ZM36.7947 32.7467L42.8405 38.8271C44.7963 37.7019 46.6966 36.5014 48.5412 35.2259L40.5726 27.2101C39.564 28.5775 38.5795 29.968 37.6595 31.4048L36.7947 32.7467ZM50.4365 33.8573L41.9768 25.3511C42.5115 24.6674 43.0532 23.9894 43.6098 23.3243L52.5066 32.2759C51.8235 32.8157 51.1335 33.343 50.4365 33.8573ZM69.0029 56.4863H0V58.8H69.0029V56.4863Z" fill="#544837"/>
</svg>
