<svg width="87" height="94" viewBox="0 0 87 94" fill="none" xmlns="http://www.w3.org/2000/svg">
<path fill-rule="evenodd" clip-rule="evenodd" d="M28.0079 66.5344C28.0079 66.5344 28.6192 33.5616 63.1537 37.4312C97.6882 41.3008 86.4453 73.2213 79.0302 81.3833C71.615 89.5452 58.5122 98.5489 39.8201 88.7658C27.8157 81.3911 28.0079 66.5344 28.0079 66.5344Z" fill="#34B933" fill-opacity="0.5"/>
<path fill-rule="evenodd" clip-rule="evenodd" d="M2.06166 10.2516C2.06166 10.8154 1.60026 11.2722 1.03083 11.2722C0.461538 11.2722 0 10.8154 0 10.2516V6.46515C0 2.90027 2.92688 0 6.52462 0H30.0375C31.4156 0 32.7108 0.532344 33.6843 1.49906L49.3146 17.0222C50.2847 17.9855 50.8191 19.2658 50.8191 20.627V26.2016C50.8191 26.7654 50.3577 27.2222 49.7882 27.2222C49.2188 27.2222 48.7574 26.7654 48.7574 26.2016V20.627C48.7574 20.3992 48.7299 20.176 48.6814 19.9588H35.4609C32.8445 19.9588 30.716 17.8462 30.716 15.2492V2.11767C30.4956 2.06882 30.2689 2.0412 30.0375 2.0412H6.52462C4.06382 2.0412 2.06166 4.02578 2.06166 6.46515V10.2516ZM35.4609 17.9176H47.3049L32.7777 3.4899V15.2492C32.7777 16.7205 33.9813 17.9176 35.4609 17.9176ZM12.286 60.9598H6.36218C3.96264 60.9598 2.01034 58.9764 2.01034 56.5383V15.0201C2.01034 14.4566 1.56042 14 1.00517 14C0.449913 14 0 14.4566 0 15.0201V56.5383C0 60.1012 2.85401 63 6.36218 63H12.286C12.8412 63 13.2911 62.5434 13.2911 61.9799C13.2911 61.4164 12.8412 60.9598 12.286 60.9598ZM25.567 21.7778H8.8336C8.27276 21.7778 7.81832 21.2556 7.81832 20.6111C7.81832 19.9666 8.27276 19.4444 8.8336 19.4444H25.567C26.1278 19.4444 26.5823 19.9666 26.5823 20.6111C26.5823 21.2556 26.1278 21.7778 25.567 21.7778ZM8.8336 43.5556C8.27276 43.5556 7.81832 44.0778 7.81832 44.7222C7.81832 45.3667 8.27276 45.8889 8.8336 45.8889H25.567C26.1278 45.8889 26.5823 45.3667 26.5823 44.7222C26.5823 44.0778 26.1278 43.5556 25.567 43.5556H8.8336ZM39.6241 27.2222C40.1937 27.2222 40.6553 27.7444 40.6553 28.3889C40.6553 29.0332 40.1936 29.5556 39.6241 29.5556H8.84946C8.27986 29.5556 7.81832 29.0334 7.81832 28.3889C7.81832 27.7444 8.27986 27.2222 8.84946 27.2222H39.6241ZM33.6188 36.9444C33.6188 36.3 33.1602 35.7778 32.5943 35.7778H8.84283C8.27689 35.7778 7.81832 36.3 7.81832 36.9444C7.81832 37.5889 8.27689 38.1111 8.84283 38.1111H32.5943C33.1601 38.1111 33.6188 37.5888 33.6188 36.9444ZM61.7543 64.3085C61.6866 63.3732 61.2529 61.9968 59.5724 60.7458L50.7018 53.8124L52.7104 51.8276C54.0472 52.4508 55.635 51.9927 56.7006 50.9344C58.1077 49.5356 58.273 47.4226 57.0689 46.2234L50.7641 39.957V31.3513C50.7641 30.789 50.304 30.3333 49.7361 30.3333C49.1682 30.3333 48.7081 30.789 48.7081 31.3513V37.9135L46.6653 35.8832C45.3673 34.5884 43.1727 34.9533 41.9134 36.2474C40.7531 37.4008 40.4379 39.0396 41.0381 40.2514L31.8227 49.3577C30.6015 48.7756 28.9586 49.0913 27.8001 50.2365C26.4963 51.4824 26.1286 53.6579 27.4328 54.9422L33.8525 61.2882H17.4465C16.8786 61.2882 16.4185 61.7438 16.4185 62.3062C16.4185 62.8685 16.8786 63.3242 17.4465 63.3242H35.9121L37.8662 65.2557C39.2096 66.5339 41.3038 66.189 42.6219 64.8893C43.6953 63.8272 44.1544 62.2431 43.5123 60.9167L45.4642 58.9879L52.4651 67.788C54.9801 70.8097 57.5397 70.5054 60.0511 68.2623C61.248 67.076 61.8529 65.6718 61.7543 64.3085ZM43.3708 37.6833C43.9024 37.1993 44.6097 36.8567 45.2079 37.3194L55.6116 47.6599C56.0039 48.0505 55.8353 48.9034 55.2515 49.4898C54.705 50.0036 53.8953 50.3653 53.324 49.781L49.47 45.9503C49.069 45.5516 48.418 45.5508 48.0163 45.9474C47.614 46.3443 47.6129 46.9889 48.0134 47.387L51.1441 50.4987C49.1658 52.4515 46.7171 54.8719 44.4875 57.0759L44.4772 57.086L44.4687 57.0944L44.4648 57.0983L42.1663 59.3701L33.3849 50.6897L42.3866 41.7945L44.6248 44.0191C45.0257 44.4173 45.6765 44.4183 46.0787 44.0218C46.4809 43.6249 46.4819 42.9803 46.0814 42.5821L43.1166 39.6354C42.5773 39.2157 42.7327 38.3388 43.3708 37.6833ZM39.3182 63.814C39.7125 64.2031 40.5776 64.0328 41.1687 63.4489C41.6577 62.9219 42.0036 62.2185 41.5373 61.6251L31.2026 51.4092C30.7851 50.8932 29.9028 51.0535 29.2531 51.6766C28.7634 52.2049 28.4184 52.9069 28.8846 53.5006L39.3182 63.814ZM58.5967 66.8234C57.0515 68.3481 55.3839 68.3087 54.088 66.5378L46.9298 57.5398L49.2362 55.2605L58.3085 62.3516C60.0955 63.6364 60.1372 65.2934 58.5967 66.8234Z" fill="#544837"/>
</svg>
