<svg width="90" height="86" viewBox="0 0 90 86" fill="none" xmlns="http://www.w3.org/2000/svg">
<path fill-rule="evenodd" clip-rule="evenodd" d="M26.0179 59.0197C26.0179 59.0197 27.3051 26.0626 64.6873 30.5342C102.069 35.0059 89.2714 66.7254 81.0746 74.7567C72.8778 82.788 58.4962 91.5616 38.4084 81.4538C25.5282 73.8707 26.0179 59.0197 26.0179 59.0197Z" fill="#FFC107" fill-opacity="0.5"/>
<path fill-rule="evenodd" clip-rule="evenodd" d="M67.6116 54.4278L67.611 54.4272L67.6099 54.4284L52.7808 39.594C52.3258 39.139 51.5883 39.139 51.1334 39.594L47.8339 42.8958L43.7141 38.7747L47.9597 34.5323C53.8097 35.8448 59.9246 34.0787 64.1752 29.8493C68.9244 25.063 70.5198 17.9816 68.2821 11.6199C68.1486 11.2433 67.8317 10.9614 67.4421 10.8728C67.0522 10.7861 66.6451 10.9033 66.3609 11.184L58.0889 19.452L51.914 17.3926L49.8553 11.2155L58.1203 2.94049C58.5748 2.48492 58.5741 1.74688 58.1186 1.29219C57.9961 1.16981 57.8477 1.07643 57.6846 1.01859C48.5925 -2.22162 38.5961 2.52499 35.357 11.6202C34.2461 14.7395 34.0437 18.1102 34.7733 21.3401L30.5325 25.5871L15.6812 10.7201L15.2152 5.6957C15.1766 5.27919 14.9178 4.91541 14.5371 4.74233L5.47514 0.628152C5.03401 0.426668 4.51438 0.51947 4.17025 0.86125L0.884731 4.14793C0.543072 4.49219 0.450302 5.012 0.651715 5.45328L4.76444 14.5208C4.93731 14.9024 5.30154 15.1618 5.71864 15.2003L10.7413 15.6665L25.5984 30.523L2.38419 53.743C-0.794728 56.9318 -0.794728 62.0926 2.38419 65.2814L4.02694 66.9247C7.21489 70.1042 12.3733 70.1042 15.5612 66.9247L38.7812 43.7093L42.9009 47.8293L39.6003 51.1323C39.1454 51.5875 39.1454 52.3252 39.6003 52.7804L54.4294 67.6135C57.6163 70.7955 62.7767 70.7955 65.9636 67.6135L67.611 65.9655C70.7961 62.7797 70.7964 57.6139 67.6116 54.4278ZM12.1871 13.8384C11.9951 13.6463 11.742 13.5273 11.4714 13.5021L6.70953 13.0646L3.21839 5.36078L5.35962 3.21839L13.0634 6.70953L13.5021 11.4703C13.527 11.7407 13.6455 11.9938 13.8373 12.186L28.9655 27.3282L27.3282 28.9655L12.1871 13.8384ZM5.74725 65.0835C8.01567 67.3476 11.6882 67.3476 13.9566 65.0835L46.6769 32.3583C46.9685 32.0636 47.3963 31.9487 47.7965 32.0578C50.1325 32.6847 52.5849 32.7403 54.9469 32.2196C63.0776 30.4277 68.2168 22.3821 66.4253 14.2492L59.071 21.595C58.7602 21.9045 58.3014 22.0123 57.8853 21.8735L50.5066 19.4145C50.16 19.2993 49.888 19.0274 49.7722 18.681L47.3127 11.3005C47.1732 10.8834 47.2815 10.4233 47.5923 10.1121L54.9361 2.75708C52.6016 2.25068 50.1803 2.30522 47.871 2.91621C39.8046 5.05031 34.9951 13.3211 37.1287 21.3896C37.236 21.7901 37.1214 22.2174 36.8282 22.5106L4.11141 55.2358C1.84792 57.5048 1.84792 61.1783 4.11141 63.4473L5.74725 65.0835ZM40.2299 41.8309L41.5235 40.5373L41.8309 40.2299L45.8621 44.2565L44.2565 45.8621L40.2299 41.8309ZM65.87 64.2202V64.2155C68.1583 61.927 68.1583 58.2166 65.87 55.9281L51.7826 41.8391L41.8391 51.7849L55.9265 65.8728C58.2163 68.1574 61.923 68.1574 64.2129 65.8728L65.87 64.2202Z" fill="#544837"/>
</svg>
