<svg width="83" height="85" viewBox="0 0 83 85" fill="none" xmlns="http://www.w3.org/2000/svg">
<path fill-rule="evenodd" clip-rule="evenodd" d="M24.8181 64.6525C24.8181 64.6525 18.0149 32.3828 53.0696 28.2512C88.1242 24.1197 84.167 57.7969 78.6607 67.4469C73.1543 77.0969 62.2069 88.8687 41.5058 83.6127C27.9658 79.1734 24.8181 64.6525 24.8181 64.6525Z" fill="#28B0FF" fill-opacity="0.5"/>
<path fill-rule="evenodd" clip-rule="evenodd" d="M34.3 59.7917C34.3 58.975 33.6583 58.3333 32.8417 58.3333H7.29167C4.87083 58.3333 2.91667 56.3792 2.91667 53.9583V24.7917V7.29167C2.91667 4.87083 4.87083 2.91667 7.29167 2.91667H42.2917C44.7125 2.91667 46.6667 4.87083 46.6667 7.29167V24.7917V39.9C46.6667 40.7167 47.3083 41.3583 48.125 41.3583C48.4167 41.3583 48.7083 41.2708 48.9417 41.125C49.3208 40.8625 49.5833 40.425 49.5833 39.9V7.29167C49.5833 3.26667 46.3167 0 42.2917 0H7.29167C3.26667 0 0 3.26667 0 7.29167V53.9583C0 57.9833 3.26667 61.25 7.29167 61.25H32.8417C33.6583 61.25 34.3 60.6083 34.3 59.7917ZM24.7917 11.6667C25.6083 11.6667 26.25 12.3083 26.25 13.125C26.25 13.9417 25.6083 14.5833 24.7917 14.5833H10.2083C9.39167 14.5833 8.75 13.9417 8.75 13.125C8.75 12.3083 9.39167 11.6667 10.2083 11.6667H24.7917ZM39.375 23.3333C40.1917 23.3333 40.8333 23.975 40.8333 24.7917C40.8333 25.6083 40.1917 26.25 39.375 26.25H10.2083C9.39167 26.25 8.75 25.6083 8.75 24.7917C8.75 23.975 9.39167 23.3333 10.2083 23.3333H39.375ZM59.9958 44.8875C61.0458 45.9958 62.5333 46.6667 64.1667 46.6667C67.375 46.6667 70 44.0417 70 40.8333C70 37.625 67.375 35 64.1667 35C60.9583 35 58.3333 37.625 58.3333 40.8333C58.3333 41.3583 58.3917 41.8833 58.5375 42.35L51.8292 46.1708L47.8917 48.4167C46.8417 47.3375 45.3542 46.6667 43.75 46.6667C40.5417 46.6667 37.9167 49.2917 37.9167 52.5C37.9167 53.4917 38.1792 54.4542 38.6167 55.2708C39.6083 57.0792 41.5333 58.3333 43.75 58.3333C45.3833 58.3333 46.8708 57.6625 47.9208 56.5542L58.5375 62.6208C58.4208 63.1167 58.3333 63.6417 58.3333 64.1667C58.3333 67.375 60.9583 70 64.1667 70C67.375 70 70 67.375 70 64.1667C70 60.9583 67.375 58.3333 64.1667 58.3333C62.5625 58.3333 61.075 59.0042 60.025 60.0833L49.3792 54.0167C49.525 53.55 49.5833 53.025 49.5833 52.5C49.5833 51.975 49.4958 51.45 49.3792 50.9542L59.9958 44.8875ZM46.1125 54.1917C46.1271 54.1479 46.149 54.1042 46.1708 54.0604C46.1927 54.0167 46.2146 53.9729 46.2292 53.9292L46.4042 53.6667L46.4333 53.6375C46.5792 53.2875 46.6667 52.9083 46.6667 52.5C46.6667 52.0333 46.55 51.5958 46.3458 51.1875C46.3313 51.1729 46.3167 51.1511 46.3021 51.1292L46.3021 51.1292C46.2875 51.1073 46.2729 51.0854 46.2583 51.0708L46.2583 51.0708C46.2292 51.0125 46.2 50.9541 46.1708 50.8667C45.6458 50.1083 44.7417 49.5833 43.75 49.5833C42.1458 49.5833 40.8333 50.8958 40.8333 52.5C40.8333 54.1042 42.1458 55.4167 43.75 55.4167C44.7125 55.4167 45.5875 54.9208 46.1125 54.1917ZM64.1667 43.75C63.2042 43.75 62.3292 43.2542 61.8042 42.525C61.7896 42.4813 61.7677 42.4375 61.7458 42.3937C61.724 42.35 61.7021 42.3062 61.6875 42.2625L61.5125 42L61.4833 41.9708C61.3375 41.6208 61.25 41.2417 61.25 40.8333C61.25 39.2292 62.5625 37.9167 64.1667 37.9167C65.7708 37.9167 67.0833 39.2292 67.0833 40.8333C67.0833 42.4375 65.7708 43.75 64.1667 43.75ZM61.8042 62.475C61.7896 62.5187 61.7677 62.5625 61.7458 62.6063C61.724 62.65 61.7021 62.6938 61.6875 62.7375C61.6583 62.7958 61.6 62.8542 61.5417 62.9125C61.3667 63.2917 61.25 63.7292 61.25 64.1667C61.25 65.7708 62.5625 67.0833 64.1667 67.0833C65.7708 67.0833 67.0833 65.7708 67.0833 64.1667C67.0833 62.5625 65.7708 61.25 64.1667 61.25C63.2042 61.25 62.3292 61.7458 61.8042 62.475ZM29.1667 36.4583C29.1667 35.6417 28.525 35 27.7083 35H10.2083C9.39167 35 8.75 35.6417 8.75 36.4583C8.75 37.275 9.39167 37.9167 10.2083 37.9167H27.7083C28.525 37.9167 29.1667 37.275 29.1667 36.4583Z" fill="#544837"/>
</svg>
