<svg width="88" height="93" viewBox="0 0 88 93" fill="none" xmlns="http://www.w3.org/2000/svg">
<path fill-rule="evenodd" clip-rule="evenodd" d="M25.0177 66.0197C25.0177 66.0197 26.2848 33.0626 63.0828 37.5342C99.8809 42.0059 87.2828 73.7254 79.214 81.7567C71.1453 89.788 56.9884 98.5616 37.2145 88.4538C24.5355 80.8707 25.0177 66.0197 25.0177 66.0197Z" fill="#6989F7" fill-opacity="0.5"/>
<path fill-rule="evenodd" clip-rule="evenodd" d="M12.8847 17.4981C9.70439 12.9658 4.30741 4.28628 7.37923 1.47243C8.78687 0.181472 10.43 1.11941 11.8786 1.94631L11.8802 1.94723C13.1971 2.85134 14.7317 3.38703 16.3252 3.49882C17.5929 3.49778 18.8018 2.96444 19.6572 2.0289C20.9339 0.73098 22.6782 0 24.4989 0C26.3195 0 28.0638 0.73098 29.3405 2.0289C30.1945 2.96295 31.401 3.49615 32.6667 3.49882C34.261 3.38585 35.7964 2.8503 37.1152 1.94723L37.1296 1.93901C38.5763 1.1162 40.215 0.184122 41.622 1.47243C44.6915 4.28744 39.2945 12.9658 36.1153 17.4981H36.75C38.2088 17.4981 39.5568 18.2763 40.2863 19.5396C41.0157 20.803 41.0157 22.3594 40.2863 23.6228C39.5568 24.8861 38.2088 25.6643 36.75 25.6643H12.9034C11.2364 27.3531 9.67779 29.1455 8.23673 31.0307C7.85013 31.5462 7.11887 31.6506 6.6034 31.264C6.08794 30.8775 5.98347 30.1462 6.37007 29.6308C7.56838 28.0518 8.85125 26.5389 10.2131 25.0985C8.95174 24.3756 8.17175 23.0349 8.16673 21.5812C8.16829 20.498 8.59717 19.4592 9.36023 18.6904C10.1259 17.9234 11.1663 17.4941 12.2501 17.4981H12.8847ZM38.3707 22.2518C38.6424 21.597 38.4921 20.8429 37.9902 20.3423C37.6603 20.0151 37.2146 19.8314 36.75 19.8313H12.2501C11.2836 19.8313 10.5001 20.6148 10.5001 21.5812C10.5001 22.5477 11.2836 23.3311 12.2501 23.3311H36.75C37.459 23.3329 38.099 22.9067 38.3707 22.2518ZM16.3252 5.83203C18.1465 5.83177 19.8914 5.09997 21.168 3.80097C22.0201 2.86499 23.2273 2.33149 24.493 2.33149C25.7588 2.33149 26.9659 2.86499 27.818 3.80097C29.0963 5.10097 30.8434 5.83281 32.6667 5.83203C34.6698 5.72679 36.6077 5.08448 38.2772 3.97246C38.8098 3.59652 39.4124 3.33115 40.0493 3.192C41.2463 4.28861 38.0823 10.9021 33.2453 17.4981H30.3333V11.6651C30.3333 11.0208 29.811 10.4985 29.1667 10.4985C28.5223 10.4985 28 11.0208 28 11.6651V17.4981H21V11.6651C21 11.0208 20.4777 10.4985 19.8334 10.4985C19.189 10.4985 18.6667 11.0208 18.6667 11.6651V17.4981H15.7594C10.9224 10.9021 7.7584 4.28861 8.97173 3.1745C9.59546 3.34109 10.187 3.6108 10.7217 3.97246C12.3886 5.08433 14.3243 5.72669 16.3252 5.83203ZM66.4999 29.1641H40.8333C38.9003 29.1641 37.3333 30.7311 37.3333 32.664V66.4955C37.3333 68.4284 38.9003 69.9953 40.8333 69.9953H66.4999C68.4329 69.9953 69.9999 68.4284 69.9999 66.4955V32.664C69.9999 30.7311 68.4329 29.1641 66.4999 29.1641ZM67.6666 66.4955C67.6666 67.1398 67.1443 67.6621 66.4999 67.6621H40.8333C40.189 67.6621 39.6667 67.1398 39.6667 66.4955V32.664C39.6667 32.0197 40.189 31.4974 40.8333 31.4974H66.4999C67.1443 31.4974 67.6666 32.0197 67.6666 32.664V66.4955ZM31.5 40.2469C31.5 40.8912 32.0223 41.4135 32.6667 41.4135C33.311 41.4135 33.8333 40.8912 33.8333 40.2469C33.8333 36.3878 30.2633 33.1983 25.6667 32.7293V31.4974C25.6667 30.8531 25.1444 30.3307 24.5 30.3307C23.8557 30.3307 23.3334 30.8531 23.3334 31.4974V32.7293C18.7367 33.1959 15.1667 36.3878 15.1667 40.2469C15.1667 44.106 18.7367 47.2955 23.3334 47.7645V58.25C20.0282 57.8323 17.5 55.6753 17.5 53.0796C17.5 52.4353 16.9777 51.913 16.3334 51.913C15.689 51.913 15.1667 52.4353 15.1667 53.0796C15.1667 56.9387 18.7367 60.1282 23.3334 60.5972V61.8291C23.3334 62.4734 23.8557 62.9957 24.5 62.9957C25.1444 62.9957 25.6667 62.4734 25.6667 61.8291V60.5972C30.2633 60.1305 33.8333 56.9387 33.8333 53.0796C33.8333 49.2204 30.2633 46.0309 25.6667 45.562V35.0765C28.9718 35.4941 31.5 37.6512 31.5 40.2469ZM17.5 40.2469C17.5 37.6512 20.0282 35.4941 23.3334 35.0765V45.4173C20.0282 44.9996 17.5 42.8426 17.5 40.2469ZM25.6667 58.25C28.9718 57.8323 31.5 55.6753 31.5 53.0796C31.5 50.4839 28.9718 48.3268 25.6667 47.9092V58.25ZM4.20007 35.199C3.61566 34.9278 2.92203 35.1816 2.65074 35.766C0.894822 39.5448 -0.0100314 43.663 8.38816e-05 47.8298C8.38816e-05 62.5372 8.24256 69.9953 24.5 69.9953C27.785 70.047 31.0627 69.6693 34.2498 68.8719C34.8726 68.7063 35.2432 68.0673 35.0776 67.4446C34.912 66.8218 34.2729 66.4513 33.6502 66.6169C30.6575 67.3559 27.5823 67.7072 24.5 67.6621C9.58423 67.6621 2.33341 61.1746 2.33341 47.8298C2.31242 44.0007 3.14415 40.2149 4.76824 36.7471C5.03853 36.1627 4.78424 35.4698 4.20007 35.199ZM61.8333 44.33H45.5C44.2113 44.33 43.1666 43.2854 43.1666 41.9968V37.3304C43.1666 36.0418 44.2113 34.9972 45.5 34.9972H61.8333C63.1219 34.9972 64.1666 36.0418 64.1666 37.3304V41.9968C64.1666 43.2854 63.1219 44.33 61.8333 44.33ZM61.8333 37.3304H45.5V41.9968H61.8333V37.3304ZM44.3333 47.8298H47.8333C48.4776 47.8298 49 48.3521 49 48.9964C49 49.6407 48.4776 50.163 47.8333 50.163H44.3333C43.689 50.163 43.1666 49.6407 43.1666 48.9964C43.1666 48.3521 43.689 47.8298 44.3333 47.8298ZM47.8333 52.4963H44.3333C43.689 52.4963 43.1666 53.0186 43.1666 53.6629C43.1666 54.3072 43.689 54.8295 44.3333 54.8295H47.8333C48.4776 54.8295 49 54.3072 49 53.6629C49 53.0186 48.4776 52.4963 47.8333 52.4963ZM44.3333 57.1627H47.8333C48.4776 57.1627 49 57.685 49 58.3293C49 58.9736 48.4776 59.4959 47.8333 59.4959H44.3333C43.689 59.4959 43.1666 58.9736 43.1666 58.3293C43.1666 57.685 43.689 57.1627 44.3333 57.1627ZM47.8333 61.8291H44.3333C43.689 61.8291 43.1666 62.3514 43.1666 62.9957C43.1666 63.64 43.689 64.1623 44.3333 64.1623H47.8333C48.4776 64.1623 49 63.64 49 62.9957C49 62.3514 48.4776 61.8291 47.8333 61.8291ZM52.5 47.8298H56C56.6443 47.8298 57.1666 48.3521 57.1666 48.9964C57.1666 49.6407 56.6443 50.163 56 50.163H52.5C51.8556 50.163 51.3333 49.6407 51.3333 48.9964C51.3333 48.3521 51.8556 47.8298 52.5 47.8298ZM56 52.4963H52.5C51.8556 52.4963 51.3333 53.0186 51.3333 53.6629C51.3333 54.3072 51.8556 54.8295 52.5 54.8295H56C56.6443 54.8295 57.1666 54.3072 57.1666 53.6629C57.1666 53.0186 56.6443 52.4963 56 52.4963ZM52.5 57.1627H56C56.6443 57.1627 57.1666 57.685 57.1666 58.3293C57.1666 58.9736 56.6443 59.4959 56 59.4959H52.5C51.8556 59.4959 51.3333 58.9736 51.3333 58.3293C51.3333 57.685 51.8556 57.1627 52.5 57.1627ZM56 61.8291H52.5C51.8556 61.8291 51.3333 62.3514 51.3333 62.9957C51.3333 63.64 51.8556 64.1623 52.5 64.1623H56C56.6443 64.1623 57.1666 63.64 57.1666 62.9957C57.1666 62.3514 56.6443 61.8291 56 61.8291ZM60.6666 47.8298H64.1666C64.8109 47.8298 65.3333 48.3521 65.3333 48.9964C65.3333 49.6407 64.8109 50.163 64.1666 50.163H60.6666C60.0223 50.163 59.4999 49.6407 59.4999 48.9964C59.4999 48.3521 60.0223 47.8298 60.6666 47.8298ZM64.1666 52.4963H60.6666C60.0223 52.4963 59.4999 53.0186 59.4999 53.6629C59.4999 54.3072 60.0223 54.8295 60.6666 54.8295H64.1666C64.8109 54.8295 65.3333 54.3072 65.3333 53.6629C65.3333 53.0186 64.8109 52.4963 64.1666 52.4963ZM60.6666 57.1627H64.1666C64.8109 57.1627 65.3333 57.685 65.3333 58.3293C65.3333 58.9736 64.8109 59.4959 64.1666 59.4959H60.6666C60.0223 59.4959 59.4999 58.9736 59.4999 58.3293C59.4999 57.685 60.0223 57.1627 60.6666 57.1627ZM64.1666 61.8291H60.6666C60.0223 61.8291 59.4999 62.3514 59.4999 62.9957C59.4999 63.64 60.0223 64.1623 60.6666 64.1623H64.1666C64.8109 64.1623 65.3333 63.64 65.3333 62.9957C65.3333 62.3514 64.8109 61.8291 64.1666 61.8291Z" fill="#544837"/>
</svg>
