<svg width="98" height="76" viewBox="0 0 98 76" fill="none" xmlns="http://www.w3.org/2000/svg">
<path fill-rule="evenodd" clip-rule="evenodd" d="M30.019 47.0925C30.019 47.0925 31.3787 11.7813 70.8669 16.5724C110.355 21.3635 96.836 55.3487 88.1774 63.9536C79.5188 72.5585 64.327 81.9589 43.1074 71.129C29.5016 63.0043 30.019 47.0925 30.019 47.0925Z" fill="#28B0FF" fill-opacity="0.5"/>
<path fill-rule="evenodd" clip-rule="evenodd" d="M59.2272 0V15.5483C69.7913 17.607 77.4211 26.8059 77.4194 37.5606C77.4194 49.9335 67.3122 60 54.8872 60C48.5025 60 42.4064 57.2818 38.1255 52.534H0L22.2628 14.1324L23.4682 16.2122V0H59.2272ZM23.468 21.5558L22.2626 19.4772L4.64826 49.8621H36.0574C33.6321 46.1987 32.355 41.9634 32.355 37.5589C32.355 37.3913 32.3632 37.2234 32.3718 37.0567L32.378 36.926L31.6168 35.6121H23.468V21.5558ZM56.5434 2.67232V32.9394H26.1514V2.67232H56.5434ZM35.039 37.5608C35.039 48.4597 43.9434 57.3275 54.8872 57.3275C65.833 57.3275 74.7373 48.4596 74.7355 37.5606C74.7355 28.3115 68.2454 20.2866 59.2272 18.2772V35.6124H35.1494C35.1274 35.8291 35.109 36.0457 35.0938 36.2641L35.2229 36.4894L35.0718 36.6803L35.067 36.7637C35.0653 36.799 35.0635 36.8344 35.0618 36.8697C35.0504 37.0991 35.039 37.3284 35.039 37.5608Z" fill="#544837"/>
</svg>
