<svg width="88" height="79" viewBox="0 0 88 79" fill="none" xmlns="http://www.w3.org/2000/svg">
<path fill-rule="evenodd" clip-rule="evenodd" d="M22.0541 53.0538C22.0541 53.0538 22.8202 21.8513 60.9483 25.4176C99.0765 28.9838 86.5721 59.22 78.3605 66.9637C70.1489 74.7075 55.6537 83.2635 35.0377 74.0578C21.8007 67.1125 22.0541 53.0538 22.0541 53.0538Z" fill="#00C86B" fill-opacity="0.5"/>
<path fill-rule="evenodd" clip-rule="evenodd" d="M50.8837 20.3661L59.6337 29.1161C60.122 29.6045 60.122 30.3955 59.6344 30.8835L50.8844 39.6336C50.6401 39.8777 50.3203 39.9998 50.0005 39.9998C49.6807 39.9998 49.3608 39.8777 49.1167 39.6336C48.6284 39.1454 48.6284 38.3544 49.1167 37.866L55.7329 31.2499H39.8741C39.3036 35.7554 35.7567 39.3029 31.2505 39.8736V55.7324L37.8666 49.1162C38.3548 48.6279 39.1458 48.6279 39.6342 49.1162C40.1225 49.6044 40.1225 50.3955 39.6342 50.8838L30.8841 59.6338C30.6399 59.8779 30.3201 60 30.0003 60C29.6805 60 29.3606 59.8779 29.1165 59.6338L20.3665 50.8838C19.8781 50.3956 19.8781 49.6046 20.3665 49.1162C20.8547 48.6279 21.6457 48.6279 22.134 49.1162L28.7502 55.7324V39.8737C24.2438 39.303 20.6969 35.7555 20.1265 31.25H4.26775L10.8839 37.8661C11.3722 38.3543 11.3722 39.1454 10.8839 39.6337C10.6397 39.8778 10.3199 39.9999 10.0001 39.9999C9.68028 39.9999 9.36036 39.8778 9.11626 39.6337L0.366239 30.8837C-0.12208 30.3955 -0.12208 29.6045 0.366239 29.1161L9.11626 20.3663C9.60446 19.878 10.3955 19.878 10.8838 20.3663C11.3721 20.8545 11.3721 21.6456 10.8838 22.1339L4.26764 28.75H20.1262C20.6968 24.2445 24.2437 20.697 28.7499 20.1263V4.26764L22.1338 10.8838C21.6456 11.3721 20.8545 11.3721 20.3662 10.8838C19.8779 10.3956 19.8779 9.60458 20.3662 9.11626L29.1162 0.366239C29.6044 -0.12208 30.3955 -0.12208 30.8838 0.366239L39.6337 9.11626C40.122 9.60446 40.122 10.3955 39.6337 10.8838C39.3895 11.1279 39.0697 11.25 38.7499 11.25C38.43 11.25 38.1101 11.1279 37.866 10.8838L31.2499 4.26764V20.1261C35.7562 20.6968 39.3031 24.2443 39.8736 28.7498H55.7323L49.1161 22.1336C48.6278 21.6454 48.6278 20.8544 49.1161 20.3661C49.6043 19.8778 50.3953 19.8778 50.8837 20.3661ZM22.8 30C22.8 33.9703 26.0296 37.2 30 37.2C33.9703 37.2 37.2 33.9703 37.2 30C37.2 26.0296 33.9703 22.8 30 22.8C26.0296 22.8 22.8 26.0296 22.8 30Z" fill="#544837"/>
</svg>
