<svg width="85" height="85" viewBox="0 0 85 85" fill="none" xmlns="http://www.w3.org/2000/svg">
<path fill-rule="evenodd" clip-rule="evenodd" d="M19.0185 58.5014C19.0185 58.5014 20.3428 26.1329 58.8026 30.5247C97.2625 34.9165 84.0955 66.0696 75.6623 73.9575C67.2292 81.8453 52.433 90.4623 31.7661 80.535C18.5146 73.0873 19.0185 58.5014 19.0185 58.5014Z" fill="#544837" fill-opacity="0.05"/>
<path fill-rule="evenodd" clip-rule="evenodd" d="M5.67938 16.7992C5.67938 7.53609 13.2155 0 22.4784 0C31.7415 0 39.2776 7.53609 39.2775 16.7992V24.0105H40.5993C43.0022 24.0105 44.9571 25.9656 44.9571 28.3685V55.6419C44.9571 58.045 43.0022 60 40.5993 60H4.35797C1.95504 60 0 58.045 0 55.642V28.3685C0 25.9656 1.95504 24.0105 4.35797 24.0105H5.67938V16.7992ZM37.2489 16.7992V24.0105H33.6456V16.7992C33.6456 10.6417 28.6361 5.63215 22.4787 5.63215C16.3213 5.63215 11.3118 10.6417 11.3118 16.7992V24.0105H7.70848V16.7992C7.70848 8.65477 14.3343 2.02887 22.4786 2.02887C30.623 2.02887 37.2489 8.65477 37.2489 16.7992ZM31.6165 16.7992V24.0105H13.3402V16.7992C13.3402 11.7604 17.4395 7.6609 22.4783 7.6609C27.5171 7.6609 31.6165 11.7604 31.6165 16.7992ZM4.35797 26.0393H6.6941H12.3258H32.6314H38.2631H40.5993C41.8835 26.0393 42.9284 27.0841 42.9284 28.3685V55.6419C42.9284 56.9263 41.8835 57.9711 40.5993 57.9711H4.35797C3.07359 57.9711 2.02875 56.9263 2.02875 55.6419V28.3685C2.02875 27.0841 3.07359 26.0393 4.35797 26.0393ZM25.8899 43.3337C27.075 42.3352 27.7646 40.8754 27.7646 39.3066C27.7646 36.3918 25.3932 34.0204 22.4784 34.0204C19.5635 34.0204 17.1921 36.3918 17.1921 39.3066C17.1921 40.8754 17.8818 42.3352 19.0671 43.3339L17.9268 48.767C17.8641 49.0663 17.9394 49.3777 18.1321 49.615C18.3248 49.852 18.6141 49.99 18.9196 49.99H26.0373C26.3429 49.99 26.6321 49.8521 26.8247 49.615C27.0172 49.3775 27.0926 49.0662 27.0299 48.7672L25.8899 43.3337ZM24.2189 42.0492C23.8627 42.2761 23.6839 42.7 23.7708 43.1134L24.788 47.961H20.169L21.1864 43.1138C21.2732 42.7002 21.0948 42.2763 20.7383 42.0496C19.7882 41.4449 19.221 40.4194 19.221 39.3067C19.221 37.5105 20.6822 36.0493 22.4784 36.0493C24.2746 36.0493 25.7358 37.5105 25.7358 39.3067C25.736 40.4196 25.1688 41.4449 24.2189 42.0492Z" fill="#544837"/>
</svg>
