<svg width="87" height="80" viewBox="0 0 87 80" fill="none" xmlns="http://www.w3.org/2000/svg">
<path fill-rule="evenodd" clip-rule="evenodd" d="M31.0156 55.9104C31.0156 55.9104 32.1345 26.4844 64.63 30.477C97.1255 34.4696 86.0005 62.7906 78.8751 69.9613C71.7498 77.1321 59.2482 84.9657 41.7863 75.9409C30.5898 69.1703 31.0156 55.9104 31.0156 55.9104Z" fill="#FFC107" fill-opacity="0.5"/>
<path fill-rule="evenodd" clip-rule="evenodd" d="M62.7346 51.5296L56.6958 44.4697V30.1394C56.6958 22.3023 52.425 15.0864 45.5515 11.3064C43.9547 10.4277 42.2472 9.76114 40.4823 9.31573V5.26613C40.4823 2.36188 38.1189 0 35.2161 0C32.3134 0 29.95 2.36188 29.95 5.26613V9.31573C28.185 9.76114 26.4776 10.4277 24.8823 11.3064C18.0073 15.0864 13.7365 22.3023 13.7365 30.1394V44.4697L7.65226 51.5842C7.36441 51.9205 7.29775 52.3947 7.48409 52.7977C7.66892 53.2007 8.07191 53.4582 8.51581 53.4582H27.6215C28.1729 57.1548 31.368 60 35.2161 60C39.0642 60 42.2594 57.1548 42.8108 53.4582H61.9165H61.9195C62.5467 53.4582 63.0558 52.9492 63.0558 52.322C63.0558 52.0144 62.933 51.7342 62.7346 51.5296ZM32.2225 5.26613C32.2225 3.61479 33.5663 2.2725 35.2161 2.2725C36.866 2.2725 38.2098 3.61479 38.2098 5.26613V8.87183C37.2205 8.73397 36.2206 8.65973 35.2161 8.65973C34.2132 8.65973 33.2118 8.73397 32.2225 8.87183V5.26613ZM25.9777 13.2971C19.8283 16.6771 16.009 23.131 16.009 30.1394V43.7532H54.4233V30.1394C54.4233 23.131 50.604 16.6771 44.4561 13.2971C41.6443 11.7503 38.4491 10.9322 35.2161 10.9322C31.9831 10.9322 28.788 11.7503 25.9777 13.2971ZM35.2161 57.7275C32.6255 57.7275 30.453 55.8944 29.9303 53.4582H40.5035C39.9793 55.8944 37.8083 57.7275 35.2161 57.7275ZM15.3969 46.0257L10.9822 51.1857H59.4501L55.0354 46.0257H15.3969ZM7.86436 25.7504C7.86436 23.2052 8.85668 20.81 10.658 19.0102C11.1004 18.5663 11.1004 17.8467 10.658 17.4028C10.2141 16.9589 9.4945 16.9589 9.0506 17.4028C6.82052 19.6329 5.59186 22.5977 5.59186 25.7504C5.59186 28.9047 6.82052 31.8695 9.0506 34.0996C9.27179 34.3208 9.56267 34.4314 9.85355 34.4314C10.1444 34.4314 10.4353 34.3208 10.658 34.0996C11.1004 33.6557 11.1004 32.9361 10.658 32.4922C8.85668 30.6924 7.86436 28.2971 7.86436 25.7504ZM6.23422 14.5637C6.6766 15.0076 6.6766 15.7272 6.23422 16.1696C0.949904 21.4524 0.949904 30.0485 6.23422 35.3328C6.6766 35.7752 6.6766 36.4948 6.23422 36.9387C6.01151 37.1614 5.72063 37.272 5.42975 37.272C5.13888 37.272 4.848 37.1614 4.62681 36.9387C-1.54227 30.7696 -1.54227 20.7328 4.62681 14.5637C5.0707 14.1198 5.79032 14.1198 6.23422 14.5637ZM61.3817 17.4028C60.9378 16.9589 60.2197 16.9589 59.7758 17.4028C59.3319 17.8467 59.3319 18.5663 59.7758 19.0102C61.5756 20.81 62.5679 23.2052 62.5679 25.7504C62.5679 28.2971 61.5756 30.6924 59.7758 32.4922C59.3319 32.9361 59.3319 33.6557 59.7758 34.0996C59.997 34.3208 60.2878 34.4314 60.5787 34.4314C60.8696 34.4314 61.1605 34.3208 61.3817 34.0996C63.6118 31.8695 64.8404 28.9047 64.8404 25.7504C64.8404 22.5977 63.6118 19.6329 61.3817 17.4028ZM64.1996 14.5637C64.6435 14.1198 65.3616 14.1198 65.8055 14.5637C71.9745 20.7328 71.9745 30.7696 65.8055 36.9387C65.5843 37.1614 65.2934 37.272 65.0025 37.272C64.7116 37.272 64.4208 37.1614 64.1996 36.9387C63.7557 36.4948 63.7557 35.7752 64.1996 35.3328C69.4824 30.0485 69.4824 21.4524 64.1996 16.1696C63.7557 15.7272 63.7557 15.0076 64.1996 14.5637Z" fill="#544837"/>
</svg>
