<svg width="88" height="76" viewBox="0 0 88 76" fill="none" xmlns="http://www.w3.org/2000/svg">
<path fill-rule="evenodd" clip-rule="evenodd" d="M87.0676 48.0168C87.0676 48.0168 85.8592 79.7968 50.764 75.4848C15.6689 71.1729 27.684 40.5862 35.3793 32.8418C43.0747 25.0973 56.5764 16.637 75.4352 26.3839C87.5274 33.6961 87.0676 48.0168 87.0676 48.0168Z" fill="#FFC107" fill-opacity="0.5"/>
<path fill-rule="evenodd" clip-rule="evenodd" d="M30 0C13.4315 0 0 13.4315 0 30C0 46.5685 13.4315 60 30 60C46.5685 60 60 46.5685 60 30C60 13.4315 46.5685 0 30 0ZM46.213 7.63255C45.0945 7.96615 44.0091 8.32183 42.9577 8.7C42.0943 7.6001 40.7789 6.95091 39.3808 6.93462C39.0428 6.93534 38.7062 6.97399 38.3769 7.05C37.3731 5.35385 36.4269 3.94615 35.6654 2.87308C39.4791 3.69389 43.0742 5.31678 46.213 7.63255ZM36.9231 46.7077C37.4267 46.713 37.9259 46.8027 38.4 46.9731C41.765 41.4113 43.3474 34.9529 42.9346 28.4654C42.8911 28.4579 42.8476 28.4498 42.8042 28.4412C40.3362 27.9467 38.7362 25.545 39.2308 23.0769C35.641 21.5013 31.7928 20.598 27.8769 20.4115C24.1934 24.0349 21.4726 28.5205 19.9615 33.4615C20.2592 33.6176 20.5385 33.8064 20.7942 34.0245C22.6902 35.641 22.9167 38.4886 21.3 40.3846C24.6039 43.9751 28.636 46.8192 33.1269 48.7269C33.9824 47.4695 35.4023 46.7142 36.9231 46.7077ZM39.2308 51.2885C39.2308 52.563 38.1976 53.5962 36.9231 53.5962C35.6485 53.5962 34.6154 52.563 34.6154 51.2885C34.6154 50.0139 35.6485 48.9808 36.9231 48.9808C38.1976 48.9808 39.2308 50.0139 39.2308 51.2885ZM24.6231 20.4808C21.747 20.66 18.9033 21.1871 16.1538 22.05C16.2043 22.2014 16.2467 22.3555 16.2808 22.5115C16.2658 24.1979 15.3325 25.7417 13.8462 26.5385C14.4721 28.8159 15.3104 31.0294 16.35 33.15C16.7857 33.005 17.2409 32.9272 17.7 32.9192C19.0817 28.3216 21.4437 24.0779 24.6231 20.4808ZM39.3692 16.1538C39.6365 16.1504 39.9029 16.1234 40.1654 16.0731C40.6731 17.3885 41.1154 18.7 41.4923 20.0077C41.0554 20.2724 40.6656 20.6077 40.3385 21C37.1466 19.6038 33.7624 18.6975 30.3 18.3115C32.0557 16.8793 33.9319 15.6014 35.9077 14.4923C36.7595 15.5302 38.0266 16.1384 39.3692 16.1538ZM39.3692 9.23077C38.0947 9.23077 37.0615 10.2639 37.0615 11.5385H37.0962C37.096 12.7996 38.1082 13.8273 39.3692 13.8462C40.6438 13.8462 41.6769 12.813 41.6769 11.5385C41.6769 10.2639 40.6438 9.23077 39.3692 9.23077ZM41.5385 23.9654C41.5385 22.6908 42.5716 21.6577 43.8462 21.6577C45.1207 21.6577 46.1538 22.6908 46.1538 23.9654C46.1538 25.24 45.1207 26.2731 43.8462 26.2731C42.5716 26.2731 41.5385 25.24 41.5385 23.9654ZM30 2.30769C23.5369 2.31649 17.2829 4.59995 12.3346 8.75769C12.0089 11.8445 11.9935 14.9563 12.2885 18.0462C13.5453 18.2083 14.6801 18.88 15.4269 19.9038C19.1556 18.7079 23.0497 18.1083 26.9654 18.1269C29.3569 15.8911 32.0109 13.9539 34.8692 12.3577C34.8173 12.0877 34.7902 11.8134 34.7885 11.5385C34.8053 10.2565 35.3626 9.04139 36.3231 8.19231C35.1508 6.18058 33.8399 4.25293 32.4 2.42308C31.6038 2.30769 30.8077 2.30769 30 2.30769ZM11.6769 20.2846L11.6885 20.2962C12.963 20.2962 13.9962 21.3293 13.9962 22.6038C13.9962 23.8784 12.963 24.9115 11.6885 24.9115C10.4139 24.9115 9.38077 23.8784 9.38077 22.6038C9.37442 21.3294 10.4024 20.291 11.6769 20.2846ZM9.94615 18.3231C9.73197 15.9369 9.68567 13.5388 9.80769 11.1462C5.88389 15.3072 3.35163 20.5856 2.56154 26.25C4.04322 25.211 5.58433 24.2593 7.17692 23.4C7.12385 23.1224 7.09673 22.8404 7.09615 22.5577C7.10813 20.7014 8.23096 19.0331 9.94615 18.3231ZM2.30769 30V29.3308C4.11952 27.8869 6.04933 26.5977 8.07692 25.4769C8.93106 26.5105 10.1977 27.1142 11.5385 27.1269C12.2611 29.6344 13.2273 32.0652 14.4231 34.3846C12.7046 36.215 12.7953 39.0922 14.6259 40.8107C15.0671 41.2249 15.5866 41.5468 16.1538 41.7577C15.8954 46.0151 16.2372 50.2878 17.1692 54.45C8.06264 49.6888 2.3413 40.2762 2.30769 30ZM15.45 37.4885H15.4962C15.4959 38.7451 16.5013 39.7711 17.7577 39.7962C19.0323 39.7962 20.0654 38.763 20.0654 37.4885C20.0654 36.2139 19.0323 35.1808 17.7577 35.1808C16.4831 35.1808 15.45 36.2139 15.45 37.4885ZM29.1923 57.6231C25.993 57.5332 22.8339 56.885 19.8577 55.7077C18.6597 51.243 18.1884 46.6145 18.4615 42C18.8009 41.9536 19.1339 41.8685 19.4538 41.7462C23.0332 45.7327 27.445 48.884 32.3769 50.9769V51.3346C32.3743 52.2623 32.6562 53.1684 33.1846 53.9308C31.9203 55.2314 30.5876 56.464 29.1923 57.6231ZM34.8923 55.3846C34.2578 56.0955 33.5585 56.7988 32.7949 57.4946C36.5015 57.1196 40.093 55.9934 43.35 54.1846C42.4846 54.0346 41.6423 53.85 40.8115 53.6538C39.9819 55.0168 38.507 55.8545 36.9115 55.8692C36.21 55.8669 35.5186 55.7009 34.8923 55.3846ZM46.2711 52.3255C44.6246 52.0949 43.0239 51.7954 41.4808 51.4385V51.2885C41.4811 50.1731 41.0703 49.0969 40.3269 48.2654C43.9985 42.2694 45.7274 35.2855 45.2769 28.2692C45.8279 28.0745 46.3369 27.777 46.7769 27.3923C50.4903 30.165 53.8398 33.3942 56.7462 37.0038C55.121 43.1639 51.4213 48.5752 46.2711 52.3255ZM48.1154 25.4769C51.5096 27.9989 54.6062 30.8984 57.3462 34.1192L57.3808 34.0731C58.7677 24.8746 55.4277 15.5962 48.4962 9.39231C46.8692 9.83077 45.3462 10.3154 43.8808 10.8346C43.9225 11.067 43.9455 11.3024 43.95 11.5385C43.9601 12.8955 43.3636 14.1862 42.3231 15.0577C42.8846 16.4961 43.3692 17.9269 43.7769 19.35C46.3259 19.35 48.3923 21.4164 48.3923 23.9654C48.3868 24.4813 48.2932 24.9926 48.1154 25.4769Z" fill="#544837"/>
</svg>
