<svg width="82" height="80" viewBox="0 0 82 80" fill="none" xmlns="http://www.w3.org/2000/svg">
<path fill-rule="evenodd" clip-rule="evenodd" d="M26.0156 55.9104C26.0156 55.9104 27.1345 26.4844 59.63 30.477C92.1255 34.4696 81.0005 62.7906 73.8751 69.9613C66.7498 77.1321 54.2482 84.9657 36.7863 75.9409C25.5898 69.1703 26.0156 55.9104 26.0156 55.9104Z" fill="#FFC107" fill-opacity="0.5"/>
<path fill-rule="evenodd" clip-rule="evenodd" d="M1.36368 0H20.4545C21.2083 0 21.8182 0.6098 21.8182 1.36355C21.8182 2.1173 21.2083 2.72723 20.4545 2.72723H2.72723V20.4545C2.72723 21.2083 2.11743 21.8182 1.36368 21.8182C0.609928 21.8182 0 21.2083 0 20.4545V1.36368C0 0.609928 0.609928 0 1.36368 0ZM39.5454 0H58.6363C59.3901 0 59.9999 0.609928 60 1.36368V20.4545C60 21.2083 59.3901 21.8182 58.6363 21.8182C57.8826 21.8182 57.2726 21.2083 57.2726 20.4545V2.72735H39.5454C38.7916 2.72735 38.1817 2.11743 38.1817 1.36368C38.1817 0.609928 38.7916 0 39.5454 0ZM58.6363 38.1818C57.8826 38.1818 57.2726 38.7917 57.2726 39.5455V57.2726H39.5454C38.7916 57.2726 38.1817 57.8826 38.1817 58.6363C38.1817 59.3901 38.7916 60 39.5454 60H58.6362C59.3899 60 59.9999 59.3901 59.9999 58.6363V39.5454C59.9999 38.7916 59.3901 38.1818 58.6363 38.1818ZM2.72723 57.2726H20.4545C21.2083 57.2726 21.8182 57.8826 21.8182 58.6362C21.8182 59.3899 21.2083 59.9999 20.4545 59.9999H1.36368C0.609928 59.9999 0 59.3899 0 58.6362V39.5454C0 38.7916 0.6098 38.1817 1.36355 38.1817C2.1173 38.1817 2.72723 38.7916 2.72723 39.5454V57.2726Z" fill="#544837"/>
</svg>
