<svg width="95" height="84" viewBox="0 0 95 84" fill="none" xmlns="http://www.w3.org/2000/svg">
<path fill-rule="evenodd" clip-rule="evenodd" d="M25.2011 56.8118C25.2011 56.8118 26.0108 23.8355 66.3064 27.6045C106.602 31.3735 93.3868 63.3285 84.7084 71.5125C76.0301 79.6965 60.7108 88.7389 38.9229 79.0098C24.9334 71.6698 25.2011 56.8118 25.2011 56.8118Z" fill="#6989F7" fill-opacity="0.5"/>
<path fill-rule="evenodd" clip-rule="evenodd" d="M60.4668 0H7.5383C3.37695 0.00438565 0.00438565 3.37695 0 7.5383V52.4617C0.00438565 56.6231 3.37695 59.995 7.5383 60H60.4668C64.6281 59.995 68.0007 56.6231 68.0051 52.4617V7.5383C68.0007 3.37695 64.6281 0.00438565 60.4668 0ZM7.5383 2.24545H60.4668C63.3882 2.24858 65.7565 4.61683 65.7596 7.5383V15.7332H2.24545V7.5383C2.24858 4.61683 4.61683 2.24858 7.5383 2.24545ZM7.5383 57.7545H60.4668C63.3882 57.7508 65.7565 55.3832 65.7596 52.4617V17.9786H2.24545V52.4617C2.24858 55.3832 4.61683 57.7508 7.5383 57.7545ZM34.8584 25.4355C34.9862 24.8284 35.582 24.4399 36.1885 24.5678C36.7956 24.6956 37.1834 25.2914 37.0556 25.8979L32.5277 47.3957C32.3999 48.0028 31.8047 48.3906 31.1976 48.2628C30.5911 48.135 30.2027 47.5398 30.3305 46.9327L34.8584 25.4355ZM49.1656 35.483L41.9011 29.2967C41.4287 28.8945 40.7201 28.9515 40.3185 29.4233C39.9163 29.8957 39.9726 30.6043 40.445 31.0065L46.7052 36.3382L40.445 41.6699C39.9726 42.0721 39.9163 42.7807 40.3185 43.2525C40.7201 43.7242 41.4287 43.7813 41.9011 43.379L49.1656 37.1928C49.4162 36.9798 49.5603 36.6671 49.5603 36.3382C49.5603 36.0093 49.4162 35.6966 49.1656 35.483ZM27.6872 29.4239C27.285 28.9515 26.5764 28.8945 26.104 29.2967L18.8395 35.483C18.5889 35.6966 18.4448 36.0093 18.4448 36.3382C18.4448 36.6671 18.5889 36.9798 18.8395 37.1928L26.104 43.379C26.5764 43.7813 27.285 43.7242 27.6866 43.2525C28.0888 42.7807 28.0324 42.0721 27.56 41.6699L21.2998 36.3382L27.5606 31.0065C28.0324 30.6043 28.0888 29.8957 27.6872 29.4239ZM19.1722 12.6056H19.1828C21.1401 12.6037 22.7277 11.0211 22.7358 9.06387C22.7396 7.10286 21.1551 5.50837 19.1941 5.4996H19.1828C17.2431 5.52904 15.6849 7.10788 15.6824 9.04696C15.6793 10.9867 17.2325 12.5705 19.1715 12.605L19.1722 12.6056ZM18.2612 8.12535C18.5055 7.881 18.8376 7.74442 19.1828 7.74505H19.1872C19.8952 7.76572 20.4584 8.34588 20.4572 9.05448C20.4559 9.76244 19.8914 10.3413 19.1828 10.3595H19.1791C18.6503 10.3576 18.1741 10.0375 17.9736 9.54817C17.7725 9.05949 17.8865 8.4975 18.2612 8.12409V8.12535ZM11.8005 9.02879C11.8024 10.9829 10.2204 12.5686 8.26631 12.5718H8.25504C6.30154 12.5686 4.71958 10.9829 4.72083 9.02879C4.72271 7.07467 6.30718 5.49208 8.26067 5.49208C10.2148 5.49208 11.7993 7.07467 11.8005 9.02879ZM8.2707 7.71184H8.26631C7.55584 7.72625 6.98696 8.30578 6.98571 9.01688C6.98445 9.72799 7.55145 10.3094 8.26255 10.3263H8.26631C8.97741 10.3113 9.54567 9.73174 9.54692 9.02064C9.54817 8.31017 8.98117 7.72876 8.2707 7.71184ZM30.0893 12.6401H30.1006C32.0584 12.6394 33.6467 11.0556 33.6529 9.09833C33.6573 7.1367 32.0728 5.5422 30.1112 5.53406H30.1006C28.1471 5.54345 26.5676 7.12855 26.5645 9.08142C26.562 11.0349 28.1358 12.6244 30.0893 12.6401ZM30.1006 7.77951H30.1043C30.8211 7.78828 31.3968 8.3722 31.3956 9.08893C31.3943 9.80567 30.8167 10.3877 30.1006 10.3946H30.0962C29.3794 10.3852 28.8037 9.80129 28.8049 9.08518C28.8062 8.36844 29.3838 7.78577 30.1006 7.77951Z" fill="#544837"/>
</svg>
