<svg width="97" height="80" viewBox="0 0 97 80" fill="none" xmlns="http://www.w3.org/2000/svg">
<path fill-rule="evenodd" clip-rule="evenodd" d="M33.0178 54.465C33.0178 54.465 34.2939 23.2735 71.3553 27.5056C108.417 31.7377 95.7284 61.758 87.6019 69.359C79.4754 76.96 65.2173 85.2637 45.3019 75.6973C32.5322 68.5205 33.0178 54.465 33.0178 54.465Z" fill="#6989F7" fill-opacity="0.5"/>
<path fill-rule="evenodd" clip-rule="evenodd" d="M65.6343 21.4464C67.1234 19.6641 68.4509 17.7521 69.6008 15.7331L71.6418 16.9135C70.4215 19.0549 69.0125 21.0823 67.4316 22.9716C61.1423 30.4366 53.5933 36.7346 45.1294 41.5779C45.1111 41.7648 45.0473 41.9445 44.9434 42.1008L38.8829 50.8362C38.6978 51.1029 38.4114 51.2815 38.0908 51.3296C34.9328 51.8124 26.2476 53.5276 24.0842 55.6973L23.6676 56.114L23.5404 55.9865C23.4475 56.0173 23.3509 56.0363 23.2532 56.0431C23.1435 56.0443 23.0342 56.0297 22.9285 55.9997C22.316 55.8262 21.9598 55.1877 22.1327 54.5735L22.0044 54.446L22.4211 54.0281C24.5821 51.8608 26.2158 43.0829 26.6643 39.8827C26.71 39.5558 26.8901 39.263 27.161 39.0753L34.9858 33.6582C34.9652 33.4047 35.028 33.1514 35.1647 32.937L36.5654 30.7649C41.7662 22.6946 48.3182 15.5861 55.9321 9.75289L57.421 8.61022L59.3019 7.13111L69.9681 0L71.2746 1.96427L60.6814 9.04698L58.8746 10.473L58.1472 9.54395L58.8629 10.4812L57.361 11.6334C53.3194 14.7359 49.5787 18.2139 46.1887 22.0213L55.5931 31.4531C59.2245 28.4173 62.5843 25.0691 65.6343 21.4464ZM28.8029 50.966C31.577 50.1646 34.3973 49.534 37.248 49.0773L42.4528 41.5661L36.4288 35.5233L28.9194 40.7244C28.4839 43.6391 27.8669 46.5234 27.0715 49.3606L32.1504 44.2693C31.5074 42.9198 31.7793 41.3106 32.8295 40.2487C34.2272 38.9126 36.4247 38.9126 37.8224 40.2487C38.8857 41.3092 39.1633 42.9285 38.5144 44.2844C37.6721 46.044 35.5668 46.7856 33.8123 45.9408L28.8029 50.966ZM34.317 41.9854C34.354 41.9425 34.3942 41.9022 34.4867 41.9226C34.9464 41.4617 35.6914 41.4617 36.1511 41.9226C36.611 42.3832 36.6114 43.1308 36.1519 43.592L36.1511 43.5929C35.6855 44.0393 34.9523 44.0393 34.4867 43.5929C33.9952 43.1663 33.8916 42.4786 34.317 41.9854ZM37.6576 33.415L43.8452 39.6195C45.8469 38.4714 47.7918 37.2463 49.6797 35.9448L41.5242 27.7654C40.4919 29.1607 39.4844 30.5796 38.5428 32.0457L37.6576 33.415ZM51.6195 34.5483L42.9613 25.8684C43.5086 25.1708 44.063 24.479 44.6327 23.8003L53.7381 32.9346C53.039 33.4854 52.3327 34.0234 51.6195 34.5483ZM70.6213 57.6391H0V60H70.6213V57.6391Z" fill="#544837"/>
</svg>
