<svg width="86" height="74" viewBox="0 0 86 74" fill="none" xmlns="http://www.w3.org/2000/svg">
<path fill-rule="evenodd" clip-rule="evenodd" d="M85.4143 45.7137C85.4143 45.7137 84.151 76.9034 46.0692 72.6127C7.98744 68.322 20.9769 38.3216 29.3141 30.7334C37.6512 23.1452 52.2868 14.864 72.7617 24.4619C85.8917 31.6589 85.4143 45.7137 85.4143 45.7137Z" fill="#544837" fill-opacity="0.1"/>
<path fill-rule="evenodd" clip-rule="evenodd" d="M60 18.75V23.75C60 25.8 58.9925 27.6075 57.4598 28.75C58.9924 29.89 59.9999 31.7 59.9999 33.75V38.75C59.9999 39.6875 59.7824 40.6051 59.3498 41.4851C59.0474 42.1076 58.2998 42.3626 57.6773 42.0575C57.0574 41.7525 56.8024 41.0051 57.1049 40.385C57.3649 39.8525 57.4999 39.3 57.4999 38.75V33.75C57.4999 31.6825 55.8175 30 53.7499 30H6.24996C4.18242 30 2.49996 31.68 2.49996 33.75V38.7499C2.49996 40.8175 4.18242 42.4999 6.24996 42.4999H27.16C27.85 42.4999 28.41 43.06 28.41 43.75C28.41 44.44 27.85 45 27.16 45H6.24996C4.18242 45 2.49996 46.68 2.49996 48.75V53.7499C2.49996 55.8175 4.18242 57.4999 6.24996 57.4999H22.6399C23.3299 57.4999 23.89 58.06 23.89 58.75C23.89 59.44 23.3324 60 22.6399 60H6.24996C2.805 60 0 57.195 0 53.75V48.75C0 46.6975 1.00746 44.89 2.54004 43.7501C1.00746 42.6101 0 40.8 0 38.75V33.75C0 31.6975 1.00746 29.89 2.54004 28.7501C1.00746 27.6101 0 25.8 0 23.75V18.75C0 17.5375 0.362461 16.4125 0.962461 15.455C0.969785 15.4416 0.973533 15.4281 0.977198 15.415C0.981037 15.4012 0.984785 15.3878 0.992461 15.375L8.7225 2.94996C9.87 1.10496 11.8526 0 14.03 0H45.9725C48.1475 0 50.1325 1.10496 51.28 2.94996L59.01 15.375C59.0197 15.3902 59.0248 15.4077 59.03 15.4254C59.0341 15.4396 59.0383 15.4541 59.045 15.4675C59.64 16.425 60 17.5425 60 18.75ZM14.0275 2.49996C12.7225 2.49996 11.5325 3.16242 10.845 4.26996L5.68746 12.5549C5.75265 12.5488 5.81724 12.5403 5.88184 12.5318L5.88189 12.5318C6.00309 12.5159 6.12438 12.4999 6.24996 12.4999H53.75C53.8813 12.4999 54.0079 12.5174 54.1346 12.5348C54.1937 12.5429 54.2529 12.5511 54.3125 12.5575L49.155 4.26996C48.465 3.16242 47.275 2.49996 45.97 2.49996H14.0275ZM57.5 23.75C57.5 25.8176 55.8176 27.5 53.75 27.5H6.24996C4.18242 27.5 2.49996 25.8176 2.49996 23.75V18.75C2.49996 16.68 4.18242 15 6.24996 15H53.7499C55.8175 15 57.4999 16.68 57.4999 18.75V23.75H57.5ZM51.2501 35H31.25C30.56 35 30 34.44 30 33.75C30 33.06 30.56 32.5 31.25 32.5H51.2501C51.9401 32.5 52.5001 33.06 52.5001 33.75C52.5001 34.44 51.9401 35 51.2501 35ZM8.75004 55C6.6825 55 5.00004 53.3175 5.00004 51.25C5.00004 49.18 6.6825 47.5 8.75004 47.5C10.8176 47.5 12.5 49.1824 12.5 51.25C12.5 53.3175 10.8176 55 8.75004 55ZM8.74992 52.5C9.43992 52.5 9.99996 51.94 9.99996 51.25C9.99996 50.56 9.44004 49.9999 8.75004 49.9999C8.06004 49.9999 7.5 50.56 7.5 51.25C7.5 51.94 8.05992 52.5 8.74992 52.5ZM51.25 42.5C51.0225 42.5 50.7949 42.5126 50.5725 42.5325C48.49 39.4075 44.9925 37.5 41.25 37.5C35.43 37.5 30.6275 41.9425 30.0575 47.615C27.18 48.17 25.0001 50.7101 25.0001 53.75C25.0001 57.195 27.8051 60 31.25 60H51.2501C56.075 60 60 56.075 60 51.25C60 46.4249 56.075 42.5 51.25 42.5ZM31.25 57.5C29.1825 57.5 27.5 55.8176 27.5 53.75C27.5 51.6825 29.1825 50 31.25 50C31.94 50 32.5001 49.44 32.5001 48.75C32.5001 43.925 36.425 40 41.2501 40C44.3752 40 47.2876 41.7225 48.8452 44.4949C49.1052 44.9575 49.6201 45.2024 50.1552 45.1124C50.5127 45.0499 50.8752 44.9999 51.2502 44.9999C54.6952 44.9999 57.5002 47.8049 57.5002 51.2498C57.5002 54.6948 54.695 57.5 51.25 57.5H31.25ZM51.25 17.5H31.25C30.56 17.5 30 18.06 30 18.75C30 19.44 30.56 20 31.25 20H51.2501C51.9401 20 52.5001 19.44 52.5001 18.75C52.5001 18.06 51.94 17.5 51.25 17.5ZM31.25 22.5H51.25C51.94 22.5 52.5001 23.06 52.5001 23.75C52.5001 24.44 51.9401 25.0001 51.2501 25.0001H31.25C30.56 25.0001 30 24.44 30 23.75C30 23.06 30.56 22.5 31.25 22.5ZM5.00004 21.25C5.00004 19.18 6.6825 17.5 8.75004 17.5C10.8175 17.5 12.5 19.1825 12.5 21.25C12.5 23.3175 10.8176 25 8.75004 25C6.6825 25 5.00004 23.32 5.00004 21.25ZM7.5 21.25C7.5 21.94 8.06004 22.5 8.75004 22.5C9.44004 22.5 10.0001 21.94 10.0001 21.25C10.0001 20.56 9.44004 19.9999 8.75004 19.9999C8.06004 19.9999 7.5 20.56 7.5 21.25ZM5.00004 36.25C5.00004 38.3175 6.6825 40 8.75004 40C10.8176 40 12.5 38.3175 12.5 36.25C12.5 34.1824 10.8176 32.5 8.75004 32.5C6.6825 32.5 5.00004 34.18 5.00004 36.25ZM9.99996 36.25C9.99996 36.94 9.43992 37.5 8.74992 37.5C8.05992 37.5 7.5 36.94 7.5 36.25C7.5 35.56 8.06004 34.9999 8.75004 34.9999C9.44004 34.9999 9.99996 35.56 9.99996 36.25Z" fill="#544837"/>
</svg>
