<?xml version="1.0" encoding="utf-8"?>
<svg width="60px" height="51.75px" viewBox="0 0 60 51.75" version="1.1" xmlns:xlink="http://www.w3.org/1999/xlink" xmlns="http://www.w3.org/2000/svg">
  <g id="Group-2">
    <path d="M57 9.95192L46 9.95192L46 6.96635C45.9956 3.1208 42.8641 0.00435397 39 0L21 0C17.1359 0.00435397 14.0044 3.1208 14 6.96635L14 9.95192L3 9.95192C1.34312 9.95192 0 11.2886 0 12.9375L0 32.8413C0.00525 34.102 0.805625 35.2236 2 35.6438L2 48.7644C2 50.4133 3.34312 51.75 5 51.75L55 51.75C56.6569 51.75 58 50.4133 58 48.7644L58 35.6438C59.1944 35.2236 59.9948 34.102 60 32.8413L60 12.9375C60 11.2886 58.6569 9.95192 57 9.95192ZM16 6.96632C16.0033 4.21959 18.24 1.99359 21 1.99036L39 1.99036C41.76 1.99359 43.9967 4.21959 44 6.96632L44 9.95189L41.96 9.95189L42 6.96632C41.9967 5.31878 40.6555 3.98398 39 3.98074L20.963 3.98074C19.3075 3.98398 17.9662 5.31878 17.963 6.96632L17.963 6.97627L17.99 9.95189L16 9.95189L16 6.96632ZM40 6.95239L39.96 9.9519L19.99 9.9519L19.959 6.96632C19.959 6.41673 20.4067 5.97113 20.959 5.97113L39 5.97113C39.5469 5.97113 39.9924 6.40814 40 6.95239ZM56 48.7644C56 49.314 55.5522 49.7596 55 49.7596L5 49.7596C4.44775 49.7596 4 49.314 4 48.7644L4 35.8269L11 35.8269L11 38.8125C11 39.3621 11.4478 39.8077 12 39.8077L16 39.8077C16.5522 39.8077 17 39.3621 17 38.8125L17 35.8269L43 35.8269L43 38.8125C43 39.3621 43.4478 39.8077 44 39.8077L48 39.8077C48.5522 39.8077 49 39.3621 49 38.8125L49 35.8269L56 35.8269L56 48.7644ZM13 37.8173L13 32.8413C12.9995 32.573 13.1106 32.3165 13.307 32.1327C13.4889 31.9468 13.7393 31.8431 14 31.8461C14.5523 31.8461 15 32.2917 15 32.8413L15 34.8317L15 37.8173L13 37.8173ZM45 37.8173L45 32.8413C45 32.2917 45.4478 31.8461 46 31.8461C46.2697 31.8453 46.5279 31.9555 46.713 32.1507C46.8985 32.3329 47.002 32.582 47 32.8413L47 34.8317L47 37.8173L45 37.8173ZM58 32.8414C58 33.391 57.5522 33.8366 57 33.8366L49 33.8366L49 32.8414C48.9929 31.1954 47.6539 29.8629 46 29.8558C44.3431 29.8558 43 31.1924 43 32.8414L43 33.8366L17 33.8366L17 32.8414C17 31.1924 15.6569 29.8558 14 29.8558C12.347 29.865 11.0092 31.1963 11 32.8414L11 33.8366L3 33.8366C2.44775 33.8366 2 33.391 2 32.8414L2 12.9375C2 12.3879 2.44775 11.9423 3 11.9423L57 11.9423C57.5522 11.9423 58 12.3879 58 12.9375L58 32.8414Z" id="Shape" fill="#544837" stroke="none" />
  </g>
</svg>