<?xml version="1.0" encoding="utf-8"?>
<svg width="70px" height="70px" viewBox="0 0 70 70" version="1.1" xmlns:xlink="http://www.w3.org/1999/xlink" xmlns="http://www.w3.org/2000/svg">
  <g id="Group">
    <path d="M0 13.125C0 15.5371 1.96292 17.5 4.375 17.5L65.625 17.5C68.0371 17.5 70 15.5371 70 13.125L70 4.375C70 1.96292 68.0371 0 65.625 0L4.375 0C1.96292 0 0 1.96292 0 4.375L0 13.125ZM2.9165 13.125L2.9165 4.37502C2.9165 3.57002 3.56984 2.91669 4.37484 2.91669L65.6248 2.91669C66.4298 2.91669 67.0832 3.57002 67.0832 4.37502L67.0832 13.125C67.0832 13.93 66.4298 14.5834 65.6248 14.5834L4.37484 14.5834C3.56984 14.5834 2.9165 13.93 2.9165 13.125ZM0 65.625C0 68.0371 1.96292 70 4.375 70L27.7083 70C30.1204 70 32.0833 68.0371 32.0833 65.625L32.0833 27.7083C32.0833 25.2962 30.1204 23.3333 27.7083 23.3333L4.375 23.3333C1.96292 23.3333 0 25.2962 0 27.7083L0 65.625ZM37.9165 39.375C37.9165 41.7871 39.8794 43.75 42.2915 43.75L65.6248 43.75C68.0369 43.75 69.9998 41.7871 69.9998 39.375L69.9998 27.7083C69.9998 25.2962 68.0369 23.3333 65.6248 23.3333L42.2915 23.3333C39.8794 23.3333 37.9165 25.2962 37.9165 27.7083L37.9165 39.375ZM2.9165 65.625L2.9165 27.7083C2.9165 26.9033 3.56984 26.25 4.37484 26.25L27.7082 26.25C28.5132 26.25 29.1665 26.9033 29.1665 27.7083L29.1665 65.625C29.1665 66.43 28.5132 67.0833 27.7082 67.0833L4.37484 67.0833C3.56984 67.0833 2.9165 66.43 2.9165 65.625ZM40.833 39.375L40.833 27.7083C40.833 26.9033 41.4863 26.25 42.2913 26.25L65.6247 26.25C66.4297 26.25 67.083 26.9033 67.083 27.7083L67.083 39.375C67.083 40.18 66.4297 40.8333 65.6247 40.8333L42.2913 40.8333C41.4863 40.8333 40.833 40.18 40.833 39.375ZM37.9165 65.625C37.9165 68.0371 39.8794 70 42.2915 70L65.6248 70C68.0369 70 69.9998 68.0371 69.9998 65.625L69.9998 53.9583C69.9998 51.5462 68.0369 49.5833 65.6248 49.5833L42.2915 49.5833C39.8794 49.5833 37.9165 51.5462 37.9165 53.9583L37.9165 65.625ZM40.833 65.625L40.833 53.9583C40.833 53.1533 41.4863 52.5 42.2913 52.5L65.6247 52.5C66.4297 52.5 67.083 53.1533 67.083 53.9583L67.083 65.625C67.083 66.43 66.4297 67.0833 65.6247 67.0833L42.2913 67.0833C41.4863 67.0833 40.833 66.43 40.833 65.625Z" id="Combined-Shape" fill="#544837" fill-rule="evenodd" stroke="none" />
  </g>
</svg>