<?xml version="1.0" encoding="utf-8"?>
<svg width="67.46997px" height="70px" viewBox="0 0 67.46997 70" version="1.1" xmlns:xlink="http://www.w3.org/1999/xlink" xmlns="http://www.w3.org/2000/svg">
  <g id="Group-7">
    <path d="M61.8474 3.3871L49.0034 3.3871C48.1136 1.3284 46.0906 -0.00265681 43.8554 3.98184e-06L5.62249 3.98184e-06C2.51882 0.00373669 0.00371772 2.52898 0 5.64516L0 64.3548C0.00371772 67.471 2.51882 69.9963 5.62249 70L43.8554 70C46.9591 69.9963 49.4742 67.471 49.4779 64.3548L49.4779 57.5806L61.8474 57.5806C64.9511 57.5769 67.4662 55.0517 67.4699 51.9355L67.4699 9.03226C67.4662 5.91607 64.9511 3.39083 61.8474 3.3871ZM2.24902 5.64515C2.24902 3.77451 3.75939 2.25806 5.62252 2.25806L43.8554 2.25806C44.8145 2.25789 45.728 2.66863 46.3665 3.38709L41.6064 3.38709C39.3735 3.39004 37.3539 4.71941 36.4607 6.77419L2.24902 6.77419L2.24902 5.64515ZM65.2209 9.03224L38.2329 9.03224C38.2329 7.1616 39.7433 5.64514 41.6064 5.64514L61.8474 5.64514C63.7105 5.64514 65.2209 7.1616 65.2209 9.03224ZM2.24902 9.03229L35.984 9.03229L35.984 51.9355C35.9889 53.7193 36.8364 55.395 38.2678 56.4516L2.24902 56.4516L2.24902 9.03229ZM12.3695 10.1613L4.49803 10.1613C3.87699 10.1613 3.37354 10.6668 3.37354 11.2903C3.37354 11.9139 3.87699 12.4194 4.49803 12.4194L12.3695 12.4194C12.9906 12.4194 13.494 11.9139 13.494 11.2903C13.494 10.6668 12.9906 10.1613 12.3695 10.1613ZM15.7429 10.1613L16.8674 10.1613C17.4884 10.1613 17.9919 10.6668 17.9919 11.2903C17.9919 11.9139 17.4884 12.4194 16.8674 12.4194L15.7429 12.4194C15.1219 12.4194 14.6184 11.9139 14.6184 11.2903C14.6184 10.6668 15.1219 10.1613 15.7429 10.1613ZM38.2329 11.2903L65.2209 11.2903L65.2209 44.0323L38.2329 44.0323L38.2329 11.2903ZM65.2209 51.9355C65.2209 53.8061 63.7105 55.3226 61.8474 55.3226L41.6064 55.3226C39.7433 55.3226 38.2329 53.8061 38.2329 51.9355L38.2329 46.2903L65.2209 46.2903L65.2209 51.9355ZM55.1005 50.8065C55.1005 52.6771 53.5901 54.1936 51.727 54.1936C49.8639 54.1936 48.3535 52.6771 48.3535 50.8065C48.3535 48.9358 49.8639 47.4194 51.727 47.4194C53.5901 47.4194 55.1005 48.9358 55.1005 50.8065ZM52.8515 50.8065C52.8515 50.1829 52.3481 49.6774 51.727 49.6774C51.106 49.6774 50.6025 50.1829 50.6025 50.8065C50.6025 51.43 51.106 51.9355 51.727 51.9355C52.3481 51.9355 52.8515 51.43 52.8515 50.8065ZM47.2289 64.3548C47.2289 66.2255 45.7186 67.7419 43.8554 67.7419L5.62252 67.7419C3.75939 67.7419 2.24902 66.2255 2.24902 64.3548L2.24902 58.7097L47.2289 58.7097L47.2289 64.3548ZM24.739 66.6129C26.6021 66.6129 28.1125 65.0964 28.1125 63.2258C28.1125 61.3551 26.6021 59.8387 24.739 59.8387C22.8758 59.8387 21.3655 61.3551 21.3655 63.2258C21.3655 65.0964 22.8758 66.6129 24.739 66.6129ZM24.739 62.0967C25.36 62.0967 25.8635 62.6022 25.8635 63.2258C25.8635 63.8493 25.36 64.3548 24.739 64.3548C24.118 64.3548 23.6145 63.8493 23.6145 63.2258C23.6145 62.6022 24.118 62.0967 24.739 62.0967Z" id="Combined-Shape" fill="#544837" fill-rule="evenodd" stroke="none" />
  </g>
</svg>