<?xml version="1.0" encoding="utf-8"?>
<svg width="70px" height="70px" viewBox="0 0 70 70" version="1.1" xmlns:xlink="http://www.w3.org/1999/xlink" xmlns="http://www.w3.org/2000/svg">
  <g id="Group-7">
    <path d="M12.8848 17.4981C9.70444 12.9658 4.30746 4.28628 7.37928 1.47243C8.78693 0.181473 10.4301 1.11941 11.8787 1.94631L11.8803 1.94723C13.1972 2.85134 14.7318 3.38703 16.3253 3.49882C17.5929 3.49778 18.8019 2.96444 19.6573 2.0289C20.9339 0.73098 22.6783 0 24.4989 0C26.3195 0 28.0639 0.73098 29.3406 2.0289C30.1946 2.96295 31.4011 3.49615 32.6667 3.49882C34.261 3.38585 35.7965 2.8503 37.1152 1.94723L37.1297 1.939C38.5763 1.1162 40.2151 0.184123 41.622 1.47243C44.6915 4.28745 39.2945 12.9658 36.1154 17.4981L36.75 17.4981C38.2089 17.4981 39.5569 18.2763 40.2863 19.5396C41.0157 20.803 41.0157 22.3594 40.2863 23.6228C39.5569 24.8861 38.2089 25.6643 36.75 25.6643L12.9034 25.6643C11.2365 27.3531 9.67784 29.1455 8.23678 31.0307C7.85018 31.5462 7.11892 31.6506 6.60345 31.264C6.08799 30.8775 5.98352 30.1462 6.37012 29.6308C7.56843 28.0518 8.8513 26.5389 10.2131 25.0985C8.9518 24.3756 8.1718 23.0349 8.16678 21.5812C8.16834 20.498 8.59723 19.4592 9.36028 18.6904C10.1259 17.9234 11.1663 17.4941 12.2501 17.4981L12.8848 17.4981ZM21.1682 3.80096C19.8916 5.09996 18.1467 5.83176 16.3253 5.83202C14.3244 5.72668 12.3888 5.08432 10.7219 3.97245C10.1871 3.61079 9.59559 3.34108 8.97186 3.17449C7.75853 4.2886 10.9225 10.9021 15.7595 17.4981L18.6668 17.4981L18.6668 11.665C18.6668 11.0208 19.1892 10.4984 19.8335 10.4984C20.4778 10.4984 21.0002 11.0208 21.0002 11.665L21.0002 17.4981L28.0001 17.4981L28.0001 11.665C28.0001 11.0208 28.5225 10.4984 29.1668 10.4984C29.8111 10.4984 30.3335 11.0208 30.3335 11.665L30.3335 17.4981L33.2455 17.4981C38.0825 10.9021 41.2464 4.2886 40.0494 3.19199C39.4125 3.33113 38.8099 3.59651 38.2773 3.97245C36.6079 5.08447 34.6699 5.72678 32.6668 5.83202C30.8436 5.8328 29.0965 5.10096 27.8181 3.80096C26.9661 2.86498 25.7589 2.33148 24.4932 2.33148C23.2274 2.33148 22.0202 2.86498 21.1682 3.80096ZM38.3706 22.2518C38.6423 21.597 38.4921 20.8429 37.9901 20.3423C37.6603 20.0151 37.2145 19.8314 36.7499 19.8313L12.25 19.8313C11.2835 19.8313 10.5 20.6148 10.5 21.5812C10.5 22.5477 11.2835 23.3311 12.25 23.3311L36.7499 23.3311C37.4589 23.3329 38.0989 22.9067 38.3706 22.2518ZM40.8335 29.1641L66.5001 29.1641C68.4331 29.1641 70.0001 30.731 70.0001 32.6639L70.0001 66.4955C70.0001 68.4284 68.4331 69.9953 66.5001 69.9953L40.8335 69.9953C38.9005 69.9953 37.3335 68.4284 37.3335 66.4955L37.3335 32.6639C37.3335 30.731 38.9005 29.1641 40.8335 29.1641ZM31.5 40.2469C31.5 40.8912 32.0224 41.4135 32.6667 41.4135C33.311 41.4135 33.8334 40.8912 33.8334 40.2469C33.8334 36.3878 30.2634 33.1983 25.6667 32.7293L25.6667 31.4974C25.6667 30.8531 25.1444 30.3307 24.5001 30.3307C23.8557 30.3307 23.3334 30.8531 23.3334 31.4974L23.3334 32.7293C18.7367 33.1959 15.1667 36.3878 15.1667 40.2469C15.1667 44.106 18.7367 47.2955 23.3334 47.7645L23.3334 58.25C20.0282 57.8323 17.5001 55.6753 17.5001 53.0796C17.5001 52.4353 16.9777 51.913 16.3334 51.913C15.6891 51.913 15.1667 52.4353 15.1667 53.0796C15.1667 56.9387 18.7367 60.1282 23.3334 60.5972L23.3334 61.8291C23.3334 62.4734 23.8557 62.9957 24.5001 62.9957C25.1444 62.9957 25.6667 62.4734 25.6667 61.8291L25.6667 60.5972C30.2634 60.1305 33.8334 56.9387 33.8334 53.0796C33.8334 49.2204 30.2634 46.0309 25.6667 45.562L25.6667 35.0765C28.9719 35.4941 31.5 37.6512 31.5 40.2469ZM66.5 67.6621C67.1443 67.6621 67.6667 67.1398 67.6667 66.4955L67.6667 32.6639C67.6667 32.0196 67.1443 31.4973 66.5 31.4973L40.8334 31.4973C40.1891 31.4973 39.6667 32.0196 39.6667 32.6639L39.6667 66.4955C39.6667 67.1398 40.1891 67.6621 40.8334 67.6621L66.5 67.6621ZM45.5001 44.33L61.8334 44.33C63.122 44.33 64.1667 43.2854 64.1667 41.9968L64.1667 37.3304C64.1667 36.0418 63.122 34.9972 61.8334 34.9972L45.5001 34.9972C44.2114 34.9972 43.1667 36.0418 43.1667 37.3304L43.1667 41.9968C43.1667 43.2854 44.2114 44.33 45.5001 44.33ZM17.5 40.2469C17.5 37.6512 20.0282 35.4941 23.3333 35.0765L23.3333 45.4173C20.0282 44.9996 17.5 42.8426 17.5 40.2469ZM4.20007 35.199C3.61566 34.9278 2.92203 35.1816 2.65074 35.766C0.894821 39.5448 -0.0100314 43.663 8.38816e-05 47.8299C8.38816e-05 62.5373 8.24256 69.9954 24.5 69.9954C27.785 70.047 31.0627 69.6693 34.2498 68.8719C34.8726 68.7063 35.2432 68.0673 35.0776 67.4446C34.912 66.8219 34.2729 66.4513 33.6502 66.6169C30.6575 67.3559 27.5823 67.7072 24.5 67.6622C9.58423 67.6622 2.33341 61.1747 2.33341 47.8299C2.31242 44.0007 3.14415 40.2149 4.76824 36.7471C5.03853 36.1627 4.78424 35.4699 4.20007 35.199ZM45.5 37.3304L61.8333 37.3304L61.8333 41.9968L45.5 41.9968L45.5 37.3304ZM44.3334 47.8298L47.8334 47.8298C48.4777 47.8298 49.0001 48.3521 49.0001 48.9964C49.0001 49.6407 48.4777 50.163 47.8334 50.163L44.3334 50.163C43.6891 50.163 43.1667 49.6407 43.1667 48.9964C43.1667 48.3521 43.6891 47.8298 44.3334 47.8298ZM52.5002 47.8298L56.0002 47.8298C56.6445 47.8298 57.1668 48.3521 57.1668 48.9964C57.1668 49.6407 56.6445 50.163 56.0002 50.163L52.5002 50.163C51.8558 50.163 51.3335 49.6407 51.3335 48.9964C51.3335 48.3521 51.8558 47.8298 52.5002 47.8298ZM60.6667 47.8298L64.1667 47.8298C64.811 47.8298 65.3333 48.3521 65.3333 48.9964C65.3333 49.6407 64.811 50.163 64.1667 50.163L60.6667 50.163C60.0223 50.163 59.5 49.6407 59.5 48.9964C59.5 48.3521 60.0223 47.8298 60.6667 47.8298ZM31.5001 53.0796C31.5001 55.6753 28.9719 57.8323 25.6667 58.25L25.6667 47.9092C28.9719 48.3268 31.5001 50.4839 31.5001 53.0796ZM47.8334 52.4963L44.3334 52.4963C43.6891 52.4963 43.1667 53.0186 43.1667 53.6629C43.1667 54.3072 43.6891 54.8295 44.3334 54.8295L47.8334 54.8295C48.4777 54.8295 49.0001 54.3072 49.0001 53.6629C49.0001 53.0186 48.4777 52.4963 47.8334 52.4963ZM56.0002 52.4963L52.5002 52.4963C51.8558 52.4963 51.3335 53.0186 51.3335 53.6629C51.3335 54.3072 51.8558 54.8295 52.5002 54.8295L56.0002 54.8295C56.6445 54.8295 57.1668 54.3072 57.1668 53.6629C57.1668 53.0186 56.6445 52.4963 56.0002 52.4963ZM64.1667 52.4963L60.6667 52.4963C60.0223 52.4963 59.5 53.0186 59.5 53.6629C59.5 54.3072 60.0223 54.8295 60.6667 54.8295L64.1667 54.8295C64.811 54.8295 65.3333 54.3072 65.3333 53.6629C65.3333 53.0186 64.811 52.4963 64.1667 52.4963ZM44.3334 57.1627L47.8334 57.1627C48.4777 57.1627 49.0001 57.685 49.0001 58.3293C49.0001 58.9736 48.4777 59.4959 47.8334 59.4959L44.3334 59.4959C43.6891 59.4959 43.1667 58.9736 43.1667 58.3293C43.1667 57.685 43.6891 57.1627 44.3334 57.1627ZM52.5002 57.1627L56.0002 57.1627C56.6445 57.1627 57.1668 57.685 57.1668 58.3293C57.1668 58.9736 56.6445 59.4959 56.0002 59.4959L52.5002 59.4959C51.8558 59.4959 51.3335 58.9736 51.3335 58.3293C51.3335 57.685 51.8558 57.1627 52.5002 57.1627ZM60.6667 57.1627L64.1667 57.1627C64.811 57.1627 65.3333 57.685 65.3333 58.3293C65.3333 58.9736 64.811 59.4959 64.1667 59.4959L60.6667 59.4959C60.0223 59.4959 59.5 58.9736 59.5 58.3293C59.5 57.685 60.0223 57.1627 60.6667 57.1627ZM47.8334 61.8291L44.3334 61.8291C43.6891 61.8291 43.1667 62.3514 43.1667 62.9957C43.1667 63.64 43.6891 64.1623 44.3334 64.1623L47.8334 64.1623C48.4777 64.1623 49.0001 63.64 49.0001 62.9957C49.0001 62.3514 48.4777 61.8291 47.8334 61.8291ZM56.0002 61.8291L52.5002 61.8291C51.8558 61.8291 51.3335 62.3514 51.3335 62.9957C51.3335 63.64 51.8558 64.1623 52.5002 64.1623L56.0002 64.1623C56.6445 64.1623 57.1668 63.64 57.1668 62.9957C57.1668 62.3514 56.6445 61.8291 56.0002 61.8291ZM64.1667 61.8291L60.6667 61.8291C60.0223 61.8291 59.5 62.3514 59.5 62.9957C59.5 63.64 60.0223 64.1623 60.6667 64.1623L64.1667 64.1623C64.811 64.1623 65.3333 63.64 65.3333 62.9957C65.3333 62.3514 64.811 61.8291 64.1667 61.8291Z" id="Combined-Shape" fill="#544837" fill-rule="evenodd" stroke="none" />
  </g>
</svg>