<?xml version="1.0" encoding="utf-8"?>
<svg width="61.76465px" height="70px" viewBox="0 0 61.76465 70" version="1.1" xmlns:xlink="http://www.w3.org/1999/xlink" xmlns="http://www.w3.org/2000/svg">
  <g id="Group-5">
    <path d="M1.03083 11.2722C1.60026 11.2722 2.06166 10.8154 2.06166 10.2516L2.06166 6.46515C2.06166 4.02579 4.06382 2.0412 6.52462 2.0412L30.0375 2.0412C30.2689 2.0412 30.4956 2.06882 30.716 2.11767L30.716 15.2492C30.716 17.8462 32.8445 19.9588 35.4609 19.9588L48.6814 19.9588C48.7299 20.176 48.7574 20.3992 48.7574 20.627L48.7574 26.2016C48.7574 26.7654 49.2188 27.2222 49.7882 27.2222C50.3577 27.2222 50.8191 26.7654 50.8191 26.2016L50.8191 20.627C50.8191 19.2658 50.2847 17.9855 49.3146 17.0222L33.6843 1.49906C32.7108 0.532344 31.4156 0 30.0375 0L6.52462 0C2.92688 0 0 2.90027 0 6.46515L0 10.2516C0 10.8154 0.461538 11.2722 1.03083 11.2722ZM47.305 17.9177L35.461 17.9177C33.9814 17.9177 32.7778 16.7206 32.7778 15.2493L32.7778 3.48993L47.305 17.9177ZM12.286 60.9598L6.36218 60.9598C3.96264 60.9598 2.01034 58.9764 2.01034 56.5383L2.01034 15.0201C2.01034 14.4566 1.56042 14 1.00517 14C0.449913 14 0 14.4566 0 15.0201L0 56.5383C0 60.1012 2.85401 63 6.36218 63L12.286 63C12.8412 63 13.2911 62.5434 13.2911 61.9799C13.2911 61.4164 12.8412 60.9598 12.286 60.9598ZM25.567 21.7778L8.83364 21.7778C8.2728 21.7778 7.81836 21.2556 7.81836 20.6111C7.81836 19.9667 8.2728 19.4445 8.83364 19.4445L25.567 19.4445C26.1279 19.4445 26.5823 19.9667 26.5823 20.6111C26.5823 21.2556 26.1279 21.7778 25.567 21.7778ZM39.6241 27.2222C40.1938 27.2222 40.6553 27.7444 40.6553 28.3889C40.6553 29.0332 40.1936 29.5556 39.6241 29.5556L8.84951 29.5556C8.2799 29.5556 7.81836 29.0334 7.81836 28.3889C7.81836 27.7444 8.2799 27.2222 8.84951 27.2222L39.6241 27.2222ZM59.5724 60.7458C61.2529 61.9968 61.6866 63.3732 61.7543 64.3085C61.8529 65.6718 61.248 67.076 60.0511 68.2623C57.5397 70.5054 54.9801 70.8097 52.4651 67.788L45.4642 58.9879L43.5123 60.9167C44.1544 62.243 43.6953 63.8272 42.6219 64.8893C41.3037 66.1889 39.2096 66.5338 37.8662 65.2556L35.9121 63.3242L17.4465 63.3242C16.8786 63.3242 16.4185 62.8685 16.4185 62.3062C16.4185 61.7438 16.8786 61.2882 17.4465 61.2882L33.8525 61.2882L27.4328 54.9422C26.1286 53.6579 26.4963 51.4824 27.8001 50.2365C28.9586 49.0913 30.6015 48.7756 31.8227 49.3577L41.0381 40.2514C40.4379 39.0395 40.7531 37.4008 41.9134 36.2474C43.1727 34.9533 45.3673 34.5884 46.6653 35.8832L48.7081 37.9135L48.7081 31.3513C48.7081 30.789 49.1682 30.3333 49.7361 30.3333C50.304 30.3333 50.7641 30.789 50.7641 31.3513L50.7641 39.957L57.0689 46.2234C58.273 47.4226 58.1077 49.5355 56.7006 50.9344C55.635 51.9927 54.0472 52.4508 52.7104 51.8275L50.7017 53.8124L59.5724 60.7458ZM33.6188 36.9444C33.6188 36.3 33.1602 35.7778 32.5943 35.7778L8.84287 35.7778C8.27693 35.7778 7.81836 36.3 7.81836 36.9444C7.81836 37.5889 8.27693 38.1111 8.84287 38.1111L32.5943 38.1111C33.1601 38.1111 33.6188 37.5887 33.6188 36.9444ZM45.2078 37.3194C44.6096 36.8567 43.9023 37.1993 43.3707 37.6833C42.7326 38.3388 42.5772 39.2157 43.1165 39.6354L46.0813 42.5821C46.4818 42.9803 46.4808 43.6249 46.0786 44.0218C45.6764 44.4183 45.0256 44.4173 44.6247 44.0191L42.3865 41.7945L33.3848 50.6897L42.1662 59.3701C44.8661 56.7019 48.4433 53.1645 51.144 50.4987L48.0133 47.387C47.6128 46.9889 47.6139 46.3443 48.0162 45.9474C48.4179 45.5508 49.0689 45.5516 49.4699 45.9503L53.3239 49.781C53.8952 50.3653 54.7049 50.0036 55.2514 49.4898C55.8352 48.9034 56.0038 48.0505 55.6115 47.6598L45.2078 37.3194ZM8.83364 43.5555C8.2728 43.5555 7.81836 44.0777 7.81836 44.7222C7.81836 45.3667 8.2728 45.8889 8.83364 45.8889L25.567 45.8889C26.1279 45.8889 26.5823 45.3667 26.5823 44.7222C26.5823 44.0777 26.1279 43.5555 25.567 43.5555L8.83364 43.5555ZM39.3181 63.814C39.7124 64.203 40.5775 64.0328 41.1687 63.4489C41.6576 62.9219 42.0035 62.2185 41.5372 61.6251L31.2025 51.4092C30.785 50.8932 29.9027 51.0535 29.253 51.6766C28.7634 52.2049 28.4184 52.9069 28.8845 53.5006L39.3181 63.814ZM54.088 66.5378C55.3838 68.3087 57.0514 68.3481 58.5966 66.8234C60.1371 65.2934 60.0954 63.6363 58.3085 62.3516L49.2361 55.2605L46.9297 57.5397L54.088 66.5378Z" id="Combined-Shape" fill="#544837" fill-rule="evenodd" stroke="none" />
  </g>
</svg>