<svg width="222" height="220" viewBox="0 0 222 220" fill="none" xmlns="http://www.w3.org/2000/svg">
<path d="M217.922 93.9354C211.921 54.7046 187.349 6.50578 138.808 1.46741C138.808 1.46741 101.941 -3.01658 65.613 3.78278C44.0409 7.81021 25.143 19.8273 13.1748 37.0784C1.20661 54.3295 -2.78821 75.3798 2.0708 95.4355C5.21774 108.463 7.35375 121.948 6.76676 135.335C5.75582 158.635 6.34282 180.387 28.9421 194.279C49.1282 206.687 74.532 217.628 98.7782 219.552C115.247 220.857 133.721 218.753 149.602 214.465C230.51 192.583 223.906 133.166 217.922 93.9354Z" fill="#F4F7FA"/>
<path d="M128.959 44.4974L78.9019 45.2311V35.1707C78.9019 32.3009 82.913 30.6215 84.8044 32.5455L85.848 34.8283C87.5927 36.6055 90.0385 37.1273 92.2234 36.2142L128.959 20.5447V44.4974Z" fill="#B2BCCC"/>
<path d="M133.851 44.4322L176.669 43.8125L178.332 34.9261C178.332 32.464 174.403 31.3552 172.968 33.0184L171.402 34.8283C170.049 36.3936 168.125 36.8827 166.413 36.0675L133.835 20.6426V44.4322H133.851Z" fill="#B2BCCC"/>
<path d="M130.672 44.8398L80.6139 45.5735V35.5131C80.6139 32.6433 83.6467 31.1596 85.5218 33.0836L87.56 35.1707C89.3047 36.948 91.7505 37.4697 93.9354 36.5566L130.672 20.8871V44.8398Z" fill="#D8DEE8"/>
<path d="M135.547 44.7746L178.365 44.155V35.4805C178.365 33.0184 176.098 31.6976 174.664 33.3608L173.098 35.1707C171.745 36.736 169.821 37.2252 168.109 36.4099L135.531 20.985V44.7746H135.547Z" fill="#D8DEE8"/>
<path d="M124.736 119.421L80.6139 44.1876L36.5078 119.062L36.1328 118.785L80.6139 43.2745L80.8096 43.6006L125.111 119.16L124.736 119.421Z" fill="#B2BCCC"/>
<path d="M126.432 119.29C126.432 122.649 105.92 135.677 80.6303 135.677C55.3243 135.677 34.8284 122.649 34.8284 119.29C34.8284 115.931 55.3406 113.208 80.6303 113.208C105.92 113.208 126.432 115.931 126.432 119.29Z" fill="#D8DEE8"/>
<ellipse cx="80.6139" cy="119.062" rx="45.8019" ry="6.08192" fill="#E6EBF4"/>
<ellipse opacity="0.3" cx="80.614" cy="118.508" rx="44.3018" ry="4.72857" fill="#D8DEE8"/>
<ellipse cx="80.614" cy="43.731" rx="5.41339" ry="6.033" fill="#D8DEE8"/>
<path d="M216.895 107.991L178.381 43.2908L139.868 107.681L139.542 107.436L178.381 42.4918L178.544 42.769L217.221 107.762L216.895 107.991Z" fill="#B2BCCC"/>
<path d="M218.362 107.876C218.362 110.763 200.459 121.981 178.365 121.981C156.271 121.981 138.368 110.763 138.368 107.876C138.368 104.99 156.271 102.642 178.365 102.642C200.459 102.642 218.362 104.99 218.362 107.876Z" fill="#D8DEE8"/>
<ellipse cx="178.381" cy="107.648" rx="39.9972" ry="5.23404" fill="#E6EBF4"/>
<ellipse opacity="0.3" cx="178.381" cy="107.338" rx="38.6764" ry="4.19049" fill="#D8DEE8"/>
<ellipse cx="178.381" cy="42.8831" rx="4.71226" ry="5.18512" fill="#D8DEE8"/>
<path d="M137.324 5.08721L128.878 4.69588C126.954 4.61435 125.405 6.40795 125.405 8.70701V15.7183L127.655 48.2639C127.802 50.4162 129.302 52.0305 131.095 51.9979L135.139 51.9C136.9 51.8511 138.368 50.188 138.514 48.0683L140.683 16.1749V9.32661C140.683 7.06016 139.183 5.16874 137.324 5.08721Z" fill="#B2BCCC"/>
<path d="M139.101 5.08721L130.655 4.69588C128.731 4.61435 127.182 6.40795 127.182 8.70701V15.7183L129.432 48.2639C129.579 50.4162 131.079 52.0305 132.873 51.9979L136.917 51.9C138.678 51.8511 140.145 50.188 140.292 48.0683L142.46 16.1749V9.32661C142.46 7.06016 140.96 5.16874 139.101 5.08721Z" fill="#D8DEE8"/>
<g opacity="0.3">
<path d="M137.34 36.524C134.732 26.3168 130.036 22.0448 129.302 12.229C129.106 9.57119 129.237 7.10907 129.546 4.87523C128.177 5.36439 127.182 6.88079 127.182 8.707V15.7183L129.432 48.2639C129.579 50.4162 131.079 52.0305 132.873 51.9979L136.917 51.9C137.601 51.8837 138.237 51.6228 138.775 51.1663C139.053 44.9702 138.237 40.0786 137.34 36.524Z" fill="#D8DEE8"/>
</g>
<path d="M59.4169 182.963C57.5581 186.045 54.3296 190.219 50.8239 195.062L109.295 203.524C102.757 185.719 93.5278 167.016 107.306 136.101C113.763 121.589 130.949 96.0714 123.872 79.0648C115.817 59.6777 99.8869 68.0587 95.8432 53.0414C89.5167 29.5942 69.5589 13.2725 48.1172 24.9309C26.9528 36.4425 27.654 78.4615 55.5525 124.459C71.809 159.711 69.1023 166.886 59.4169 182.963Z" fill="url(#paint0_linear_0_9939)"/>
<path d="M81.5433 196.056C81.9673 188.376 81.9673 181.104 81.9836 173.424V170.864C81.7553 167.163 81.6412 163.494 81.527 159.972C81.2661 151.983 81.0216 144.433 79.6682 136.427C79.6356 135.954 79.6356 135.498 79.6356 135.025C79.6193 133.313 79.6193 131.536 78.6247 129.824L78.6084 129.758C74.5972 87.3969 61.7649 45.1496 40.4863 4.19041L40.7961 4.02736C62.091 45.0028 74.9233 87.2828 78.9508 129.677C79.978 131.454 79.978 133.346 79.9943 135.009C79.9943 135.482 79.9943 135.938 80.0269 136.378C81.3803 144.384 81.6249 151.95 81.8858 159.956C81.9999 163.494 82.114 167.147 82.3423 170.864V173.441C82.326 181.137 82.326 188.409 81.9021 196.089L81.5433 196.056Z" fill="#FCFDFE"/>
<path d="M81.1357 158.488C80.7607 138.449 91.3266 114.66 100.262 98.2074C109.931 80.4019 119.828 67.1619 119.926 67.0314L120.203 67.2434C120.106 67.3739 110.225 80.5975 100.572 98.3867C91.669 114.79 81.1194 138.531 81.4944 158.488H81.1357Z" fill="#FCFDFE"/>
<path d="M67.6837 71.4176C66.1021 50.1717 69.3632 27.5235 70.423 20.0719C70.635 18.6533 70.7655 17.7076 70.7492 17.5282L71.0916 17.5119C71.0916 17.7239 70.9937 18.4576 70.7492 20.1208C69.673 27.5561 66.4282 50.188 68.0098 71.385L67.6837 71.4176Z" fill="#FCFDFE"/>
<path d="M75.331 105.382C68.1566 87.0871 30.6868 70.8632 30.3118 70.7002L30.4422 70.3904C30.8172 70.5534 68.4175 86.8262 75.6408 105.268L75.331 105.382Z" fill="#FCFDFE"/>
<path d="M57.6396 118.328C57.9657 145.477 71.059 136.525 83.125 139.215C97.0661 159.369 98.3705 178.088 77.5648 194.23L54.3785 190.757C45.7856 190.366 35.6925 187.724 36.2469 176.278C36.8991 163.331 39.9482 155.097 25.3386 148.738C10.7126 142.379 4.43506 130.769 10.3539 117.562C16.5826 103.67 1.97295 84.9348 12.653 75.6244C31.2738 59.4168 57.3135 90.071 57.6396 118.328Z" fill="url(#paint1_linear_0_9939)"/>
<path d="M63.3954 166.902C53.71 156.32 45.329 144.547 38.4808 131.927C31.5673 119.209 26.2843 105.773 22.8113 92.0276C20.822 84.1521 19.4034 76.1136 18.6208 68.1565L18.9632 68.1239C19.7459 76.0646 21.1481 84.0706 23.1374 91.9461C26.6104 105.659 31.8771 119.062 38.7743 131.764C45.6225 144.352 53.9872 156.092 63.64 166.657L63.3954 166.902Z" fill="#FCFDFE"/>
<path d="M38.4481 181.822L38.2851 181.512C42.5897 179.31 47.677 177.615 53.3839 176.424C56.1069 175.87 58.8136 175.495 61.4225 175.316L61.4388 175.658C58.8462 175.821 56.1558 176.196 53.4491 176.751C47.7748 177.941 42.7202 179.637 38.4481 181.822Z" fill="#FCFDFE"/>
<path d="M42.9811 139.688C31.0129 128.112 5.52755 129.171 5.28297 129.188L5.26666 128.845C5.52755 128.829 31.1596 127.769 43.2257 139.444L42.9811 139.688Z" fill="#FCFDFE"/>
<path d="M28.2247 109.458C24.6375 90.9841 38.4808 69.6403 38.6275 69.4283L38.921 69.624C38.7743 69.836 25.0125 91.0656 28.5671 109.393L28.2247 109.458Z" fill="#FCFDFE"/>
<path d="M214.383 196.545L14.6096 194.801V199.953C14.6096 201.355 15.4738 202.546 16.6641 202.758L73.1624 212.9C73.8309 213.014 74.5157 213.046 75.1842 212.997L212.215 201.437C213.438 201.339 214.383 200.149 214.383 198.714V196.545Z" fill="url(#paint2_linear_0_9939)"/>
<path d="M150.075 188.197L16.8109 197.621C14.4303 197.785 12.49 196.007 12.49 193.627V98.3541C12.49 95.9736 14.4303 94.0495 16.8109 94.0495H150.075C152.032 94.0495 153.63 95.7942 153.63 97.9465V184.072C153.63 186.191 152.032 188.05 150.075 188.197Z" fill="url(#paint3_linear_0_9939)"/>
<path d="M152.195 188.197L18.9306 197.621C16.55 197.785 14.6096 196.007 14.6096 193.627V98.3541C14.6096 95.9736 16.55 94.0495 18.9306 94.0495H152.195C154.151 94.0495 155.749 95.7942 155.749 97.9465V184.072C155.749 186.191 154.168 188.05 152.195 188.197Z" fill="url(#paint4_linear_0_9939)"/>
<path d="M148.037 182.115L23.92 190.3C21.9797 190.431 20.3981 188.963 20.3981 187.023V103.621C20.3981 101.68 21.9797 100.099 23.92 100.099L148.037 99.577C149.651 99.577 150.972 100.996 150.972 102.773V178.74C150.972 180.501 149.667 182.017 148.037 182.115Z" fill="url(#paint5_linear_0_9939)"/>
<path d="M148.868 187.773L14.6096 197.687L73.1461 208.187C73.8146 208.301 74.4994 208.334 75.1679 208.285L214.367 196.545L150.988 187.838C150.303 187.74 149.586 187.708 148.868 187.773Z" fill="url(#paint6_linear_0_9939)"/>
<path opacity="0.3" d="M34.1924 197.931L145.982 189.55L180.566 194.263L69.7545 203.214L34.1924 197.931Z" fill="url(#paint7_linear_0_9939)"/>
<path opacity="0.48" d="M120.089 162.059C109.817 156.532 101.729 163.543 93.9355 156.63C89.2069 152.439 91.5223 149.309 85.7175 143.047C79.2769 136.117 75.0864 138.449 68.6132 132.204C60.4278 124.312 64.5205 118.165 57.4766 112.507C48.9162 105.626 39.7037 112.002 31.551 105.398C28.0453 102.561 26.105 98.4194 25.1103 94.0332H17.137C15.7347 94.0332 14.6096 95.1583 14.6096 96.5605V195.322C14.6096 196.725 15.751 197.768 17.137 197.67L152.961 188.034C153.63 187.985 154.217 187.594 154.592 187.039C144.645 186.681 138.547 183.338 134.634 179.897C127.003 173.147 128.324 166.494 120.089 162.059Z" fill="white"/>
<path d="M86.8915 172.919C85.7175 172.951 84.5598 172.658 83.5652 172.055C80.5324 170.228 76.0484 167.228 72.021 163.299C66.9011 158.309 63.9661 153.238 63.3139 148.265L63.2976 148.183L63.1671 126.938C63.1671 122.731 65.9065 119.323 71.0427 117.089C75.2984 115.23 80.9237 114.317 86.8752 114.496C92.7615 114.66 98.1912 115.882 102.219 117.904C107.012 120.301 109.523 123.693 109.523 127.688L109.409 147.988L109.393 148.069C108.806 152.83 106.099 157.771 101.322 162.76C97.49 166.755 93.1528 169.935 90.1689 171.892C89.2069 172.511 88.0655 172.886 86.8915 172.919Z" fill="#BFC8D6"/>
<path d="M88.0655 172.919C86.9078 172.951 85.7664 172.658 84.7881 172.055C81.7879 170.228 77.3692 167.228 73.3906 163.299C68.336 158.309 65.4336 153.238 64.7977 148.265L64.7814 148.183L64.6509 126.938C64.6509 122.731 67.3576 119.323 72.4286 117.089C76.6191 115.23 82.1793 114.317 88.0492 114.496C93.8539 114.66 99.2184 115.882 103.197 117.904C107.925 120.301 110.404 123.693 110.404 127.688L110.29 147.988L110.273 148.069C109.686 152.83 107.029 157.771 102.3 162.76C98.5173 166.755 94.2453 169.935 91.294 171.892C90.3483 172.511 89.2232 172.886 88.0655 172.919Z" fill="url(#paint8_linear_0_9939)"/>
<path d="M66.0695 126.938L66.2 148.086C67.5859 158.88 80.2715 167.603 85.7991 170.93C87.3807 171.875 89.4026 171.826 90.9679 170.783C96.3813 167.228 108.366 158.277 109.638 147.89L109.752 127.639C109.735 112.638 66.0695 111.252 66.0695 126.938Z" fill="url(#paint9_linear_0_9939)"/>
<path d="M88.3753 167.668C88.2775 167.668 88.1144 167.652 87.9677 167.554C85.7012 166.185 81.2825 163.299 77.4507 159.532C73.3091 155.472 70.9285 151.51 70.3741 147.792L70.26 127.003C70.26 125.013 71.8416 123.301 74.9397 121.932C78.3964 120.399 83.3043 119.6 88.3753 119.731C93.3974 119.845 98.1749 120.856 101.469 122.502C104.387 123.954 105.871 125.666 105.871 127.59L105.757 147.662C105.251 151.249 103.001 155.13 99.0717 159.206C95.3703 163.038 91.0494 166.071 88.783 167.554C88.6362 167.636 88.4731 167.668 88.3753 167.668Z" fill="url(#paint10_linear_0_9939)"/>
<path d="M87.8535 166.25C85.5545 164.831 81.4781 162.108 77.9072 158.603C74.0102 154.771 71.7601 151.102 71.2383 147.694L71.1242 127.019C71.1242 125.6 72.4449 124.28 75.0049 123.138C78.2822 121.687 82.9619 120.921 87.8535 121.035C92.6962 121.149 97.2454 122.095 100.376 123.644C102.806 124.85 104.045 126.155 104.045 127.557L103.931 147.564C103.441 150.858 101.305 154.477 97.5879 158.309C94.1474 161.88 90.1363 164.733 87.8535 166.25Z" fill="#F4F7FA"/>
<path fill-rule="evenodd" clip-rule="evenodd" d="M95.6964 136.085H95.354L95.3866 132.726C95.4192 129.057 92.2886 125.975 88.5384 125.845C84.5761 125.715 81.1683 128.813 81.152 132.726V135.808H80.9563C80.0269 135.791 79.2769 136.199 79.2769 137.096V150.14C79.2769 151.037 79.9454 151.966 80.8748 151.966H95.5171C96.4139 151.966 97.0824 151.07 97.0987 150.189L97.2291 137.422C97.2781 136.525 96.5932 136.101 95.6964 136.085ZM90.495 148.542L90.4785 148.563C90.3471 148.728 90.1438 148.982 89.9406 148.982L86.7448 148.966C86.5328 148.966 86.3208 148.689 86.1904 148.51C86.0599 148.347 86.0273 148.037 86.0925 147.825L87.5437 143.112C86.7448 142.77 86.1741 141.971 86.1741 141.058C86.1741 139.851 87.185 138.873 88.4079 138.889C89.6308 138.906 90.6254 139.9 90.6091 141.091C90.6091 142.004 90.0385 142.77 89.2232 143.08L90.6091 147.841C90.6744 148.069 90.6254 148.363 90.495 148.542ZM83.1413 135.84L93.4463 136.036L93.4626 132.661C93.4952 129.954 91.294 127.688 88.5384 127.606C85.5871 127.525 83.1576 129.84 83.1576 132.759L83.1413 135.84Z" fill="url(#paint11_linear_0_9939)"/>
<path d="M205.676 130.182V209.687C205.676 210.878 204.372 211.22 202.904 211.367L151.869 217.074L151.086 217.155C149.488 217.318 148.167 216.422 148.167 215.182V132.106C148.167 130.867 149.488 129.807 151.086 129.758L152.146 129.726L203.361 129.889C204.829 129.84 205.676 129.008 205.676 130.182Z" fill="url(#paint12_linear_0_9939)"/>
<path d="M207.258 130.101V209.573C207.258 210.764 206.051 211.856 204.584 211.987L152.7 217.025C151.102 217.188 149.781 216.291 149.781 215.052V132.009C149.781 130.769 151.086 129.709 152.7 129.661L204.584 128.014C206.051 127.981 207.258 128.91 207.258 130.101Z" fill="url(#paint13_linear_0_9939)"/>
<path d="M205.595 134.568V208.22C205.595 209.329 204.47 210.34 203.084 210.47L154.298 215.15C152.814 215.297 151.591 214.465 151.591 213.307V136.558C151.591 135.4 152.814 134.405 154.298 134.356L203.084 132.644C204.47 132.579 205.595 133.46 205.595 134.568Z" fill="url(#paint14_linear_0_9939)"/>
<g opacity="0.48">
<path d="M190.48 175.837C185.751 166.364 174.729 168.63 170.587 158.293C168.109 152.129 171.19 149.211 169.332 141.694C168.076 136.607 165.337 132.547 162.239 129.367L152.684 129.661C151.086 129.709 149.765 130.769 149.765 132.008V215.052C149.765 216.291 151.07 217.188 152.684 217.025L194.442 212.965C191.344 208.66 190.023 204.633 189.55 201.127C188.067 190.268 194.67 184.251 190.48 175.837Z" fill="white"/>
</g>
<path d="M179.995 193.349C179.18 193.366 178.365 193.17 177.68 192.746C175.577 191.458 172.495 189.355 169.739 186.599C166.266 183.142 164.277 179.62 163.853 176.147V176.098L163.772 161.228C163.772 158.293 165.614 155.814 169.12 154.053C172.038 152.602 175.919 151.738 180.077 151.657C184.218 151.559 188.099 152.244 190.985 153.564C194.442 155.146 196.268 157.526 196.268 160.445L196.154 175.234V175.283C195.714 178.756 193.741 182.376 190.3 186.012C187.545 188.914 184.479 191.197 182.376 192.599C181.626 193.072 180.827 193.333 179.995 193.349Z" fill="#BFC8D6"/>
<path d="M180.811 193.349C179.995 193.366 179.196 193.17 178.512 192.746C176.425 191.458 173.375 189.338 170.652 186.599C167.212 183.126 165.255 179.604 164.831 176.131V176.082L164.75 161.195C164.75 158.244 166.576 155.765 170.033 154.021C172.919 152.57 176.767 151.722 180.86 151.624C184.952 151.526 188.784 152.211 191.637 153.532C195.062 155.113 196.855 157.494 196.855 160.429L196.741 175.234V175.283C196.317 178.756 194.36 182.376 190.953 186.028C188.23 188.931 185.197 191.213 183.11 192.632C182.425 193.072 181.626 193.333 180.811 193.349Z" fill="url(#paint15_linear_0_9939)"/>
<path d="M165.696 161.146L165.777 175.984C166.723 183.534 175.381 189.599 179.213 191.947C180.322 192.616 181.74 192.583 182.833 191.849C186.664 189.289 195.29 182.751 196.236 175.185L196.35 160.429C196.399 149.439 165.696 150.124 165.696 161.146Z" fill="url(#paint16_linear_0_9939)"/>
<path d="M181.039 189.616C180.974 189.616 180.86 189.599 180.745 189.534C179.164 188.556 176.098 186.534 173.457 183.892C170.62 181.055 168.989 178.3 168.614 175.707L168.533 161.065C168.533 159.662 169.609 158.407 171.729 157.347C174.109 156.157 177.517 155.423 181.072 155.342C184.626 155.26 188.018 155.831 190.382 156.907C192.485 157.869 193.545 159.059 193.545 160.461L193.431 175.038C193.056 177.647 191.425 180.484 188.605 183.468C185.963 186.257 182.898 188.442 181.316 189.501C181.218 189.599 181.104 189.616 181.039 189.616Z" fill="url(#paint17_linear_0_9939)"/>
<path d="M180.68 188.605C179.082 187.61 176.245 185.686 173.783 183.24C171.109 180.566 169.576 178.006 169.218 175.625L169.136 161.065C169.136 160.054 170.033 159.092 171.794 158.211C174.044 157.086 177.305 156.385 180.713 156.304C184.121 156.222 187.365 156.76 189.599 157.787C191.344 158.586 192.241 159.499 192.241 160.51L192.127 175.006C191.768 177.403 190.235 180.044 187.561 182.849C185.115 185.441 182.278 187.512 180.68 188.605Z" fill="#F4F7FA"/>
<path fill-rule="evenodd" clip-rule="evenodd" d="M186.24 166.886H185.996L186.028 164.456C186.061 161.815 183.827 159.679 181.202 159.711C178.43 159.744 176.05 162.043 176.05 164.831V167.016H175.952C175.299 167.033 174.827 167.326 174.827 167.978V177.223C174.827 177.859 175.218 178.56 175.854 178.544L186.126 178.348C186.762 178.332 187.251 177.647 187.251 177.028L187.365 167.815C187.365 167.179 186.893 166.869 186.24 166.886ZM182.555 175.935C182.458 176.066 182.311 176.261 182.164 176.261L179.93 176.294C179.799 176.294 179.668 176.138 179.572 176.023L179.571 176.023C179.56 176.009 179.549 175.996 179.539 175.984C179.441 175.87 179.425 175.642 179.474 175.495L180.485 172.103C179.914 171.875 179.523 171.321 179.523 170.669C179.523 169.804 180.224 169.087 181.088 169.071C181.952 169.054 182.637 169.739 182.637 170.603C182.637 171.256 182.229 171.81 181.659 172.055L182.637 175.446C182.669 175.593 182.637 175.805 182.555 175.935ZM177.403 167L184.642 166.902V164.473C184.659 162.532 183.11 160.967 181.169 160.983C179.099 161.016 177.403 162.728 177.403 164.815V167Z" fill="url(#paint18_linear_0_9939)"/>
<path fill-rule="evenodd" clip-rule="evenodd" d="M16.3054 190.007L16.2565 186.892C16.2565 185.979 16.9902 185.18 17.936 185.099L19.7296 184.936C19.9578 183.468 20.3492 182.033 20.8709 180.648L19.2567 179.881C18.4414 179.49 18.1479 178.512 18.6045 177.68L20.1535 174.843C20.61 174.011 23.333 173.392 24.1483 173.783L24.132 174.843C25.0451 173.669 26.056 172.576 27.1811 171.598L26.1702 170C25.681 169.25 25.9419 168.223 26.7409 167.701L29.4313 165.924C30.2139 165.418 32.7902 165.092 33.263 165.842L32.7413 167.978C34.0457 167.375 35.4154 166.902 36.8339 166.56L36.8013 164.554C36.785 163.641 37.5187 162.858 38.4319 162.777L41.5462 162.516C42.4593 162.451 43.2093 163.119 43.2256 164.016L43.2583 166.022C44.6768 166.119 46.0465 166.364 47.3509 166.739L48.3129 164.945C48.7532 164.13 51.2316 163.494 52.0143 163.886L53.2372 165.483C54.0361 165.859 54.3133 166.837 53.8731 167.652L52.9274 169.397C54.0524 170.179 55.0797 171.093 55.9928 172.087L57.607 171.011C58.3734 170.489 61.0964 170.147 61.5529 170.881L61.4062 173.913C61.879 174.647 61.6181 175.658 60.8518 176.18L59.3191 177.207C59.8572 178.479 60.2811 179.816 60.542 181.218L62.2704 181.055C63.1672 180.974 63.9009 181.626 63.9172 182.523L63.9661 185.572C63.9824 186.469 63.265 187.268 62.3682 187.349L60.7376 187.496C60.5583 188.98 60.2159 190.431 59.743 191.817L61.1127 192.469C61.8953 192.844 62.1725 193.806 61.7323 194.621L61.5366 197.882C61.0964 198.698 58.8299 198.6 58.0473 198.225L56.7428 197.605C55.846 198.861 54.8188 200.018 53.6774 201.078L54.4112 202.252C54.8677 202.986 54.6068 204.013 53.8405 204.535L52.8295 206.426C52.0469 206.964 49.4054 206.704 48.9488 205.97L48.2314 204.845C46.8454 205.53 45.3943 206.068 43.8779 206.459L43.8942 207.829C43.8942 208.742 43.1767 209.541 42.2636 209.639L39.1493 209.965C38.2362 210.062 37.4861 209.394 37.4698 208.497L37.4535 207.111C35.9208 207.03 34.437 206.785 33.0185 206.377L33.8663 207.975C33.4098 208.807 30.8661 208.872 30.0672 208.497L27.3279 207.225C26.5126 206.85 26.2191 205.872 26.6757 205.04L27.3931 203.703C26.2028 202.872 25.1103 201.91 24.1483 200.817L23.9363 201.877C23.1374 202.415 21.0014 202.073 20.5285 201.323L18.898 198.779C18.4251 198.029 18.686 197.002 19.485 196.464L20.8709 195.534C20.3492 194.214 19.9415 192.811 19.7132 191.344L18.0175 191.507C17.0881 191.588 16.3217 190.92 16.3054 190.007ZM40.1602 174.223C33.263 174.826 27.7355 180.859 27.8333 187.708C27.9312 194.556 33.6218 199.545 40.5189 198.877C47.3672 198.208 52.8132 192.175 52.7154 185.409C52.6176 178.642 47.0085 173.62 40.1602 174.223Z" fill="url(#paint19_linear_0_9939)"/>
<path fill-rule="evenodd" clip-rule="evenodd" d="M18.3925 189.876L18.3436 186.762C18.3273 185.849 19.0773 185.05 20.0394 184.985L21.8329 184.822C22.0612 183.354 22.4526 181.919 22.9743 180.533L21.3601 179.767C20.5448 179.376 20.2513 178.397 20.7079 177.566L22.2569 174.729C22.7134 173.897 23.7244 173.538 24.5396 173.93L26.2354 174.745C27.1485 173.571 28.1594 172.479 29.2845 171.5L28.2736 169.902C27.7844 169.152 28.0453 168.125 28.8443 167.603L31.5347 165.826C32.3173 165.304 33.3446 165.484 33.8174 166.234L34.8447 167.864C36.1491 167.261 37.5188 166.788 38.9373 166.446L38.9047 164.44C38.8884 163.527 39.6221 162.744 40.5352 162.663L43.6496 162.402C44.5627 162.337 45.3127 163.005 45.329 163.902L45.3617 165.907C46.7802 166.005 48.1499 166.25 49.4543 166.625L50.4163 164.831C50.8566 164.016 51.8675 163.657 52.6502 164.049L55.3406 165.353C56.1395 165.728 56.4167 166.706 55.9765 167.522L55.0308 169.266C56.1558 170.049 57.1831 170.962 58.0962 171.957L59.7104 170.881C60.4931 170.375 61.4877 170.554 61.9442 171.288L63.5096 173.799C63.9824 174.533 63.7215 175.544 62.9552 176.066L61.4225 177.093C61.9606 178.365 62.3845 179.702 62.6454 181.104L64.3738 180.941C65.2705 180.859 66.0043 181.512 66.0206 182.409L66.0695 185.458C66.0858 186.354 65.3684 187.153 64.4716 187.235L62.841 187.382C62.6617 188.865 62.3193 190.317 61.8464 191.703L63.2161 192.355C63.9987 192.73 64.2759 193.692 63.8357 194.507L62.3519 197.295C61.9116 198.111 60.917 198.486 60.1343 198.111L58.8299 197.491C57.9331 198.747 56.9059 199.904 55.7645 200.964L56.4982 202.138C56.9548 202.872 56.6939 203.899 55.9276 204.421L53.2861 206.214C52.5034 206.736 51.4925 206.573 51.0359 205.839L50.3185 204.714C48.9325 205.399 47.4814 205.937 45.965 206.329L45.9813 207.698C45.9813 208.611 45.2638 209.41 44.3507 209.508L41.2364 209.834C40.3233 209.932 39.5732 209.264 39.5569 208.367L39.5406 206.981C38.0079 206.899 36.5241 206.655 35.1055 206.247L34.4207 207.535C33.9642 208.367 32.9532 208.742 32.1543 208.367L29.415 207.095C28.5997 206.72 28.3062 205.742 28.7627 204.91L29.4802 203.573C28.2899 202.741 27.1974 201.779 26.2354 200.687L24.9147 201.567C24.1157 202.105 23.0885 201.942 22.6156 201.192L20.9851 198.649C20.5122 197.899 20.7731 196.871 21.5721 196.333L22.958 195.404C22.4362 194.083 22.0286 192.681 21.8003 191.213L20.1046 191.376C19.1752 191.458 18.4088 190.789 18.3925 189.876ZM42.2473 174.093C35.3501 174.696 29.8226 180.729 29.9204 187.577C30.0183 194.426 35.7089 199.415 42.606 198.747C49.4543 198.078 54.9003 192.045 54.8025 185.278C54.7047 178.512 49.0956 173.489 42.2473 174.093Z" fill="url(#paint20_linear_0_9939)"/>
<defs>
<linearGradient id="paint0_linear_0_9939" x1="215.668" y1="70.565" x2="-28.0515" y2="-37.1518" gradientUnits="userSpaceOnUse">
<stop stop-color="#AA80F9"/>
<stop offset="0.9964" stop-color="#6165D7"/>
</linearGradient>
<linearGradient id="paint1_linear_0_9939" x1="-30.8804" y1="156.908" x2="93.6866" y2="255.322" gradientUnits="userSpaceOnUse">
<stop offset="0.00359712" stop-color="#E38DDD"/>
<stop offset="1" stop-color="#9571F6"/>
</linearGradient>
<linearGradient id="paint2_linear_0_9939" x1="66.6745" y1="203.578" x2="66.5523" y2="209.747" gradientUnits="userSpaceOnUse">
<stop stop-color="#40447E"/>
<stop offset="0.9964" stop-color="#3C3B6B"/>
</linearGradient>
<linearGradient id="paint3_linear_0_9939" x1="75.8928" y1="136.777" x2="63.3197" y2="146.582" gradientUnits="userSpaceOnUse">
<stop stop-color="#40447E"/>
<stop offset="0.9964" stop-color="#3C3B6B"/>
</linearGradient>
<linearGradient id="paint4_linear_0_9939" x1="14.6058" y1="197.621" x2="155.749" y2="197.621" gradientUnits="userSpaceOnUse">
<stop stop-color="#40447E"/>
<stop offset="0.9964" stop-color="#3C3B6B"/>
</linearGradient>
<linearGradient id="paint5_linear_0_9939" x1="-73.5757" y1="57.0366" x2="-146.519" y2="324.521" gradientUnits="userSpaceOnUse">
<stop stop-color="#FFC444"/>
<stop offset="0.9964" stop-color="#F36F56"/>
</linearGradient>
<linearGradient id="paint6_linear_0_9939" x1="14.6058" y1="208.308" x2="214.381" y2="208.308" gradientUnits="userSpaceOnUse">
<stop stop-color="#40447E"/>
<stop offset="0.9964" stop-color="#3C3B6B"/>
</linearGradient>
<linearGradient id="paint7_linear_0_9939" x1="34.1971" y1="203.218" x2="180.571" y2="203.218" gradientUnits="userSpaceOnUse">
<stop stop-color="#40447E"/>
<stop offset="0.9964" stop-color="#3C3B6B"/>
</linearGradient>
<linearGradient id="paint8_linear_0_9939" x1="44.7641" y1="144.798" x2="104.567" y2="204.737" gradientUnits="userSpaceOnUse">
<stop stop-color="white"/>
<stop offset="0.9964" stop-color="#EBEFF2"/>
</linearGradient>
<linearGradient id="paint9_linear_0_9939" x1="126.94" y1="134.508" x2="75.9675" y2="71.7778" gradientUnits="userSpaceOnUse">
<stop stop-color="white"/>
<stop offset="0.9964" stop-color="#EBEFF2"/>
</linearGradient>
<linearGradient id="paint10_linear_0_9939" x1="70.2512" y1="167.674" x2="105.869" y2="167.674" gradientUnits="userSpaceOnUse">
<stop stop-color="#FFC444"/>
<stop offset="0.9964" stop-color="#F36F56"/>
</linearGradient>
<linearGradient id="paint11_linear_0_9939" x1="79.3013" y1="151.956" x2="97.2595" y2="151.956" gradientUnits="userSpaceOnUse">
<stop stop-color="#FFC444"/>
<stop offset="0.9964" stop-color="#F36F56"/>
</linearGradient>
<linearGradient id="paint12_linear_0_9939" x1="222.723" y1="170.53" x2="174.83" y2="152.929" gradientUnits="userSpaceOnUse">
<stop stop-color="#444B8C"/>
<stop offset="0.9964" stop-color="#26264F"/>
</linearGradient>
<linearGradient id="paint13_linear_0_9939" x1="224.393" y1="217.171" x2="237.452" y2="70.8564" gradientUnits="userSpaceOnUse">
<stop stop-color="#444B8C"/>
<stop offset="0.9964" stop-color="#26264F"/>
</linearGradient>
<linearGradient id="paint14_linear_0_9939" x1="125.31" y1="73.2132" x2="-21.3163" y2="219.129" gradientUnits="userSpaceOnUse">
<stop stop-color="#FFC444"/>
<stop offset="0.9964" stop-color="#F36F56"/>
</linearGradient>
<linearGradient id="paint15_linear_0_9939" x1="151.321" y1="173.679" x2="193.792" y2="214.784" gradientUnits="userSpaceOnUse">
<stop stop-color="white"/>
<stop offset="0.9964" stop-color="#EBEFF2"/>
</linearGradient>
<linearGradient id="paint16_linear_0_9939" x1="208.222" y1="165.831" x2="171.816" y2="122.623" gradientUnits="userSpaceOnUse">
<stop stop-color="white"/>
<stop offset="0.9964" stop-color="#EBEFF2"/>
</linearGradient>
<linearGradient id="paint17_linear_0_9939" x1="168.539" y1="189.626" x2="193.56" y2="189.626" gradientUnits="userSpaceOnUse">
<stop stop-color="#FFC444"/>
<stop offset="0.9964" stop-color="#F36F56"/>
</linearGradient>
<linearGradient id="paint18_linear_0_9939" x1="174.813" y1="178.555" x2="187.356" y2="178.555" gradientUnits="userSpaceOnUse">
<stop stop-color="#FFC444"/>
<stop offset="0.9964" stop-color="#F36F56"/>
</linearGradient>
<linearGradient id="paint19_linear_0_9939" x1="16.4869" y1="115.316" x2="-38.6738" y2="213.138" gradientUnits="userSpaceOnUse">
<stop stop-color="#311944"/>
<stop offset="1" stop-color="#893976"/>
</linearGradient>
<linearGradient id="paint20_linear_0_9939" x1="18.1424" y1="116.317" x2="-36.1015" y2="212.647" gradientUnits="userSpaceOnUse">
<stop stop-color="#FF9085"/>
<stop offset="1" stop-color="#FB6FBB"/>
</linearGradient>
</defs>
</svg>
