<svg width="112" height="98" viewBox="0 0 112 98" fill="none" xmlns="http://www.w3.org/2000/svg">
<path fill-rule="evenodd" clip-rule="evenodd" d="M107.096 83.6915C106.146 85.5526 103.984 86.3535 102.25 85.4819C102.155 85.4348 102.06 85.3877 102.012 85.317C101.371 86.1651 100.658 86.9896 99.9216 87.7199C99.9386 87.7453 99.9588 87.7706 99.9797 87.7971C100.017 87.8443 100.057 87.8951 100.088 87.9555C101.109 89.6281 100.563 91.9368 98.8763 93.1147C97.1895 94.2926 95.0039 93.8686 93.9823 92.1959C93.9348 92.1253 93.8873 92.0311 93.8398 91.9368L93.8398 91.9368C92.8895 92.3608 91.9392 92.7142 90.9415 92.9969C90.9652 93.0911 90.9652 93.1854 90.9652 93.3032C91.0127 95.3292 89.4448 97.1196 87.4729 97.308C85.5011 97.4965 83.8856 95.9888 83.8381 93.9392V93.633C82.8403 93.5152 81.8663 93.3267 80.8923 93.0676L80.7497 93.3503C79.7994 95.2114 77.6376 96.0123 75.9033 95.1407C74.1928 94.269 73.5514 92.0781 74.5016 90.2171C74.5254 90.1699 74.5551 90.1228 74.5848 90.0757C74.6145 90.0286 74.6442 89.9815 74.6679 89.9344C74.1444 89.5253 73.642 89.0848 73.1679 88.6197C71.4193 89.5553 68.302 88.7744 67.327 87.1781C66.3055 85.5054 66.8519 83.1968 68.5386 82.0188C68.5555 82.0077 68.5736 81.9953 68.5928 81.9822C68.6548 81.9397 68.7274 81.8899 68.8 81.8539C68.4436 80.9116 68.1585 79.9222 67.9447 78.9092C67.8497 78.9327 67.7309 78.9563 67.6359 78.9563C65.664 79.1448 64.0486 77.637 64.0011 75.5875C63.9535 73.5615 65.5215 71.7475 67.4933 71.5826H67.8022C67.9685 70.5461 68.206 69.5331 68.5386 68.4965C68.4674 68.473 68.3724 68.4259 68.2774 68.3787L68.2773 68.3787C66.5668 67.5071 65.9254 65.3162 66.8756 63.4551C67.8259 61.594 69.9878 60.793 71.7221 61.6647C71.7696 61.6882 71.8112 61.7118 71.8527 61.7353C71.8943 61.7589 71.9359 61.7825 71.9834 61.806C72.6248 60.9579 73.3375 60.1334 74.074 59.4031C74.057 59.3777 74.0368 59.3524 74.0159 59.3259C73.9784 59.2787 73.9382 59.2279 73.9077 59.1675C72.8862 57.4949 73.4326 55.1862 75.1193 54.0083C76.8061 52.8304 78.9917 53.2544 80.0132 54.9271C80.0608 54.9977 80.1083 55.092 80.1558 55.1862C81.1061 54.7622 82.0563 54.4088 83.0541 54.1261C83.0304 54.0319 83.0304 53.9376 83.0304 53.8198C82.9829 51.7703 84.432 49.9092 88.7558 50.0034C90.2929 50.0218 90.2564 50.6987 90.1882 51.967C90.1689 52.3258 90.147 52.7319 90.1575 53.1838V53.49C91.1553 53.6078 92.1293 53.7963 93.1033 54.0554L93.2459 53.7727C94.1962 51.9116 95.9067 50.239 99.9453 52.1943C101.544 52.9763 100.619 54.7595 99.72 56.4917C99.6439 56.6382 99.5681 56.7843 99.494 56.9295C99.4702 56.9766 99.4405 57.0237 99.4108 57.0709C99.3811 57.118 99.3514 57.1651 99.3277 57.2122C100.112 57.8247 100.848 58.5079 101.513 59.2382C101.57 59.1823 101.626 59.1411 101.694 59.0913C101.712 59.0782 101.731 59.0645 101.751 59.0497C103.438 57.8718 105.623 58.2959 106.645 59.9685C107.666 61.6411 107.12 63.9498 105.433 65.1277C105.416 65.1388 105.398 65.1513 105.379 65.1644C105.317 65.2069 105.244 65.2566 105.172 65.2926C105.528 66.2349 105.813 67.2244 106.027 68.2374C106.122 68.2138 106.241 68.1903 106.336 68.1903C108.308 68.0018 109.923 69.5095 109.971 71.5591C110.018 73.5851 108.45 75.399 106.479 75.5639H106.17C106.003 76.6005 105.766 77.6135 105.433 78.65C105.504 78.6736 105.599 78.7207 105.695 78.7678C107.405 79.6395 108.046 81.8304 107.096 83.6915ZM72.4823 87.9084C72.5079 87.9365 72.5337 87.9647 72.5596 87.9927C72.4956 87.9534 72.4624 87.9232 72.4823 87.9084ZM75.5945 67.8369C72.1497 74.5745 74.4304 82.5842 80.7022 85.741C86.974 88.9214 94.8614 86.0002 98.3061 79.2626C101.751 72.5249 99.4702 64.5152 93.1984 61.3584C86.9265 58.2016 79.0392 61.0993 75.5945 67.8369Z" fill="url(#paint0_linear_0_7694)"/>
<path d="M106.458 75.832C108.442 75.6665 110.019 73.8459 109.971 71.8126C109.923 69.7556 108.298 68.2424 106.315 68.4316C106.219 68.4316 106.1 68.4552 106.004 68.4789C105.789 67.4622 105.503 66.4692 105.144 65.5234C105.24 65.4762 105.335 65.4052 105.407 65.3579C107.103 64.1758 109.206 61.3386 108.011 59.7781C105.742 56.799 103.4 58.0758 101.703 59.2579C101.608 59.3289 101.536 59.3762 101.464 59.4471C100.795 58.7141 100.055 58.0285 99.2662 57.4138C99.314 57.3192 99.3857 57.2246 99.4335 57.13C99.9591 56.1134 100.007 55.0021 99.6485 54.0564C97.9998 56.9172 96.3989 59.7781 94.798 62.6626C99.8397 66.3037 101.441 73.4913 98.2865 79.6386C95.6104 84.8401 90.3298 87.7483 85.1447 87.3936C84.9058 87.9847 84.6907 88.5758 84.4518 89.1669C83.7828 90.751 83.0182 92.3114 82.2535 93.8719C82.7314 93.9665 83.2093 94.0374 83.6872 94.0847C83.6872 94.1793 83.6872 94.2975 83.6872 94.3921C83.735 96.449 84.9775 98.175 88.5855 97.9859C90.5687 97.8913 90.9032 95.8107 90.8793 93.7537C90.8793 93.6355 90.8793 93.5409 90.8554 93.4463C91.859 93.1626 92.8148 92.8079 93.7705 92.3824C93.8183 92.4769 93.8661 92.5715 93.9139 92.6424C94.9414 94.3211 98.5016 95.0541 100.198 93.8719C101.895 92.6897 101.082 90.0653 100.055 88.3866C100.007 88.2921 99.9352 88.2211 99.8874 88.1502C100.628 87.4172 101.345 86.5897 101.99 85.7386C102.086 85.7859 102.157 85.8331 102.253 85.8804C103.997 86.7552 106.172 85.9514 107.127 84.0835C108.083 82.2157 107.438 80.0169 105.718 79.1421C105.622 79.0948 105.526 79.0475 105.455 79.0238C105.789 77.9835 106.028 76.9669 106.196 75.9265C106.267 75.832 106.363 75.832 106.458 75.832Z" fill="url(#paint1_linear_0_7694)"/>
<path fill-rule="evenodd" clip-rule="evenodd" d="M109.124 84.2074C108.174 86.0871 106.012 86.8961 104.278 86.0158C104.23 85.992 104.189 85.9682 104.147 85.9444C104.106 85.9206 104.064 85.8968 104.017 85.873C103.375 86.7296 102.662 87.5623 101.926 88.2999C101.943 88.3256 101.963 88.3512 101.984 88.3779C102.022 88.4256 102.062 88.4769 102.092 88.5379C103.114 90.2272 102.567 92.559 100.881 93.7487C99.194 94.9384 97.0083 94.5101 95.9868 92.8207C95.9393 92.7494 95.8918 92.6542 95.8443 92.559L95.8442 92.559C94.894 92.9873 93.9437 93.3442 92.9459 93.6297C92.9696 93.7249 92.9696 93.8201 92.9696 93.939C93.0172 95.9853 91.4492 97.8174 89.4774 97.9839C87.5055 98.1743 85.8901 96.6515 85.8426 94.5814V94.2721C84.8448 94.1532 83.8707 93.9628 82.8967 93.7011L82.7542 93.9866C81.8039 95.8663 79.6182 96.6753 77.9077 95.7949C76.1972 94.9146 75.5558 92.7018 76.5061 90.8221C76.5298 90.7745 76.5595 90.7269 76.5892 90.6793C76.6189 90.6317 76.6486 90.5841 76.6724 90.5365C75.8884 89.9179 75.1519 89.2279 74.4867 88.4903C74.4303 88.5468 74.3739 88.5884 74.3058 88.6386C74.2878 88.6519 74.269 88.6657 74.2492 88.6806C72.5624 89.8703 70.3768 89.442 69.3552 87.7527C68.3337 86.0633 68.8801 83.7316 70.5668 82.5419C70.5837 82.5307 70.6018 82.5181 70.621 82.5048C70.683 82.4619 70.7556 82.4117 70.8282 82.3753C70.4718 81.4236 70.1867 80.4243 69.9729 79.4011C69.8779 79.4249 69.7591 79.4487 69.6641 79.4487C67.6922 79.6391 66.0768 78.1163 66.0293 76.0462C65.9817 74 67.5497 72.1679 69.5215 72.0013H69.8304C69.9967 70.9544 70.2342 69.9313 70.5668 68.8844C70.4956 68.8606 70.4006 68.813 70.3055 68.7654L70.3055 68.7654C68.595 67.885 67.9536 65.6722 68.9038 63.7926C69.8541 61.9129 72.016 61.1039 73.7503 61.9842C73.7978 62.008 73.8394 62.0318 73.8809 62.0556C73.9225 62.0794 73.9641 62.1032 74.0116 62.127C74.653 61.2704 75.3657 60.4377 76.1022 59.7001C76.0852 59.6744 76.065 59.6488 76.0441 59.6221C76.0066 59.5744 75.9664 59.5231 75.9359 59.4621C74.9144 57.7728 75.4608 55.441 77.1475 54.2513C78.8343 53.0616 81.0199 53.4899 82.0414 55.1793C82.089 55.2507 82.1365 55.3458 82.184 55.441C83.1343 55.0127 84.0845 54.6558 85.0823 54.3703C85.0586 54.2751 85.0586 54.1799 85.0586 54.061C85.0111 52.0147 86.579 50.1826 88.5509 50.0161C90.5227 49.8257 92.1382 51.3485 92.1857 53.4186V53.7279C93.1835 53.8468 94.1575 54.0372 95.1315 54.2989L95.2741 54.0134C96.2244 52.1337 98.3862 51.3247 100.12 52.2051C101.831 53.0854 102.472 55.2982 101.522 57.1779C101.498 57.2255 101.469 57.2731 101.439 57.3207C101.409 57.3683 101.38 57.4159 101.356 57.4635C102.14 58.0821 102.876 58.7721 103.541 59.5097C103.598 59.4532 103.654 59.4116 103.722 59.3614C103.74 59.3481 103.759 59.3343 103.779 59.3194C105.466 58.1297 107.651 58.558 108.673 60.2473C109.695 61.9367 109.148 64.2684 107.461 65.4581C107.445 65.4693 107.426 65.4819 107.407 65.4952C107.345 65.5381 107.273 65.5883 107.2 65.6247C107.556 66.5764 107.842 67.5757 108.055 68.5989C108.15 68.5751 108.269 68.5513 108.364 68.5513C110.336 68.3609 111.951 69.8837 111.999 71.9538C112.046 74 110.479 75.8321 108.507 75.9987H108.198C108.032 77.0456 107.794 78.0687 107.461 79.1156C107.533 79.1394 107.628 79.187 107.723 79.2346C109.433 80.115 110.075 82.3278 109.124 84.2074ZM77.6464 68.1944C74.2016 74.9993 76.4823 83.0891 82.7542 86.2775C89.026 89.4658 96.8895 86.5392 100.358 79.7343C103.803 72.9293 101.522 64.8395 95.2503 61.6511C88.9785 58.4628 81.0912 61.3894 77.6464 68.1944Z" fill="url(#paint2_linear_0_7694)"/>
<path fill-rule="evenodd" clip-rule="evenodd" d="M69.7608 55.0529C68.2488 58.0786 64.7594 59.3686 61.9911 57.9613C61.9214 57.9261 61.8516 57.8851 61.7818 57.844C61.712 57.803 61.6422 57.7619 61.5724 57.7267C60.5489 59.134 59.409 60.4475 58.2226 61.6437C58.3156 61.7609 58.4087 61.9016 58.5017 62.0423L58.5018 62.0424C60.1301 64.7866 59.2694 68.5628 56.571 70.4626C53.8725 72.3859 50.3366 71.7057 48.7082 68.9615C48.6379 68.8553 48.581 68.7357 48.5272 68.6228C48.5098 68.5863 48.4927 68.5504 48.4756 68.5159C46.9635 69.2196 45.4049 69.8059 43.8231 70.2516C43.8463 70.4157 43.8696 70.6034 43.8696 70.7676C43.9394 74.0981 41.427 77.03 38.2633 77.3114C35.0996 77.5929 32.4942 75.1301 32.4244 71.7996C32.4244 71.7026 32.4306 71.6119 32.4366 71.5243C32.4422 71.4423 32.4477 71.3629 32.4477 71.2836C30.8658 71.1194 29.284 70.8145 27.7254 70.3688C27.6905 70.4509 27.6556 70.5271 27.6207 70.6034C27.5858 70.6796 27.5509 70.7558 27.516 70.8379C26.0039 73.8636 22.5145 75.1536 19.7463 73.7463C16.978 72.339 15.9778 68.727 17.4898 65.7013C17.5596 65.5606 17.6527 65.3964 17.7457 65.2557C16.8936 64.584 16.0931 63.8707 15.3373 63.1158C12.5317 64.6379 7.52487 63.3646 5.97484 60.7524C4.34646 58.0082 5.20718 54.232 7.90564 52.3322C8.0007 52.2637 8.08784 52.2112 8.17168 52.1607C8.23145 52.1247 8.28954 52.0898 8.34763 52.0507C7.78933 50.4792 7.32407 48.8609 6.9984 47.219L6.50988 47.2894C3.34617 47.5709 0.740763 45.1081 0.670975 41.7775C0.601187 38.447 3.11355 35.5151 6.27726 35.2337C6.44007 35.2102 6.60288 35.2102 6.76569 35.2102H6.76577C7.02166 33.5215 7.41712 31.8328 7.9289 30.1675C7.76606 30.1206 7.62649 30.0502 7.48691 29.9798C4.71866 28.5726 3.71837 24.9605 5.23044 21.9349C6.74251 18.9092 10.2319 17.6192 13.0001 19.0265C13.1397 19.0969 13.2793 19.1672 13.4189 19.261C14.4424 17.8538 15.5823 16.5403 16.7687 15.3441C16.6756 15.2268 16.5826 15.0861 16.4895 14.9454C14.8611 12.2012 15.7219 8.42496 18.4203 6.52513C21.1188 4.60184 24.6547 5.28203 26.2831 8.02623C26.3533 8.13248 26.4103 8.2521 26.4641 8.3649C26.4815 8.4015 26.4986 8.43739 26.5157 8.47187C28.0278 7.76823 29.5864 7.18186 31.1682 6.73622C31.145 6.57204 31.1217 6.3844 31.1217 6.22022C31.0519 2.88965 33.4014 -0.136005 40.3104 0.00472282C42.785 0.0414144 42.7263 1.15433 42.6167 3.23123C42.5862 3.80961 42.5517 4.46274 42.5669 5.18821C42.5669 5.28516 42.5607 5.37585 42.5547 5.46351C42.5491 5.54551 42.5436 5.62486 42.5436 5.70422C44.1255 5.8684 45.7073 6.17331 47.2659 6.61895C47.3008 6.53686 47.3357 6.46063 47.3706 6.3844C47.4055 6.30817 47.4404 6.23195 47.4753 6.14986C48.9874 3.1242 51.7556 0.403453 58.2226 3.59329C60.7817 4.8404 59.3134 7.72359 57.8862 10.5261C57.7566 10.7807 57.6274 11.0345 57.5015 11.2864C57.4317 11.4272 57.3386 11.5913 57.2456 11.7321C58.525 12.7406 59.6881 13.843 60.7582 15.0392C60.7771 15.024 60.7966 15.0081 60.8166 14.9918C60.9198 14.9079 61.0368 14.8129 61.1537 14.7343C63.8521 12.811 67.3881 13.4912 69.0164 16.2354C70.6448 18.9796 69.7841 22.7558 67.0856 24.6556C66.9906 24.7241 66.9035 24.7766 66.8196 24.827C66.7599 24.863 66.7018 24.898 66.6437 24.9371C67.202 26.5085 67.6672 28.1269 67.9929 29.7687L68.4814 29.6984C71.6451 29.4169 74.2505 31.8797 74.3203 35.2102C74.3901 38.5408 71.8777 41.4726 68.714 41.7541C68.5512 41.7775 68.3884 41.7775 68.2255 41.7775C67.9696 43.4663 67.5742 45.155 67.0624 46.8203C67.2252 46.8672 67.3648 46.9376 67.5044 47.0079C70.2726 48.4152 71.2729 52.0273 69.7608 55.0529ZM14.2331 61.9486C14.2687 61.9884 14.3045 62.0282 14.3403 62.0679C14.2553 62.0128 14.2113 61.9705 14.2331 61.9486ZM19.2345 29.2058C13.7213 40.1826 17.3968 53.2469 27.4462 58.4069C37.5189 63.5435 50.1505 58.8291 55.687 47.8523C61.2002 36.8755 57.548 23.8112 47.4753 18.6512C37.4026 13.4912 24.771 18.229 19.2345 29.2058Z" fill="url(#paint3_linear_0_7694)"/>
<path d="M68.7181 42.0861C71.8795 41.805 74.39 38.8768 74.3203 35.5504C74.2505 32.2239 71.647 29.7642 68.4856 30.0453C68.3229 30.0688 68.1602 30.0922 67.9975 30.1156C67.672 28.4758 67.2071 26.8595 66.6492 25.29C66.7887 25.1963 66.9282 25.126 67.0909 25.0088C69.7874 23.1114 73.1347 18.4965 71.2286 15.9432C67.6023 11.0941 63.8597 13.2024 61.1632 15.0998C61.0238 15.1935 60.8843 15.3107 60.7681 15.4044C59.6988 14.2097 58.5365 13.1087 57.258 12.1014C57.351 11.9608 57.444 11.7968 57.5137 11.6563C58.3505 10.0165 58.4203 8.18929 57.8624 6.66663C55.2589 11.3049 52.6786 15.9432 50.1448 20.6283C58.1646 26.5549 60.7216 38.2209 55.7005 48.1767C51.4466 56.6099 43.0084 61.3419 34.7562 60.7563C34.3843 61.7167 34.0356 62.6772 33.6405 63.6376C32.5712 66.2144 31.3624 68.7444 30.1304 71.2744C30.8975 71.4149 31.6646 71.532 32.4317 71.6257C32.4317 71.7897 32.4084 71.9537 32.4084 72.1411C32.4782 75.4675 34.4773 78.302 40.1957 77.9741C43.3571 77.8101 43.915 74.4368 43.8453 71.1104C43.8453 70.9464 43.822 70.759 43.7988 70.595C45.3795 70.1499 46.9369 69.5643 48.4479 68.8615C48.5176 69.0021 48.5874 69.1661 48.6804 69.3066C50.3076 72.0474 56.0027 73.2187 58.6992 71.2978C61.3957 69.4003 60.1172 65.1369 58.4668 62.3961C58.3738 62.2555 58.2808 62.115 58.1878 61.9978C59.3733 60.8031 60.5124 59.4913 61.5352 58.0858C61.6747 58.1795 61.8141 58.2497 61.9536 58.32C64.7198 59.7255 68.2067 58.4371 69.7176 55.4152C71.2286 52.3933 70.229 48.7858 67.4628 47.3803C67.3233 47.31 67.1839 47.2397 67.0211 47.1929C67.5325 45.5296 67.9277 43.843 68.1834 42.1564C68.3926 42.0861 68.5553 42.0861 68.7181 42.0861Z" fill="url(#paint4_linear_0_7694)"/>
<path fill-rule="evenodd" clip-rule="evenodd" d="M72.4391 55.6275C70.927 58.6656 67.4376 59.961 64.6694 58.5479L64.6693 58.5478C64.5297 58.4772 64.3902 58.4066 64.2506 58.3124C63.2271 59.7255 62.0872 61.0444 60.9008 62.2455C60.9939 62.3633 61.0869 62.5046 61.18 62.6459C62.8084 65.4014 61.9476 69.1932 59.2492 71.1009C56.5507 73.0322 53.0148 72.3492 51.3864 69.5936C51.3162 69.4869 51.2592 69.3668 51.2054 69.2535C51.188 69.2168 51.1709 69.1807 51.1538 69.1461C49.6417 69.8527 48.0831 70.4415 46.5013 70.8889C46.5246 71.0538 46.5478 71.2422 46.5478 71.4071C46.6176 74.7514 44.1052 77.6954 40.9415 77.978C37.7778 78.2606 35.1724 75.7877 35.1026 72.4434C35.1026 72.346 35.1088 72.2549 35.1148 72.1669C35.1205 72.0846 35.1259 72.0049 35.1259 71.9252C33.544 71.7604 31.9622 71.4542 30.4036 71.0067C30.3687 71.0891 30.3338 71.1657 30.2989 71.2422C30.264 71.3188 30.2291 71.3953 30.1942 71.4777C28.6821 74.5159 25.1928 75.8112 22.4245 74.3981C19.6563 72.985 18.656 69.3581 20.168 66.3199C20.2378 66.1786 20.3309 66.0138 20.4239 65.8724C19.1445 64.8597 17.9814 63.7528 16.9113 62.5517C16.8924 62.5669 16.8729 62.5828 16.8529 62.5992C16.7497 62.6835 16.6328 62.7789 16.5158 62.8578C13.8174 64.7891 10.2814 64.1061 8.65307 61.3505C7.02469 58.595 7.8854 54.8032 10.5839 52.8955C10.6789 52.8267 10.7661 52.774 10.8499 52.7233C10.9097 52.6872 10.9678 52.6521 11.0258 52.6129C10.4675 51.0349 10.0023 49.4098 9.67662 47.7612L9.18811 47.8319C6.02439 48.1145 3.41899 45.6416 3.3492 42.2972C3.27941 38.9529 5.79177 36.0089 8.95548 35.7263C9.11832 35.7028 9.28116 35.7028 9.44399 35.7028C9.69988 34.007 10.0953 32.3113 10.6071 30.6392C10.4443 30.5921 10.3047 30.5214 10.1651 30.4507C7.39689 29.0376 6.3966 25.4107 7.90866 22.3725C9.42073 19.3344 12.9101 18.039 15.6784 19.4521L15.6784 19.4521C15.818 19.5228 15.9575 19.5934 16.0971 19.6876C17.1206 18.2745 18.2605 16.9556 19.4469 15.7545C19.3539 15.6368 19.2608 15.4954 19.1678 15.3541C17.5394 12.5986 18.4001 8.80677 21.0985 6.89909C23.797 4.96785 27.3329 5.65085 28.9613 8.40639C29.0316 8.51308 29.0885 8.63319 29.1423 8.74646C29.1597 8.78322 29.1768 8.81925 29.1939 8.85387C30.706 8.14732 32.2646 7.55853 33.8464 7.11105C33.8232 6.94619 33.7999 6.75778 33.7999 6.59291C33.7301 3.24858 36.2425 0.304621 39.4062 0.022001C42.5699 -0.260619 45.1753 2.21231 45.2451 5.55664C45.2451 5.65399 45.2389 5.74505 45.2329 5.83308C45.2273 5.91542 45.2218 5.9951 45.2218 6.07478C46.8037 6.23964 48.3856 6.54581 49.9441 6.99329C49.979 6.91086 50.0139 6.83432 50.0488 6.75778C50.0837 6.68123 50.1186 6.60469 50.1535 6.52226C51.6656 3.48409 55.155 2.18875 57.9232 3.60185C60.6915 5.01495 61.6918 8.64191 60.1797 11.6801C60.1099 11.8214 60.0168 11.9862 59.9238 12.1276C61.2032 13.1403 62.3664 14.2472 63.4364 15.4483C63.4553 15.433 63.4748 15.4171 63.4948 15.4008C63.5981 15.3165 63.715 15.2211 63.8319 15.1422C66.5304 13.2109 70.0663 13.8939 71.6947 16.6495C73.323 19.405 72.4623 23.1968 69.7639 25.1045C69.6688 25.1733 69.5817 25.226 69.4978 25.2767C69.4381 25.3128 69.38 25.3479 69.3219 25.3871C69.8802 26.9651 70.3454 28.5902 70.6711 30.2388L71.1596 30.1681C74.3233 29.8855 76.9287 32.3584 76.9985 35.7028C77.0683 39.0471 74.556 41.9911 71.3923 42.2737C71.2294 42.2972 71.0666 42.2972 70.9037 42.2972C70.6479 43.993 70.2524 45.6887 69.7406 47.3608C69.9035 47.4079 70.043 47.4786 70.1826 47.5493C72.9508 48.9624 73.9511 52.5893 72.4391 55.6275ZM21.9127 29.6735C16.3995 40.6957 20.075 53.814 30.1244 58.9954C40.1971 64.1767 52.8287 59.4193 58.3652 48.3971C63.8784 37.3749 60.2029 24.2567 50.1535 19.0753C40.0808 13.8939 27.4492 18.6514 21.9127 29.6735Z" fill="url(#paint5_linear_0_7694)"/>
<defs>
<linearGradient id="paint0_linear_0_7694" x1="121.618" y1="74.9252" x2="94.2185" y2="59.8973" gradientUnits="userSpaceOnUse">
<stop offset="0.00359712" stop-color="#E38DDD"/>
<stop offset="1" stop-color="#9571F6"/>
</linearGradient>
<linearGradient id="paint1_linear_0_7694" x1="80.276" y1="75.4172" x2="86.5947" y2="76.5366" gradientUnits="userSpaceOnUse">
<stop offset="0.00359712" stop-color="#E38DDD"/>
<stop offset="1" stop-color="#9571F6"/>
</linearGradient>
<linearGradient id="paint2_linear_0_7694" x1="147.215" y1="62.4359" x2="77.7241" y2="-18.4296" gradientUnits="userSpaceOnUse">
<stop offset="0.00359712" stop-color="#E38DDD"/>
<stop offset="1" stop-color="#9571F6"/>
</linearGradient>
<linearGradient id="paint3_linear_0_7694" x1="93.0272" y1="40.6698" x2="48.6837" y2="16.9005" gradientUnits="userSpaceOnUse">
<stop stop-color="#FF9085"/>
<stop offset="1" stop-color="#FB6FBB"/>
</linearGradient>
<linearGradient id="paint4_linear_0_7694" x1="26.9824" y1="41.4022" x2="37.0635" y2="43.1567" gradientUnits="userSpaceOnUse">
<stop stop-color="#FF9085"/>
<stop offset="1" stop-color="#FB6FBB"/>
</linearGradient>
<linearGradient id="paint5_linear_0_7694" x1="133.329" y1="20.1398" x2="20.0589" y2="-109.376" gradientUnits="userSpaceOnUse">
<stop stop-color="#FF9085"/>
<stop offset="1" stop-color="#FB6FBB"/>
</linearGradient>
</defs>
</svg>
