<svg width="336" height="201" viewBox="0 0 336 201" fill="none" xmlns="http://www.w3.org/2000/svg">
<path d="M311.223 99.9596C302.654 68.7253 267.561 30.3577 198.214 26.3429C198.214 26.3429 145.565 22.7701 93.665 28.1846C62.8685 31.389 35.861 40.9533 18.7666 54.692C1.6721 68.4307 -4.0334 85.1774 2.90572 101.151C7.39962 111.525 10.4396 122.256 9.60252 132.913C8.14861 151.464 8.98571 168.776 41.2801 179.838C70.116 189.709 106.42 198.426 141.027 199.949C164.554 200.98 190.945 199.31 213.613 195.897C329.198 178.487 319.77 131.194 311.223 99.9596Z" fill="#F4F7FA"/>
<path d="M253.965 153.278C255.467 154.488 257.956 155.601 261.905 155.406C269.971 154.989 276.187 142.626 266.689 137.147C257.094 131.613 251.226 139.164 251.226 139.164V116.302L232.049 116.844C229.949 116.9 228.684 119.486 229.88 121.308C235.998 130.625 228.948 139.748 223.26 140.318C216.655 140.999 209.994 137.425 210.633 129.29C210.912 125.772 211.843 122.921 212.803 120.835C213.693 118.916 212.386 116.747 210.397 116.803L187.605 117.442V137.745C187.605 139.289 189.162 140.276 190.47 139.511C192.361 138.413 195.198 137.384 199.036 137.606C206.74 138.065 211.106 144.615 208.325 150.191C202.957 160.941 195.879 158.479 191.874 155.768C190.567 154.878 188.773 155.976 188.773 157.659V181.049L251.893 177.058V154.516C251.879 153.334 253.117 152.597 253.965 153.278Z" fill="#26264F"/>
<path d="M191.86 155.768C195.865 158.465 202.943 160.941 208.311 150.191C211.092 144.615 206.726 138.065 199.022 137.606C195.184 137.384 192.347 138.413 190.456 139.511C189.148 140.276 187.591 139.303 187.591 137.745V117.442L166.009 118.054C163.839 118.11 162.49 115.718 163.575 113.729C171.07 100.115 158.958 94.6082 155.899 94.8863C152.52 95.2062 141.951 97.2921 141.951 105.372C141.951 109.029 143.008 112.102 144.162 114.355C145.163 116.316 143.8 118.722 141.617 118.777L122.093 119.333V139.442C122.093 141.708 119.854 143.391 117.74 142.654C114.737 141.611 110.467 140.638 105.948 141.194C97.3538 142.251 95.1984 154.433 100.232 160.37C103.931 164.737 110.745 161.107 115.877 158.298C118.004 157.13 120.48 158.618 120.48 161.01V185.374L121.634 186.528L188.759 181.049V157.659C188.773 155.976 190.553 154.891 191.86 155.768Z" fill="#26264F"/>
<path d="M255.133 154.433C256.635 155.642 259.124 156.755 263.074 156.56C271.139 156.143 277.355 143.78 267.857 138.301C258.262 132.767 252.394 140.318 252.394 140.318V117.456L233.217 117.998C231.117 118.054 229.852 120.641 231.048 122.462C237.166 131.779 230.116 140.902 224.428 141.472C217.823 142.153 211.162 138.58 211.802 130.444C212.08 126.926 213.011 124.075 213.971 121.989C214.861 120.07 213.554 117.901 211.565 117.957L188.773 118.596V138.899C188.773 140.443 190.33 141.43 191.638 140.665C193.529 139.567 196.366 138.538 200.204 138.76C207.908 139.219 212.274 145.769 209.493 151.345C204.125 162.095 197.047 159.633 193.042 156.922C191.735 156.032 189.941 157.13 189.941 158.813V182.203L253.061 178.212V155.67C253.033 154.488 254.285 153.751 255.133 154.433Z" fill="url(#paint0_linear_0_7612)"/>
<path opacity="0.3" d="M192.82 178.991V160.384C195.281 161.761 197.715 162.387 200.093 162.262C203.416 162.081 208.172 160.273 211.968 152.666C213.554 149.482 213.54 145.852 211.941 142.71C209.869 138.663 205.585 136.062 200.468 135.757C199.801 135.715 199.119 135.701 198.466 135.729C196.032 135.826 193.751 136.354 191.665 137.328V121.572L211.343 120.988C210.035 123.881 209.243 127.01 208.992 130.305C208.687 134.213 209.743 137.634 212.038 140.193C214.694 143.155 218.88 144.74 223.511 144.545C223.872 144.531 224.234 144.503 224.595 144.462C228.684 144.031 232.8 140.665 234.844 136.09C237.013 131.223 236.527 125.744 233.495 120.974L249.71 120.488V148.536L254.438 142.181C254.633 141.945 256.844 139.372 260.57 139.219C262.476 139.136 264.492 139.706 266.578 140.902C269.387 142.515 270.513 144.809 269.874 147.563C269.206 150.428 266.481 153.487 263.101 153.654C260.459 153.779 258.276 153.237 256.816 152.055C256.107 151.484 255.272 151.206 254.382 151.248C252.171 151.359 250.377 153.403 250.377 155.809V175.459L192.82 178.991Z" fill="white"/>
<path d="M193.028 156.936C197.033 159.633 204.111 162.109 209.479 151.359C212.26 145.783 207.894 139.233 200.19 138.774C196.352 138.552 193.515 139.581 191.624 140.679C190.316 141.444 188.759 140.471 188.759 138.913V118.61L167.177 119.222C165.007 119.278 163.658 116.886 164.743 114.897C172.238 101.283 160.126 95.7763 157.067 96.0544C153.688 96.3743 143.119 98.4602 143.119 106.54C143.119 110.197 144.176 113.27 145.33 115.523C146.331 117.484 144.969 119.89 142.785 119.945L123.261 120.501V140.61C123.261 142.876 121.022 144.559 118.908 143.822C115.905 142.779 111.635 141.806 107.116 142.362C98.5219 143.419 96.3665 155.601 101.4 161.539C105.1 165.905 111.914 162.276 117.045 159.467C119.173 158.298 121.648 159.786 121.648 162.178V186.542L189.941 182.217V158.827C189.927 157.144 191.707 156.046 193.028 156.936Z" fill="url(#paint1_linear_0_7612)"/>
<path opacity="0.3" d="M124.749 183.19V162.025C124.749 158.493 121.926 155.754 118.436 155.92C117.462 155.962 116.53 156.226 115.654 156.713C112.929 158.201 109.174 160.259 106.421 160.398C104.961 160.468 104.307 159.953 103.862 159.425C101.79 156.977 101.303 152.764 102.694 149.426C103.361 147.841 104.71 145.866 107.38 145.533C107.881 145.477 108.381 145.435 108.896 145.407C112.4 145.268 115.668 146.103 117.782 146.84C118.505 147.09 119.27 147.201 120.049 147.174C123.525 147.021 126.362 144.031 126.362 140.512V123.589L142.785 123.102C144.871 123.046 146.749 121.906 147.833 120.056C148.918 118.193 149.001 115.954 148.028 114.063C146.79 111.629 146.165 109.098 146.165 106.512C146.165 100.421 156.747 99.2251 157.276 99.1694C158.179 99.1694 161.642 100.407 163.311 103.355C164.799 105.997 164.409 109.39 162.171 113.451C161.114 115.356 161.114 117.609 162.171 119.472C163.213 121.322 165.091 122.393 167.191 122.323L185.867 121.767V139.052C185.867 140.457 186.395 141.736 187.355 142.682C188.272 143.586 189.482 144.059 190.762 144.003C191.526 143.975 192.291 143.739 192.959 143.349C194.558 142.418 196.407 141.889 198.452 141.806C198.924 141.792 199.425 141.792 199.926 141.82C203.082 142 205.766 143.516 206.934 145.783C207.449 146.77 207.866 148.314 206.99 150.066C205.001 154.043 202.679 156.129 200.093 156.254C198.035 156.352 196.004 155.295 194.669 154.377C193.863 153.821 192.903 153.556 191.93 153.612C189.232 153.737 187.035 156.157 187.035 158.994V179.38L124.749 183.19Z" fill="white"/>
<path d="M175.91 191.451C173.268 190.324 170.041 188.391 167.427 185.082C164.604 181.508 161.531 175.055 163.798 172.413C164.646 171.426 166.287 170.897 167.427 171.37C169.096 172.079 168.498 174.541 170.598 178.129C170.987 178.796 173.003 182.231 174.7 181.869C175.548 181.689 176.132 180.618 176.313 179.7C176.842 177.03 173.852 175.584 171.78 171.815C169.68 167.991 168.79 162.248 171.363 159.425C172.837 157.798 175.548 157.047 176.842 157.951C177.398 158.34 177.62 158.98 178.135 163.666C178.552 167.518 178.566 168.603 179.456 169.256C180.374 169.924 182.098 170.049 183.044 169.243C185.505 167.143 179.998 160.982 181.862 153.431C182.696 150.052 185.227 145.463 188.564 145.421C190.817 145.393 193.32 147.438 193.738 149.635C194.113 151.623 192.555 152.486 192.013 156.477C191.846 157.687 191.513 160.176 192.403 160.621C193.459 161.135 195.698 158.577 196.227 157.937C200.218 153.195 198.702 149.551 201.622 147.577C203.903 146.033 207.616 146.367 209.994 148.328C212.066 150.038 213.178 153.07 212.483 155.573C211.774 158.118 208.826 159.912 202.916 163.485C200.12 165.182 197.993 166.239 197.284 168.631C196.936 169.799 196.853 171.565 197.631 171.982C199.342 172.914 202.693 165.919 207.366 166.239C209.757 166.406 212.108 168.45 212.65 170.842C213.303 173.762 211.162 176.877 208.701 178.073C205.488 179.63 203.625 177.002 198.229 178.003C195.837 178.448 191.86 179.783 191.665 181.925C191.582 182.857 192.194 184.011 193.153 184.456C195.295 185.457 197.256 182.064 201.372 181.661C204.334 181.369 207.852 182.69 208.214 184.428C208.714 186.876 202.916 190.116 199.967 191.409C196.366 192.966 188.342 195.511 175.91 191.451Z" fill="url(#paint2_linear_0_7612)"/>
<path opacity="0.5" d="M177.523 190.686C179.22 184.47 187.424 173.414 192.347 168.533C197.158 163.764 202.957 155.601 203.013 155.517L203.18 155.628C203.124 155.712 197.298 163.889 192.486 168.672C187.591 173.54 179.4 184.553 177.718 190.742L177.523 190.686Z" fill="white"/>
<path d="M177.731 192.341C173.685 191.061 167.065 188.266 161.559 182.008C159.292 179.422 154.87 174.388 154.703 167.324C154.619 163.805 155.537 157.812 158.611 157.047C160.585 156.56 163.325 158.257 164.256 160.398C165.202 162.568 163.77 163.903 164.423 168.297C164.66 169.924 164.952 171.815 166.078 172.177C167.024 172.469 168.373 171.648 169.026 170.55C170.389 168.297 167.955 166.308 168.762 162.985C169.332 160.621 171.404 158.159 173.254 158.368C174.853 158.549 176.23 160.732 176.438 162.734C176.758 165.933 173.893 167.073 174.13 170.633C174.241 172.218 174.95 174.193 176.035 174.388C177.273 174.596 178.816 172.455 179.511 170.689C180.429 168.353 179.651 167.171 180.666 166.183C181.806 165.085 184.281 165.112 185.505 166.253C187.243 167.852 186.451 171.551 185.296 173.776C183.822 176.613 181.611 177.239 181.625 179.603C181.625 180.465 181.931 181.661 182.682 181.967C183.753 182.398 185.31 180.826 186.339 179.783C188.856 177.253 188.87 175.639 190.247 175.375C191.652 175.111 193.459 176.418 193.904 177.948C194.155 178.796 194.182 180.381 190.998 183.761C188.801 186.139 184.712 189.685 177.731 192.341Z" fill="#D8DEE8"/>
<path d="M29.1857 109.766C30.2843 108.334 31.7166 106.846 33.5383 105.608C43.6342 98.7662 48.404 113.256 45.3029 121.405C43.7176 125.577 39.9073 126.231 36.5281 125.869C34.0528 125.605 32.2033 128.15 33.2602 130.472L41.8542 149.482L59.4177 140.944C61.3784 139.984 61.6287 137.231 59.9183 135.868C57.9436 134.283 55.7186 131.918 54.2029 128.581C50.8793 121.225 59.6541 114.967 62.6022 113.284C65.2722 111.768 78.5804 111.81 77.3566 127.302C77.1758 129.554 79.4008 131.181 81.3616 130.236L100.775 120.794L92.264 101.965C91.5548 100.393 92.8342 98.7245 94.4612 99.086C102.068 100.783 108.298 93.2176 108.159 89.3378C108.006 84.7349 104.891 76.6693 95.6989 78.1016C90.8595 78.8526 88.2312 81.4113 86.8128 83.6919C85.9784 85.0547 83.9899 84.86 83.3085 83.3582L76.7587 66.0311L75.229 65.447L54.926 74.486C52.9096 75.3899 52.7844 78.2546 54.7035 79.4505C57.4569 81.161 60.6275 83.3025 61.8791 84.8044C64.2709 87.6552 65.4808 95.2062 58.333 99.7674C51.1157 104.37 43.1475 101.631 40.2967 94.497C39.0173 91.2847 38.6001 88.3644 38.5306 86.1116C38.4611 84.0813 36.3473 82.7602 34.5256 83.5668L15.9192 91.8409L23.7345 109.14C24.7357 111.351 27.6977 111.699 29.1857 109.766Z" fill="#26264F"/>
<path d="M30.7153 110.35C31.8139 108.918 33.2462 107.43 35.068 106.192C45.1638 99.3502 49.9336 113.84 46.8326 121.989C45.2473 126.161 41.437 126.815 38.0578 126.453C35.5825 126.189 33.733 128.734 34.7898 131.056L43.3838 150.066L60.9473 141.528C62.9081 140.568 63.1584 137.815 61.4479 136.452C59.4733 134.867 57.2483 132.502 55.7325 129.165C52.4089 121.809 61.1837 115.551 64.1318 113.868C66.8018 112.352 80.11 112.394 78.8863 127.886C78.7055 130.138 80.9305 131.765 82.8913 130.82L102.304 121.378L93.7937 102.535C93.0845 100.963 94.3638 99.2945 95.9909 99.6561C103.598 101.353 109.827 93.7877 109.688 89.9079C109.535 85.3049 106.42 77.2394 97.2285 78.6717C92.3892 79.4226 89.7609 81.9814 88.3425 84.262C87.5081 85.6248 85.5195 85.4301 84.8381 83.9282L76.7447 66.0171L56.4417 75.0561C54.4253 75.96 54.3002 78.8247 56.2192 80.0206C58.9726 81.7311 62.1432 83.8726 63.3948 85.3745C65.7867 88.2252 66.9965 95.7763 59.8487 100.338C52.6314 104.94 44.6632 102.201 41.8124 95.0671C40.5331 91.8547 40.1159 88.9344 40.0464 86.6816C39.9768 84.6513 37.8631 83.3303 36.0414 84.1368L17.4349 92.411L25.2502 109.71C26.2793 111.935 29.2413 112.269 30.7153 110.35Z" fill="url(#paint3_linear_0_7612)"/>
<path opacity="0.3" fill-rule="evenodd" clip-rule="evenodd" d="M37.5989 129.721L44.8718 145.838L59.4037 138.802C56.5808 136.507 54.4114 133.712 52.9513 130.486C49.0158 121.781 57.2205 114.216 62.63 111.156C62.7551 111.087 62.8803 111.017 63.0054 110.962C65.6059 109.752 71.5855 109.543 76.1746 112.923C79.1088 115.064 82.4324 119.403 81.8483 127.9L98.4244 119.876L91.1515 103.786C89.9834 101.2 91.0264 98.1681 93.4738 97.0278C94.4056 96.5828 95.4485 96.4716 96.4915 96.708C98.1463 97.0835 99.829 96.8749 101.484 96.0961C105.03 94.4274 106.852 90.9508 106.824 89.9079C106.754 87.7246 105.809 84.7626 103.862 83.0521C102.346 81.7171 100.288 81.2304 97.743 81.6337C96.6166 81.8145 95.5876 82.1204 94.6698 82.5376C93.0288 83.3025 91.7217 84.4428 90.79 85.9585C90.3032 86.7651 89.594 87.3909 88.7597 87.7802C87.6054 88.3087 86.3122 88.3504 85.0884 87.8915C83.8091 87.4048 82.78 86.4313 82.1959 85.1381L75.3541 69.9803L58.1383 77.6705C63.8259 81.2582 65.1887 82.8714 65.6337 83.4137C67.6084 85.7917 68.5818 89.5602 68.109 93.0507C67.7335 95.8736 66.2734 99.8786 61.4758 102.952C60.7526 103.411 60.0156 103.814 59.2647 104.162C55.2458 106.025 50.921 106.178 47.0968 104.593L46.8048 104.468C50.6429 108.779 51.9639 117.094 49.6694 123.144C48.7099 125.647 47.0134 127.552 44.7466 128.623C42.7998 129.554 40.4357 129.874 37.7379 129.582C37.7009 129.582 37.6823 129.588 37.67 129.592C37.6638 129.595 37.6591 129.596 37.6545 129.596C37.6128 129.624 37.585 129.666 37.585 129.68C37.585 129.68 37.585 129.693 37.5989 129.721ZM28.0871 108.417C28.1288 108.5 28.2122 108.459 28.2122 108.459C28.2261 108.445 28.24 108.431 28.2678 108.417C29.7558 106.484 31.4663 104.857 33.3436 103.592C34.0945 103.077 34.8455 102.646 35.5964 102.312C38.0439 101.2 40.4914 101.019 42.6885 101.728C41.1171 100.226 39.8517 98.3489 38.9895 96.1935C37.8214 93.2454 37.1539 90.1999 37.0148 87.1127L21.579 94.0102L28.0871 108.417Z" fill="white"/>
<path d="M29.2273 196.805C28.2817 197.75 27.9063 198.765 28.2539 199.363C28.4903 199.781 29.0048 199.878 29.5889 199.989C30.4928 200.156 31.4245 200.114 33.3575 199.572C35.1653 199.057 36.2221 198.765 36.2221 198.334C36.2221 197.931 35.2904 197.611 34.4839 197.333C33.3297 196.944 32.3284 196.832 31.6331 196.805C30.8265 196.805 30.0339 196.805 29.2273 196.805Z" fill="url(#paint4_linear_0_7612)"/>
<path d="M57.29 181.424C56.8728 181.605 56.3305 181.925 56.1775 182.467C55.955 183.302 56.845 184.178 58.2774 185.527C59.362 186.542 60.8083 187.919 61.3228 187.571C61.6287 187.362 61.448 186.598 61.2811 185.888C61.0725 185.04 60.6275 183.719 59.5011 182.273C59.5011 182.259 59.5011 182.259 57.29 181.424Z" fill="url(#paint5_linear_0_7612)"/>
<path d="M31.2994 194.705L29.283 196.944C29.0744 197.18 29.1856 197.542 29.4777 197.625C29.9227 197.75 30.5345 197.848 31.1047 197.695C31.2299 197.653 31.3411 197.583 31.4384 197.5L33.4548 195.525L31.2994 194.705Z" fill="url(#paint6_linear_0_7612)"/>
<path d="M58.4163 180.076L57.3317 181.647C57.1787 181.869 57.2482 182.175 57.4846 182.301C57.6376 182.384 57.8323 182.481 58.027 182.551C58.3468 182.662 58.6945 182.579 58.917 182.328L60.099 180.993L58.4163 180.076Z" fill="url(#paint7_linear_0_7612)"/>
<path d="M38.8365 147.187C39.8655 149.357 41.1171 152.472 41.8819 156.379C42.2018 158.02 43.6897 166.294 40.4913 176.265C37.5154 185.541 32.0225 191.451 29.0883 194.19C29.5054 194.538 30.0756 194.955 30.8126 195.303C31.9946 195.859 33.0793 195.984 33.7746 196.012C42.7024 189.643 47.0272 182.426 48.988 178.49C55.6212 165.238 53.9525 152.221 51.06 146.729C50.1144 144.921 49.0297 143.947 47.8199 143.502C43.9261 142.126 39.3927 146.617 38.8365 147.187Z" fill="url(#paint8_linear_0_7612)"/>
<path opacity="0.3" d="M51.0739 146.742C50.1283 144.935 49.0436 143.961 47.8338 143.516C43.9261 142.126 39.3927 146.617 38.8504 147.187C39.8655 149.329 41.1032 152.388 41.8541 156.226C44.5797 156.866 48.39 158.396 50.2534 161.984C53.2572 167.81 48.9324 174.777 48.0424 176.224C46.0677 179.408 44.8718 179.116 41.9515 183.691C39.7543 187.154 39.5874 188.656 37.6684 190.324C35.4156 192.285 32.6065 192.869 30.3259 192.994C29.8809 193.453 29.4637 193.857 29.0883 194.204C29.5054 194.552 30.0756 194.969 30.8126 195.317C31.9946 195.873 33.0793 195.998 33.7746 196.026C42.7024 189.657 47.0272 182.44 48.988 178.504C55.6351 165.252 53.9664 152.235 51.0739 146.742Z" fill="url(#paint9_linear_0_7612)"/>
<path d="M43.8844 146.701C44.3711 147.674 45.2055 149.134 46.5822 150.567C50.0865 154.224 53.3545 153.876 57.0674 156.88C57.5263 157.256 60.8082 159.981 62.0319 163.958C64.3682 171.607 57.582 179.158 56.831 179.978C57.2621 180.381 57.9296 180.91 58.8335 181.341C59.6679 181.744 60.4188 181.939 60.9751 182.036C70.7094 173.136 75.4653 162.359 72.2252 155.35C70.4591 151.526 66.2733 148.745 63.1862 146.701C58.1382 143.349 53.3128 141.82 50.17 141.083C48.0702 142.946 45.9842 144.823 43.8844 146.701Z" fill="url(#paint10_linear_0_7612)"/>
<path d="M49.6973 126.398C49.8502 130.709 48.849 132.934 50.2396 136.452C51.2409 138.983 52.9096 140.707 54.1751 141.792C53.4519 143.169 51.7832 145.922 48.5152 148.077C44.5659 150.678 40.6444 150.845 39.1008 150.831C35.8328 149.148 30.8822 145.978 26.9051 140.346C24.2073 136.521 21.2453 132.322 22.0379 126.968C23.0392 120.168 29.3386 116.538 31.1186 115.509C32.3007 114.828 40.408 110.155 45.3725 113.59C49.3496 116.344 49.586 123.171 49.6973 126.398Z" fill="url(#paint11_linear_0_7612)"/>
<path d="M76.8421 131.279C76.9672 130.584 77.4678 130.083 77.7599 129.791C78.0936 129.457 78.1632 129.513 78.3717 129.235C78.9141 128.553 78.7889 127.844 78.9975 127.816C79.1783 127.802 79.4981 128.303 79.4703 128.831C79.4425 129.415 79.0114 129.596 79.0949 129.93C79.2061 130.389 80.2352 130.723 81.1391 130.556C82.182 130.361 82.6966 129.513 83.1137 129.721C83.4058 129.874 83.3919 130.431 83.3919 130.486C83.3502 131.529 81.9456 132.628 80.5967 132.767C79.818 132.85 79.526 132.572 78.5942 132.795C77.9824 132.948 77.7599 133.17 77.4539 133.031C76.9116 132.836 76.7169 131.946 76.8421 131.279Z" fill="url(#paint12_linear_0_7612)"/>
<path d="M76.9811 130.917C68.5957 131.501 63.5895 129.318 60.5719 127.232C53.73 122.49 52.3811 114.967 44.4407 112.937C42.9945 112.561 40.4636 111.921 39.0869 113.215C36.2222 115.899 39.6014 125.716 45.5393 131.752C46.8465 133.087 51.5746 137.745 59.3759 138.802C69.3745 140.151 76.5501 134.505 77.7877 133.504C78.1771 133.059 78.3022 132.447 78.0936 131.905C77.8155 131.126 77.0507 130.931 76.9811 130.917Z" fill="url(#paint13_linear_0_7612)"/>
<path opacity="0.3" d="M35.499 144.1C33.1349 141.861 34.2613 140.485 31.3549 135.993C28.3929 131.418 26.2653 131.334 24.9025 128.247C24.1933 126.648 23.7622 124.354 24.5409 121.072C23.345 122.685 22.3715 124.632 22.0239 126.968C21.2451 132.322 24.2072 136.521 26.891 140.346C30.8682 145.992 35.8188 149.148 39.0868 150.831C40.6303 150.845 44.5519 150.664 48.5012 148.077C49.9614 147.118 51.1156 146.033 51.9917 145.004C50.7818 145.672 49.3773 146.242 47.7503 146.603C46.9715 146.756 39.8238 148.189 35.499 144.1Z" fill="url(#paint14_linear_0_7612)"/>
<path d="M33.3713 110.128L32.6621 113.145C32.4396 113.882 31.9946 114.536 31.3967 115.009L29.5889 116.427C29.5889 116.427 35.1096 115.495 37.7657 112.923L36.1526 112.408C35.9857 112.353 35.8605 112.2 35.8605 112.019V110.322L33.3713 110.128Z" fill="url(#paint15_linear_0_7612)"/>
<path d="M35.1931 111.073C35.4295 111.018 37.1261 111.296 37.5989 110.489C38.2525 109.377 37.5989 107.611 37.5433 107.346C37.2652 106.206 37.1678 106.025 36.9592 105.789L36.6533 105.469C36.6533 105.469 36.6394 105.455 36.6116 105.441C36.403 105.302 35.6242 105.066 35.4574 105.052C34.915 105.024 33.8303 106.957 33.2046 109.919C33.1489 110.03 33.1072 110.128 33.0516 110.239C32.9125 110.531 35.1653 111.184 35.1931 111.073Z" fill="url(#paint16_linear_0_7612)"/>
<path d="M37.9187 104.913C37.6684 105.817 36.987 106.679 36.7228 106.776C36.695 106.79 36.5003 106.874 36.2917 107.054C36.2639 107.082 36.2361 107.11 36.2083 107.152C35.8606 107.666 36.5838 108.584 36.3473 108.793C36.1666 108.946 35.6242 108.528 35.4991 108.667C35.3878 108.806 35.8189 109.251 35.6938 109.404C35.5964 109.53 35.3183 109.321 35.0541 109.474C34.9289 109.557 34.9289 109.641 34.7481 109.933C34.6369 110.1 34.5117 110.267 34.4144 110.364C33.9555 110.809 33.0238 110.767 32.8986 110.517C32.8708 110.447 32.9264 110.406 32.9264 110.197C32.9264 110.197 32.9264 110.002 32.8569 109.752C32.7596 109.404 32.3702 109.057 32.0086 108.626C31.3411 107.805 31.2438 107.235 31.2299 107.054C31.216 106.985 31.216 106.943 31.216 106.901C31.1743 106.178 31.4385 105.191 31.8974 104.676C32.6761 103.8 33.6774 104.579 34.8733 103.828C36.25 102.952 36.0414 101.2 36.6672 101.186C37.3903 101.13 38.3776 103.244 37.9187 104.913Z" fill="#26264F"/>
<path d="M36.097 108.487C35.9579 108.125 35.4851 108.306 35.3878 108.695C35.2765 109.085 35.5546 109.599 35.944 109.627C36.3334 109.641 36.2778 108.973 36.097 108.487Z" fill="url(#paint17_linear_0_7612)"/>
<path d="M265.534 73.8042C265.534 73.8042 266.146 72.5527 264.714 71.4263C263.281 70.2999 260.556 68.7563 260.778 66.6008C260.778 66.6008 262.252 69.0761 263.212 68.8536C264.171 68.6311 264.811 69.1735 264.811 69.1735C264.811 69.1735 267.036 70.4389 266.98 72.8725C266.911 75.3061 266.911 75.3061 266.911 75.3061L265.534 73.8042Z" fill="url(#paint18_linear_0_7612)"/>
<path d="M264.853 73.248C265.687 73.1089 266.521 72.9838 267.356 72.8447C268.079 73.9155 269.08 75.6121 269.817 77.8509C271.5 82.8989 270.207 85.7357 271.208 88.7812C272.028 91.2843 274.531 94.3993 282.221 96.7077C282.166 101.589 282.11 106.484 282.055 111.365C278.898 110.892 273.822 109.64 268.969 105.927C266.16 103.772 263.114 101.436 261.988 97.4308C260.57 92.369 262.669 86.3893 263.504 84.0392C263.977 82.6903 264.894 80.4236 265.047 77.1695C265.131 75.5147 264.992 74.1519 264.853 73.248Z" fill="url(#paint19_linear_0_7612)"/>
<path d="M260.264 32.5168C262.878 31.9327 266.549 32.0161 270.471 34.9503C277.911 40.5267 274.337 48.3837 271.152 51.7212C268.468 54.5302 258.72 55.3785 254.59 48.7592C253.714 47.3546 251.628 47.6049 251.002 49.2041L243.493 68.4642L264.964 76.1404C266.827 76.8079 267.259 79.311 265.743 80.7711C264.088 82.3703 262.183 84.6788 260.653 87.8633C257.107 95.2196 262.016 100.963 268.413 102.729C273.934 104.259 283.807 98.3207 281.485 87.4183C281.026 85.2906 283.139 83.3438 285.128 84.053L303.206 90.5055L312.746 69.229L312.092 67.7272C303.79 72.7751 296.364 67.9079 295.961 59.5781C295.558 51.2066 300.717 45.672 308.17 47.8135C311.981 48.9121 313.9 51.2623 314.859 53.2926C315.36 54.3494 316.834 54.2243 317.279 53.084L325.108 36.2019L324.455 34.7L306.933 27.7608C304.986 26.996 304.777 24.1035 306.627 22.9493C308.226 21.9481 309.77 20.4879 310.701 18.3742C313.413 12.2694 311.397 4.57927 305.848 1.57554C300.258 -1.45601 291.761 1.99272 290.315 8.34784C289.634 11.3516 289.647 14.4805 289.842 16.9279C290.009 18.9721 288.048 20.5574 286.24 19.8343L265.2 11.5045L258.067 29.819C257.469 31.3069 258.706 32.8644 260.264 32.5168Z" fill="#26264F"/>
<path d="M260.931 34.0187C263.546 33.4346 267.217 33.5181 271.138 36.4523C278.578 42.0287 275.004 49.8856 271.82 53.2231C269.136 56.0322 259.388 56.8804 255.258 50.2611C254.381 48.8566 252.296 49.1069 251.67 50.7061L244.16 69.9661L265.632 77.6423C267.495 78.3098 267.926 80.813 266.41 82.2731C264.755 83.8723 262.85 86.1807 261.321 89.3652C257.775 96.7216 262.683 102.465 269.08 104.231C274.601 105.761 284.474 99.8227 282.152 88.9202C281.693 86.7926 283.807 84.8457 285.795 85.5549L303.873 92.0074L312.746 69.2291C304.444 74.277 297.018 69.4099 296.614 61.0801C296.211 52.7086 301.37 47.1739 308.824 49.3155C312.634 50.4141 314.553 52.7642 315.513 54.7945C316.014 55.8514 317.488 55.7262 317.933 54.5859L325.094 36.202L307.573 29.2628C305.626 28.498 305.417 25.6055 307.267 24.4513C308.866 23.45 310.409 21.9899 311.341 19.8761C314.053 13.7713 312.036 6.08122 306.488 3.07749C300.898 0.045947 292.401 3.49468 290.955 9.84979C290.273 12.8535 290.287 15.9824 290.482 18.4299C290.649 20.4741 288.688 22.0594 286.88 21.3363L265.84 13.0065L258.706 31.3209C258.122 32.8089 259.374 34.3664 260.931 34.0187Z" fill="url(#paint20_linear_0_7612)"/>
<path opacity="0.3" d="M269.289 101.158C266.424 100.17 264.227 98.2652 263.406 96.068C262.781 94.3715 262.948 92.508 263.907 90.5056C265.047 88.1415 266.535 86.0695 268.329 84.3451C269.789 82.9406 270.471 80.9381 270.151 78.9912C269.831 77.0305 268.566 75.473 266.758 74.8194L248.026 68.0888L253.783 53.3066C255.257 55.1005 257.218 56.4772 259.499 57.3115C264.547 59.175 270.971 58.2294 273.836 55.2395C276.214 52.7503 278.662 48.3977 278.411 43.6418C278.272 41.0135 277.201 37.2032 272.918 33.9909C271.611 33.0036 270.234 32.2387 268.83 31.6964C266.619 30.8481 264.352 30.5422 262.044 30.8064L267.481 16.8585L285.837 24.0897C287.617 24.785 289.606 24.4652 291.149 23.2136C292.693 21.9621 293.513 20.0291 293.346 18.0266C293.11 15.2176 293.249 12.5893 293.75 10.42C294.278 8.13935 296.155 6.76264 297.226 6.15077C299.59 4.80187 302.427 4.52375 304.61 5.41374C304.805 5.49718 305.014 5.59452 305.194 5.69186C309.339 7.93076 311.007 13.8687 308.88 18.6663C308.309 19.9457 307.336 21.0304 305.973 21.8786C304.193 22.9911 303.136 25.0353 303.248 27.1908C303.359 29.388 304.624 31.2236 306.529 31.9745L321.548 37.8985L316.486 50.873C315.082 49.1069 313.218 47.7441 310.979 46.8819C310.576 46.729 310.145 46.576 309.714 46.4508C305.528 45.241 301.565 45.978 298.575 48.5507C295.321 51.3458 293.597 56.0183 293.861 61.3443C294.139 67.0737 297.226 71.6905 301.899 73.4149C303.832 74.1241 305.904 74.3049 308.031 73.9572L302.441 88.3084L286.922 82.732C285.031 82.0506 282.875 82.5512 281.29 84.0114C279.718 85.4715 279.009 87.6548 279.44 89.6851C280.428 94.3437 278.675 97.25 277.035 98.8771C274.768 101.116 271.75 101.825 270.054 101.366C269.775 101.325 269.525 101.241 269.289 101.158Z" fill="white"/>
<path d="M309.283 69.841C309.199 69.4377 308.907 69.1178 308.518 69.0066C308.129 68.8814 307.712 68.9927 307.419 69.2847C307.378 69.3264 307.35 69.3542 307.322 69.396C306.933 69.8966 309.172 70.4667 308.101 71.0786C307.044 71.6905 307.044 72.8586 307.35 73.6095C307.656 74.3605 308.741 74.9584 308.741 74.9584L309.269 73.9711C308.309 72.6083 309.339 72.5527 309.533 72.0659C309.631 71.8017 309.464 70.7449 309.283 69.841Z" fill="url(#paint21_linear_0_7612)"/>
<path d="M274.42 182.912C274.337 182.968 272.807 185.04 272.112 186.388L270.207 185.373C270.207 185.373 271.277 184.998 271.82 182.926C272.376 180.84 274.42 182.912 274.42 182.912Z" fill="url(#paint22_linear_0_7612)"/>
<path d="M269.428 187.626C269.428 187.626 270.624 188.029 271.111 188.071H271.166C271.444 188.085 271.722 187.974 271.889 187.737C272.181 187.348 272.612 186.75 272.612 186.583C272.626 186.333 271.931 185.804 271.319 185.582C270.707 185.359 270.568 185.054 269.428 184.15C268.288 183.246 266.369 182.161 265.465 182.995C264.575 183.816 265.409 185.888 269.428 187.626Z" fill="url(#paint23_linear_0_7612)"/>
<path d="M266.132 183.121C267.119 183.51 267.411 184.622 269.136 185.749C270.109 186.389 271.305 186.973 272.167 187.362C272.404 187.042 272.612 186.694 272.626 186.583C272.64 186.333 271.945 185.804 271.333 185.582C270.721 185.359 270.582 185.054 269.442 184.15C268.301 183.246 266.382 182.161 265.478 182.995C265.256 183.204 265.131 183.496 265.159 183.844C265.325 183.357 265.631 182.926 266.132 183.121Z" fill="url(#paint24_linear_0_7612)"/>
<path d="M285.74 127.037C282.68 133.184 279.579 140.568 277.007 149.12C273.169 161.858 271.708 173.331 271.236 182.425C272.32 182.87 273.419 183.329 274.504 183.774C276.645 182.411 279.788 180.006 282.11 176.098C285.907 169.701 283.223 166.461 286.324 158.757C289.314 151.303 293.11 151.178 296.406 143.057C298.367 138.218 298.812 133.823 298.909 130.959C294.501 129.665 290.12 128.344 285.74 127.037Z" fill="url(#paint25_linear_0_7612)"/>
<path opacity="0.3" d="M291.733 128.831C292.915 131.89 292.818 134.185 292.359 135.867C290.843 141.472 284.85 142.084 283.431 148.355C282.472 152.555 284.892 153.487 283.626 157.867C282.277 162.498 279.301 162.303 277.674 167.087C276.395 170.841 277.758 172.371 277.188 177.642C276.993 179.463 276.631 181.132 276.2 182.606C278.119 181.174 280.344 179.074 282.11 176.112C285.907 169.715 283.223 166.475 286.324 158.771C289.314 151.317 293.11 151.192 296.406 143.071C298.367 138.231 298.812 133.837 298.909 130.972C296.503 130.249 294.111 129.54 291.733 128.831Z" fill="url(#paint26_linear_0_7612)"/>
<path d="M333.73 172.065C333.73 172.065 334.537 172.371 334.898 173.498C335.26 174.624 334.676 179.31 334.161 180.465C333.647 181.619 332.145 181.341 331.714 180.465C331.269 179.588 331.894 173.386 331.894 173.386L333.73 172.065Z" fill="url(#paint27_linear_0_7612)"/>
<path d="M286.213 129.818C289.759 134.63 292.22 138.802 293.792 141.722C297.129 147.882 297.894 150.858 301.829 156.574C305.473 161.872 307.878 163.777 308.866 164.514C311.23 166.28 313.191 167.073 318.225 168.978C322.619 170.647 327.278 172.371 332.186 174.123C333.049 174.221 333.424 173.845 333.66 173.066C333.577 169.326 332.451 167.031 331.519 165.682C329.516 162.79 327.444 162.776 321.27 158.395C317.974 156.059 316.306 154.849 314.915 152.944C314.247 152.026 313.149 150.316 311.425 143.877C310.715 141.235 309.867 137.675 309.144 133.35C301.509 132.182 293.861 131 286.213 129.818Z" fill="url(#paint28_linear_0_7612)"/>
<path d="M281.651 96.5129C284.294 97.0274 287.965 97.4307 292.248 96.9301C299.702 96.054 305.111 92.8973 307.906 90.9644C310.966 97.6254 311.021 102.576 310.493 105.886C310.089 108.333 309.491 109.154 309.436 111.893C309.339 116.51 310.993 117.205 311.772 123.199C312.412 128.136 311.494 129.206 312.926 131.264C313.955 132.738 315.332 133.462 316.153 135.77C316.417 136.535 317.098 138.426 316.375 139.052C315.235 140.039 312.384 136.132 307.086 135.589C304.263 135.311 303.832 136.298 300.897 135.728C297.699 135.116 297.922 133.893 294.918 133.281C291.942 132.683 291.038 133.754 286.491 133.211C284.572 132.989 283.626 132.864 283.028 132.335C281.095 130.625 282.694 127.204 283.042 121.836C283.39 116.538 282.069 116.19 281.526 108.305C281.318 105.496 281.206 101.477 281.651 96.5129Z" fill="url(#paint29_linear_0_7612)"/>
<path d="M307.364 74.8055C307.962 74.138 308.56 73.4566 309.158 72.7891C311.689 74.1519 315.541 76.6411 319.045 80.8825C321.659 84.067 323.982 86.8621 324.232 90.9366C324.594 96.7772 320.45 101.144 318.531 103.174C314.734 107.179 310.368 108.862 307.865 109.585C303.025 98.8353 303.734 94.6356 305.459 92.8418C306.418 91.8405 307.698 91.5624 308.88 89.7129C310.521 87.1402 310.229 84.2199 310.048 82.3704C309.714 78.9773 308.379 76.3769 307.364 74.8055Z" fill="url(#paint30_linear_0_7612)"/>
<path d="M292.818 91.326C292.679 92.0631 292.595 93.6345 293.569 94.886C294.417 95.9846 295.71 96.3184 296.225 96.4574C297.477 96.7912 298.158 96.527 298.227 96.7355C298.38 97.2084 295.293 99.336 291.733 99.1969C289.633 99.1135 287.534 98.2652 287.548 97.5977C287.575 96.8468 290.259 96.9302 290.927 95.3588C291.358 94.3576 290.76 93.1339 290.134 92.1743C290.718 91.5207 292.234 92.0075 292.818 91.326Z" fill="url(#paint31_linear_0_7612)"/>
<path d="M290.245 90.6725C290.023 90.0606 290.273 89.254 290.857 88.9064C291.372 88.6144 291.97 88.7673 292.317 88.8647C293.36 89.1428 294.487 90.0328 294.654 91.0618C294.751 91.6737 293.833 92.5359 293.68 92.6889C293.513 92.8696 293.305 92.8696 293.082 92.967C292.776 93.106 292.29 93.3285 291.497 93.704C291.511 93.5093 291.511 93.259 291.483 92.967C291.469 92.8557 291.413 92.4246 291.261 92.0214C290.927 91.2426 290.44 91.2426 290.245 90.6725Z" fill="url(#paint32_linear_0_7612)"/>
<path d="M292.512 93.5371C292.512 93.5371 291.525 94.3019 290.232 93.7039C289.077 93.1755 289.731 90.6307 290.649 90.3943C290.955 90.3108 291.483 90.436 291.859 90.7002C292.081 90.8532 292.123 90.9783 292.498 91.2286C292.832 91.465 292.943 91.465 293.027 91.5902C293.124 91.7571 293.138 92.063 292.679 92.7027C292.971 92.5775 293.263 92.5914 293.43 92.7583C293.458 92.7861 293.513 92.8696 293.541 92.9669C293.597 93.3146 293.207 93.5649 292.512 93.5371Z" fill="url(#paint33_linear_0_7612)"/>
<path opacity="0.3" d="M316.361 139.038C315.221 140.025 312.37 136.118 307.072 135.589C304.249 135.311 303.818 136.299 300.884 135.728C297.685 135.117 297.908 133.893 294.904 133.281C291.928 132.683 291.024 133.754 286.477 133.211C284.558 132.989 283.598 132.864 283 132.335C281.067 130.611 282.667 127.204 283.014 121.836C283.306 117.317 282.388 116.385 281.777 111.323C278.606 110.822 273.683 109.543 268.969 105.927C267.537 104.829 266.035 103.675 264.769 102.284C265.868 103.049 267.996 104.245 270.596 104.453C273.447 104.676 275.908 103.244 277.021 102.465C277.952 102.507 280.928 102.812 283.125 105.343C285.267 107.819 285.17 110.697 285.142 111.295C283.153 119.055 284.182 122.031 285.712 123.199C288.396 125.243 292.429 121.655 296.461 124.061C299.98 126.161 299.674 130.555 302.705 131.07C304.889 131.445 305.737 129.29 307.99 129.721C310.507 130.208 310.84 133.17 313.371 135.381C314.108 136.034 315.124 136.688 316.542 137.161C316.723 137.912 316.778 138.676 316.361 139.038Z" fill="url(#paint34_linear_0_7612)"/>
<path d="M165.385 15.7756C175.467 7.00078 191.32 7.93249 200.79 17.4582C210.038 26.7614 210.038 41.1404 200.79 49.943C191.32 58.9542 175.481 59.0237 165.385 49.7066C155.039 40.1531 155.039 24.7729 165.385 15.7756Z" fill="url(#paint35_linear_0_7612)"/>
<path d="M166.456 14.5936C176.538 5.81877 192.391 6.75049 201.861 16.2762C211.108 25.5794 211.108 39.9584 201.861 48.761C192.391 57.7722 176.552 57.8417 166.456 48.5246C156.109 38.9711 156.109 23.5909 166.456 14.5936Z" fill="url(#paint36_linear_0_7612)"/>
<g opacity="0.5">
<path d="M168.987 17.1384C177.594 9.64303 191.125 10.4496 199.205 18.5847C207.103 26.5251 207.103 38.8043 199.205 46.3136C191.125 54.0037 177.594 54.0732 168.987 46.105C160.156 37.956 160.156 24.8286 168.987 17.1384Z" fill="white"/>
</g>
<path opacity="0.3" d="M167.916 18.8906C176.524 11.3951 190.054 12.2017 198.134 20.3368C204.517 26.7475 205.741 35.9951 201.805 43.2681C206.964 35.7726 206.102 25.5238 199.205 18.5846C191.125 10.4495 177.594 9.65687 168.987 17.1384C167.137 18.7515 165.677 20.6149 164.592 22.6035C165.51 21.2824 166.609 20.0309 167.916 18.8906Z" fill="white"/>
<path d="M187.092 43.6713C187.092 44.1719 186.689 44.5891 186.175 44.5891H180.668C180.167 44.5891 179.75 44.1858 179.75 43.6713V43.5461C179.75 43.0455 180.153 42.6283 180.668 42.6283H186.175C186.675 42.6283 187.092 43.0316 187.092 43.5461V43.6713Z" fill="white"/>
<path d="M186.355 45.8128C186.355 46.2161 186.022 46.5499 185.618 46.5499H180.974C180.57 46.5499 180.237 46.2161 180.237 45.8128C180.237 45.4096 180.57 45.0758 180.974 45.0758H185.618C186.022 45.0758 186.355 45.4096 186.355 45.8128Z" fill="white"/>
<path d="M181.891 36.9825C182.893 41.1265 182.893 41.1682 182.893 41.1682H184.728C184.728 41.1682 184.728 41.057 185.743 36.8573C184.005 37.5526 182.67 37.3023 181.891 36.9825Z" fill="white"/>
<path d="M183.811 24.4391C180.139 24.4391 177.163 27.415 177.163 31.0862C177.163 32.2961 177.483 33.4225 178.053 34.3959C178.93 35.8978 179.527 37.5804 179.792 39.2909C179.82 39.4995 179.861 39.7498 179.889 39.9584C180 40.6259 180.57 41.1543 181.238 41.1543H182.225C182.156 40.904 181.516 38.1923 181.071 36.3845C181.043 36.2454 181.099 36.162 181.21 36.0785C181.335 36.009 181.488 36.0368 181.6 36.1203C181.669 36.1759 183.407 37.497 186.063 36.1064C186.175 36.0507 186.314 36.0646 186.425 36.1481C186.522 36.2315 186.578 36.2454 186.55 36.3706C186.119 38.1784 185.465 40.8901 185.396 41.1404H186.383C187.051 41.1404 187.621 40.598 187.732 39.9445C187.76 39.7359 187.802 39.5134 187.829 39.3048C188.108 37.5665 188.692 35.9117 189.568 34.3959C190.138 33.4225 190.458 32.2822 190.458 31.0723C190.458 27.4289 187.482 24.4391 183.811 24.4391Z" fill="white"/>
<path d="M184.395 21.7274C184.395 22.0611 184.116 22.3393 183.783 22.3393C183.449 22.3393 183.171 22.0611 183.171 21.7274V17.8198C183.171 17.486 183.449 17.2079 183.783 17.2079C184.116 17.2079 184.395 17.486 184.395 17.8198V21.7274Z" fill="white"/>
<path d="M175.87 26.2886L172.505 24.147C172.199 23.9524 171.782 24.0358 171.587 24.3556C171.392 24.6616 171.476 25.0788 171.796 25.2734L175.161 27.415C175.467 27.6097 175.884 27.5262 176.079 27.2064C176.273 26.8866 176.176 26.4833 175.87 26.2886Z" fill="white"/>
<path d="M174.855 30.5021L170.864 30.363C170.502 30.3491 170.182 30.6411 170.169 31.0027C170.155 31.3643 170.447 31.6841 170.808 31.698L174.799 31.8371C175.161 31.851 175.481 31.559 175.495 31.1974C175.509 30.8219 175.217 30.516 174.855 30.5021Z" fill="white"/>
<path d="M192.766 30.5021L196.757 30.363C197.119 30.3491 197.439 30.6411 197.452 31.0027C197.466 31.3643 197.174 31.6841 196.813 31.698L192.822 31.8371C192.46 31.851 192.14 31.559 192.126 31.1974C192.112 30.8219 192.391 30.516 192.766 30.5021Z" fill="white"/>
<path d="M196.02 24.3417C195.825 24.0358 195.408 23.9385 195.102 24.1331L191.737 26.2747C191.431 26.4694 191.334 26.8866 191.528 27.1925C191.723 27.4984 192.14 27.5958 192.446 27.4011L195.812 25.2595C196.131 25.0649 196.229 24.6477 196.02 24.3417Z" fill="white"/>
<path d="M177.692 19.3634C177.525 19.0296 177.136 18.9045 176.802 19.0574C176.468 19.2243 176.343 19.6137 176.496 19.9474L178.276 23.5213C178.443 23.855 178.832 23.9802 179.166 23.8272C179.5 23.6604 179.625 23.271 179.472 22.9372L177.692 19.3634Z" fill="white"/>
<path d="M190.805 19.0574C190.472 18.8905 190.082 19.0296 189.915 19.3633L188.135 22.9372C187.969 23.271 188.108 23.6603 188.441 23.8272C188.775 23.9941 189.164 23.855 189.331 23.5213L191.111 19.9474C191.278 19.6276 191.139 19.2243 190.805 19.0574Z" fill="white"/>
<defs>
<linearGradient id="paint0_linear_0_7612" x1="87.3121" y1="-103.387" x2="-45.2267" y2="283.122" gradientUnits="userSpaceOnUse">
<stop stop-color="#FFC444"/>
<stop offset="0.9964" stop-color="#F36F56"/>
</linearGradient>
<linearGradient id="paint1_linear_0_7612" x1="98.1622" y1="100.846" x2="37.4852" y2="224.408" gradientUnits="userSpaceOnUse">
<stop offset="0.00359712" stop-color="#E38DDD"/>
<stop offset="1" stop-color="#9571F6"/>
</linearGradient>
<linearGradient id="paint2_linear_0_7612" x1="202.176" y1="124.064" x2="165.055" y2="161.901" gradientUnits="userSpaceOnUse">
<stop stop-color="#AA80F9"/>
<stop offset="0.9964" stop-color="#6165D7"/>
</linearGradient>
<linearGradient id="paint3_linear_0_7612" x1="-153.768" y1="-95.1512" x2="-188.585" y2="331.422" gradientUnits="userSpaceOnUse">
<stop stop-color="#AA80F9"/>
<stop offset="0.9964" stop-color="#6165D7"/>
</linearGradient>
<linearGradient id="paint4_linear_0_7612" x1="28.1299" y1="200.074" x2="36.2227" y2="200.074" gradientUnits="userSpaceOnUse">
<stop stop-color="#40447E"/>
<stop offset="0.9964" stop-color="#3C3B6B"/>
</linearGradient>
<linearGradient id="paint5_linear_0_7612" x1="56.1493" y1="187.63" x2="61.4997" y2="187.63" gradientUnits="userSpaceOnUse">
<stop stop-color="#40447E"/>
<stop offset="0.9964" stop-color="#3C3B6B"/>
</linearGradient>
<linearGradient id="paint6_linear_0_7612" x1="27.8389" y1="199.099" x2="29.431" y2="205.515" gradientUnits="userSpaceOnUse">
<stop stop-color="#311944"/>
<stop offset="1" stop-color="#A03976"/>
</linearGradient>
<linearGradient id="paint7_linear_0_7612" x1="49.0557" y1="171.983" x2="45.5026" y2="192.149" gradientUnits="userSpaceOnUse">
<stop stop-color="#311944"/>
<stop offset="1" stop-color="#A03976"/>
</linearGradient>
<linearGradient id="paint8_linear_0_7612" x1="64.0061" y1="166.942" x2="39.9096" y2="161.744" gradientUnits="userSpaceOnUse">
<stop stop-color="#AB316D"/>
<stop offset="1" stop-color="#792D3D"/>
</linearGradient>
<linearGradient id="paint9_linear_0_7612" x1="64.008" y1="166.951" x2="39.9098" y2="161.749" gradientUnits="userSpaceOnUse">
<stop stop-color="#AB316D"/>
<stop offset="1" stop-color="#792D3D"/>
</linearGradient>
<linearGradient id="paint10_linear_0_7612" x1="80.3586" y1="161.066" x2="55.5155" y2="148.304" gradientUnits="userSpaceOnUse">
<stop stop-color="#AB316D"/>
<stop offset="1" stop-color="#792D3D"/>
</linearGradient>
<linearGradient id="paint11_linear_0_7612" x1="30.8707" y1="103.77" x2="15.3916" y2="137.325" gradientUnits="userSpaceOnUse">
<stop stop-color="#FFC444"/>
<stop offset="0.9964" stop-color="#F36F56"/>
</linearGradient>
<linearGradient id="paint12_linear_0_7612" x1="85.3926" y1="132.894" x2="82.7531" y2="128.754" gradientUnits="userSpaceOnUse">
<stop stop-color="#311944"/>
<stop offset="1" stop-color="#A03976"/>
</linearGradient>
<linearGradient id="paint13_linear_0_7612" x1="34.1257" y1="111.733" x2="28.9711" y2="148.032" gradientUnits="userSpaceOnUse">
<stop stop-color="#FFC444"/>
<stop offset="0.9964" stop-color="#F36F56"/>
</linearGradient>
<linearGradient id="paint14_linear_0_7612" x1="27.299" y1="104.774" x2="16.0517" y2="140.249" gradientUnits="userSpaceOnUse">
<stop stop-color="#FFC444"/>
<stop offset="0.9964" stop-color="#F36F56"/>
</linearGradient>
<linearGradient id="paint15_linear_0_7612" x1="40.5736" y1="123.089" x2="46.4747" y2="106.683" gradientUnits="userSpaceOnUse">
<stop stop-color="#311944"/>
<stop offset="1" stop-color="#A03976"/>
</linearGradient>
<linearGradient id="paint16_linear_0_7612" x1="35.9318" y1="122.526" x2="46.5244" y2="111.273" gradientUnits="userSpaceOnUse">
<stop stop-color="#311944"/>
<stop offset="1" stop-color="#A03976"/>
</linearGradient>
<linearGradient id="paint17_linear_0_7612" x1="35.0723" y1="123.781" x2="46.9097" y2="115.445" gradientUnits="userSpaceOnUse">
<stop stop-color="#311944"/>
<stop offset="1" stop-color="#A03976"/>
</linearGradient>
<linearGradient id="paint18_linear_0_7612" x1="259.559" y1="71.2314" x2="258.434" y2="83.0605" gradientUnits="userSpaceOnUse">
<stop stop-color="#FFC444"/>
<stop offset="0.9964" stop-color="#F36F56"/>
</linearGradient>
<linearGradient id="paint19_linear_0_7612" x1="257.905" y1="106.883" x2="290.114" y2="132.96" gradientUnits="userSpaceOnUse">
<stop stop-color="#AA80F9"/>
<stop offset="0.9964" stop-color="#6165D7"/>
</linearGradient>
<linearGradient id="paint20_linear_0_7612" x1="341.365" y1="-60.5823" x2="238.027" y2="-18.6001" gradientUnits="userSpaceOnUse">
<stop stop-color="#FF9085"/>
<stop offset="1" stop-color="#FB6FBB"/>
</linearGradient>
<linearGradient id="paint21_linear_0_7612" x1="306.06" y1="73.192" x2="302.912" y2="83.4733" gradientUnits="userSpaceOnUse">
<stop stop-color="#FFC444"/>
<stop offset="0.9964" stop-color="#F36F56"/>
</linearGradient>
<linearGradient id="paint22_linear_0_7612" x1="270.222" y1="186.384" x2="274.426" y2="186.384" gradientUnits="userSpaceOnUse">
<stop stop-color="#FFC444"/>
<stop offset="0.9964" stop-color="#F36F56"/>
</linearGradient>
<linearGradient id="paint23_linear_0_7612" x1="265.144" y1="188.069" x2="272.611" y2="188.069" gradientUnits="userSpaceOnUse">
<stop stop-color="#444B8C"/>
<stop offset="0.9964" stop-color="#26264F"/>
</linearGradient>
<linearGradient id="paint24_linear_0_7612" x1="268.391" y1="182.406" x2="268.055" y2="184.398" gradientUnits="userSpaceOnUse">
<stop stop-color="#444B8C"/>
<stop offset="0.9964" stop-color="#26264F"/>
</linearGradient>
<linearGradient id="paint25_linear_0_7612" x1="279.922" y1="118.309" x2="246.413" y2="132.142" gradientUnits="userSpaceOnUse">
<stop stop-color="#311944"/>
<stop offset="1" stop-color="#893976"/>
</linearGradient>
<linearGradient id="paint26_linear_0_7612" x1="283.857" y1="116.198" x2="251.806" y2="126.117" gradientUnits="userSpaceOnUse">
<stop stop-color="#311944"/>
<stop offset="1" stop-color="#893976"/>
</linearGradient>
<linearGradient id="paint27_linear_0_7612" x1="331.549" y1="181.227" x2="335.005" y2="181.227" gradientUnits="userSpaceOnUse">
<stop stop-color="#444B8C"/>
<stop offset="0.9964" stop-color="#26264F"/>
</linearGradient>
<linearGradient id="paint28_linear_0_7612" x1="299.759" y1="126.021" x2="286.184" y2="160.954" gradientUnits="userSpaceOnUse">
<stop stop-color="#311944"/>
<stop offset="1" stop-color="#893976"/>
</linearGradient>
<linearGradient id="paint29_linear_0_7612" x1="269.455" y1="97.1265" x2="295.535" y2="136.337" gradientUnits="userSpaceOnUse">
<stop stop-color="#AA80F9"/>
<stop offset="0.9964" stop-color="#6165D7"/>
</linearGradient>
<linearGradient id="paint30_linear_0_7612" x1="295.773" y1="93.0555" x2="327.872" y2="119.866" gradientUnits="userSpaceOnUse">
<stop stop-color="#AA80F9"/>
<stop offset="0.9964" stop-color="#6165D7"/>
</linearGradient>
<linearGradient id="paint31_linear_0_7612" x1="303.445" y1="100.752" x2="301.364" y2="86.96" gradientUnits="userSpaceOnUse">
<stop stop-color="#FFC444"/>
<stop offset="0.9964" stop-color="#F36F56"/>
</linearGradient>
<linearGradient id="paint32_linear_0_7612" x1="296.356" y1="97.3146" x2="296.031" y2="89.0807" gradientUnits="userSpaceOnUse">
<stop stop-color="#311944"/>
<stop offset="1" stop-color="#6B3976"/>
</linearGradient>
<linearGradient id="paint33_linear_0_7612" x1="286.488" y1="89.4912" x2="283" y2="99.7747" gradientUnits="userSpaceOnUse">
<stop stop-color="#FFC444"/>
<stop offset="0.9964" stop-color="#F36F56"/>
</linearGradient>
<linearGradient id="paint34_linear_0_7612" x1="234.109" y1="81.3369" x2="244.769" y2="140.361" gradientUnits="userSpaceOnUse">
<stop stop-color="#AA80F9"/>
<stop offset="0.9964" stop-color="#6165D7"/>
</linearGradient>
<linearGradient id="paint35_linear_0_7612" x1="161.157" y1="81.5241" x2="243.581" y2="55.8071" gradientUnits="userSpaceOnUse">
<stop stop-color="#311944"/>
<stop offset="1" stop-color="#A03976"/>
</linearGradient>
<linearGradient id="paint36_linear_0_7612" x1="-635.723" y1="3140.25" x2="-646.019" y2="3186.1" gradientUnits="userSpaceOnUse">
<stop stop-color="#FFC444"/>
<stop offset="0.9964" stop-color="#F36F56"/>
</linearGradient>
</defs>
</svg>
