<svg width="357" height="190" viewBox="0 0 357 190" fill="none" xmlns="http://www.w3.org/2000/svg">
<path opacity="0.19" d="M179.29 111.266C130.111 114.037 23.0441 120.111 23.2334 125.122C23.347 128.045 59.6543 128.311 59.7678 132.563C59.9193 137.422 12.2163 141.825 12.3678 148.393C12.4435 152.493 31.0703 152.872 32.1304 159.288C33.5691 168.247 -1.07236 177.32 0.025563 184.039C1.46422 192.694 61.0929 189.543 71.1257 188.974C113.642 186.582 144.725 182.065 162.481 179.559C253.003 166.842 310.738 163.426 310.625 156.289C310.549 152.189 291.582 150.367 291.847 146.874C292.339 140.535 355.034 143.989 356.056 136.473C356.738 131.424 329.403 122.465 300.743 116.657C254.403 107.318 218.323 109.026 179.29 111.266Z" fill="#6165D7"/>
<path d="M107.942 165.147C104.484 165.945 98.48 167.426 89.7782 168.793C72.3746 171.527 65.3828 170.54 50.7911 172.097C32.5515 174.034 13.59 178.743 13.78 180.68C13.894 181.896 21.5698 182.807 57.403 181.022C68.8787 177.718 85.9783 173.806 106.954 172.781C132.337 171.527 132.679 176.009 154.871 175.097C188.576 173.73 194.618 163.096 237.139 159.906C251.92 158.805 263.244 159.184 263.244 158.577C263.244 157.665 236.911 155.842 209.399 155.918C197.316 155.918 147.347 156.108 107.942 165.147Z" fill="#D8DEE8"/>
<path d="M184.208 142.334C184.585 144.487 195.774 143.535 222.523 141.961C261.78 139.683 258.352 140.553 281.484 138.731C309.815 136.495 333.55 134.631 333.588 131.898C333.588 129.993 322.285 128.46 312.603 127.218C282.878 123.325 247.426 119.059 206.775 131.898C205.306 132.395 183.681 139.269 184.208 142.334Z" fill="#D8DEE8"/>
<path opacity="0.5" fill-rule="evenodd" clip-rule="evenodd" d="M109.986 21.7644C111.046 24.0079 111.766 26.4035 112.069 28.9131L114.947 28.9511C116.538 28.9892 117.863 30.206 117.712 31.6889V32.3354C117.712 33.8183 116.424 34.9971 114.796 34.9971L111.955 34.9591C111.652 37.4687 110.933 39.8643 109.91 42.0697L112.41 43.4006C113.811 44.1231 114.265 45.7962 113.47 47.089L113.129 47.6594C112.334 48.9903 110.516 49.4466 109.115 48.6861L106.615 47.3552C104.987 49.3705 103.055 51.1197 100.897 52.6407L102.374 54.9602C103.207 56.2911 102.714 57.9642 101.275 58.7247L100.631 59.0669C99.2302 59.8274 97.3744 59.4091 96.5412 58.1163L95.0642 55.8348C92.6025 56.8234 89.9136 57.5079 87.1111 57.8501V60.5499C87.1111 62.0709 85.7477 63.3257 84.0434 63.3637H83.286C81.5817 63.4018 80.1805 62.1469 80.1805 60.6259V57.9262C77.3401 57.66 74.5754 57.0136 72.0001 56.0629L70.4473 58.4585C69.5763 59.8274 67.6448 60.3217 66.1299 59.5612L65.4482 59.219C63.9333 58.4585 63.4031 56.7474 64.2742 55.3785L65.8269 52.9829C63.5167 51.4999 61.4338 49.6747 59.6917 47.6214L56.9649 49.0283C55.4121 49.8268 53.4427 49.3705 52.5338 48.0016L52.1551 47.3932C51.2462 46.0243 51.7764 44.2752 53.3291 43.4767L56.0559 42.1078C54.9198 39.7882 54.1244 37.2786 53.7836 34.6549L50.6023 34.6169C48.8224 34.6169 47.3453 33.324 47.3453 31.727V31.0425C47.3453 29.4835 48.7845 28.1906 50.6023 28.2287L53.7836 28.2667C54.1623 25.643 54.9198 23.1713 56.0559 20.8518L53.3291 19.4069C51.7764 18.6083 51.2462 16.8212 52.1551 15.4903L52.5338 14.9199C53.4427 13.551 55.4121 13.1327 56.9649 13.9693L59.6917 15.4142C61.4338 13.3609 63.5167 11.6117 65.8269 10.1288L64.2742 7.69517C63.4031 6.28824 63.9333 4.57712 65.4482 3.85465L66.1299 3.55045C67.6448 2.82797 69.5763 3.36032 70.4473 4.72922L71.9622 7.12479C74.5375 6.21219 77.3022 5.64182 80.1426 5.41367V2.67587C80.1426 1.15487 81.5439 -0.061927 83.2481 0.0141229L84.0056 0.0521479C85.7098 0.128198 87.0732 1.42105 87.0732 2.94205V5.64182C89.9136 6.02207 92.5647 6.78257 95.0642 7.80924L96.5412 5.52774C97.3744 4.2349 99.1923 3.85465 100.631 4.65317L101.275 4.9954C102.714 5.79392 103.207 7.46702 102.374 8.75987L100.934 11.0414C103.093 12.5624 105.025 14.3876 106.653 16.4029L109.153 15.1481C110.554 14.4256 112.372 14.9199 113.167 16.2508L113.508 16.8212C114.341 18.152 113.849 19.7871 112.448 20.5096L109.986 21.7644ZM61.8504 31.4988C61.8504 42.374 71.735 51.1577 83.7405 51.0817C95.4808 51.0056 104.835 42.45 104.835 31.9551C104.835 21.4602 95.4808 12.6764 83.7405 12.3722C71.7729 12.03 61.8504 20.5856 61.8504 31.4988Z" fill="url(#paint0_linear_0_7421)"/>
<path opacity="0.15" fill-rule="evenodd" clip-rule="evenodd" d="M101.199 84.9239L102.979 84.8479C104.002 84.8098 104.797 85.5323 104.759 86.4829V86.9012C104.759 87.8518 103.926 88.6504 102.942 88.6884L101.162 88.7644C100.934 90.3615 100.518 91.8445 99.8739 93.2894L101.427 94.0119C102.298 94.4302 102.601 95.4568 102.108 96.2934L101.881 96.6736C101.389 97.5102 100.253 97.8524 99.3816 97.4341L97.8288 96.7117C96.8442 98.0045 95.6322 99.1833 94.3067 100.21L95.2157 101.617C95.708 102.415 95.405 103.48 94.534 104.012L94.1552 104.241C93.2842 104.773 92.148 104.583 91.6178 103.784L90.7089 102.415C89.194 103.138 87.5276 103.67 85.7855 103.974V105.686C85.7855 106.636 84.9523 107.473 83.8919 107.549L83.4374 107.587C82.377 107.663 81.5059 106.94 81.5059 105.99V104.279C79.726 104.203 78.0217 103.898 76.4311 103.404L75.4843 104.963C74.9541 105.838 73.7422 106.218 72.7954 105.8L72.3788 105.61C71.432 105.191 71.129 104.127 71.6592 103.252L72.606 101.693C71.1669 100.818 69.9171 99.7537 68.8188 98.5369L67.1145 99.5255C66.1299 100.058 64.918 99.8677 64.3499 99.0312L64.1226 98.689C63.5546 97.8904 63.8954 96.7497 64.8422 96.2173L66.5465 95.2667C65.8648 93.8218 65.3724 92.3008 65.1452 90.6657L63.1758 90.7798C62.0397 90.8178 61.1307 90.0573 61.1307 89.0686V88.6504C61.1307 87.6617 62.0397 86.7871 63.1758 86.7491L65.1452 86.6731C65.3724 85.038 65.8269 83.4409 66.5465 81.958L64.8422 81.1595C63.8954 80.6651 63.5546 79.6004 64.1226 78.7259L64.3499 78.3456C64.918 77.471 66.1677 77.1288 67.1145 77.5851L68.7809 78.3836C69.8413 77.0528 71.129 75.836 72.5681 74.8473L71.6213 73.3643C71.0532 72.5278 71.3941 71.4251 72.3409 70.9307L72.7575 70.7026C73.7043 70.1702 74.9162 70.4364 75.4464 71.273L76.3932 72.7179C77.9838 72.0335 79.6881 71.5772 81.4681 71.349V69.6379C81.4681 68.6873 82.3391 67.8887 83.3995 67.8507H83.854C84.8766 67.8507 85.7476 68.6112 85.7476 69.5618V71.2349C87.4897 71.349 89.1561 71.7293 90.7089 72.2996L91.6178 70.8167C92.1101 69.9801 93.2842 69.6759 94.1552 70.1322L94.534 70.3223C95.405 70.7786 95.708 71.8053 95.2157 72.6419L94.3067 74.1248C95.6701 74.9994 96.882 76.0641 97.8667 77.2809L99.4195 76.4063C100.291 75.912 101.427 76.1402 101.919 76.9387L102.146 77.2809C102.639 78.0794 102.336 79.1441 101.465 79.6385L99.9118 80.513C100.556 81.8819 101.01 83.3649 101.199 84.9239ZM70.0307 88.3462C70.0307 95.1526 76.2038 100.324 83.6268 99.8297C90.9361 99.3354 96.7305 93.6697 96.7305 87.0913C96.7305 80.513 90.8982 75.3416 83.6268 75.5698C76.166 75.7979 70.0307 81.5017 70.0307 88.3462Z" fill="url(#paint1_linear_0_7421)"/>
<path opacity="0.5" fill-rule="evenodd" clip-rule="evenodd" d="M95.2157 30.5862H96.3898C97.0715 30.5862 97.6017 31.0805 97.6395 31.6509V31.9171C97.6395 32.5255 97.1093 33.0198 96.4276 33.0198H95.2536C95.14 34.0085 94.837 34.9591 94.4204 35.8717L95.443 36.404C96.0489 36.7463 96.2383 37.3927 95.8974 37.925L95.7459 38.1532C95.4051 38.6475 94.6476 38.8376 94.0796 38.5334L93.057 38.0011C92.4132 38.7996 91.6179 39.484 90.7468 40.0924L91.3528 41.0431C91.6936 41.5754 91.4664 42.2599 90.8983 42.5641L90.6332 42.7162C90.0651 43.0204 89.3077 42.8302 88.9668 42.2979L88.3609 41.3853C87.3383 41.7655 86.2779 42.0317 85.1417 42.1458V43.2105C85.1417 43.8189 84.6115 44.3132 83.9298 44.3132H83.6269C82.9452 44.3132 82.3771 43.8189 82.3771 43.2105V42.1458C81.2409 41.9937 80.1426 41.7275 79.1201 41.3473L78.5141 42.2979C78.1733 42.8302 77.4158 43.0204 76.8099 42.7162L76.5448 42.5641C75.9388 42.2599 75.7495 41.5754 76.0903 41.0431L76.6963 40.0924C75.7873 39.484 74.992 38.7616 74.3103 37.9631L73.2499 38.4954C72.6439 38.7996 71.8865 38.6095 71.5456 38.0771L71.3942 37.849C71.0533 37.3166 71.2427 36.6322 71.8486 36.328L72.909 35.7956C72.4924 34.883 72.1895 33.8944 72.038 32.8677H70.8261C70.1444 32.8677 69.5763 32.3354 69.5763 31.727V31.4608C69.5763 30.8524 70.1444 30.3581 70.8261 30.3581H72.038C72.1516 29.3314 72.4546 28.3427 72.909 27.4301L71.8486 26.8598C71.2427 26.5556 71.0533 25.8711 71.3942 25.3388L71.5456 25.1106C71.8865 24.5783 72.6439 24.4262 73.2499 24.7304L74.3103 25.3007C74.992 24.5022 75.7873 23.8178 76.6963 23.2094L76.0903 22.2587C75.7495 21.7264 75.9388 21.0419 76.5448 20.7377L76.8099 20.6237C77.4158 20.3575 78.1733 20.5476 78.5141 21.08L79.1201 22.0306C80.1047 21.6503 81.203 21.4222 82.3392 21.3081V20.2054C82.3392 19.559 82.9073 19.1027 83.589 19.1027H83.892C84.5358 19.1407 85.1039 19.635 85.1039 20.2434V21.3081C86.24 21.4602 87.3383 21.7264 88.323 22.1447L88.929 21.2321C89.2698 20.6997 90.0272 20.5476 90.5953 20.8518L90.8604 21.0039C91.4664 21.3081 91.6557 21.9926 91.3149 22.5249L90.7089 23.4375C91.58 24.0459 92.3753 24.7684 93.0191 25.5669L94.0417 25.0346C94.6476 24.7304 95.3672 24.9205 95.7081 25.4528L95.8596 25.681C96.1625 26.2133 95.9732 26.8598 95.4051 27.164L94.3825 27.6963C94.7991 28.6089 95.1021 29.5595 95.2157 30.5862ZM75.1056 31.5749C75.1056 35.8717 78.9686 39.408 83.7405 39.408C88.4745 39.446 92.2617 36.0238 92.2617 31.765C92.2617 27.5062 88.4745 24.0079 83.7405 23.9318C79.0065 23.8558 75.1056 27.278 75.1056 31.5749Z" fill="url(#paint2_linear_0_7421)"/>
<path opacity="0.15" d="M311.352 24.5022L135.587 21.27C128.467 21.156 122.673 25.9851 122.673 32.1072C122.673 38.2292 128.505 43.1724 135.587 43.1724L311.352 43.2485C316.503 43.2485 320.631 39.1038 320.631 33.9704C320.631 28.837 316.503 24.5782 311.352 24.5022Z" fill="url(#paint3_linear_0_7421)"/>
<path opacity="0.15" d="M325.63 54.0095L155.016 55.7207C148.123 55.7967 142.48 60.74 142.48 66.7479C142.48 72.7559 148.123 77.471 155.016 77.2808L325.63 72.5277C330.629 72.3756 334.681 68.1548 334.681 63.0975C334.643 58.0402 330.629 53.9715 325.63 54.0095Z" fill="url(#paint4_linear_0_7421)"/>
<path opacity="0.15" d="M206.749 10.0907L125.21 7.69511C122.181 7.61906 119.757 9.59636 119.757 12.1821C119.757 14.7297 122.219 16.8591 125.21 16.9352L206.749 18.7224C209.362 18.7604 211.483 16.8972 211.483 14.5396C211.445 12.1821 209.362 10.1667 206.749 10.0907Z" fill="url(#paint5_linear_0_7421)"/>
<path opacity="0.5" fill-rule="evenodd" clip-rule="evenodd" d="M339.945 61.2343L341.422 61.1963C342.256 61.1963 342.937 61.8807 342.899 62.6792V63.0595C342.899 63.9341 342.218 64.6565 341.385 64.6565L339.908 64.6946C339.756 66.1395 339.377 67.5464 338.847 68.8393L340.135 69.5618C340.892 69.98 341.119 70.9307 340.703 71.6912L340.513 72.0334C340.097 72.7939 339.15 73.0981 338.431 72.6798L337.143 71.9573C336.31 73.1361 335.287 74.2008 334.189 75.0754L334.946 76.3682C335.363 77.0907 335.098 78.0794 334.378 78.5357L334.037 78.7258C333.28 79.1821 332.333 78.9539 331.917 78.2315L331.159 76.9386C329.871 77.547 328.508 77.9653 327.069 78.1934V79.7524C327.069 80.627 326.387 81.3495 325.516 81.3875H325.137C324.304 81.4255 323.585 80.7411 323.585 79.8665V78.3075C322.145 78.1554 320.744 77.8512 319.457 77.3189L318.699 78.6878C318.283 79.4482 317.298 79.7524 316.54 79.3342L316.2 79.1441C315.442 78.7258 315.177 77.7752 315.631 76.9766L316.427 75.6077C315.253 74.7712 314.23 73.7825 313.359 72.6418L311.996 73.4783C311.238 73.9346 310.254 73.7065 309.799 72.946L309.61 72.6038C309.193 71.8433 309.458 70.8546 310.216 70.3983L311.579 69.5618C311.011 68.2689 310.632 66.862 310.443 65.379L308.852 65.417C307.943 65.417 307.224 64.7326 307.224 63.82V63.4397C307.224 62.5652 307.943 61.8047 308.852 61.8047L310.443 61.7666C310.632 60.2837 311.011 58.8767 311.579 57.5459L310.216 56.7854C309.42 56.3291 309.155 55.3404 309.61 54.5799L309.799 54.2377C310.254 53.4772 311.238 53.173 311.996 53.6293L313.359 54.3898C314.23 53.211 315.253 52.1463 316.427 51.2717L315.631 49.9028C315.177 49.1423 315.442 48.1537 316.2 47.6974L316.54 47.5073C317.298 47.051 318.245 47.3171 318.699 48.0776L319.457 49.4085C320.744 48.8381 322.145 48.4579 323.585 48.2678V46.7087C323.585 45.8342 324.304 45.1117 325.175 45.1117H325.554C326.425 45.1117 327.107 45.8342 327.107 46.7087V48.2678C328.546 48.4199 329.909 48.8001 331.197 49.3325L331.954 48.0016C332.409 47.2411 333.356 47.0129 334.075 47.4312L334.416 47.6213C335.174 48.0776 335.401 49.0283 334.984 49.7888L334.227 51.1196C335.363 51.9942 336.348 52.9829 337.181 54.1236L338.468 53.3251C339.188 52.9068 340.135 53.135 340.551 53.8955L340.741 54.2377C341.157 54.9602 340.892 55.9108 340.173 56.3671L338.885 57.1276C339.415 58.4204 339.794 59.7893 339.945 61.2343ZM314.306 63.4778C314.306 69.6758 319.305 74.543 325.365 74.3529C331.348 74.1628 336.196 69.1435 336.196 63.0595C336.196 57.0135 331.348 52.1463 325.365 52.1843C319.267 52.2224 314.306 57.2797 314.306 63.4778Z" fill="url(#paint6_linear_0_7421)"/>
<path opacity="0.5" fill-rule="evenodd" clip-rule="evenodd" d="M337.446 33.1719C337.673 33.7043 337.825 34.2747 337.9 34.8831H338.506C338.885 34.8831 339.15 35.1873 339.15 35.5295V35.6816C339.15 36.0238 338.847 36.328 338.506 36.328H337.9C337.825 36.9364 337.673 37.5068 337.446 38.0391L337.976 38.3433C338.279 38.4954 338.393 38.9137 338.203 39.2179L338.128 39.37C337.938 39.6742 337.56 39.7883 337.257 39.5982L336.726 39.294C336.385 39.7883 335.969 40.2066 335.514 40.5488L335.817 41.1192C336.007 41.4234 335.893 41.8036 335.59 41.9937L335.439 42.0698C335.136 42.2599 334.757 42.1458 334.568 41.8416L334.265 41.3093C333.734 41.5374 333.204 41.6895 332.598 41.7656V42.412C332.598 42.7542 332.295 43.0584 331.954 43.0584H331.803C331.462 43.0584 331.159 42.7923 331.159 42.412V41.7656C330.591 41.6895 330.023 41.5374 329.493 41.3093L329.19 41.8797C329.038 42.1839 328.622 42.2979 328.319 42.1078L328.167 42.0318C327.864 41.8416 327.751 41.4234 327.94 41.1192L328.243 40.5488C327.751 40.2066 327.334 39.7883 326.993 39.294L326.463 39.5982C326.16 39.7883 325.781 39.6742 325.592 39.37L325.516 39.2179C325.327 38.8757 325.44 38.4954 325.743 38.3053L326.274 38.0011C326.046 37.4688 325.895 36.8984 325.819 36.29H325.175C324.834 36.29 324.531 36.0238 324.531 35.6436V35.4915C324.531 35.1492 324.834 34.845 325.175 34.845H325.819C325.895 34.2366 326.046 33.6663 326.274 33.1339L325.743 32.7917C325.44 32.6016 325.327 32.1833 325.516 31.8791L325.592 31.727C325.743 31.4228 326.16 31.3087 326.463 31.4988L326.993 31.8411C327.372 31.3467 327.788 30.9285 328.243 30.5862L327.94 30.0159C327.751 29.6736 327.864 29.2934 328.167 29.1033L328.319 29.0272C328.622 28.8751 329 28.9892 329.19 29.2934L329.493 29.8638C329.985 29.6356 330.553 29.4835 331.159 29.4075V28.761C331.159 28.3808 331.462 28.1146 331.803 28.1146H331.954C332.295 28.1146 332.598 28.4188 332.598 28.761V29.4075C333.166 29.4835 333.734 29.6736 334.265 29.9018L334.568 29.3694C334.757 29.0652 335.136 28.9512 335.439 29.1413L335.59 29.2173C335.893 29.3694 336.007 29.7877 335.817 30.0919L335.514 30.6243C335.969 30.9665 336.385 31.3848 336.726 31.8791L337.257 31.5749C337.56 31.4228 337.938 31.5369 338.128 31.8411L338.203 31.9932C338.393 32.2974 338.279 32.6776 337.976 32.8677L337.446 33.1719ZM327.448 35.5295C327.448 38.0772 329.455 40.1305 331.917 40.1305C334.378 40.1305 336.348 38.1152 336.348 35.6055C336.348 33.0959 334.378 31.0425 331.917 31.0045C329.455 30.9665 327.448 32.9818 327.448 35.5295Z" fill="url(#paint7_linear_0_7421)"/>
<path opacity="0.15" fill-rule="evenodd" clip-rule="evenodd" d="M138.693 64.1623L140.246 64.1242C141.117 64.1242 141.836 64.7326 141.798 65.341V65.6833C141.798 66.4438 141.079 67.0902 140.208 67.0902L138.655 67.1282C138.504 68.383 138.125 69.5998 137.557 70.7406L138.92 71.387C139.678 71.7673 139.943 72.5658 139.488 73.2502L139.299 73.5544C138.844 74.2389 137.86 74.467 137.102 74.1248L135.739 73.4784C134.868 74.5051 133.845 75.4177 132.671 76.2162L133.467 77.3569C133.883 78.0034 133.618 78.8399 132.861 79.2582L132.52 79.4483C131.762 79.8286 130.778 79.6384 130.323 78.992L129.528 77.8513C128.164 78.3836 126.763 78.7639 125.248 78.954V80.3229C125.248 81.0834 124.529 81.7298 123.62 81.7678H123.241C122.332 81.8058 121.613 81.1975 121.613 80.437V79.0681C120.098 78.992 118.659 78.6878 117.295 78.2315L116.5 79.4483C116.045 80.1328 115.023 80.3989 114.228 80.0187L113.887 79.8666C113.091 79.4863 112.826 78.6498 113.281 77.9653L114.076 76.7485C112.864 76.0261 111.766 75.1515 110.857 74.1628L109.456 74.8853C108.622 75.3036 107.6 75.0754 107.145 74.429L106.956 74.1248C106.464 73.4784 106.767 72.6038 107.562 72.1855L108.963 71.4631C108.395 70.3223 107.979 69.1055 107.789 67.8127L106.161 67.8507C105.214 67.8887 104.457 67.2803 104.457 66.4818V66.1396C104.457 65.341 105.214 64.6946 106.161 64.6946L107.789 64.6566C107.979 63.3637 108.357 62.1469 108.963 60.9682L107.562 60.2837C106.767 59.9035 106.502 59.0669 106.956 58.3825L107.145 58.0783C107.638 57.3938 108.66 57.1657 109.456 57.5459L110.857 58.2304C111.766 57.2037 112.826 56.2531 114.038 55.4926L113.243 54.3138C112.788 53.6674 113.054 52.7928 113.849 52.4125L114.19 52.2224C114.985 51.8422 116.008 52.0323 116.462 52.7167L117.257 53.8955C118.621 53.3632 120.06 53.0209 121.575 52.8688V51.4999C121.575 50.7394 122.294 50.093 123.203 50.093H123.582C124.491 50.093 125.21 50.7014 125.21 51.4619V52.8308C126.725 52.9829 128.164 53.3251 129.49 53.7814L130.285 52.6027C130.702 51.9182 131.724 51.6901 132.482 52.0703L132.823 52.2224C133.618 52.5646 133.883 53.4392 133.429 54.0856L132.633 55.2644C133.807 56.0249 134.868 56.8995 135.739 57.8881L137.102 57.2037C137.86 56.8234 138.844 57.0516 139.299 57.698L139.488 58.0022C139.943 58.6867 139.678 59.5232 138.92 59.9035L137.557 60.5879C138.125 61.6906 138.504 62.9074 138.693 64.1623ZM116.197 66.1015C116.197 69.4858 119.454 72.1475 123.43 72.0715C127.369 71.9954 130.588 69.2196 130.588 65.8354C130.588 62.4892 127.407 59.8274 123.43 59.8654C119.454 59.9415 116.197 62.7173 116.197 66.1015Z" fill="url(#paint8_linear_0_7421)"/>
<path opacity="0.5" d="M311.163 85.4562L265.527 87.2814C263.898 87.3575 262.535 88.6884 262.535 90.2474C262.535 91.8064 263.86 93.0232 265.527 92.9471L311.163 90.8938C312.677 90.8177 313.889 89.5629 313.889 88.0419C313.889 86.5209 312.677 85.3802 311.163 85.4562Z" fill="url(#paint9_linear_0_7421)"/>
<path d="M129.041 31.8815L99.6618 125.169C99.0199 127.223 100.644 129.277 102.758 129.087L167.408 123.456L137.802 30.2836L129.041 31.8815Z" fill="url(#paint10_linear_0_7421)"/>
<path d="M130.136 31.8815L100.757 125.169C100.115 127.223 101.739 129.277 103.853 129.087L168.503 123.456L138.897 30.2836L130.136 31.8815Z" fill="url(#paint11_linear_0_7421)"/>
<path d="M277.901 32.9468L132.1 30.0173C129.985 29.9793 128.588 31.463 128.966 33.2892L150.15 139.588C150.528 141.452 152.492 142.86 154.568 142.707L297.952 133.501C299.576 133.386 300.671 131.979 300.332 130.343L281.526 36.0285C281.186 34.3164 279.562 32.9468 277.901 32.9468Z" fill="url(#paint12_linear_0_7421)"/>
<path d="M278.996 32.9468L133.195 30.0173C131.08 29.9793 129.683 31.463 130.061 33.2892L151.245 139.588C151.623 141.452 153.587 142.86 155.664 142.707L299.048 133.501C300.671 133.386 301.766 131.979 301.427 130.343L282.621 36.0285C282.281 34.3164 280.657 32.9468 278.996 32.9468Z" fill="url(#paint13_linear_0_7421)"/>
<g opacity="0.15">
<path d="M239.307 90.0527C210.835 76.0901 183.457 87.1233 164.349 69.242C152.605 58.2469 150.754 42.6103 151.359 30.3597L133.157 29.9792C131.042 29.9412 129.645 31.425 130.023 33.2511L151.208 139.55C151.585 141.414 153.549 142.822 155.626 142.669L279.827 134.68C266.798 108.124 251.694 96.14 239.307 90.0527Z" fill="#97A6B7"/>
</g>
<path d="M294.101 129.886L158.458 138.18C156.192 138.332 154.002 136.772 153.587 134.718L134.743 40.1374C134.328 38.0829 135.876 36.447 138.179 36.485L275.899 38.6156C277.749 38.6536 279.562 40.1374 279.902 41.9635L296.706 126.386C297.122 128.212 295.913 129.772 294.101 129.886Z" fill="#D8DEE8"/>
<path d="M294.705 129.848L159.213 138.104C156.947 138.256 154.757 136.696 154.342 134.642L135.498 40.1374C135.083 38.0829 136.631 36.447 138.935 36.485L276.503 38.6156C278.354 38.6536 280.166 40.1374 280.506 41.9635L297.31 126.31C297.726 128.174 296.555 129.734 294.705 129.848Z" fill="url(#paint14_linear_0_7421)"/>
<path d="M274.691 49.7628L146.449 48.9639L145.279 43.1429L273.633 44.5126L274.691 49.7628Z" fill="url(#paint15_linear_0_7421)"/>
<g opacity="0.3">
<path d="M239.307 90.0527C210.834 76.0901 183.457 87.1233 164.349 69.242C154.568 60.0731 151.661 47.6703 151.283 36.7132L138.784 36.523C136.556 36.485 135.083 38.0448 135.461 40.0232L154.342 134.832C154.719 136.81 156.834 138.294 159.024 138.142L277.901 130.875C265.326 106.983 251.089 95.8356 239.307 90.0527Z" fill="#D8DEE8"/>
</g>
<path fill-rule="evenodd" clip-rule="evenodd" d="M161.894 129.43C161.97 129.696 162.196 129.886 162.461 129.886L187.611 128.479C187.762 128.479 187.913 128.364 188.026 128.25C188.139 128.136 188.177 127.946 188.139 127.794L173.601 54.8228C173.525 54.5565 173.299 54.3663 173.034 54.3663L147.658 54.3282C147.469 54.3282 147.318 54.4043 147.205 54.5565C147.091 54.7087 147.054 54.8989 147.091 55.0511L161.894 129.43ZM162.914 128.707L148.338 55.5457L172.543 55.5837L186.855 127.413L162.914 128.707Z" fill="#D8DEE8"/>
<path fill-rule="evenodd" clip-rule="evenodd" d="M189.952 127.908C190.027 128.174 190.254 128.364 190.518 128.364L214.611 127.033C214.762 127.033 214.913 126.919 215.026 126.804C215.139 126.69 215.177 126.5 215.139 126.348L200.903 54.8989C200.827 54.6326 200.601 54.4423 200.337 54.4423L176.017 54.4043C175.829 54.4043 175.678 54.4804 175.564 54.6326C175.451 54.7847 175.413 54.975 175.451 55.1272L189.952 127.908ZM191.009 127.185L176.735 55.5837L199.883 55.6217L213.893 125.929L191.009 127.185Z" fill="#D8DEE8"/>
<path fill-rule="evenodd" clip-rule="evenodd" d="M216.839 126.462C216.914 126.728 217.141 126.919 217.405 126.919L240.516 125.625C240.667 125.625 240.818 125.511 240.931 125.397C241.044 125.283 241.082 125.093 241.044 124.94L227.11 54.9751C227.035 54.7087 226.808 54.5185 226.544 54.5185L203.206 54.4805C203.018 54.4805 202.867 54.5566 202.753 54.7087C202.64 54.8609 202.602 55.0511 202.64 55.2033L216.839 126.462ZM217.896 125.701L203.924 55.6218L226.09 55.6599L239.798 124.522L217.896 125.701Z" fill="#D8DEE8"/>
<path fill-rule="evenodd" clip-rule="evenodd" d="M242.63 125.054C242.706 125.321 242.933 125.511 243.197 125.511L265.401 124.293C265.552 124.293 265.703 124.179 265.817 124.065C265.93 123.951 265.968 123.761 265.93 123.609L252.26 55.013C252.184 54.7467 251.958 54.5565 251.693 54.5565L229.3 54.5184C229.112 54.5184 228.96 54.5945 228.847 54.7467C228.734 54.8989 228.696 55.0891 228.734 55.2413L242.63 125.054ZM243.65 124.293L229.98 55.6598L251.203 55.6978L264.646 123.152L243.65 124.293Z" fill="#D8DEE8"/>
<path fill-rule="evenodd" clip-rule="evenodd" d="M267.403 123.685C267.478 123.951 267.705 124.141 267.969 124.141L289.305 122.924C289.456 122.924 289.607 122.81 289.72 122.696C289.834 122.581 289.871 122.391 289.834 122.239L276.428 55.013C276.352 54.7467 276.126 54.5565 275.861 54.5565L254.337 54.5184C254.148 54.5184 253.997 54.5945 253.884 54.7467C253.77 54.8989 253.733 55.0891 253.77 55.2413L267.403 123.685ZM268.46 122.962L255.054 55.7359H275.408L288.587 121.859L268.46 122.962Z" fill="#D8DEE8"/>
<path opacity="0.15" d="M172.732 64.9049L152.001 65.019L150.452 57.3339H171.222L172.732 64.9049Z" fill="url(#paint16_linear_0_7421)"/>
<path opacity="0.15" d="M200.072 64.7527L180.247 64.8668L178.736 57.3339H198.599L200.072 64.7527Z" fill="url(#paint17_linear_0_7421)"/>
<path opacity="0.5" d="M186.213 78.3348L182.928 78.4109L181.229 69.9268L184.514 69.8888L186.213 78.3348Z" fill="url(#paint18_linear_0_7421)"/>
<path opacity="0.5" d="M190.367 78.2588L187.12 78.3349L184.892 67.1876L188.139 67.1495L190.367 78.2588Z" fill="url(#paint19_linear_0_7421)"/>
<path opacity="0.5" d="M194.521 78.2206L191.273 78.2587L189.839 71.1062L193.086 71.0681L194.521 78.2206Z" fill="url(#paint20_linear_0_7421)"/>
<path opacity="0.5" d="M198.599 78.1446L195.39 78.1827L194.332 72.7802L197.542 72.7422L198.599 78.1446Z" fill="url(#paint21_linear_0_7421)"/>
<path opacity="0.5" d="M202.678 78.0685L199.506 78.1065L197.504 68.0626L200.676 68.0245L202.678 78.0685Z" fill="url(#paint22_linear_0_7421)"/>
<path opacity="0.15" d="M226.355 64.6005L207.285 64.7146L205.812 57.3339H224.882L226.355 64.6005Z" fill="url(#paint23_linear_0_7421)"/>
<path d="M231.83 92.1453L212.874 92.6779L209.777 77.1174L228.772 76.8511L231.83 92.1453Z" fill="url(#paint24_linear_0_7421)"/>
<path opacity="0.15" d="M251.542 64.4483L233.265 64.5625L231.793 57.3339H250.107L251.542 64.4483Z" fill="url(#paint25_linear_0_7421)"/>
<path d="M253.921 76.4325L235.682 76.7369L233.87 67.606L252.147 67.4539L253.921 76.4325Z" fill="url(#paint26_linear_0_7421)"/>
<path opacity="0.15" d="M275.748 64.2962L258.189 64.4103L256.754 57.3339H274.351L275.748 64.2962Z" fill="url(#paint27_linear_0_7421)"/>
<path opacity="0.15" d="M282.319 97.2814L264.835 97.8521L264.155 94.3899L281.639 93.8573L282.319 97.2814Z" fill="url(#paint28_linear_0_7421)"/>
<path opacity="0.15" d="M283.263 102.075L265.817 102.722L265.137 99.2598L282.583 98.6891L283.263 102.075Z" fill="url(#paint29_linear_0_7421)"/>
<path opacity="0.15" d="M284.245 106.869L266.761 107.592L266.081 104.13L283.565 103.483L284.245 106.869Z" fill="url(#paint30_linear_0_7421)"/>
<path opacity="0.5" d="M248.53 6.51011L204.028 5.31917C202.521 5.28075 201.324 6.43328 201.324 7.93156V22.0692C201.324 23.5291 202.56 24.7584 204.028 24.7969L248.53 25.642C249.959 25.6805 251.156 24.5279 251.156 23.0681V9.19934C251.156 7.73947 249.959 6.54853 248.53 6.51011Z" fill="url(#paint31_linear_0_7421)"/>
<path opacity="0.5" d="M204.028 22.9528C203.564 22.9528 203.178 22.5686 203.178 22.1076V7.96998C203.178 7.50897 203.564 7.16321 204.028 7.16321L248.529 8.31573C248.993 8.31573 249.341 8.69991 249.341 9.16092V23.0296C249.341 23.4907 248.993 23.8364 248.529 23.8364L204.028 22.9528Z" fill="url(#paint32_linear_0_7421)"/>
<path opacity="0.61" d="M216.698 8.77674L205.766 8.50781C205.225 8.50781 204.762 8.93041 204.762 9.46825V20.2636C204.762 20.8014 205.187 21.224 205.766 21.2624L216.698 21.4929C217.239 21.4929 217.664 21.0703 217.664 20.5325V9.77559C217.664 9.19933 217.2 8.77674 216.698 8.77674Z" fill="white"/>
<path d="M246.675 14.2705L221.373 13.6558V12.3496L246.675 12.9643V14.2705Z" fill="white"/>
<path d="M246.675 16.4218L221.373 15.8455V14.5777L246.675 15.154V16.4218Z" fill="white"/>
<path d="M235.936 18.3811L221.373 18.0353V16.7676L235.936 17.1133V18.3811Z" fill="white"/>
<path opacity="0.5" d="M285.474 28.3487L253.071 27.7096C251.947 27.6696 251.041 28.6284 251.041 29.8268V41.1321C251.041 42.3305 251.947 43.2893 253.071 43.2893H285.474C286.489 43.2893 287.323 42.3705 287.323 41.2519V30.426C287.323 29.2675 286.489 28.3487 285.474 28.3487Z" fill="url(#paint33_linear_0_7421)"/>
<path opacity="0.5" d="M253.107 41.7712C252.744 41.7712 252.491 41.4916 252.491 41.0921V29.7869C252.491 29.4273 252.781 29.1477 253.107 29.1477L285.511 29.7469C285.837 29.7469 286.091 30.0266 286.091 30.3861V41.212C286.091 41.5715 285.837 41.8511 285.511 41.8511L253.107 41.7712Z" fill="url(#paint34_linear_0_7421)"/>
<path opacity="0.61" d="M262.458 30.3462L254.375 30.2263C253.977 30.2263 253.651 30.5459 253.651 30.9853V39.6141C253.651 40.0535 253.977 40.3731 254.375 40.3731L262.458 40.413C262.857 40.413 263.183 40.0935 263.183 39.654V31.1451C263.183 30.7057 262.857 30.3462 262.458 30.3462Z" fill="white"/>
<path d="M284.169 34.3809L265.902 34.1811V33.1425L284.169 33.3822V34.3809Z" fill="white"/>
<path d="M284.169 36.0986L265.902 35.8988V34.9001L284.169 35.0999V36.0986Z" fill="white"/>
<path d="M276.449 37.7365L265.902 37.6566V36.6179L276.449 36.7378V37.7365Z" fill="white"/>
<path d="M189.78 70.3434C189.508 70.3434 189.275 70.1173 189.275 69.8535V14.2685C189.275 14.1177 189.314 14.0047 189.43 13.9293C189.547 13.8539 189.664 13.7786 189.78 13.7786L201.097 14.1554C201.37 14.1554 201.603 14.3815 201.603 14.6453C201.603 14.9091 201.37 15.1352 201.097 15.1352L190.286 14.7961V69.8912C190.286 70.155 190.091 70.3434 189.78 70.3434Z" fill="white"/>
<path d="M242.77 73.2443C242.727 73.2443 242.727 73.2443 242.685 73.2443C242.389 73.2076 242.177 72.9874 242.219 72.7305C242.261 71.9598 242.219 49.3893 242.219 37.4985C242.219 37.3517 242.261 37.2416 242.389 37.1315C242.516 37.0581 242.643 36.9847 242.812 36.9847L248.953 37.3517C249.249 37.3517 249.503 37.6086 249.461 37.8655C249.461 38.1224 249.165 38.3426 248.868 38.3059L243.32 37.9756C243.32 46.7102 243.363 72.4002 243.32 72.8039C243.278 73.0975 243.066 73.2443 242.77 73.2443Z" fill="white"/>
<path d="M153.113 12.0023C154.12 11.6983 155.514 13.5601 156.638 15.0799C158.342 17.3596 160.317 20.0193 159.775 23.2489C159.232 26.4025 156.483 28.8722 155.708 28.4923C155.05 28.1883 156.328 26.0606 155.321 23.2489C154.507 20.9692 153.191 20.9692 152.3 18.7275C151.215 15.9158 151.835 12.3822 153.113 12.0023Z" fill="url(#paint35_linear_0_7421)"/>
<path d="M153.617 26.5544C158.884 27.8083 162.331 29.822 164.345 31.2279C165.429 31.9878 165.933 32.4817 166.204 33.1656C167.753 37.1552 159.775 43.1964 158.923 43.8044C158.535 42.9685 158.187 42.0946 157.799 41.2587C158.613 36.8132 160.007 35.4074 161.169 34.9894C161.479 34.8754 162.021 34.7614 162.021 34.6095C161.982 34.2675 158.961 34.7614 156.057 33.7356C153.152 32.7097 150.247 30.05 150.789 28.3402C150.867 27.9983 151.254 27.0864 153.617 26.5544Z" fill="url(#paint36_linear_0_7421)"/>
<path d="M158.69 55.6969C158.69 55.6969 158.187 55.8869 158.187 56.2288C158.187 56.6088 158.69 58.2806 159.232 58.8885C159.775 59.4964 159.813 58.5845 159.775 58.0146C159.736 57.4447 159.581 56.1528 159.465 55.9249C159.349 55.6969 158.69 55.6969 158.69 55.6969Z" fill="url(#paint37_linear_0_7421)"/>
<path opacity="0.3" d="M160.278 32.3677C161.246 32.3677 163.454 32.1777 164.074 33.2416C164.577 34.1535 163.686 35.5213 163.183 36.3572C161.711 38.637 160.317 38.9029 159.31 40.3087C158.923 40.8407 158.574 41.6006 158.458 42.7025C158.264 42.2085 158.032 41.7526 157.838 41.2586C158.652 36.8132 160.046 35.4073 161.208 34.9894C161.518 34.8754 162.06 34.7614 162.06 34.6094C162.021 34.2675 159 34.7614 156.095 33.7355C153.462 32.7857 150.828 30.5059 150.751 28.7961C154.895 31.7598 158.032 32.4057 160.278 32.3677Z" fill="url(#paint38_linear_0_7421)"/>
<path d="M158.419 54.1011C158.458 54.671 158.497 55.165 158.535 55.5449C158.651 56.3428 158.729 56.6848 158.845 56.9508C158.961 57.2167 159.232 57.7487 159.349 57.7107C159.465 57.6727 159.349 57.0647 159.232 55.355C159.232 55.127 159.155 54.3291 159.155 54.3291L158.419 54.1011Z" fill="url(#paint39_linear_0_7421)"/>
<path d="M150.596 26.8585C153.617 28.6443 155.592 30.696 156.715 32.0638C158.071 33.6976 160.123 36.1673 160.859 39.8529C161.246 41.8287 161.053 43.5764 160.665 47.034C160.278 50.4536 159.697 53.2273 159.233 55.127C159 55.203 158.768 55.317 158.535 55.393C157.916 54.2531 157.102 52.5054 156.793 50.2256C156.328 46.5021 157.722 45.3242 157.064 42.6646C156.483 40.3848 154.779 38.979 151.332 36.1673C148.504 33.8496 145.948 32.4818 144.98 29.6321C144.825 29.1382 144.67 28.5303 144.941 27.9983C145.484 26.8205 147.691 26.4025 150.596 26.8585Z" fill="url(#paint40_linear_0_7421)"/>
<path d="M147.614 11.8502C148.388 11.6982 149.705 11.7362 150.906 10.7483C151.293 10.4444 152.61 9.4565 152.416 8.01268C152.261 6.72083 151.022 6.03692 150.906 5.96093C150.015 5.50498 149.163 5.58097 148.195 5.73295C146.955 5.88493 146.529 6.22689 145.638 6.45487C143.47 7.0248 142.772 5.84694 140.565 5.92293C137.776 6.03692 137.544 8.05067 135.22 8.12666C132.587 8.16466 132.083 5.65696 129.527 5.23901C125.925 4.63109 120.503 8.43063 120.619 12.8001C120.697 15.3078 122.594 18.2334 125.034 19.0693C126.467 19.5633 128.016 19.4113 128.443 20.3232C128.752 20.9691 128.055 21.463 128.133 22.6029C128.21 24.0467 129.488 25.0726 129.721 25.2626C131.618 26.7824 135.917 26.0225 138.861 23.8568C144.167 19.9812 143.353 12.7621 147.614 11.8502Z" fill="url(#paint41_linear_0_7421)"/>
<path d="M142.075 11.6982C143.857 11.4703 145.909 11.3183 148.195 11.2803C152.997 11.2043 153.694 11.8122 153.888 12.2682C154.236 13.1041 153.655 13.522 153.965 14.9658C154.159 15.8397 153.965 16.2197 154.353 17.1316C154.701 18.0435 154.43 18.5374 154.12 20.6272C153.694 23.3248 153.539 24.7307 154.314 25.7945C154.856 26.5544 155.437 26.6304 155.398 26.9724C155.282 27.7323 152.571 27.3143 149.163 28.7962C148.156 29.2141 147.265 29.746 146.49 30.202C144.709 31.2279 144.36 31.6458 143.547 32.1018C140.913 33.5836 136.963 33.7356 134.91 31.9498C134.136 31.2659 133.594 30.316 133.826 29.936C134.174 29.4421 135.724 30.544 137.118 29.898C138.047 29.4421 137.892 28.7202 138.938 27.8843C140.255 26.8584 141.146 27.3903 142.037 26.7064C143.431 25.6805 142.772 23.1728 142.385 18.9554C142.191 17.2076 142.037 14.7379 142.075 11.6982Z" fill="url(#paint42_linear_0_7421)"/>
<path d="M147.304 10.7104C146.645 11.1283 145.6 11.6223 145.483 11.7742C145.367 11.9262 148.698 12.4581 150.789 11.4323C150.789 11.4323 151.099 11.2423 149.86 11.0143C149.589 10.9763 149.627 10.4444 149.666 9.91246L149.395 9.49451C149.395 9.49451 147.962 10.3304 147.304 10.7104Z" fill="url(#paint43_linear_0_7421)"/>
<path d="M149.163 9.00061C149.163 9.00061 148.892 10.1025 149.899 10.6344C150.789 11.1283 152.261 9.15259 151.99 8.39268C151.913 8.16471 151.564 7.82275 151.215 7.70876C150.983 7.63277 150.054 7.67077 149.666 8.43068C149.55 8.2027 149.395 8.08872 149.24 8.12671C149.085 8.16471 149.047 8.46867 149.047 8.50667C149.008 8.77263 149.124 8.92462 149.163 9.00061Z" fill="url(#paint44_linear_0_7421)"/>
<path opacity="0.3" d="M150.441 26.4025C149.434 26.8205 149.318 27.6944 147.923 28.1883C146.607 28.6443 146.181 28.0743 144.864 28.4543C142.889 29.0242 142.153 30.886 141.843 30.734C141.572 30.582 141.843 28.7962 143.082 27.6564C144.515 26.3265 146.103 26.9345 147.033 25.5666C147.381 25.0347 147.652 24.1988 147.342 23.5149C146.916 22.641 145.793 22.9449 145.212 22.185C144.167 20.8552 146.645 18.4615 145.948 16.4477C145.677 15.6498 144.825 14.6239 142.037 13.978C142.075 15.9918 142.191 17.7016 142.308 18.9554C142.695 23.1349 143.315 25.6426 141.959 26.7065C141.068 27.3904 140.178 26.8205 138.861 27.8843C137.776 28.7582 137.97 29.4801 137.04 29.8981C135.646 30.582 134.097 29.4801 133.748 29.9361C133.477 30.2781 134.058 31.2659 134.833 31.9499C136.886 33.7356 140.836 33.5837 143.47 32.1018C144.283 31.6459 144.631 31.2279 146.413 30.2021C147.188 29.7461 148.078 29.2522 149.085 28.7962C151.487 27.7704 153.539 27.6564 154.585 27.4284C152.532 26.0986 151.254 26.0606 150.441 26.4025Z" fill="url(#paint45_linear_0_7421)"/>
<path d="M159.078 28.1503L148.156 28.6822C148.001 28.6822 147.885 28.7582 147.807 28.9102L147.497 29.4042C147.343 29.6321 147.536 29.9361 147.807 29.9361L159.349 29.5181L159.078 28.1503Z" fill="url(#paint46_linear_0_7421)"/>
<path d="M170.387 22.1849L159.116 22.4129C158.768 22.4129 158.497 22.6029 158.303 22.8689L154.391 29.594L166.281 29.1381C166.591 29.1381 166.901 28.9481 167.056 28.6821L170.658 22.7549C170.89 22.4889 170.696 22.1849 170.387 22.1849Z" fill="url(#paint47_linear_0_7421)"/>
<path opacity="0.3" d="M158.342 22.8689C158.497 22.6029 158.806 22.413 159.155 22.413H159.387C159.426 22.7549 159.542 23.0969 159.775 23.3628C160.472 24.1987 161.634 23.6668 162.486 24.5407C163.415 25.4906 162.563 26.6305 163.415 27.5423C164.306 28.4922 165.739 27.7323 167.404 28.3023L167.172 28.6822C167.017 28.9482 166.707 29.1381 166.397 29.1381L154.507 29.5941L158.342 22.8689Z" fill="url(#paint48_linear_0_7421)"/>
<path d="M149.511 27.7703C149.666 27.3903 149.783 27.0484 149.937 26.6684C148.388 26.2505 146.181 25.6045 143.973 24.8446C143.431 24.6546 143.237 24.3887 143.082 24.1987C141.959 22.7169 144.864 20.0952 144.786 16.7136C144.748 14.3579 143.276 11.6602 141.998 11.6222C139.403 11.5462 133.632 22.4129 138.473 27.0484C140.913 29.3661 145.406 29.632 149.511 27.7703Z" fill="url(#paint49_linear_0_7421)"/>
<path d="M149.937 26.6684C150.906 26.1365 152.106 26.6684 152.184 26.7064C152.416 26.8204 152.726 26.9724 153.036 27.3144C153.074 27.3524 153.5 27.9603 153.346 28.1123C153.229 28.2643 152.726 28.1503 152.145 27.7703C151.913 27.7323 151.525 27.6943 151.099 27.7323C150.286 27.8083 149.937 28.0363 149.666 27.8463C149.473 27.6943 149.395 27.3524 149.473 27.1244C149.511 26.8964 149.782 26.7444 149.937 26.6684Z" fill="url(#paint50_linear_0_7421)"/>
<path opacity="0.5" d="M313.804 53.0972L267.308 52.4213C265.468 52.3816 264.003 53.8526 264.003 55.7212V73.3736C264.003 75.2025 265.505 76.6735 267.308 76.6735L313.804 76.1566C315.457 76.1566 316.771 74.7254 316.771 72.976V56.3176C316.771 54.5682 315.457 53.137 313.804 53.0972Z" fill="url(#paint51_linear_0_7421)"/>
<path opacity="0.5" d="M267.308 74.3676C266.745 74.3676 266.294 73.9302 266.294 73.3339V55.7212C266.294 55.1646 266.745 54.6875 267.308 54.7273L313.804 55.2839C314.33 55.2839 314.743 55.7212 314.743 56.2778V72.9761C314.743 73.5327 314.33 73.97 313.804 73.97L267.308 74.3676Z" fill="url(#paint52_linear_0_7421)"/>
<path opacity="0.61" d="M282.556 56.4369L269.411 56.2778C268.735 56.2778 268.21 56.7947 268.21 57.4706V70.9086C268.21 71.5845 268.735 72.1014 269.411 72.1014L282.556 72.0219C283.195 72.0219 283.721 71.4653 283.721 70.8291V57.6296C283.721 56.9935 283.195 56.4766 282.556 56.4369Z" fill="white"/>
<path d="M311.701 62.48L288.115 62.3607V60.7704L311.701 60.9295V62.48Z" fill="white"/>
<path d="M311.701 65.1039L288.115 65.0642V63.4739L311.701 63.5534V65.1039Z" fill="white"/>
<path d="M288.118 67.6012L305.093 66.3077V66.3077L288.118 67.6012Z" fill="white"/>
<path d="M280.716 54.9658C278.651 58.3452 277.749 61.9632 276.435 65.7004C276.209 66.2967 275.796 68.1654 274.857 67.8473C274.407 67.6883 273.881 66.416 273.693 66.0184C273.167 64.9847 272.716 63.7125 271.853 62.8776C271.515 62.5595 270.951 62.8776 271.064 63.3547C271.552 65.2233 273.205 71.1472 276.134 69.5569C277.975 68.5629 281.88 58.385 282.068 55.3634C282.143 54.608 281.092 54.3695 280.716 54.9658Z" fill="white"/>
<path d="M316.908 72.2567C316.617 72.6682 316.326 73.0798 316.035 73.4913C317.309 74.464 318.837 75.9605 318.801 77.7937C318.764 80.5248 315.198 81.4227 314.98 84.2287C314.761 87.072 318.037 90.5513 320.184 90.1398C322.913 89.5786 325.352 82.3954 322.804 77.27C321.203 73.9777 318.073 72.6682 316.908 72.2567Z" fill="url(#paint53_linear_0_7421)"/>
<path opacity="0.3" d="M316.908 72.2567C316.945 72.6308 317.018 73.2294 317.418 73.6784C317.964 74.3518 318.655 74.2396 319.347 74.5763C320.73 75.2871 321.421 77.5693 321.094 79.4025C320.73 81.2731 319.383 82.358 319.019 82.6199C317.127 84.0416 315.489 83.3308 315.016 84.2287C314.215 85.7626 317.709 90.6262 320.22 90.1398C322.95 89.5786 325.388 82.3954 322.841 77.27C321.203 73.9777 318.073 72.6682 316.908 72.2567Z" fill="url(#paint54_linear_0_7421)"/>
<path d="M316.726 73.3418C316.726 73.3418 315.78 73.005 315.526 72.6683C315.271 72.3316 315.489 71.2093 315.489 70.3114C315.489 69.4135 315.889 70.7229 315.999 71.0222C316.108 71.3215 316.035 71.9949 316.726 72.5561V73.3418Z" fill="url(#paint55_linear_0_7421)"/>
<path d="M314.543 78.8787C314.215 78.2053 314.07 78.2053 313.997 77.8312C313.815 77.0081 314.288 75.9606 314.725 75.9606C314.98 75.9606 315.016 76.3721 315.598 77.0455C316.29 77.8686 316.727 77.7564 317.127 78.4672C317.236 78.6168 317.636 79.3651 317.382 79.9263C317.054 80.6371 315.708 80.7493 315.162 80.1882C314.834 79.9263 314.943 79.7018 314.543 78.8787Z" fill="url(#paint56_linear_0_7421)"/>
<path d="M315.526 79.5896C315.526 79.5896 315.271 80.899 315.453 81.9465C315.598 82.9193 317.345 83.892 317.673 84.1913C318 84.4906 316.799 84.7899 315.671 84.6402C314.579 84.4906 311.522 83.4805 311.086 82.9193C310.612 82.3581 311.631 82.62 312.469 82.5451C313.306 82.4329 314.106 81.0112 314.143 80.263C314.143 79.5522 315.526 79.5896 315.526 79.5896Z" fill="url(#paint57_linear_0_7421)"/>
<path d="M315.162 80.5623C315.162 80.5623 314.325 80.9364 313.56 80.3378C312.905 79.7766 313.888 78.0931 314.579 78.0557C314.798 78.0557 315.125 78.2053 315.344 78.4672C315.453 78.6168 315.453 78.6917 315.671 78.9536C315.853 79.178 315.926 79.178 315.962 79.2903C315.999 79.4025 315.926 79.627 315.489 80.0011C315.707 79.9637 315.926 80.0385 315.999 80.1508C315.999 80.1882 316.035 80.2256 316.035 80.3004C315.962 80.5997 315.635 80.7119 315.162 80.5623Z" fill="url(#paint58_linear_0_7421)"/>
<path d="M290.451 76.8585C290.451 76.8585 289.941 76.9707 289.759 75.9606C289.614 75.1749 289.432 74.9505 289.323 75.1375C289.214 75.3246 289.323 75.7735 289.323 75.7735C289.323 75.7735 288.522 75.4368 288.013 74.8382C287.503 74.2022 287.539 74.8756 287.612 75.2498C287.685 75.6239 288.486 76.5966 288.777 76.7088C289.104 76.8211 289.759 77.6067 289.759 77.6067L290.451 76.8585Z" fill="url(#paint59_linear_0_7421)"/>
<path d="M307.01 132.715C307.264 133.276 307.192 133.501 307.119 133.613C306.937 133.912 306.464 133.613 305.263 133.763C305.117 133.763 304.862 133.8 304.499 133.725C304.207 133.65 303.88 133.501 303.88 133.426C303.88 133.388 303.953 133.388 303.953 133.388C304.28 133.314 306.391 132.64 306.391 132.64L307.01 132.715Z" fill="url(#paint60_linear_0_7421)"/>
<path d="M307.483 131.593L307.119 132.565C307.046 132.715 306.937 132.827 306.791 132.827C306.646 132.827 306.464 132.79 306.427 132.528C306.391 132.191 306.573 131.331 306.573 131.331L307.483 131.593Z" fill="url(#paint61_linear_0_7421)"/>
<path d="M321.603 129.947L322.113 131.368L322.841 131.256L322.695 129.947H321.603Z" fill="url(#paint62_linear_0_7421)"/>
<path d="M322.331 132.154C322.695 131.705 323.022 131.742 323.059 131.443C323.095 131.218 322.986 130.919 322.768 130.807C322.477 130.657 322.113 130.882 322.04 130.957C321.494 131.331 321.64 131.892 321.13 132.154C321.021 132.191 320.875 132.266 320.693 132.416C320.621 132.491 320.439 132.678 320.475 132.79C320.511 132.939 320.839 132.939 321.166 132.939C321.53 132.939 321.712 132.939 321.894 132.827C322.149 132.678 322.076 132.491 322.331 132.154Z" fill="url(#paint63_linear_0_7421)"/>
<path d="M320.439 100.204C320.875 103.047 320.948 105.554 320.912 107.611C320.839 109.819 320.657 110.23 320.803 111.727C321.094 114.982 322.149 115.243 322.986 118.835C323.896 122.801 323.423 126.168 323.241 127.477C323.059 128.6 322.841 129.535 322.695 130.171C322.404 130.545 321.822 130.545 321.239 130.545C320.366 126.954 319.492 123.586 318.655 119.995C316.981 114.645 315.344 109.332 313.67 103.982C315.926 102.71 318.182 101.438 320.439 100.204Z" fill="url(#paint64_linear_0_7421)"/>
<path opacity="0.3" d="M321.239 130.545C320.366 126.954 319.492 123.586 318.655 119.995C316.981 114.645 315.344 109.332 313.67 103.982C315.926 102.71 318.182 101.438 320.475 100.204C320.511 100.391 320.511 100.578 320.548 100.765C317.709 104.431 317.454 106.938 317.782 108.547C318.182 110.53 319.42 111.315 319.711 114.196C319.929 116.291 319.383 116.74 319.711 118.611C320.147 121.005 321.385 122.127 322.113 123.437C322.804 124.671 323.314 126.542 322.913 129.385C322.841 129.685 322.768 129.947 322.731 130.171C322.404 130.545 321.822 130.545 321.239 130.545Z" fill="url(#paint65_linear_0_7421)"/>
<path d="M316.508 103.646C316.472 105.03 316.217 107.088 315.38 109.407C314.215 112.512 312.942 113.261 312.432 115.842C311.886 118.536 312.905 119.621 312.942 122.09C312.978 124.409 312.177 127.739 308.247 131.929C307.592 131.855 306.973 131.817 306.318 131.742C306.828 129.722 307.519 126.579 307.847 122.651C308.029 120.668 308.029 119.247 308.065 118.685C308.138 115.431 308.574 109.856 310.285 99.8296C312.359 101.102 314.434 102.374 316.508 103.646Z" fill="url(#paint66_linear_0_7421)"/>
<path d="M289.286 77.2326C289.687 77.0081 290.087 76.7462 290.487 76.5217C294.964 81.0486 298.894 82.3206 301.624 82.6199C305.772 83.0689 308.684 81.3479 314.215 82.5077C315.962 82.8818 319.019 83.5927 320.693 86.1367C321.13 86.8101 321.312 87.3339 322.04 92.1227C322.986 98.2957 323.023 99.3806 322.877 100.69C322.622 103.122 322.477 104.581 321.385 105.89C318.51 109.332 312.359 107.574 311.559 107.349C310.139 106.901 307.92 106.227 307.046 104.319C306.391 102.897 307.082 102.037 307.301 99.231C307.41 97.8093 307.738 93.4321 305.736 90.8132C304.28 88.9426 302.242 88.8304 300.277 88.1944C297.184 87.1842 293.144 84.528 289.286 77.2326Z" fill="url(#paint67_linear_0_7421)"/>
<g opacity="0.3">
<path d="M318.837 104.282C317.163 102.71 316.144 103.197 315.125 101.962C312.76 99.0813 316.29 94.3674 314.215 92.0852C312.541 90.252 309.339 92.3097 307.519 90.1398C306.318 88.7181 307.41 87.4461 306.318 85.9496C304.608 83.5926 300.786 85.2762 295.801 83.8171C294.636 83.4804 293.581 82.9941 292.671 82.5077C295.4 85.9496 298.093 87.4835 300.313 88.1944C302.315 88.8304 304.317 88.9426 305.772 90.8132C307.81 93.4321 307.446 97.8093 307.337 99.231C307.119 102.037 306.427 102.86 307.082 104.319C307.956 106.265 310.176 106.938 311.595 107.349C312.287 107.574 317.491 109.07 320.584 106.676C320.22 105.853 319.638 104.992 318.837 104.282Z" fill="url(#paint68_linear_0_7421)"/>
</g>
<path d="M261.334 105.45L260.693 106.613C260.542 106.8 260.277 107.1 259.975 107.401C259.183 108.189 258.428 108.601 257.673 109.014C257.107 109.352 256.315 109.727 255.333 110.102C259.183 109.089 261.674 109.389 263.259 109.877C263.75 110.027 264.957 110.44 265.071 110.252C265.146 110.102 264.391 109.314 263.448 108.977C262.995 108.826 262.58 108.789 262.24 108.414C262.051 108.226 261.938 108.001 261.863 107.738C261.674 107.063 262.429 106.125 262.429 106.125L261.334 105.45Z" fill="url(#paint69_linear_0_7421)"/>
<path d="M261.485 107.663C261.674 107.626 262.957 107.963 263.41 107.363C264.014 106.538 263.636 105.149 263.599 104.924C263.485 104.024 263.41 103.874 263.259 103.686L263.033 103.423C263.033 103.423 263.033 103.423 262.995 103.386C262.844 103.273 262.24 103.011 262.127 103.011C261.712 102.936 260.73 104.361 260.013 106.613C259.975 106.688 259.9 106.763 259.862 106.838C259.749 107.063 261.485 107.738 261.485 107.663Z" fill="url(#paint70_linear_0_7421)"/>
<path d="M264.391 103.761C264.089 104.136 263.334 104.324 263.032 104.399C262.995 104.399 262.844 104.474 262.693 104.587C262.655 104.587 262.655 104.624 262.617 104.662C262.315 105.037 262.806 105.787 262.617 105.937C262.466 106.05 262.051 105.675 261.976 105.787C261.862 105.9 262.202 106.275 262.089 106.387C262.013 106.463 261.787 106.275 261.598 106.387C261.485 106.425 261.485 106.5 261.334 106.725C261.221 106.838 261.108 106.988 261.032 107.025C260.655 107.326 259.9 107.25 259.824 107.025C259.787 106.95 259.862 106.95 259.862 106.763C259.862 106.763 259.862 106.725 259.862 106.65C259.862 106.65 259.862 106.5 259.824 106.387C259.787 106.162 258.541 106.012 258.39 105.562C258.277 105.187 258.73 104.249 258.73 104.136V104.099C258.73 104.061 258.73 104.061 258.73 104.024C258.768 103.536 259.636 103.011 259.636 103.011C260.843 102.26 260.617 101.735 261.447 101.435C262.655 101.022 264.353 101.735 264.58 102.71C264.618 103.048 264.618 103.461 264.391 103.761Z" fill="#26264F"/>
<path d="M262.391 105.712C262.315 105.412 261.938 105.525 261.825 105.825C261.712 106.125 261.9 106.538 262.202 106.575C262.466 106.613 262.504 106.087 262.391 105.712Z" fill="url(#paint71_linear_0_7421)"/>
<path d="M250.125 148.298L248.276 150.812C248.276 150.812 248.389 151.45 249.295 151.637L251.748 149.536L250.125 148.298Z" fill="url(#paint72_linear_0_7421)"/>
<path d="M249.219 150.437C248.766 150.399 247.974 150.362 247.483 150.887C247.068 151.3 247.106 151.863 247.106 153.213C247.106 155.99 246.917 156.365 247.106 156.44C247.672 156.665 249.823 154.001 249.446 151.337C249.408 150.962 249.295 150.662 249.219 150.437Z" fill="url(#paint73_linear_0_7421)"/>
<path d="M215.025 162.256L219.818 161.693C220.12 161.655 220.196 161.28 219.969 161.13C219.743 160.98 219.403 160.83 219.026 160.905C218.12 161.092 215.969 160.004 215.063 160.38C214.761 160.492 214.572 161.243 214.497 161.43C214.233 161.805 214.572 162.293 215.025 162.256Z" fill="url(#paint74_linear_0_7421)"/>
<path d="M216.837 158.391L215.025 160.38C215.025 160.38 215.78 160.83 216.761 160.53L218.648 158.954L216.837 158.391Z" fill="url(#paint75_linear_0_7421)"/>
<path d="M255.296 125.26C252.276 130.851 246.992 139.03 238.123 146.797C230.763 153.251 223.479 157.228 218.082 159.629C217.742 159.629 217.176 159.592 216.572 159.291C216.12 159.104 215.78 158.841 215.553 158.616C216.422 156.965 217.893 154.564 220.271 152.2C224.649 147.923 227.027 148.823 231.216 145.146C234.273 142.445 236.085 139.143 239.633 132.464C242.086 127.849 242.539 126.123 244.69 124.885C247.974 123.047 252.201 124.06 255.296 125.26Z" fill="url(#paint76_linear_0_7421)"/>
<g opacity="0.3">
<path d="M246.766 124.135C243.935 139.406 239.104 144.583 235.028 146.384C232.688 147.435 229.027 148.073 225.291 151.562C222.762 153.964 222.045 155.915 219.328 157.303C218.12 157.903 216.874 158.203 215.704 158.316C215.629 158.429 215.591 158.541 215.553 158.616C215.78 158.804 216.12 159.066 216.572 159.292C217.176 159.554 217.742 159.629 218.082 159.629C223.441 157.228 230.763 153.251 238.123 146.797C246.992 139.03 252.276 130.851 255.296 125.26C252.805 124.322 249.634 123.459 246.766 124.135Z" fill="url(#paint77_linear_0_7421)"/>
</g>
<path d="M246.728 128.3C244.426 128.675 239.444 129.5 238.991 131.864C238.727 133.177 239.897 134.866 241.331 135.616C244.086 137.079 246.502 134.528 253.408 134.003C254.843 133.89 257.824 133.665 258.088 134.528C258.353 135.353 256.013 136.479 254.126 138.092C252.087 139.893 249.747 143.045 248.728 149.011C249.446 149.536 250.163 150.099 250.88 150.624C254.05 148.898 258.994 145.709 263.146 140.044C265.561 136.742 267.297 134.415 266.58 132.164C264.995 127.324 253.257 127.212 246.728 128.3Z" fill="url(#paint78_linear_0_7421)"/>
<path d="M266.542 111.078C265.41 108.714 260.277 108.826 257.522 109.277C252.729 110.065 249.596 112.954 247.785 114.642C242.576 119.52 243.973 122.109 239.331 126.123C234.575 130.213 229.858 130.326 229.971 132.389C230.046 134.303 234.16 135.466 234.651 135.616C239.595 137.042 244.162 134.453 245.294 133.815C248.313 132.127 247.747 131.226 250.691 129.875C253.899 128.412 254.918 128.637 256.994 127.174C258.541 126.086 259.07 125.073 261.334 121.246C266.203 113.066 267.109 112.241 266.542 111.078Z" fill="url(#paint79_linear_0_7421)"/>
<path d="M257.183 115.73C257.786 119.895 265.146 121.096 267.448 121.471C269.335 121.771 275.374 122.747 276.808 120.233C278.318 117.569 274.355 111.716 269.411 109.502C268.316 109.014 267.297 108.751 266.543 108.601C269.222 112.541 269.6 113.479 269.411 113.629C268.996 113.967 265.939 108.864 262.391 109.164C259.598 109.352 256.767 112.879 257.183 115.73Z" fill="url(#paint80_linear_0_7421)"/>
<g opacity="0.3">
<path d="M270.166 120.57C267.713 119.595 267.373 117.268 264.052 116.105C263.674 115.993 259.372 114.529 256.654 116.631C253.71 118.919 255.862 122.972 253.069 125.41C250.767 127.437 248.691 125.26 244.048 126.649C238.048 128.45 237.029 133.44 233.254 133.29C232.386 133.252 231.292 132.952 230.084 131.977C230.046 132.127 230.009 132.239 230.009 132.427C230.084 134.34 234.198 135.503 234.689 135.654C239.633 137.079 244.199 134.49 245.332 133.853C248.351 132.164 247.785 131.264 250.729 129.913C253.937 128.45 254.956 128.675 257.032 127.211C258.579 126.123 259.107 125.11 261.372 121.283C261.598 120.87 261.825 120.495 262.051 120.158C264.165 120.945 266.392 121.283 267.486 121.471C269.373 121.771 275.412 122.746 276.846 120.233C276.959 120.045 277.035 119.82 277.073 119.632C273.789 121.283 271.638 121.171 270.166 120.57Z" fill="url(#paint81_linear_0_7421)"/>
</g>
<path d="M181.699 162.256C181.473 162.256 181.246 162.143 181.133 161.918C180.982 161.618 181.095 161.243 181.397 161.055C181.699 160.905 210.572 145.859 227.404 130.701C246.653 113.329 257.786 109.652 262.806 109.014L165.055 66.5032C164.753 66.3532 164.602 65.978 164.715 65.6778C164.829 65.3776 165.244 65.2275 165.546 65.3401L266.09 109.052C266.392 109.202 266.543 109.539 266.429 109.839C266.316 110.14 265.976 110.327 265.674 110.215C265.637 110.215 262.957 109.539 257.032 111.828C251.521 113.929 242.086 119.07 228.235 131.564C211.289 146.835 182.265 161.956 181.963 162.106C181.888 162.218 181.775 162.256 181.699 162.256Z" fill="#97A6B7"/>
<path d="M267.675 109.427C267.788 109.202 267.146 108.414 266.316 108.264C265.486 108.114 264.58 108.564 264.58 108.826C264.58 108.977 265.071 109.052 265.976 109.239C267.071 109.464 267.599 109.577 267.675 109.427Z" fill="url(#paint82_linear_0_7421)"/>
<path d="M194.564 115.43C194.639 145.723 178.775 170.477 150.544 171.279C150.093 171.279 142.913 171.279 142.462 171.279C113.629 171.356 90.172 146.449 90.1345 115.697C90.0593 84.9077 113.404 59.9244 142.236 59.848C142.913 59.848 149.228 59.9244 149.905 59.9244C177.798 60.994 194.526 85.3661 194.564 115.43Z" fill="url(#paint83_linear_0_7421)"/>
<ellipse cx="152.123" cy="116.041" rx="52.2146" ry="55.7348" fill="url(#paint84_linear_0_7421)"/>
<ellipse opacity="0.3" cx="152.123" cy="116.041" rx="50.8989" ry="54.3214" fill="url(#paint85_linear_0_7421)"/>
<ellipse cx="152.123" cy="116.041" rx="49.3577" ry="52.6787" fill="url(#paint86_linear_0_7421)"/>
<ellipse cx="151.07" cy="116.041" rx="48.3051" ry="51.5709" fill="url(#paint87_linear_0_7421)"/>
<path d="M156.145 114.589L192.947 129.106C194.15 125.018 194.789 120.663 194.789 116.118C194.789 92.8533 177.685 73.8676 156.145 72.6833V114.589Z" fill="url(#paint88_linear_0_7421)"/>
<g opacity="0.54">
<path d="M138.928 114.895C135.094 102.327 148.928 93.2353 146.747 78.6045C145.77 72.1486 142.048 66.8387 137.462 62.5984C115.734 69.3599 99.8707 90.8287 99.9083 116.232C99.9835 147.022 123.403 171.891 152.236 171.814C159.303 171.814 166.032 170.286 172.197 167.536C171.295 149.734 165.919 139.687 160.243 133.652C151.409 124.292 141.86 124.483 138.928 114.895Z" fill="#D8DEE8"/>
</g>
<path d="M147.612 155.846C145.244 155.541 142.838 155.006 140.507 154.204C121.561 147.633 111.186 125.859 117.313 105.689C120.358 95.6802 126.937 87.6198 135.808 82.9594C136.898 82.3863 138.214 82.883 138.74 84.029C139.267 85.175 138.816 86.5884 137.725 87.1614C129.944 91.2107 124.155 98.316 121.486 107.102C116.073 124.827 125.207 143.966 141.86 149.734C154.04 153.974 167.347 150.002 175.693 139.611C176.482 138.618 177.873 138.503 178.775 139.382C179.678 140.222 179.79 141.712 179.001 142.667C171.107 152.485 159.303 157.26 147.612 155.846Z" fill="white"/>
<path d="M131.485 95.9858L135.583 85.6334L125.884 81.2786L131.711 78.7191L141.409 83.074L137.349 93.4264L131.485 95.9858Z" fill="white"/>
<ellipse cx="150.92" cy="116.843" rx="3.0825" ry="3.28526" fill="url(#paint89_linear_0_7421)"/>
<path d="M150.92 90.7523C149.83 90.7523 148.965 91.6691 148.965 92.8152V114.895C148.965 116.041 149.83 116.958 150.92 116.958C152.01 116.958 152.875 116.041 152.875 114.895V92.8152C152.875 91.6691 152.01 90.7523 150.92 90.7523Z" fill="url(#paint90_linear_0_7421)"/>
<path d="M150.732 117.34C150.319 116.843 149.604 116.805 149.116 117.264L122.99 142.782C122.538 143.24 122.501 144.004 122.914 144.501C123.328 144.997 124.042 145.035 124.531 144.577L150.657 119.059C151.108 118.601 151.146 117.837 150.732 117.34Z" fill="url(#paint91_linear_0_7421)"/>
<path d="M65.5964 166.509L64.8837 169.598C64.8837 169.598 65.2588 170.132 66.1215 169.98L67.5468 167.081L65.5964 166.509Z" fill="url(#paint92_linear_0_7421)"/>
<path d="M65.5964 168.874C65.5964 168.874 63.9835 169.255 64.1711 169.98C64.2836 170.361 64.6587 171.276 65.0337 172.039C65.3713 172.763 66.084 173.145 66.8717 173.068C67.1342 173.03 67.3968 172.992 67.6218 172.992C68.1094 172.954 68.2219 172.306 67.8094 172.077C67.6218 171.963 67.3968 171.848 67.2092 171.81C66.6841 171.619 66.1215 170.17 66.1215 169.636C66.1215 169.064 65.5964 168.874 65.5964 168.874Z" fill="url(#paint93_linear_0_7421)"/>
<path d="M67.3968 135.926C69.4973 137.108 77.149 141.646 77.7866 149.234C77.8241 149.654 77.8991 150.76 77.5991 152.514C76.4363 159.836 71.2227 165.289 67.5844 168.34C66.6467 168.149 65.6714 167.958 64.7337 167.806C64.5837 165.861 64.5837 163.001 65.8215 159.988C67.6594 155.374 70.6225 154.611 70.4725 152.171C70.2475 147.747 60.3453 146.679 60.0827 142.713C59.9327 141.226 61.0579 139.014 67.3968 135.926Z" fill="url(#paint94_linear_0_7421)"/>
<path d="M23.8496 178.445L28.6132 177.873C28.9132 177.835 28.9883 177.454 28.7632 177.301C28.5382 177.149 28.2006 176.996 27.8255 177.073C26.9253 177.263 24.7873 176.157 23.8871 176.539C23.5871 176.653 23.3995 177.416 23.3245 177.606C23.062 178.026 23.3995 178.522 23.8496 178.445Z" fill="url(#paint95_linear_0_7421)"/>
<path d="M25.6501 174.518L23.8497 176.539C23.8497 176.539 24.5998 176.996 25.5751 176.691L27.4505 175.09L25.6501 174.518Z" fill="url(#paint96_linear_0_7421)"/>
<path d="M89.9393 99.1639C90.0518 98.8207 90.2019 98.2868 90.3519 97.6004C90.7645 95.9225 90.727 95.5411 91.0646 94.8928C91.7022 93.5963 92.7899 92.9861 92.8649 93.0624C92.94 93.1387 91.8522 94.1302 91.7397 95.6174C91.7022 95.9606 91.7397 96.4564 91.8897 96.4564C92.1148 96.4945 92.4524 95.2742 92.6024 95.3123C92.7149 95.3505 92.7899 96.2275 92.3398 97.0284C91.9272 97.7148 91.5522 97.6004 91.0646 98.3249C90.5394 99.1258 90.6145 99.8884 90.3519 99.8884C90.2769 99.8884 90.1268 99.774 89.9393 99.1639Z" fill="url(#paint97_linear_0_7421)"/>
<g opacity="0.3">
<path d="M71.5978 156.061C73.2857 153.086 75.3111 149.425 74.1108 146.946C72.8731 144.43 69.0847 145.726 65.859 143.324C64.6588 142.447 63.5335 140.998 62.7833 138.633C60.4578 140.349 59.9702 141.684 60.0452 142.675C60.3078 146.68 70.21 147.709 70.435 152.133C70.5851 154.573 67.6219 155.336 65.784 159.95C64.7338 162.543 64.5837 165.022 64.6588 166.891C65.2964 165.251 66.1216 163.573 67.2093 161.933C68.9347 159.416 69.8349 159.188 71.5978 156.061Z" fill="url(#paint98_linear_0_7421)"/>
</g>
<path d="M66.6842 137.756C63.4584 143.934 57.8322 153.01 48.4176 161.628C40.5784 168.797 32.8142 173.183 27.1129 175.814C26.7379 175.814 26.1752 175.738 25.5001 175.433C25.0125 175.204 24.6749 174.937 24.4124 174.708C25.3126 172.878 26.8879 170.208 29.4385 167.615C34.0895 162.848 36.6025 163.878 41.066 159.798C44.3292 156.823 46.2422 153.124 50.0305 145.764C52.6561 140.654 53.1062 138.747 55.3942 137.375C58.8824 135.315 63.3459 136.421 66.6842 137.756Z" fill="url(#paint99_linear_0_7421)"/>
<path d="M89.7892 97.8674C87.8762 100.994 85.9258 103.016 84.613 104.236C78.8743 109.498 75.0109 108.736 69.7973 114.647C68.4095 116.21 66.6091 120.443 67.3592 121.968C68.2219 123.723 71.6352 122.884 74.7484 120.977C76.5487 119.909 76.2487 119.108 79.2118 116.058C81.6124 113.617 82.0625 113.846 84.7631 111.138C86.7885 109.117 88.1388 107.782 89.2265 105.685C90.5768 103.13 90.9144 100.728 91.0269 99.1259C90.6143 98.7064 90.2018 98.2869 89.7892 97.8674Z" fill="url(#paint100_linear_0_7421)"/>
<path d="M98.191 100.613C98.3786 100.155 98.5286 99.6215 98.6036 99.0495C98.6786 98.5156 98.6411 98.3249 98.7161 97.8673C98.8662 97.1809 99.1287 96.647 99.2788 96.342C99.8789 95.2742 100.742 94.5115 100.854 94.5878C100.967 94.7022 99.8789 95.6555 99.9914 97.0665C100.029 97.6767 100.254 97.8673 100.141 98.4012C100.029 98.9732 99.7289 98.9732 99.2788 99.7359C98.7912 100.613 98.7912 101.299 98.5661 101.299C98.5286 101.338 98.3786 101.223 98.191 100.613Z" fill="url(#paint101_linear_0_7421)"/>
<path d="M78.6493 109.155L78.0867 110.414C77.7866 111.1 77.1865 111.558 76.4738 111.71L74.6734 112.168C74.4484 112.244 74.4484 112.549 74.6359 112.625C75.7612 113.045 78.1617 113.808 80.8623 113.502C84.6131 113.121 81.875 112.664 80.9748 112.587C80.0746 112.511 79.5495 112.13 79.2869 111.481C79.0244 110.833 79.737 109.803 79.737 109.803L78.6493 109.155Z" fill="url(#paint102_linear_0_7421)"/>
<g opacity="0.3">
<path d="M30.1511 169.255C31.689 167.92 34.052 166.776 38.7405 164.526C43.5791 162.2 43.2415 162.772 44.2917 161.971C49.0178 158.349 48.7927 152.781 51.4558 147.023C52.9561 143.819 55.7692 139.892 61.508 136.307C59.4075 136.04 57.2321 136.231 55.3942 137.337C53.1062 138.709 52.6561 140.616 50.0305 145.726C46.2422 153.086 44.3292 156.747 41.066 159.76C36.6025 163.84 34.0895 162.849 29.4385 167.577C26.8879 170.17 25.3501 172.84 24.4124 174.67C24.6374 174.899 25.0125 175.166 25.5001 175.395C25.8752 175.585 26.2503 175.662 26.5503 175.7C27.5255 171.734 29.3634 169.942 30.1511 169.255Z" fill="url(#paint103_linear_0_7421)"/>
</g>
<path d="M78.9494 111.253C79.0995 111.176 80.4498 110.986 80.6373 110.261C80.8999 109.27 79.9997 108.087 79.8871 107.897C79.437 107.096 79.3245 106.981 79.0995 106.829L78.7994 106.638C78.7994 106.638 78.7994 106.638 78.7619 106.638C78.5743 106.562 77.9367 106.562 77.8242 106.6C77.4116 106.715 76.999 108.392 77.1865 110.795C77.1865 110.871 77.149 110.986 77.149 111.062C77.149 111.329 78.9869 111.329 78.9494 111.253Z" fill="url(#paint104_linear_0_7421)"/>
<path d="M80.2246 106.486C80.0746 106.943 79.4745 107.401 79.1744 107.63C79.1369 107.668 79.0244 107.782 78.9118 107.935C78.9118 107.973 78.8743 107.973 78.8743 108.011C78.7243 108.469 79.4745 109.003 79.3244 109.231C79.2119 109.384 78.7243 109.193 78.6493 109.308C78.6118 109.422 79.0244 109.689 78.9493 109.842C78.9118 109.956 78.6493 109.842 78.4993 110.032C78.4242 110.109 78.4617 110.185 78.3492 110.452C78.3117 110.604 78.2367 110.757 78.1992 110.871C77.9741 111.329 77.2615 111.481 77.1114 111.329C77.0739 111.291 77.1114 111.253 77.0739 111.062C77.0739 111.062 77.0364 110.909 76.9239 110.757C76.7739 110.528 76.3988 110.337 76.0237 110.07C75.3486 109.613 75.161 109.193 75.086 109.041V109.003C75.086 108.964 75.086 108.964 75.0485 108.926C74.8985 108.431 75.2735 107.859 75.4986 107.63C75.7987 107.287 76.3238 106.753 77.0739 106.257C77.2615 106.143 79.2494 104.884 79.9996 105.494C80.2621 105.723 80.2996 106.181 80.2246 106.486Z" fill="#26264F"/>
<path d="M79.0619 109.079C78.8744 108.85 78.5743 109.079 78.5743 109.384C78.5743 109.689 78.9119 110.032 79.212 109.956C79.512 109.918 79.3245 109.422 79.0619 109.079Z" fill="url(#paint105_linear_0_7421)"/>
<path d="M45.1919 140.311C49.5803 140.082 49.8054 141.913 55.2066 142.675C57.232 142.942 62.1456 143.591 67.2092 141.226C70.3974 139.739 72.0853 137.794 72.3853 137.413C74.1107 135.354 74.7484 133.332 75.0859 132.493C77.1489 126.926 83.0752 123.684 86.1884 121.396C90.3893 118.307 95.678 112.435 99.9914 100.079C99.3913 99.8504 98.7912 99.5834 98.191 99.3546C96.5032 102.939 94.4027 105.265 93.0149 106.638C91.177 108.392 86.4884 112.969 80.2996 113.007C76.6613 113.045 75.8736 111.481 73.1355 112.282C70.885 112.93 70.1349 114.303 66.4966 118.651C61.4704 124.638 58.9199 127.65 56.2943 128.68C53.2186 129.862 51.8683 128.985 48.9427 130.854C46.4296 132.493 46.3546 133.828 44.1041 134.667C40.8034 135.887 38.4029 133.981 37.4652 135.201C36.6775 136.307 37.6527 138.976 39.4531 140.12C41.066 141.15 42.6038 140.425 45.1919 140.311Z" fill="url(#paint106_linear_0_7421)"/>
<g opacity="0.3">
<path d="M92.6397 111.71C89.9016 113.884 88.1388 113.922 84.763 117.163C81.4998 120.329 81.5748 121.816 78.4991 124.447C75.2359 127.193 74.2607 126.278 70.4349 128.833C63.7959 133.218 64.246 137.68 60.2326 138.29C56.1067 138.938 54.944 134.324 49.6553 134.476C44.7417 134.591 42.7163 138.633 39.6406 137.565C38.6654 137.222 37.9152 136.536 37.3151 135.582C36.9025 136.841 37.8777 139.091 39.4906 140.12C41.1409 141.188 42.6413 140.464 45.2293 140.311C49.6178 140.082 49.8428 141.913 55.244 142.675C57.2695 142.942 62.1831 143.591 67.2467 141.226C70.4349 139.739 72.1227 137.794 72.4228 137.413C74.1482 135.354 74.7858 133.332 75.1234 132.493C77.1864 126.926 83.1127 123.684 86.2258 121.396C90.4268 118.307 95.7154 112.435 100.029 100.079C99.9539 100.041 99.8788 100.003 99.8038 100.003C97.9659 106.333 95.1153 109.727 92.6397 111.71Z" fill="url(#paint107_linear_0_7421)"/>
</g>
<defs>
<linearGradient id="paint0_linear_0_7421" x1="70.7682" y1="-7.25024" x2="34.5353" y2="47.4026" gradientUnits="userSpaceOnUse">
<stop stop-color="#FF9085"/>
<stop offset="1" stop-color="#FB6FBB"/>
</linearGradient>
<linearGradient id="paint1_linear_0_7421" x1="75.5735" y1="62.641" x2="51.9781" y2="97.4022" gradientUnits="userSpaceOnUse">
<stop stop-color="#AA80F9"/>
<stop offset="0.9964" stop-color="#6165D7"/>
</linearGradient>
<linearGradient id="paint2_linear_0_7421" x1="78.7822" y1="16.2162" x2="64.3749" y2="38.0371" gradientUnits="userSpaceOnUse">
<stop stop-color="#FF9085"/>
<stop offset="1" stop-color="#FB6FBB"/>
</linearGradient>
<linearGradient id="paint3_linear_0_7421" x1="-212.523" y1="-12.3321" x2="-213.578" y2="92.3014" gradientUnits="userSpaceOnUse">
<stop stop-color="#AA80F9"/>
<stop offset="0.9964" stop-color="#6165D7"/>
</linearGradient>
<linearGradient id="paint4_linear_0_7421" x1="-157.76" y1="19.0018" x2="-159.021" y2="124.072" gradientUnits="userSpaceOnUse">
<stop stop-color="#AA80F9"/>
<stop offset="0.9964" stop-color="#6165D7"/>
</linearGradient>
<linearGradient id="paint5_linear_0_7421" x1="-14.7784" y1="-7.35721" x2="-15.3397" y2="40.0941" gradientUnits="userSpaceOnUse">
<stop stop-color="#AA80F9"/>
<stop offset="0.9964" stop-color="#6165D7"/>
</linearGradient>
<linearGradient id="paint6_linear_0_7421" x1="320.215" y1="40.3237" x2="296.56" y2="68.2878" gradientUnits="userSpaceOnUse">
<stop stop-color="#FF9085"/>
<stop offset="1" stop-color="#FB6FBB"/>
</linearGradient>
<linearGradient id="paint7_linear_0_7421" x1="329.91" y1="26.2231" x2="320.247" y2="37.5262" gradientUnits="userSpaceOnUse">
<stop stop-color="#FF9085"/>
<stop offset="1" stop-color="#FB6FBB"/>
</linearGradient>
<linearGradient id="paint8_linear_0_7421" x1="116.033" y1="46.4086" x2="98.8839" y2="75.5394" gradientUnits="userSpaceOnUse">
<stop stop-color="#AA80F9"/>
<stop offset="0.9964" stop-color="#6165D7"/>
</linearGradient>
<linearGradient id="paint9_linear_0_7421" x1="199.404" y1="76.2324" x2="198.898" y2="105.246" gradientUnits="userSpaceOnUse">
<stop stop-color="#FF9085"/>
<stop offset="1" stop-color="#FB6FBB"/>
</linearGradient>
<linearGradient id="paint10_linear_0_7421" x1="66.0888" y1="129.102" x2="133.969" y2="129.102" gradientUnits="userSpaceOnUse">
<stop stop-color="#444B8C"/>
<stop offset="0.9964" stop-color="#26264F"/>
</linearGradient>
<linearGradient id="paint11_linear_0_7421" x1="100.6" y1="129.102" x2="168.48" y2="129.102" gradientUnits="userSpaceOnUse">
<stop stop-color="#444B8C"/>
<stop offset="0.9964" stop-color="#26264F"/>
</linearGradient>
<linearGradient id="paint12_linear_0_7421" x1="265.993" y1="36.4938" x2="141.231" y2="55.2317" gradientUnits="userSpaceOnUse">
<stop stop-color="#444B8C"/>
<stop offset="0.9964" stop-color="#26264F"/>
</linearGradient>
<linearGradient id="paint13_linear_0_7421" x1="129.993" y1="142.681" x2="301.451" y2="142.681" gradientUnits="userSpaceOnUse">
<stop stop-color="#444B8C"/>
<stop offset="0.9964" stop-color="#26264F"/>
</linearGradient>
<linearGradient id="paint14_linear_0_7421" x1="184.77" y1="12.1267" x2="169.826" y2="91.6649" gradientUnits="userSpaceOnUse">
<stop offset="0.00359712" stop-color="#EBEFF2"/>
<stop offset="1" stop-color="white"/>
</linearGradient>
<linearGradient id="paint15_linear_0_7421" x1="145.296" y1="49.7717" x2="274.698" y2="49.7717" gradientUnits="userSpaceOnUse">
<stop offset="0.00359712" stop-color="#E38DDD"/>
<stop offset="1" stop-color="#9571F6"/>
</linearGradient>
<linearGradient id="paint16_linear_0_7421" x1="151.232" y1="64.7642" x2="171.978" y2="64.7642" gradientUnits="userSpaceOnUse">
<stop stop-color="#AA80F9"/>
<stop offset="0.9964" stop-color="#6165D7"/>
</linearGradient>
<linearGradient id="paint17_linear_0_7421" x1="179.48" y1="64.6131" x2="199.362" y2="64.6131" gradientUnits="userSpaceOnUse">
<stop stop-color="#AA80F9"/>
<stop offset="0.9964" stop-color="#6165D7"/>
</linearGradient>
<linearGradient id="paint18_linear_0_7421" x1="176.801" y1="63.4303" x2="170.313" y2="88.6631" gradientUnits="userSpaceOnUse">
<stop offset="0.00359712" stop-color="#E38DDD"/>
<stop offset="1" stop-color="#9571F6"/>
</linearGradient>
<linearGradient id="paint19_linear_0_7421" x1="180.212" y1="59.9319" x2="168.924" y2="90.6861" gradientUnits="userSpaceOnUse">
<stop offset="0.00359712" stop-color="#E38DDD"/>
<stop offset="1" stop-color="#9571F6"/>
</linearGradient>
<linearGradient id="paint20_linear_0_7421" x1="185.275" y1="67.5574" x2="180.682" y2="89.6983" gradientUnits="userSpaceOnUse">
<stop offset="0.00359712" stop-color="#E38DDD"/>
<stop offset="1" stop-color="#9571F6"/>
</linearGradient>
<linearGradient id="paint21_linear_0_7421" x1="189.798" y1="70.8667" x2="187.274" y2="88.5266" gradientUnits="userSpaceOnUse">
<stop offset="0.00359712" stop-color="#E38DDD"/>
<stop offset="1" stop-color="#9571F6"/>
</linearGradient>
<linearGradient id="paint22_linear_0_7421" x1="192.636" y1="65.5674" x2="183.132" y2="94.0183" gradientUnits="userSpaceOnUse">
<stop offset="0.00359712" stop-color="#E38DDD"/>
<stop offset="1" stop-color="#9571F6"/>
</linearGradient>
<linearGradient id="paint23_linear_0_7421" x1="206.555" y1="64.4501" x2="225.627" y2="64.4501" gradientUnits="userSpaceOnUse">
<stop stop-color="#AA80F9"/>
<stop offset="0.9964" stop-color="#6165D7"/>
</linearGradient>
<linearGradient id="paint24_linear_0_7421" x1="196.419" y1="72.5662" x2="194.096" y2="109.524" gradientUnits="userSpaceOnUse">
<stop stop-color="#FF9085"/>
<stop offset="1" stop-color="#FB6FBB"/>
</linearGradient>
<linearGradient id="paint25_linear_0_7421" x1="232.529" y1="64.2981" x2="250.839" y2="64.2981" gradientUnits="userSpaceOnUse">
<stop stop-color="#AA80F9"/>
<stop offset="0.9964" stop-color="#6165D7"/>
</linearGradient>
<linearGradient id="paint26_linear_0_7421" x1="190.771" y1="69.1434" x2="201.116" y2="112.882" gradientUnits="userSpaceOnUse">
<stop stop-color="#FFC444"/>
<stop offset="0.9964" stop-color="#F36F56"/>
</linearGradient>
<linearGradient id="paint27_linear_0_7421" x1="257.469" y1="64.1512" x2="275.062" y2="64.1512" gradientUnits="userSpaceOnUse">
<stop stop-color="#AA80F9"/>
<stop offset="0.9964" stop-color="#6165D7"/>
</linearGradient>
<linearGradient id="paint28_linear_0_7421" x1="264.44" y1="97.8023" x2="282.033" y2="97.8023" gradientUnits="userSpaceOnUse">
<stop stop-color="#AA80F9"/>
<stop offset="0.9964" stop-color="#6165D7"/>
</linearGradient>
<linearGradient id="paint29_linear_0_7421" x1="265.402" y1="102.659" x2="282.996" y2="102.659" gradientUnits="userSpaceOnUse">
<stop stop-color="#AA80F9"/>
<stop offset="0.9964" stop-color="#6165D7"/>
</linearGradient>
<linearGradient id="paint30_linear_0_7421" x1="266.366" y1="107.525" x2="283.959" y2="107.525" gradientUnits="userSpaceOnUse">
<stop stop-color="#AA80F9"/>
<stop offset="0.9964" stop-color="#6165D7"/>
</linearGradient>
<linearGradient id="paint31_linear_0_7421" x1="161.88" y1="7.56691" x2="168.396" y2="53.5229" gradientUnits="userSpaceOnUse">
<stop offset="0.00359712" stop-color="#E38DDD"/>
<stop offset="1" stop-color="#9571F6"/>
</linearGradient>
<linearGradient id="paint32_linear_0_7421" x1="128.11" y1="-25.5016" x2="116.769" y2="70.8016" gradientUnits="userSpaceOnUse">
<stop offset="0.00359712" stop-color="#E38DDD"/>
<stop offset="1" stop-color="#9571F6"/>
</linearGradient>
<linearGradient id="paint33_linear_0_7421" x1="221.461" y1="28.9774" x2="226.507" y2="64.8208" gradientUnits="userSpaceOnUse">
<stop stop-color="#FFC444"/>
<stop offset="0.9964" stop-color="#F36F56"/>
</linearGradient>
<linearGradient id="paint34_linear_0_7421" x1="193.098" y1="2.94779" x2="183.911" y2="79.9829" gradientUnits="userSpaceOnUse">
<stop stop-color="#FFC444"/>
<stop offset="0.9964" stop-color="#F36F56"/>
</linearGradient>
<linearGradient id="paint35_linear_0_7421" x1="159.853" y1="11.9989" x2="151.749" y2="11.9989" gradientUnits="userSpaceOnUse">
<stop stop-color="#FFC444"/>
<stop offset="0.9964" stop-color="#F36F56"/>
</linearGradient>
<linearGradient id="paint36_linear_0_7421" x1="173.809" y1="26.541" x2="158.093" y2="26.541" gradientUnits="userSpaceOnUse">
<stop stop-color="#444B8C"/>
<stop offset="0.9964" stop-color="#26264F"/>
</linearGradient>
<linearGradient id="paint37_linear_0_7421" x1="154.36" y1="50.8166" x2="151.545" y2="62.5096" gradientUnits="userSpaceOnUse">
<stop stop-color="#444B8C"/>
<stop offset="0.9964" stop-color="#26264F"/>
</linearGradient>
<linearGradient id="paint38_linear_0_7421" x1="166.421" y1="27.6558" x2="150.706" y2="27.6558" gradientUnits="userSpaceOnUse">
<stop stop-color="#444B8C"/>
<stop offset="0.9964" stop-color="#3E4177"/>
</linearGradient>
<linearGradient id="paint39_linear_0_7421" x1="166.187" y1="60.4615" x2="170.503" y2="44.8233" gradientUnits="userSpaceOnUse">
<stop stop-color="#FFC444"/>
<stop offset="0.9964" stop-color="#F36F56"/>
</linearGradient>
<linearGradient id="paint40_linear_0_7421" x1="160.656" y1="13.1852" x2="142.758" y2="20.0407" gradientUnits="userSpaceOnUse">
<stop stop-color="#444B8C"/>
<stop offset="0.9964" stop-color="#26264F"/>
</linearGradient>
<linearGradient id="paint41_linear_0_7421" x1="113.209" y1="7.97787" x2="122.741" y2="28.1201" gradientUnits="userSpaceOnUse">
<stop stop-color="#444B8C"/>
<stop offset="0.9964" stop-color="#26264F"/>
</linearGradient>
<linearGradient id="paint42_linear_0_7421" x1="147.696" y1="33.8012" x2="163.039" y2="20.6946" gradientUnits="userSpaceOnUse">
<stop stop-color="#FFC444"/>
<stop offset="0.9964" stop-color="#F36F56"/>
</linearGradient>
<linearGradient id="paint43_linear_0_7421" x1="146.711" y1="8.36549" x2="146.538" y2="10.9796" gradientUnits="userSpaceOnUse">
<stop stop-color="#311944"/>
<stop offset="1" stop-color="#A03976"/>
</linearGradient>
<linearGradient id="paint44_linear_0_7421" x1="150.126" y1="6.45833" x2="150.126" y2="7.21938" gradientUnits="userSpaceOnUse">
<stop stop-color="#311944"/>
<stop offset="1" stop-color="#A03976"/>
</linearGradient>
<linearGradient id="paint45_linear_0_7421" x1="148.865" y1="33.6314" x2="162.823" y2="19.1477" gradientUnits="userSpaceOnUse">
<stop stop-color="#FFC444"/>
<stop offset="0.9964" stop-color="#F36F56"/>
</linearGradient>
<linearGradient id="paint46_linear_0_7421" x1="147.439" y1="30.9041" x2="159.356" y2="30.9041" gradientUnits="userSpaceOnUse">
<stop offset="0.00359712" stop-color="#E38DDD"/>
<stop offset="1" stop-color="#9571F6"/>
</linearGradient>
<linearGradient id="paint47_linear_0_7421" x1="154.437" y1="29.587" x2="170.794" y2="29.587" gradientUnits="userSpaceOnUse">
<stop offset="0.00359712" stop-color="#E38DDD"/>
<stop offset="1" stop-color="#9571F6"/>
</linearGradient>
<linearGradient id="paint48_linear_0_7421" x1="160.149" y1="19.4522" x2="157.23" y2="28.6155" gradientUnits="userSpaceOnUse">
<stop offset="0.00359712" stop-color="#E38DDD"/>
<stop offset="1" stop-color="#9571F6"/>
</linearGradient>
<linearGradient id="paint49_linear_0_7421" x1="151.681" y1="18.4826" x2="138.153" y2="10.7892" gradientUnits="userSpaceOnUse">
<stop stop-color="#FFC444"/>
<stop offset="0.9964" stop-color="#F36F56"/>
</linearGradient>
<linearGradient id="paint50_linear_0_7421" x1="154.278" y1="31.1425" x2="155.054" y2="24.7858" gradientUnits="userSpaceOnUse">
<stop stop-color="#311944"/>
<stop offset="1" stop-color="#A03976"/>
</linearGradient>
<linearGradient id="paint51_linear_0_7421" x1="225.183" y1="55.7951" x2="233.793" y2="107.803" gradientUnits="userSpaceOnUse">
<stop offset="0.00359712" stop-color="#E38DDD"/>
<stop offset="1" stop-color="#9571F6"/>
</linearGradient>
<linearGradient id="paint52_linear_0_7421" x1="191.77" y1="15.6033" x2="175.487" y2="128.108" gradientUnits="userSpaceOnUse">
<stop offset="0.00359712" stop-color="#E38DDD"/>
<stop offset="1" stop-color="#9571F6"/>
</linearGradient>
<linearGradient id="paint53_linear_0_7421" x1="317.362" y1="69.9219" x2="314.095" y2="81.3059" gradientUnits="userSpaceOnUse">
<stop stop-color="#FF9085"/>
<stop offset="1" stop-color="#FB6FBB"/>
</linearGradient>
<linearGradient id="paint54_linear_0_7421" x1="317.287" y1="69.9294" x2="314.088" y2="81.3487" gradientUnits="userSpaceOnUse">
<stop stop-color="#FF9085"/>
<stop offset="1" stop-color="#FB6FBB"/>
</linearGradient>
<linearGradient id="paint55_linear_0_7421" x1="322.211" y1="76.866" x2="318.882" y2="70.3299" gradientUnits="userSpaceOnUse">
<stop offset="0.003597" stop-color="#F36F56"/>
<stop offset="1" stop-color="#FFC444"/>
</linearGradient>
<linearGradient id="paint56_linear_0_7421" x1="317.71" y1="79.5351" x2="317.481" y2="74.4983" gradientUnits="userSpaceOnUse">
<stop stop-color="#AB316D"/>
<stop offset="1" stop-color="#792D3D"/>
</linearGradient>
<linearGradient id="paint57_linear_0_7421" x1="304.811" y1="72.0029" x2="304.593" y2="86.8158" gradientUnits="userSpaceOnUse">
<stop offset="0.003597" stop-color="#F36F56"/>
<stop offset="1" stop-color="#FFC444"/>
</linearGradient>
<linearGradient id="paint58_linear_0_7421" x1="316.943" y1="74.8159" x2="312.114" y2="77.6981" gradientUnits="userSpaceOnUse">
<stop offset="0.003597" stop-color="#F36F56"/>
<stop offset="1" stop-color="#FFC444"/>
</linearGradient>
<linearGradient id="paint59_linear_0_7421" x1="293.53" y1="79.0301" x2="291.06" y2="75.1615" gradientUnits="userSpaceOnUse">
<stop offset="0.003597" stop-color="#F36F56"/>
<stop offset="1" stop-color="#FFC444"/>
</linearGradient>
<linearGradient id="paint60_linear_0_7421" x1="308.833" y1="138.243" x2="311.425" y2="129.494" gradientUnits="userSpaceOnUse">
<stop stop-color="#444B8C"/>
<stop offset="0.9964" stop-color="#26264F"/>
</linearGradient>
<linearGradient id="paint61_linear_0_7421" x1="313.036" y1="136.517" x2="315.769" y2="122.742" gradientUnits="userSpaceOnUse">
<stop stop-color="#FFC444"/>
<stop offset="0.9964" stop-color="#F36F56"/>
</linearGradient>
<linearGradient id="paint62_linear_0_7421" x1="329.105" y1="133.08" x2="328.906" y2="119.022" gradientUnits="userSpaceOnUse">
<stop stop-color="#FFC444"/>
<stop offset="0.9964" stop-color="#F36F56"/>
</linearGradient>
<linearGradient id="paint63_linear_0_7421" x1="325.598" y1="134.988" x2="328.191" y2="126.24" gradientUnits="userSpaceOnUse">
<stop stop-color="#444B8C"/>
<stop offset="0.9964" stop-color="#26264F"/>
</linearGradient>
<linearGradient id="paint64_linear_0_7421" x1="312.959" y1="115.142" x2="329.021" y2="121.664" gradientUnits="userSpaceOnUse">
<stop stop-color="#AA80F9"/>
<stop offset="0.9964" stop-color="#6165D7"/>
</linearGradient>
<linearGradient id="paint65_linear_0_7421" x1="313.178" y1="115.707" x2="328.715" y2="121.426" gradientUnits="userSpaceOnUse">
<stop stop-color="#AA80F9"/>
<stop offset="0.9964" stop-color="#6165D7"/>
</linearGradient>
<linearGradient id="paint66_linear_0_7421" x1="294.628" y1="160.632" x2="322.479" y2="160.461" gradientUnits="userSpaceOnUse">
<stop stop-color="#AA80F9"/>
<stop offset="0.9964" stop-color="#6165D7"/>
</linearGradient>
<linearGradient id="paint67_linear_0_7421" x1="291.768" y1="89.4821" x2="306.229" y2="115.345" gradientUnits="userSpaceOnUse">
<stop stop-color="#FF9085"/>
<stop offset="1" stop-color="#FB6FBB"/>
</linearGradient>
<linearGradient id="paint68_linear_0_7421" x1="287.93" y1="91.6933" x2="301.866" y2="117.797" gradientUnits="userSpaceOnUse">
<stop stop-color="#FF9085"/>
<stop offset="1" stop-color="#FB6FBB"/>
</linearGradient>
<linearGradient id="paint69_linear_0_7421" x1="265.431" y1="114.365" x2="267.154" y2="106.017" gradientUnits="userSpaceOnUse">
<stop stop-color="#FFC444"/>
<stop offset="0.9964" stop-color="#F36F56"/>
</linearGradient>
<linearGradient id="paint70_linear_0_7421" x1="258.48" y1="113.476" x2="266.094" y2="110.105" gradientUnits="userSpaceOnUse">
<stop stop-color="#FFC444"/>
<stop offset="0.9964" stop-color="#F36F56"/>
</linearGradient>
<linearGradient id="paint71_linear_0_7421" x1="259.121" y1="113.052" x2="266.168" y2="108.418" gradientUnits="userSpaceOnUse">
<stop stop-color="#FFC444"/>
<stop offset="0.9964" stop-color="#F36F56"/>
</linearGradient>
<linearGradient id="paint72_linear_0_7421" x1="230.238" y1="143.433" x2="219.008" y2="183.418" gradientUnits="userSpaceOnUse">
<stop stop-color="#FFC444"/>
<stop offset="0.9964" stop-color="#F36F56"/>
</linearGradient>
<linearGradient id="paint73_linear_0_7421" x1="247.868" y1="172.377" x2="249.617" y2="166.597" gradientUnits="userSpaceOnUse">
<stop stop-color="#AB316D"/>
<stop offset="1" stop-color="#792D3D"/>
</linearGradient>
<linearGradient id="paint74_linear_0_7421" x1="221.042" y1="168.582" x2="221.355" y2="162.47" gradientUnits="userSpaceOnUse">
<stop stop-color="#AB316D"/>
<stop offset="1" stop-color="#792D3D"/>
</linearGradient>
<linearGradient id="paint75_linear_0_7421" x1="201.986" y1="135.498" x2="190.756" y2="175.484" gradientUnits="userSpaceOnUse">
<stop stop-color="#FFC444"/>
<stop offset="0.9964" stop-color="#F36F56"/>
</linearGradient>
<linearGradient id="paint76_linear_0_7421" x1="215.561" y1="159.643" x2="255.297" y2="159.643" gradientUnits="userSpaceOnUse">
<stop stop-color="#444B8C"/>
<stop offset="0.9964" stop-color="#26264F"/>
</linearGradient>
<linearGradient id="paint77_linear_0_7421" x1="215.561" y1="159.635" x2="255.297" y2="159.635" gradientUnits="userSpaceOnUse">
<stop stop-color="#444B8C"/>
<stop offset="0.9964" stop-color="#26264F"/>
</linearGradient>
<linearGradient id="paint78_linear_0_7421" x1="238.849" y1="151.918" x2="273.936" y2="170.899" gradientUnits="userSpaceOnUse">
<stop stop-color="#444B8C"/>
<stop offset="0.9964" stop-color="#26264F"/>
</linearGradient>
<linearGradient id="paint79_linear_0_7421" x1="237.622" y1="93.5634" x2="212.23" y2="141.041" gradientUnits="userSpaceOnUse">
<stop stop-color="#AB316D"/>
<stop offset="1" stop-color="#792D3D"/>
</linearGradient>
<linearGradient id="paint80_linear_0_7421" x1="240.173" y1="100.229" x2="219.15" y2="148.254" gradientUnits="userSpaceOnUse">
<stop stop-color="#AB316D"/>
<stop offset="1" stop-color="#792D3D"/>
</linearGradient>
<linearGradient id="paint81_linear_0_7421" x1="122.63" y1="89.3136" x2="95.9944" y2="230.451" gradientUnits="userSpaceOnUse">
<stop stop-color="#AB316D"/>
<stop offset="1" stop-color="#792D3D"/>
</linearGradient>
<linearGradient id="paint82_linear_0_7421" x1="265.019" y1="110.697" x2="267.865" y2="110.061" gradientUnits="userSpaceOnUse">
<stop stop-color="#FFC444"/>
<stop offset="0.9964" stop-color="#F36F56"/>
</linearGradient>
<linearGradient id="paint83_linear_0_7421" x1="100.818" y1="134.969" x2="167.625" y2="169.489" gradientUnits="userSpaceOnUse">
<stop stop-color="#444B8C"/>
<stop offset="0.9964" stop-color="#26264F"/>
</linearGradient>
<linearGradient id="paint84_linear_0_7421" x1="98.9996" y1="27.3693" x2="-14.7978" y2="179.851" gradientUnits="userSpaceOnUse">
<stop stop-color="#FFC444"/>
<stop offset="0.9964" stop-color="#F36F56"/>
</linearGradient>
<linearGradient id="paint85_linear_0_7421" x1="157.817" y1="61.522" x2="123.783" y2="103.985" gradientUnits="userSpaceOnUse">
<stop stop-color="#FFC444"/>
<stop offset="0.9964" stop-color="#F36F56"/>
</linearGradient>
<linearGradient id="paint86_linear_0_7421" x1="59.2343" y1="52.5093" x2="112.117" y2="178.727" gradientUnits="userSpaceOnUse">
<stop stop-color="#FFC444"/>
<stop offset="0.9964" stop-color="#F36F56"/>
</linearGradient>
<linearGradient id="paint87_linear_0_7421" x1="211.763" y1="330.892" x2="317.146" y2="77.654" gradientUnits="userSpaceOnUse">
<stop offset="0.00359712" stop-color="#EBEFF2"/>
<stop offset="1" stop-color="white"/>
</linearGradient>
<linearGradient id="paint88_linear_0_7421" x1="146.719" y1="36.7602" x2="60.3412" y2="119.581" gradientUnits="userSpaceOnUse">
<stop stop-color="#FFC444"/>
<stop offset="0.9964" stop-color="#F36F56"/>
</linearGradient>
<linearGradient id="paint89_linear_0_7421" x1="70.9077" y1="98.6226" x2="137.082" y2="208.987" gradientUnits="userSpaceOnUse">
<stop stop-color="#FF9085"/>
<stop offset="1" stop-color="#FB6FBB"/>
</linearGradient>
<linearGradient id="paint90_linear_0_7421" x1="121.205" y1="265.291" x2="186.056" y2="268.025" gradientUnits="userSpaceOnUse">
<stop stop-color="#FF9085"/>
<stop offset="1" stop-color="#FB6FBB"/>
</linearGradient>
<linearGradient id="paint91_linear_0_7421" x1="49.7643" y1="105.302" x2="108.467" y2="220.019" gradientUnits="userSpaceOnUse">
<stop stop-color="#FF9085"/>
<stop offset="1" stop-color="#FB6FBB"/>
</linearGradient>
<linearGradient id="paint92_linear_0_7421" x1="64.8781" y1="169.634" x2="67.5644" y2="169.634" gradientUnits="userSpaceOnUse">
<stop stop-color="#311944"/>
<stop offset="1" stop-color="#A03976"/>
</linearGradient>
<linearGradient id="paint93_linear_0_7421" x1="58.3962" y1="153.224" x2="50.3427" y2="178.024" gradientUnits="userSpaceOnUse">
<stop stop-color="#444B8C"/>
<stop offset="0.9964" stop-color="#26264F"/>
</linearGradient>
<linearGradient id="paint94_linear_0_7421" x1="89.5563" y1="138.724" x2="61.8041" y2="134.163" gradientUnits="userSpaceOnUse">
<stop stop-color="#AB316D"/>
<stop offset="1" stop-color="#792D3D"/>
</linearGradient>
<linearGradient id="paint95_linear_0_7421" x1="16.0746" y1="144.401" x2="12.8174" y2="170.01" gradientUnits="userSpaceOnUse">
<stop stop-color="#444B8C"/>
<stop offset="0.9964" stop-color="#26264F"/>
</linearGradient>
<linearGradient id="paint96_linear_0_7421" x1="23.8654" y1="177.479" x2="27.4471" y2="177.479" gradientUnits="userSpaceOnUse">
<stop stop-color="#311944"/>
<stop offset="1" stop-color="#A03976"/>
</linearGradient>
<linearGradient id="paint97_linear_0_7421" x1="81.2698" y1="120.417" x2="94.1435" y2="116.236" gradientUnits="userSpaceOnUse">
<stop stop-color="#AB316D"/>
<stop offset="1" stop-color="#792D3D"/>
</linearGradient>
<linearGradient id="paint98_linear_0_7421" x1="88.396" y1="138.693" x2="60.7648" y2="134.743" gradientUnits="userSpaceOnUse">
<stop stop-color="#AB316D"/>
<stop offset="1" stop-color="#792D3D"/>
</linearGradient>
<linearGradient id="paint99_linear_0_7421" x1="39.5534" y1="132.798" x2="13.6539" y2="163.989" gradientUnits="userSpaceOnUse">
<stop stop-color="#AB316D"/>
<stop offset="1" stop-color="#792D3D"/>
</linearGradient>
<linearGradient id="paint100_linear_0_7421" x1="73.9436" y1="91.206" x2="64.4599" y2="113.632" gradientUnits="userSpaceOnUse">
<stop stop-color="#FFC444"/>
<stop offset="0.9964" stop-color="#F36F56"/>
</linearGradient>
<linearGradient id="paint101_linear_0_7421" x1="86.3961" y1="125.133" x2="99.2972" y2="120.807" gradientUnits="userSpaceOnUse">
<stop stop-color="#AB316D"/>
<stop offset="1" stop-color="#792D3D"/>
</linearGradient>
<linearGradient id="paint102_linear_0_7421" x1="82.3935" y1="115.826" x2="83.5971" y2="109.729" gradientUnits="userSpaceOnUse">
<stop stop-color="#311944"/>
<stop offset="1" stop-color="#A03976"/>
</linearGradient>
<linearGradient id="paint103_linear_0_7421" x1="40.4483" y1="130.018" x2="10.7725" y2="157.651" gradientUnits="userSpaceOnUse">
<stop stop-color="#AB316D"/>
<stop offset="1" stop-color="#792D3D"/>
</linearGradient>
<linearGradient id="paint104_linear_0_7421" x1="77.7655" y1="117.582" x2="83.8882" y2="112.017" gradientUnits="userSpaceOnUse">
<stop stop-color="#311944"/>
<stop offset="1" stop-color="#A03976"/>
</linearGradient>
<linearGradient id="paint105_linear_0_7421" x1="78.7619" y1="117.238" x2="83.7122" y2="110.341" gradientUnits="userSpaceOnUse">
<stop stop-color="#311944"/>
<stop offset="1" stop-color="#A03976"/>
</linearGradient>
<linearGradient id="paint106_linear_0_7421" x1="38.1212" y1="97.8205" x2="23.0153" y2="152.781" gradientUnits="userSpaceOnUse">
<stop stop-color="#FFC444"/>
<stop offset="0.9964" stop-color="#F36F56"/>
</linearGradient>
<linearGradient id="paint107_linear_0_7421" x1="37.5761" y1="97.9803" x2="22.9179" y2="152.945" gradientUnits="userSpaceOnUse">
<stop stop-color="#FFC444"/>
<stop offset="0.9964" stop-color="#F36F56"/>
</linearGradient>
</defs>
</svg>
