<svg width="307" height="301" viewBox="0 0 307 301" fill="none" xmlns="http://www.w3.org/2000/svg">
<path d="M111.189 23.2527C153.924 18.8331 160.619 -2.15526 193.183 0.304167C223.528 2.59717 257.054 23.7705 271.811 53.5055C290.617 91.4141 262.731 110.664 261.067 210.761C260.512 244.176 263.452 251.628 255.686 261.836C244.849 276.075 224.712 280.457 99.78 267.883C32.3398 261.096 20.7638 258.064 13.7554 247.042C-2.35114 221.764 32.3028 196.319 35.2615 133.465C38.3497 67.9108 3.69573 31.0933 21.1521 15.1902C35.8717 1.76503 59.8558 28.5599 111.189 23.2527Z" fill="#F4F7FA"/>
<path fill-rule="evenodd" clip-rule="evenodd" d="M140.425 116.341C137.818 121.482 131.864 123.683 127.13 121.279C126.889 121.149 126.649 121.02 126.427 120.89C124.67 123.276 122.747 125.495 120.694 127.547C120.861 127.769 121.009 127.991 121.157 128.232C123.949 132.892 122.47 139.29 117.847 142.526C113.224 145.762 107.214 144.615 104.403 139.974L104.403 139.973C104.273 139.733 104.144 139.493 104.015 139.234C101.426 140.436 98.7629 141.416 96.0446 142.193C96.0504 142.28 96.058 142.369 96.0657 142.459C96.0826 142.656 96.1001 142.859 96.1001 143.062C96.2295 148.702 91.9209 153.677 86.5212 154.157C81.1031 154.638 76.628 150.44 76.5171 144.8C76.4986 144.505 76.5171 144.209 76.5356 143.931C73.8172 143.654 71.1359 143.136 68.4731 142.396C68.3621 142.674 68.2327 142.951 68.1032 143.21C65.4959 148.351 59.5415 150.551 54.8075 148.147C50.0736 145.743 48.3353 139.641 50.9427 134.5C51.0413 134.315 51.1399 134.147 51.2386 133.978C51.2879 133.894 51.3372 133.81 51.3865 133.724C49.9464 132.579 48.58 131.369 47.2874 130.093C42.4898 132.702 33.9465 130.529 31.2672 126.105C28.475 121.445 29.9543 115.047 34.5773 111.811C34.752 111.69 34.9365 111.579 35.1166 111.47C35.1842 111.429 35.2513 111.389 35.317 111.348C34.3369 108.704 33.5787 105.967 33.0055 103.175C32.913 103.187 32.8206 103.202 32.7281 103.216C32.5432 103.245 32.3583 103.274 32.1733 103.286C26.7552 103.767 22.2801 99.569 22.1692 93.929C22.0397 88.2889 26.3484 83.3146 31.748 82.8338C32.0254 82.7968 32.2843 82.7968 32.5617 82.7968C33.0055 79.9306 33.6712 77.0828 34.5588 74.2351C34.4699 74.194 34.3785 74.1555 34.2864 74.1167C34.1294 74.0507 33.9706 73.9838 33.8191 73.9022C29.0852 71.4982 27.3469 65.3959 29.9543 60.2551C32.5617 55.1144 38.5161 52.9138 43.25 55.3178L43.2501 55.3178C43.4905 55.4472 43.7308 55.5767 43.9527 55.7246C45.7095 53.3391 47.6326 51.1201 49.6852 49.0675C49.5188 48.8456 49.3709 48.6237 49.2229 48.3833C46.4306 43.7233 47.91 37.3251 52.533 34.089C57.156 30.8529 63.1659 31.9994 65.9767 36.6409C66.1061 36.8813 66.2355 37.1217 66.365 37.3806C68.9539 36.1786 71.6167 35.1985 74.335 34.4219C74.3292 34.3349 74.3216 34.246 74.3139 34.1559C74.297 33.9589 74.2795 33.7558 74.2795 33.5527C74.1686 27.8942 78.1629 22.7719 89.9977 22.9938C94.251 23.0662 94.1468 24.9607 93.9531 28.4828C93.8992 29.4626 93.8384 30.5684 93.8625 31.796C93.881 32.0919 93.8625 32.3877 93.844 32.6651C96.5623 32.9425 99.2437 33.4603 101.907 34.2C102.017 33.9226 102.147 33.6452 102.276 33.3863C104.884 28.2455 109.618 23.6226 120.676 29.0222C125.07 31.168 122.531 36.0898 120.066 40.87C119.854 41.2803 119.643 41.6896 119.437 42.096C119.338 42.2809 119.24 42.4494 119.141 42.6178C119.092 42.7021 119.042 42.7864 118.993 42.8727C121.157 44.5924 123.154 46.4601 124.984 48.4758C125.206 48.2908 125.428 48.1059 125.669 47.9395C130.292 44.7034 136.302 45.8499 139.112 50.4914C141.905 55.1514 140.425 61.5496 135.802 64.7857C135.628 64.9066 135.443 65.0178 135.263 65.1263C135.195 65.1671 135.128 65.2075 135.063 65.248C136.043 67.8923 136.801 70.6291 137.374 73.4214C137.467 73.4091 137.559 73.3947 137.651 73.3803C137.836 73.3516 138.021 73.3228 138.206 73.3105C143.624 72.8297 148.099 77.0273 148.21 82.6674C148.34 88.3074 144.031 93.2818 138.632 93.7626C138.354 93.7996 138.095 93.7996 137.818 93.7996C137.374 96.6658 136.708 99.5136 135.821 102.361C135.91 102.402 136.001 102.441 136.093 102.48C136.25 102.546 136.409 102.613 136.56 102.694C141.294 105.098 143.033 111.2 140.425 116.341ZM45.3951 128.121C45.4575 128.189 45.5202 128.258 45.583 128.326C45.4305 128.23 45.3523 128.156 45.3951 128.121ZM53.9939 72.4598C44.5445 91.0997 50.8132 113.272 68.0293 122.018C85.2453 130.765 106.862 122.739 116.33 104.1C125.78 85.4597 119.511 63.2878 102.295 54.5411C85.0788 45.7944 63.4617 53.8199 53.9939 72.4598Z" fill="#BFC8D6"/>
<path d="M138.632 93.7626C144.031 93.2818 148.34 88.3074 148.21 82.6674C148.099 77.0273 143.624 72.8297 138.206 73.3105C137.929 73.329 137.651 73.3844 137.374 73.4214C136.801 70.6291 136.043 67.8923 135.063 65.248C135.303 65.1 135.562 64.9521 135.802 64.7857C140.425 61.5496 146.158 53.709 142.885 49.3819C136.69 41.1529 130.273 44.7034 125.65 47.958C125.41 48.1244 125.188 48.3093 124.966 48.4942C123.135 46.4786 121.138 44.6109 118.975 42.8912C119.123 42.6323 119.27 42.3919 119.418 42.1145C120.842 39.3222 120.953 36.2341 120.029 33.6267C115.554 41.4858 111.153 49.3819 106.825 57.3334C120.546 67.393 124.929 87.2164 116.349 104.118C109.081 118.449 94.6207 126.493 80.5113 125.476C79.8826 127.104 79.2724 128.749 78.5882 130.377C76.7575 134.759 74.6864 139.068 72.5968 143.358C73.9097 143.598 75.2226 143.802 76.5356 143.931C76.5171 144.209 76.4986 144.505 76.5171 144.8C76.628 150.44 80.0675 155.248 89.8683 154.731C95.2864 154.435 96.2295 148.702 96.1001 143.062C96.1001 142.766 96.0631 142.47 96.0446 142.193C98.7629 141.416 101.426 140.436 104.015 139.234C104.144 139.493 104.274 139.734 104.421 139.974C107.232 144.615 116.94 146.594 121.563 143.358C126.186 140.122 123.967 132.892 121.175 128.232C121.027 127.991 120.879 127.769 120.713 127.547C122.765 125.495 124.689 123.276 126.445 120.89C126.667 121.038 126.908 121.168 127.148 121.297C131.882 123.701 137.836 121.501 140.444 116.36C143.051 111.219 141.313 105.117 136.579 102.713C136.339 102.583 136.08 102.491 135.839 102.38C136.727 99.5321 137.393 96.6843 137.836 93.818C138.077 93.7995 138.354 93.7811 138.632 93.7626Z" fill="#BFC8D6"/>
<path fill-rule="evenodd" clip-rule="evenodd" d="M145.511 116.914C142.903 122.055 136.949 124.256 132.215 121.852C131.974 121.741 131.753 121.593 131.531 121.445L131.531 121.445C129.774 123.83 127.851 126.05 125.798 128.102C125.965 128.324 126.113 128.546 126.26 128.786C129.053 133.446 127.573 139.845 122.95 143.081C118.327 146.317 112.317 145.17 109.507 140.529C109.359 140.288 109.229 140.048 109.1 139.789C106.511 140.991 103.848 141.971 101.13 142.748C101.136 142.835 101.143 142.924 101.151 143.014C101.168 143.211 101.185 143.414 101.185 143.617C101.315 149.257 97.0061 154.231 91.6065 154.712C86.1884 155.193 81.7133 150.995 81.6023 145.355C81.5839 145.059 81.6023 144.763 81.6208 144.486C78.9025 144.209 76.2212 143.691 73.5583 142.951C73.4474 143.229 73.318 143.506 73.1885 143.765C70.5811 148.906 64.6267 151.106 59.8928 148.702C55.1588 146.298 53.4206 140.196 56.028 135.055C56.1266 134.87 56.2252 134.702 56.3238 134.533C56.3731 134.449 56.4225 134.365 56.4718 134.278C54.3082 132.559 52.3111 130.691 50.4804 128.675C50.2585 128.86 50.0366 129.045 49.7962 129.212C45.1732 132.448 39.1633 131.301 36.3525 126.66C33.5602 122 35.0396 115.602 39.6626 112.365C39.8373 112.245 40.0218 112.133 40.2018 112.025C40.2695 111.984 40.3366 111.944 40.4023 111.903C39.4222 109.259 38.664 106.522 38.0908 103.73C37.9983 103.742 37.9059 103.756 37.8135 103.771C37.6285 103.8 37.4436 103.828 37.2586 103.841C31.8405 104.321 27.3654 100.124 27.2545 94.4837C27.125 88.8437 31.4337 83.8693 36.8333 83.3886C37.1107 83.3516 37.3696 83.3516 37.647 83.3516C38.0908 80.4853 38.7565 77.6376 39.6441 74.7898C39.5552 74.7488 39.4637 74.7103 39.3716 74.6715C39.2147 74.6054 39.0559 74.5385 38.9044 74.4569C34.1705 72.053 32.4322 65.9506 35.0396 60.8099C37.647 55.6691 43.6014 53.4686 48.3353 55.8725L48.3354 55.8725C48.5757 56.002 48.8161 56.1314 49.038 56.2793C50.7947 53.8939 52.7179 51.6748 54.7705 49.6222C54.6041 49.4003 54.4562 49.1784 54.3082 48.938C51.5159 44.2781 52.9953 37.8798 57.6183 34.6437C62.2413 31.4077 68.2512 32.5542 71.0619 37.1956C71.1914 37.436 71.3208 37.6764 71.4503 37.9353C74.0391 36.7333 76.702 35.7533 79.4203 34.9766C79.4145 34.8896 79.4069 34.8008 79.3992 34.7107C79.3822 34.5136 79.3648 34.3105 79.3648 34.1075C79.2354 28.4674 83.544 23.4931 88.9437 23.0123C94.3618 22.5315 98.8369 26.7292 98.9478 32.3692C98.9663 32.6651 98.9478 32.961 98.9293 33.2384C101.648 33.5157 104.329 34.0335 106.992 34.7732C107.103 34.4958 107.232 34.2184 107.362 33.9595C109.969 28.8188 115.923 26.6182 120.657 29.0222C125.391 31.4261 127.13 37.5285 124.522 42.6693C124.424 42.8541 124.325 43.0226 124.226 43.1911C124.177 43.2753 124.128 43.3596 124.078 43.4459C126.242 45.1657 128.239 47.0334 130.07 49.049C130.292 48.8641 130.514 48.6791 130.754 48.5127C135.377 45.2766 141.387 46.4231 144.198 51.0646C146.99 55.7246 145.511 62.1228 140.888 65.3589C140.713 65.4798 140.528 65.591 140.348 65.6995C140.281 65.7403 140.214 65.7808 140.148 65.8212C141.128 68.4655 141.886 71.2024 142.459 73.9946C142.552 73.9823 142.644 73.9679 142.737 73.9535C142.922 73.9248 143.107 73.896 143.292 73.8837C148.71 73.4029 153.185 77.6006 153.296 83.2406C153.425 88.8807 149.117 93.855 143.717 94.3358C143.439 94.3728 143.181 94.3728 142.903 94.3728C142.459 97.239 141.794 100.087 140.906 102.935C140.995 102.976 141.086 103.014 141.179 103.053C141.335 103.119 141.494 103.186 141.646 103.267C146.38 105.671 148.118 111.774 145.511 116.914ZM59.0976 73.0515C49.6482 91.6914 55.917 113.863 73.133 122.61C90.349 131.338 111.966 123.313 121.434 104.691C130.883 86.0514 124.615 63.8795 107.399 55.1328C90.1826 46.3861 68.5655 54.4117 59.0976 73.0515Z" fill="#D8DEE8"/>
<path d="M227.038 196.756C221.213 196.886 217.829 201.416 215.887 205.059C216.165 205.559 216.183 205.892 216.35 206.446C217.811 211.439 219.493 213.251 221.694 217.948C222.175 218.965 224.468 221.499 225.466 222.479L227.371 224.273C227.371 224.273 240.63 222.312 240.352 214.694C240.075 207.075 252.427 203.617 258.752 200.973C262.635 199.345 263.893 197.367 265.224 196.553C279.315 187.825 285.99 189.877 288.82 184.237C291.945 178.006 284.714 173.716 287.766 166.744C291.205 158.885 302.763 159.07 304.353 150.896C304.63 149.491 304.871 148.049 304.464 146.181C303.484 141.576 299.434 139.616 301.154 135.012C304.63 125.784 301.838 115.188 291.871 113.191C282.033 111.231 272.232 124.934 270.587 147.198C267.628 162.898 265.002 164.47 257.92 167.058C252.945 168.871 238.3 170.461 237.172 179.614C236.044 188.768 233.695 196.59 227.038 196.756Z" fill="url(#paint0_linear_0_10041)"/>
<g opacity="0.5">
<path d="M220.215 215.692L220.436 216.007C222.156 214.786 223.894 213.547 225.559 212.29C237.967 203.062 248.97 192.91 258.308 182.129C266.204 172.994 273.009 163.286 278.52 153.282C282.958 145.219 286.582 136.935 289.282 128.614C291.187 122.77 292.629 116.982 293.572 111.416C293.739 110.436 293.849 109.437 293.96 108.457C294.108 107.163 294.256 105.813 294.534 104.556L294.182 104.445C293.905 105.721 293.757 107.07 293.609 108.383C293.498 109.345 293.387 110.362 293.221 111.324C292.278 116.871 290.835 122.641 288.949 128.466C286.249 136.75 282.625 145.035 278.205 153.06C272.713 163.064 265.927 172.735 258.031 181.852C248.729 192.614 237.726 202.729 225.337 211.957C223.673 213.233 221.953 214.472 220.215 215.692Z" fill="#FCFDFE"/>
<path d="M270.975 164.95L271.271 165.191C280.128 152.746 305.721 146.31 305.98 146.236L305.869 145.867C305.629 145.941 279.925 152.394 270.975 164.95Z" fill="#FCFDFE"/>
<path d="M243.015 197.348L243.292 197.607C250.338 189.933 247.453 169.019 247.416 168.815L247.046 168.834C247.083 169.037 249.95 189.785 243.015 197.348Z" fill="#FCFDFE"/>
<path d="M238.614 201.306L238.836 201.62C244.31 197.589 254.11 195.222 266.426 194.981C267.055 194.963 267.055 194.963 267.092 194.926L266.87 194.611L266.981 194.759L266.925 194.574C266.888 194.574 266.648 194.593 266.37 194.593C253.999 194.852 244.125 197.237 238.614 201.306Z" fill="#FCFDFE"/>
<path d="M223.34 213.418L223.636 213.658C228.018 207.556 224.764 196.183 224.727 196.054L224.375 196.128C224.412 196.257 227.63 207.463 223.34 213.418Z" fill="#FCFDFE"/>
<path d="M220.473 216.21C226.409 214.749 233.066 214.99 240.852 216.987L240.907 216.635C233.066 214.638 226.335 214.379 220.344 215.859L220.473 216.21Z" fill="#FCFDFE"/>
<path d="M287.266 133.348L287.581 133.569C292.111 126.339 298.602 119.941 300.729 117.833C301.246 117.315 301.431 117.149 301.468 117.075L301.172 116.853C301.135 116.908 300.839 117.204 300.47 117.574C298.325 119.664 291.815 126.08 287.266 133.348Z" fill="#FCFDFE"/>
<path d="M281.7 146.347L282.052 146.458C284.049 138.544 275.579 123.676 275.21 123.048L274.895 123.214C274.988 123.38 283.66 138.581 281.7 146.347Z" fill="#FCFDFE"/>
</g>
<path d="M219.197 187.233C220.141 188.158 214.131 199.586 223.321 197.256C225.614 196.683 232.179 192.91 238.448 200.363C239.668 201.805 240.87 203.247 242.09 204.69C246.436 203.358 250.264 201.306 248.026 195.795C244.531 187.233 256.218 178.098 261.914 176.841C268.959 175.306 285.251 171.367 280.073 158.053C275.746 146.976 270.753 140.578 281.349 131.535C291.945 122.493 293.905 110.917 285.029 100.894C275.672 90.3538 282.662 70.5859 270.864 65.0938C250.301 55.5335 237.079 88.3752 245.012 112.969C252.964 137.564 237.726 131.554 228.259 137.934C227.408 138.581 226.15 139.635 224.893 141.17C217.182 150.601 223.21 161.64 221.01 174.64C217.977 192.355 217.607 185.661 219.197 187.233Z" fill="url(#paint1_linear_0_10041)"/>
<g opacity="0.5">
<path d="M232.308 190.414L232.808 190.858C262.58 156.019 274.433 105.906 263.763 60.0455L263.134 60.1564C273.767 105.813 261.951 155.741 232.308 190.414Z" fill="#FCFDFE"/>
<path d="M246.824 169.943L247.231 170.461C261.544 159.514 282.791 163.804 282.995 163.841L283.087 163.212C282.884 163.175 261.359 158.83 246.824 169.943Z" fill="#FCFDFE"/>
<path d="M237.597 183.849L238.189 184.127C245.29 167.151 225.374 138.174 225.17 137.897L224.653 138.248C224.856 138.525 244.55 167.206 237.597 183.849Z" fill="#FCFDFE"/>
<path d="M263.245 127.726L263.819 128.059C270.605 115.188 292.537 109.974 292.74 109.918L292.555 109.29C292.352 109.327 270.161 114.615 263.245 127.726Z" fill="#FCFDFE"/>
<path d="M266.962 98.2314L267.609 98.1759C265.279 81.2372 247.213 66.0184 247.028 65.8704L246.64 66.3512C246.806 66.5176 264.669 81.5516 266.962 98.2314Z" fill="#FCFDFE"/>
</g>
<path d="M116.238 236.539V246.081H116.256C116.848 251.85 140.943 262.428 175.948 262.613C227.411 262.908 244.794 251.406 245.608 245.526H245.626V236.724L116.238 236.539Z" fill="url(#paint2_linear_0_10041)"/>
<path d="M245.608 236.779C245.608 242.715 215.909 247.394 179.869 247.246C144.475 247.098 116.238 242.327 116.238 236.576C116.238 230.825 144.475 226.146 179.869 226.109C215.928 226.072 245.608 230.843 245.608 236.779Z" fill="url(#paint3_linear_0_10041)"/>
<path d="M245.108 236.058C245.108 241.939 215.632 246.617 179.869 246.469C144.715 246.34 116.682 241.606 116.682 235.892C116.682 230.196 144.734 225.518 179.869 225.481C215.651 225.425 245.108 230.159 245.108 236.058Z" fill="url(#paint4_linear_0_10041)"/>
<path d="M245.608 245.545V236.742L116.238 236.539V246.081L245.608 245.545Z" fill="url(#paint5_linear_0_10041)"/>
<path d="M245.608 236.779C245.608 242.715 215.909 247.394 179.869 247.246C144.475 247.098 116.238 242.327 116.238 236.576C116.238 230.825 144.475 226.146 179.869 226.109C215.928 226.072 245.608 230.843 245.608 236.779Z" fill="url(#paint6_linear_0_10041)"/>
<path d="M245.108 236.058C245.108 241.939 215.632 246.617 179.869 246.469C144.715 246.34 116.682 241.606 116.682 235.892C116.682 230.196 144.734 225.518 179.869 225.481C215.651 225.425 245.108 230.159 245.108 236.058Z" fill="url(#paint7_linear_0_10041)"/>
<path d="M116.238 218.454V227.996H116.256C116.848 233.765 140.943 243.843 175.948 243.658C231.406 243.381 244.794 233.34 245.608 227.441H245.626V218.639L116.238 218.454Z" fill="url(#paint8_linear_0_10041)"/>
<path d="M245.608 218.694C245.608 224.63 215.909 229.309 179.869 229.161C144.475 229.013 116.238 224.242 116.238 218.491C116.238 212.74 144.475 208.061 179.869 208.024C215.928 207.969 245.608 212.758 245.608 218.694Z" fill="url(#paint9_linear_0_10041)"/>
<path d="M245.108 217.973C245.108 223.853 215.632 228.532 179.869 228.384C144.715 228.255 116.682 223.521 116.682 217.807C116.682 212.093 144.734 207.433 179.869 207.396C215.651 207.34 245.108 212.074 245.108 217.973Z" fill="url(#paint10_linear_0_10041)"/>
<path d="M245.608 227.441V218.657L116.238 218.454V227.996L245.608 227.441Z" fill="url(#paint11_linear_0_10041)"/>
<path d="M245.608 218.694C245.608 224.63 215.909 229.309 179.869 229.161C144.475 229.013 116.238 224.242 116.238 218.491C116.238 212.74 144.475 208.061 179.869 208.024C215.928 207.969 245.608 212.758 245.608 218.694Z" fill="url(#paint12_linear_0_10041)"/>
<path d="M245.108 217.973C245.108 223.853 215.632 228.532 179.869 228.384C144.715 228.255 116.682 223.521 116.682 217.807C116.682 212.093 144.734 207.433 179.869 207.396C215.651 207.34 245.108 212.074 245.108 217.973Z" fill="url(#paint13_linear_0_10041)"/>
<path d="M116.238 200.313V209.855H116.256C116.848 215.625 140.943 225.703 175.948 225.518C231.406 225.24 244.794 215.199 245.608 209.3H245.626V200.498L116.238 200.313Z" fill="url(#paint14_linear_0_10041)"/>
<path d="M245.608 200.554C245.608 206.489 215.909 211.168 179.869 211.02C144.475 210.872 116.238 206.101 116.238 200.35C116.238 194.599 144.475 189.921 179.869 189.884C215.928 189.847 245.608 194.618 245.608 200.554Z" fill="url(#paint15_linear_0_10041)"/>
<path d="M245.108 199.832C245.108 205.713 215.632 210.391 179.869 210.243C144.715 210.114 116.682 205.38 116.682 199.666C116.682 193.952 144.734 189.292 179.869 189.255C215.651 189.2 245.108 193.933 245.108 199.832Z" fill="url(#paint16_linear_0_10041)"/>
<path d="M245.608 209.319V200.517L116.238 200.313V209.855L245.608 209.319Z" fill="url(#paint17_linear_0_10041)"/>
<path d="M245.608 200.554C245.608 206.489 215.909 211.168 179.869 211.02C144.475 210.872 116.238 206.101 116.238 200.35C116.238 194.599 144.475 189.921 179.869 189.884C215.928 189.847 245.608 194.618 245.608 200.554Z" fill="url(#paint18_linear_0_10041)"/>
<path d="M245.108 199.832C245.108 205.713 215.632 210.391 179.869 210.243C144.715 210.114 116.682 205.38 116.682 199.666C116.682 193.952 144.734 189.292 179.869 189.255C215.651 189.2 245.108 193.933 245.108 199.832Z" fill="url(#paint19_linear_0_10041)"/>
<path d="M116.238 182.173V191.714H116.256C116.848 197.484 140.943 207.562 175.948 207.377C231.406 207.1 244.794 197.059 245.608 191.16H245.626V182.358L116.238 182.173Z" fill="url(#paint20_linear_0_10041)"/>
<path d="M245.608 182.413C245.608 188.349 215.909 193.027 179.869 192.879C144.475 192.732 116.238 187.961 116.238 182.21C116.238 176.459 144.475 171.78 179.869 171.743C215.928 171.706 245.608 176.477 245.608 182.413Z" fill="url(#paint21_linear_0_10041)"/>
<path d="M245.108 181.692C245.108 187.572 215.632 192.251 179.869 192.103C144.715 191.973 116.682 187.239 116.682 181.525C116.682 175.811 144.734 171.151 179.869 171.114C215.651 171.059 245.108 175.793 245.108 181.692Z" fill="url(#paint22_linear_0_10041)"/>
<path d="M245.608 191.178V182.376L116.238 182.173V191.714L245.608 191.178Z" fill="url(#paint23_linear_0_10041)"/>
<path d="M245.608 182.413C245.608 188.349 215.909 193.027 179.869 192.879C144.475 192.732 116.238 187.961 116.238 182.21C116.238 176.459 144.475 171.78 179.869 171.743C215.928 171.706 245.608 176.477 245.608 182.413Z" fill="url(#paint24_linear_0_10041)"/>
<path d="M245.108 181.692C245.108 187.572 215.632 192.251 179.869 192.103C144.715 191.973 116.682 187.239 116.682 181.525C116.682 175.811 144.734 171.151 179.869 171.114C215.651 171.059 245.108 175.793 245.108 181.692Z" fill="url(#paint25_linear_0_10041)"/>
<path d="M116.238 164.032V173.574H116.256C116.848 179.343 140.943 189.421 175.948 189.237C231.406 188.959 244.794 178.918 245.608 173.019H245.626V164.217L116.238 164.032Z" fill="url(#paint26_linear_0_10041)"/>
<path d="M245.608 164.272C245.608 170.208 215.909 174.887 179.869 174.739C144.475 174.591 116.238 169.82 116.238 164.069C116.238 158.318 144.475 153.64 179.869 153.603C215.928 153.566 245.608 158.337 245.608 164.272Z" fill="url(#paint27_linear_0_10041)"/>
<path d="M245.108 163.551C245.108 169.432 215.632 174.11 179.869 173.962C144.715 173.833 116.682 169.099 116.682 163.385C116.682 157.689 144.734 153.011 179.869 152.974C215.651 152.937 245.108 157.671 245.108 163.551Z" fill="url(#paint28_linear_0_10041)"/>
<path d="M245.608 173.038V164.235L116.238 164.032V173.592L245.608 173.038Z" fill="url(#paint29_linear_0_10041)"/>
<path d="M245.608 164.272C245.608 170.208 215.909 174.887 179.869 174.739C144.475 174.591 116.238 169.82 116.238 164.069C116.238 158.318 144.475 153.64 179.869 153.603C215.928 153.566 245.608 158.337 245.608 164.272Z" fill="url(#paint30_linear_0_10041)"/>
<path d="M245.108 163.551C245.108 169.432 215.632 174.11 179.869 173.962C144.715 173.833 116.682 169.099 116.682 163.385C116.682 157.689 144.734 153.011 179.869 152.974C215.651 152.937 245.108 157.671 245.108 163.551Z" fill="url(#paint31_linear_0_10041)"/>
<path d="M116.238 145.91V155.452H116.256C116.848 161.221 140.943 171.299 175.948 171.114C231.406 170.837 244.794 160.796 245.608 154.897H245.626V146.095L116.238 145.91Z" fill="url(#paint32_linear_0_10041)"/>
<path d="M245.608 146.132C245.608 152.068 215.909 156.746 179.869 156.598C144.475 156.45 116.238 151.679 116.238 145.928C116.238 140.177 144.475 135.499 179.869 135.462C215.928 135.425 245.608 140.196 245.608 146.132Z" fill="url(#paint33_linear_0_10041)"/>
<path d="M245.108 145.411C245.108 151.291 215.632 155.969 179.869 155.822C144.715 155.692 116.682 150.958 116.682 145.244C116.682 139.549 144.734 134.87 179.869 134.833C215.651 134.796 245.108 139.53 245.108 145.411Z" fill="url(#paint34_linear_0_10041)"/>
<path d="M245.608 154.897V146.095L116.238 145.91V155.452L245.608 154.897Z" fill="url(#paint35_linear_0_10041)"/>
<path d="M245.608 146.132C245.608 152.068 215.909 156.746 179.869 156.598C144.475 156.45 116.238 151.679 116.238 145.928C116.238 140.177 144.475 135.499 179.869 135.462C215.928 135.425 245.608 140.196 245.608 146.132Z" fill="url(#paint36_linear_0_10041)"/>
<path d="M245.108 145.411C245.108 151.291 215.632 155.969 179.869 155.822C144.715 155.692 116.682 150.958 116.682 145.244C116.682 139.549 144.734 134.87 179.869 134.833C215.651 134.796 245.108 139.53 245.108 145.411Z" fill="url(#paint37_linear_0_10041)"/>
<path d="M116.238 127.769V137.311H116.256C116.848 143.081 140.943 153.159 175.948 152.974C231.406 152.696 244.794 142.655 245.608 136.756H245.626V127.954L116.238 127.769Z" fill="url(#paint38_linear_0_10041)"/>
<path d="M245.608 128.01C245.608 133.946 215.909 138.624 179.869 138.476C144.475 138.328 116.238 133.557 116.238 127.806C116.238 122.055 144.475 117.377 179.869 117.34C215.928 117.284 245.608 122.074 245.608 128.01Z" fill="url(#paint39_linear_0_10041)"/>
<path d="M245.108 127.288C245.108 133.169 215.632 137.847 179.869 137.699C144.715 137.57 116.682 132.836 116.682 127.122C116.682 121.408 144.734 116.748 179.869 116.711C215.651 116.656 245.108 121.39 245.108 127.288Z" fill="url(#paint40_linear_0_10041)"/>
<path d="M245.608 136.756V127.973L116.238 127.769V137.311L245.608 136.756Z" fill="url(#paint41_linear_0_10041)"/>
<path d="M245.608 128.01C245.608 133.946 215.909 138.624 179.869 138.476C144.475 138.328 116.238 133.557 116.238 127.806C116.238 122.055 144.475 117.377 179.869 117.34C215.928 117.284 245.608 122.074 245.608 128.01Z" fill="url(#paint42_linear_0_10041)"/>
<path d="M245.108 127.288C245.108 133.169 215.632 137.847 179.869 137.699C144.715 137.57 116.682 132.836 116.682 127.122C116.682 121.408 144.734 116.748 179.869 116.711C215.651 116.656 245.108 121.39 245.108 127.288Z" fill="url(#paint43_linear_0_10041)"/>
<path opacity="0.62" d="M263.563 9.47621C263.563 6.59146 226.561 4.24298 180.923 4.24298C135.285 4.24298 98.2821 6.57297 98.2821 9.47621C98.2821 9.58716 98.3376 9.69811 98.4485 9.80906L144.475 126.956C144.475 129.84 160.803 132.189 180.923 132.189C201.06 132.189 217.37 129.859 217.37 126.956L263.397 9.80906C263.508 9.69811 263.563 9.58716 263.563 9.47621Z" fill="white" fill-opacity="0.5"/>
<path d="M182.328 129.544C179.85 129.618 177.428 128.99 175.32 127.732C168.921 123.904 159.491 117.58 150.984 109.296C140.203 98.7924 134.009 88.104 132.659 77.6191L132.64 77.4526L132.381 32.7021C132.381 23.8629 138.151 16.6695 148.987 11.9541C157.937 8.0523 169.791 6.12913 182.328 6.48048C194.718 6.83183 206.164 9.40221 214.652 13.6554C224.73 18.7222 230.019 25.8231 230.019 34.2554L229.778 77.0088L229.76 77.1752C228.521 87.2164 222.825 97.6089 212.747 108.094C204.666 116.508 195.55 123.183 189.281 127.325C187.21 128.712 184.806 129.471 182.328 129.544Z" fill="url(#paint44_linear_0_10041)"/>
<path d="M184.788 129.544C182.347 129.618 179.943 128.99 177.872 127.732C171.566 123.904 162.246 117.58 153.869 109.296C143.236 98.7924 137.115 88.104 135.784 77.6191L135.765 77.4526L135.506 32.7021C135.506 23.8629 141.202 16.6695 151.89 11.9541C160.729 8.0523 172.416 6.12913 184.788 6.48048C197.011 6.83183 208.309 9.40221 216.686 13.6554C226.635 18.7222 231.85 25.8231 231.85 34.2554L231.609 77.0088L231.591 77.1752C230.37 87.2164 224.749 97.6089 214.8 108.094C206.83 116.508 197.824 123.183 191.63 127.325C189.614 128.712 187.228 129.471 184.788 129.544Z" fill="url(#paint45_linear_0_10041)"/>
<path d="M138.465 32.7206L138.724 77.2492C141.664 99.9758 168.348 118.357 179.98 125.347C183.308 127.344 187.561 127.233 190.871 125.051C202.262 117.562 227.504 98.6999 230.185 76.8609L230.426 34.2184C230.444 2.57866 138.465 -0.306087 138.465 32.7206Z" fill="url(#paint46_linear_0_10041)"/>
<path d="M185.453 118.486C185.231 118.486 184.917 118.449 184.584 118.264C179.795 115.361 170.512 109.296 162.431 101.363C153.703 92.8009 148.673 84.4611 147.526 76.639L147.267 32.85C147.286 28.6523 150.596 25.0464 157.124 22.1801C164.409 18.9625 174.746 17.2798 185.435 17.5386C196.031 17.7975 206.053 19.9241 213.006 23.3636C219.164 26.4148 222.271 30.0207 222.271 34.0705L222.03 76.3431C220.958 83.9063 216.224 92.0797 207.939 100.66C200.154 108.723 191.038 115.121 186.285 118.227C185.989 118.431 185.675 118.486 185.453 118.486Z" fill="url(#paint47_linear_0_10041)"/>
<path d="M184.362 115.491C179.536 112.513 170.937 106.762 163.429 99.3841C155.237 91.3216 150.485 83.5734 149.375 76.417L149.117 32.887C149.117 29.8913 151.89 27.136 157.308 24.732C164.206 21.6808 174.081 20.072 184.362 20.2939C194.551 20.5158 204.149 22.5315 210.75 25.8045C215.872 28.3379 218.461 31.1117 218.48 34.0335L218.239 76.1582C217.185 83.1111 212.71 90.7113 204.888 98.7923C197.621 106.282 189.17 112.328 184.362 115.491Z" fill="url(#paint48_linear_0_10041)"/>
<path d="M201.671 58.4984L169.106 58.7942C166.61 58.8127 164.557 60.7729 164.557 63.1583V84.0173C164.557 86.3842 166.591 88.215 169.088 88.1225L201.541 86.7911C203.853 86.6986 205.72 84.7939 205.739 82.5194L205.85 62.5851C205.831 60.3106 203.982 58.4799 201.671 58.4984Z" fill="white"/>
<path d="M201.208 56.4273C200.228 56.4273 199.433 55.6506 199.452 54.689L199.47 50.14C199.489 45.5725 195.716 41.8186 191.019 41.7817L180.386 41.6707C175.523 41.6152 171.51 45.4246 171.51 50.1215V54.8185C171.51 55.8171 170.66 56.6307 169.624 56.6307C168.57 56.6307 167.719 55.8355 167.719 54.837V50.1215C167.719 43.3905 173.452 37.9908 180.405 38.0833L191.038 38.2312C197.713 38.3237 203.058 43.6678 203.021 50.14L203.002 54.6706C202.965 55.6321 202.188 56.4273 201.208 56.4273Z" fill="white"/>
<path d="M189.836 70.4627C189.836 68.1512 187.857 66.339 185.453 66.4869C183.308 66.6164 181.533 68.3546 181.422 70.4257C181.33 72.0345 182.199 73.4214 183.53 74.1241C184.085 74.42 184.362 75.0487 184.251 75.6774L183.308 80.9476C183.197 81.6133 183.715 82.2051 184.418 82.1866L186.803 82.0941C187.506 82.0756 188.024 81.4469 187.913 80.7812L187.007 75.5665C186.896 74.9377 187.21 74.3275 187.783 73.9946C189.004 73.255 189.836 71.942 189.836 70.4627Z" fill="url(#paint49_linear_0_10041)"/>
<path opacity="0.5" d="M109.581 6.12915C116.922 27.1175 149.301 105.819 157.993 131.005C163.281 131.616 169.809 132.022 176.965 132.133L155.237 4.74225C137.651 4.90868 121.841 5.40796 109.581 6.12915Z" fill="white" fill-opacity="0.6"/>
<path opacity="0.5" d="M225.303 5.9812C222.123 27.2654 207.551 106.577 203.686 131.024C207.828 130.543 211.231 129.951 213.598 129.267C220.089 104.728 239.265 29.0962 245.108 6.9058C239.283 6.53596 232.626 6.2216 225.303 5.9812Z" fill="white" fill-opacity="0.7"/>
<path d="M96.528 133.129C105.7 135.903 117.442 146.702 123.563 152.62C137.71 166.267 164.283 212.312 148.805 228.751C138.264 239.939 119.772 235.242 111.599 223.962C105.589 215.659 109.232 208.114 110.489 193.191C111.876 177.103 106.107 149.014 96.528 133.129Z" fill="url(#paint50_linear_0_10041)"/>
<path d="M104.258 137.567C110.582 145.075 112.801 144.446 117.72 154.783C125.135 170.353 119.68 188.161 118.903 207.337C118.053 228.381 118.885 267.547 129.462 287.796C129.647 288.147 129.74 288.221 129.721 288.757C129.388 310.227 27.9968 295.193 28.1633 287.352C28.9584 248.427 54.3109 163.197 48.0236 135.015C50.8714 134.96 56.5114 131.983 58.8044 131.354C68.6607 128.599 77.5368 128.136 86.8567 129.394C90.2593 129.856 91.979 130.633 94.4569 131.594C98.5252 133.129 101.133 135.441 104.258 137.567Z" fill="url(#paint51_linear_0_10041)"/>
<path d="M68.1799 107.906C68.3093 114.434 66.1642 123.846 65.3321 129.708C64.4815 135.57 76.4643 135.81 80.3846 133.092C83.972 130.596 81.2722 123.828 77.8142 120.277C74.3192 116.727 71.7118 111.531 68.1799 107.906Z" fill="url(#paint52_linear_0_10041)"/>
<path d="M86.191 105.853C91.7016 100.99 92.7187 83.7001 87.1341 80.3161C84.4158 78.6703 79.7004 87.1951 76.6122 88.8409C72.4885 91.0414 61.2639 93.5009 59.0448 97.9389C57.3621 101.286 60.7276 108.202 62.096 110.68C63.6308 113.472 63.7973 112.529 65.6465 114.508C68.1984 117.263 71.5824 120.499 74.1713 123.587C74.726 121.239 74.5781 121.239 75.5767 118.206C75.965 117.041 78.9977 112.104 80.477 110.199C81.4016 108.979 85.5068 106.445 86.191 105.853Z" fill="url(#paint53_linear_0_10041)"/>
<path d="M68.4942 119.297C72.7474 123.217 74.8185 128.007 82.5111 126.565C89.4086 125.289 90.5551 108.073 84.2864 102.987C82.1968 101.286 79.1456 101.305 76.5382 102.081C75.0034 102.543 73.3946 103.561 71.8598 104.152C70.4359 104.689 69.2524 104.041 67.958 105.465C66.3307 107.259 67.4402 111.845 68.3648 114.045C67.6436 113.417 66.8484 112.548 65.9238 112.252C65.2581 112.048 64.1301 110.957 63.5014 111.9C62.4843 113.454 64.6849 116.394 65.9793 117.596C66.5711 118.169 67.773 118.853 68.4942 119.297Z" fill="url(#paint54_linear_0_10041)"/>
<path d="M67.4587 104.374C68.4018 104.91 66.719 106.667 66.9779 108.387C67.4587 111.734 68.5312 117.781 73.4316 118.373C76.3163 118.724 79.349 116.135 82.3817 115.821C84.2494 115.636 86.3205 115.728 88.1882 116.227C89.3901 119.833 89.4456 125.51 86.3205 127.748C82.9549 130.152 80.7359 128.894 77.167 127.877C74.7815 127.193 72.1371 125.122 70.6208 122.774C69.049 120.333 67.9025 117.762 66.3492 115.192C65.4985 113.768 64.4445 111.993 63.4459 110.495C63.1685 110.088 62.7432 109.441 62.5583 108.905C63.3535 108.128 66.1088 103.579 67.4587 104.374Z" fill="url(#paint55_linear_0_10041)"/>
<path d="M84.3788 118.705C82.9549 119.501 81.2907 119.501 79.7373 119.519C79.6634 119.519 79.3305 119.39 79.46 119.667C79.9407 120.721 82.0303 121.091 83.1029 120.777C83.861 120.555 85.137 119.63 84.9891 118.816C84.9336 118.484 84.5268 118.779 84.3788 118.705Z" fill="url(#paint56_linear_0_10041)"/>
<path opacity="0.3" d="M95.3631 261.648C98.0814 258.579 102.408 253.678 102.667 246.855C103.333 229.306 76.1869 222.482 77.2594 208.207C78.0916 197.111 94.6973 198.369 104.147 178.656C105.774 175.272 111.71 162.42 107.401 147.867C105.682 142.061 102.852 137.752 100.744 135.052C101.909 135.866 103.037 136.717 104.258 137.549C110.582 145.056 112.801 144.428 117.72 154.765C125.135 170.335 119.68 188.143 118.903 207.319C118.053 228.363 118.885 267.529 129.462 287.777C129.647 288.129 129.777 288.351 129.721 288.739C127.354 310.079 27.9968 295.174 28.1633 287.334C28.2557 282.637 28.718 277.274 29.4207 271.412C32.9712 272.392 75.8725 283.654 95.3631 261.648Z" fill="url(#paint57_linear_0_10041)"/>
<path d="M123.841 194.264C129.388 193.986 125.56 190.639 127.243 191.12C128.297 191.434 154.038 216.731 145.92 230.083C138.19 242.824 106.051 234.188 94.7343 230.138C88.4471 227.9 69.7517 220.948 58.3976 202.862C57.3806 201.235 56.6224 199.83 56.1046 198.868C80.9023 195.614 92.7927 194.837 99.006 194.8C103 194.781 107.031 195.096 123.841 194.264Z" fill="url(#paint58_linear_0_10041)"/>
<path d="M114.465 191.693C113.763 197.278 110.878 214.531 96.3061 228.659C93.4029 231.469 73.7644 249.887 46.2114 245.246C24.6868 241.622 5.5291 225.127 1.09103 204.545C-7.56321 164.344 43.8075 128.876 55.6053 134.96C63.5199 139.047 65.7759 168.116 53.9411 182.817C51.3707 186.016 46.5813 190.436 47.3209 196.002C48.0421 201.346 53.4418 204.712 56.5114 206.579C70.9721 215.326 102.63 192.747 111.007 190.898C111.617 190.88 112.08 190.306 114.465 191.693Z" fill="url(#paint59_linear_0_10041)"/>
<path opacity="0.3" d="M37.6127 182.632C42.6055 177.584 48.3935 174.921 54.8841 172.905C56.5114 172.462 58.1387 172.055 59.7475 171.648C58.4161 175.772 56.5114 179.636 53.9411 182.817C51.3707 186.016 46.5813 190.436 47.3209 196.002C48.0421 201.346 53.4418 204.712 56.5114 206.579C70.9722 215.326 102.63 192.747 111.007 190.898C111.617 190.88 112.061 190.306 114.465 191.693C114.299 193.099 113.984 195.225 113.374 197.87C101.484 194.06 88.595 205.988 78.3135 211.812C65.1102 219.283 48.6709 224.11 35.782 214.253C26.1476 207.023 29.6426 190.935 37.6127 182.632Z" fill="url(#paint60_linear_0_10041)"/>
<path opacity="0.3" d="M31.3069 143.429C33.5629 151.011 33.8403 158.685 29.3098 166.008C22.8006 176.326 15.5332 184.944 12.8889 196.483C10.5219 206.283 11.9458 215.936 14.7751 225.515C15.5887 228.067 16.8647 230.286 18.418 232.265C9.80074 224.997 3.43951 215.344 1.12801 204.564C-4.34561 179.23 14.0169 155.782 31.3069 143.429Z" fill="url(#paint61_linear_0_10041)"/>
<path d="M58.3976 202.862C57.7134 204.508 54.3109 206.191 52.6651 206.006C49.9098 205.692 47.9497 203.805 46.2114 202.992C44.6581 202.252 41.2001 201.272 40.9967 200.033C40.6083 197.703 44.3807 197.056 46.5997 196.834C49.7064 196.52 53.0165 197.426 56.1046 198.887C56.8813 200.218 57.7319 201.531 58.3976 202.862Z" fill="url(#paint62_linear_0_10041)"/>
<path d="M119.44 194.467C108.603 195.983 106.088 195.244 105.793 194.282C105.404 193.062 108.326 190.602 111.451 190.177C114.613 189.752 117.831 191.434 119.44 194.467Z" fill="url(#paint63_linear_0_10041)"/>
<defs>
<linearGradient id="paint0_linear_0_10041" x1="258.738" y1="64.3145" x2="145.537" y2="159.591" gradientUnits="userSpaceOnUse">
<stop stop-color="#FFC444"/>
<stop offset="0.5135" stop-color="#F9984D"/>
<stop offset="0.9964" stop-color="#F36F56"/>
</linearGradient>
<linearGradient id="paint1_linear_0_10041" x1="247.207" y1="38.9658" x2="160.197" y2="99.7807" gradientUnits="userSpaceOnUse">
<stop stop-color="#FF9085"/>
<stop offset="1" stop-color="#FB6FBB"/>
</linearGradient>
<linearGradient id="paint2_linear_0_10041" x1="34.8446" y1="216.757" x2="37.2121" y2="262.462" gradientUnits="userSpaceOnUse">
<stop offset="0.00359712" stop-color="#E38DDD"/>
<stop offset="1" stop-color="#9571F6"/>
</linearGradient>
<linearGradient id="paint3_linear_0_10041" x1="380.049" y1="243.727" x2="372.665" y2="192.038" gradientUnits="userSpaceOnUse">
<stop stop-color="#311944"/>
<stop offset="1" stop-color="#893976"/>
</linearGradient>
<linearGradient id="paint4_linear_0_10041" x1="250.656" y1="244.97" x2="250.644" y2="222.222" gradientUnits="userSpaceOnUse">
<stop offset="0.00359712" stop-color="#E38DDD"/>
<stop offset="1" stop-color="#9571F6"/>
</linearGradient>
<linearGradient id="paint5_linear_0_10041" x1="-147.936" y1="212.763" x2="-147.637" y2="255.884" gradientUnits="userSpaceOnUse">
<stop offset="0.00359712" stop-color="#E38DDD"/>
<stop offset="1" stop-color="#9571F6"/>
</linearGradient>
<linearGradient id="paint6_linear_0_10041" x1="380.049" y1="243.727" x2="372.665" y2="192.038" gradientUnits="userSpaceOnUse">
<stop stop-color="#311944"/>
<stop offset="1" stop-color="#893976"/>
</linearGradient>
<linearGradient id="paint7_linear_0_10041" x1="250.656" y1="244.97" x2="250.644" y2="222.222" gradientUnits="userSpaceOnUse">
<stop offset="0.00359712" stop-color="#E38DDD"/>
<stop offset="1" stop-color="#9571F6"/>
</linearGradient>
<linearGradient id="paint8_linear_0_10041" x1="31.05" y1="198.474" x2="33.2558" y2="244.058" gradientUnits="userSpaceOnUse">
<stop offset="0.00359712" stop-color="#E38DDD"/>
<stop offset="1" stop-color="#9571F6"/>
</linearGradient>
<linearGradient id="paint9_linear_0_10041" x1="380.048" y1="225.634" x2="372.664" y2="173.944" gradientUnits="userSpaceOnUse">
<stop stop-color="#311944"/>
<stop offset="1" stop-color="#893976"/>
</linearGradient>
<linearGradient id="paint10_linear_0_10041" x1="250.656" y1="226.877" x2="250.644" y2="204.129" gradientUnits="userSpaceOnUse">
<stop offset="0.00359712" stop-color="#E38DDD"/>
<stop offset="1" stop-color="#9571F6"/>
</linearGradient>
<linearGradient id="paint11_linear_0_10041" x1="-147.936" y1="194.671" x2="-147.637" y2="237.791" gradientUnits="userSpaceOnUse">
<stop offset="0.00359712" stop-color="#E38DDD"/>
<stop offset="1" stop-color="#9571F6"/>
</linearGradient>
<linearGradient id="paint12_linear_0_10041" x1="380.048" y1="225.634" x2="372.664" y2="173.944" gradientUnits="userSpaceOnUse">
<stop stop-color="#311944"/>
<stop offset="1" stop-color="#893976"/>
</linearGradient>
<linearGradient id="paint13_linear_0_10041" x1="250.656" y1="226.877" x2="250.644" y2="204.129" gradientUnits="userSpaceOnUse">
<stop offset="0.00359712" stop-color="#E38DDD"/>
<stop offset="1" stop-color="#9571F6"/>
</linearGradient>
<linearGradient id="paint14_linear_0_10041" x1="31.05" y1="180.336" x2="33.2559" y2="225.921" gradientUnits="userSpaceOnUse">
<stop offset="0.00359712" stop-color="#E38DDD"/>
<stop offset="1" stop-color="#9571F6"/>
</linearGradient>
<linearGradient id="paint15_linear_0_10041" x1="380.049" y1="207.497" x2="372.665" y2="155.808" gradientUnits="userSpaceOnUse">
<stop stop-color="#311944"/>
<stop offset="1" stop-color="#893976"/>
</linearGradient>
<linearGradient id="paint16_linear_0_10041" x1="250.656" y1="208.74" x2="250.644" y2="185.992" gradientUnits="userSpaceOnUse">
<stop offset="0.00359712" stop-color="#E38DDD"/>
<stop offset="1" stop-color="#9571F6"/>
</linearGradient>
<linearGradient id="paint17_linear_0_10041" x1="-147.936" y1="176.534" x2="-147.637" y2="219.654" gradientUnits="userSpaceOnUse">
<stop offset="0.00359712" stop-color="#E38DDD"/>
<stop offset="1" stop-color="#9571F6"/>
</linearGradient>
<linearGradient id="paint18_linear_0_10041" x1="380.049" y1="207.497" x2="372.665" y2="155.808" gradientUnits="userSpaceOnUse">
<stop stop-color="#311944"/>
<stop offset="1" stop-color="#893976"/>
</linearGradient>
<linearGradient id="paint19_linear_0_10041" x1="250.656" y1="208.74" x2="250.644" y2="185.992" gradientUnits="userSpaceOnUse">
<stop offset="0.00359712" stop-color="#E38DDD"/>
<stop offset="1" stop-color="#9571F6"/>
</linearGradient>
<linearGradient id="paint20_linear_0_10041" x1="31.05" y1="162.199" x2="33.2558" y2="207.784" gradientUnits="userSpaceOnUse">
<stop offset="0.00359712" stop-color="#E38DDD"/>
<stop offset="1" stop-color="#9571F6"/>
</linearGradient>
<linearGradient id="paint21_linear_0_10041" x1="380.049" y1="189.36" x2="372.665" y2="137.671" gradientUnits="userSpaceOnUse">
<stop stop-color="#311944"/>
<stop offset="1" stop-color="#893976"/>
</linearGradient>
<linearGradient id="paint22_linear_0_10041" x1="250.656" y1="190.603" x2="250.644" y2="167.855" gradientUnits="userSpaceOnUse">
<stop offset="0.00359712" stop-color="#E38DDD"/>
<stop offset="1" stop-color="#9571F6"/>
</linearGradient>
<linearGradient id="paint23_linear_0_10041" x1="-147.936" y1="158.397" x2="-147.637" y2="201.517" gradientUnits="userSpaceOnUse">
<stop offset="0.00359712" stop-color="#E38DDD"/>
<stop offset="1" stop-color="#9571F6"/>
</linearGradient>
<linearGradient id="paint24_linear_0_10041" x1="380.049" y1="189.36" x2="372.665" y2="137.671" gradientUnits="userSpaceOnUse">
<stop stop-color="#311944"/>
<stop offset="1" stop-color="#893976"/>
</linearGradient>
<linearGradient id="paint25_linear_0_10041" x1="250.656" y1="190.603" x2="250.644" y2="167.855" gradientUnits="userSpaceOnUse">
<stop offset="0.00359712" stop-color="#E38DDD"/>
<stop offset="1" stop-color="#9571F6"/>
</linearGradient>
<linearGradient id="paint26_linear_0_10041" x1="31.05" y1="144.062" x2="33.2559" y2="189.646" gradientUnits="userSpaceOnUse">
<stop offset="0.00359712" stop-color="#E38DDD"/>
<stop offset="1" stop-color="#9571F6"/>
</linearGradient>
<linearGradient id="paint27_linear_0_10041" x1="380.049" y1="171.223" x2="372.665" y2="119.534" gradientUnits="userSpaceOnUse">
<stop stop-color="#311944"/>
<stop offset="1" stop-color="#893976"/>
</linearGradient>
<linearGradient id="paint28_linear_0_10041" x1="250.657" y1="172.466" x2="250.645" y2="149.718" gradientUnits="userSpaceOnUse">
<stop offset="0.00359712" stop-color="#E38DDD"/>
<stop offset="1" stop-color="#9571F6"/>
</linearGradient>
<linearGradient id="paint29_linear_0_10041" x1="-147.375" y1="140.264" x2="-147.075" y2="183.385" gradientUnits="userSpaceOnUse">
<stop offset="0.00359712" stop-color="#E38DDD"/>
<stop offset="1" stop-color="#9571F6"/>
</linearGradient>
<linearGradient id="paint30_linear_0_10041" x1="380.049" y1="171.223" x2="372.665" y2="119.534" gradientUnits="userSpaceOnUse">
<stop stop-color="#311944"/>
<stop offset="1" stop-color="#893976"/>
</linearGradient>
<linearGradient id="paint31_linear_0_10041" x1="250.657" y1="172.466" x2="250.645" y2="149.718" gradientUnits="userSpaceOnUse">
<stop offset="0.00359712" stop-color="#E38DDD"/>
<stop offset="1" stop-color="#9571F6"/>
</linearGradient>
<linearGradient id="paint32_linear_0_10041" x1="31.05" y1="125.925" x2="33.2558" y2="171.509" gradientUnits="userSpaceOnUse">
<stop offset="0.00359712" stop-color="#E38DDD"/>
<stop offset="1" stop-color="#9571F6"/>
</linearGradient>
<linearGradient id="paint33_linear_0_10041" x1="380.049" y1="153.086" x2="372.665" y2="101.397" gradientUnits="userSpaceOnUse">
<stop stop-color="#311944"/>
<stop offset="1" stop-color="#893976"/>
</linearGradient>
<linearGradient id="paint34_linear_0_10041" x1="250.657" y1="154.329" x2="250.645" y2="131.581" gradientUnits="userSpaceOnUse">
<stop offset="0.00359712" stop-color="#E38DDD"/>
<stop offset="1" stop-color="#9571F6"/>
</linearGradient>
<linearGradient id="paint35_linear_0_10041" x1="-147.936" y1="122.123" x2="-147.637" y2="165.243" gradientUnits="userSpaceOnUse">
<stop offset="0.00359712" stop-color="#E38DDD"/>
<stop offset="1" stop-color="#9571F6"/>
</linearGradient>
<linearGradient id="paint36_linear_0_10041" x1="380.049" y1="153.086" x2="372.665" y2="101.397" gradientUnits="userSpaceOnUse">
<stop stop-color="#311944"/>
<stop offset="1" stop-color="#893976"/>
</linearGradient>
<linearGradient id="paint37_linear_0_10041" x1="250.657" y1="154.329" x2="250.645" y2="131.581" gradientUnits="userSpaceOnUse">
<stop offset="0.00359712" stop-color="#E38DDD"/>
<stop offset="1" stop-color="#9571F6"/>
</linearGradient>
<linearGradient id="paint38_linear_0_10041" x1="31.05" y1="107.788" x2="33.2558" y2="153.372" gradientUnits="userSpaceOnUse">
<stop offset="0.00359712" stop-color="#E38DDD"/>
<stop offset="1" stop-color="#9571F6"/>
</linearGradient>
<linearGradient id="paint39_linear_0_10041" x1="380.048" y1="134.948" x2="372.664" y2="83.2591" gradientUnits="userSpaceOnUse">
<stop stop-color="#311944"/>
<stop offset="1" stop-color="#893976"/>
</linearGradient>
<linearGradient id="paint40_linear_0_10041" x1="250.656" y1="136.192" x2="250.644" y2="113.444" gradientUnits="userSpaceOnUse">
<stop offset="0.00359712" stop-color="#E38DDD"/>
<stop offset="1" stop-color="#9571F6"/>
</linearGradient>
<linearGradient id="paint41_linear_0_10041" x1="-147.936" y1="103.986" x2="-147.637" y2="147.106" gradientUnits="userSpaceOnUse">
<stop offset="0.00359712" stop-color="#E38DDD"/>
<stop offset="1" stop-color="#9571F6"/>
</linearGradient>
<linearGradient id="paint42_linear_0_10041" x1="380.048" y1="134.948" x2="372.664" y2="83.2591" gradientUnits="userSpaceOnUse">
<stop stop-color="#311944"/>
<stop offset="1" stop-color="#893976"/>
</linearGradient>
<linearGradient id="paint43_linear_0_10041" x1="250.656" y1="136.192" x2="250.644" y2="113.444" gradientUnits="userSpaceOnUse">
<stop offset="0.00359712" stop-color="#E38DDD"/>
<stop offset="1" stop-color="#9571F6"/>
</linearGradient>
<linearGradient id="paint44_linear_0_10041" x1="227.759" y1="-14.6782" x2="195.176" y2="5.02069" gradientUnits="userSpaceOnUse">
<stop stop-color="#311944"/>
<stop offset="1" stop-color="#893976"/>
</linearGradient>
<linearGradient id="paint45_linear_0_10041" x1="187.634" y1="17.4322" x2="162.112" y2="42.4045" gradientUnits="userSpaceOnUse">
<stop stop-color="#311944"/>
<stop offset="1" stop-color="#893976"/>
</linearGradient>
<linearGradient id="paint46_linear_0_10041" x1="147.739" y1="-19.4901" x2="50.8233" y2="91.6226" gradientUnits="userSpaceOnUse">
<stop stop-color="#893976"/>
<stop offset="1" stop-color="#311944"/>
</linearGradient>
<linearGradient id="paint47_linear_0_10041" x1="157.965" y1="14.4208" x2="82.9648" y2="69.5048" gradientUnits="userSpaceOnUse">
<stop stop-color="#311944"/>
<stop offset="1" stop-color="#893976"/>
</linearGradient>
<linearGradient id="paint48_linear_0_10041" x1="239.832" y1="110.562" x2="201.066" y2="-1.55768" gradientUnits="userSpaceOnUse">
<stop stop-color="#FFC444"/>
<stop offset="0.5135" stop-color="#F9984D"/>
<stop offset="0.9964" stop-color="#F36F56"/>
</linearGradient>
<linearGradient id="paint49_linear_0_10041" x1="181.414" y1="82.1914" x2="189.837" y2="82.1914" gradientUnits="userSpaceOnUse">
<stop stop-color="#311944"/>
<stop offset="1" stop-color="#893976"/>
</linearGradient>
<linearGradient id="paint50_linear_0_10041" x1="68.6471" y1="206.153" x2="-13.7039" y2="281.484" gradientUnits="userSpaceOnUse">
<stop stop-color="#FFC444"/>
<stop offset="0.5135" stop-color="#F9984D"/>
<stop offset="0.9964" stop-color="#F36F56"/>
</linearGradient>
<linearGradient id="paint51_linear_0_10041" x1="45.1958" y1="201.061" x2="-34.8561" y2="283.807" gradientUnits="userSpaceOnUse">
<stop stop-color="#FFC444"/>
<stop offset="0.9964" stop-color="#F36F56"/>
</linearGradient>
<linearGradient id="paint52_linear_0_10041" x1="57.229" y1="91.3473" x2="19.3952" y2="146.393" gradientUnits="userSpaceOnUse">
<stop stop-color="#893976"/>
<stop offset="1" stop-color="#311944"/>
</linearGradient>
<linearGradient id="paint53_linear_0_10041" x1="90.2713" y1="119.982" x2="109.403" y2="72.0799" gradientUnits="userSpaceOnUse">
<stop offset="0.003597" stop-color="#26264F"/>
<stop offset="1" stop-color="#444B8C"/>
</linearGradient>
<linearGradient id="paint54_linear_0_10041" x1="80.0429" y1="145.523" x2="137.14" y2="128.075" gradientUnits="userSpaceOnUse">
<stop stop-color="#893976"/>
<stop offset="1" stop-color="#311944"/>
</linearGradient>
<linearGradient id="paint55_linear_0_10041" x1="103.355" y1="118.784" x2="113.358" y2="67.487" gradientUnits="userSpaceOnUse">
<stop offset="0.003597" stop-color="#26264F"/>
<stop offset="1" stop-color="#444B8C"/>
</linearGradient>
<linearGradient id="paint56_linear_0_10041" x1="-0.135348" y1="104.164" x2="-3.11051" y2="173.243" gradientUnits="userSpaceOnUse">
<stop stop-color="#893976"/>
<stop offset="1" stop-color="#311944"/>
</linearGradient>
<linearGradient id="paint57_linear_0_10041" x1="121.972" y1="365.891" x2="225.41" y2="226.817" gradientUnits="userSpaceOnUse">
<stop stop-color="#FF9085"/>
<stop offset="1" stop-color="#FB6FBB"/>
</linearGradient>
<linearGradient id="paint58_linear_0_10041" x1="34.0608" y1="182.27" x2="25.3824" y2="262.308" gradientUnits="userSpaceOnUse">
<stop stop-color="#FFC444"/>
<stop offset="0.5135" stop-color="#F9984D"/>
<stop offset="0.9964" stop-color="#F36F56"/>
</linearGradient>
<linearGradient id="paint59_linear_0_10041" x1="-15.3068" y1="203.794" x2="-54.6811" y2="324.806" gradientUnits="userSpaceOnUse">
<stop stop-color="#FFC444"/>
<stop offset="0.9964" stop-color="#F36F56"/>
</linearGradient>
<linearGradient id="paint60_linear_0_10041" x1="152.337" y1="251.2" x2="150.271" y2="164.476" gradientUnits="userSpaceOnUse">
<stop stop-color="#FF9085"/>
<stop offset="1" stop-color="#FB6FBB"/>
</linearGradient>
<linearGradient id="paint61_linear_0_10041" x1="54.8185" y1="280.06" x2="-14.5042" y2="151.635" gradientUnits="userSpaceOnUse">
<stop stop-color="#FF9085"/>
<stop offset="1" stop-color="#FB6FBB"/>
</linearGradient>
<linearGradient id="paint62_linear_0_10041" x1="15.6186" y1="180.226" x2="16.579" y2="214.106" gradientUnits="userSpaceOnUse">
<stop stop-color="#893976"/>
<stop offset="1" stop-color="#311944"/>
</linearGradient>
<linearGradient id="paint63_linear_0_10041" x1="66.167" y1="173.633" x2="66.6637" y2="207.487" gradientUnits="userSpaceOnUse">
<stop stop-color="#893976"/>
<stop offset="1" stop-color="#311944"/>
</linearGradient>
</defs>
</svg>
