<svg width="762" height="343" viewBox="0 0 762 343" fill="none" xmlns="http://www.w3.org/2000/svg">
<path opacity="0.15" d="M349.972 221.224C280.6 237.664 253.111 244.974 214.719 235.653C197.038 231.36 171.919 222.284 136.481 226.387C112.432 229.159 80.6884 238.344 80.5611 248.914C80.4337 259.349 111.158 269.295 132.609 272.746C165.55 278.072 189.268 270.192 190.567 274.811C192.529 281.822 137.628 298.698 139.36 310.872C140.991 322.312 192.325 328.535 241.749 321.171C293.975 313.372 299.631 297.013 332.546 301.605C372.289 307.149 375.015 332.529 411.905 334.676C446.909 336.714 452.896 314.35 493.887 308.806C538.623 302.774 547.591 327.258 594.365 329.404C663.38 332.584 727.682 283.072 723.81 265.518C720.702 251.414 672.45 252.882 672.603 246.958C672.807 239.268 754.305 244.865 761.489 219.132C765.056 206.36 748.904 190.87 745.057 187.202C705.875 149.62 625.166 156.033 349.972 221.224Z" fill="url(#paint0_linear_0_7711)"/>
<path d="M235.955 231.489C234.234 232.281 215.32 240.994 216.553 245.63C217.693 249.893 234.048 243.579 256.241 250.941C269.013 255.181 274.364 260.819 287.996 261.541C296.301 261.983 303.699 257.767 304.746 259.77C305.863 261.89 297.674 265.455 297.697 270.37C297.697 279.991 329.127 294.645 357.671 288.028C369.768 285.233 367.396 281.832 390.31 273.888C410.317 266.945 421.391 266.316 430.882 267.714C437.071 268.623 442.212 269.368 447.632 273.026C459.101 280.737 456.566 291.034 466.15 295.996C472.432 299.234 479.457 297.557 493.485 294.225C506.187 291.197 516.237 289.566 516.423 286.281C516.796 279.409 473.711 276.497 473.199 266.852C472.827 259.677 496.184 252.409 511.142 249.194C531.87 244.721 543.944 246.445 564.952 246.538C582.702 246.608 605.012 243.929 649.632 238.594C688.366 233.958 707.721 231.559 707.861 227.994C708.047 222.217 664.172 216.3 638.163 212.968C638.209 212.945 355.903 176.813 235.955 231.489Z" fill="#C5CDD8"/>
<path d="M597.764 209.251C651.309 218.493 667.776 211.323 672.639 202.734C675.465 197.729 675.766 189.791 683.825 179.759C690.611 171.309 694.525 171.844 697.443 165.35C702.492 154.107 692.858 147.799 696.795 136.928C701.102 125.01 714.604 127.105 720.464 112.882C723.66 105.108 719.908 103.781 722.757 96.0295C728.57 80.2241 745.708 81.5975 751.405 67.3283C754.717 59.0183 753.003 48.2873 747.561 41.9558C736.629 29.2696 710.436 34.1346 695.614 45.8897C693.714 47.4028 679.332 59.1347 677.943 76.523C677.109 87.0211 681.602 91.9094 677.896 98.2874C672.662 107.296 660.828 102.547 655.64 110.531C648.599 121.379 665.297 137.836 657.261 150.057C654.135 154.782 650.846 153.502 647.742 158.925C642.624 167.841 648.599 176.407 647.418 183.832C646.168 191.84 636.186 201.57 597.764 209.251Z" fill="url(#paint1_linear_0_7711)"/>
<path opacity="0.28" d="M696.818 70.7035C689.87 86.8115 701.195 97.0071 693.066 109.717C686.465 120.052 676.044 117.934 673.195 127.547C670.462 136.765 679.286 141.211 676.877 151.733C674.886 160.415 668.192 160.438 661.499 171.658C654.76 182.948 657.493 189.721 654.019 196.612C650.313 204.014 639.775 210.951 611.405 211.37C607.143 210.788 602.604 210.089 597.764 209.251C636.163 201.57 646.168 191.84 647.418 183.856C648.599 176.43 642.624 167.887 647.742 158.949C650.846 153.525 654.158 154.782 657.261 150.08C665.297 137.882 648.599 121.402 655.64 110.555C660.828 102.547 672.662 107.319 677.896 98.3106C681.602 91.9326 677.109 87.0443 677.943 76.5462C679.332 59.1578 693.691 47.426 695.614 45.9129C710.436 34.1578 736.606 29.2928 747.561 41.979C747.607 42.0489 747.653 42.0954 747.723 42.1653C740.404 42.4213 731.442 43.9343 722.155 48.3804C714.952 51.8254 702.376 57.8543 696.818 70.7035Z" fill="white"/>
<path d="M608.071 215.498C626.207 212.608 631.736 207.574 632.939 203.03C634.906 195.596 625.12 189.98 627.272 181.497C629.747 171.709 644.807 171.033 644.946 164.484C645.107 157.376 627.549 156.258 624.889 145.771C622.46 136.262 635.577 132.091 636.687 118.714C638.029 102.75 620.308 97.3205 618.805 78.8632C617.764 66.2554 625.028 56.3044 630.695 48.474C643.488 30.8791 667.917 14.8921 693.503 19.1335C696.996 19.7162 717.376 23.072 721.332 35.6798C725.357 48.4507 711.269 66.7448 697.759 75.8802C687.951 82.4987 680.201 83.128 679.252 88.9774C677.98 96.8544 691.235 101.003 691.467 112.678C691.582 118.854 687.997 123.771 684.457 128.619C676.453 139.618 669.745 138.546 668.148 144.908C665.974 153.601 677.887 158.355 679.391 171.802C680.455 181.38 675.574 189.187 672.798 193.592C662.064 210.697 636.594 218.714 608.071 215.498Z" fill="url(#paint2_linear_0_7711)"/>
<path opacity="0.7" d="M728.457 30.1567C716.983 34.6778 705.486 39.1057 693.965 43.4869C688.205 45.6543 682.468 47.9148 676.731 50.1753C671.017 52.4592 665.28 54.743 659.797 57.4231C657.091 58.7747 654.384 60.2895 652.325 62.317C651.33 63.3657 650.613 64.5543 650.197 65.9292C649.78 67.3042 649.595 68.7491 649.734 70.1707C649.989 73.0605 651.354 75.8104 652.973 78.3506C654.592 80.9141 656.512 83.3378 658.34 85.8314C660.191 88.325 661.995 90.9118 663.429 93.7549C664.146 95.1765 664.771 96.6447 665.257 98.1828C665.719 99.7209 666.043 101.306 666.159 102.914C666.367 106.153 665.835 109.392 664.586 112.399C663.29 115.382 661.208 117.898 659.057 120.136C657.993 121.254 656.906 122.35 655.934 123.492C655.425 124.051 655.009 124.657 654.523 125.239L653.921 126.172L653.621 126.638C653.528 126.801 653.459 126.964 653.366 127.127L652.857 128.106C652.695 128.432 652.603 128.782 652.464 129.131C652.348 129.481 652.186 129.807 652.094 130.18L651.839 131.252L651.701 131.788C651.654 131.974 651.654 132.161 651.631 132.347L651.492 133.466L651.423 134.025L651.4 134.585C651.377 134.957 651.377 135.33 651.4 135.703C651.446 137.195 651.654 138.663 652.071 140.084C652.487 141.506 653.065 142.881 653.783 144.209C655.194 146.889 657.091 149.36 658.409 152.319C659.057 153.788 659.496 155.396 659.612 157.05C659.705 158.705 659.497 160.336 659.034 161.874C658.571 163.436 657.831 164.904 656.929 166.232C656.003 167.537 654.916 168.726 653.759 169.775C651.446 171.919 648.925 173.69 646.866 175.904C645.848 176.999 644.946 178.211 644.298 179.539C643.65 180.868 643.257 182.312 643.118 183.804C642.979 185.295 643.072 186.787 643.488 188.208C643.881 189.653 644.552 191.005 645.269 192.38C645.963 193.755 646.704 195.246 646.819 196.948C646.958 198.626 646.403 200.28 645.524 201.655C644.622 203.007 643.465 204.125 642.193 205.081C640.944 206.036 639.579 206.829 638.214 207.551C635.438 208.973 632.546 210.115 629.608 211.07C623.732 213.005 617.718 214.403 611.657 215.591C605.619 216.78 599.512 217.712 593.404 218.528V218.458C599.488 217.526 605.549 216.454 611.587 215.172C617.602 213.89 623.593 212.422 629.4 210.418C632.292 209.416 635.137 208.25 637.844 206.829C639.185 206.106 640.481 205.291 641.684 204.382C642.887 203.45 643.951 202.378 644.761 201.143C645.547 199.907 646.01 198.462 645.871 197.018C645.778 195.573 645.108 194.221 644.39 192.869C643.673 191.494 642.933 190.073 642.493 188.511C642.054 186.95 641.915 185.319 642.054 183.711C642.193 182.103 642.609 180.518 643.303 179.05C643.997 177.582 644.969 176.277 646.033 175.111C648.184 172.781 650.729 170.963 652.927 168.866C654.037 167.84 655.055 166.722 655.888 165.486C656.72 164.251 657.368 162.923 657.785 161.501C658.201 160.08 658.363 158.588 658.27 157.143C658.155 155.699 657.761 154.277 657.137 152.902C655.911 150.175 653.991 147.728 652.51 144.932C651.747 143.534 651.122 142.065 650.66 140.504C650.197 138.966 649.966 137.335 649.919 135.727C649.896 135.33 649.896 134.911 649.919 134.515L649.942 133.909L650.012 133.303L650.151 132.091C650.174 131.881 650.197 131.695 650.22 131.485L650.359 130.902L650.636 129.714C650.729 129.318 650.891 128.945 651.03 128.572C651.168 128.199 651.307 127.803 651.469 127.43L652.024 126.358C652.117 126.172 652.209 125.985 652.302 125.822L652.626 125.309L653.274 124.307C653.759 123.678 654.222 123.026 654.754 122.443L655.541 121.557L656.35 120.695L657.947 119.017C660.052 116.803 661.972 114.473 663.128 111.723C664.262 108.996 664.748 105.967 664.54 103.007C664.424 101.515 664.123 100.07 663.684 98.6256C663.244 97.204 662.643 95.829 661.949 94.4774C660.561 91.7974 658.803 89.2805 656.975 86.8102C655.147 84.3399 653.204 81.8929 651.515 79.2362C650.66 77.9078 649.873 76.5328 649.225 75.0413C648.601 73.5499 648.138 71.9651 647.976 70.3105C647.814 68.6559 648.022 66.9547 648.508 65.3699C648.994 63.7619 649.919 62.2704 651.076 61.0819C653.436 58.7747 656.258 57.2599 659.034 55.8617C661.833 54.4867 664.678 53.2515 667.547 52.0863C670.415 50.9211 673.284 49.8025 676.176 48.6838C681.936 46.4699 687.719 44.3492 693.549 42.2984C705.162 38.1502 716.775 34.0486 728.457 30.0635V30.1567Z" fill="white"/>
<path d="M611.037 208.968C615.414 211.245 622.548 214.616 631.766 217.265C650.758 222.704 683.415 226.492 694.648 211.78C696.038 209.967 699.674 205.179 699.188 199.276C698.678 193.14 694.162 191.234 694.833 187.399C695.76 182.146 704.746 182.541 713.71 176.522C721.306 171.408 730.455 160.577 729.575 147.864C728.602 133.919 716.165 125.97 714.798 125.133C705.603 119.462 691.429 117.417 682.558 124.575C674.706 130.897 673.988 142.053 673.502 149.421C672.414 166.086 679.339 173.57 674.359 179.404C669.796 184.726 662.084 180.798 656.548 187.887C654.186 190.908 654.857 192.582 651.152 198.509C648.349 202.994 645.338 206.272 644.088 207.434C634.453 216.382 612.959 209.595 611.037 208.968Z" fill="url(#paint3_linear_0_7711)"/>
<path opacity="0.5" d="M622.942 214.616C618.518 214.616 614.094 214.476 609.67 214.197L609.717 213.616C623.173 214.476 636.63 214.035 649.693 212.268C676.05 208.735 678.991 202.902 679.941 200.996C681.423 198.067 681.145 195.557 680.844 192.907C680.52 189.932 680.149 186.562 682.211 182.053C684.087 177.939 686.495 176.057 688.835 174.221C691.128 172.431 693.305 170.734 694.949 167.062C697.08 162.321 696.432 158.462 695.737 154.348C695.343 152.047 694.949 149.654 694.996 146.957C695.158 136.336 702.43 125.482 716.582 114.72L716.929 115.185C702.917 125.853 695.737 136.545 695.575 146.981C695.528 149.63 695.922 151.978 696.316 154.256C697.034 158.462 697.682 162.414 695.482 167.318C693.768 171.129 691.429 172.942 689.182 174.709C686.889 176.498 684.527 178.334 682.72 182.309C680.728 186.655 681.076 189.816 681.4 192.838C681.701 195.58 681.979 198.16 680.427 201.251C679.431 203.227 676.397 209.247 649.739 212.826C640.961 214.035 631.974 214.616 622.942 214.616Z" fill="white"/>
<path d="M684.919 64.2436L655.023 113.237L563.801 112.214L523.336 190.613L418.873 194.265L364.679 277.922C363.704 279.411 362.124 280.365 360.359 280.528L353.274 281.132C350.068 281.644 343.192 280.667 344.238 277.573L380.94 194.382L411.138 180.842L512.697 176.957L551.118 99.8838L644.453 98.8602L675.743 51.2856L684.919 64.2436Z" fill="url(#paint4_linear_0_7711)"/>
<path d="M629.588 67.4811L612.663 59.8774L631.536 56.1443L629.588 67.4811Z" fill="url(#paint5_linear_0_7711)"/>
<path d="M693.469 51.2856L702.174 64.242H682.825L676.291 56.0224L693.469 51.2856Z" fill="url(#paint6_linear_0_7711)"/>
<path d="M704.331 6.07159L696.06 0L692.468 49.0631L696.06 55.3682L702.228 64.2421L704.331 6.07159Z" fill="url(#paint7_linear_0_7711)"/>
<path d="M475.701 171.463L517.775 183.009L558.202 104.4L516.127 92.8541L475.701 171.463Z" fill="url(#paint8_linear_0_7711)"/>
<path d="M314.034 271.822L345.555 280.442C348.9 281.349 352.431 280.001 354.313 277.097L413.151 186.412L371.037 174.911L311.851 266.13C310.457 268.267 311.549 271.149 314.034 271.822Z" fill="url(#paint9_linear_0_7711)"/>
<path d="M371.092 174.766L413.233 186.248L517.76 182.591L475.619 171.132L371.092 174.766Z" fill="url(#paint10_linear_0_7711)"/>
<path d="M516.142 92.8541L558.203 104.236L649.33 105.271L607.246 93.8658L516.142 92.8541Z" fill="url(#paint11_linear_0_7711)"/>
<path d="M612.674 59.5827L628.675 58.7449L607.271 93.7264L649.521 105.271L679.589 56.0683L696.242 55.1838V0L612.674 59.5827Z" fill="url(#paint12_linear_0_7711)"/>
<g opacity="0.3">
<path d="M490.046 168.193C502.156 158.499 513.15 164.389 520.891 156.458C527.515 149.686 520.658 144.166 528.236 127.445C534.396 113.831 543.461 107.569 545.274 106.34C547.622 104.763 549.853 103.604 551.875 102.699L515.8 92.8658L475.309 171.022L484.699 173.596C486.117 171.787 487.861 169.932 490.046 168.193Z" fill="url(#paint13_linear_0_7711)"/>
</g>
<path opacity="0.3" d="M563.563 95.0697C555.825 95.5899 554.45 95.8612 554.427 96.2231C554.381 97.2634 566.779 99.344 579.458 99.6606C590.738 99.9546 592.719 98.6203 604.791 99.3666C612.646 99.8641 617.913 100.814 618.053 100.226C618.216 99.5249 610.898 96.9241 603.02 95.3637C592.323 93.2153 582.604 93.8033 563.563 95.0697Z" fill="url(#paint14_linear_0_7711)"/>
<path opacity="0.3" d="M349.071 232.627C355.591 222.003 358.012 211.192 369.375 205.95C378.084 201.937 383.998 204.883 391.752 199.802C397.783 195.836 401.043 189.549 402.906 183.61L370.912 174.911L313.934 262.367C333.61 252.856 343.576 241.581 349.071 232.627Z" fill="url(#paint15_linear_0_7711)"/>
<path d="M581.479 271.469C592.461 270.131 594.708 272.714 605.876 272.207C616.858 271.723 617.599 269.094 626.589 269.624C634.651 270.108 645.031 272.876 645.077 275.874C645.124 279.171 632.636 283.83 620.681 282.123C614.031 281.178 614.495 279.264 608.1 278.433C596.562 276.957 593.156 283.046 581.479 281.754C574.714 281.016 567.671 278.064 567.81 275.874C567.972 273.106 579.533 271.699 581.479 271.469Z" fill="#D8DEE8"/>
<path d="M584.704 173.956C584.959 173.561 585.423 172.724 585.446 171.608C585.493 169.422 583.892 167.725 583.683 167.841C583.567 167.887 583.706 168.539 583.799 168.818C583.961 169.399 584.147 169.469 584.147 169.724C584.124 170.282 583.312 170.306 582.894 171.05C582.592 171.585 582.569 172.329 582.894 172.933C583.404 173.933 584.634 173.956 584.704 173.956Z" fill="url(#paint16_linear_0_7711)"/>
<path d="M619.089 221.206L618.462 219.067L621.038 217.16L622.662 216.555L621.687 219.532L619.089 221.206Z" fill="url(#paint17_linear_0_7711)"/>
<path d="M615.887 264.177C615.887 264.177 617.302 267.735 616.931 269.316C618.439 269.293 619.437 269.083 619.437 269.083C619.437 269.083 618.834 267.456 618.718 266.665C618.555 265.572 618.578 263.828 618.578 263.828L615.887 264.177Z" fill="url(#paint18_linear_0_7711)"/>
<path d="M600.295 272.502C600.388 272.618 600.55 272.85 600.574 273.153C600.574 273.315 600.55 273.455 600.504 273.594C600.272 274.222 599.878 274.315 599.483 274.99C599.228 275.408 599.274 275.524 599.042 275.71C598.741 275.966 598.369 275.966 598.068 275.966C597.534 275.966 596.769 275.943 595.794 275.827C596.305 275.176 596.838 274.501 597.418 273.827C597.673 273.525 597.929 273.246 598.161 272.967L599.646 272.455C599.878 272.502 600.086 272.502 600.295 272.502Z" fill="#26264F"/>
<path d="M599.066 265.247C599.066 265.247 598.207 269.711 599.298 270.944C600.226 272.199 598.857 271.292 598.857 271.292L597.209 272.734L596.235 274.432C596.235 274.432 597.14 270.06 596.908 268.339C596.676 266.619 596.537 265.433 596.537 265.433L599.066 265.247Z" fill="url(#paint19_linear_0_7711)"/>
<path d="M595.864 216.509C595.864 216.509 593.567 218.555 593.567 227.019C593.567 235.483 594.657 253.83 594.657 253.83L596.397 266.967C596.397 266.967 598.207 267.037 599.39 266.665C600.481 261.712 602.244 253.341 601.409 246.342C601.038 238.739 604.425 229.205 604.425 229.205C604.425 229.205 607.325 238.855 609.367 243.691C611.409 248.528 615.307 263.642 615.678 264.735C618.068 264.944 619.089 264.317 619.089 264.317C619.089 264.317 617.557 248.04 616.096 241.878C614.657 235.716 614.773 220.857 612.36 216.648C606.931 214.463 595.864 216.509 595.864 216.509Z" fill="url(#paint20_linear_0_7711)"/>
<path d="M595.864 216.509C595.864 216.509 593.567 218.555 593.567 227.019C593.567 235.483 594.657 253.83 594.657 253.83L596.397 266.967C596.397 266.967 598.207 267.037 599.39 266.665C600.481 261.712 602.244 253.341 601.409 246.342C601.038 238.739 604.425 229.205 604.425 229.205C604.425 229.205 607.325 238.855 609.367 243.691C611.409 248.528 615.307 263.642 615.678 264.735C618.068 264.944 619.089 264.317 619.089 264.317C619.089 264.317 617.557 248.04 616.096 241.878C614.657 235.716 614.773 220.857 612.36 216.648C606.931 214.463 595.864 216.509 595.864 216.509Z" fill="url(#paint21_linear_0_7711)"/>
<path opacity="0.25" d="M607.743 231.995C608.462 236.646 609.878 239.157 613.451 242.366C616.305 244.505 614.17 249.156 615.237 252.737C615.585 253.806 616.676 254.876 617.024 255.946C618.346 258.596 617.117 261.875 617.72 264.689C618.648 264.549 619.089 264.293 619.089 264.293C619.089 264.293 617.557 248.016 616.096 241.854C614.657 235.692 614.773 220.834 612.36 216.625C606.931 214.463 595.864 216.509 595.864 216.509C595.864 216.509 593.567 218.555 593.567 227.019C593.567 227.694 593.567 228.461 593.59 229.251C595.957 231.367 600.829 231.832 603.822 229.484C604.008 229.344 604.193 229.275 604.402 229.228C604.402 229.205 604.425 229.182 604.425 229.182C604.425 229.182 604.425 229.205 604.448 229.228C605.794 228.972 607.441 230.763 607.743 231.995Z" fill="url(#paint22_linear_0_7711)"/>
<path d="M616.56 270.665C616.56 270.665 616.212 270.665 616.235 271.13C616.258 271.595 616.072 273.153 617.859 273.222C619.646 273.292 619.924 273.106 619.994 273.106C620.063 273.106 619.53 271.595 619.53 271.595L618.949 270.851L617.418 270.688L616.56 270.665Z" fill="#26264F"/>
<path d="M620.527 272.246C620.481 271.874 620.272 271.269 620.063 270.781C619.738 270.06 620.017 269.804 619.715 269.153C619.599 268.921 619.506 268.711 619.298 268.502C619.251 268.456 618.764 267.991 618.045 268.014C617.905 268.014 617.697 268.037 617.441 268.153C617.163 268.293 617.024 268.525 616.908 268.711C616.722 269.014 616.769 269.107 616.467 269.99C616.444 270.06 616.397 270.223 616.351 270.432C616.328 270.595 616.305 270.734 616.305 270.827C616.769 270.827 618.578 270.897 618.95 271.176C619.321 271.455 619.53 271.92 619.53 272.385C619.53 272.85 619.762 273.083 619.994 273.06C620.202 273.083 620.62 272.688 620.527 272.246Z" fill="#444B8C"/>
<path d="M598.834 270.339C599.228 270.339 599.53 270.665 599.762 271.432C599.994 272.199 601.061 272.897 599.808 272.734C598.555 272.571 597.65 274.339 597.209 274.99C596.769 275.641 595.562 276.222 595.585 275.594C595.608 274.943 596.142 274.664 596.281 273.99C596.444 273.339 597.929 270.316 598.834 270.339Z" fill="#444B8C"/>
<path d="M620.017 217.532C620.318 216.695 622.175 211.277 619.182 206.324C616.722 202.278 612.499 200.953 611.896 200.767C608.23 199.674 606.374 201.069 605.214 199.79C603.242 197.604 605.469 190.164 609.785 188.675C614.657 187.001 620.481 193.442 622.847 197.698C625.957 203.255 625.191 208.789 625.005 209.928C624.541 212.882 623.451 215.137 622.662 216.532C621.78 216.881 620.899 217.207 620.017 217.532Z" fill="url(#paint23_linear_0_7711)"/>
<path d="M607.325 187.652C602.987 187.49 599.646 187.536 597.743 189.443C595.748 191.442 597.766 193.698 597.325 198.93C596.653 206.929 591.571 208.905 591.177 217.02C591.038 219.764 591.502 221.997 591.873 223.345C592.987 224.74 594.82 226.717 597.511 228.345C601.432 230.74 603.729 230.321 609.367 231.879C618.601 234.414 619.414 237.413 623.984 236.646C628.601 235.878 632.662 231.972 632.175 229.833C631.873 228.554 630.017 228.903 627.859 226.949C625.098 224.438 626.165 222.02 624.054 219.323C621.038 215.439 616.815 217.811 614.24 214.439C611.641 211.021 612.662 204.301 614.866 200.627C616.304 198.232 616.908 195.419 618.137 192.907C618.23 192.698 618.346 192.349 618.3 191.931C618.091 190.303 615.376 189.419 613.335 188.768C610.226 187.769 607.697 187.652 607.325 187.652Z" fill="url(#paint24_linear_0_7711)"/>
<path d="M603.683 187.466L604.541 187.211C604.541 187.211 604.773 188.373 607.511 188.513C609.042 188.513 610.017 187.652 610.017 187.652L610.597 188.071C610.597 188.071 609.321 189.675 607.279 189.629C604.657 189.582 603.683 187.466 603.683 187.466Z" fill="url(#paint25_linear_0_7711)"/>
<path d="M605.423 183.932C605.585 182.653 606.583 181.839 606.815 181.653C607.743 180.932 607.929 180.839 608.23 180.793L608.671 180.723C608.671 180.723 608.694 180.723 608.717 180.723C608.973 180.746 609.715 181.025 609.854 181.142C610.295 181.444 609.97 183.653 608.648 186.373C608.601 186.606 608.532 186.838 608.485 187.071C609.646 187.28 609.924 187.49 609.947 187.652C609.97 188.024 608.694 188.489 607.511 188.513C606.026 188.559 604.472 187.908 604.495 187.443C604.518 187.257 604.796 187.024 605.864 186.769C606.026 186.536 606.188 186.304 606.374 186.071C606.212 185.862 605.284 184.862 605.423 183.932Z" fill="url(#paint26_linear_0_7711)"/>
<path d="M607.233 183.444C607.557 183.234 607.813 183.676 607.673 184.048C607.511 184.42 606.977 184.653 606.653 184.443C606.328 184.234 606.792 183.723 607.233 183.444Z" fill="url(#paint27_linear_0_7711)"/>
<path d="M650.666 183.444C646.258 178.653 636.003 179.956 630.295 183.816C627.65 185.606 626.281 187.722 623.172 187.908C620.806 188.048 617.024 187.141 615.028 184.56C614.773 184.234 613.775 182.862 612.267 181.165C611.595 180.397 610.945 179.7 609.924 179.537C609.669 179.491 608.81 179.351 608.23 179.909C607.766 180.374 607.65 181.142 607.789 181.723C607.882 182.072 607.975 182.095 607.952 182.327C607.905 182.955 606.769 183.234 606.838 183.537C606.885 183.769 607.465 183.676 607.581 183.955C607.697 184.257 607.047 184.536 606.769 185.304C606.235 185.653 605.91 186.536 605.794 187.699C605.632 189.419 605.794 190.815 606.119 191.861C607.673 196.93 608.81 200.534 611.502 202.557C615.075 205.231 618.3 202.767 627.418 202.371C639.901 201.836 643.01 206.068 647.488 203.185C653.103 199.558 655.26 188.42 650.666 183.444Z" fill="url(#paint28_linear_0_7711)"/>
<path d="M585.214 173.654C585.098 174.701 584.727 179.328 587.906 183.234C590.875 186.885 595.098 187.606 595.887 187.745C599.669 188.327 601.316 186.676 602.639 187.792C604.889 189.675 603.683 197.349 599.622 199.418C595.029 201.743 588.37 196.163 585.446 192.28C581.618 187.187 581.618 181.607 581.641 180.467C581.711 177.468 582.476 175.096 583.08 173.608C583.335 173.538 583.706 173.445 584.17 173.468C584.634 173.468 584.982 173.561 585.214 173.654Z" fill="url(#paint29_linear_0_7711)"/>
<path opacity="0.3" d="M624.147 233.576C623.033 232.437 624.263 230.135 622.616 228.438C621.084 226.856 619.367 228.135 616.931 226.763C613.799 225.019 614.657 221.811 611.664 220.09C609.506 218.857 608.486 220.183 605.145 219.532C601.803 218.881 597.72 216.579 595.701 212.44C594.843 210.672 594.541 208.929 594.495 207.371C592.987 210.068 591.432 212.649 591.223 217.02C591.084 219.764 591.548 221.997 591.919 223.345C593.033 224.74 594.866 226.717 597.558 228.345C601.479 230.74 603.776 230.321 609.414 231.879C618.648 234.414 619.46 237.413 624.031 236.646C626.977 236.157 629.715 234.367 631.154 232.6C626.885 234.507 624.959 234.414 624.147 233.576Z" fill="url(#paint30_linear_0_7711)"/>
<path d="M544.961 101.245C545.22 100.841 545.666 100.248 546.442 99.868C548.839 98.6808 552.105 100.747 551.964 101.245C551.917 101.435 551.4 101.578 549.191 101.388C548.251 101.981 547.429 102.124 546.959 102.171C546.395 102.219 545.525 102.314 545.126 101.767C545.008 101.578 544.985 101.388 544.961 101.245Z" fill="url(#paint31_linear_0_7711)"/>
<path d="M492.677 154.675C492.677 154.675 491.201 157.21 491.318 158.442C490.169 158.256 489.443 158 489.443 158C489.443 158 490.099 156.837 490.263 156.256C490.498 155.442 490.685 154.117 490.685 154.117L492.677 154.675Z" fill="url(#paint32_linear_0_7711)"/>
<path d="M501.007 170.361C500.934 170.453 500.787 170.613 500.762 170.843C500.762 170.981 500.787 171.073 500.811 171.165C500.983 171.647 501.277 171.716 501.595 172.245C501.791 172.567 501.742 172.658 501.914 172.796C502.159 172.98 502.453 173.003 502.698 173.026C503.139 173.049 503.751 173.049 504.535 173.003C504.143 172.498 503.727 171.969 503.286 171.441C503.09 171.211 502.894 170.981 502.698 170.774L501.522 170.338C501.35 170.361 501.179 170.361 501.007 170.361Z" fill="#26264F"/>
<path d="M502.483 164.931C502.483 164.931 503.021 168.318 502.117 169.24C501.335 170.162 502.459 169.517 502.459 169.517L503.729 170.646L504.462 171.96C504.462 171.96 503.876 168.641 504.145 167.327C504.389 166.037 504.535 165.138 504.535 165.138L502.483 164.931Z" fill="url(#paint33_linear_0_7711)"/>
<path d="M508.529 129.542C510.294 132.266 513.424 138.02 513.142 145.511C512.93 151.312 510.765 155.75 509.446 158.404C507.658 162.044 505.61 164.768 504.08 166.553C504.08 166.553 502.692 166.553 501.774 166.224C501.185 162.208 501.491 159.061 501.891 156.948C502.856 151.734 504.81 150.091 504.598 145.793C504.41 141.519 502.268 138.067 501.727 138.208C501.138 138.349 502.762 142.505 501.609 146.826C500.314 151.734 495.937 154.952 491.912 157.042C491.182 157.112 490.5 156.83 490.194 156.314C490.006 156.009 489.982 155.703 489.982 155.515C490.147 154.599 490.453 153.19 491.041 151.547C492.147 148.541 493.183 147.601 493.936 145.957C495.937 141.683 492.806 139.617 493.771 132.807C494.148 130.153 494.619 126.865 496.878 125.527C499.632 123.93 504.292 125.55 508.529 129.542Z" fill="url(#paint34_radial_0_7711)"/>
<path d="M502.105 169.256C501.786 169.256 501.54 169.489 501.319 170.072C501.123 170.654 500.215 171.143 501.246 171.05C502.252 170.957 502.94 172.355 503.259 172.867C503.602 173.38 504.535 173.869 504.535 173.38C504.535 172.891 504.118 172.634 504.02 172.145C503.946 171.633 502.841 169.256 502.105 169.256Z" fill="#444B8C"/>
<path d="M489.18 158.442C489.091 158.516 488.958 158.69 488.913 158.937C488.891 159.061 488.913 159.185 488.936 159.309C489.047 159.854 489.314 159.953 489.536 160.547C489.669 160.919 489.625 160.993 489.781 161.191C489.981 161.414 490.225 161.488 490.47 161.513C490.848 161.587 491.404 161.662 492.138 161.686C491.849 161.092 491.515 160.498 491.182 159.903C491.026 159.631 490.87 159.383 490.737 159.111L489.714 158.516C489.492 158.467 489.336 158.467 489.18 158.442Z" fill="#26264F"/>
<path d="M490.299 156.826C490.005 156.781 489.756 156.982 489.506 157.517C489.257 158.051 488.396 158.43 489.325 158.452C490.254 158.475 490.752 159.856 491.002 160.368C491.251 160.881 492.089 161.438 492.134 160.97C492.18 160.502 491.817 160.235 491.794 159.744C491.726 159.254 490.979 156.915 490.299 156.826Z" fill="#444B8C"/>
<path d="M504.721 103.523C508.292 101.646 511.888 102.132 515.58 102.828C520.063 103.662 527.374 105.006 528.189 108.669C528.813 111.543 524.737 112.655 517.929 122.043C516.251 124.337 514.381 126.493 512.895 128.903C511.121 131.754 510.881 132.751 509.779 132.983C507.238 133.539 505.847 128.903 500.837 128.046C498.416 127.629 497.984 128.092 496.954 127.327C493.645 124.917 496.258 116.433 498.176 112.169C499.782 108.53 501.173 105.377 504.721 103.523Z" fill="url(#paint35_linear_0_7711)"/>
<path d="M520.194 104.979C523.113 102.875 526.246 107.319 532.323 106.184C538.684 104.979 541.651 98.8569 545.591 100.251C546.636 100.606 547.3 101.339 547.656 101.812C546.659 104.364 544.072 109.825 538.257 113.441C532.631 116.939 523.018 119.327 519.505 115.072C517.227 112.283 517.63 106.823 520.194 104.979Z" fill="url(#paint36_linear_0_7711)"/>
<path d="M515.545 100.137C515.829 98.742 515.05 97.5127 514.885 97.2527C514.176 96.1416 514.011 95.9998 513.681 95.8343L513.256 95.6216C513.256 95.6216 513.232 95.6216 513.209 95.5979C512.925 95.527 512.028 95.5743 511.84 95.6216C511.273 95.787 510.825 98.2219 511.249 101.579C511.226 101.839 511.202 102.099 511.179 102.359C509.88 102.146 509.503 102.264 509.432 102.453C509.29 102.832 510.447 103.777 511.698 104.226C513.256 104.794 515.121 104.699 515.262 104.179C515.309 103.966 515.121 103.612 514.058 102.997C513.964 102.69 513.87 102.383 513.775 102.075C514.035 101.886 515.357 101.153 515.545 100.137Z" fill="url(#paint37_linear_0_7711)"/>
<path d="M514.035 94.8652C514.365 95.5034 514.2 96.3781 513.846 96.9454C513.633 97.2764 513.515 97.2764 513.445 97.5128C513.256 98.1983 514.365 98.8839 514.2 99.1912C514.082 99.404 513.468 99.1203 513.256 99.3803C513.02 99.664 513.61 100.184 513.633 101.106C513.633 101.248 513.657 102.123 513.138 102.453C512.666 102.761 511.934 102.406 511.131 102.004C510.234 101.555 509.668 101.059 509.503 100.917C508.983 100.444 508.417 99.924 508.086 99.073C508.016 98.8603 507.567 97.6546 508.086 96.3308C508.771 94.6051 510.754 93.5886 512.359 93.8723C512.618 93.8959 513.633 94.0614 514.035 94.8652Z" fill="#26264F"/>
<path d="M513.799 98.9548C513.515 98.6239 513.091 98.9784 513.114 99.4512C513.138 99.9004 513.61 100.35 514.035 100.231C514.46 100.09 514.176 99.404 513.799 98.9548Z" fill="url(#paint38_linear_0_7711)"/>
<path d="M476.382 293.618C476.148 293.618 475.939 293.478 475.845 293.267L428.349 185.945C428.209 185.641 428.349 185.289 428.652 185.172C428.955 185.031 429.305 185.172 429.421 185.477L476.918 292.798C477.058 293.103 476.918 293.454 476.615 293.571C476.521 293.595 476.451 293.618 476.382 293.618Z" fill="#444B8C"/>
<path d="M500.178 289.3C499.969 289.3 499.737 289.182 499.644 288.971L451.61 185.976C451.471 185.67 451.587 185.318 451.888 185.177C452.19 185.035 452.538 185.153 452.677 185.459L500.712 288.454C500.851 288.759 500.735 289.112 500.433 289.253C500.341 289.276 500.248 289.3 500.178 289.3Z" fill="#444B8C"/>
<path d="M458.537 199.865L435.371 199.541C435.043 199.541 434.785 199.282 434.785 198.98C434.785 198.677 435.043 198.44 435.371 198.44L458.537 198.764C458.865 198.764 459.124 199.023 459.124 199.325C459.124 199.627 458.865 199.865 458.537 199.865Z" fill="#444B8C"/>
<path d="M443.489 218.456C443.159 218.456 442.899 218.219 442.899 217.938C442.876 217.636 443.135 217.377 443.465 217.377L466.622 216.556C466.952 216.535 467.235 216.772 467.235 217.074C467.259 217.377 466.999 217.636 466.669 217.636L443.489 218.456C443.512 218.456 443.489 218.456 443.489 218.456Z" fill="#444B8C"/>
<path d="M452.139 238.018C451.834 238.018 451.577 237.777 451.553 237.463C451.53 237.124 451.764 236.834 452.092 236.81L474.715 234.781C475.043 234.757 475.325 234.998 475.348 235.337C475.371 235.675 475.137 235.965 474.809 235.989L452.186 238.018C452.163 238.018 452.139 238.018 452.139 238.018Z" fill="#444B8C"/>
<path d="M460.798 256.372C460.516 256.372 460.259 256.153 460.212 255.862C460.165 255.523 460.376 255.207 460.704 255.159L483.317 251.52C483.645 251.472 483.95 251.69 483.997 252.029C484.044 252.369 483.833 252.684 483.505 252.733L460.891 256.372C460.845 256.372 460.821 256.372 460.798 256.372Z" fill="#444B8C"/>
<path d="M468.908 275.805C468.628 275.805 468.371 275.603 468.325 275.335C468.278 275.022 468.488 274.731 468.815 274.687L491.974 270.952C492.301 270.908 492.604 271.109 492.651 271.422C492.698 271.735 492.488 272.026 492.161 272.07L469.001 275.805C468.978 275.805 468.931 275.805 468.908 275.805Z" fill="#444B8C"/>
<path d="M444.281 170.946C444.281 170.946 443.162 170.009 442.299 169.939C441.436 169.868 441.063 170.266 440.713 170.782C440.363 171.32 443.068 171.39 443.885 171.671C444.701 171.976 444.281 170.946 444.281 170.946Z" fill="url(#paint39_linear_0_7711)"/>
<path d="M442.998 171.601C442.555 173.92 443.045 175.114 443.605 175.793C444.631 177.034 445.867 176.496 448.432 178.158C449.832 179.048 450.251 179.727 450.881 179.54C451.674 179.282 451.954 177.877 452.257 176.355C452.49 175.184 452.514 174.224 452.514 173.592C451.907 172.889 450.391 171.273 447.896 170.571C446.357 170.126 445.027 170.196 444.188 170.29C443.791 170.711 443.395 171.156 442.998 171.601Z" fill="url(#paint40_linear_0_7711)"/>
<path d="M477.911 249.372C477.911 249.372 478.89 250.45 478.96 251.059C479.497 250.848 479.823 250.637 479.823 250.637C479.823 250.637 479.38 250.145 479.24 249.864C479.03 249.49 478.797 248.881 478.797 248.881L477.911 249.372Z" fill="url(#paint41_linear_0_7711)"/>
<path d="M480.103 250.778C480.149 250.801 480.243 250.871 480.289 250.965C480.313 251.035 480.313 251.082 480.313 251.129C480.313 251.386 480.196 251.457 480.126 251.761C480.103 251.948 480.126 251.972 480.08 252.066C480.01 252.183 479.87 252.253 479.776 252.3C479.59 252.37 479.31 252.464 478.96 252.557C479.053 252.253 479.147 251.948 479.263 251.644C479.31 251.503 479.357 251.363 479.403 251.246L479.87 250.871C479.94 250.824 480.033 250.801 480.103 250.778Z" fill="#26264F"/>
<path d="M479.287 250.216C479.427 250.169 479.567 250.239 479.753 250.473C479.94 250.707 480.406 250.824 479.94 250.918C479.473 251.012 479.403 251.785 479.333 252.066C479.263 252.347 478.914 252.721 478.844 252.487C478.774 252.253 478.914 252.089 478.89 251.831C478.844 251.597 478.96 250.333 479.287 250.216Z" fill="#444B8C"/>
<path d="M463.941 253.517C463.965 253.564 464.035 253.635 464.035 253.728C464.035 253.775 464.035 253.822 464.011 253.869C463.941 254.079 463.801 254.103 463.661 254.337C463.568 254.478 463.591 254.524 463.521 254.571C463.428 254.665 463.288 254.665 463.195 254.665C463.008 254.665 462.752 254.665 462.425 254.618C462.589 254.407 462.775 254.173 462.962 253.939C463.055 253.845 463.125 253.752 463.218 253.658L463.708 253.494C463.801 253.517 463.871 253.517 463.941 253.517Z" fill="#26264F"/>
<path d="M463.521 251.082C463.521 251.082 463.241 252.581 463.591 253.002C463.895 253.424 463.451 253.119 463.451 253.119L462.892 253.611L462.565 254.173C462.565 254.173 462.868 252.698 462.798 252.112C462.728 251.527 462.682 251.129 462.682 251.129L463.521 251.082Z" fill="url(#paint42_linear_0_7711)"/>
<path d="M463.451 252.791C463.591 252.791 463.685 252.909 463.755 253.166C463.825 253.424 464.198 253.658 463.778 253.611C463.358 253.564 463.055 254.15 462.892 254.384C462.752 254.595 462.332 254.805 462.355 254.595C462.355 254.384 462.542 254.267 462.589 254.056C462.635 253.798 463.148 252.791 463.451 252.791Z" fill="#444B8C"/>
<path d="M454.496 205.557C454.333 207.642 454.193 210.405 454.216 213.66C454.239 216.985 454.263 221.833 455.289 227.804C456.035 232.137 456.968 235.158 458.437 239.982C459.906 244.783 461.376 248.764 462.519 251.667C462.565 251.714 462.775 251.855 463.055 251.831C463.451 251.784 463.638 251.41 463.661 251.386C463.778 248.764 463.894 245.345 463.988 241.129C463.988 241.129 463.988 240.825 463.988 240.708C464.104 236.094 464.198 231.247 464.244 229.397C464.314 226.844 464.454 223.121 464.781 218.367C465.527 220.03 466.623 222.582 467.719 225.767C469.025 229.561 469.702 232.348 470.005 233.448C470.961 237.101 473.06 242.464 478.074 249.724C478.144 249.747 478.33 249.771 478.54 249.677C478.89 249.536 478.983 249.185 479.007 249.138C478.96 245.626 478.75 240.942 478.051 235.462C477.211 228.858 476.068 224.315 475.229 221.06C474.786 219.304 472.64 211.061 469.725 207.595C467.463 204.902 464.664 203.286 464.664 203.286C464.384 203.122 463.358 202.466 454.496 205.557Z" fill="#26264F"/>
<path d="M430.475 188.181C430.195 188.088 429.775 187.9 429.309 187.572C428.772 187.198 427.746 186.308 427.933 185.863C428.073 185.558 428.726 185.582 430.008 185.582C430.172 185.582 430.242 185.582 430.358 185.629C431.058 185.91 431.081 187.268 431.081 187.666C430.895 187.853 430.661 187.994 430.475 188.181Z" fill="url(#paint43_linear_0_7711)"/>
<path d="M448.502 183.146C446.287 182.35 442.579 189.727 438.987 188.767C437.518 188.369 437.098 186.846 434.836 186.401C433.507 186.144 432.34 186.425 431.571 186.682C431.034 187.221 430.475 187.736 429.938 188.322C430.172 189.375 430.825 191.811 432.947 193.942C433.903 194.902 436.049 197.057 438.707 196.893C440.969 196.776 441.599 195.089 446.147 192.373C447.616 191.483 448.899 190.874 449.738 190.476C450.111 184.926 449.319 183.451 448.502 183.146Z" fill="url(#paint44_linear_0_7711)"/>
<path d="M451.114 181.601C449.971 181.999 446.846 183.146 445.797 186.027C445.237 187.525 446.17 187.666 446.03 191.741C445.984 192.912 445.89 193.497 446.287 194.153C447.01 195.371 448.386 195.113 449.505 196.026C450.951 197.197 450.858 199.352 450.974 201.014C451.138 203.286 451.837 206.541 454.333 210.569C455.009 211.061 456.058 211.857 457.271 212.864C460.489 215.51 461.842 217.243 462.775 217.852C469.632 222.301 483.111 215.369 482.738 213.402C482.528 212.325 478.33 213.777 475.275 210.78C473.853 209.398 472.897 207.571 471.147 203.731C469.818 200.827 469.748 199.96 468.535 197.783C467.346 195.652 466.063 194.059 465.177 193.076C465.504 191.507 465.294 190.406 465.037 189.703C464.151 187.127 461.889 187.081 458.53 183.217C457.714 182.256 457.504 181.905 456.805 181.484C456.128 181.086 454.543 180.406 451.114 181.601Z" fill="url(#paint45_linear_0_7711)"/>
<path d="M448.386 180.079C448.176 179.915 447.663 179.399 447.476 178.58C447.29 177.69 447.546 176.566 448.012 176.449C448.176 176.425 448.316 176.496 448.386 176.542C449.388 177.175 450.321 178.416 450.858 179.517C451.138 180.079 451.464 180.406 451.767 180.617C452.234 180.898 452.467 180.898 452.77 181.086C453.68 181.624 454.146 183.591 453.353 184.411C452.584 185.207 451.044 184.575 450.018 184.153C449.715 184.036 448.479 183.521 448.526 182.959C448.549 182.772 448.712 182.678 449.318 182.116C449.668 181.788 449.948 181.53 450.135 181.343C450.088 181.249 450.065 181.132 449.948 181.039C449.832 180.945 449.692 180.851 449.668 180.734C449.412 180.641 448.875 180.5 448.386 180.079Z" fill="url(#paint46_linear_0_7711)"/>
<path opacity="0.3" d="M455.942 201.108C459.044 204.457 461.026 202.279 465.434 206.213C468.932 209.328 468.769 211.646 471.87 213.66C475.019 215.697 478.657 215.627 481.152 215.276C482.225 214.526 482.831 213.847 482.762 213.402C482.552 212.325 478.354 213.777 475.299 210.78C473.876 209.398 472.92 207.571 471.171 203.731C469.841 200.827 469.771 199.96 468.559 197.783C467.369 195.651 466.087 194.059 465.2 193.075C465.527 191.506 465.317 190.406 465.061 189.703C464.174 187.127 461.912 187.08 458.554 183.217C457.738 182.256 457.528 181.905 456.828 181.484C455.965 180.968 453.726 180.57 451.138 181.577C449.645 182.163 448.246 182.701 447.943 183.849C447.569 185.254 449.132 186.636 450.251 187.947C454.846 193.239 452.094 196.963 455.942 201.108Z" fill="url(#paint47_linear_0_7711)"/>
<path d="M450.065 179.142C449.808 178.673 449.482 178.299 449.482 178.299C449.319 178.111 449.202 177.994 449.202 177.994C448.572 177.362 448.246 177.409 447.873 176.917C447.266 176.144 447.406 175.137 447.43 174.927C447.593 173.779 448.432 173.123 448.922 172.749C449.155 172.561 449.668 172.163 450.461 171.952C451.161 171.765 452.07 171.695 453.913 172.304C456.152 173.053 457.691 174.107 457.878 174.247C462.542 177.479 462.728 178.088 464.268 178.954C469.025 181.624 472.034 178.392 474.996 180.828C477.887 183.217 477.631 188.439 476.745 191.46C476.395 192.607 474.739 197.595 470.168 199.258C463.988 201.529 457.481 195.839 454.683 192.069C452.747 189.446 451.907 186.823 451.534 185.16C451.511 185.16 451.161 181.179 450.065 179.142Z" fill="url(#paint48_linear_0_7711)"/>
<path d="M449.342 177.901C449.435 177.549 450.018 177.549 450.205 177.971C450.415 178.392 450.368 179.072 449.832 179.189C449.318 179.306 449.225 178.392 449.342 177.901Z" fill="url(#paint49_linear_0_7711)"/>
<path d="M617.413 7.713L618.592 6.2539C618.592 6.2539 619.454 4.86656 618.683 3.07259C617.912 1.27861 617.073 1.85268 617.073 1.85268L617.413 3.14435C617.413 3.14435 617.64 3.98153 616.937 5.08184C616.347 6.39742 616.302 7.37813 616.302 7.37813L617.413 7.713Z" fill="url(#paint50_linear_0_7711)"/>
<path d="M563.001 16.647L561.409 15.4487L560.566 13.12C560.566 13.12 558.811 13.9339 559.958 16.1044C560.637 16.8053 562.299 17.8001 563.024 18.8627C563.773 19.9028 563.001 16.647 563.001 16.647Z" fill="url(#paint51_linear_0_7711)"/>
<path d="M578.895 32.0447C578.895 32.0447 571.61 28.1827 569.8 26.7636C567.922 25.2746 562.813 19.3654 562.355 18.6675C561.897 17.9695 563.454 16.3643 563.454 16.3643C563.454 16.3643 572.297 26.0424 582.262 22.2502C580.888 26.0424 578.895 32.0447 578.895 32.0447Z" fill="url(#paint52_linear_0_7711)"/>
<path d="M582.262 92.222C582.262 92.222 581.29 95.5199 581.7 96.9073C580.404 96.9756 579.561 96.8618 579.561 96.8618C579.561 96.8618 579.971 95.3607 580.036 94.6329C580.101 93.6549 579.993 92.0628 579.993 92.0628L582.262 92.222Z" fill="url(#paint53_linear_0_7711)"/>
<path d="M597.048 98.6239C596.982 98.7449 596.851 98.9627 596.851 99.2774C596.851 99.4468 596.895 99.5679 596.938 99.6889C597.18 100.27 597.531 100.342 597.926 100.948C598.167 101.335 598.145 101.456 598.343 101.601C598.628 101.819 598.935 101.795 599.22 101.795C599.681 101.77 600.339 101.698 601.173 101.504C600.691 100.923 600.186 100.318 599.637 99.7131C599.396 99.4468 599.155 99.2048 598.935 98.9385L597.619 98.5513C597.421 98.5755 597.224 98.5997 597.048 98.6239Z" fill="#26264F"/>
<path d="M598.021 92.0628C598.021 92.0628 599.087 96.0153 598.18 97.2261C597.432 98.4142 598.611 97.5232 598.611 97.5232L600.176 98.7112L601.173 100.173C601.173 100.173 600.085 96.3123 600.176 94.7359C600.266 93.1594 600.312 92.1085 600.312 92.1085L598.021 92.0628Z" fill="url(#paint54_linear_0_7711)"/>
<path d="M588.574 21.4978C592.324 20.5626 597.902 22.1056 603.92 18.2715C609.868 14.5074 613.155 9.36402 615.053 6.09094C616.002 6.48839 616.974 6.88583 617.923 7.2599C616.557 10.1121 613.271 16.2609 608.688 20.7029C602.901 26.3139 596.883 27.062 593.898 31.504C592.231 30.0779 586.746 21.942 588.574 21.4978Z" fill="url(#paint55_linear_0_7711)"/>
<path d="M597.563 47.4571C597.563 47.4571 599.785 49.1728 600.363 56.9168C600.942 64.6377 601.173 81.4936 601.173 81.4936L600.479 93.6197C600.479 93.6197 598.836 93.8052 597.702 93.5502C596.383 89.0985 594.208 81.5632 594.509 75.0944C594.324 68.1155 590.598 59.6296 590.598 59.6296C590.598 59.6296 588.608 68.6488 587.058 73.2164C585.508 77.7607 582.962 91.8576 582.708 92.8778C580.533 93.2487 579.561 92.7387 579.561 92.7387C579.561 92.7387 579.861 77.7376 580.787 72.0107C581.69 66.2838 580.579 52.7202 582.499 48.6859C587.289 46.321 597.563 47.4571 597.563 47.4571Z" fill="url(#paint56_linear_0_7711)"/>
<path d="M597.563 47.4571C597.563 47.4571 599.785 49.1728 600.363 56.9168C600.942 64.6377 601.173 81.4936 601.173 81.4936L600.479 93.6197C600.479 93.6197 598.836 93.8052 597.702 93.5502C596.383 89.0985 594.208 81.5632 594.509 75.0944C594.324 68.1155 590.598 59.6296 590.598 59.6296C590.598 59.6296 588.608 68.6488 587.058 73.2164C585.508 77.7839 582.962 91.8576 582.708 92.8778C580.533 93.2487 579.561 92.7387 579.561 92.7387C579.561 92.7387 579.861 77.7376 580.787 72.0107C581.69 66.2838 580.579 52.7202 582.499 48.6859C587.289 46.321 597.563 47.4571 597.563 47.4571Z" fill="url(#paint57_linear_0_7711)"/>
<path opacity="0.25" d="M587.794 62.4562C587.445 66.7604 586.306 69.1568 583.236 72.3675C580.747 74.5313 583.049 78.6494 582.305 81.9997C582.049 83.0001 581.142 84.0704 580.886 85.0708C579.84 87.6068 581.212 90.5151 580.84 93.1441C579.979 93.0976 579.561 92.8882 579.561 92.8882C579.561 92.8882 579.863 77.8351 580.793 72.0883C581.7 66.3416 580.584 52.7309 582.515 48.6826C587.352 46.3328 597.679 47.4495 597.679 47.4495C597.679 47.4495 599.912 49.1712 600.493 56.9421C600.54 57.5703 600.586 58.2683 600.633 58.9895C598.586 61.0835 594.144 61.8512 591.236 59.8969C591.05 59.7806 590.888 59.7108 590.702 59.6875C590.702 59.6642 590.678 59.641 590.678 59.641C590.678 59.641 590.678 59.6642 590.678 59.6875C589.399 59.5712 587.98 61.2929 587.794 62.4562Z" fill="url(#paint58_linear_0_7711)"/>
<path d="M582.188 98.2201C582.188 98.2201 582.496 98.1979 582.496 98.5976C582.496 98.9973 582.759 100.352 581.223 100.53C579.665 100.707 579.424 100.552 579.38 100.552C579.336 100.552 579.687 99.1972 579.687 99.1972L580.126 98.5088L581.442 98.2645L582.188 98.2201Z" fill="#26264F"/>
<path d="M578.853 99.8412C578.853 99.5081 579.007 98.9751 579.16 98.531C579.38 97.887 579.138 97.665 579.358 97.0876C579.424 96.8877 579.511 96.6879 579.687 96.488C579.731 96.4436 580.126 95.9995 580.762 95.9773C580.894 95.9773 581.069 95.9773 581.289 96.0661C581.53 96.1772 581.684 96.3548 581.793 96.5324C581.969 96.7989 581.947 96.8655 582.254 97.6206C582.276 97.6872 582.342 97.8204 582.386 97.9981C582.43 98.1313 582.452 98.2645 582.452 98.3311C582.035 98.3534 580.477 98.5532 580.17 98.8197C579.862 99.0862 579.731 99.5081 579.753 99.93C579.775 100.352 579.599 100.552 579.38 100.552C579.182 100.552 578.809 100.241 578.853 99.8412Z" fill="#444B8C"/>
<path d="M598.194 96.9305C597.803 96.9537 597.535 97.2784 597.388 97.9975C597.217 98.7165 596.241 99.4124 597.437 99.1804C598.634 98.9485 599.635 100.503 600.099 101.082C600.587 101.662 601.784 102.103 601.71 101.523C601.637 100.943 601.1 100.711 600.905 100.108C600.734 99.5283 599.098 96.8609 598.194 96.9305Z" fill="#444B8C"/>
<path d="M585.118 21.5689C586.981 21.3827 591.685 20.5216 594.061 22.5697C596.483 24.6644 594.41 27.5504 595.085 31.2511C595.551 33.7647 595.551 35.2543 596.343 39.3506C596.506 40.1885 596.739 41.1194 597.088 42.2366C597.927 44.8899 599.417 50.1034 600.093 51.3835C598.276 52.5007 593.502 54.5954 587.633 54.1531C584.955 53.9437 582.742 53.2222 581.205 52.5472C582.369 47.869 581.624 41.6315 580.902 39.4204C579.482 35.0448 579.086 33.3225 575.499 27.1548C574.498 25.4557 576.617 26.2936 577.828 24.6411C579.645 22.1042 583.254 21.7551 585.118 21.5689Z" fill="url(#paint59_linear_0_7711)"/>
<path opacity="0.25" d="M591.344 33.0406C591.183 32.2347 590.93 30.7612 591.551 29.1495C591.643 28.8732 592.011 28.0213 592.724 27.2615C594.241 25.6498 596.356 25.5807 598.748 25.2354C600.495 24.9821 602.978 24.4756 606.036 23.3934C601.645 26.6399 597.414 27.8371 594.793 30.8072C594.816 31.0375 594.839 31.2677 594.885 31.498C595.345 33.9846 595.345 35.4581 596.127 39.5104C596.287 40.3393 596.517 41.2602 596.862 42.3654C597.69 44.9902 599.161 50.1476 599.828 51.4139C598.035 52.5191 593.321 54.5913 587.527 54.1538C584.883 53.9466 582.699 53.2329 581.182 52.5651C581.527 51.1607 581.71 49.595 581.756 48.0524C583.872 47.8912 586.93 47.3156 589.988 45.4737C591.712 44.4376 592.563 43.9311 593.023 42.8719C593.873 40.8919 592.517 39.1881 591.344 33.0406Z" fill="url(#paint60_linear_0_7711)"/>
<path d="M586.425 17.8438C586.144 16.4374 584.948 15.5936 584.666 15.4061C583.564 14.656 583.353 14.5857 583.001 14.5623L582.509 14.5154C582.509 14.5154 582.485 14.5154 582.462 14.5154C582.18 14.5623 581.359 14.9373 581.195 15.0779C580.726 15.453 581.266 17.8907 583.001 20.8441C583.071 21.102 583.165 21.3598 583.236 21.6176C581.946 21.9458 581.641 22.2036 581.641 22.3912C581.641 22.7896 583.118 23.2116 584.432 23.1412C586.097 23.0709 587.809 22.2271 587.738 21.688C587.715 21.477 587.387 21.2192 586.144 21.0551C585.933 20.7973 585.722 20.5629 585.51 20.305C585.698 20.0941 586.636 18.8986 586.425 17.8438Z" fill="url(#paint61_linear_0_7711)"/>
<path d="M582.931 13.5543C583.494 14.0231 583.681 14.8904 583.564 15.5467C583.494 15.9452 583.376 15.9921 583.423 16.2265C583.517 16.9297 584.83 17.1406 584.783 17.4922C584.76 17.7501 584.08 17.7032 583.986 18.0313C583.892 18.3829 584.643 18.6408 585.018 19.4846C585.088 19.6252 585.44 20.4222 585.088 20.9379C584.76 21.4067 583.963 21.3598 583.048 21.3129C582.04 21.266 581.313 21.0082 581.101 20.9379C580.421 20.7035 579.694 20.4456 579.061 19.7659C578.92 19.6018 578.029 18.6408 577.982 17.2109C577.935 15.3358 579.389 13.6246 580.984 13.2496C581.242 13.2262 582.251 12.9918 582.931 13.5543Z" fill="url(#paint62_linear_0_7711)"/>
<path d="M584.338 17.4687C583.939 17.2812 583.705 17.7735 583.892 18.1954C584.103 18.5939 584.713 18.8283 585.065 18.547C585.417 18.2657 584.854 17.7266 584.338 17.4687Z" fill="url(#paint63_linear_0_7711)"/>
<path d="M588.206 21.4307L587.257 21.2306C587.257 21.2306 587.115 22.4311 584.127 22.7868C582.467 22.898 581.329 22.0976 581.329 22.0976L580.641 22.4534C580.641 22.4534 582.254 24.0985 584.459 23.9207C587.328 23.6539 588.206 21.4307 588.206 21.4307Z" fill="url(#paint64_linear_0_7711)"/>
<path d="M681.374 272.61C688.174 271.786 689.576 273.387 696.494 273.081C703.294 272.775 703.761 271.127 709.323 271.457C714.324 271.763 720.751 273.504 720.774 275.387C720.797 277.459 713.062 280.377 705.654 279.318C701.541 278.73 701.822 277.529 697.872 277.011C690.721 276.093 688.618 279.906 681.374 279.083C677.191 278.612 672.821 276.776 672.891 275.387C673.008 273.622 680.159 272.751 681.374 272.61Z" fill="#D8DEE8"/>
<path d="M697.307 273.499C695.212 262.769 696.12 254.156 697.075 248.935C698.238 242.608 700.59 229.785 710.46 222.615C711.228 222.062 718.957 216.552 722.425 219.295C724.218 220.69 724.613 224.107 723.845 226.777C721.82 233.706 712.718 232.936 709.692 240.804C708.691 243.426 708.504 246.626 709.203 246.939C710.064 247.299 712.532 243.402 712.765 243.017C714.976 239.528 714.976 237.556 716.652 237.002C717.676 236.665 719.05 236.978 719.655 237.82C721.029 239.745 718.305 244.1 717.537 245.327C715.535 248.526 713.859 249.248 713.463 251.967C713.277 253.146 713.323 254.854 713.998 255.143C714.906 255.503 716.629 253.074 717.746 251.486C720.726 247.275 721.052 244.821 722.542 244.653C723.938 244.485 725.498 246.409 725.894 247.564C726.988 250.764 722.588 257.548 697.307 273.499Z" fill="url(#paint65_linear_0_7711)"/>
<path opacity="0.28" d="M697.61 271.671C697.307 261.711 698.867 253.795 700.264 248.599C702.079 241.934 705.501 229.4 715.092 223.962C715.767 223.577 720.796 220.739 722.192 222.254C723.124 223.265 722.309 226.056 720.935 227.884C718.584 231.036 715.884 229.785 712.066 232.864C708.621 235.631 707.434 239.36 707.131 240.322C706.014 243.931 706.596 247.035 706.759 248.19C707.341 252.544 706.13 259.666 697.61 271.671Z" fill="white"/>
<path opacity="0.28" d="M701.055 269.169C706.433 264.189 707.69 260.099 707.783 257.236C707.853 254.998 707.271 252.352 708.923 249.898C709.971 248.334 710.786 248.575 712.602 246.89C716.419 243.354 716.885 238.59 717.676 238.759C718.119 238.855 718.351 240.419 718.049 241.91C717.467 244.966 715.162 245.278 712.858 248.984C711.275 251.51 710.739 253.988 710.46 255.263C709.761 258.415 710.227 259.521 709.831 261.302C709.273 263.587 707.34 266.522 701.055 269.169Z" fill="white"/>
<path d="M700.398 275.336C709.775 275.892 712.557 276.471 716.977 274.926C721.115 273.477 725.371 270.579 724.997 269.275C724.74 268.333 722.121 268.333 720.578 268.357C716.392 268.381 712.955 269.709 710.546 270.965C712.627 269.516 714.709 268.043 716.79 266.594C718.239 266.063 720.695 264.927 722.892 262.512C724.249 261.015 727.405 256.909 726.213 254.953C724.974 252.9 719.128 253.311 715.761 256.233C714.147 257.634 714.147 258.697 711.973 261.136C710.009 263.358 707.974 264.758 706.548 265.604C707.881 263.865 709.705 261.16 711.131 257.537C713.282 252.007 714.919 243.24 712.16 241.646C710.336 240.584 706.735 242.757 704.934 245.341C703.485 247.442 703.625 249.181 702.62 255.895C702.175 258.817 701.754 261.16 701.474 262.633C698.691 256.33 697.873 251.017 697.709 247.104C697.499 242.081 698.294 238.169 696.447 237.106C694.786 236.164 691.84 237.999 690.344 239.69C684.264 246.597 692.284 262.802 693.126 264.469C690.905 262.73 687.842 260.001 684.849 256.064C681.669 251.862 680.336 248.722 678.722 248.988C677.109 249.278 676.057 252.804 676.174 255.533C676.501 263.164 686.158 267.632 687.187 268.091C686.369 268.236 685.012 268.357 683.376 268.043C679.775 267.343 678.652 265.072 675.004 264.324C673.602 264.034 670.749 263.72 670.398 264.613C669.767 266.207 676.969 272.221 685.714 274.515C688.917 275.361 688.146 274.612 700.398 275.336Z" fill="url(#paint66_linear_0_7711)"/>
<path opacity="0.28" d="M706.571 269.83C710.827 267.874 710.266 265.217 714.919 261.909C717.912 259.807 718.59 260.556 721.794 258.552C723.547 257.441 724.997 256.161 726.166 254.905L726.19 254.929C727.359 256.885 724.225 260.991 722.869 262.488C720.695 264.903 718.216 266.038 716.766 266.57C714.685 268.019 712.604 269.492 710.523 270.941C712.931 269.661 716.392 268.333 720.554 268.333C721.91 268.333 724.062 268.309 724.763 268.936C723.5 269.733 722.378 270.12 721.466 270.313C719.362 270.748 718.052 270.265 716.252 271.4C714.802 272.293 714.919 273.066 713.633 273.573C712.44 274.032 711.809 273.549 708.839 273.042C705.94 272.559 704.49 272.318 703.321 273.09C702.433 273.67 701.965 274.612 701.708 275.433C701.404 275.409 701.1 275.385 700.796 275.385C701.03 274.443 701.45 273.332 702.269 272.366C703.578 270.796 704.981 270.555 706.571 269.83Z" fill="white"/>
<path opacity="0.28" d="M694.412 273.211C693.734 273.042 693.407 273.549 692.471 273.67C690.741 273.912 690.086 272.414 688.029 271.714C685.62 270.869 684.989 272.438 682.581 271.665C680.663 271.062 680.92 270.047 678.418 268.55C675.776 266.98 674.654 267.608 672.69 266.304C672.058 265.893 671.357 265.266 670.679 264.3C671.544 263.817 673.789 264.082 674.958 264.324C678.605 265.097 679.728 267.343 683.329 268.043C684.942 268.357 686.322 268.212 687.14 268.091C686.111 267.632 676.478 263.164 676.127 255.533C676.01 252.997 676.922 249.785 678.325 249.109C678.161 250.872 678.138 252.369 678.161 253.552C678.231 256.306 678.278 257.706 679.12 258.866C680.593 260.87 682.37 259.832 684.802 261.884C687.023 263.768 686.252 265.241 688.567 267.125C690.554 268.767 691.747 268.164 693.617 269.492C694.786 270.313 696.213 271.883 697.078 275.167C696.68 275.143 696.306 275.143 695.956 275.119C695.652 274.177 695.137 273.38 694.412 273.211Z" fill="white"/>
<path opacity="0.28" d="M696.517 262.826C695.348 259.542 693.313 259.88 692.472 256.982C691.63 254.108 693.477 253.214 693.009 249.06C692.659 245.945 691.513 245.486 691.443 243.361C691.396 241.791 691.934 239.642 694.412 236.985C695.161 236.792 695.885 236.792 696.447 237.106C698.294 238.144 697.499 242.081 697.709 247.104C697.873 251.017 698.691 256.33 701.474 262.633C701.754 261.184 702.175 258.817 702.62 255.895C703.625 249.181 703.485 247.418 704.935 245.341C706.735 242.757 710.336 240.584 712.16 241.646C712.253 241.695 712.37 241.767 712.44 241.864C711.528 242.491 710.71 243.288 709.985 244.254C707.6 247.539 708.956 249.906 706.782 256.426C704.701 262.681 702.573 263.068 700.889 268.478C700.352 270.192 699.837 272.487 699.744 275.361C699.136 275.336 698.551 275.288 698.013 275.264C697.382 273.139 697.078 271.231 696.961 269.613C696.68 266.014 697.312 265.048 696.517 262.826Z" fill="white"/>
<path d="M166.294 272.908C109.06 282.718 91.459 275.108 86.2604 265.99C83.2403 260.678 82.9184 252.253 74.3036 241.603C67.0504 232.634 62.8667 233.203 59.7476 226.309C54.351 214.375 64.6491 207.679 60.4407 196.141C55.8363 183.49 41.404 185.714 35.1409 170.617C31.7247 162.365 35.7351 160.956 32.6902 152.729C26.4766 135.952 8.15781 137.41 2.06804 122.264C-1.47195 113.443 0.359929 102.052 6.17739 95.3319C17.8618 81.866 45.8599 87.03 61.7033 99.5076C63.7332 101.114 79.1061 113.566 80.5915 132.023C81.4826 143.167 76.6801 148.355 80.641 155.125C86.2356 164.687 98.8855 159.647 104.431 168.122C111.956 179.636 94.1078 197.104 102.698 210.076C106.015 215.092 109.555 213.733 112.872 219.49C118.343 228.953 111.956 238.045 113.219 245.927C114.58 254.427 125.25 264.755 166.294 272.908Z" fill="url(#paint67_linear_0_7711)"/>
<path opacity="0.28" d="M60.416 125.846C67.8426 142.944 55.7373 153.766 64.4264 167.257C71.4816 178.227 82.6214 175.979 85.6663 186.183C88.5874 195.968 79.1557 200.687 81.7302 211.855C83.8592 221.071 91.0134 221.096 98.1677 233.005C105.371 244.988 102.45 252.178 106.164 259.492C110.124 267.349 121.388 274.712 151.713 275.157C156.268 274.539 161.12 273.798 166.294 272.909C125.25 264.755 114.556 254.427 113.219 245.952C111.956 238.07 118.343 229.002 112.872 219.514C109.555 213.757 106.015 215.092 102.698 210.101C94.1078 197.154 111.956 179.66 104.431 168.146C98.8856 159.647 86.2357 164.712 80.641 155.15C76.6802 148.38 81.4827 143.191 80.5915 132.048C79.1062 113.591 63.758 101.138 61.7033 99.5323C45.86 87.0547 17.8866 81.8908 6.17744 95.3566C6.12793 95.4308 6.07842 95.4802 6.00415 95.5543C13.8268 95.8261 23.407 97.4321 33.3339 102.151C41.0575 105.808 54.4995 112.208 60.416 125.846Z" fill="white"/>
<path d="M147.901 278.814C128.542 273.897 123.047 267.942 122.205 262.951C120.819 254.773 131.958 249.732 130.473 240.393C128.74 229.645 112.526 227.421 113.021 220.355C113.565 212.72 132.676 213.263 136.612 202.268C140.177 192.311 126.388 186.505 126.512 172.026C126.636 154.755 146.391 150.678 149.856 131.01C152.233 117.569 145.376 106.154 139.979 97.2097C127.874 77.048 102.995 57.4545 74.8234 59.4312C70.9864 59.7029 48.5582 61.2843 43.013 74.4042C37.3936 87.6971 50.8109 108.748 64.5748 119.916C74.5264 127.996 82.8936 129.454 83.3145 135.828C83.9086 144.402 69.1297 147.54 67.7187 160.067C66.976 166.689 70.3675 172.322 73.7094 177.881C81.2845 190.483 88.6863 190.013 89.7508 196.981C91.2361 206.543 77.8683 210.422 74.8977 224.728C72.7935 234.908 77.3237 243.778 79.8735 248.769C89.8498 268.263 116.66 279.407 147.901 278.814Z" fill="url(#paint68_linear_0_7711)"/>
<path opacity="0.7" d="M35.9085 67.733C48.1376 73.1935 60.3419 78.7528 72.4966 84.3862C78.5864 87.1782 84.6514 90.0197 90.6669 92.9846C93.6871 94.4671 96.6825 95.9496 99.6778 97.5062C102.673 99.0381 105.619 100.669 108.515 102.398C111.387 104.177 114.283 106.055 116.61 108.798C117.749 110.181 118.591 111.886 118.962 113.665C119.333 115.42 119.383 117.248 119.036 119.002C118.715 120.756 118.046 122.437 117.229 123.968C116.388 125.5 115.397 126.909 114.333 128.243C112.229 130.936 109.877 133.358 107.649 135.828C105.421 138.299 103.267 140.819 101.485 143.562C100.619 144.946 99.8264 146.354 99.2075 147.861C98.6134 149.344 98.1183 150.9 97.8459 152.482C97.3261 155.644 97.5489 158.93 98.5143 161.994C99.5045 165.058 101.361 167.751 103.416 170.345L104.975 172.322L105.768 173.31L106.51 174.348C107.03 175.015 107.451 175.781 107.921 176.498L108.54 177.659L108.837 178.227C108.936 178.425 109.011 178.623 109.085 178.82L109.58 180.031C109.728 180.451 109.827 180.871 109.951 181.291C110.05 181.711 110.224 182.131 110.273 182.576L110.471 183.885L110.57 184.528C110.595 184.75 110.595 184.973 110.595 185.17L110.62 186.48L110.644 187.122L110.595 187.765C110.57 188.209 110.545 188.629 110.471 189.049C110.248 190.779 109.827 192.484 109.184 194.09C108.54 195.696 107.699 197.228 106.733 198.661C104.852 201.527 102.5 203.973 100.916 206.765C100.123 208.149 99.5293 209.656 99.2817 211.188C99.0342 212.744 99.0837 214.35 99.3808 215.907C99.6778 217.464 100.247 218.971 101.039 220.379C101.832 221.763 102.822 223.072 103.911 224.308C106.089 226.779 108.664 228.978 110.768 231.695C111.808 233.054 112.724 234.562 113.343 236.192C113.937 237.823 114.234 239.577 114.234 241.307C114.234 243.036 113.912 244.791 113.293 246.421C112.65 248.052 111.709 249.51 110.818 250.894C109.926 252.277 109.06 253.686 108.812 255.218C108.515 256.749 108.887 258.331 109.605 259.739C110.347 261.147 111.412 262.408 112.625 263.519C113.838 264.631 115.15 265.62 116.536 266.534C119.309 268.337 122.279 269.869 125.324 271.253C131.414 273.996 137.751 276.17 144.138 278.147C150.55 280.099 157.011 281.853 163.497 283.484L163.472 283.558C156.937 282.05 150.426 280.444 143.99 278.567C137.553 276.689 131.166 274.589 125.002 271.92C121.908 270.586 118.888 269.079 116.041 267.275C114.605 266.361 113.244 265.373 111.981 264.211C110.719 263.075 109.555 261.765 108.713 260.209C107.897 258.652 107.451 256.824 107.798 255.045C108.07 253.241 109.035 251.709 109.926 250.301C110.842 248.892 111.709 247.509 112.278 246.001C112.848 244.494 113.12 242.913 113.095 241.307C113.095 239.701 112.798 238.095 112.229 236.612C111.659 235.13 110.818 233.722 109.803 232.461C107.798 229.892 105.223 227.717 102.946 225.197C101.807 223.937 100.742 222.578 99.8511 221.071C98.9847 219.564 98.341 217.908 97.9945 216.179C97.6479 214.474 97.5736 212.695 97.8459 210.941C98.1183 209.186 98.7619 207.506 99.6283 205.999C101.336 202.96 103.663 200.489 105.446 197.747C106.362 196.388 107.129 194.955 107.723 193.472C108.317 191.99 108.689 190.408 108.887 188.827C108.936 188.432 108.986 188.036 108.986 187.616L109.011 187.023L108.986 186.43L108.961 185.22C108.961 185.022 108.961 184.824 108.936 184.627L108.837 184.034L108.664 182.848C108.614 182.452 108.466 182.082 108.367 181.686C108.243 181.316 108.169 180.92 108.02 180.55L107.575 179.438C107.5 179.265 107.426 179.067 107.352 178.894L107.08 178.351L106.51 177.288C106.065 176.621 105.669 175.905 105.149 175.262L104.431 174.274L103.663 173.286L102.104 171.334C99.9996 168.715 97.9945 165.799 96.8805 162.464C95.816 159.128 95.5685 155.595 96.1131 152.136C96.4101 150.406 96.93 148.751 97.5736 147.145C98.242 145.539 99.0837 144.031 99.9749 142.574C101.832 139.683 104.035 137.088 106.287 134.593C108.54 132.097 110.842 129.676 112.848 127.082C114.853 124.512 116.61 121.695 117.155 118.632C117.427 117.1 117.403 115.543 117.081 114.011C116.759 112.504 116.091 111.12 115.125 109.91C113.095 107.513 110.323 105.635 107.525 103.906C101.856 100.471 95.8655 97.4568 89.8995 94.4177C83.9088 91.428 77.9428 88.4136 71.9025 85.5228C59.8467 79.6917 47.8157 73.7865 35.8342 67.7824L35.9085 67.733Z" fill="white"/>
<path d="M136.811 273.625C132.132 276.046 124.507 279.629 114.655 282.446C94.3554 288.228 59.4506 292.255 47.4443 276.615C45.959 274.688 42.0725 269.598 42.5923 263.322C43.1369 256.799 47.9642 254.773 47.2463 250.696C46.2561 245.112 36.6511 245.532 27.0708 239.133C18.9511 233.697 9.17284 222.183 10.1135 208.668C11.1533 193.843 24.4468 185.393 25.9073 184.503C35.7351 178.474 50.8853 176.3 60.3666 183.91C68.7586 190.631 69.526 202.491 70.0458 210.323C71.2093 228.039 63.8075 235.995 69.1299 242.196C74.0067 247.855 82.2501 243.679 88.1666 251.215C90.6916 254.427 89.9737 256.206 93.9346 262.506C96.9299 267.275 100.148 270.759 101.485 271.994C111.783 281.507 134.781 274.292 136.811 273.625Z" fill="url(#paint69_linear_0_7711)"/>
<path opacity="0.5" d="M124.086 279.654C114.432 279.654 104.827 279.011 95.4197 277.776C66.9265 273.971 63.6836 267.572 62.6191 265.471C60.9605 262.185 61.2576 259.443 61.5794 256.527C61.926 253.29 62.2973 249.955 60.1684 245.334C58.2375 241.109 55.7124 239.157 53.2617 237.255C50.8604 235.377 48.3602 233.45 46.5283 229.398C44.1765 224.184 44.8697 219.984 45.6371 215.512C46.0579 213.09 46.4788 210.57 46.4293 207.753C46.256 196.66 38.5819 185.294 23.605 173.953L23.9763 173.459C39.1017 184.923 46.8748 196.437 47.0481 207.729C47.0976 210.595 46.652 213.14 46.256 215.586C45.5133 219.959 44.8202 224.061 47.0976 229.101C48.88 233.005 51.1822 234.809 53.633 236.711C56.1333 238.663 58.7078 240.665 60.713 245.038C62.8914 249.831 62.5201 253.414 62.1735 256.577C61.8765 259.393 61.5794 262.062 63.1638 265.175C64.1787 267.201 67.3226 273.378 95.494 277.158C109.456 279.011 123.839 279.506 138.221 278.591L138.271 279.209C133.543 279.506 128.814 279.654 124.086 279.654Z" fill="white"/>
<path d="M285.14 159.363C284.727 159.086 284.177 158.67 283.867 158.005C283.523 157.312 283.764 157.007 283.351 156.564C282.835 156.009 281.735 155.787 280.978 156.037C280.806 156.092 280.634 156.176 280.496 156.342C280.152 156.785 280.909 157.562 281.494 157.977C281.941 158.282 282.113 158.255 282.595 158.532C283.042 158.781 283.627 159.253 284.074 160.056L285.14 159.363Z" fill="url(#paint70_linear_0_7711)"/>
<path d="M263.263 155.417C263.69 155.294 264.259 155.048 264.772 154.494C265.312 153.91 265.255 153.51 265.739 153.202C266.365 152.833 267.276 152.956 267.76 153.51C267.845 153.633 267.959 153.756 267.988 153.971C268.073 154.555 267.191 155.078 266.565 155.294C266.109 155.447 265.967 155.386 265.512 155.478C265.056 155.57 264.43 155.847 263.747 156.524L263.263 155.417Z" fill="url(#paint71_linear_0_7711)"/>
<path d="M265.087 156.4C265.361 157.751 263.898 158.952 262.8 160.154C260.635 162.527 258.379 166.761 259.202 170.426C259.659 172.408 261.092 174.57 263.166 175.592C265.361 176.703 266.703 175.682 268.99 177.003C269.173 177.093 272.07 178.805 272.131 181.088C272.222 183.911 268.014 186.915 264.416 187.125C257.83 187.545 249.902 178.925 250.267 170.366C250.664 161.055 260.848 153.636 263.776 154.898C264.264 155.048 264.934 155.619 265.087 156.4Z" fill="url(#paint72_linear_0_7711)"/>
<path d="M268.381 252.551L268.585 254.848L267.538 254.671L266.811 252.493L268.381 252.551Z" fill="url(#paint73_linear_0_7711)"/>
<path d="M260.898 208.924C261.021 213.157 261.541 216.756 262.184 219.719C262.857 222.894 263.255 223.439 263.469 225.646C263.929 230.424 262.368 231.12 262.092 236.502C261.786 242.459 263.378 247.207 264.02 249.021C264.571 250.594 265.153 251.864 265.582 252.771C266.133 253.255 266.99 253.073 267.877 252.892C268.214 247.479 268.612 242.399 268.949 236.986C270.02 228.852 271.061 220.717 272.132 212.583C268.367 211.313 264.633 210.134 260.898 208.924Z" fill="url(#paint74_linear_0_7711)"/>
<path opacity="0.3" d="M267.866 252.896C268.203 247.479 268.602 242.395 268.94 236.978C270.014 228.837 271.058 220.696 272.132 212.555C268.388 211.345 264.643 210.134 260.898 208.924C260.898 209.196 260.929 209.469 260.929 209.741C266.178 214.25 267.221 217.791 267.16 220.242C267.098 223.178 265.472 224.661 265.779 228.928C265.993 231.984 266.945 232.529 266.945 235.283C266.945 238.824 265.41 240.821 264.643 242.879C263.906 244.876 263.661 247.66 265.073 251.655C265.257 252.079 265.441 252.442 265.594 252.745C266.116 253.259 266.976 253.077 267.866 252.896Z" fill="url(#paint75_linear_0_7711)"/>
<path d="M268.551 255.85C268.013 255.158 267.508 255.191 267.413 254.73C267.35 254.367 267.571 253.906 267.919 253.741C268.393 253.511 268.962 253.906 269.088 254.005C269.942 254.598 269.689 255.521 270.511 255.949C270.669 256.048 270.921 256.114 271.206 256.41C271.332 256.542 271.617 256.806 271.522 257.003C271.427 257.234 270.921 257.201 270.416 257.201C269.815 257.168 269.531 257.168 269.246 256.97C268.835 256.674 268.962 256.41 268.551 255.85Z" fill="url(#paint76_linear_0_7711)"/>
<path d="M269.176 235.884L266.884 236.596L266.22 235.779L268.013 234.83L269.176 235.884Z" fill="url(#paint77_linear_0_7711)"/>
<path d="M265.891 237.06C266.003 236.328 265.665 236.03 265.919 235.704C266.116 235.46 266.539 235.352 266.849 235.46C267.271 235.623 267.384 236.193 267.384 236.328C267.525 237.196 266.792 237.548 267.018 238.308C267.074 238.47 267.159 238.66 267.159 238.986C267.159 239.121 267.13 239.474 266.99 239.528C266.792 239.609 266.511 239.257 266.201 238.931C265.863 238.552 265.694 238.362 265.637 238.064C265.581 237.684 265.806 237.63 265.891 237.06Z" fill="url(#paint78_linear_0_7711)"/>
<path d="M278.073 205.391C281.964 213.045 283.271 219.433 283.758 223.614C284.092 226.293 284.062 227.941 283.241 229.619C280.383 235.595 270.412 235.978 268.892 236.007C268.405 235.006 267.889 234.035 267.402 233.034C268.314 231.385 269.925 229.089 272.661 227.441C274.759 226.145 275.58 226.44 276.127 225.557C278.225 222.083 266.855 214.606 268.557 209.601C269.135 207.923 271.415 206.186 278.073 205.391Z" fill="url(#paint79_linear_0_7711)"/>
<path d="M269.604 177.381C273.769 178.1 276.937 178.818 278.355 181.004C279.864 183.28 277.48 185.016 276.816 190.017C275.82 197.682 280.287 200.557 278.989 208.282C278.778 209.539 278.476 210.677 278.114 211.635C277.51 213.312 276.364 214.749 274.825 215.678C273.678 216.396 272.29 217.115 270.66 217.684C266.436 219.151 264.354 218.282 258.68 218.612C249.386 219.151 247.998 221.816 243.803 220.169C239.579 218.522 236.501 214.031 237.406 212.114C237.949 210.977 239.639 211.695 242.083 210.288C245.222 208.461 244.709 205.976 247.244 203.85C250.895 200.796 254.425 203.88 257.564 201.215C260.732 198.521 261.094 191.993 259.767 188.101C258.892 185.555 258.861 182.801 258.228 180.196C258.167 179.986 258.137 179.627 258.258 179.238C258.771 177.74 261.547 177.441 263.629 177.261C266.828 176.932 269.272 177.321 269.604 177.381Z" fill="url(#paint80_linear_0_7711)"/>
<path opacity="0.3" d="M244.863 216.762C246.162 215.937 245.467 213.552 247.37 212.285C249.152 211.107 250.511 212.639 253.139 211.873C256.492 210.872 256.311 207.721 259.512 206.719C261.808 206.013 262.503 207.426 265.825 207.485C269.147 207.544 273.497 206.219 276.245 202.773C277.423 201.33 278.058 199.769 278.42 198.326C279.296 201.124 280.263 203.833 279.598 207.897C279.326 209.546 278.843 210.96 278.39 212.079C277.967 213.11 277.242 213.993 276.276 214.641C275.007 215.495 273.316 216.438 271.262 217.145C267.033 218.588 264.949 217.734 259.271 218.057C249.968 218.588 248.578 221.209 244.38 219.589C241.662 218.558 239.427 216.379 238.43 214.435C242.085 217.086 243.927 217.38 244.863 216.762Z" fill="url(#paint81_linear_0_7711)"/>
<path d="M272.316 170.065C272.316 170.065 273.415 172.189 273.472 173.685C273.53 175.181 271.912 175.061 271.912 175.061L271.969 176.018C272.027 176.826 272.519 177.514 273.27 177.813L273.906 178.052C273.906 178.052 269.715 178.98 267.402 177.304L268.067 177.245C268.992 177.155 269.744 176.377 269.83 175.42L269.859 175.001C269.888 175.001 269.165 170.335 272.316 170.065Z" fill="url(#paint82_linear_0_7711)"/>
<path d="M283.104 160.031C282.457 161.259 283.515 162.817 284.191 164.256C285.543 167.132 286.483 171.807 284.749 175.073C283.78 176.871 281.87 178.519 279.695 178.939C277.345 179.388 276.404 178.07 273.936 178.699C273.76 178.759 270.616 179.598 269.911 181.755C269.059 184.422 272.144 188.437 275.405 189.636C281.4 191.824 291.067 185.711 293.035 177.38C295.18 168.331 287.746 158.472 284.72 158.892C284.25 158.982 283.456 159.341 283.104 160.031Z" fill="url(#paint83_linear_0_7711)"/>
<path d="M271.646 172.001C271.403 171.971 271.221 171.699 271.07 171.789C270.918 171.88 270.918 172.303 271.07 172.605C271.191 172.847 271.373 172.998 271.494 173.058C271.312 173.3 271.1 173.693 271.009 174.176C270.797 175.264 271.373 176.14 271.616 176.653C272.708 178.979 271.009 182.635 269.128 184.478C267.611 185.988 266.913 185.384 266.003 186.592C264.243 188.979 266.67 191.607 265.76 194.84C264.364 199.734 256.627 201.184 256.293 201.244C256.172 201.274 256.081 201.274 255.959 201.305C252.47 201.848 247.19 202.694 243.489 199.854C240.697 197.74 239.423 194.024 239.635 190.761C239.696 189.915 239.939 186.653 242.609 183.994C243.034 183.571 245.552 181.064 248.92 181.034C250.71 181.003 251.074 181.638 252.44 181.245C254.321 180.701 255.474 179.01 256.202 177.952C257.537 176.019 256.991 175.596 257.932 174.659C259.782 172.786 261.967 174.267 263.97 172.605C265.942 170.974 264.759 168.768 266.64 167.379C268.582 165.929 272.314 166.442 273.133 168.164C273.831 169.645 272.344 172.061 271.646 172.001Z" fill="url(#paint84_linear_0_7711)"/>
<path d="M156.556 235.43C158.846 234.761 161.916 238.931 164.467 242.405C168.292 247.578 172.742 253.652 171.545 260.91C170.374 268.065 164.154 273.651 162.385 272.853C160.876 272.183 163.79 267.345 161.552 260.91C159.757 255.711 156.79 255.711 154.786 250.615C152.314 244.284 153.719 236.228 156.556 235.43Z" fill="#E9CAFF"/>
<path d="M157.116 268.232C168.9 271.071 176.686 275.639 181.203 278.891C183.668 280.646 184.784 281.73 185.407 283.33C188.911 292.414 170.95 306.118 169.03 307.563C168.199 305.628 167.368 303.692 166.512 301.757C168.355 291.64 171.443 288.466 174.039 287.511C174.766 287.253 175.986 286.969 175.96 286.633C175.908 285.833 169.082 286.969 162.567 284.595C156.078 282.22 149.537 276.259 150.705 272.31C150.965 271.587 151.847 269.497 157.116 268.232Z" fill="url(#paint85_linear_0_7711)"/>
<path d="M169.282 334.567C169.282 334.567 168.214 334.949 168.214 335.817C168.214 336.658 169.308 340.433 170.503 341.76C171.698 343.086 171.8 341.097 171.724 339.821C171.648 338.546 171.342 335.664 171.037 335.102C170.732 334.541 169.282 334.567 169.282 334.567Z" fill="url(#paint86_linear_0_7711)"/>
<path opacity="0.3" d="M171.829 281.654C173.963 281.602 178.925 281.214 180.236 283.695C181.341 285.761 179.413 288.887 178.205 290.799C174.966 296.018 171.829 296.56 169.618 299.764C168.77 301.004 167.999 302.735 167.742 305.215C167.279 304.104 166.791 303.019 166.328 301.908C168.153 291.781 171.212 288.603 173.783 287.647C174.503 287.389 175.711 287.105 175.686 286.769C175.634 285.968 168.873 287.105 162.42 284.728C156.559 282.584 150.697 277.417 150.569 273.516C159.875 280.233 166.868 281.757 171.829 281.654Z" fill="url(#paint87_linear_0_7711)"/>
<path d="M168.214 331.044C168.267 332.387 168.399 333.498 168.505 334.324C168.743 336.158 168.954 336.881 169.245 337.526C169.509 338.095 170.143 339.36 170.433 339.257C170.75 339.179 170.433 337.785 170.196 333.911C170.169 333.343 170.064 331.561 170.064 331.561L168.214 331.044Z" fill="url(#paint88_linear_0_7711)"/>
<path d="M150.616 269.262C157.395 273.332 161.793 277.944 164.355 281.061C167.382 284.745 171.962 290.362 173.618 298.709C174.498 303.166 174.058 307.16 173.152 314.966C172.246 322.721 170.953 329.033 169.944 333.361C169.426 333.567 168.909 333.773 168.391 333.979C166.994 331.429 165.183 327.384 164.51 322.231C163.449 313.781 166.606 311.101 165.079 305.099C163.76 299.894 159.93 296.725 152.272 290.362C145.984 285.132 140.188 282.015 138.041 275.496C137.679 274.389 137.368 273.023 137.963 271.786C139.283 269.107 144.199 268.18 150.616 269.262Z" fill="url(#paint89_linear_0_7711)"/>
<path d="M143.847 234.672C145.605 234.284 148.501 234.362 151.242 232.193C152.07 231.548 155.018 229.225 154.655 225.92C154.345 223.003 151.578 221.455 151.242 221.274C149.277 220.19 147.338 220.448 145.166 220.732C142.373 221.119 141.442 221.868 139.477 222.41C134.667 223.7 133.038 220.99 128.177 221.222C121.971 221.506 121.428 226.075 116.231 226.204C110.361 226.334 109.249 220.603 103.457 219.648C95.4408 218.305 83.2875 226.927 83.5203 236.866C83.6496 242.597 87.942 249.179 93.4239 251.167C96.6044 252.329 100.043 251.941 101.026 254.032C101.724 255.504 100.147 256.64 100.302 259.221C100.483 262.525 103.353 264.848 103.819 265.236C108.085 268.721 117.704 266.965 124.247 262.035C136.089 253.129 134.305 236.737 143.847 234.672Z" fill="url(#paint90_linear_0_7711)"/>
<path d="M131.582 234.538C135.548 234.048 140.106 233.687 145.206 233.61C155.945 233.455 157.465 234.822 157.877 235.828C158.598 237.71 157.362 238.638 158.057 241.939C158.495 243.899 158.083 244.802 158.907 246.89C159.705 248.953 159.087 250.036 158.366 254.858C157.465 261.022 157.027 264.142 158.752 266.617C159.937 268.345 161.276 268.5 161.147 269.299C160.864 271.053 154.838 270.073 147.215 273.425C145 274.405 142.965 275.591 141.265 276.597C137.273 278.944 136.527 279.846 134.698 280.903C128.852 284.256 120.07 284.591 115.46 280.517C113.734 278.995 112.498 276.778 113.065 275.952C113.837 274.844 117.263 277.371 120.405 275.823C122.491 274.792 122.104 273.167 124.5 271.208C127.41 268.861 129.419 270.099 131.376 268.577C134.441 266.205 133.05 260.532 132.2 250.99C131.839 247.071 131.479 241.449 131.582 234.538Z" fill="#F0DCFF"/>
<path d="M143.453 232.288C142 233.195 139.655 234.387 139.4 234.724C139.145 235.035 146.486 236.331 151.074 233.972C151.074 233.972 151.788 233.583 149.035 233.013C148.449 232.884 148.55 231.743 148.652 230.525L148.092 229.489C148.066 229.489 144.906 231.355 143.453 232.288Z" fill="url(#paint91_linear_0_7711)"/>
<path d="M147.346 228.169C147.346 228.169 146.711 230.505 149.055 231.673C151.15 232.72 154.678 228.461 154.017 226.879C153.796 226.343 152.997 225.686 152.197 225.443C151.618 225.272 149.413 225.345 148.476 226.976C148.228 226.489 147.787 226.246 147.483 226.319C147.097 226.416 147.042 227.025 147.042 227.146C147.015 227.633 147.235 227.998 147.346 228.169Z" fill="url(#paint92_linear_0_7711)"/>
<path opacity="0.3" d="M150.607 267.818C148.368 268.75 148.082 270.718 144.983 271.857C142.042 272.945 141.052 271.573 138.11 272.479C133.684 273.825 132.018 278.071 131.341 277.657C130.716 277.294 131.315 273.23 134.153 270.615C137.407 267.611 140.922 268.983 143.005 265.851C143.812 264.634 144.437 262.692 143.734 261.19C142.77 259.171 140.271 259.87 138.943 258.187C136.548 255.184 142.146 249.721 140.61 245.138C140.011 243.3 138.058 240.996 131.784 239.468C131.862 244.077 132.148 247.934 132.409 250.86C133.294 260.44 134.7 266.135 131.575 268.517C129.571 270.045 127.54 268.802 124.624 271.158C122.177 273.1 122.593 274.757 120.485 275.793C117.308 277.346 113.846 274.809 113.065 275.922C112.492 276.751 113.767 278.977 115.486 280.505C120.146 284.595 129.024 284.259 134.934 280.893C136.808 279.832 137.537 278.925 141.573 276.569C143.291 275.56 145.348 274.369 147.587 273.385C153.002 271.029 157.61 270.796 159.98 270.252C155.293 267.119 152.429 267.068 150.607 267.818Z" fill="url(#paint93_linear_0_7711)"/>
<path d="M169.659 272.284L145.342 273.497C145.007 273.523 144.697 273.708 144.517 273.998L143.846 275.106C143.511 275.66 143.923 276.372 144.542 276.345L170.278 275.343L169.659 272.284Z" fill="#97A6B7"/>
<path d="M194.956 258.438L169.839 258.939C169.092 258.965 168.421 259.361 168.06 260.02L159.37 275.66L185.905 274.578C186.627 274.552 187.297 274.156 187.684 273.497L195.73 259.73C196.039 259.15 195.626 258.411 194.956 258.438Z" fill="#97A6B7"/>
<path opacity="0.3" d="M168.034 260.02C168.395 259.361 169.092 258.939 169.814 258.939H170.355C170.432 259.756 170.69 260.521 171.18 261.128C172.728 263.027 175.306 261.866 177.214 263.871C179.329 266.086 177.369 268.75 179.252 270.807C181.237 272.996 184.435 271.202 188.122 272.6L187.581 273.497C187.194 274.13 186.549 274.552 185.802 274.578L159.267 275.66L168.034 260.02Z" fill="#97A6B7"/>
<path d="M147.841 270.76C148.153 269.937 148.492 269.089 148.804 268.266C145.263 267.315 140.394 265.902 135.368 264.128C134.118 263.691 133.675 263.126 133.337 262.689C130.759 259.322 137.295 253.385 137.191 245.7C137.113 240.354 133.832 234.262 130.941 234.185C125.082 234.057 112.141 258.628 123.025 269.115C128.467 274.332 138.571 274.949 147.841 270.76Z" fill="#F7ECFF"/>
<path d="M149.371 268.757C151.567 267.556 154.203 268.783 154.384 268.863C154.874 269.103 155.572 269.53 156.27 270.277C156.347 270.384 157.303 271.745 156.968 272.199C156.683 272.545 155.598 272.252 154.306 271.425C153.763 271.345 152.962 271.265 151.98 271.371C150.197 271.531 149.396 272.119 148.75 271.612C148.285 271.238 148.104 270.464 148.285 269.904C148.466 269.263 149.009 268.97 149.371 268.757Z" fill="url(#paint94_linear_0_7711)"/>
<defs>
<linearGradient id="paint0_linear_0_7711" x1="-15.1595" y1="102.355" x2="-15.698" y2="333.751" gradientUnits="userSpaceOnUse">
<stop stop-color="white"/>
<stop offset="1" stop-color="#808087"/>
</linearGradient>
<linearGradient id="paint1_linear_0_7711" x1="620.868" y1="131.273" x2="684.277" y2="204.718" gradientUnits="userSpaceOnUse">
<stop stop-color="#FFC444"/>
<stop offset="0.9964" stop-color="#F36F56"/>
</linearGradient>
<linearGradient id="paint2_linear_0_7711" x1="620.042" y1="35.9063" x2="657.731" y2="140.597" gradientUnits="userSpaceOnUse">
<stop stop-color="#AA80F9"/>
<stop offset="0.9964" stop-color="#6165D7"/>
</linearGradient>
<linearGradient id="paint3_linear_0_7711" x1="607.95" y1="151.303" x2="598.916" y2="263.355" gradientUnits="userSpaceOnUse">
<stop offset="0.00359712" stop-color="#E38DDD"/>
<stop offset="1" stop-color="#9571F6"/>
</linearGradient>
<linearGradient id="paint4_linear_0_7711" x1="401.847" y1="42.5851" x2="340.003" y2="272.092" gradientUnits="userSpaceOnUse">
<stop stop-color="#AB316D"/>
<stop offset="1" stop-color="#792D3D"/>
</linearGradient>
<linearGradient id="paint5_linear_0_7711" x1="613.441" y1="86.6778" x2="614.983" y2="79.5906" gradientUnits="userSpaceOnUse">
<stop stop-color="#AB316D"/>
<stop offset="1" stop-color="#792D3D"/>
</linearGradient>
<linearGradient id="paint6_linear_0_7711" x1="654" y1="11.7407" x2="652.827" y2="52.5396" gradientUnits="userSpaceOnUse">
<stop stop-color="#AB316D"/>
<stop offset="1" stop-color="#792D3D"/>
</linearGradient>
<linearGradient id="paint7_linear_0_7711" x1="703.118" y1="75.5401" x2="728.258" y2="69.3279" gradientUnits="userSpaceOnUse">
<stop stop-color="#AB316D"/>
<stop offset="1" stop-color="#792D3D"/>
</linearGradient>
<linearGradient id="paint8_linear_0_7711" x1="501.707" y1="69.6564" x2="449.68" y2="150.128" gradientUnits="userSpaceOnUse">
<stop stop-color="#FF9085"/>
<stop offset="1" stop-color="#FB6FBB"/>
</linearGradient>
<linearGradient id="paint9_linear_0_7711" x1="334.719" y1="126.754" x2="244.863" y2="255.51" gradientUnits="userSpaceOnUse">
<stop stop-color="#FF9085"/>
<stop offset="1" stop-color="#FB6FBB"/>
</linearGradient>
<linearGradient id="paint10_linear_0_7711" x1="352.617" y1="158.606" x2="350.072" y2="200.85" gradientUnits="userSpaceOnUse">
<stop stop-color="#FF9085"/>
<stop offset="1" stop-color="#FB6FBB"/>
</linearGradient>
<linearGradient id="paint11_linear_0_7711" x1="401.667" y1="81.0718" x2="401.636" y2="115.177" gradientUnits="userSpaceOnUse">
<stop stop-color="#FF9085"/>
<stop offset="1" stop-color="#FB6FBB"/>
</linearGradient>
<linearGradient id="paint12_linear_0_7711" x1="670.615" y1="130.843" x2="757.741" y2="51.7809" gradientUnits="userSpaceOnUse">
<stop stop-color="#FF9085"/>
<stop offset="1" stop-color="#FB6FBB"/>
</linearGradient>
<linearGradient id="paint13_linear_0_7711" x1="496.744" y1="68.5861" x2="447.165" y2="150.352" gradientUnits="userSpaceOnUse">
<stop stop-color="#FF9085"/>
<stop offset="1" stop-color="#FB6FBB"/>
</linearGradient>
<linearGradient id="paint14_linear_0_7711" x1="480.316" y1="85.6069" x2="480.182" y2="108.615" gradientUnits="userSpaceOnUse">
<stop stop-color="#FF9085"/>
<stop offset="1" stop-color="#FB6FBB"/>
</linearGradient>
<linearGradient id="paint15_linear_0_7711" x1="327.564" y1="126.677" x2="244.05" y2="259.65" gradientUnits="userSpaceOnUse">
<stop stop-color="#FF9085"/>
<stop offset="1" stop-color="#FB6FBB"/>
</linearGradient>
<linearGradient id="paint16_linear_0_7711" x1="583.906" y1="167.122" x2="580.457" y2="168.282" gradientUnits="userSpaceOnUse">
<stop stop-color="#FFC444"/>
<stop offset="0.9964" stop-color="#F36F56"/>
</linearGradient>
<linearGradient id="paint17_linear_0_7711" x1="619.27" y1="218.066" x2="620.441" y2="220.033" gradientUnits="userSpaceOnUse">
<stop stop-color="#FFC444"/>
<stop offset="0.9964" stop-color="#F36F56"/>
</linearGradient>
<linearGradient id="paint18_linear_0_7711" x1="619.747" y1="270.151" x2="619.747" y2="263.666" gradientUnits="userSpaceOnUse">
<stop stop-color="#FFC444"/>
<stop offset="0.9964" stop-color="#F36F56"/>
</linearGradient>
<linearGradient id="paint19_linear_0_7711" x1="599.367" y1="271.999" x2="599.367" y2="264.184" gradientUnits="userSpaceOnUse">
<stop stop-color="#FFC444"/>
<stop offset="0.9964" stop-color="#F36F56"/>
</linearGradient>
<linearGradient id="paint20_linear_0_7711" x1="593.564" y1="266.957" x2="619.078" y2="266.957" gradientUnits="userSpaceOnUse">
<stop stop-color="#311944"/>
<stop offset="1" stop-color="#893976"/>
</linearGradient>
<linearGradient id="paint21_linear_0_7711" x1="585.062" y1="240.723" x2="611.704" y2="251.809" gradientUnits="userSpaceOnUse">
<stop stop-color="#311944"/>
<stop offset="1" stop-color="#893976"/>
</linearGradient>
<linearGradient id="paint22_linear_0_7711" x1="591.941" y1="235.586" x2="618.836" y2="247.84" gradientUnits="userSpaceOnUse">
<stop stop-color="#311944"/>
<stop offset="1" stop-color="#893976"/>
</linearGradient>
<linearGradient id="paint23_linear_0_7711" x1="629.244" y1="189.194" x2="605.918" y2="152.903" gradientUnits="userSpaceOnUse">
<stop stop-color="#FFC444"/>
<stop offset="0.9964" stop-color="#F36F56"/>
</linearGradient>
<linearGradient id="paint24_linear_0_7711" x1="579.165" y1="200.809" x2="604.647" y2="237.426" gradientUnits="userSpaceOnUse">
<stop stop-color="#FFC444"/>
<stop offset="0.9964" stop-color="#F36F56"/>
</linearGradient>
<linearGradient id="paint25_linear_0_7711" x1="596.139" y1="184.58" x2="596.62" y2="190.834" gradientUnits="userSpaceOnUse">
<stop offset="0.00359712" stop-color="#E38DDD"/>
<stop offset="1" stop-color="#9571F6"/>
</linearGradient>
<linearGradient id="paint26_linear_0_7711" x1="606.875" y1="180.091" x2="601.109" y2="184.824" gradientUnits="userSpaceOnUse">
<stop stop-color="#FFC444"/>
<stop offset="0.9964" stop-color="#F36F56"/>
</linearGradient>
<linearGradient id="paint27_linear_0_7711" x1="604.158" y1="180.907" x2="601.785" y2="188.164" gradientUnits="userSpaceOnUse">
<stop stop-color="#FFC444"/>
<stop offset="0.9964" stop-color="#F36F56"/>
</linearGradient>
<linearGradient id="paint28_linear_0_7711" x1="553.522" y1="163.368" x2="563.657" y2="222.832" gradientUnits="userSpaceOnUse">
<stop stop-color="#444B8C"/>
<stop offset="0.9964" stop-color="#26264F"/>
</linearGradient>
<linearGradient id="paint29_linear_0_7711" x1="577.257" y1="201.566" x2="602.331" y2="237.569" gradientUnits="userSpaceOnUse">
<stop stop-color="#FFC444"/>
<stop offset="0.9964" stop-color="#F36F56"/>
</linearGradient>
<linearGradient id="paint30_linear_0_7711" x1="565.67" y1="197.644" x2="576.926" y2="240.496" gradientUnits="userSpaceOnUse">
<stop stop-color="#FFC444"/>
<stop offset="0.9964" stop-color="#F36F56"/>
</linearGradient>
<linearGradient id="paint31_linear_0_7711" x1="544.959" y1="102.196" x2="551.976" y2="102.196" gradientUnits="userSpaceOnUse">
<stop stop-color="#AB316D"/>
<stop offset="1" stop-color="#792D3D"/>
</linearGradient>
<linearGradient id="paint32_linear_0_7711" x1="492.479" y1="159.489" x2="493.738" y2="154.73" gradientUnits="userSpaceOnUse">
<stop stop-color="#FFC444"/>
<stop offset="0.9964" stop-color="#F36F56"/>
</linearGradient>
<linearGradient id="paint33_linear_0_7711" x1="504.294" y1="170.403" x2="505.954" y2="164.916" gradientUnits="userSpaceOnUse">
<stop stop-color="#FFC444"/>
<stop offset="0.9964" stop-color="#F36F56"/>
</linearGradient>
<radialGradient id="paint34_radial_0_7711" cx="0" cy="0" r="1" gradientUnits="userSpaceOnUse" gradientTransform="translate(508.915 160.539) rotate(-177.604) scale(32.8178 58.8801)">
<stop stop-color="#893976"/>
<stop offset="0.256" stop-color="#863874"/>
<stop offset="0.458" stop-color="#7C346F"/>
<stop offset="0.6417" stop-color="#6B2E65"/>
<stop offset="0.8144" stop-color="#542658"/>
<stop offset="0.978" stop-color="#361B47"/>
<stop offset="1" stop-color="#311944"/>
</radialGradient>
<linearGradient id="paint35_linear_0_7711" x1="540.149" y1="114.353" x2="529.653" y2="62.3777" gradientUnits="userSpaceOnUse">
<stop stop-color="#FFC444"/>
<stop offset="0.9964" stop-color="#F36F56"/>
</linearGradient>
<linearGradient id="paint36_linear_0_7711" x1="579.829" y1="111.329" x2="575.777" y2="58.0242" gradientUnits="userSpaceOnUse">
<stop stop-color="#FFC444"/>
<stop offset="0.9964" stop-color="#F36F56"/>
</linearGradient>
<linearGradient id="paint37_linear_0_7711" x1="508.891" y1="99.1986" x2="512.668" y2="106.889" gradientUnits="userSpaceOnUse">
<stop stop-color="#AB316D"/>
<stop offset="1" stop-color="#792D3D"/>
</linearGradient>
<linearGradient id="paint38_linear_0_7711" x1="509.464" y1="97.2798" x2="509.359" y2="105.797" gradientUnits="userSpaceOnUse">
<stop stop-color="#AB316D"/>
<stop offset="1" stop-color="#792D3D"/>
</linearGradient>
<linearGradient id="paint39_linear_0_7711" x1="419.638" y1="162.024" x2="424.314" y2="183.837" gradientUnits="userSpaceOnUse">
<stop offset="0.00359712" stop-color="#F36F56"/>
<stop offset="1" stop-color="#FFC444"/>
</linearGradient>
<linearGradient id="paint40_linear_0_7711" x1="397.674" y1="181.122" x2="450.638" y2="246.138" gradientUnits="userSpaceOnUse">
<stop stop-color="#AA80F9"/>
<stop offset="0.9964" stop-color="#6165D7"/>
</linearGradient>
<linearGradient id="paint41_linear_0_7711" x1="480.478" y1="250.825" x2="479.604" y2="248.532" gradientUnits="userSpaceOnUse">
<stop offset="0.00359712" stop-color="#F36F56"/>
<stop offset="1" stop-color="#FFC444"/>
</linearGradient>
<linearGradient id="paint42_linear_0_7711" x1="464.134" y1="253.351" x2="464.134" y2="250.717" gradientUnits="userSpaceOnUse">
<stop offset="0.00359712" stop-color="#F36F56"/>
<stop offset="1" stop-color="#FFC444"/>
</linearGradient>
<linearGradient id="paint43_linear_0_7711" x1="406.881" y1="171.983" x2="414.686" y2="193.593" gradientUnits="userSpaceOnUse">
<stop offset="0.00359712" stop-color="#F36F56"/>
<stop offset="1" stop-color="#FFC444"/>
</linearGradient>
<linearGradient id="paint44_linear_0_7711" x1="373.954" y1="183.299" x2="404.901" y2="256.707" gradientUnits="userSpaceOnUse">
<stop stop-color="#AA80F9"/>
<stop offset="0.9964" stop-color="#6165D7"/>
</linearGradient>
<linearGradient id="paint45_linear_0_7711" x1="393.958" y1="188.204" x2="451.216" y2="249.478" gradientUnits="userSpaceOnUse">
<stop stop-color="#AA80F9"/>
<stop offset="0.9964" stop-color="#6165D7"/>
</linearGradient>
<linearGradient id="paint46_linear_0_7711" x1="454.593" y1="188.738" x2="454.438" y2="178.42" gradientUnits="userSpaceOnUse">
<stop offset="0.00359712" stop-color="#F36F56"/>
<stop offset="1" stop-color="#FFC444"/>
</linearGradient>
<linearGradient id="paint47_linear_0_7711" x1="395.723" y1="184.649" x2="450.056" y2="248.132" gradientUnits="userSpaceOnUse">
<stop stop-color="#AA80F9"/>
<stop offset="0.9964" stop-color="#6165D7"/>
</linearGradient>
<linearGradient id="paint48_linear_0_7711" x1="431.197" y1="173.355" x2="451.622" y2="205.811" gradientUnits="userSpaceOnUse">
<stop stop-color="#444B8C"/>
<stop offset="0.9964" stop-color="#26264F"/>
</linearGradient>
<linearGradient id="paint49_linear_0_7711" x1="455.038" y1="188.759" x2="454.948" y2="178.439" gradientUnits="userSpaceOnUse">
<stop offset="0.00359712" stop-color="#F36F56"/>
<stop offset="1" stop-color="#FFC444"/>
</linearGradient>
<linearGradient id="paint50_linear_0_7711" x1="616.604" y1="9.14353" x2="620.957" y2="10.027" gradientUnits="userSpaceOnUse">
<stop stop-color="#AB316D"/>
<stop offset="1" stop-color="#792D3D"/>
</linearGradient>
<linearGradient id="paint51_linear_0_7711" x1="560.512" y1="20.9929" x2="567.407" y2="23.5041" gradientUnits="userSpaceOnUse">
<stop stop-color="#AB316D"/>
<stop offset="1" stop-color="#792D3D"/>
</linearGradient>
<linearGradient id="paint52_linear_0_7711" x1="558.084" y1="-6.61372" x2="544.809" y2="34.6683" gradientUnits="userSpaceOnUse">
<stop stop-color="#FF9085"/>
<stop offset="1" stop-color="#FB6FBB"/>
</linearGradient>
<linearGradient id="paint53_linear_0_7711" x1="582.737" y1="97.3257" x2="581.461" y2="91.7071" gradientUnits="userSpaceOnUse">
<stop stop-color="#AB316D"/>
<stop offset="1" stop-color="#792D3D"/>
</linearGradient>
<linearGradient id="paint54_linear_0_7711" x1="600.904" y1="97.4262" x2="598.15" y2="91.4108" gradientUnits="userSpaceOnUse">
<stop stop-color="#AB316D"/>
<stop offset="1" stop-color="#792D3D"/>
</linearGradient>
<linearGradient id="paint55_linear_0_7711" x1="586.957" y1="-4.62521" x2="554.55" y2="36.9302" gradientUnits="userSpaceOnUse">
<stop stop-color="#FF9085"/>
<stop offset="1" stop-color="#FB6FBB"/>
</linearGradient>
<linearGradient id="paint56_linear_0_7711" x1="600.918" y1="44.8644" x2="577.566" y2="45.237" gradientUnits="userSpaceOnUse">
<stop stop-color="#311944"/>
<stop offset="1" stop-color="#893976"/>
</linearGradient>
<linearGradient id="paint57_linear_0_7711" x1="593.916" y1="36.6386" x2="570.745" y2="46.6741" gradientUnits="userSpaceOnUse">
<stop stop-color="#311944"/>
<stop offset="1" stop-color="#893976"/>
</linearGradient>
<linearGradient id="paint58_linear_0_7711" x1="587.175" y1="32.878" x2="564.005" y2="42.6271" gradientUnits="userSpaceOnUse">
<stop stop-color="#311944"/>
<stop offset="1" stop-color="#893976"/>
</linearGradient>
<linearGradient id="paint59_linear_0_7711" x1="586.912" y1="-8.83031" x2="552.375" y2="28.0902" gradientUnits="userSpaceOnUse">
<stop stop-color="#FF9085"/>
<stop offset="1" stop-color="#FB6FBB"/>
</linearGradient>
<linearGradient id="paint60_linear_0_7711" x1="593.203" y1="-12.9107" x2="555.983" y2="32.7517" gradientUnits="userSpaceOnUse">
<stop stop-color="#FF9085"/>
<stop offset="1" stop-color="#FB6FBB"/>
</linearGradient>
<linearGradient id="paint61_linear_0_7711" x1="579.234" y1="20.4786" x2="585.843" y2="25.9765" gradientUnits="userSpaceOnUse">
<stop stop-color="#AB316D"/>
<stop offset="1" stop-color="#792D3D"/>
</linearGradient>
<linearGradient id="paint62_linear_0_7711" x1="584.771" y1="13.1924" x2="577.787" y2="13.5997" gradientUnits="userSpaceOnUse">
<stop stop-color="#311944"/>
<stop offset="1" stop-color="#6B3976"/>
</linearGradient>
<linearGradient id="paint63_linear_0_7711" x1="579.642" y1="17.6117" x2="582.896" y2="25.5546" gradientUnits="userSpaceOnUse">
<stop stop-color="#AB316D"/>
<stop offset="1" stop-color="#792D3D"/>
</linearGradient>
<linearGradient id="paint64_linear_0_7711" x1="577.876" y1="17.2533" x2="577.402" y2="23.8098" gradientUnits="userSpaceOnUse">
<stop offset="0.00359712" stop-color="#E38DDD"/>
<stop offset="1" stop-color="#9571F6"/>
</linearGradient>
<linearGradient id="paint65_linear_0_7711" x1="682.929" y1="259.533" x2="727.508" y2="275.865" gradientUnits="userSpaceOnUse">
<stop offset="0.00359712" stop-color="#E38DDD"/>
<stop offset="1" stop-color="#9571F6"/>
</linearGradient>
<linearGradient id="paint66_linear_0_7711" x1="716.282" y1="277.514" x2="716.981" y2="251.336" gradientUnits="userSpaceOnUse">
<stop stop-color="#AA80F9"/>
<stop offset="0.9964" stop-color="#6165D7"/>
</linearGradient>
<linearGradient id="paint67_linear_0_7711" x1="65.4679" y1="124.86" x2="-1.76775" y2="203.283" gradientUnits="userSpaceOnUse">
<stop stop-color="#FFC444"/>
<stop offset="0.9964" stop-color="#F36F56"/>
</linearGradient>
<linearGradient id="paint68_linear_0_7711" x1="57.2801" y1="76.5314" x2="114.195" y2="192.03" gradientUnits="userSpaceOnUse">
<stop stop-color="#AA80F9"/>
<stop offset="0.9964" stop-color="#6165D7"/>
</linearGradient>
<linearGradient id="paint69_linear_0_7711" x1="10.9321" y1="216.007" x2="2.02532" y2="327.076" gradientUnits="userSpaceOnUse">
<stop offset="0.00359712" stop-color="#E38DDD"/>
<stop offset="1" stop-color="#9571F6"/>
</linearGradient>
<linearGradient id="paint70_linear_0_7711" x1="279.664" y1="156.534" x2="278.725" y2="162.348" gradientUnits="userSpaceOnUse">
<stop stop-color="#FFC444"/>
<stop offset="0.9964" stop-color="#F36F56"/>
</linearGradient>
<linearGradient id="paint71_linear_0_7711" x1="261.595" y1="153.326" x2="260.819" y2="159.719" gradientUnits="userSpaceOnUse">
<stop stop-color="#FFC444"/>
<stop offset="0.9964" stop-color="#F36F56"/>
</linearGradient>
<linearGradient id="paint72_linear_0_7711" x1="245.957" y1="158.624" x2="234.216" y2="206.602" gradientUnits="userSpaceOnUse">
<stop stop-color="#FF9085"/>
<stop offset="1" stop-color="#FB6FBB"/>
</linearGradient>
<linearGradient id="paint73_linear_0_7711" x1="276.074" y1="258.23" x2="277.458" y2="235.662" gradientUnits="userSpaceOnUse">
<stop stop-color="#FFC444"/>
<stop offset="0.9964" stop-color="#F36F56"/>
</linearGradient>
<linearGradient id="paint74_linear_0_7711" x1="260.888" y1="206.73" x2="238.083" y2="225.004" gradientUnits="userSpaceOnUse">
<stop stop-color="#311944"/>
<stop offset="1" stop-color="#893976"/>
</linearGradient>
<linearGradient id="paint75_linear_0_7711" x1="260.868" y1="206.745" x2="238.047" y2="224.997" gradientUnits="userSpaceOnUse">
<stop stop-color="#311944"/>
<stop offset="1" stop-color="#893976"/>
</linearGradient>
<linearGradient id="paint76_linear_0_7711" x1="278.368" y1="256.834" x2="275.721" y2="242.553" gradientUnits="userSpaceOnUse">
<stop stop-color="#FF9085"/>
<stop offset="1" stop-color="#FB6FBB"/>
</linearGradient>
<linearGradient id="paint77_linear_0_7711" x1="274.362" y1="243.092" x2="282.85" y2="226.858" gradientUnits="userSpaceOnUse">
<stop stop-color="#FFC444"/>
<stop offset="0.9964" stop-color="#F36F56"/>
</linearGradient>
<linearGradient id="paint78_linear_0_7711" x1="267.44" y1="247.214" x2="276.28" y2="244.733" gradientUnits="userSpaceOnUse">
<stop stop-color="#FF9085"/>
<stop offset="1" stop-color="#FB6FBB"/>
</linearGradient>
<linearGradient id="paint79_linear_0_7711" x1="251.486" y1="258.573" x2="291.371" y2="258.06" gradientUnits="userSpaceOnUse">
<stop stop-color="#311944"/>
<stop offset="1" stop-color="#893976"/>
</linearGradient>
<linearGradient id="paint80_linear_0_7711" x1="239.395" y1="155.15" x2="228.821" y2="211.951" gradientUnits="userSpaceOnUse">
<stop stop-color="#FF9085"/>
<stop offset="1" stop-color="#FB6FBB"/>
</linearGradient>
<linearGradient id="paint81_linear_0_7711" x1="250.87" y1="175.737" x2="242.481" y2="213.572" gradientUnits="userSpaceOnUse">
<stop stop-color="#FF9085"/>
<stop offset="1" stop-color="#FB6FBB"/>
</linearGradient>
<linearGradient id="paint82_linear_0_7711" x1="270.449" y1="170.219" x2="264.663" y2="175.8" gradientUnits="userSpaceOnUse">
<stop stop-color="#FFC444"/>
<stop offset="0.9964" stop-color="#F36F56"/>
</linearGradient>
<linearGradient id="paint83_linear_0_7711" x1="265.091" y1="161.328" x2="251.238" y2="208.649" gradientUnits="userSpaceOnUse">
<stop stop-color="#FF9085"/>
<stop offset="1" stop-color="#FB6FBB"/>
</linearGradient>
<linearGradient id="paint84_linear_0_7711" x1="265.441" y1="212.171" x2="286.218" y2="175.371" gradientUnits="userSpaceOnUse">
<stop stop-color="#444B8C"/>
<stop offset="0.9964" stop-color="#26264F"/>
</linearGradient>
<linearGradient id="paint85_linear_0_7711" x1="202.459" y1="268.25" x2="167.194" y2="268.25" gradientUnits="userSpaceOnUse">
<stop stop-color="#444B8C"/>
<stop offset="0.9964" stop-color="#26264F"/>
</linearGradient>
<linearGradient id="paint86_linear_0_7711" x1="166.744" y1="319.841" x2="150.111" y2="334.381" gradientUnits="userSpaceOnUse">
<stop stop-color="#444B8C"/>
<stop offset="0.9964" stop-color="#26264F"/>
</linearGradient>
<linearGradient id="paint87_linear_0_7711" x1="185.488" y1="270.929" x2="150.559" y2="270.929" gradientUnits="userSpaceOnUse">
<stop stop-color="#444B8C"/>
<stop offset="0.9964" stop-color="#3E4177"/>
</linearGradient>
<linearGradient id="paint88_linear_0_7711" x1="172.869" y1="358.368" x2="191.666" y2="353.016" gradientUnits="userSpaceOnUse">
<stop stop-color="#FFC444"/>
<stop offset="0.9964" stop-color="#F36F56"/>
</linearGradient>
<linearGradient id="paint89_linear_0_7711" x1="173.153" y1="238.229" x2="132.955" y2="253.462" gradientUnits="userSpaceOnUse">
<stop stop-color="#444B8C"/>
<stop offset="0.9964" stop-color="#26264F"/>
</linearGradient>
<linearGradient id="paint90_linear_0_7711" x1="147.616" y1="232.698" x2="128.52" y2="198.915" gradientUnits="userSpaceOnUse">
<stop stop-color="#444B8C"/>
<stop offset="0.9964" stop-color="#26264F"/>
</linearGradient>
<linearGradient id="paint91_linear_0_7711" x1="171.292" y1="249.514" x2="177.175" y2="214.332" gradientUnits="userSpaceOnUse">
<stop stop-color="#FFC444"/>
<stop offset="0.9964" stop-color="#F36F56"/>
</linearGradient>
<linearGradient id="paint92_linear_0_7711" x1="161.174" y1="231.708" x2="158.94" y2="213.744" gradientUnits="userSpaceOnUse">
<stop stop-color="#FFC444"/>
<stop offset="0.9964" stop-color="#F36F56"/>
</linearGradient>
<linearGradient id="paint93_linear_0_7711" x1="147.006" y1="284.331" x2="178.907" y2="251.752" gradientUnits="userSpaceOnUse">
<stop offset="0.00359712" stop-color="#E38DDD"/>
<stop offset="1" stop-color="#9571F6"/>
</linearGradient>
<linearGradient id="paint94_linear_0_7711" x1="137.535" y1="261.832" x2="128.399" y2="286.685" gradientUnits="userSpaceOnUse">
<stop stop-color="#FFC444"/>
<stop offset="0.9964" stop-color="#F36F56"/>
</linearGradient>
</defs>
</svg>
