<svg width="353" height="247" viewBox="0 0 353 247" fill="none" xmlns="http://www.w3.org/2000/svg">
<path d="M171.727 43.187C164.617 53.3728 172.957 69.889 162.397 77.5546C152.121 85.0102 139.49 72.7842 129.799 79.2047C115.428 88.7304 118.053 132.309 139.07 159.386C145.385 167.531 150.666 170.697 153.006 179.907C158.031 199.679 140.375 211.44 143.735 221.22C151.296 243.242 267.585 261.723 314.238 195.538C336.035 164.636 339.29 119.993 319.818 86.1052C284.641 24.8557 187.689 20.3403 171.727 43.187Z" fill="#F4F7FA"/>
<path d="M116.59 132.501L130.803 121.523C130.803 121.523 127.846 112.16 120.386 109.709C105.176 104.701 110.623 91.7172 112.083 85.9523C114.302 77.2406 112.393 69.673 102.808 71.1933C91.9676 72.9303 90.1461 56.6703 95.7524 43.1017C101.241 29.8417 80.8259 12.4297 66.3135 40.0514C57.6415 56.5402 70.7279 69.138 75.8154 77.0641C80.903 84.9902 70.3378 94.1416 81.1227 100.306C90.3478 105.568 100.849 106.472 100.284 115.433C99.7329 124.374 103.867 130.718 116.59 132.501Z" fill="url(#paint0_linear_0_9805)"/>
<g opacity="0.5">
<path d="M123.764 129.057L124.02 128.769C123.852 128.605 106.404 112.831 93.8323 91.9835C82.2599 72.7753 72.5611 45.1955 92.1141 22.9244L91.8262 22.6686C83.123 32.5753 79.3862 44.3453 80.7306 57.6542C81.8058 68.2846 86.109 79.897 93.5049 92.1698C106.109 113.094 123.583 128.912 123.764 129.057Z" fill="#BEB8F2"/>
<path d="M81.543 63.2028L81.8181 62.9275C72.9261 53.9752 65.8251 36.9692 65.7559 36.8005L65.4024 36.9423C65.475 37.127 72.5896 54.1969 81.543 63.2028Z" fill="#BEB8F2"/>
<path d="M80.8888 54.3178C86.1336 40.2255 97.9032 35.9557 98.0274 35.9126L97.9015 35.5557C97.7773 35.5988 85.8515 39.9185 80.5448 54.1907L80.8888 54.3178Z" fill="#BEB8F2"/>
<path d="M102.795 105.191C95.217 88.4531 111.787 70.1187 111.967 69.947L111.72 69.6491C111.533 69.789 94.8136 88.4387 102.441 105.333L102.795 105.191Z" fill="#BEB8F2"/>
<path d="M98.064 99.2574L98.3038 98.9729C89.3925 91.3425 74.7207 92.7096 74.5736 92.7242L74.6038 93.1014C74.7668 93.0835 89.295 91.7469 98.064 99.2574Z" fill="#BEB8F2"/>
<path d="M121.33 126.239C117.503 120.396 122.008 109.964 122.051 109.855L121.701 109.696C121.511 110.137 117.074 120.421 121.006 126.441L121.33 126.239Z" fill="#BEB8F2"/>
<path d="M117.145 122.558L117.404 122.286C113.34 118.546 103.131 118.781 99.7785 118.86C99.2987 118.878 98.8987 118.88 98.8281 118.861L98.7557 119.227C98.8583 119.239 99.1272 119.248 99.7893 119.224C103.11 119.152 113.204 118.925 117.145 122.558Z" fill="#BEB8F2"/>
</g>
<path d="M97.6099 120.271C103.08 119.325 104.701 123.968 107.202 127.023C107.041 127.524 107.081 127.866 107.03 128.411C106.593 133.341 105.369 135.353 104.173 140.161C103.91 141.201 102.235 143.992 101.487 145.102L100.033 147.129C100.033 147.129 87.2753 147.772 86.1168 140.596C84.9584 133.419 72.7678 132.491 66.3713 131.198C62.4479 130.397 60.9054 128.79 59.5103 128.27C44.7233 122.739 38.8733 125.9 35.1616 121.151C31.0759 115.898 37.0435 110.543 32.8951 104.602C28.2157 97.8907 17.4499 100.212 14.4559 92.8755C13.9383 91.6177 13.4425 90.3052 13.4751 88.4968C13.5395 84.0127 16.9579 81.4179 14.4814 77.4573C9.51468 69.4721 10.1541 59.061 19.1047 55.3403C27.9343 51.6787 39.6445 62.6675 45.3027 83.1662C50.9897 97.2868 53.7344 98.2713 60.8389 99.3634C65.821 100.123 79.8065 98.9013 82.563 107.239C85.3195 115.578 91.3667 121.348 97.6099 120.271Z" fill="url(#paint1_linear_0_9805)"/>
<g opacity="0.5">
<path d="M105.145 137.752L104.999 138.083C103.159 137.274 101.312 136.432 99.5253 135.561C86.22 129.231 74.0344 121.813 63.3226 113.481C54.2486 106.419 46.084 98.6131 39.0747 90.2781C33.429 83.5716 28.5052 76.4947 24.4274 69.2381C21.5561 64.127 19.1294 58.9881 17.2096 53.9583C16.8726 53.0792 16.5767 52.1579 16.3035 51.2652C15.918 50.0794 15.5417 48.8583 15.0513 47.7282L15.3661 47.5612C15.8599 48.7073 16.2556 49.9409 16.6445 51.1427C16.9336 52.032 17.2101 52.9407 17.5437 53.8039C19.4442 58.8211 21.8675 63.944 24.7354 69.0392C28.8099 76.2799 33.7302 83.3407 39.3565 90.0347C46.3465 98.3571 54.4917 106.15 63.5624 113.196C74.2548 121.516 86.4244 128.937 99.7104 135.254C101.458 136.1 103.305 136.942 105.145 137.752Z" fill="#FCFDFE"/>
<path d="M48.2837 99.7802L48.0405 100.049C37.4432 90.0578 12.3396 88.8049 12.0866 88.7919L12.1271 88.433C12.3641 88.4494 37.5862 89.7104 48.2837 99.7802Z" fill="#FCFDFE"/>
<path d="M80.4326 124.84L80.2281 125.134C72.2118 119.281 71.0292 99.1991 71.017 98.9848L71.3589 98.9455C71.3711 99.1597 72.5358 119.079 80.4326 124.84Z" fill="#FCFDFE"/>
<path d="M85.2835 127.729L85.1211 128.063C79.2637 125.305 69.675 124.925 58.1027 126.984C57.5248 127.09 57.5248 127.09 57.4668 127.053L57.6132 126.721L57.532 126.889L57.5425 126.703C57.5745 126.696 57.8013 126.664 58.0566 126.61C69.6995 124.569 79.3748 124.965 85.2835 127.729Z" fill="#FCFDFE"/>
<path d="M101.799 136.212L101.556 136.48C96.3285 131.586 97.2428 120.349 97.2544 120.247L97.5905 120.259C97.5983 120.374 96.698 131.441 101.799 136.212Z" fill="#FCFDFE"/>
<path d="M104.992 138.285C99.1805 138.019 92.9902 139.502 86.0858 142.804L85.9667 142.479C92.9315 139.147 99.1697 137.654 105.032 137.926L104.992 138.285Z" fill="#FCFDFE"/>
<path d="M27.1864 73.2722L26.9398 73.5248C21.3612 67.6046 14.1101 62.8407 11.7231 61.263C11.1425 60.886 10.9456 60.7443 10.8841 60.6907L11.1273 60.4222C11.1694 60.4632 11.5018 60.6928 11.9241 60.9534C14.3112 62.531 21.585 67.3235 27.1864 73.2722Z" fill="#FCFDFE"/>
<path d="M34.8019 84.3807L34.4905 84.5636C31.1644 77.5475 36.3157 62.074 36.5287 61.4282L36.8499 61.5267C36.8007 61.6873 31.5382 77.5014 34.8019 84.3807Z" fill="#FCFDFE"/>
</g>
<path d="M103.778 118.843C103.353 119.668 107.58 121.505 100.98 121.924C99.3334 122.023 103.532 115.643 100.98 121.924C100.489 123.146 84.9957 118.449 84.4888 119.674C81.331 119.728 78.3292 119.182 78.6346 115.047C79.1204 108.622 69.3876 105.053 65.3507 105.444C60.3483 105.923 48.6789 106.819 49.2663 96.8691C49.7586 88.591 51.7137 83.2714 42.731 79.5427C33.7484 75.814 29.9679 68.5442 33.721 59.99C37.6605 50.9792 28.7843 39.3547 35.4428 33.1688C47.0476 22.3952 62.8926 41.3791 62.889 59.4115C62.8854 77.4439 71.7198 70.195 79.3752 72.3876C80.079 72.6383 81.137 73.064 82.2981 73.818C89.4481 78.42 87.8145 87.0575 92.0663 95.2112C97.8575 106.29 104.501 117.455 103.778 118.843Z" fill="url(#paint2_linear_0_9805)"/>
<g opacity="0.5">
<path d="M87.9301 108.084L87.6981 108.483C60.4527 91.7391 41.8102 61.0062 39.0542 28.2643L39.4918 28.2046C42.2367 60.8154 60.7848 91.4183 87.9301 108.084Z" fill="#FCFDFE"/>
<path d="M73.8932 97.6061L73.7353 98.04C61.8828 93.8371 48.6983 101.26 48.5649 101.338L48.365 100.947C48.4791 100.856 61.8449 93.3447 73.8932 97.6061Z" fill="#FCFDFE"/>
<path d="M83.008 104.86L82.6724 105.165C74.3116 95.4154 81.3212 71.8906 81.3889 71.6593L81.8126 71.7694C81.7324 72.02 74.803 95.2943 83.008 104.86Z" fill="#FCFDFE"/>
<path d="M53.9208 73.0942L53.608 73.4276C46.3448 66.3309 30.6635 67.579 30.5005 67.597L30.4853 67.1331C30.6357 67.1345 46.5153 65.8776 53.9208 73.0942Z" fill="#FCFDFE"/>
<path d="M45.1089 54.3167L44.6813 54.4243C42.6006 42.6731 51.322 28.6926 51.4099 28.5571L51.7776 28.7959C51.6862 28.9154 43.0654 42.7411 45.1089 54.3167Z" fill="#FCFDFE"/>
</g>
<path fill-rule="evenodd" clip-rule="evenodd" d="M325.982 200.405H330.6C331.823 200.405 332.802 201.416 332.77 202.673V206.017C332.77 207.274 331.791 208.302 330.567 208.318L325.835 208.383C325.428 211.385 324.612 214.257 323.47 216.949L327.712 219.348C328.772 219.951 329.148 221.338 328.528 222.448L326.88 225.417C326.26 226.527 324.889 226.967 323.812 226.364L319.423 223.932C317.645 226.331 315.54 228.485 313.191 230.345L315.817 234.832C316.454 235.925 316.078 237.361 314.969 238.062L312.016 239.938C310.89 240.656 309.47 240.346 308.818 239.253L306.109 234.685C303.401 235.941 300.48 236.855 297.413 237.377V242.908C297.413 244.23 296.32 245.355 294.982 245.437L291.392 245.649C290.038 245.731 288.929 244.719 288.929 243.381V237.785C285.763 237.556 282.712 236.904 279.824 235.892L276.904 240.917C276.202 242.141 274.636 242.631 273.412 242.011L270.133 240.379C268.893 239.759 268.468 238.274 269.186 237.051L272.139 232.058C269.513 230.296 267.13 228.175 265.091 225.76L259.984 228.729C258.711 229.48 257.063 229.121 256.329 227.946L254.355 224.814C253.604 223.622 254.045 222.072 255.334 221.338L260.392 218.467C259.038 215.595 258.091 212.495 257.602 209.248L251.875 209.313C250.374 209.346 249.15 208.22 249.15 206.817V203.097C249.15 201.694 250.374 200.552 251.875 200.552L257.455 200.535C257.847 197.207 258.711 194.025 260 191.056L255.35 188.478C254.061 187.76 253.621 186.21 254.371 185.019L256.346 181.853C257.096 180.679 258.728 180.303 260 181.021L264.487 183.567C266.543 180.956 268.974 178.656 271.699 176.73L269.219 172.553C268.501 171.346 268.925 169.845 270.165 169.209L273.445 167.528C274.668 166.892 276.235 167.349 276.936 168.556L279.335 172.635C282.37 171.46 285.6 170.71 288.961 170.432V165.913C288.961 164.575 290.071 163.547 291.425 163.612L295.014 163.775C296.369 163.841 297.446 164.95 297.446 166.272V170.742C300.692 171.264 303.776 172.227 306.631 173.549L308.85 169.78C309.503 168.686 310.939 168.36 312.048 169.045L315.002 170.873C316.111 171.558 316.486 172.994 315.85 174.087L313.631 177.889C316.062 179.83 318.2 182.098 319.994 184.611L323.845 182.425C324.922 181.821 326.292 182.229 326.912 183.338L328.56 186.291C329.18 187.401 328.805 188.788 327.744 189.408L323.845 191.676C324.938 194.433 325.672 197.354 325.982 200.405ZM268.158 204.255C268.158 217.847 279.58 228.452 293.236 227.946C306.419 227.457 316.796 216.721 316.796 203.945C316.796 191.17 306.436 180.565 293.236 180.238C279.58 179.912 268.158 190.664 268.158 204.255Z" fill="#97A6B7"/>
<path d="M277.948 167.349L274.668 167.234L273.526 170.188L277.948 167.349Z" fill="#97A6B7"/>
<path d="M310.547 168.703L314.333 168.752V171.542L310.547 168.703Z" fill="#97A6B7"/>
<path d="M324.987 182.196L328.772 182.343L327.826 184.464L324.987 182.196Z" fill="#97A6B7"/>
<path d="M330.926 200.437L334.744 200.747L333.488 202.591L330.926 200.437Z" fill="#97A6B7"/>
<path d="M324.579 226.625L328.283 227.163L328.74 224.128L324.579 226.625Z" fill="#97A6B7"/>
<path d="M310.417 240.265L313.729 240.868L314.006 238.421L310.417 240.265Z" fill="#97A6B7"/>
<path d="M293.791 246.155L290.805 245.633L293.367 241.815L293.791 246.155Z" fill="#97A6B7"/>
<path d="M277.622 242.957L274.13 242.239L276.822 238.976L277.622 242.957Z" fill="#97A6B7"/>
<path d="M258.075 180.679L261.714 180.793L260.278 183.436L258.075 180.679Z" fill="#97A6B7"/>
<path d="M250.863 209.134L254.192 209.623L253.931 206.899L250.863 209.134Z" fill="#97A6B7"/>
<path d="M258.01 229.039L261.257 229.578L261.518 227.424L258.01 229.039Z" fill="#97A6B7"/>
<path fill-rule="evenodd" clip-rule="evenodd" d="M329.67 200.698H334.32C335.56 200.698 336.555 201.726 336.588 203.048V206.425C336.588 207.682 335.576 208.726 334.352 208.742L329.572 208.808C329.164 211.826 328.348 214.714 327.19 217.439L331.464 219.853C332.525 220.457 332.9 221.86 332.28 222.986L330.632 225.988C329.996 227.114 328.625 227.555 327.532 226.951L323.111 224.504C321.316 226.918 319.211 229.088 316.829 230.965L319.488 235.484C320.125 236.577 319.75 238.03 318.64 238.731L315.671 240.624C314.545 241.325 313.109 241.015 312.456 239.922L309.715 235.321C306.974 236.577 304.037 237.507 300.937 238.03V243.61C300.937 244.931 299.844 246.073 298.49 246.155L294.868 246.367C293.497 246.449 292.388 245.421 292.388 244.083V238.437C289.206 238.209 286.122 237.556 283.218 236.528L280.265 241.586C279.563 242.81 277.981 243.3 276.741 242.68L273.428 241.032C272.172 240.412 271.748 238.894 272.466 237.671L275.435 232.629C272.776 230.834 270.377 228.697 268.321 226.266L263.166 229.252C261.877 229.986 260.229 229.643 259.478 228.452L257.488 225.287C256.737 224.096 257.178 222.529 258.483 221.795L263.574 218.907C262.203 216.019 261.24 212.903 260.751 209.623L254.975 209.689C253.458 209.705 252.234 208.579 252.234 207.16V203.407C252.234 201.987 253.458 200.845 254.975 200.845L260.604 200.829C260.996 197.468 261.86 194.254 263.166 191.268L258.483 188.674C257.178 187.939 256.737 186.389 257.488 185.182L259.478 182C260.229 180.809 261.877 180.418 263.166 181.152L267.701 183.714C269.774 181.087 272.221 178.77 274.962 176.828L272.449 172.619C271.732 171.395 272.156 169.878 273.412 169.241L276.724 167.544C277.964 166.908 279.531 167.381 280.248 168.589L282.663 172.7C285.731 171.525 288.994 170.759 292.371 170.481V165.929C292.371 164.591 293.481 163.547 294.851 163.612L298.473 163.775C299.828 163.824 300.921 164.966 300.921 166.288V170.791C304.2 171.313 307.317 172.276 310.188 173.614L312.424 169.812C313.076 168.703 314.512 168.376 315.638 169.078L318.607 170.922C319.717 171.623 320.092 173.059 319.456 174.169L317.221 178.003C319.668 179.977 321.822 182.261 323.633 184.79L327.516 182.588C328.609 181.968 329.996 182.376 330.616 183.501L332.264 186.471C332.884 187.597 332.525 189 331.448 189.62L327.516 191.904C328.609 194.678 329.343 197.631 329.67 200.698ZM271.356 204.582C271.356 218.287 282.875 228.974 296.646 228.468C309.96 227.979 320.418 217.145 320.402 204.255C320.402 191.382 309.944 180.695 296.646 180.369C282.875 180.042 271.356 190.876 271.356 204.582Z" fill="#D8DEE8"/>
<path fill-rule="evenodd" clip-rule="evenodd" d="M348.791 161.355H350.461C350.903 161.355 351.257 161.72 351.245 162.174V163.383C351.245 163.837 350.891 164.208 350.449 164.214L348.738 164.238C348.591 165.323 348.296 166.36 347.883 167.333L349.416 168.2C349.8 168.418 349.936 168.919 349.711 169.32L349.116 170.393C348.891 170.794 348.396 170.954 348.007 170.735L346.42 169.857C345.777 170.724 345.016 171.502 344.166 172.174L345.116 173.795C345.346 174.19 345.21 174.709 344.809 174.963L343.741 175.641C343.334 175.9 342.821 175.788 342.585 175.393L341.606 173.742C340.627 174.196 339.571 174.527 338.462 174.715V176.714C338.462 177.192 338.066 177.598 337.583 177.628L336.285 177.705C335.795 177.734 335.394 177.368 335.394 176.885V174.863C334.25 174.78 333.146 174.544 332.102 174.179L331.046 175.995C330.793 176.437 330.226 176.614 329.784 176.39L328.598 175.8C328.15 175.576 327.996 175.039 328.256 174.597L329.324 172.793C328.374 172.156 327.513 171.39 326.775 170.517L324.929 171.59C324.469 171.862 323.873 171.732 323.607 171.307L322.894 170.175C322.622 169.745 322.782 169.185 323.248 168.919L325.076 167.882C324.587 166.844 324.245 165.724 324.068 164.55L321.997 164.574C321.454 164.586 321.012 164.179 321.012 163.672V162.328C321.012 161.82 321.454 161.408 321.997 161.408L324.014 161.402C324.156 160.199 324.469 159.049 324.935 157.976L323.253 157.045C322.787 156.785 322.628 156.225 322.9 155.795L323.613 154.651C323.885 154.226 324.475 154.091 324.935 154.35L326.557 155.27C327.3 154.327 328.179 153.495 329.164 152.799L328.268 151.29C328.008 150.854 328.162 150.311 328.61 150.081L329.796 149.474C330.238 149.244 330.804 149.409 331.058 149.846L331.925 151.32C333.023 150.895 334.191 150.624 335.406 150.524V148.89C335.406 148.407 335.807 148.035 336.297 148.059L337.594 148.118C338.084 148.142 338.473 148.542 338.473 149.02V150.636C339.647 150.824 340.762 151.172 341.795 151.65L342.597 150.288C342.833 149.893 343.352 149.775 343.753 150.022L344.821 150.683C345.222 150.93 345.358 151.449 345.128 151.844L344.325 153.218C345.204 153.92 345.977 154.739 346.626 155.647L348.018 154.857C348.408 154.639 348.903 154.786 349.127 155.187L349.723 156.255C349.947 156.655 349.812 157.157 349.428 157.381L348.018 158.2C348.414 159.197 348.679 160.252 348.791 161.355ZM327.884 162.746C327.884 167.658 332.014 171.49 336.951 171.307C341.718 171.13 345.47 167.251 345.47 162.634C345.47 158.017 341.724 154.185 336.951 154.067C332.014 153.949 327.884 157.835 327.884 162.746Z" fill="#97A6B7"/>
<path d="M331.424 149.409L330.238 149.368L329.825 150.435L331.424 149.409Z" fill="#97A6B7"/>
<path d="M343.211 149.899L344.579 149.916V150.924L343.211 149.899Z" fill="#97A6B7"/>
<path d="M348.431 154.775L349.8 154.828L349.458 155.594L348.431 154.775Z" fill="#97A6B7"/>
<path d="M350.579 161.366L351.959 161.478L351.505 162.145L350.579 161.366Z" fill="#97A6B7"/>
<path d="M348.284 170.83L349.623 171.024L349.788 169.928L348.284 170.83Z" fill="#97A6B7"/>
<path d="M343.163 175.759L344.361 175.977L344.461 175.093L343.163 175.759Z" fill="#97A6B7"/>
<path d="M337.152 177.887L336.072 177.699L336.999 176.319L337.152 177.887Z" fill="#97A6B7"/>
<path d="M331.306 176.732L330.043 176.472L331.017 175.293L331.306 176.732Z" fill="#97A6B7"/>
<path d="M324.239 154.226L325.554 154.268L325.035 155.223L324.239 154.226Z" fill="#97A6B7"/>
<path d="M321.631 164.509L322.835 164.686L322.74 163.701L321.631 164.509Z" fill="#97A6B7"/>
<path d="M324.215 171.702L325.389 171.897L325.483 171.119L324.215 171.702Z" fill="#97A6B7"/>
<path fill-rule="evenodd" clip-rule="evenodd" d="M350.54 161.444H352.193C352.634 161.444 352.988 161.817 353 162.296V163.52C353 163.976 352.64 164.354 352.205 164.36L350.505 164.384C350.36 165.478 350.07 166.525 349.658 167.512L351.178 168.388C351.555 168.606 351.689 169.115 351.468 169.523L350.882 170.611C350.656 171.019 350.168 171.179 349.779 170.96L348.207 170.073C347.569 170.949 346.82 171.735 345.973 172.415L346.919 174.054C347.145 174.45 347.012 174.976 346.617 175.23L345.561 175.917C345.161 176.171 344.65 176.058 344.418 175.662L343.443 173.994C342.468 174.45 341.424 174.787 340.321 174.976V176.999C340.321 177.478 339.932 177.892 339.451 177.921L338.162 177.998C337.675 178.028 337.28 177.655 337.28 177.17V175.124C336.149 175.041 335.052 174.805 334.019 174.432L332.969 176.265C332.72 176.709 332.157 176.886 331.716 176.662L330.538 176.064C330.091 175.84 329.94 175.29 330.195 174.846L331.251 173.019C330.306 172.368 329.453 171.593 328.721 170.712L326.888 171.794C326.429 172.06 325.843 171.936 325.576 171.504L324.868 170.357C324.602 169.925 324.758 169.358 325.222 169.091L327.033 168.045C326.545 166.998 326.203 165.868 326.029 164.679L323.975 164.703C323.435 164.709 323 164.301 323 163.786V162.426C323 161.911 323.435 161.497 323.975 161.497L325.977 161.492C326.116 160.273 326.424 159.108 326.888 158.026L325.222 157.085C324.758 156.819 324.602 156.257 324.868 155.82L325.576 154.666C325.843 154.235 326.429 154.093 326.888 154.359L328.501 155.287C329.238 154.335 330.108 153.495 331.083 152.792L330.19 151.266C329.934 150.822 330.085 150.272 330.532 150.041L331.71 149.426C332.151 149.196 332.708 149.367 332.963 149.805L333.822 151.295C334.913 150.869 336.073 150.592 337.275 150.491V148.841C337.275 148.356 337.669 147.977 338.157 148.001L339.445 148.06C339.926 148.078 340.315 148.492 340.315 148.971V150.603C341.482 150.793 342.59 151.142 343.611 151.627L344.406 150.248C344.638 149.846 345.149 149.728 345.549 149.982L346.605 150.651C347 150.905 347.133 151.425 346.907 151.828L346.112 153.217C346.983 153.933 347.749 154.761 348.393 155.678L349.774 154.879C350.162 154.655 350.656 154.802 350.876 155.211L351.462 156.287C351.683 156.695 351.555 157.204 351.172 157.428L349.774 158.256C350.162 159.262 350.424 160.332 350.54 161.444ZM329.801 162.852C329.801 167.82 333.897 171.694 338.795 171.51C343.53 171.333 347.25 167.406 347.244 162.734C347.244 158.067 343.524 154.193 338.795 154.075C333.897 153.957 329.801 157.884 329.801 162.852Z" fill="#D8DEE8"/>
<path d="M274.235 135.994C271.495 136.069 268.815 135.381 266.494 133.99C259.427 129.758 248.976 122.774 239.588 113.621C227.669 102.015 220.812 90.2155 219.314 78.6249L219.284 78.4454L219 29.0023C219 19.2363 225.378 11.2949 237.357 6.09034C247.254 1.78314 260.37 -0.355512 274.235 0.0482887C287.936 0.437134 300.618 3.26374 309.991 7.97475C321.146 13.5681 327 21.4198 327 30.7371L326.73 77.9818L326.715 78.1613C325.353 89.2583 319.049 100.729 307.894 112.335C298.956 121.637 288.864 129.01 281.931 133.587C279.64 135.067 276.975 135.905 274.235 135.994Z" fill="url(#paint3_linear_0_9805)"/>
<path d="M276.725 135.994C274.004 136.069 271.344 135.381 269.06 133.99C262.055 129.758 251.715 122.774 242.396 113.621C230.582 102.015 223.804 90.2155 222.316 78.6249L222.286 78.4454L222 29.0023C222 19.2363 228.328 11.2949 240.187 6.09034C249.986 1.78314 262.987 -0.355512 276.725 0.0482887C290.297 0.437134 302.847 3.26374 312.151 7.97475C323.198 13.5681 329 21.4198 329 30.7371L328.744 77.9818L328.729 78.1613C327.377 89.2583 321.124 100.729 310.092 112.335C301.239 121.637 291.244 129.01 284.375 133.587C282.061 135.067 279.43 135.905 276.725 135.994Z" fill="url(#paint4_linear_0_9805)"/>
<path d="M226 29.0181L226.285 78.2471C229.543 103.37 259.144 123.69 272.039 131.426C275.732 133.641 280.46 133.506 284.123 131.097C296.747 122.808 324.743 101.964 327.73 77.8132L328 30.6641C328.015 -4.30493 226 -7.50706 226 29.0181Z" fill="url(#paint5_linear_0_9805)"/>
<path d="M278.234 124C277.994 124 277.635 123.97 277.275 123.745C271.974 120.532 261.715 113.792 252.774 104.995C243.129 95.4929 237.558 86.2608 236.285 77.5841L236 29.0215C236.015 24.3679 239.699 20.3748 246.903 17.1773C254.96 13.6196 266.387 11.7431 278.234 12.0284C289.945 12.3136 301.058 14.6704 308.741 18.4984C315.54 21.876 318.985 25.8691 319 30.3726L318.73 77.2538C317.532 85.6453 312.32 94.6973 303.14 104.215C294.513 113.162 284.434 120.247 279.177 123.7C278.833 123.925 278.473 123.985 278.234 124Z" fill="url(#paint6_linear_0_9805)"/>
<path d="M277.131 121C271.766 117.685 262.209 111.281 253.884 103.069C244.777 94.0879 239.518 85.4688 238.286 77.4977L238 29.0379C238.015 25.6927 241.081 22.6187 247.092 19.9516C254.74 16.5462 265.71 14.7681 277.131 15.0243C288.447 15.2805 299.101 17.5256 306.419 21.1571C312.115 23.9749 314.985 27.0639 315 30.3187L314.729 77.2114C313.572 84.9414 308.598 93.4099 299.913 102.406C291.858 110.754 282.466 117.459 277.131 121Z" fill="#F4F7FA"/>
<path d="M295.899 57.7813L260.038 58.0981C257.28 58.1283 255.03 60.3008 255.03 62.9561V86.205C255.03 88.8452 257.266 90.8971 260.008 90.7764L295.735 89.2979C298.284 89.1922 300.341 87.065 300.356 84.5455L300.475 62.3375C300.49 59.8029 298.448 57.7662 295.899 57.7813Z" fill="url(#paint7_linear_0_9805)"/>
<path d="M282.872 71.1181C282.887 68.5533 280.696 66.5166 278.043 66.6826C275.688 66.8334 273.735 68.7646 273.601 71.0729C273.497 72.8682 274.451 74.4222 275.912 75.2067C276.538 75.5386 276.836 76.2477 276.716 76.9417L275.673 82.8105C275.539 83.5648 276.12 84.2136 276.895 84.1834L279.519 84.0929C280.279 84.0627 280.875 83.3687 280.741 82.6294L279.742 76.8059C279.623 76.1119 279.981 75.4179 280.592 75.0407C281.963 74.2411 282.872 72.7626 282.872 71.1181Z" fill="url(#paint8_linear_0_9805)"/>
<path d="M295.392 55.473C294.319 55.473 293.44 54.613 293.455 53.5418L293.47 48.4726C293.484 43.3883 289.341 39.1942 284.154 39.1489L272.454 39.0282C267.088 38.9679 262.691 43.2073 262.676 48.4575V53.6776C262.676 54.794 261.737 55.6993 260.589 55.6993C259.427 55.7143 258.503 54.8091 258.503 53.6927V48.4425C258.503 40.9443 264.822 34.9246 272.469 35.0302L284.184 35.1961C291.547 35.3017 297.419 41.2611 297.375 48.4726L297.345 53.5117C297.345 54.5979 296.465 55.473 295.392 55.473Z" fill="url(#paint9_linear_0_9805)"/>
<path d="M296 205.911L70 204V209.647C70 211.176 70.9811 212.48 72.3127 212.723L136.211 223.861C136.964 224 137.735 224.035 138.506 223.965L293.53 211.281C294.914 211.159 295.982 209.856 295.982 208.275V205.911H296Z" fill="#26264F"/>
<path d="M213.713 196.592L72.7257 206.951C70.1972 207.142 68.1569 205.158 68.1569 202.546V97.7356C68.1569 95.1241 70.2146 93 72.7257 93H213.713C215.788 93 217.48 94.9151 217.48 97.2829V192.03C217.462 194.398 215.788 196.435 213.713 196.592Z" fill="#26264F"/>
<path d="M215.963 196.592L74.9752 206.951C72.4467 207.142 70.4064 205.158 70.4064 202.546V97.7356C70.4064 95.1241 72.4641 93 74.9752 93H215.963C218.038 93 219.729 94.9151 219.729 97.2829V192.03C219.712 194.398 218.038 196.435 215.963 196.592Z" fill="url(#paint10_linear_0_9805)"/>
<path d="M211.568 189.906L80.259 198.907C78.2013 199.047 76.5447 197.427 76.5447 195.303V103.533C76.5447 101.392 78.2187 99.6508 80.259 99.6508L211.568 99.0936C213.277 99.0936 214.672 100.661 214.672 102.611V186.198C214.672 188.113 213.277 189.784 211.568 189.906Z" fill="white"/>
<path d="M150.447 95.8553C150.447 96.8303 149.715 97.6138 148.826 97.6312C147.936 97.6312 147.204 96.8477 147.204 95.8727C147.204 94.8977 147.936 94.0969 148.826 94.0969C149.715 94.0969 150.447 94.8803 150.447 95.8553Z" fill="white"/>
<path d="M221.887 196.029L70 207.107L136.228 218.858C136.982 219 137.753 219.035 138.524 218.965L296 205.833L224.305 196.1C223.499 195.994 222.693 195.976 221.887 196.029Z" fill="url(#paint11_linear_0_9805)"/>
<path d="M92 207.201L217.998 198L257 203.174L132.067 213L92 207.201Z" fill="#26264F"/>
<path d="M132.599 195.365L78.9513 198.988C77.3796 199.093 76.0349 197.85 76.0349 196.257V102.098C76.0349 100.593 77.2399 99.3676 78.7417 99.3676L132.581 99.1575V195.365H132.599Z" fill="#D8DEE8"/>
<path d="M201.876 144.015L145.347 146.01V140.269L201.876 138.502V144.015Z" fill="#D8DEE8"/>
<path d="M201.876 153.046L145.347 155.391V149.668L201.876 147.532V153.046Z" fill="#D8DEE8"/>
<path d="M127.063 145.047L94.6159 146.15V141.862L127.063 140.847V145.047Z" fill="white"/>
<path d="M127.063 151.908L94.6159 153.168V148.88L127.063 147.725V151.908Z" fill="white"/>
<path d="M127.063 158.769L94.6159 160.169V155.898L127.063 154.586V158.769Z" fill="white"/>
<path d="M127.063 165.647L94.6159 167.187V162.916L127.063 161.446V165.647Z" fill="white"/>
<path d="M170.337 163.582L145.347 164.772V159.049L170.337 157.946V163.582Z" fill="#D8DEE8"/>
<path fill-rule="evenodd" clip-rule="evenodd" d="M166.303 127.3V118.69L181.933 118.427V126.933C181.933 129.383 179.872 131.431 177.34 131.501L170.966 131.676C168.398 131.746 166.303 129.786 166.303 127.3ZM173.358 124.01L172.171 127.598L176.117 127.51L174.93 123.975C175.436 123.695 175.785 123.152 175.785 122.557C175.785 121.682 175.052 120.982 174.144 121C173.236 121.017 172.502 121.752 172.502 122.627C172.502 123.24 172.852 123.748 173.358 124.01Z" fill="#D8DEE8"/>
<path d="M180.116 117.674C179.435 117.692 178.894 117.167 178.894 116.502C178.894 113.982 176.781 111.951 174.161 111.969C171.542 112.004 169.394 114.104 169.394 116.642C169.394 117.307 168.835 117.849 168.154 117.867C167.473 117.884 166.914 117.342 166.914 116.694C166.914 112.826 170.18 109.641 174.161 109.589C178.126 109.536 181.339 112.634 181.339 116.467C181.339 117.132 180.78 117.674 180.116 117.674Z" fill="#D8DEE8"/>
<path opacity="0.48" d="M74.5344 206.987L214.809 196.677L215.524 196.625C216.483 196.555 217.337 196.085 218 195.371C207.903 194.813 201.643 191.243 197.597 187.551C189.471 180.132 190.883 172.8 182.129 167.923C171.213 161.828 162.616 169.543 154.332 161.932C149.31 157.317 151.769 153.869 145.596 146.989C138.743 139.344 134.296 141.921 127.408 135.042C118.706 126.351 123.065 119.594 115.567 113.342C106.464 105.766 96.6637 112.784 88.0143 105.522C84.2825 102.387 82.2247 97.8416 81.161 93H74.5693C72.0407 93 70.0004 95.1247 70.0004 97.7371V202.581C69.9655 205.193 72.0058 207.179 74.5344 206.987Z" fill="white"/>
<path d="M168.713 166.682C171.266 165.033 169.875 156.826 165.826 151.274C160.069 143.397 148.52 140.291 146.39 142.911C144.225 145.6 151.724 154.536 152.939 155.993C157.376 161.251 165.703 168.625 168.713 166.682Z" fill="url(#paint12_linear_0_9805)"/>
<path d="M197.342 218.643C196.906 219.242 196.873 220.294 197.325 220.784C197.76 221.255 198.347 220.82 200.072 220.747C201.932 220.657 202.435 221.092 203.674 220.62C204.177 220.421 205.048 219.985 204.998 219.604C204.964 219.332 204.495 219.223 202.937 218.788C200.726 218.171 200.726 218.135 200.257 218.081C199.101 217.972 197.928 217.845 197.342 218.643Z" fill="url(#paint13_linear_0_9805)"/>
<path d="M197.634 215L199 218.358C198.941 218.545 197.871 219.235 196.881 218.918L195 215.69L197.634 215Z" fill="url(#paint14_linear_0_9805)"/>
<path d="M185.342 221.649C184.906 222.246 184.873 223.296 185.325 223.784C185.76 224.255 186.347 223.82 188.072 223.748C189.932 223.657 190.435 224.092 191.674 223.621C192.177 223.422 193.048 222.988 192.998 222.608C192.964 222.337 192.495 222.228 190.937 221.794C188.726 221.179 188.726 221.143 188.257 221.088C187.101 220.962 185.911 220.853 185.342 221.649Z" fill="url(#paint15_linear_0_9805)"/>
<path d="M185.634 219L187 222.358C186.941 222.545 185.871 223.235 184.881 222.918L183 219.69L185.634 219Z" fill="url(#paint16_linear_0_9805)"/>
<path d="M125 145.593C128.017 144.321 132.674 142.77 138.496 142.335C145.059 141.864 150.334 141.464 154.215 144.269C163.618 151.063 155.044 169.618 161.113 182.441C161.784 183.852 163.742 188.313 162.701 193.365C162.507 194.288 162.031 195.125 161.219 196.519C156.456 204.759 141.46 206.502 134.05 200.195C130.134 196.867 126.923 197.756 126.517 193.661C124.982 177.511 126.306 161.186 125 145.593Z" fill="url(#paint17_linear_0_9805)"/>
<path opacity="0.3" d="M134.022 165.483C132.552 162.152 133.537 158.134 130.666 156.637C129.611 156.09 128.349 155.914 127 156.037C128.038 168.055 129.145 180.073 130.338 192.602C130.736 196.743 131.254 196.92 135.474 200.25C140.351 204.127 148.342 204.902 155 203.017C145.747 198.136 139.002 192.867 139.556 187.862C140.196 182.047 150.382 179.58 149.673 175.527C148.912 171.263 137.238 172.778 134.022 165.483Z" fill="url(#paint18_linear_0_9805)"/>
<path d="M128.289 145.341C125.171 143.552 118.401 149.161 114.784 153.936C113.096 156.159 107.222 163.887 109.53 173.49C109.909 175.053 111.649 182.381 118.212 185.559C124.086 188.39 131.648 186.983 137.401 181.93C138.176 181.113 138.951 180.315 139.743 179.498C140.501 178.543 141.259 177.588 142 176.633C140.639 175.643 138.331 174.254 135.179 173.473C130.373 172.292 127.462 174.792 126.239 173.386C124.723 171.649 128.685 167.916 129.202 160.067C129.339 157.965 131.768 147.355 128.289 145.341Z" fill="url(#paint19_linear_0_9805)"/>
<path d="M137.346 196.131C135.835 202.733 139.332 199.824 146.588 195.609C154.23 191.149 171.167 184.321 179.178 191.062C185.152 196.079 181.849 204.963 191.178 213.777C192.812 215.328 194.341 216.39 195.289 217C196.8 216.251 198.294 215.502 199.805 214.753C200.156 211.182 201.052 197.455 191.512 185.906C189.21 183.119 184.818 177.753 177.843 175.855C159.009 170.733 138.752 190.052 137.346 196.131Z" fill="url(#paint20_linear_0_9805)"/>
<path d="M129.326 190.524C128.313 194.299 129.78 198.438 132.084 200.914C137.182 206.403 147.605 205.018 153.977 202.386C161.729 199.182 163.161 194.282 166.373 195.217C171.366 196.689 168.8 208.81 178.297 217.797C179.921 219.338 181.44 220.394 182.383 221C183.884 220.255 185.368 219.511 186.87 218.766C187.428 210.524 186.084 204.048 184.897 199.927C183.517 195.217 182.295 190.992 178.577 187.096C173.968 182.265 168.311 180.862 165.064 180.1C151.341 176.914 131.962 180.724 129.326 190.524Z" fill="url(#paint21_linear_0_9805)"/>
<path d="M172.005 177.054L135.376 179.248L145.451 183.294L172.269 179.464L172.005 177.054Z" fill="url(#paint22_linear_0_9805)"/>
<path d="M134.141 180.327C134.194 181.028 134.67 181.622 135.323 181.801L147.356 185.596L147.18 182.359L135.359 179.248C134.706 179.104 134.106 179.643 134.141 180.327Z" fill="url(#paint23_linear_0_9805)"/>
<path d="M140.029 178.397C139.809 178.363 140.889 175.796 141.9 176.013C142.912 176.23 147.954 178.647 148.477 179.747C149 180.864 149 180.864 149 180.864C149 180.864 146.909 181.181 145.56 180.847C144.228 180.497 141.816 178.664 140.029 178.397Z" fill="url(#paint24_linear_0_9805)"/>
<path d="M146.862 160.359L146.018 183.557C145.982 184.352 147.213 185.458 148.022 185.354L185.563 180.341C186.178 180.272 186.671 179.788 186.723 179.166L189.783 156.608C189.871 155.795 188.323 155.069 187.497 155.138L148.057 159.097C147.389 159.183 146.879 159.719 146.862 160.359Z" fill="url(#paint25_linear_0_9805)"/>
<path d="M147.776 160.981L146.932 184.179C146.897 184.974 147.6 185.614 148.409 185.527L186.46 180.981C187.075 180.912 187.567 180.428 187.62 179.805L189.836 157.195C189.923 156.383 189.22 155.691 188.376 155.778L148.936 159.736C148.303 159.788 147.794 160.324 147.776 160.981Z" fill="url(#paint26_linear_0_9805)"/>
<path opacity="0.3" d="M171.496 176.625C168.05 175.484 169.034 172.735 164.849 169.728C159.328 165.752 154.176 168.016 152.066 164.784C151.416 163.781 151.011 162.156 151.82 159.442L148.972 159.736C148.321 159.805 147.811 160.341 147.776 160.981L146.932 184.179C146.897 184.974 147.6 185.614 148.409 185.527L186.46 180.981C187.075 180.912 187.567 180.428 187.62 179.805L187.919 176.694C186.706 176.141 185.281 175.674 183.646 175.467C177.967 174.723 175.452 177.939 171.496 176.625Z" fill="url(#paint27_linear_0_9805)"/>
<path d="M138.408 133.363C138.603 135.844 138.479 137.841 138.319 139.207C138.142 140.772 137.947 141.185 137.699 141.527C137.327 142.049 136.742 142.498 133.286 143.649C131.408 144.279 131.159 144.279 131.142 144.476C131 145.429 136.441 148.235 141.758 147.066C145.018 146.347 147.872 144.225 147.606 143.236C147.34 142.246 144.097 143.038 142.998 141.275C142.218 140.052 142.856 138.2 143.654 136.654C142.661 135.035 139.4 134.945 138.408 133.363Z" fill="url(#paint28_linear_0_9805)"/>
<path d="M145.532 135.988C146.489 135.107 146.862 133.309 146.188 131.996C145.603 130.881 144.434 130.521 143.742 130.306C141.722 129.676 138.94 130.072 137.681 131.834C136.937 132.877 137.664 135.485 137.77 135.934C137.894 136.456 138.231 136.69 138.514 137.121C138.904 137.715 139.507 138.668 140.499 140.25C140.659 139.873 140.907 139.405 141.226 138.92C141.35 138.722 141.846 137.984 142.52 137.427C143.831 136.294 144.629 136.834 145.532 135.988Z" fill="url(#paint29_linear_0_9805)"/>
<path d="M138.94 138.794C138.94 138.794 139.897 141.311 142.644 141.635C145.107 141.923 146.454 136.456 145.107 134.999C144.664 134.514 143.654 134.154 142.768 134.244C142.236 134.298 142.041 134.478 141.173 134.532C140.375 134.586 140.18 134.46 139.914 134.622C139.578 134.819 139.276 135.377 139.454 137.067C139.081 136.51 138.55 136.222 138.124 136.33C138.054 136.348 137.876 136.438 137.735 136.582C137.309 137.175 137.735 138.092 138.94 138.794Z" fill="url(#paint30_linear_0_9805)"/>
<path d="M139.879 134.28C139.985 134.388 139.542 134.765 139.4 135.395C139.135 136.6 140.074 138.29 141.297 138.65C142.023 138.866 142.307 138.452 143.53 138.542C144.292 138.596 144.894 138.812 145.284 138.974C145.426 140.376 144.824 141.653 143.831 142.103C142.768 142.588 141.633 141.959 141.155 141.707C140.836 141.527 139.808 140.97 139.436 139.855C139.028 138.686 139.737 138.164 139.188 137.337C138.904 136.923 138.497 136.672 138.178 135.898C138.089 135.683 138.036 135.503 138.018 135.377C138.762 134.801 139.737 134.118 139.879 134.28Z" fill="url(#paint31_linear_0_9805)"/>
<path d="M144.31 139.297C144.31 139.297 143.742 139.477 142.839 139.261C142.803 139.243 142.75 139.261 142.732 139.279C142.697 139.369 143.211 139.855 143.778 139.801C144.185 139.765 144.54 139.459 144.504 139.351C144.487 139.315 144.398 139.297 144.31 139.297Z" fill="url(#paint32_linear_0_9805)"/>
<defs>
<linearGradient id="paint0_linear_0_9805" x1="56.2501" y1="47.9748" x2="119.903" y2="125.892" gradientUnits="userSpaceOnUse">
<stop offset="0.00359712" stop-color="#E38DDD"/>
<stop offset="1" stop-color="#9571F6"/>
</linearGradient>
<linearGradient id="paint1_linear_0_9805" x1="-26.7664" y1="128.813" x2="97.2826" y2="194.729" gradientUnits="userSpaceOnUse">
<stop stop-color="#FFC444"/>
<stop offset="0.9964" stop-color="#F36F56"/>
</linearGradient>
<linearGradient id="paint2_linear_0_9805" x1="17.4259" y1="91.252" x2="99.4947" y2="124.964" gradientUnits="userSpaceOnUse">
<stop stop-color="#FF9085"/>
<stop offset="1" stop-color="#FB6FBB"/>
</linearGradient>
<linearGradient id="paint3_linear_0_9805" x1="324.483" y1="-23.3587" x2="288.462" y2="-1.55064" gradientUnits="userSpaceOnUse">
<stop stop-color="#311944"/>
<stop offset="1" stop-color="#A03976"/>
</linearGradient>
<linearGradient id="paint4_linear_0_9805" x1="216.288" y1="60.688" x2="146.04" y2="132.801" gradientUnits="userSpaceOnUse">
<stop stop-color="#FF9085"/>
<stop offset="1" stop-color="#FB6FBB"/>
</linearGradient>
<linearGradient id="paint5_linear_0_9805" x1="368.168" y1="46.6111" x2="249.539" y2="-99.7697" gradientUnits="userSpaceOnUse">
<stop stop-color="#FF9085"/>
<stop offset="1" stop-color="#FB6FBB"/>
</linearGradient>
<linearGradient id="paint6_linear_0_9805" x1="236.007" y1="123.992" x2="319.006" y2="123.992" gradientUnits="userSpaceOnUse">
<stop stop-color="#311944"/>
<stop offset="1" stop-color="#893976"/>
</linearGradient>
<linearGradient id="paint7_linear_0_9805" x1="259.862" y1="12.9007" x2="240.766" y2="80.6587" gradientUnits="userSpaceOnUse">
<stop offset="0.00359712" stop-color="#E38DDD"/>
<stop offset="1" stop-color="#9571F6"/>
</linearGradient>
<linearGradient id="paint8_linear_0_9805" x1="268.32" y1="78.26" x2="285.052" y2="85.6303" gradientUnits="userSpaceOnUse">
<stop stop-color="#311944"/>
<stop offset="1" stop-color="#893976"/>
</linearGradient>
<linearGradient id="paint9_linear_0_9805" x1="234.044" y1="10.8273" x2="223.894" y2="77.9927" gradientUnits="userSpaceOnUse">
<stop offset="0.00359712" stop-color="#E38DDD"/>
<stop offset="1" stop-color="#9571F6"/>
</linearGradient>
<linearGradient id="paint10_linear_0_9805" x1="70.4008" y1="206.957" x2="219.713" y2="206.957" gradientUnits="userSpaceOnUse">
<stop stop-color="#444B8C"/>
<stop offset="0.9964" stop-color="#26264F"/>
</linearGradient>
<linearGradient id="paint11_linear_0_9805" x1="69.9943" y1="218.996" x2="295.993" y2="218.996" gradientUnits="userSpaceOnUse">
<stop stop-color="#444B8C"/>
<stop offset="0.9964" stop-color="#26264F"/>
</linearGradient>
<linearGradient id="paint12_linear_0_9805" x1="158.687" y1="160.126" x2="163.377" y2="153.828" gradientUnits="userSpaceOnUse">
<stop stop-color="#AA80F9"/>
<stop offset="0.9964" stop-color="#6165D7"/>
</linearGradient>
<linearGradient id="paint13_linear_0_9805" x1="200.749" y1="216.621" x2="198.997" y2="221.425" gradientUnits="userSpaceOnUse">
<stop stop-color="#444B8C"/>
<stop offset="0.9964" stop-color="#26264F"/>
</linearGradient>
<linearGradient id="paint14_linear_0_9805" x1="202.719" y1="216.547" x2="196.881" y2="210.314" gradientUnits="userSpaceOnUse">
<stop stop-color="#FFC444"/>
<stop offset="0.9964" stop-color="#F36F56"/>
</linearGradient>
<linearGradient id="paint15_linear_0_9805" x1="188.754" y1="219.622" x2="186.999" y2="224.423" gradientUnits="userSpaceOnUse">
<stop stop-color="#444B8C"/>
<stop offset="0.9964" stop-color="#26264F"/>
</linearGradient>
<linearGradient id="paint16_linear_0_9805" x1="190.714" y1="220.559" x2="184.876" y2="214.327" gradientUnits="userSpaceOnUse">
<stop stop-color="#FFC444"/>
<stop offset="0.9964" stop-color="#F36F56"/>
</linearGradient>
<linearGradient id="paint17_linear_0_9805" x1="138.953" y1="203.406" x2="163.677" y2="189.845" gradientUnits="userSpaceOnUse">
<stop stop-color="#AA80F9"/>
<stop offset="0.9964" stop-color="#6165D7"/>
</linearGradient>
<linearGradient id="paint18_linear_0_9805" x1="141.884" y1="204.535" x2="166.22" y2="192.061" gradientUnits="userSpaceOnUse">
<stop stop-color="#AA80F9"/>
<stop offset="0.9964" stop-color="#6165D7"/>
</linearGradient>
<linearGradient id="paint19_linear_0_9805" x1="129.315" y1="190.612" x2="152.09" y2="169.655" gradientUnits="userSpaceOnUse">
<stop stop-color="#AA80F9"/>
<stop offset="0.9964" stop-color="#6165D7"/>
</linearGradient>
<linearGradient id="paint20_linear_0_9805" x1="188.184" y1="223.977" x2="200.231" y2="184.242" gradientUnits="userSpaceOnUse">
<stop stop-color="#FF9085"/>
<stop offset="1" stop-color="#FB6FBB"/>
</linearGradient>
<linearGradient id="paint21_linear_0_9805" x1="149.228" y1="172.802" x2="132.242" y2="214.147" gradientUnits="userSpaceOnUse">
<stop stop-color="#FF9085"/>
<stop offset="1" stop-color="#FB6FBB"/>
</linearGradient>
<linearGradient id="paint22_linear_0_9805" x1="197.054" y1="192.98" x2="196.901" y2="180.468" gradientUnits="userSpaceOnUse">
<stop stop-color="#311944"/>
<stop offset="1" stop-color="#893976"/>
</linearGradient>
<linearGradient id="paint23_linear_0_9805" x1="127.851" y1="176.962" x2="128.426" y2="188.363" gradientUnits="userSpaceOnUse">
<stop stop-color="#311944"/>
<stop offset="1" stop-color="#893976"/>
</linearGradient>
<linearGradient id="paint24_linear_0_9805" x1="140.619" y1="181.27" x2="149.064" y2="179.271" gradientUnits="userSpaceOnUse">
<stop stop-color="#FFC444"/>
<stop offset="0.9964" stop-color="#F36F56"/>
</linearGradient>
<linearGradient id="paint25_linear_0_9805" x1="180.313" y1="171.874" x2="175.101" y2="158.785" gradientUnits="userSpaceOnUse">
<stop stop-color="#444B8C"/>
<stop offset="0.9964" stop-color="#26264F"/>
</linearGradient>
<linearGradient id="paint26_linear_0_9805" x1="185.149" y1="201.77" x2="193.156" y2="161.241" gradientUnits="userSpaceOnUse">
<stop stop-color="#311944"/>
<stop offset="1" stop-color="#893976"/>
</linearGradient>
<linearGradient id="paint27_linear_0_9805" x1="148.423" y1="185.928" x2="189.004" y2="178.653" gradientUnits="userSpaceOnUse">
<stop stop-color="#311944"/>
<stop offset="1" stop-color="#893976"/>
</linearGradient>
<linearGradient id="paint28_linear_0_9805" x1="149.547" y1="156.796" x2="156.175" y2="132.979" gradientUnits="userSpaceOnUse">
<stop stop-color="#FFC444"/>
<stop offset="0.9964" stop-color="#F36F56"/>
</linearGradient>
<linearGradient id="paint29_linear_0_9805" x1="141.043" y1="150.772" x2="151.35" y2="137.094" gradientUnits="userSpaceOnUse">
<stop stop-color="#311944"/>
<stop offset="1" stop-color="#6B3976"/>
</linearGradient>
<linearGradient id="paint30_linear_0_9805" x1="129.188" y1="133.994" x2="126.679" y2="157.309" gradientUnits="userSpaceOnUse">
<stop stop-color="#FFC444"/>
<stop offset="0.9964" stop-color="#F36F56"/>
</linearGradient>
<linearGradient id="paint31_linear_0_9805" x1="142.866" y1="151.821" x2="153.047" y2="138.006" gradientUnits="userSpaceOnUse">
<stop stop-color="#311944"/>
<stop offset="1" stop-color="#6B3976"/>
</linearGradient>
<linearGradient id="paint32_linear_0_9805" x1="139.317" y1="138.313" x2="139.236" y2="141.168" gradientUnits="userSpaceOnUse">
<stop stop-color="#FFC444"/>
<stop offset="1" stop-color="#F36F56"/>
</linearGradient>
</defs>
</svg>
