<svg width="384" height="320" viewBox="0 0 384 320" fill="none" xmlns="http://www.w3.org/2000/svg">
<path d="M373.631 101.016C348.218 19.4645 244.467 -14.2296 172.432 5.50042C164.64 7.62857 99.7585 26.4884 79.8306 85.3534C78.8342 88.2993 60.2069 145.969 92.1754 180.124C115.827 205.39 148.404 197.758 161.304 223.296C172.548 245.542 153.123 261.854 163.444 276.667C179.166 299.217 247.089 294.154 294.223 267.379C342.889 239.734 396.265 173.656 373.631 101.016Z" fill="#E9E9E9"/>
<path d="M185.321 265.899C185.971 263.798 185.982 258.283 185.541 256.791C182.636 246.906 178.042 227.997 170.784 222.398C169.546 221.442 165.403 227.398 163.872 227.398C160.494 230.245 159.477 231.537 155.156 231.989C142.402 233.323 134.892 198.299 118.603 217.177C106.667 231.012 104.863 249.921 84.5991 229.604C64.3352 209.287 16.4444 197.312 18.5736 238.933C19.7903 262.821 45.0572 261.729 54.5704 281.783C63.6115 300.839 76.9739 303.003 92.067 292.34C107.16 281.688 108.922 295.965 118.676 311.417C130.392 329.98 145.412 303.686 151.527 290.659C156.456 280.175 174.507 258.567 185.321 265.899Z" fill="url(#paint0_linear_0_37685)"/>
<path d="M178.66 240.372L178.451 239.941C131.609 278.484 70.7016 273.148 15.5318 225.665L15.3535 226.085C41.5015 248.587 70.0304 262.096 97.867 265.143C127.12 268.347 155.061 259.785 178.66 240.372Z" fill="#FCFDFE"/>
<path d="M122.935 319.821C125.987 299.515 138.028 271.614 149.785 257.621L149.534 257.232C137.724 271.267 125.63 299.284 122.568 319.674L122.935 319.821Z" fill="#FCFDFE"/>
<path d="M169.388 247.778L169.273 247.295C161.239 250.047 152.156 247.053 142.276 238.386C135.028 232.031 127.539 222.839 120.008 211.052L119.736 211.367C127.298 223.185 134.818 232.419 142.097 238.806C152.061 247.547 161.249 250.572 169.388 247.778Z" fill="#FCFDFE"/>
<path d="M93.9024 264.502L93.808 264.008C78.4003 268.116 67.6286 284.409 61.3145 297.362L61.6291 297.666C67.9118 284.777 78.6101 268.578 93.9024 264.502Z" fill="#FCFDFE"/>
<path d="M57.6538 253.776L57.8111 253.345C41.5329 241.149 32.8379 217.481 29.0934 204.455L28.7473 204.602C32.5127 217.691 41.2602 241.485 57.6538 253.776Z" fill="#FCFDFE"/>
<path d="M163.927 292.612C170.342 284.298 176.621 275.752 182.753 266.996C182.952 267.038 172.848 242.63 158.791 238.042C131.276 229.433 129.872 199.849 125.972 185.193C120.972 164.081 108.3 148.029 95.9204 159.241C81.9794 171.293 61.7492 142.066 48.0388 111.075C42.0536 95.2955 23.0918 87.1488 11.5302 92.062C-0.47168 96.7443 -5.06278 114.508 7.71473 145.142C21.4776 181.592 49.2233 185.319 64.5584 195.681C79.621 205.833 72.6505 232.037 92.0316 235.375C108.708 238.85 125.909 236.457 130.333 256.341C134.526 276.161 142.775 287.836 163.927 292.612Z" fill="url(#paint1_linear_0_37685)"/>
<path d="M174.745 284.466C174.64 284.266 141.412 244.121 103.845 209.938C98.0588 204.143 92.0841 198.411 86.3086 192.867C54.1394 162.013 23.7522 132.869 9.96843 81.7002L9.44434 81.8997C23.291 133.31 53.7516 162.527 86.0046 193.466C91.7802 199.009 97.7444 204.731 103.541 210.536C141.307 244.908 174.126 284.634 174.315 284.896L174.745 284.466Z" fill="#BEB8F2"/>
<path d="M56.6551 164.133L56.7494 163.419C41.5401 158.38 21.6558 149.593 10.9747 144.879C2.32707 141.058 2.31659 141.079 2.11743 141.341L2.32707 141.614L2.37948 141.971C2.74635 142.003 6.3207 143.578 10.8489 145.583C21.5195 150.297 41.4143 159.094 56.6551 164.133Z" fill="#BEB8F2"/>
<path d="M44.538 148.942C38.0916 132.974 36.9595 119.526 37.1482 111.064C37.3474 101.847 39.1503 95.9989 39.5066 95.516L39.3494 95.306L39.318 94.8441C39.1503 94.8441 39.0559 95.0016 38.9301 95.306C37.1272 99.5579 32.7248 121.174 44.0663 149.257L44.538 148.942Z" fill="#BEB8F2"/>
<path d="M127.293 233.412L127.691 232.929C109.012 206.4 107.797 166.433 108.142 150.486C108.163 149.625 108.163 149.352 108.153 149.226L107.597 149.278L107.87 149.257L107.597 149.278C107.608 149.373 107.597 149.856 107.587 150.412C107.335 161.918 107.996 173.141 109.547 183.786C112.513 204.216 118.488 220.909 127.293 233.412Z" fill="#BEB8F2"/>
<path fill-rule="evenodd" clip-rule="evenodd" d="M116.245 221.654L116.056 222.326C96.5211 210.917 77.7867 226.414 77.4647 226.68L77.4618 226.683L77.2731 226.399L77.3674 226.756L77.053 226.599V226.158C77.3255 225.832 96.4341 210.085 116.245 221.654Z" fill="#BEB8F2"/>
<path d="M169.231 277.988C165.783 272.288 161.653 260.918 161.569 239.134C161.569 237.895 161.569 237.895 161.454 237.759L161.066 238.252L161.255 238L160.982 238.063C160.993 238.147 160.993 238.577 160.993 239.081C161.076 261.075 165.28 272.613 168.791 278.419L169.231 277.988Z" fill="#BEB8F2"/>
<path d="M160.762 269.117L161.087 268.55C153.058 260.141 138.393 262.23 130.364 264.235C130.113 264.298 129.945 264.34 129.882 264.351L129.987 265.086C130.05 265.075 130.228 265.033 130.501 264.96C138.435 262.986 152.911 260.907 160.762 269.117Z" fill="#BEB8F2"/>
<path d="M223.973 229.319L179.488 183.18L304.595 62.2957L349.08 108.434L223.973 229.319Z" fill="url(#paint2_linear_0_37685)"/>
<path d="M316.383 127.635L282.825 92.8344L303.882 72.4893L337.43 107.29L316.383 127.635Z" fill="url(#paint3_linear_0_37685)"/>
<path d="M291.749 151.434L258.192 116.633L279.238 96.2987L312.796 131.1L291.749 151.434Z" fill="url(#paint4_linear_0_37685)"/>
<path d="M267.116 175.233L233.558 140.432L254.605 120.098L288.163 154.899L267.116 175.233Z" fill="url(#paint5_linear_0_37685)"/>
<path d="M242.482 199.043L208.925 164.242L229.972 143.907L263.529 178.698L242.482 199.043Z" fill="url(#paint6_linear_0_37685)"/>
<g opacity="0.3">
<path d="M349.08 108.435L325.433 83.9111C323.912 90.7348 321.07 97.8525 315.89 104.13C306.043 116.077 294.738 116.497 277.644 127.048C259.806 138.06 254.836 148.264 241.14 162.825C231.146 173.449 216.423 186.477 194.61 198.875L223.973 229.319L349.08 108.435Z" fill="url(#paint7_linear_0_37685)"/>
</g>
<path d="M202.213 227.734L185.487 165.838L353.338 120.371L370.064 182.278L202.213 227.734Z" fill="url(#paint8_linear_0_37685)"/>
<path d="M332.176 183.296L319.55 136.611L347.79 128.958L360.406 175.643L332.176 183.296Z" fill="url(#paint9_linear_0_37685)"/>
<path d="M299.121 192.251L286.506 145.556L314.736 137.913L327.362 184.598L299.121 192.251Z" fill="url(#paint10_linear_0_37685)"/>
<path d="M266.067 201.206L253.451 154.51L281.692 146.868L294.308 193.553L266.067 201.206Z" fill="url(#paint11_linear_0_37685)"/>
<path d="M233.023 210.15L220.408 163.465L248.638 155.812L261.264 202.507L233.023 210.15Z" fill="url(#paint12_linear_0_37685)"/>
<g opacity="0.3">
<path d="M370.064 182.278L359.043 141.514C352.059 150.49 345.032 154.542 339.412 156.536C323.608 162.153 314.17 153.314 293.438 157.061C273.995 160.578 265.91 171.328 252.78 179.265C240.291 186.813 221.393 192.933 191.894 189.563L202.213 227.745L370.064 182.278Z" fill="url(#paint13_linear_0_37685)"/>
</g>
<path d="M188.15 220.406L203.325 158.111L372.256 199.347L357.082 261.653L188.15 220.406Z" fill="url(#paint14_linear_0_37685)"/>
<path d="M323.388 244.247L334.839 197.258L363.258 204.197L351.817 251.187L323.388 244.247Z" fill="url(#paint15_linear_0_37685)"/>
<path d="M290.134 236.122L301.575 189.133L329.994 196.072L318.553 243.061L290.134 236.122Z" fill="url(#paint16_linear_0_37685)"/>
<path d="M256.87 228.007L268.311 181.018L296.73 187.957L285.289 234.946L256.87 228.007Z" fill="url(#paint17_linear_0_37685)"/>
<path d="M223.606 219.881L235.047 172.892L263.466 179.832L252.025 226.821L223.606 219.881Z" fill="url(#paint18_linear_0_37685)"/>
<g opacity="0.3">
<path d="M357.082 261.653L366.824 221.666C353.212 229.487 342.946 230.054 335.846 228.983C319.266 226.464 315.124 214.202 295.073 207.704C276.271 201.615 264.075 207.263 248.764 208.04C235.184 208.733 217.293 205.709 195.166 191.6L188.15 220.406L357.082 261.653Z" fill="url(#paint19_linear_0_37685)"/>
</g>
<ellipse cx="208.673" cy="192.419" rx="6.8164" ry="6.82372" fill="url(#paint20_linear_0_37685)"/>
<path d="M198.6 187.495C191.874 181.198 182.984 170.972 178.969 156.514C173.694 137.55 181.418 127.963 180.556 95.8612C180.009 75.5564 179.421 61.4018 169.154 53.8268C161.104 47.8862 148.083 46.7127 140.18 52.2133C133.612 56.7918 129.808 66.5146 128.641 73.461C127.696 79.1187 128.452 83.2362 125.184 86.2117C121.842 89.2606 118.227 87.5319 115.095 89.7949C108.748 94.3735 112.426 109.534 113.014 111.986C119.614 139.247 144.815 157.635 155.902 165.514C165.066 172.03 179.242 180.716 198.6 187.495Z" fill="url(#paint21_linear_0_37685)"/>
<g opacity="0.5">
<path d="M206.261 192.618C194.512 188.165 184.413 182.864 176.216 176.839C164.078 167.923 156.522 157.676 153.747 146.382C151.583 137.55 152.381 127.995 153.401 115.904C154.241 105.877 155.744 98.8471 157.068 92.6551C158.781 84.64 160.137 78.3013 159.202 69.1548C158.245 59.851 155.166 50.6101 150.059 41.6731L150.71 41.3064C155.881 50.3377 158.981 59.6834 159.948 69.0919C160.904 78.3642 159.538 84.7448 157.804 92.8227C156.48 98.9938 154.987 106.003 154.147 115.977C153.096 128.477 152.339 137.508 154.473 146.225C157.205 157.341 164.666 167.452 176.657 176.253C184.791 182.235 194.848 187.505 206.524 191.937L206.261 192.618Z" fill="white"/>
<path d="M154.325 109.041L154.199 108.633C148.798 90.5388 139.098 79.2234 131.91 72.9057C124.122 66.0641 117.523 63.4657 117.46 63.4448L117.733 62.7428C117.796 62.7638 124.501 65.404 132.383 72.3189C139.602 78.6472 149.313 89.9625 154.798 107.994C156.301 107.271 161.965 104.306 167.619 98.4805C173.673 92.257 180.976 81.3922 181.365 64.9849L182.122 65.0059C181.722 81.6751 174.303 92.7075 168.134 99.0253C161.461 105.877 154.777 108.832 154.704 108.853L154.325 109.041Z" fill="white"/>
<path d="M152.917 136.062L152.654 135.989C143.785 133.39 133.717 123.228 122.746 105.773C114.601 92.8123 108.968 80.4387 108.916 80.3235L109.599 80.0197C109.82 80.5121 131.91 128.801 152.602 135.203C153.653 133.705 159.864 124.998 167.672 117.36C172.18 112.949 179.768 110.1 185.348 108.486C191.37 106.747 196.414 106.024 196.467 106.014L196.572 106.757C196.372 106.789 176.626 109.649 168.197 117.895C159.706 126.193 153.127 135.758 153.064 135.853L152.917 136.062Z" fill="white"/>
<path d="M173.2 174.43L172.453 174.346C172.359 174.335 162.396 173.12 149.397 168.594C137.395 164.424 120.255 156.493 106.783 142.443L80.7937 115.338L81.3402 114.825L107.329 141.929C120.696 155.874 137.711 163.743 149.628 167.881C160.536 171.674 169.28 173.13 171.802 173.497C166.842 164.382 167.777 154.47 174.503 144.769C179.684 137.309 186.546 132.542 186.609 132.489L187.04 133.108C186.977 133.149 180.209 137.854 175.112 145.209C168.313 155.015 167.546 164.623 172.832 173.78L173.2 174.43Z" fill="white"/>
</g>
<path d="M194.911 172.963C181.827 179.354 164.235 185.63 144.71 186.101C139.728 186.216 108.947 186.95 106.394 174.042C105.49 169.495 108.853 167.096 107.76 160.998C106.457 153.769 100.908 152.511 94.2873 145.9C90.3359 141.961 78.7759 130.415 83.3999 118.733C86.1638 111.755 94.592 105.029 102.61 103.248C114.37 100.628 122.966 109.146 137.248 123.804C149.912 136.796 150.416 141.238 159.695 150.437C166.579 157.268 177.54 165.954 194.911 172.963Z" fill="url(#paint22_linear_0_37685)"/>
<g opacity="0.5">
<path d="M194.606 172.869C180.209 172.869 165.538 169.076 150.805 161.532C129.377 150.552 113.182 134.365 103.367 122.725C96.5151 114.605 92.0277 104.138 90.01 91.6284L90.7562 91.5132C92.7529 103.887 97.1877 114.228 103.945 122.253C113.718 133.841 129.839 149.955 151.152 160.883C171.613 171.37 191.937 174.545 211.568 170.333C226.302 167.169 240.121 160.139 252.648 149.431L253.142 149.997C240.52 160.788 226.585 167.871 211.736 171.066C206.072 172.261 200.355 172.869 194.606 172.869Z" fill="white"/>
<path d="M125.573 144.444L125.236 144.402C88.0554 139.729 78.1874 118.555 76.0435 112.174C76.0015 112.059 75.9805 111.975 75.9595 111.944L76.6321 111.619C76.6531 111.661 76.6846 111.766 76.7476 111.933C78.8495 118.188 88.5178 138.912 124.974 143.616C125.594 140.609 129.692 117.759 115.841 101.571L116.409 101.089C131.437 118.649 125.688 143.868 125.636 144.119L125.573 144.444Z" fill="white"/>
<path d="M116.44 173.204C115.368 173.204 114.359 173.162 113.424 173.099C104.481 172.46 99.4156 169.296 99.1949 169.17L99.5943 168.541C99.6468 168.573 104.744 171.747 113.519 172.366C121.59 172.931 134.495 171.381 150.237 160.82C150.174 158.714 149.323 140.201 137.889 120.451L125.594 99.2243L126.245 98.8472L138.541 120.074C150.742 141.133 150.994 160.82 150.994 161.019V161.218L150.826 161.333C136.649 170.878 124.7 173.204 116.44 173.204Z" fill="white"/>
</g>
<path d="M383.314 275.089L87.9011 272.572V280.016C87.9011 282.04 89.1915 283.759 90.933 284.063L174.472 298.731C175.458 298.909 176.465 298.951 177.472 298.867L380.103 282.145C381.908 281.998 383.314 280.268 383.314 278.192V275.089Z" fill="#26264F"/>
<path d="M276.108 263.157L90.9541 276.777C87.639 277.018 84.9429 274.428 84.9429 270.989V133.191C84.9429 129.752 87.639 126.963 90.9541 126.963H276.108C278.835 126.963 281.049 129.479 281.049 132.593V257.16C281.038 260.274 278.835 262.958 276.108 263.157Z" fill="#26264F"/>
<path d="M279.055 263.157L93.9019 276.777C90.5868 277.018 87.8906 274.428 87.8906 270.989V133.191C87.8906 129.752 90.5868 126.963 93.9019 126.963H279.055C281.783 126.963 283.997 129.479 283.997 132.593V257.16C283.997 260.274 281.783 262.958 279.055 263.157Z" fill="url(#paint23_linear_0_37685)"/>
<path d="M273.285 254.382L100.837 266.208C98.1403 266.397 95.9478 264.269 95.9478 261.459V140.824C95.9478 138.014 98.1403 135.728 100.837 135.718L273.285 134.973C275.541 134.963 277.356 137.028 277.356 139.586V249.464C277.366 252.023 275.541 254.224 273.285 254.382Z" fill="url(#paint24_linear_0_37685)"/>
<path d="M193.02 130.737C193.02 132.017 192.065 133.055 190.89 133.065C189.715 133.065 188.76 132.027 188.76 130.748C188.76 129.469 189.715 128.42 190.89 128.42C192.065 128.42 193.02 129.458 193.02 130.737Z" fill="white"/>
<path opacity="0.48" d="M93.9019 276.777L278.122 263.22L279.055 263.147C280.304 263.052 281.447 262.434 282.318 261.501C269.058 260.777 260.833 256.07 255.514 251.215C244.845 241.454 246.701 231.84 235.193 225.423C220.841 217.424 209.564 227.562 198.674 217.56C192.075 211.5 195.317 206.971 187.197 197.912C178.207 187.878 172.342 191.244 163.31 182.217C151.874 170.799 157.592 161.908 147.752 153.709C135.802 143.759 122.93 152.965 111.558 143.424C106.659 139.314 103.963 133.327 102.557 126.963H93.9019C90.5868 126.963 87.8906 129.752 87.8906 133.191V270.989C87.8906 274.439 90.5868 277.028 93.9019 276.777Z" fill="white"/>
<path d="M286.441 262.402L87.8906 276.745L174.461 291.937C175.447 292.115 176.455 292.157 177.462 292.074L383.314 275.089L289.599 262.497C288.55 262.36 287.49 262.329 286.441 262.402Z" fill="url(#paint25_linear_0_37685)"/>
<path d="M116.867 276.86L282.161 264.751L333.314 271.566L169.447 284.514L116.867 276.86Z" fill="#26264F"/>
<path d="M301.729 225.703C301.729 240.963 289.282 254.124 273.709 255.111L100.265 266.121C118.609 264.956 133.249 250.608 133.249 234.068V43.6993L301.729 50.1436V225.703Z" fill="url(#paint26_linear_0_37685)"/>
<path d="M221.823 94.0885C221.823 111.333 207.184 125.292 188.85 125.271C170.18 125.25 154.805 110.808 154.805 93.0074C154.805 75.207 170.18 61.2689 188.85 61.8462C207.194 62.4234 221.823 76.8548 221.823 94.0885Z" fill="url(#paint27_linear_0_37685)"/>
<path d="M206.774 74.9446V91.5066H205.914C204.969 85.1568 203.479 80.7906 201.432 78.3871C199.743 76.3825 197.256 75.3539 193.96 75.3119C193.131 75.3014 192.68 75.3329 192.596 75.4169C192.428 75.5323 192.344 76.0361 192.344 76.9387V108.646C192.344 109.779 192.428 110.503 192.596 110.818C192.68 110.976 192.963 111.144 193.467 111.312C193.96 111.49 194.915 111.627 196.322 111.731C197.717 111.836 199.617 111.889 201.999 111.868V112.445L174.871 112.624V112.036C177.274 112.025 179.184 111.952 180.611 111.826C182.039 111.7 182.994 111.543 183.497 111.364C184.001 111.186 184.326 110.965 184.463 110.713C184.61 110.462 184.683 109.779 184.683 108.677V76.8968C184.683 75.8787 184.557 75.3224 184.305 75.2385C184.179 75.1965 183.739 75.1755 182.994 75.165C179.73 75.123 177.232 76.0781 175.5 78.0303C173.391 80.4548 171.806 84.8524 170.746 91.2232H169.854V74.4723L206.774 74.9446Z" fill="white"/>
<path d="M290.836 92.2308L230.251 91.2022V80.6647L290.836 82.0081V92.2308Z" fill="#D8DEE8"/>
<path d="M290.836 100.68L230.251 99.8925V94.6238L290.836 95.5684V100.68Z" fill="#D8DEE8"/>
<path d="M290.836 109.118L230.251 108.593V103.324L290.836 104.007V109.118Z" fill="#D8DEE8"/>
<path d="M290.836 154.375L160.493 156.18V150.953L290.836 149.463V154.375Z" fill="#D8DEE8"/>
<path d="M149.862 156.327L155.76 156.243V151.006L149.862 151.069V156.327Z" fill="url(#paint28_linear_0_37685)"/>
<path d="M290.836 162.488L160.493 164.818V159.591L290.836 157.576V162.488Z" fill="#D8DEE8"/>
<path d="M149.862 165.007L155.76 164.902V159.665L149.862 159.749V165.007Z" fill="url(#paint29_linear_0_37685)"/>
<path d="M290.836 170.591L160.493 173.456V168.229L290.836 165.679V170.591Z" fill="#D8DEE8"/>
<path d="M149.862 173.687L155.76 173.561V168.313L149.862 168.428V173.687Z" fill="url(#paint30_linear_0_37685)"/>
<path d="M290.836 178.704L160.493 182.094V176.856L290.836 173.792V178.704Z" fill="#D8DEE8"/>
<path d="M149.862 182.367L155.76 182.22V176.972L149.862 177.108V182.367Z" fill="url(#paint31_linear_0_37685)"/>
<path d="M290.836 194.93L149.862 199.726V194.468L290.836 190.018V194.93Z" fill="#D8DEE8"/>
<path d="M290.836 203.032L149.862 208.406V203.148L290.836 198.12V203.032Z" fill="#D8DEE8"/>
<path d="M290.836 211.145L149.862 217.086V211.828L290.836 206.233V211.145Z" fill="#D8DEE8"/>
<path d="M290.836 219.258L149.862 225.766V220.507L290.836 214.346V219.258Z" fill="#D8DEE8"/>
<path d="M369.165 301.352L323.972 305.458C322.69 305.572 321.556 304.652 321.44 303.39C321.325 302.128 322.259 301.011 323.541 300.897L368.734 296.791C370.015 296.677 371.15 297.597 371.266 298.859C371.381 300.121 370.446 301.228 369.165 301.352Z" fill="#D8DEE8"/>
<path d="M381.497 295.622L371.455 296.532L370.929 290.947L380.972 290.036C381.056 290.026 381.119 290.088 381.13 290.161L381.623 295.456C381.634 295.549 381.581 295.612 381.497 295.622Z" fill="#D8DEE8"/>
<path d="M198.384 310.64L194.171 311.023C193.699 311.065 193.278 310.723 193.236 310.258C193.194 309.792 193.541 309.379 194.014 309.337L198.226 308.954L198.384 310.64Z" fill="#26264F"/>
<path d="M195.873 310.02C195.957 310.878 196.629 311.561 197.501 311.654L215.402 313.619L214.404 302.955L197.165 308.117C196.335 308.365 195.789 309.161 195.873 310.02Z" fill="#D8DEE8"/>
<path d="M196.955 309.172C196.976 309.41 197.606 309.554 198.457 309.523L215.98 307.444L215.707 304.528L198.363 308.562C197.522 308.675 196.934 308.934 196.955 309.172Z" fill="white"/>
<path d="M372.253 299.18L214.982 313.661C211.988 313.93 210.99 303.266 213.984 302.997L371.255 288.516C373.041 288.35 374.617 289.643 374.785 291.402L375.184 295.705C375.352 297.463 374.039 299.025 372.253 299.18Z" fill="url(#paint32_linear_0_37685)"/>
<path d="M337.418 296.118L213.795 307.537L213.553 305.024L337.187 293.605L337.418 296.118Z" fill="white"/>
<path d="M339.036 302.242L337.597 302.376L336.599 291.66L338.038 291.536L339.036 302.242Z" fill="url(#paint33_linear_0_37685)"/>
<path d="M369.586 288.664L371.03 288.533L372.033 299.245L370.589 299.376L369.586 288.664Z" fill="white"/>
<path opacity="0.3" d="M371.255 288.516L295.892 295.56C287.299 303.338 281.311 304.59 277.151 303.866C274.272 303.359 270.543 301.6 264.828 302.438C259.303 303.245 258.998 305.448 254.502 305.583C247.831 305.789 245.541 301.062 240.562 302.521C237.883 303.307 238.314 304.745 234.605 306.958C233.229 307.775 227.504 311.189 220.949 309.606C217.135 308.686 214.415 306.41 212.629 304.31C211.505 307.217 212.618 313.868 214.992 313.65L372.264 299.17C374.049 299.004 375.363 297.453 375.194 295.694L374.795 291.391C374.617 289.643 373.041 288.35 371.255 288.516Z" fill="url(#paint34_linear_0_37685)"/>
<defs>
<linearGradient id="paint0_linear_0_37685" x1="90.3525" y1="371.996" x2="336.379" y2="217.898" gradientUnits="userSpaceOnUse">
<stop stop-color="#FFC444"/>
<stop offset="0.9964" stop-color="#F36F56"/>
</linearGradient>
<linearGradient id="paint1_linear_0_37685" x1="-69.7744" y1="187.918" x2="104.764" y2="350.266" gradientUnits="userSpaceOnUse">
<stop stop-color="#AA80F9"/>
<stop offset="0.9964" stop-color="#6165D7"/>
</linearGradient>
<linearGradient id="paint2_linear_0_37685" x1="233.815" y1="118.426" x2="231.63" y2="180.328" gradientUnits="userSpaceOnUse">
<stop offset="0.00359712" stop-color="white"/>
<stop offset="1" stop-color="#F4F7FA"/>
</linearGradient>
<linearGradient id="paint3_linear_0_37685" x1="270.227" y1="31.3433" x2="186.873" y2="149.229" gradientUnits="userSpaceOnUse">
<stop stop-color="#FFC444"/>
<stop offset="0.9964" stop-color="#F36F56"/>
</linearGradient>
<linearGradient id="paint4_linear_0_37685" x1="271.427" y1="17.8723" x2="188.094" y2="135.773" gradientUnits="userSpaceOnUse">
<stop stop-color="#FFC444"/>
<stop offset="0.9964" stop-color="#F36F56"/>
</linearGradient>
<linearGradient id="paint5_linear_0_37685" x1="266.093" y1="13.8359" x2="182.76" y2="131.737" gradientUnits="userSpaceOnUse">
<stop stop-color="#FFC444"/>
<stop offset="0.9964" stop-color="#F36F56"/>
</linearGradient>
<linearGradient id="paint6_linear_0_37685" x1="255.043" y1="18.0434" x2="171.71" y2="135.944" gradientUnits="userSpaceOnUse">
<stop stop-color="#FFC444"/>
<stop offset="0.9964" stop-color="#F36F56"/>
</linearGradient>
<linearGradient id="paint7_linear_0_37685" x1="320.163" y1="66.6258" x2="236.47" y2="127.891" gradientUnits="userSpaceOnUse">
<stop stop-color="#FFC444"/>
<stop offset="0.9964" stop-color="#F36F56"/>
</linearGradient>
<linearGradient id="paint8_linear_0_37685" x1="312.508" y1="110.974" x2="262.156" y2="184.548" gradientUnits="userSpaceOnUse">
<stop offset="0.00359712" stop-color="white"/>
<stop offset="1" stop-color="#F4F7FA"/>
</linearGradient>
<linearGradient id="paint9_linear_0_37685" x1="343.95" y1="72.0828" x2="228.964" y2="103.392" gradientUnits="userSpaceOnUse">
<stop offset="0.00359712" stop-color="#E38DDD"/>
<stop offset="1" stop-color="#9571F6"/>
</linearGradient>
<linearGradient id="paint10_linear_0_37685" x1="341.232" y1="66.4265" x2="226.246" y2="97.736" gradientUnits="userSpaceOnUse">
<stop offset="0.00359712" stop-color="#E38DDD"/>
<stop offset="1" stop-color="#9571F6"/>
</linearGradient>
<linearGradient id="paint11_linear_0_37685" x1="338.514" y1="60.7702" x2="223.528" y2="92.0798" gradientUnits="userSpaceOnUse">
<stop offset="0.00359712" stop-color="#E38DDD"/>
<stop offset="1" stop-color="#9571F6"/>
</linearGradient>
<linearGradient id="paint12_linear_0_37685" x1="355.803" y1="45.4777" x2="240.817" y2="76.7872" gradientUnits="userSpaceOnUse">
<stop offset="0.00359712" stop-color="#E38DDD"/>
<stop offset="1" stop-color="#9571F6"/>
</linearGradient>
<linearGradient id="paint13_linear_0_37685" x1="309.977" y1="126.258" x2="275.643" y2="198.724" gradientUnits="userSpaceOnUse">
<stop offset="0.00359712" stop-color="#E38DDD"/>
<stop offset="1" stop-color="#9571F6"/>
</linearGradient>
<linearGradient id="paint14_linear_0_37685" x1="238.708" y1="182.303" x2="232.273" y2="239.315" gradientUnits="userSpaceOnUse">
<stop offset="0.00359712" stop-color="white"/>
<stop offset="1" stop-color="#F4F7FA"/>
</linearGradient>
<linearGradient id="paint15_linear_0_37685" x1="350.608" y1="142.66" x2="229.528" y2="139.011" gradientUnits="userSpaceOnUse">
<stop stop-color="#FF9085"/>
<stop offset="1" stop-color="#FB6FBB"/>
</linearGradient>
<linearGradient id="paint16_linear_0_37685" x1="358.365" y1="136.78" x2="237.285" y2="133.133" gradientUnits="userSpaceOnUse">
<stop stop-color="#FF9085"/>
<stop offset="1" stop-color="#FB6FBB"/>
</linearGradient>
<linearGradient id="paint17_linear_0_37685" x1="363.043" y1="130.751" x2="241.963" y2="127.104" gradientUnits="userSpaceOnUse">
<stop stop-color="#FF9085"/>
<stop offset="1" stop-color="#FB6FBB"/>
</linearGradient>
<linearGradient id="paint18_linear_0_37685" x1="370.733" y1="124.889" x2="249.653" y2="121.242" gradientUnits="userSpaceOnUse">
<stop stop-color="#FF9085"/>
<stop offset="1" stop-color="#FB6FBB"/>
</linearGradient>
<linearGradient id="paint19_linear_0_37685" x1="323.755" y1="173.168" x2="303.853" y2="227.837" gradientUnits="userSpaceOnUse">
<stop stop-color="#FF9085"/>
<stop offset="1" stop-color="#FB6FBB"/>
</linearGradient>
<linearGradient id="paint20_linear_0_37685" x1="199.037" y1="192.247" x2="208.509" y2="202.049" gradientUnits="userSpaceOnUse">
<stop offset="0.00359712" stop-color="#E38DDD"/>
<stop offset="1" stop-color="#9571F6"/>
</linearGradient>
<linearGradient id="paint21_linear_0_37685" x1="111.42" y1="187.486" x2="198.599" y2="187.486" gradientUnits="userSpaceOnUse">
<stop stop-color="#AA80F9"/>
<stop offset="0.9964" stop-color="#6165D7"/>
</linearGradient>
<linearGradient id="paint22_linear_0_37685" x1="111.584" y1="108.601" x2="99.5004" y2="167.571" gradientUnits="userSpaceOnUse">
<stop offset="0.00359712" stop-color="#E38DDD"/>
<stop offset="1" stop-color="#9571F6"/>
</linearGradient>
<linearGradient id="paint23_linear_0_37685" x1="87.8957" y1="276.796" x2="283.993" y2="276.796" gradientUnits="userSpaceOnUse">
<stop stop-color="#444B8C"/>
<stop offset="0.9964" stop-color="#26264F"/>
</linearGradient>
<linearGradient id="paint24_linear_0_37685" x1="95.9499" y1="266.221" x2="277.362" y2="266.221" gradientUnits="userSpaceOnUse">
<stop stop-color="#AA80F9"/>
<stop offset="0.9964" stop-color="#6165D7"/>
</linearGradient>
<linearGradient id="paint25_linear_0_37685" x1="87.8957" y1="292.114" x2="383.308" y2="292.114" gradientUnits="userSpaceOnUse">
<stop stop-color="#444B8C"/>
<stop offset="0.9964" stop-color="#26264F"/>
</linearGradient>
<linearGradient id="paint26_linear_0_37685" x1="143.203" y1="16.8639" x2="14.907" y2="234.56" gradientUnits="userSpaceOnUse">
<stop stop-color="white"/>
<stop offset="0.9964" stop-color="#EBEFF2"/>
</linearGradient>
<linearGradient id="paint27_linear_0_37685" x1="136.878" y1="28.6683" x2="94.001" y2="157.413" gradientUnits="userSpaceOnUse">
<stop stop-color="#FF9085"/>
<stop offset="1" stop-color="#FB6FBB"/>
</linearGradient>
<linearGradient id="paint28_linear_0_37685" x1="135.204" y1="153.837" x2="143.989" y2="183.079" gradientUnits="userSpaceOnUse">
<stop stop-color="#FF9085"/>
<stop offset="1" stop-color="#FB6FBB"/>
</linearGradient>
<linearGradient id="paint29_linear_0_37685" x1="132.487" y1="154.839" x2="141.309" y2="183.971" gradientUnits="userSpaceOnUse">
<stop stop-color="#FF9085"/>
<stop offset="1" stop-color="#FB6FBB"/>
</linearGradient>
<linearGradient id="paint30_linear_0_37685" x1="135.472" y1="171.219" x2="144.362" y2="200.232" gradientUnits="userSpaceOnUse">
<stop stop-color="#FF9085"/>
<stop offset="1" stop-color="#FB6FBB"/>
</linearGradient>
<linearGradient id="paint31_linear_0_37685" x1="132.772" y1="172.271" x2="141.697" y2="201.174" gradientUnits="userSpaceOnUse">
<stop stop-color="#FF9085"/>
<stop offset="1" stop-color="#FB6FBB"/>
</linearGradient>
<linearGradient id="paint32_linear_0_37685" x1="166.456" y1="278.788" x2="166.785" y2="315.496" gradientUnits="userSpaceOnUse">
<stop stop-color="#FFC444"/>
<stop offset="0.9964" stop-color="#F36F56"/>
</linearGradient>
<linearGradient id="paint33_linear_0_37685" x1="337.111" y1="300.219" x2="338.551" y2="300.212" gradientUnits="userSpaceOnUse">
<stop stop-color="#AA80F9"/>
<stop offset="0.9964" stop-color="#6165D7"/>
</linearGradient>
<linearGradient id="paint34_linear_0_37685" x1="166.078" y1="278.676" x2="166.407" y2="315.473" gradientUnits="userSpaceOnUse">
<stop offset="0.003597" stop-color="#F36F56"/>
<stop offset="1" stop-color="#FFC444"/>
</linearGradient>
</defs>
</svg>
