<?xml version="1.0" encoding="utf-8"?>
<svg width="70px" height="70px" viewBox="0 0 70 70" version="1.1" xmlns:xlink="http://www.w3.org/1999/xlink" xmlns="http://www.w3.org/2000/svg">
  <path d="M35.0005 70L35.0008 70L35.015 70C35.441 69.9961 35.8252 69.8171 36.0991 69.5315L45.2052 60.4253C45.2764 60.3516 45.3387 60.2725 45.3921 60.1892C45.766 59.6072 45.7037 58.8269 45.2052 58.3108C45.1322 58.2351 45.0533 58.1689 44.9699 58.1116C44.3861 57.7114 43.5824 57.7625 43.0535 58.2734L36.5225 64.8044L36.5225 36.5217L64.8039 36.5217L58.2703 43.053C58.0014 43.3213 57.8431 43.6797 57.825 44.0574C57.8238 44.0825 57.8232 44.1077 57.8232 44.1331C57.8248 44.9734 58.5073 45.6538 59.3477 45.6521C59.7506 45.6521 60.1369 45.4924 60.4221 45.2078L69.5333 36.0964C69.8209 35.8196 69.9998 35.4307 69.9998 35C69.9998 34.9717 69.9991 34.9438 69.9976 34.916C69.9749 34.4988 69.7841 34.1262 69.4918 33.865L60.4221 24.7952C59.9061 24.2966 59.1258 24.2344 58.5437 24.6082C58.4605 24.6616 58.3814 24.7239 58.3077 24.7952C57.7788 25.3062 57.6998 26.1074 58.0795 26.7048C58.1338 26.7903 58.1974 26.8713 58.2703 26.9468L64.8039 33.478L36.5225 33.478L36.5225 5.19629L43.0533 11.7295C43.3392 12.0149 43.7268 12.1748 44.1307 12.1741C44.5333 12.1738 44.9195 12.0142 45.2047 11.73C45.7998 11.1367 45.8014 10.1731 45.2081 9.57788L36.1057 0.475342C35.8284 0.182617 35.4359 0 35.0008 0C34.5509 0 34.1467 0.195313 33.8681 0.505371L24.7958 9.57788C24.2263 10.1675 24.2263 11.1025 24.7958 11.6921C25.3797 12.2966 26.3431 12.3135 26.9475 11.7295L33.479 5.19556L33.479 33.478L5.19627 33.478L11.7276 26.9468C11.7988 26.873 11.861 26.7939 11.9144 26.7107C12.2882 26.1289 12.2259 25.3486 11.7276 24.8325C11.6546 24.7568 11.5757 24.6907 11.4922 24.6333C10.9084 24.2332 10.1047 24.2842 9.57581 24.7952L0.470047 33.9011L0.469879 33.9011L0.469727 33.9014C0.408997 33.9595 0.353104 34.0227 0.302673 34.0903L0.300705 34.093C-0.143784 34.6887 -0.0955048 35.5361 0.445526 36.0774L9.57581 45.2078C9.86169 45.4932 10.2493 45.6528 10.6532 45.6521C11.0573 45.6521 11.4448 45.4912 11.7303 45.2048C11.8044 45.1306 11.8693 45.0503 11.9249 44.9658C12.3142 44.3748 12.2482 43.572 11.7276 43.0527L5.19656 36.5217L33.479 36.5217L33.479 64.8054L26.9447 58.2734C26.8709 58.2021 26.7918 58.1399 26.7087 58.0864C26.1266 57.7126 25.3463 57.7749 24.8303 58.2734C24.2258 58.8574 24.209 59.8208 24.7929 60.4253L33.9232 69.5557C34.2091 69.8408 34.5967 70.0007 35.0005 70Z" id="Combined-Shape" fill="#544837" fill-rule="evenodd" stroke="none" />
</svg>