<?xml version="1.0" encoding="utf-8"?>
<svg width="70px" height="63.411766px" viewBox="0 0 70 63.411766" version="1.1" xmlns:xlink="http://www.w3.org/1999/xlink" xmlns="http://www.w3.org/2000/svg">
  <g id="Group-33">
    <path d="M66.942 0C68.0828 0 69.1475 0.606086 69.6799 1.66674C70.2122 2.72739 70.0601 3.93956 69.3757 4.84869L42.6052 38.4107L42.6052 53.3356C42.6052 54.775 41.9208 56.1387 40.7039 57.0479L32.2621 62.8814C31.7297 63.2602 31.1213 63.4118 30.5129 63.4118C29.9805 63.4118 29.5242 63.2602 29.0679 63.033C28.0792 62.5026 27.4708 61.5177 27.4708 60.3813L27.4708 38.4865L0.624338 4.84869C-0.0601332 3.93956 -0.212238 2.72739 0.320129 1.66674C0.852495 0.681847 1.91723 0 3.05801 0L66.942 0ZM39.5632 37.8804C39.5632 37.5016 39.7153 37.1985 39.8674 36.9713L66.9421 3.03043L3.05811 3.03043L10.3591 12.1217L40.3238 12.1217C41.1603 12.1217 41.8448 12.8036 41.8448 13.6369C41.8448 14.4703 41.1603 15.1522 40.3238 15.1522L12.7168 15.1522L29.9046 36.6682C30.2848 36.8955 30.513 37.3501 30.513 37.8804L30.513 60.3813L38.9548 54.5478C39.3351 54.2447 39.5632 53.7901 39.5632 53.2598L39.5632 37.8804ZM49.4501 15.1522L47.1685 15.1522C46.3319 15.1522 45.6475 14.4703 45.6475 13.6369C45.6475 12.8036 46.3319 12.1217 47.1685 12.1217L49.4501 12.1217C50.2867 12.1217 50.9711 12.8036 50.9711 13.6369C50.9711 14.4703 50.2867 15.1522 49.4501 15.1522Z" id="Combined-Shape" fill="#544837" fill-rule="evenodd" stroke="none" />
  </g>
</svg>