<?xml version="1.0" encoding="utf-8"?>
<svg width="70px" height="70px" viewBox="0 0 70 70" version="1.1" xmlns:xlink="http://www.w3.org/1999/xlink" xmlns="http://www.w3.org/2000/svg">
  <g id="network">
    <path d="M35 0C15.6701 0 0 15.6701 0 35C0 54.3299 15.6701 70 35 70C54.3299 70 70 54.3299 70 35C70 15.6701 54.3299 0 35 0ZM53.9151 8.90464C52.6102 9.29384 51.344 9.7088 50.1173 10.15C49.1101 8.86678 47.5754 8.1094 45.9442 8.09038C45.55 8.09122 45.1572 8.13632 44.7731 8.225C43.6019 6.24615 42.4981 4.60384 41.6096 3.35192C46.059 4.30954 50.2533 6.20291 53.9151 8.90464ZM44.8001 54.8019C44.247 54.6032 43.6646 54.4985 43.077 54.4923C41.3028 54.4999 39.6462 55.3811 38.6482 56.8481C33.4088 54.6224 28.7047 51.3043 24.8501 47.1154C26.7362 44.9033 26.4721 41.5812 24.26 39.6952C23.9617 39.4408 23.6359 39.2205 23.2886 39.0385C25.0515 33.2739 28.2258 28.0407 32.5232 23.8135C37.0917 24.031 41.5813 25.0849 45.7693 26.9231C45.1923 29.8025 47.059 32.6045 49.9384 33.1813C49.989 33.1914 50.0397 33.2009 50.0905 33.2096C50.5721 40.7784 48.726 48.3131 44.8001 54.8019ZM45.7691 59.8365C45.7691 61.3235 44.5638 62.5288 43.0768 62.5288C41.5898 62.5288 40.3845 61.3235 40.3845 59.8365C40.3845 58.3495 41.5898 57.1442 43.0768 57.1442C44.5638 57.1442 45.7691 58.3495 45.7691 59.8365ZM18.8461 25.725C22.0538 24.7182 25.3714 24.1034 28.7269 23.8942C25.0176 28.0909 22.262 33.0419 20.65 38.4058C20.1144 38.415 19.5833 38.5059 19.075 38.675C17.8621 36.2009 16.8841 33.6185 16.1538 30.9615C17.8878 30.032 18.9767 28.2309 18.9942 26.2635C18.9545 26.0814 18.905 25.9017 18.8461 25.725ZM45.9309 18.8462C46.2427 18.8421 46.5535 18.8106 46.8597 18.7519C47.452 20.2865 47.9681 21.8166 48.4078 23.3423C47.8981 23.6511 47.4433 24.0423 47.0616 24.5C43.3378 22.8712 39.3896 21.8137 35.3501 21.3635C37.3984 19.6925 39.5873 18.2017 41.8924 16.9077C42.8862 18.1186 44.3644 18.8281 45.9309 18.8462ZM43.2385 13.4615C43.2385 11.9745 44.4438 10.7692 45.9308 10.7692C47.4178 10.7692 48.6231 11.9745 48.6231 13.4615C48.6231 14.9485 47.4178 16.1538 45.9308 16.1538C44.4597 16.1318 43.2787 14.9329 43.2789 13.4615L43.2385 13.4615ZM48.4614 27.9596C48.4614 26.4726 49.6667 25.2673 51.1537 25.2673C52.6407 25.2673 53.846 26.4726 53.846 27.9596C53.846 29.4466 52.6407 30.6519 51.1537 30.6519C49.6667 30.6519 48.4614 29.4466 48.4614 27.9596ZM14.3904 10.2173C20.1634 5.36661 27.4597 2.70257 35 2.69231C35.9423 2.69231 36.8712 2.69231 37.8 2.82692C39.4799 4.96175 41.0093 7.21067 42.377 9.55769C41.2565 10.5483 40.6063 11.966 40.5866 13.4615C40.5886 13.7823 40.6202 14.1023 40.6808 14.4173C37.346 16.2795 34.2497 18.5396 31.4597 21.1481C26.8913 21.1264 22.3482 21.8259 17.9981 23.2212C17.1268 22.0266 15.8029 21.243 14.3366 21.0538C13.9925 17.449 14.0105 13.8186 14.3904 10.2173ZM13.623 23.6654C13.623 23.6654 13.623 23.6654 13.623 23.6654L13.6364 23.6788C15.1234 23.6788 16.3287 24.8842 16.3287 26.3712C16.3287 27.8581 15.1234 29.0635 13.6364 29.0635C12.1494 29.0635 10.9441 27.8581 10.9441 26.3712C10.9367 24.8843 12.136 23.6728 13.623 23.6654ZM11.4424 13.0038C11.3 15.7953 11.354 18.5931 11.6039 21.3769C9.60285 22.2053 8.29288 24.1517 8.27891 26.3173C8.27958 26.6471 8.31122 26.9761 8.37314 27.3C6.51511 28.3025 4.71716 29.4128 2.98853 30.625C3.9103 24.0166 6.86461 17.8584 11.4424 13.0038ZM2.69238 35C2.69238 34.7442 2.69238 34.4885 2.69238 34.2192C4.80618 32.5347 7.05762 31.0307 9.42315 29.7231C10.4196 30.9289 11.8974 31.6333 13.4616 31.6481C14.3046 34.5734 15.4319 37.4094 16.827 40.1154C14.8221 42.2509 14.9279 45.6075 17.0636 47.6124C17.5783 48.0957 18.1844 48.4713 18.8462 48.7173C18.5447 53.6843 18.9435 58.6691 20.0308 63.525C9.40649 57.9703 2.73159 46.9888 2.69238 35ZM18.0787 43.7365L18.0249 43.7365C18.0249 42.2495 19.2302 41.0442 20.7172 41.0442C22.2042 41.0442 23.4095 42.2495 23.4095 43.7365C23.4095 45.2235 22.2042 46.4289 20.7172 46.4289C19.2514 46.3996 18.0784 45.2027 18.0787 43.7365ZM34.0577 67.2269C30.3252 67.1221 26.6396 66.3659 23.1674 64.9923C21.7697 59.7835 21.2198 54.3836 21.5385 49C21.9345 48.9458 22.323 48.8465 22.6962 48.7038C26.8721 53.3548 32.0192 57.0313 37.7731 59.4731C37.7731 59.6212 37.7731 59.7558 37.7731 59.8904C37.7701 60.9727 38.0989 62.0298 38.7154 62.9192C37.2404 64.4367 35.6856 65.8747 34.0577 67.2269ZM38.2607 67.077C39.1516 66.2653 39.9675 65.4448 40.7077 64.6154C41.4383 64.9844 42.245 65.1781 43.0635 65.1808C44.9249 65.1636 46.6456 64.1863 47.6135 62.5962C48.5827 62.825 49.5654 63.0404 50.575 63.2154C46.7752 65.3256 42.5851 66.6395 38.2607 67.077ZM53.983 61.0464C52.062 60.7773 50.1946 60.428 48.3942 60.0115C48.3942 60.0115 48.3942 59.8904 48.3942 59.8365C48.3946 58.5353 47.9154 57.2797 47.0481 56.3096C51.3316 49.3143 53.3486 41.1664 52.8231 32.9808C53.4659 32.7536 54.0597 32.4065 54.5731 31.9577C58.9054 35.1925 62.8131 38.9599 66.2039 43.1712C64.3078 50.3579 59.9915 56.6711 53.983 61.0464ZM66.9039 39.8058C63.7073 36.0481 60.0945 32.6654 56.1346 29.7231C56.3421 29.158 56.4513 28.5615 56.4577 27.9596C56.4577 24.9858 54.0469 22.575 51.0731 22.575C50.5974 20.9147 50.032 19.2455 49.377 17.5673C50.5908 16.5506 51.2868 15.0448 51.275 13.4615C51.2698 13.1861 51.2429 12.9115 51.1943 12.6404C52.9039 12.0346 54.6808 11.4692 56.5789 10.9577C64.6657 18.1956 68.5623 29.0204 66.9443 39.7519L66.9039 39.8058Z" id="Shape" fill="#544837" stroke="none" />
  </g>
</svg>