<?xml version="1.0" encoding="utf-8"?>
<svg width="70px" height="68.599976px" viewBox="0 0 70 68.599976" version="1.1" xmlns:xlink="http://www.w3.org/1999/xlink" xmlns="http://www.w3.org/2000/svg">
  <g id="Group-2">
    <path d="M35 0C30.3484 0 26.5517 3.786 26.5517 8.42456C26.5517 12.6544 29.7094 16.1742 33.7931 16.7617L33.7931 21.7207C30.0218 22.0618 26.7011 23.9828 24.5024 26.8135L16.1461 21.5113C16.6264 20.4546 16.8966 19.2843 16.8966 18.0526C16.8966 13.4141 13.0999 9.62807 8.44828 9.62807C3.79666 9.62807 0 13.4141 0 18.0526C0 22.6912 3.79666 26.4772 8.44828 26.4772C11.0011 26.4772 13.2947 25.3353 14.8463 23.5394L23.2036 28.8423C22.2605 30.6596 21.7241 32.7191 21.7241 34.9018C21.7241 37.7719 22.6486 40.4302 24.2125 42.6018L13.9802 51.4141C12.4957 50.1269 10.5611 49.3439 8.44828 49.3439C3.79666 49.3439 0 53.1299 0 57.7684C0 62.407 3.79666 66.193 8.44828 66.193C13.0999 66.193 16.8966 62.407 16.8966 57.7684C16.8966 56.1011 16.4041 54.5449 15.5596 53.2341L25.7914 44.4227C28.1808 46.7217 31.4271 48.1404 35 48.1404C38.3361 48.1404 41.3869 46.9029 43.7222 44.8678L54.6763 55.2945C53.6878 56.6737 53.1034 58.3584 53.1034 60.1754C53.1034 64.814 56.9001 68.6 61.5517 68.6C66.2033 68.6 70 64.814 70 60.1754C70 55.5369 66.2033 51.7509 61.5517 51.7509C59.5893 51.7509 57.7804 52.4268 56.3432 53.5542L45.3892 43.1275C47.1938 40.8663 48.2759 38.008 48.2759 34.9018C48.2759 34.4755 48.2534 34.0542 48.2136 33.6381L53.5413 32.7547C54.6654 36.0932 57.8345 38.5123 61.5517 38.5123C66.2033 38.5123 70 34.7263 70 30.0877C70 25.4492 66.2033 21.6632 61.5517 21.6632C56.9001 21.6632 53.1034 25.4492 53.1034 30.0877C53.1034 30.1876 53.1076 30.2865 53.1109 30.3857L47.7644 31.2729C46.2838 26.106 41.7282 22.2199 36.2069 21.7204L36.2069 16.7617C40.2906 16.1742 43.4483 12.6544 43.4483 8.42456C43.4483 3.786 39.6516 0 35 0ZM35.0001 2.40698C38.347 2.40698 41.0345 5.08696 41.0345 8.42453C41.0345 11.7621 38.347 14.4421 35.0001 14.4421C31.6531 14.4421 28.9656 11.7621 28.9656 8.42453C28.9656 5.08696 31.6531 2.40698 35.0001 2.40698ZM8.4483 12.035C11.7953 12.035 14.4828 14.715 14.4828 18.0526C14.4828 21.3901 11.7953 24.0701 8.4483 24.0701C5.10134 24.0701 2.41382 21.3901 2.41382 18.0526C2.41382 14.715 5.10134 12.035 8.4483 12.035ZM35 24.0702C41.0133 24.0702 45.8621 28.9054 45.8621 34.9018C45.8621 40.8981 41.0133 45.7333 35 45.7333C28.9868 45.7333 24.1379 40.8981 24.1379 34.9018C24.1379 28.9054 28.9868 24.0702 35 24.0702ZM61.5518 24.0702C64.8988 24.0702 67.5863 26.7502 67.5863 30.0877C67.5863 33.4253 64.8988 36.1053 61.5518 36.1053C58.2049 36.1053 55.5173 33.4253 55.5173 30.0877C55.5173 26.7502 58.2049 24.0702 61.5518 24.0702ZM8.4483 51.7509C11.7953 51.7509 14.4828 54.4308 14.4828 57.7684C14.4828 61.106 11.7953 63.7859 8.4483 63.7859C5.10134 63.7859 2.41382 61.106 2.41382 57.7684C2.41382 54.4308 5.10134 51.7509 8.4483 51.7509ZM61.5518 54.1578C64.8988 54.1578 67.5863 56.8378 67.5863 60.1754C67.5863 63.513 64.8988 66.1929 61.5518 66.1929C58.2049 66.1929 55.5173 63.513 55.5173 60.1754C55.5173 56.8378 58.2049 54.1578 61.5518 54.1578Z" id="path32545" fill="#544837" stroke="none" />
  </g>
</svg>