<?xml version="1.0" encoding="utf-8"?>
<svg width="70px" height="70px" viewBox="0 0 70 70" version="1.1" xmlns:xlink="http://www.w3.org/1999/xlink" xmlns="http://www.w3.org/2000/svg">
  <g id="Group">
    <path d="M35.6612 0.542076L45.803 18.0474C45.9057 18.2248 45.9599 18.4263 45.9598 18.6311C45.9598 19.2757 45.4353 19.7981 44.7885 19.798L24.5049 19.798C24.2994 19.798 24.0973 19.744 23.9192 19.6416C23.3591 19.3194 23.1672 18.6056 23.4906 18.0474L33.6323 0.542076C33.7221 0.407576 33.8377 0.292333 33.9725 0.203055C34.5329 -0.168058 35.2888 -0.0161994 35.6612 0.542076ZM34.6468 3.45959L26.5332 17.4639L42.7604 17.4639L34.6468 3.45959ZM22.3776 10.6061L23.3335 12.7168C10.9379 18.4837 4.92195 32.8644 9.45456 45.8936L7.29306 46.6667C2.36543 32.5051 8.90409 16.8739 22.3776 10.6061ZM49.2169 11.7258L49.2166 11.7263C61.3235 18.4461 67.0958 32.7087 63.0718 45.9596L60.8266 45.2764C61.6019 42.7234 61.9949 40.0696 61.9927 37.4014C61.987 27.5836 56.66 18.5406 48.0766 13.7775L48.6463 12.7516L48.0755 13.7775C47.8435 13.6484 47.6096 13.5231 47.3735 13.4016L48.4462 11.3131C48.7052 11.4462 48.9625 11.5848 49.2169 11.7258ZM10.6061 48.7878C4.74842 48.7878 0 53.5363 0 59.3939C0 65.2514 4.74842 70 10.6061 70C16.4637 70 21.2121 65.2514 21.2121 59.3939C21.2055 53.5391 16.4609 48.7945 10.6061 48.7878ZM49.9665 48.7878L68.8223 48.7878C69.473 48.788 70.0004 49.3156 70.0002 49.9663L70.0002 68.8221C70.0001 69.4728 69.4724 70.0001 68.8218 70L49.9659 70C49.3153 69.9998 48.7879 69.4722 48.7881 68.8215L48.7881 49.9657C48.7882 49.3151 49.3159 48.7877 49.9665 48.7878ZM10.6061 67.6431C6.0502 67.6431 2.35693 63.9498 2.35693 59.3939C2.35693 54.838 6.0502 51.1448 10.6061 51.1448C15.162 51.1448 18.8552 54.838 18.8552 59.3939C18.8499 63.9476 15.1598 67.6378 10.6061 67.6431ZM51.145 67.6431L67.6433 67.6431L67.6433 51.1448L51.145 51.1448L51.145 67.6431ZM45.0841 61.825C41.8853 63.2262 38.466 63.9434 35.0153 63.9368C31.3166 63.9453 27.6568 63.1206 24.2683 61.5151L23.3335 63.8306C30.529 67.2217 38.6808 67.3432 45.9598 64.1676L45.0841 61.825Z" id="Combined-Shape" fill="#544837" fill-rule="evenodd" stroke="none" />
  </g>
</svg>