<?xml version="1.0" encoding="utf-8"?>
<svg width="70px" height="58.80005px" viewBox="0 0 70 58.80005" version="1.1" xmlns:xlink="http://www.w3.org/1999/xlink" xmlns="http://www.w3.org/2000/svg">
  <g id="Group-5">
    <path d="M64.1665 5.88003L34.1454 5.88003L28.7393 0.430663C28.4659 0.155039 28.0956 0 27.7082 0L5.83323 0C2.61761 0.000137812 0 2.63717 0 5.88003C0 6.32213 0.196601 6.74135 0.538397 7.01987L63.2467 58.4697C63.5059 58.6836 63.8306 58.7999 64.1666 58.7999C67.3824 58.7999 70 56.1628 70 52.9198L70 11.7601C69.9999 8.5172 67.3822 5.88003 64.1665 5.88003ZM67.0832 52.92C67.0832 54.3799 66.0236 55.593 64.6394 55.8212L2.98779 5.23836C3.27832 3.92487 4.4433 2.94006 5.83331 2.94006L27.1044 2.94006L32.5105 8.38943C32.7839 8.66505 33.1542 8.82009 33.5416 8.82009L64.1666 8.82009C65.7759 8.82009 67.0832 10.1394 67.0832 11.76L67.0832 52.92ZM2.91675 16.17C2.91675 16.9825 2.26447 17.64 1.45838 17.64C0.652284 17.64 0 16.9825 0 16.17L0 13.2301C0 12.4175 0.652284 11.76 1.45838 11.76C2.26447 11.76 2.91675 12.4175 2.91675 13.2301L2.91675 16.17ZM1.45838 34.1775C2.26447 34.1775 2.91675 33.52 2.91675 32.7075L2.91675 26.0925C2.91675 25.2799 2.26447 24.6224 1.45838 24.6224C0.652284 24.6224 0 25.2799 0 26.0925L0 32.7075C0 33.52 0.652284 34.1775 1.45838 34.1775ZM2.91675 45.5699C2.91675 46.3824 2.26447 47.0399 1.45838 47.0399C0.652284 47.0399 0 46.3824 0 45.5699L0 42.63C0 41.8174 0.652284 41.1599 1.45838 41.1599C2.26447 41.1599 2.91675 41.8174 2.91675 42.63L2.91675 45.5699ZM5.83337 55.8599C4.22405 55.8599 2.91675 54.5407 2.91675 52.92C2.91675 52.1075 2.26447 51.45 1.45838 51.45C0.652284 51.45 0 52.1075 0 52.92C0 56.1628 2.61761 58.8 5.83337 58.8C6.63946 58.8 7.29174 58.1425 7.29174 57.33C7.29174 56.5174 6.63946 55.8599 5.83337 55.8599ZM16.0415 55.8599L13.1249 55.8599C12.3188 55.8599 11.6665 56.5174 11.6665 57.3299C11.6665 58.1424 12.3188 58.7998 13.1249 58.7998L16.0415 58.7998C16.8476 58.7998 17.4999 58.1423 17.4999 57.3298C17.4999 56.5172 16.8476 55.8599 16.0415 55.8599ZM30.6248 55.8599L24.7914 55.8599C23.9853 55.8599 23.333 56.5174 23.333 57.3299C23.333 58.1424 23.9853 58.7999 24.7914 58.7999L30.6248 58.7999C31.4308 58.7999 32.0831 58.1424 32.0831 57.3299C32.0831 56.5174 31.4308 55.8599 30.6248 55.8599ZM39.3749 55.8599L45.2082 55.8599C46.0143 55.8599 46.6666 56.5174 46.6666 57.3299C46.6666 58.1424 46.0143 58.7999 45.2082 58.7999L39.3749 58.7999C38.5688 58.7999 37.9165 58.1424 37.9165 57.3299C37.9165 56.5174 38.5688 55.8599 39.3749 55.8599ZM53.9584 55.8599L56.875 55.8599C57.6811 55.8599 58.3334 56.5174 58.3334 57.3299C58.3334 58.1424 57.6811 58.7999 56.875 58.7999L53.9584 58.7999C53.1523 58.7999 52.5 58.1424 52.5 57.3299C52.5 56.5174 53.1523 55.8599 53.9584 55.8599Z" id="Combined-Shape" fill="#544837" fill-rule="evenodd" stroke="none" />
  </g>
</svg>