<?xml version="1.0" encoding="utf-8"?>
<svg width="70px" height="58.80005px" viewBox="0 0 70 58.80005" version="1.1" xmlns:xlink="http://www.w3.org/1999/xlink" xmlns="http://www.w3.org/2000/svg">
  <g id="Group-6">
    <path d="M64.1302 21.0175C65.5852 19.2708 66.8823 17.397 68.0059 15.4184L70.0001 16.5752C68.8078 18.6738 67.431 20.6606 65.8864 22.5122C59.7412 29.8279 52.3652 35.9999 44.0952 40.7463C44.0774 40.9295 44.015 41.1057 43.9135 41.2588L37.9919 49.8194C37.8111 50.0809 37.5312 50.2558 37.218 50.303C34.1324 50.7761 25.6462 52.457 23.5324 54.5833L23.1253 54.9917L23.0011 54.8667C22.9102 54.897 22.8159 54.9156 22.7204 54.9223C22.6132 54.9234 22.5064 54.9091 22.4032 54.8797C21.8047 54.7097 21.4567 54.084 21.6256 53.482L21.5002 53.3571L21.9074 52.9475C24.0189 50.8236 25.6151 42.2213 26.0533 39.0851C26.098 38.7646 26.274 38.4777 26.5386 38.2938L34.1841 32.9851C34.164 32.7366 34.2254 32.4883 34.3589 32.2782L35.7275 30.1496C40.8091 22.2407 47.211 15.2744 54.6504 9.55783L56.1052 8.43801L57.943 6.98849L68.3647 0L69.6413 1.92499L59.2908 8.86604L57.5255 10.2635L56.8148 9.35307L57.514 10.2716L56.0466 11.4007C52.0976 14.4412 48.4426 17.8496 45.1303 21.5809L54.3192 30.8241C57.8674 27.849 61.1502 24.5677 64.1302 21.0175ZM41.9768 25.351L50.4366 33.8573C51.1335 33.3429 51.8235 32.8157 52.5066 32.2759L43.6099 23.3242C43.0533 23.9894 42.5116 24.6673 41.9768 25.351ZM36.7947 32.7467L42.8405 38.8271C44.7963 37.7019 46.6966 36.5014 48.5413 35.2258L40.5726 27.2101C39.564 28.5775 38.5796 29.968 37.6595 31.4048L36.7947 32.7467ZM28.1429 49.9467C30.8534 49.1613 33.6091 48.5433 36.3945 48.0957L41.48 40.7347L35.5941 34.8129L28.2567 39.9099C27.8312 42.7663 27.2283 45.5929 26.4512 48.3734L31.4136 43.3839C30.7854 42.0614 31.0511 40.4844 32.0772 39.4437C33.4429 38.1343 35.59 38.1343 36.9557 39.4437C37.9946 40.483 38.2659 42.0699 37.6318 43.3987C36.8088 45.1231 34.7518 45.8499 33.0375 45.022L28.1429 49.9467ZM33.6966 41.0841C33.6062 41.0641 33.5669 41.1036 33.5307 41.1457C33.1151 41.6289 33.2163 42.3029 33.6966 42.721C34.1514 43.1584 34.8679 43.1584 35.3227 42.721L35.3236 42.7201C35.7726 42.2681 35.7721 41.5355 35.3227 41.0841C34.8737 40.6325 34.1457 40.6325 33.6966 41.0841ZM69.0029 56.4863L0 56.4863L0 58.8L69.0029 58.8L69.0029 56.4863Z" id="Combined-Shape" fill="#544837" fill-rule="evenodd" stroke="none" />
  </g>
</svg>