<?xml version="1.0" encoding="utf-8"?>
<svg width="70px" height="70px" viewBox="0 0 70 70" version="1.1" xmlns:xlink="http://www.w3.org/1999/xlink" xmlns="http://www.w3.org/2000/svg">
  <g id="Group-3">
    <path d="M44.3222 36.1664L60.8171 36.1664C61.4043 38.4422 63.5918 39.9256 65.9223 39.6293C68.2527 39.3331 70 37.3501 70 34.9997C70 32.6499 68.2527 30.6663 65.9223 30.3707C63.5918 30.0745 61.4043 31.5579 60.8171 33.8331L44.3222 33.8331L44.3222 22.1665L50.154 22.1665C52.0864 22.1665 53.6531 20.5999 53.6531 18.6665L53.6531 8.1666C53.6531 7.52232 54.1754 6.99995 54.8195 6.99995L60.8171 6.99995C61.4043 9.27573 63.5918 10.7591 65.9223 10.4629C68.2527 10.1667 70 8.18369 70 5.83329C70 3.48345 68.2527 1.49991 65.9223 1.20425C63.5918 0.908033 61.4043 2.39142 60.8171 4.66663L54.8195 4.66663C52.8871 4.66663 51.3204 6.23376 51.3204 8.1666L51.3204 18.6665C51.3204 19.3108 50.7981 19.8332 50.154 19.8332L44.3222 19.8332L44.3222 9.33326C44.3222 4.01209 34.7953 0 22.1611 0C9.52689 0 0 4.01209 0 9.33326L0 60.6662C0 65.9874 9.52689 69.9995 22.1611 69.9995C34.7953 69.9995 44.3222 65.9874 44.3222 60.6662L44.3222 54.8329L50.154 54.8329C50.7981 54.8329 51.3204 55.3553 51.3204 55.9996L51.3204 62.9995C51.3204 64.9329 52.8871 66.4995 54.8195 66.4995L60.8171 66.4995C61.4043 68.7753 63.5918 70.2587 65.9223 69.9624C68.2527 69.6662 70 67.6832 70 65.3328C70 62.983 68.2527 60.9994 65.9223 60.7038C63.5918 60.4076 61.4043 61.891 60.8171 64.1662L54.8195 64.1662C54.1754 64.1662 53.6531 63.6438 53.6531 62.9995L53.6531 55.9996C53.6531 54.0667 52.0864 52.4996 50.154 52.4996L44.3222 52.4996L44.3222 36.1664ZM65.3166 32.6664C66.6049 32.6664 67.6494 33.7111 67.6494 34.9997C67.6494 36.2888 66.6049 37.333 65.3166 37.333C64.0284 37.333 62.9839 36.2888 62.9839 34.9997C62.9839 33.7111 64.0284 32.6664 65.3166 32.6664ZM65.3166 3.5C66.6049 3.5 67.6494 4.54475 67.6494 5.83331C67.6494 7.12245 66.6049 8.16663 65.3166 8.16663C64.0284 8.16663 62.9839 7.12245 62.9839 5.83331C62.9839 4.54475 64.0284 3.5 65.3166 3.5ZM65.3166 62.9995C66.6049 62.9995 67.6494 64.0443 67.6494 65.3328C67.6494 66.622 66.6049 67.6661 65.3166 67.6661C64.0284 67.6661 62.9839 66.622 62.9839 65.3328C62.9839 64.0443 64.0284 62.9995 65.3166 62.9995ZM22.1609 2.33337C33.8468 2.33337 41.9892 6.02247 41.9892 9.33332C41.9892 12.6447 33.8468 16.3333 22.1609 16.3333C10.4749 16.3333 2.33252 12.6447 2.33252 9.33332C2.33252 6.02247 10.4749 2.33337 22.1609 2.33337ZM2.33252 13.6199C5.89827 16.6647 13.2473 18.6665 22.1609 18.6665C31.0744 18.6665 38.4234 16.6647 41.9892 13.6199L41.9892 26.8331C41.9892 30.1445 33.8468 33.833 22.1609 33.833C10.4749 33.833 2.33252 30.1445 2.33252 26.8331L2.33252 13.6199ZM22.1609 67.6661C10.4749 67.6661 2.33252 63.9776 2.33252 60.6662L2.33252 47.453C5.89827 50.4978 13.2473 52.4996 22.1609 52.4996C31.0744 52.4996 38.4234 50.4978 41.9892 47.453L41.9892 60.6662C41.9892 63.9776 33.8468 67.6661 22.1609 67.6661ZM22.1609 50.1662C10.4749 50.1662 2.33252 46.4777 2.33252 43.1663L2.33252 31.1198C5.89827 34.1646 13.2473 36.1663 22.1609 36.1663C31.0744 36.1663 38.4234 34.1646 41.9892 31.1198L41.9892 43.1663C41.9892 46.4777 33.8468 50.1662 22.1609 50.1662Z" id="Shape" fill="#544837" stroke="none" />
  </g>
</svg>