<?xml version="1.0" encoding="utf-8"?>
<svg width="70.00244px" height="70px" viewBox="0 0 70.00244 70" version="1.1" xmlns:xlink="http://www.w3.org/1999/xlink" xmlns="http://www.w3.org/2000/svg">
  <g id="Group-4">
    <path d="M33.9319 0.443809C34.2153 0.159682 34.6002 0 35.0015 0C35.4028 0 35.7876 0.159682 36.071 0.443809L43.9125 8.28588C44.196 8.56922 44.3554 8.95365 44.3554 9.35451C44.3554 9.75538 44.196 10.1398 43.9125 10.4231C43.3228 11.0117 42.3679 11.0117 41.7782 10.4231L36.5121 5.15703L36.5121 23.718C36.5095 24.5425 35.841 25.2098 35.0166 25.2112L34.9858 25.2112C34.1615 25.2095 33.4935 24.5423 33.4908 23.718L33.4908 5.16307L28.2229 10.4244C27.6332 11.0129 26.6784 11.0129 26.0887 10.4244C25.8051 10.141 25.6458 9.75659 25.6458 9.35572C25.6458 8.95485 25.8051 8.57043 26.0887 8.28709L33.9319 0.443809ZM10.4231 28.2234L5.15703 33.4895L23.7573 33.4895C24.1435 33.4895 24.5139 33.643 24.7868 33.9163C25.0598 34.1896 25.2129 34.5601 25.2124 34.9464L25.2124 35.0165C25.2104 35.8407 24.5429 36.5085 23.7187 36.5108L5.16307 36.5108L10.4244 41.7799C11.0129 42.3696 11.0129 43.3245 10.4244 43.9142C10.141 44.1977 9.75659 44.3571 9.35572 44.3571C8.95485 44.3571 8.57043 44.1977 8.28709 43.9142L0.443809 36.0709C0.159682 35.7875 0 35.4027 0 35.0013C0 34.6 0.159682 34.2152 0.443809 33.9318L8.28709 26.0873C8.66637 25.6946 9.22804 25.5371 9.7562 25.6754C10.2844 25.8136 10.6968 26.2261 10.8351 26.7543C10.9733 27.2824 10.8158 27.8441 10.4231 28.2234ZM60.6469 25.6456C61.0478 25.6456 61.4322 25.805 61.7156 26.0885L69.5589 33.9318C69.8426 34.215 70.0021 34.5993 70.0024 35.0002C70.0026 35.4011 69.8435 35.7856 69.5601 36.0691L61.7168 43.9124C61.4334 44.1959 61.049 44.3553 60.6482 44.3553C60.2473 44.3553 59.8629 44.1959 59.5795 43.9124C58.991 43.3227 58.991 42.3678 59.5795 41.7781L64.8456 36.512L46.2453 36.512C45.8592 36.512 45.4889 36.3585 45.216 36.0854C44.9431 35.8123 44.79 35.4418 44.7903 35.0557L44.7903 34.9856C44.7913 34.1607 45.4591 33.4918 46.284 33.4895L64.8396 33.4895L59.5783 28.2228C58.9898 27.6331 58.9898 26.6782 59.5783 26.0885C59.8616 25.805 60.2461 25.6456 60.6469 25.6456ZM35.0015 43.2785C39.5735 43.2785 43.2798 39.5722 43.2798 35.0001C43.2798 30.4281 39.5735 26.7218 35.0015 26.7218C30.4295 26.7218 26.7231 30.4281 26.7231 35.0001C26.7281 39.5701 30.4316 43.2735 35.0015 43.2785ZM35.0014 29.743C37.9048 29.743 40.2585 32.0967 40.2585 35.0001C40.2585 37.9035 37.9048 40.2571 35.0014 40.2571C32.098 40.2571 29.7444 37.9035 29.7444 35.0001C29.7474 32.0979 32.0993 29.746 35.0014 29.743ZM36.5121 64.8397L41.7782 59.5772C42.3679 58.9887 43.3228 58.9887 43.9125 59.5772L43.9143 59.5784C44.1979 59.8618 44.3572 60.2462 44.3572 60.6471C44.3572 61.0479 44.1979 61.4323 43.9143 61.7157L36.071 69.559C35.4793 70.147 34.5237 70.147 33.9319 69.559L26.0887 61.7157C25.696 61.3364 25.5385 60.7747 25.6767 60.2466C25.815 59.7184 26.2274 59.3059 26.7556 59.1677C27.2838 59.0294 27.8454 59.1869 28.2247 59.5796L33.4908 64.8457L33.4908 46.2841C33.4925 45.4592 34.1608 44.7908 34.9858 44.7892L35.0559 44.7892C35.4421 44.7889 35.8126 44.9421 36.0857 45.2151C36.3589 45.4882 36.5123 45.8586 36.5121 46.2448L36.5121 64.8397Z" id="Combined-Shape" fill="#544837" fill-rule="evenodd" stroke="none" />
  </g>
</svg>