<?xml version="1.0" encoding="utf-8"?>
<svg width="70px" height="69.99999px" viewBox="0 0 70 69.99999" version="1.1" xmlns:xlink="http://www.w3.org/1999/xlink" xmlns="http://www.w3.org/2000/svg">
  <g id="Group-34">
    <path d="M37.991 30.625L65.7537 30.625C66.5614 30.625 67.215 29.9727 67.215 29.1666C67.215 13.0837 54.1056 0 37.991 0C37.1833 0 36.5298 0.652285 36.5298 1.45838L36.5298 29.1668C36.5299 29.9727 37.1835 30.625 37.991 30.625ZM39.4521 2.95654C52.7941 3.69004 63.5176 14.3925 64.2525 27.7084L39.4521 27.7084L39.4521 2.95654ZM33.6074 7.29162L33.6074 34.3961L56.2687 57.0131C56.8124 57.5557 56.8424 58.4259 56.3358 59.0041C50.2143 65.9924 41.3971 70 32.1463 70C14.4207 70 0 55.6073 0 37.9166C0 20.2259 14.4207 5.83337 32.1461 5.83324C32.9538 5.83324 33.6074 6.48552 33.6074 7.29162ZM2.92236 37.9167C2.92236 53.9997 16.0317 67.0834 32.1462 67.0834C40.1014 67.0834 47.7042 63.8206 53.2136 58.0884L31.1132 36.0311C30.8392 35.7577 30.6851 35.3873 30.6851 35L30.6851 8.78568C15.2469 9.54761 2.92236 22.3237 2.92236 37.9167ZM68.5388 33.5416L40.7762 33.5416C40.1854 33.5416 39.6518 33.8963 39.4263 34.4416C39.1995 34.9872 39.3249 35.6137 39.7432 36.031L59.3752 55.6246C59.6491 55.898 60.0201 56.0518 60.4083 56.0518C60.7965 56.0518 61.1675 55.898 61.4415 55.6246C66.9607 50.1145 70 42.7901 70 35C70 34.1939 69.3464 33.5416 68.5388 33.5416ZM60.3797 52.5029L44.3037 36.4584L67.0378 36.4584C66.7124 42.4383 64.3865 48.0438 60.3797 52.5029Z" id="Combined-Shape" fill="#544837" fill-rule="evenodd" stroke="none" />
  </g>
</svg>