<svg width="23" height="23" viewBox="0 0 23 23" fill="none" xmlns="http://www.w3.org/2000/svg">
<path d="M21.25 15.385C19.0925 15.385 17.035 14.915 15.1375 13.9875C14.84 13.845 14.495 13.8225 14.18 13.93C13.865 14.04 13.6075 14.27 13.4625 14.5675L12.5625 16.43C9.8625 14.88 7.6225 12.6375 6.07 9.9375L7.935 9.0375C8.235 8.8925 8.4625 8.635 8.5725 8.32C8.68 8.005 8.66 7.66 8.515 7.3625C7.585 5.4675 7.115 3.41 7.115 1.25C7.115 0.56 6.555 0 5.865 0H1.25C0.56 0 0 0.56 0 1.25C0 12.9675 9.5325 22.5 21.25 22.5C21.94 22.5 22.5 21.94 22.5 21.25V16.635C22.5 15.945 21.94 15.385 21.25 15.385Z" fill="#FAFAFA"/>
</svg>
