<?xml version="1.0" encoding="utf-8"?>
<svg width="182px" height="39.38965px" viewBox="0 0 182 39.38965" version="1.1" xmlns:xlink="http://www.w3.org/1999/xlink" xmlns="http://www.w3.org/2000/svg">
  <defs>
    <path d="M21.4583 8.8186L34.1868 30.865L8.72984 30.865L21.4583 8.8186Z" id="path_1" />
    <clipPath id="clip_1">
      <use xlink:href="#path_1" />
    </clipPath>
  </defs>
  <g id="Group-32">
    <g id="Kết-nối-phẳng" fill="#2F281E" transform="translate(49 8)">
      <path d="M99.86 1.8L100.68 2.62Q100.98 2.36 101.18 2.25Q101.38 2.14 101.64 2.14Q101.9 2.14 102.05 2.3Q102.2 2.46 102.2 2.7Q102.2 2.96 102.05 3.19Q101.9 3.42 101.56 3.7L102.24 4.44Q102.9 3.9 103.21 3.42Q103.52 2.94 103.52 2.36Q103.52 1.74 103.09 1.31Q102.66 0.879999 101.86 0.879999Q101.32 0.879999 100.83 1.11Q100.34 1.34 99.86 1.8ZM23.08 4.96L21.36 4.44L22.44 2.06L24.94 2.06L23.08 4.96ZM57.9 4.44L59.62 4.96L61.48 2.06L58.98 2.06L57.9 4.44ZM63.26 6.66L63.26 4L65.94 4L65.94 6.66L63.26 6.66ZM95.58 18.6L92.9 18.6L92.9 12.805Q92.9 11.6025 92.43 11.0113Q91.96 10.42 91.14 10.42Q90.66 10.42 90.12 10.6934Q89.58 10.9669 89.15 11.4453Q88.72 11.9238 88.52 12.5487L88.52 18.6L85.84 18.6L85.84 4L88.52 4L88.52 10.1563Q89.1 9.1675 90.1 8.61375Q91.1 8.06 92.28 8.06Q93.3 8.06 93.94 8.40609Q94.58 8.75219 94.94 9.33547Q95.3 9.91875 95.44 10.6406Q95.58 11.3625 95.58 12.1337L95.58 18.6ZM16.2 6.28L18.32 4.26L20.26 4.26L22.38 6.28L21 6.92L19.3 5.66L17.6 6.92L16.2 6.28ZM54.86 4.26L52.74 6.28L54.14 6.92L55.84 5.66L57.54 6.92L58.92 6.28L56.8 4.26L54.86 4.26ZM102.96 5.34Q102.62 5.76 102.16 5.76Q101.7 5.76 101.34 5.32Q100.98 4.88 100.98 4.28L99.54 4.28Q99.54 5.44 100.28 6.2Q101.02 6.96 102.16 6.96Q103.32 6.96 104.05 6.2Q104.78 5.44 104.78 4.28L103.36 4.28Q103.3 4.92 102.96 5.34ZM1.48 18.6L1.48 4.4L4.24 4.4L4.24 11.1494L10.2 4.38L13.24 4.38L7.8 10.6887L13.58 18.6L10.46 18.6L6.04 12.4713L4.24 14.3541L4.24 18.6L1.48 18.6ZM32.04 18.4Q32.52 18.22 32.86 18.08L32.32 15.96Q32.08 16.06 31.68 16.2Q31.28 16.34 30.86 16.34Q30.44 16.34 30.16 16.1031Q29.88 15.8663 29.86 15.3334L29.86 10.28L32.06 10.28L32.06 8.22L29.86 8.22L29.86 4.82L27.18 4.82L27.18 8.22L25.8 8.22L25.8 10.28L27.18 10.28L27.18 16.2441Q27.18 17.1553 27.55 17.72Q27.92 18.2847 28.54 18.5423Q29.16 18.8 29.9 18.8Q30.46 18.8 31.01 18.69Q31.56 18.58 32.04 18.4ZM19.46 18.8Q18.2 18.8 17.18 18.3748Q16.16 17.9497 15.44 17.208Q14.72 16.4662 14.33 15.507Q13.94 14.5478 13.94 13.48Q13.94 11.9966 14.61 10.77Q15.28 9.54344 16.53 8.80172Q17.78 8.06 19.48 8.06Q21.2 8.06 22.42 8.80281Q23.64 9.54562 24.29 10.7639Q24.94 11.9822 24.94 13.3888Q24.94 13.6262 24.92 13.8739Q24.9 14.1216 24.88 14.28L16.78 14.28Q16.86 15.0616 17.25 15.6478Q17.64 16.2341 18.25 16.537Q18.86 16.84 19.56 16.84Q20.36 16.84 21.07 16.45Q21.78 16.06 22.04 15.42L24.34 16.06Q23.96 16.86 23.25 17.48Q22.54 18.1 21.58 18.45Q20.62 18.8 19.46 18.8ZM48.8 18.6L46.12 18.6L46.12 12.805Q46.12 11.5631 45.68 10.9916Q45.24 10.42 44.46 10.42Q43.92 10.42 43.37 10.6934Q42.82 10.9669 42.38 11.4453Q41.94 11.9238 41.74 12.5487L41.74 18.6L39.06 18.6L39.06 8.22L41.48 8.22L41.48 10.1563Q41.88 9.48375 42.5 9.01906Q43.12 8.55438 43.93 8.30719Q44.74 8.06 45.64 8.06Q46.62 8.06 47.25 8.40609Q47.88 8.75219 48.21 9.33547Q48.54 9.91875 48.67 10.6505Q48.8 11.3822 48.8 12.1337L48.8 18.6ZM53.68 18.3747Q54.7 18.8 55.98 18.8Q57.26 18.8 58.28 18.3747Q59.3 17.9494 60.01 17.1978Q60.72 16.4463 61.09 15.477Q61.46 14.5078 61.46 13.44Q61.46 12.3522 61.09 11.383Q60.72 10.4138 60 9.66219Q59.28 8.91063 58.27 8.48531Q57.26 8.06 55.98 8.06Q54.7 8.06 53.68 8.48531Q52.66 8.91063 51.95 9.66219Q51.24 10.4138 50.86 11.383Q50.48 12.3522 50.48 13.44Q50.48 14.5078 50.86 15.477Q51.24 16.4463 51.95 17.1978Q52.66 17.9494 53.68 18.3747ZM77.29 18.2561Q78.22 18.8 79.44 18.8Q80.78 18.8 81.81 18.0781Q82.84 17.3563 83.43 16.1298Q84.02 14.9034 84.02 13.4003Q84.02 12.2928 83.65 11.3334Q83.28 10.3741 82.62 9.63234Q81.96 8.89063 81.07 8.47531Q80.18 8.06 79.12 8.06Q77.94 8.06 77.02 8.58422Q76.1 9.10844 75.5 10.0181L75.5 8.22L73.16 8.22L73.16 22.86L75.84 22.86L75.84 16.7825Q76.36 17.7122 77.29 18.2561ZM97.77 13.7708Q97.2 14.5316 97.2 15.5394Q97.2 16.4681 97.67 17.2092Q98.14 17.9503 98.97 18.3752Q99.8 18.8 100.84 18.8Q101.9 18.8 102.92 18.32Q103.94 17.84 104.62 16.96L104.68 17.5Q104.78 18.02 105.19 18.38Q105.6 18.74 106.4 18.74Q106.6 18.74 106.89 18.7Q107.18 18.66 107.54 18.6L107.54 16.42Q107.2 16.3806 107.05 16.2031Q106.9 16.0256 106.9 15.6116L106.9 12.3188Q106.9 10.2684 105.65 9.16422Q104.4 8.06 102.16 8.06Q100.96 8.06 99.87 8.4Q98.78 8.74 97.74 9.42L98.6 11.18Q99.46 10.6 100.24 10.3Q101.02 10 101.88 10Q103.04 10 103.63 10.5303Q104.22 11.0606 104.22 12.0425L104.22 12.6Q103.72 12.38 103.04 12.28Q102.36 12.18 101.7 12.18Q100.38 12.18 99.36 12.595Q98.34 13.01 97.77 13.7708ZM119.14 18.6L116.46 18.6L116.46 12.805Q116.46 11.5631 116.02 10.9916Q115.58 10.42 114.8 10.42Q114.26 10.42 113.71 10.6934Q113.16 10.9669 112.72 11.4453Q112.28 11.9238 112.08 12.5487L112.08 18.6L109.4 18.6L109.4 8.22L111.82 8.22L111.82 10.1563Q112.22 9.48375 112.84 9.01906Q113.46 8.55438 114.27 8.30719Q115.08 8.06 115.98 8.06Q116.96 8.06 117.59 8.40609Q118.22 8.75219 118.55 9.33547Q118.88 9.91875 119.01 10.6505Q119.14 11.3822 119.14 12.1337L119.14 18.6ZM123.67 18.3892Q124.54 18.8 125.58 18.8Q126.64 18.8 127.59 18.31Q128.54 17.82 129.06 16.92L129.06 18.24Q129.06 19.2328 128.63 19.8447Q128.2 20.4566 127.49 20.7483Q126.78 21.04 125.92 21.04Q124.9 21.04 123.99 20.62Q123.08 20.2 122.48 19.46L121.02 20.88Q121.86 21.92 123.04 22.49Q124.22 23.06 125.92 23.06Q127.6 23.06 128.92 22.4739Q130.24 21.8878 130.99 20.7853Q131.74 19.6828 131.74 18.1331L131.74 8.22L129.4 8.22L129.4 10.06Q128.8 9.14 127.88 8.6Q126.96 8.06 125.74 8.06Q124.66 8.06 123.77 8.47078Q122.88 8.88156 122.23 9.63297Q121.58 10.3844 121.22 11.3663Q120.86 12.3481 120.86 13.49Q120.86 14.5722 121.2 15.5339Q121.54 16.4956 122.17 17.237Q122.8 17.9784 123.67 18.3892ZM63.26 18.6L63.26 8.12L65.94 8.12L65.94 18.6L63.26 18.6ZM16.72 12.58L22.2 12.58Q22.12 11.7981 21.75 11.2216Q21.38 10.645 20.78 10.3225Q20.18 10 19.44 10Q18.72 10 18.13 10.3225Q17.54 10.645 17.17 11.2216Q16.8 11.7981 16.72 12.58ZM53.6 15.0387Q53.24 14.3422 53.24 13.4397Q53.24 12.5372 53.6 11.8408Q53.96 11.1444 54.58 10.7422Q55.2 10.34 55.98 10.34Q56.74 10.34 57.36 10.7323Q57.98 11.1247 58.35 11.8309Q58.72 12.5372 58.72 13.4203Q58.72 14.3228 58.35 15.0192Q57.98 15.7156 57.36 16.1178Q56.74 16.52 55.98 16.52Q55.2 16.52 54.58 16.1277Q53.96 15.7353 53.6 15.0387ZM79.66 16.265Q79.16 16.52 78.54 16.52Q77.98 16.52 77.44 16.2563Q76.9 15.9925 76.49 15.5236Q76.08 15.0547 75.84 14.4881L75.84 12.0553Q75.96 11.685 76.23 11.3731Q76.5 11.0613 76.86 10.8273Q77.22 10.5934 77.61 10.4667Q78 10.34 78.38 10.34Q79 10.34 79.53 10.5755Q80.06 10.8109 80.46 11.2327Q80.86 11.6544 81.07 12.2038Q81.28 12.7531 81.28 13.4006Q81.28 14.0088 81.09 14.568Q80.9 15.1272 80.53 15.5686Q80.16 16.01 79.66 16.265ZM127.32 16.5195Q126.92 16.66 126.48 16.66Q125.88 16.66 125.35 16.4192Q124.82 16.1784 124.43 15.7572Q124.04 15.3359 123.82 14.7741Q123.6 14.2122 123.6 13.5703Q123.6 12.9481 123.79 12.3764Q123.98 11.8047 124.34 11.3331Q124.7 10.8616 125.2 10.6008Q125.7 10.34 126.32 10.34Q126.9 10.34 127.43 10.5908Q127.96 10.8416 128.39 11.303Q128.82 11.7644 129.06 12.3866L129.06 14.8944Q128.92 15.2356 128.66 15.5666Q128.4 15.8975 128.06 16.1383Q127.72 16.3791 127.32 16.5195ZM104.08 15.592Q103.94 15.8259 103.72 16.06Q103.36 16.3916 102.78 16.6158Q102.2 16.84 101.6 16.84Q101.02 16.84 100.6 16.6255Q100.18 16.4109 99.96 16.06Q99.74 15.7091 99.74 15.3191Q99.74 14.5975 100.41 14.1588Q101.08 13.72 102.12 13.72Q102.62 13.72 103.18 13.8272Q103.74 13.9344 104.22 14.1294L104.22 15.1631Q104.22 15.3581 104.08 15.592Z" />
    </g>
    <g id="Group-47-Copy">
      <g id="Polygon">
        <use stroke="none" fill="#D8D8D8" xlink:href="#path_1" fill-rule="evenodd" />
        <g clip-path="url(#clip_1)">
          <use xlink:href="#path_1" fill="none" stroke="#979797" stroke-width="2" />
        </g>
      </g>
      <path d="M21.4583 38.2137C29.5756 38.2137 36.1559 31.6334 36.1559 23.5162C36.1559 15.3989 29.5756 8.8186 21.4583 8.8186C13.3411 8.8186 6.76074 15.3989 6.76074 23.5162C6.76074 31.6334 13.3411 38.2137 21.4583 38.2137Z" id="Oval" fill="#415086" fill-rule="evenodd" stroke="none" />
      <path d="M21.4583 8.8186C29.5756 8.8186 36.1559 15.3989 36.1559 23.5162C36.1559 31.6334 29.5756 38.2137 21.4583 38.2137C13.3411 38.2137 6.76074 31.6334 6.76074 23.5162C6.76074 15.3989 13.3411 8.8186 21.4583 8.8186ZM21.4583 9.47437C13.7032 9.47437 7.4165 15.7611 7.4165 23.5162C7.4165 31.2713 13.7032 37.558 21.4583 37.558C29.2134 37.558 35.5002 31.2713 35.5002 23.5162C35.5002 15.7611 29.2134 9.47437 21.4583 9.47437Z" id="Oval" fill="#FFFFFF" stroke="none" />
      <path d="M8.81854 39.3895C13.6889 39.3895 17.6371 35.4413 17.6371 30.571C17.6371 25.7006 13.6889 21.7524 8.81854 21.7524C3.9482 21.7524 0 25.7006 0 30.571C0 35.4413 3.9482 39.3895 8.81854 39.3895Z" id="Oval-Copy-13" fill="#34B933" fill-rule="evenodd" stroke="none" />
      <path d="M33.8044 39.3895C38.6747 39.3895 42.6229 35.4413 42.6229 30.571C42.6229 25.7006 38.6747 21.7524 33.8044 21.7524C28.934 21.7524 24.9858 25.7006 24.9858 30.571C24.9858 35.4413 28.934 39.3895 33.8044 39.3895Z" id="Oval-Copy-14" fill="#28B0FF" fill-rule="evenodd" stroke="none" />
      <path d="M21.1647 17.6371C26.0351 17.6371 29.9833 13.6889 29.9833 8.81854C29.9833 3.9482 26.0351 0 21.1647 0C16.2944 0 12.3462 3.9482 12.3462 8.81854C12.3462 13.6889 16.2944 17.6371 21.1647 17.6371Z" id="Oval-Copy-15" fill="#FFC107" fill-rule="evenodd" stroke="none" />
    </g>
  </g>
</svg>