<?xml version="1.0" encoding="utf-8"?>
<svg width="198px" height="38px" viewBox="0 0 198 38" version="1.1" xmlns:xlink="http://www.w3.org/1999/xlink" xmlns="http://www.w3.org/2000/svg">
  <g id="Group-31">
    <g id="DIGITAL-PROCESS-MANA" transform="translate(59 0)">
      <g id="DIGITAL-PROCESS" fill="#2F281E">
        <path d="M21.936 15.26Q20.832 15.26 19.848 14.812Q18.864 14.364 18.12 13.572Q17.376 12.78 16.96 11.724Q16.544 10.668 16.544 9.436Q16.544 8.268 16.96 7.236Q17.376 6.204 18.128 5.42Q18.88 4.636 19.888 4.188Q20.896 3.74 22.08 3.74Q23.68 3.74 24.824 4.42Q25.968 5.1 26.544 6.22L24.896 7.436Q24.464 6.588 23.688 6.14Q22.912 5.692 22 5.692Q21.28 5.692 20.688 5.996Q20.096 6.3 19.664 6.828Q19.232 7.356 19 8.044Q18.768 8.732 18.768 9.5Q18.768 10.316 19.016 11.004Q19.264 11.692 19.72 12.204Q20.176 12.716 20.784 13.012Q21.392 13.308 22.128 13.308Q22.992 13.308 23.784 12.86Q24.4847 12.4636 25.104 11.7417L25.104 10.956L22.816 10.956L22.816 9.34L26.928 9.34L26.928 15.18L25.104 15.18L25.104 13.8902C24.1907 14.8034 23.1347 15.26 21.936 15.26ZM90.424 14.78Q91.44 15.26 92.688 15.26Q93.888 15.26 94.904 14.796Q95.92 14.332 96.664 13.524Q97.408 12.716 97.824 11.684Q98.24 10.652 98.24 9.532Q98.24 8.444 97.84 7.42Q97.44 6.396 96.72 5.564Q96 4.732 94.984 4.236Q93.968 3.74 92.736 3.74Q91.52 3.74 90.504 4.212Q89.488 4.684 88.744 5.492Q88 6.3 87.576 7.332Q87.152 8.364 87.152 9.5Q87.152 10.588 87.552 11.62Q87.952 12.652 88.68 13.476Q89.408 14.3 90.424 14.78ZM99.248 9.404Q99.248 8.364 99.624 7.364Q100 6.364 100.72 5.54Q101.44 4.716 102.48 4.228Q103.52 3.74 104.848 3.74Q106.416 3.74 107.56 4.428Q108.704 5.116 109.264 6.22L107.568 7.388Q107.28 6.748 106.816 6.372Q106.352 5.996 105.824 5.844Q105.296 5.692 104.784 5.692Q103.952 5.692 103.336 6.028Q102.72 6.364 102.304 6.908Q101.888 7.452 101.688 8.124Q101.488 8.796 101.488 9.468Q101.488 10.22 101.728 10.916Q101.968 11.612 102.408 12.148Q102.848 12.684 103.464 12.996Q104.08 13.308 104.816 13.308Q105.344 13.308 105.888 13.132Q106.432 12.956 106.896 12.572Q107.36 12.188 107.616 11.58L109.424 12.62Q109.088 13.468 108.328 14.06Q107.568 14.652 106.624 14.956Q105.68 15.26 104.752 15.26Q103.536 15.26 102.528 14.756Q101.52 14.252 100.792 13.412Q100.064 12.572 99.656 11.524Q99.248 10.476 99.248 9.404ZM127.296 6.796Q127.184 6.684 126.888 6.492Q126.592 6.3 126.168 6.124Q125.744 5.948 125.248 5.812Q124.752 5.676 124.24 5.676Q123.344 5.676 122.888 6.01038Q122.432 6.34475 122.432 6.9495Q122.432 7.41125 122.72 7.68187Q123.008 7.9525 123.584 8.14363Q124.16 8.33475 125.024 8.5575Q126.144 8.82825 126.968 9.21825Q127.792 9.60825 128.232 10.2371Q128.672 10.866 128.672 11.9008Q128.672 12.8083 128.336 13.453Q128 14.0978 127.408 14.4958Q126.816 14.8938 126.064 15.0769Q125.312 15.26 124.464 15.26Q123.616 15.26 122.768 15.084Q121.92 14.908 121.136 14.58Q120.352 14.252 119.696 13.788L120.672 11.884Q120.816 12.028 121.184 12.26Q121.552 12.492 122.08 12.724Q122.608 12.956 123.232 13.116Q123.856 13.276 124.496 13.276Q125.392 13.276 125.856 12.9754Q126.32 12.6748 126.32 12.121Q126.32 11.6112 125.952 11.3244Q125.584 11.0375 124.928 10.8224Q124.272 10.6073 123.376 10.3525Q122.304 10.0498 121.584 9.67525Q120.864 9.30075 120.512 8.72725Q120.16 8.15375 120.16 7.29325Q120.16 6.13 120.712 5.34137Q121.264 4.55275 122.208 4.14637Q123.152 3.74 124.304 3.74Q125.104 3.74 125.816 3.916Q126.528 4.092 127.152 4.38Q127.776 4.668 128.272 5.004L127.296 6.796ZM136.696 6.492Q136.992 6.684 137.104 6.796L138.08 5.004Q137.584 4.668 136.96 4.38Q136.336 4.092 135.624 3.916Q134.912 3.74 134.112 3.74Q132.96 3.74 132.016 4.14637Q131.072 4.55275 130.52 5.34137Q129.968 6.13 129.968 7.29325Q129.968 8.15375 130.32 8.72725Q130.672 9.30075 131.392 9.67525Q132.112 10.0498 133.184 10.3525Q134.08 10.6073 134.736 10.8224Q135.392 11.0375 135.76 11.3244Q136.128 11.6112 136.128 12.121Q136.128 12.6748 135.664 12.9754Q135.2 13.276 134.304 13.276Q133.664 13.276 133.04 13.116Q132.416 12.956 131.888 12.724Q131.36 12.492 130.992 12.26Q130.624 12.028 130.48 11.884L129.504 13.788Q130.16 14.252 130.944 14.58Q131.728 14.908 132.576 15.084Q133.424 15.26 134.272 15.26Q135.12 15.26 135.872 15.0769Q136.624 14.8938 137.216 14.4958Q137.808 14.0978 138.144 13.453Q138.48 12.8083 138.48 11.9008Q138.48 10.866 138.04 10.2371Q137.6 9.60825 136.776 9.21825Q135.952 8.82825 134.832 8.5575Q133.968 8.33475 133.392 8.14363Q132.816 7.9525 132.528 7.68187Q132.24 7.41125 132.24 6.9495Q132.24 6.34475 132.696 6.01038Q133.152 5.676 134.048 5.676Q134.56 5.676 135.056 5.812Q135.552 5.948 135.976 6.124Q136.4 6.3 136.696 6.492ZM1.184 3.82L1.184 15.18L5.312 15.18Q7.024 15.18 8.28 14.476Q9.536 13.772 10.224 12.492Q10.912 11.212 10.912 9.484Q10.912 7.916 10.288 6.628Q9.664 5.34 8.416 4.58Q7.168 3.82 5.312 3.82L1.184 3.82ZM12.64 3.82L12.64 15.18L14.848 15.18L14.848 3.82L12.64 3.82ZM31.024 3.82L28.816 3.82L28.816 15.18L31.024 15.18L31.024 3.82ZM41.888 5.756L38.256 5.756L38.256 15.18L36.064 15.18L36.064 5.756L32.432 5.756L32.432 3.82L41.888 3.82L41.888 5.756ZM48.624 3.82L46.384 3.82L42.192 15.18L44.464 15.18L45.413 12.348L49.584 12.348L50.528 15.18L52.8 15.18L48.624 3.82ZM54.048 3.82L56.256 3.82L56.256 13.244L62.048 13.244L62.048 15.18L54.048 15.18L54.048 3.82ZM72.048 3.82L67.232 3.82L67.232 15.18L69.44 15.18L69.44 11.372L72.128 11.372Q73.2 11.372 73.984 10.828Q74.768 10.284 75.216 9.42Q75.664 8.556 75.664 7.596Q75.664 6.892 75.392 6.22Q75.12 5.548 74.632 5.004Q74.144 4.46 73.488 4.14Q72.832 3.82 72.048 3.82ZM77.2 3.82L82.224 3.82Q83.008 3.82 83.672 4.14Q84.336 4.46 84.824 5.004Q85.312 5.548 85.576 6.22Q85.84 6.892 85.84 7.596Q85.84 8.316 85.592 8.98Q85.344 9.644 84.88 10.14Q84.416 10.636 83.792 10.908L86.384 15.18L83.952 15.18L81.616 11.372L79.408 11.372L79.408 15.18L77.2 15.18L77.2 3.82ZM118.8 15.18L118.8 13.244L113.12 13.244L113.12 10.284L117.904 10.284L117.904 8.492L113.12 8.492L113.12 5.756L118.656 5.756L118.656 3.82L110.912 3.82L110.912 15.18L118.8 15.18ZM89.616 10.924Q89.392 10.236 89.392 9.5Q89.392 8.796 89.608 8.124Q89.824 7.452 90.24 6.908Q90.656 6.364 91.272 6.036Q91.888 5.708 92.704 5.708Q93.472 5.708 94.088 6.02Q94.704 6.332 95.128 6.868Q95.552 7.404 95.784 8.084Q96.016 8.764 96.016 9.5Q96.016 10.188 95.8 10.868Q95.584 11.548 95.168 12.1Q94.752 12.652 94.128 12.98Q93.504 13.308 92.704 13.308Q91.92 13.308 91.304 12.996Q90.688 12.684 90.264 12.148Q89.84 11.612 89.616 10.924ZM8.288 7.54Q8.688 8.38 8.688 9.484Q8.688 10.556 8.296 11.412Q7.904 12.268 7.152 12.756Q6.4 13.244 5.312 13.244L3.392 13.244L3.392 5.756L5.312 5.756Q6.384 5.756 7.136 6.228Q7.888 6.7 8.288 7.54ZM72 9.436L69.44 9.436L69.44 5.756L71.904 5.756Q72.304 5.756 72.648 5.964Q72.992 6.172 73.208 6.588Q73.424 7.004 73.424 7.596Q73.424 8.14 73.232 8.564Q73.04 8.988 72.72 9.212Q72.4 9.436 72 9.436ZM79.408 9.436L82.176 9.436Q82.592 9.436 82.912 9.188Q83.232 8.94 83.424 8.524Q83.616 8.108 83.616 7.596Q83.616 7.052 83.392 6.644Q83.168 6.236 82.824 5.996Q82.48 5.756 82.08 5.756L79.408 5.756L79.408 9.436ZM47.504 6.108L49.0667 10.796L45.9333 10.796L47.504 6.108Z" />
      </g>
      <g id="MANAGEMENT" fill="#2F281E">
        <path d="M53.456 34.26Q52.352 34.26 51.368 33.812Q50.384 33.364 49.64 32.572Q48.896 31.78 48.48 30.724Q48.064 29.668 48.064 28.436Q48.064 27.268 48.48 26.236Q48.896 25.204 49.648 24.42Q50.4 23.636 51.408 23.188Q52.416 22.74 53.6 22.74Q55.2 22.74 56.344 23.42Q57.488 24.1 58.064 25.22L56.416 26.436Q55.984 25.588 55.208 25.14Q54.432 24.692 53.52 24.692Q52.8 24.692 52.208 24.996Q51.616 25.3 51.184 25.828Q50.752 26.356 50.52 27.044Q50.288 27.732 50.288 28.5Q50.288 29.316 50.536 30.004Q50.784 30.692 51.24 31.204Q51.696 31.716 52.304 32.012Q52.912 32.308 53.648 32.308Q54.512 32.308 55.304 31.86Q56.0047 31.4636 56.624 30.7417L56.624 29.956L54.336 29.956L54.336 28.34L58.448 28.34L58.448 34.18L56.624 34.18L56.624 32.8902Q55.254 34.26 53.456 34.26ZM10.448 26.724L10.448 34.18L12.656 34.18L12.656 22.82L10.304 22.82L6.912 29.284L3.552 22.82L1.184 22.82L1.184 34.18L3.392 34.18L3.392 26.724L6.304 32.276L7.536 32.276L10.448 26.724ZM20.352 22.82L18.112 22.82L13.92 34.18L16.192 34.18L17.141 31.348L21.312 31.348L22.256 34.18L24.528 34.18L20.352 22.82ZM27.984 26.884L27.984 34.18L25.776 34.18L25.776 22.82L27.536 22.82L33.408 30.308L33.408 22.836L35.616 22.836L35.616 34.18L33.776 34.18L27.984 26.884ZM43.312 22.82L41.072 22.82L36.88 34.18L39.152 34.18L40.101 31.348L44.272 31.348L45.216 34.18L47.488 34.18L43.312 22.82ZM68.224 34.18L68.224 32.244L62.544 32.244L62.544 29.284L67.328 29.284L67.328 27.492L62.544 27.492L62.544 24.756L68.08 24.756L68.08 22.82L60.336 22.82L60.336 34.18L68.224 34.18ZM79.216 34.18L79.216 26.724L76.304 32.276L75.072 32.276L72.16 26.724L72.16 34.18L69.952 34.18L69.952 22.82L72.32 22.82L75.68 29.284L79.072 22.82L81.424 22.82L81.424 34.18L79.216 34.18ZM91.68 34.18L91.68 32.244L86 32.244L86 29.284L90.784 29.284L90.784 27.492L86 27.492L86 24.756L91.536 24.756L91.536 22.82L83.792 22.82L83.792 34.18L91.68 34.18ZM95.616 26.884L95.616 34.18L93.408 34.18L93.408 22.82L95.168 22.82L101.04 30.308L101.04 22.836L103.248 22.836L103.248 34.18L101.408 34.18L95.616 26.884ZM110.48 24.756L114.112 24.756L114.112 22.82L104.656 22.82L104.656 24.756L108.288 24.756L108.288 34.18L110.48 34.18L110.48 24.756ZM19.232 25.108L20.7948 29.796L17.6613 29.796L19.232 25.108ZM42.192 25.108L43.7547 29.796L40.6213 29.796L42.192 25.108Z" />
      </g>
    </g>
    <g id="Group-27" transform="translate(0 2)">
      <g id="Group-52-Copy">
        <path d="M17.9332 4.92017L19.6352 5.90127L6.62183 28.4754L4.91992 27.4943L17.9332 4.92017Z" id="Line-4-Copy-11" fill="#415086" stroke="none" />
        <path d="M42.3663 4.92017L44.0683 5.90127L31.0549 28.4754L29.353 27.4943L42.3663 4.92017Z" id="Line-4-Copy-13" fill="#415086" stroke="none" />
        <path d="M16.9463 5.92476L18.6308 4.91406L32.1648 27.4708L30.4803 28.4815L16.9463 5.92476Z" id="Line-5-Copy-6" fill="#415086" stroke="none" />
        <path d="M6.13889 33.1501C9.5293 33.1501 12.2778 30.4016 12.2778 27.0112C12.2778 23.6208 9.5293 20.8723 6.13889 20.8723C2.74847 20.8723 0 23.6208 0 27.0112C0 30.4016 2.74847 33.1501 6.13889 33.1501Z" id="Oval-Copy-31" fill="#34B933" fill-rule="evenodd" stroke="none" />
        <path d="M30.6946 33.1501C34.085 33.1501 36.8334 30.4016 36.8334 27.0112C36.8334 23.6208 34.085 20.8723 30.6946 20.8723C27.3041 20.8723 24.5557 23.6208 24.5557 27.0112C24.5557 30.4016 27.3041 33.1501 30.6946 33.1501Z" id="Oval-Copy-33" fill="#28B0FF" fill-rule="evenodd" stroke="none" />
        <path d="M18.4167 12.2778C21.8071 12.2778 24.5556 9.5293 24.5556 6.13889C24.5556 2.74847 21.8071 0 18.4167 0C15.0263 0 12.2778 2.74847 12.2778 6.13889C12.2778 9.5293 15.0263 12.2778 18.4167 12.2778Z" id="Oval-Copy-35" fill="#FFC107" fill-rule="evenodd" stroke="none" />
        <path d="M42.9724 12.2778C46.3628 12.2778 49.1113 9.5293 49.1113 6.13889C49.1113 2.74847 46.3628 0 42.9724 0C39.582 0 36.8335 2.74847 36.8335 6.13889C36.8335 9.5293 39.582 12.2778 42.9724 12.2778Z" id="Oval-Copy-37" fill="#415086" fill-rule="evenodd" stroke="none" />
      </g>
    </g>
  </g>
</svg>