<svg width="498" height="450" viewBox="0 0 498 450" fill="none" xmlns="http://www.w3.org/2000/svg">
<path d="M29.9134 331.728C53.9466 346.389 92.9117 329.198 110.972 350.96C128.57 372.138 99.7199 398.171 114.865 418.13C137.334 447.754 240.133 442.345 304.002 399.041C323.218 386.024 330.684 375.143 352.407 370.319C399.051 359.975 426.799 396.336 449.873 389.425C501.814 373.846 545.401 134.171 389.292 38.0105C316.374 -6.90671 211.105 -13.6284 131.148 26.5124C-13.3536 99.0126 -24.0014 298.815 29.9134 331.728Z" fill="#FFF9E7"/>
<path d="M272.467 274.329C274.131 272.83 276.445 268.095 276.524 266.628C277.127 256.78 279.457 238.427 273.005 230.22C271.896 228.816 264.398 231.988 262.544 231.278C257.265 232.146 255.49 232.761 250.069 231.136C234.076 226.306 239.576 192.755 211.979 201.325C191.769 207.59 181.688 222.961 165.631 196.054C149.558 169.147 96.5845 136.448 81.7956 173.124C73.3153 194.176 104.367 205.081 107.522 226.733C110.517 247.311 125.798 255.407 148.512 253.34C171.227 251.272 167.422 264.339 172.78 282.156C179.231 303.556 208.381 288.043 221.22 279.742C231.571 273.051 262.433 262.982 272.467 274.329Z" fill="url(#paint0_linear_0_36782)"/>
<path d="M247.644 251.43C219.984 251.43 192.499 245.118 166.868 232.745C134.437 217.09 105.524 192.14 83.238 160.593L83.6818 160.293C105.905 191.761 134.754 216.648 167.105 232.272C201.106 248.684 238.403 254.413 274.971 248.826L275.05 249.347C265.936 250.736 256.774 251.43 247.644 251.43Z" fill="#FCFDFE"/>
<path d="M174.46 291.373L174.032 291.057C186.253 275.008 212.582 256.638 232.744 250.136L232.903 250.641C212.835 257.112 186.618 275.386 174.46 291.373Z" fill="#FCFDFE"/>
<path d="M260.721 251.367C249.689 249.947 239.829 243.05 231.397 230.867C225.247 221.982 219.984 210.541 215.768 196.858L216.275 196.701C220.491 210.336 225.722 221.714 231.841 230.552C240.178 242.593 249.926 249.426 260.784 250.815L260.721 251.367Z" fill="#FCFDFE"/>
<path d="M109.455 243.65L109.17 243.193C122.231 235.049 142.077 226.117 162.445 229.81L162.35 230.331C142.156 226.685 122.437 235.554 109.455 243.65Z" fill="#FCFDFE"/>
<path d="M122.913 204.055C116.588 196.243 106.301 178.616 108.425 148.442L108.964 148.473C106.856 178.458 117.064 195.959 123.341 203.708L122.913 204.055Z" fill="#FCFDFE"/>
<path d="M257.154 295.902C268.678 287.491 280.075 278.795 291.329 269.847C291.599 269.91 284.703 241.488 266.316 234.592C230.192 221.493 237.103 188.432 236.025 171.64C235.344 147.526 222.33 128.068 201.549 138.926C178.312 150.541 158.641 115.459 148.671 79.2408C144.993 60.9345 120.773 49.4458 103.02 53.4227C84.7279 57.0997 72.919 76.2582 81.7004 111.94C90.1014 154.218 128.033 161.919 146.483 175.412C164.633 188.637 146.943 216.854 173.208 223.056C195.621 229.068 220.539 228.611 220.777 251.273C220.729 273.84 228.829 287.885 257.154 295.902Z" fill="url(#paint1_linear_0_36782)"/>
<path d="M273.972 288.674C273.782 288.343 239.449 239.878 196.794 196.985C190.359 189.773 183.685 182.64 177.234 175.743C159.909 157.248 141.997 138.121 128.366 116.753C113.117 92.8285 104.811 68.3202 102.988 41.8392L104.05 41.7603C105.857 68.0677 114.1 92.4024 129.253 116.185C142.822 137.474 160.701 156.569 177.995 175.017C184.462 181.914 191.135 189.047 197.555 196.259C238.862 237.795 274.495 287.143 274.923 288.232L274.432 288.422L273.972 288.674Z" fill="white"/>
<path d="M144.819 139.446C124.894 131.887 99.5485 119.546 85.9167 112.933C80.2104 110.156 75.7087 107.962 75.1381 107.852C75.2015 107.868 75.3442 107.852 75.4868 107.757L74.8528 106.905C75.2808 106.589 75.2966 106.574 86.3923 111.971C99.9924 118.583 125.322 130.908 145.199 138.452L144.819 139.446Z" fill="white"/>
<path d="M131.282 121.156C123.737 88.4097 136.83 64.5642 140.476 60.4137C140.698 60.1612 140.904 59.956 141.205 59.9876L141.11 61.0449C141.3 61.0607 141.411 60.966 141.411 60.966C141.015 61.2817 136.64 67.0576 133.343 77.9625C130.505 87.3366 128.033 102.376 132.297 120.919L131.282 121.156Z" fill="white"/>
<path d="M223.281 225.423C214.642 210.383 211.25 191.02 213.2 167.9C214.214 155.875 216.655 143.297 220.46 130.546C220.65 129.93 220.808 129.394 220.824 129.283L221.886 129.425C221.87 129.583 221.775 129.883 221.49 130.846C217.701 143.534 215.276 156.032 214.262 167.995C212.328 190.893 215.673 210.052 224.216 224.902L223.281 225.423Z" fill="white"/>
<path d="M155.249 211.725L154.662 211.44L154.789 210.809C155.027 210.604 163 206.753 174 204.844C184.05 203.092 198.712 202.698 211.44 210.73L210.87 211.63C186.919 196.511 155.724 211.488 155.423 211.661L155.154 211.204H155.138L155.249 211.725Z" fill="white"/>
<path d="M268.171 280.767C264.969 273.839 262.512 260.457 269.011 235.964C269.154 235.412 269.28 234.938 269.296 234.844L269.772 234.907L270.295 234.591C270.438 234.812 270.438 234.812 270.057 236.233C263.653 260.409 266.031 273.555 269.154 280.31L268.171 280.767Z" fill="white"/>
<path d="M259.659 269.437C250.83 258.989 227.941 260.047 218.51 260.994C218.098 261.041 217.828 261.057 217.733 261.057L217.701 259.984C217.797 259.984 218.034 259.952 218.399 259.92C246.186 257.143 256.695 264.245 260.483 268.742L259.659 269.437Z" fill="white"/>
<path d="M332.708 39.1565L179.76 33.9725C176.264 33.8616 173.417 36.5725 173.417 40.0443V318.506C173.417 321.978 176.264 324.625 179.76 324.419L332.708 315.7C335.871 315.526 338.434 312.704 338.434 309.422V45.3076C338.434 42.0101 335.871 39.2516 332.708 39.1565Z" fill="url(#paint2_linear_0_36782)"/>
<g opacity="0.3">
<path d="M269.963 244.773C267.369 212.94 286.871 199.797 279.437 170.944C270.232 135.291 234.865 133.753 222.813 98.7965C218.194 85.4006 216.376 65.1402 229.583 35.6532L179.776 33.9569C176.28 33.8459 173.433 36.5568 173.433 40.0287V318.49C173.433 321.962 176.28 324.61 179.776 324.404L316.148 316.635C281.446 289.717 271.56 264.352 269.963 244.773Z" fill="#D8DEE8"/>
</g>
<path opacity="0.3" d="M332.708 42.66L179.76 37.6504C178.32 37.6028 177.166 38.7284 177.166 40.1393V318.284C177.166 319.711 178.336 320.789 179.76 320.709L332.708 312.165C334.005 312.085 335.065 310.928 335.065 309.58V45.1965C335.065 43.849 334.005 42.7076 332.708 42.66Z" fill="url(#paint3_linear_0_36782)"/>
<path opacity="0.6" d="M303.826 253.222L211.03 256.567C208.831 256.647 207.06 258.486 207.06 260.689C207.06 262.877 208.831 264.589 211.03 264.51L303.826 260.927C305.883 260.848 307.559 259.056 307.559 256.932C307.559 254.824 305.883 253.159 303.826 253.222Z" fill="url(#paint4_linear_0_36782)"/>
<path opacity="0.6" d="M303.826 266.951L211.03 270.725C208.831 270.82 207.06 272.659 207.06 274.862C207.06 277.05 208.831 278.762 211.03 278.667L303.826 274.672C305.883 274.577 307.559 272.785 307.559 270.661C307.559 268.521 305.883 266.872 303.826 266.951Z" fill="url(#paint5_linear_0_36782)"/>
<path opacity="0.6" d="M303.826 280.665L211.03 284.85C208.831 284.945 207.06 286.8 207.06 289.003C207.06 291.191 208.831 292.887 211.03 292.792L303.826 288.385C305.883 288.29 307.559 286.483 307.559 284.358C307.559 282.218 305.883 280.569 303.826 280.665Z" fill="url(#paint6_linear_0_36782)"/>
<path opacity="0.6" d="M255.696 53.8047L209.021 52.473C207.929 52.4413 207.06 53.2974 207.06 54.3754C207.06 55.4534 207.945 56.3729 209.021 56.3888L255.696 57.657C256.756 57.6887 257.594 56.8485 257.594 55.7705C257.61 54.7242 256.756 53.8364 255.696 53.8047Z" fill="url(#paint7_linear_0_36782)"/>
<path opacity="0.6" d="M255.696 60.701L209.021 59.4803C207.929 59.4486 207.06 60.3047 207.06 61.3986C207.06 62.4766 207.945 63.3802 209.021 63.4119L255.696 64.5692C256.756 64.6009 257.594 63.7449 257.594 62.6827C257.61 61.6205 256.756 60.7327 255.696 60.701Z" fill="url(#paint8_linear_0_36782)"/>
<path opacity="0.6" d="M255.696 67.5971L209.021 66.4715C207.929 66.4398 207.06 67.3118 207.06 68.3898C207.06 69.4678 207.945 70.3714 209.021 70.4031L255.696 71.4653C256.756 71.497 257.594 70.6409 257.594 69.5788C257.61 68.5008 256.756 67.613 255.696 67.5971Z" fill="url(#paint9_linear_0_36782)"/>
<path opacity="0.35" d="M270.311 244.757C267.717 212.923 287.219 199.781 279.785 170.928C270.595 135.274 235.213 133.753 223.177 98.7803C218.748 85.9392 216.898 66.7886 228.396 39.2357L180.139 37.6504C178.7 37.6028 177.545 38.7284 177.545 40.1393V318.252C177.545 319.679 178.716 320.757 180.139 320.678L312.336 313.29C280.987 287.608 271.845 263.527 270.311 244.757Z" fill="white"/>
<path opacity="0.75" d="M229.124 127.02C229.124 100.323 206.488 78.687 178.576 78.687C150.665 78.687 128.029 100.323 128.029 127.02C128.029 143.215 136.369 157.555 149.164 166.326C154.598 170.054 157.883 176.177 157.883 182.776V186.472C157.883 194.514 164.376 201.017 172.369 201.017H184.784C192.793 201.017 199.269 194.498 199.269 186.472V182.776C199.269 176.177 202.555 170.038 207.989 166.326C220.784 157.555 229.124 143.215 229.124 127.02Z" fill="#F4F7FA"/>
<ellipse cx="178.576" cy="222.574" rx="11.2153" ry="5.96424" fill="url(#paint10_linear_0_36782)"/>
<path d="M163.665 211.931V218.022C163.665 220.084 164.834 221.972 166.682 222.86C169.257 224.097 173.522 225.445 179.73 225.287C184.769 225.16 188.054 224.335 190.139 223.463C192.161 222.622 193.456 220.623 193.456 218.434V215.071L163.665 211.931Z" fill="url(#paint11_linear_0_36782)"/>
<path opacity="0.3" d="M163.665 217.26C164.123 217.705 164.644 218.085 165.229 218.355C168.119 219.735 186.996 222.828 191.561 221.099C192.145 220.877 192.682 220.576 193.156 220.211C193.362 219.64 193.472 219.021 193.472 218.402V215.04L163.681 211.931V217.26H163.665Z" fill="url(#paint12_linear_0_36782)"/>
<path d="M164.992 207.775C163.317 207.6 161.848 208.917 161.848 210.614V210.789C161.848 213.105 163.159 215.214 165.229 216.214C168.119 217.594 186.996 220.687 191.561 218.958C193.851 218.085 195.273 216.118 195.273 213.66V213.517C195.273 212.058 194.167 210.82 192.73 210.678L164.992 207.775Z" fill="url(#paint13_linear_0_36782)"/>
<path opacity="0.3" d="M192.73 210.677L164.992 207.775C163.902 207.664 162.891 208.187 162.338 209.028C162.891 210.344 163.918 211.455 165.245 212.089C168.135 213.469 187.817 216.959 191.577 215.182C193.03 214.484 194.183 213.326 194.799 211.899C194.325 211.248 193.599 210.773 192.73 210.677Z" fill="url(#paint14_linear_0_36782)"/>
<path d="M163.902 197.924C162.765 197.924 161.848 198.844 161.848 199.986V204.761C161.848 207.077 163.159 209.187 165.229 210.186C168.119 211.566 187.801 215.056 191.561 213.279C193.772 212.232 195.273 210.091 195.273 207.632V200.002C195.273 198.86 194.357 197.94 193.22 197.94H163.902V197.924Z" fill="url(#paint15_linear_0_36782)"/>
<ellipse cx="178.576" cy="199.399" rx="16.3016" ry="3.87041" fill="url(#paint16_linear_0_36782)"/>
<path d="M229.124 127.02C229.124 100.323 206.488 78.687 178.576 78.687C150.665 78.687 128.029 100.323 128.029 127.02C128.029 143.215 136.369 157.555 149.164 166.326C154.598 170.054 157.883 176.177 157.883 182.776V186.472C157.883 194.514 164.376 201.017 172.369 201.017H184.784C192.793 201.017 199.269 194.498 199.269 186.472V182.776C199.269 176.177 202.555 170.038 207.989 166.326C220.784 157.555 229.124 143.215 229.124 127.02Z" fill="white"/>
<ellipse opacity="0.5" cx="178.576" cy="196.354" rx="11.9261" ry="2.83936" fill="#F4F7FA"/>
<path d="M175.465 198.083C175.117 198.083 174.833 197.829 174.785 197.48L166.019 128.955C165.971 128.574 166.24 128.225 166.619 128.177C166.998 128.13 167.345 128.399 167.393 128.78L176.16 197.305C176.207 197.686 175.939 198.035 175.559 198.083C175.528 198.083 175.496 198.083 175.465 198.083Z" fill="url(#paint17_linear_0_36782)"/>
<path d="M180.914 198.083C180.883 198.083 180.851 198.083 180.82 198.083C180.44 198.035 180.172 197.686 180.219 197.305L188.986 128.78C189.034 128.399 189.381 128.13 189.76 128.177C190.139 128.225 190.408 128.574 190.36 128.955L181.594 197.48C181.546 197.829 181.246 198.083 180.914 198.083Z" fill="url(#paint18_linear_0_36782)"/>
<path d="M188.054 128.907C187.833 128.907 187.612 128.796 187.486 128.59L185.069 124.894C185.037 124.862 185.006 124.831 184.974 124.847C184.911 124.847 184.895 124.894 184.879 124.91L183.284 127.607C183.015 128.051 182.557 128.32 182.036 128.336C181.53 128.352 181.041 128.098 180.756 127.67L178.561 124.371C178.529 124.339 178.497 124.323 178.466 124.323C178.419 124.339 178.403 124.339 178.371 124.371L176.444 127.162C176.16 127.575 175.702 127.813 175.228 127.813C174.738 127.813 174.28 127.575 173.996 127.162L171.215 123.165C171.184 123.133 171.152 123.118 171.121 123.118C171.073 123.118 171.057 123.133 171.026 123.181L168.483 127.575C168.293 127.908 167.867 128.019 167.535 127.829C167.203 127.638 167.093 127.21 167.282 126.877L169.825 122.483C170.078 122.039 170.536 121.753 171.057 121.738C171.563 121.706 172.053 121.96 172.337 122.388L175.117 126.385C175.149 126.417 175.18 126.433 175.212 126.433C175.243 126.433 175.275 126.417 175.307 126.385L177.234 123.593C177.518 123.181 177.976 122.943 178.466 122.943C178.956 122.943 179.414 123.197 179.698 123.609L181.894 126.909C181.925 126.94 181.957 126.972 181.988 126.956C182.052 126.956 182.067 126.909 182.083 126.893L183.679 124.196C183.947 123.752 184.405 123.482 184.927 123.467C185.432 123.451 185.922 123.704 186.206 124.149L188.623 127.845C188.828 128.162 188.749 128.59 188.433 128.796C188.323 128.86 188.181 128.907 188.054 128.907Z" fill="url(#paint19_linear_0_36782)"/>
<path opacity="0.3" d="M179.493 165.136C180.583 146.514 211.843 142.152 211.717 125.512C211.638 115.265 199.206 107.651 196.553 106.129C176.997 94.898 152.923 107.873 147.964 98.6891C146.731 96.4049 147.3 93.9146 147.632 92.5028C148.137 90.3614 149.259 88.3627 150.933 86.5386C137.143 95.1677 128.013 110.078 128.013 127.003C128.013 143.199 136.353 157.538 149.148 166.31C154.582 170.038 157.868 176.161 157.868 182.759V186.455C157.868 194.498 164.36 201.001 172.353 201.001H184.769C192.777 201.001 199.254 194.482 199.254 186.455V183.505C197.548 184.822 195.589 185.742 193.425 185.726C185.969 185.662 178.956 174.416 179.493 165.136Z" fill="url(#paint20_linear_0_36782)"/>
<ellipse opacity="0.2" cx="179.382" cy="128.907" rx="43.5027" ry="42.1303" fill="url(#paint21_linear_0_36782)"/>
<path d="M231.467 215.751L113.201 211.727C110.49 211.632 108.299 213.739 108.299 216.432V432.321C108.299 435.014 110.49 437.058 113.201 436.915L231.467 430.151C233.911 430.008 235.897 427.838 235.897 425.288V220.519C235.897 217.969 233.911 215.83 231.467 215.751Z" fill="url(#paint22_linear_0_36782)"/>
<g opacity="0.3">
<path d="M182.944 375.165C180.926 350.484 196.028 340.298 190.274 317.929C183.165 290.286 155.797 289.098 146.48 261.993C142.918 251.6 141.499 235.901 151.714 213.042L113.201 211.727C110.49 211.632 108.299 213.739 108.299 216.432V432.321C108.299 435.014 110.49 437.058 113.201 436.915L218.666 430.896C191.819 410.001 184.173 390.341 182.944 375.165Z" fill="#D8DEE8"/>
</g>
<path d="M231.467 218.476L113.201 214.595C112.098 214.563 111.183 215.418 111.183 216.527V432.163C111.183 433.272 112.082 434.111 113.201 434.048L231.467 427.426C232.476 427.363 233.28 426.476 233.28 425.43V220.44C233.28 219.395 232.476 218.507 231.467 218.476Z" fill="url(#paint23_linear_0_36782)"/>
<path d="M209.129 381.723L137.368 384.321C135.682 384.384 134.294 385.81 134.294 387.505C134.294 389.2 135.666 390.531 137.368 390.467L209.129 387.695C210.721 387.632 212.014 386.254 212.014 384.606C212.014 382.959 210.721 381.66 209.129 381.723Z" fill="#D8DEE8"/>
<path d="M209.129 392.353L137.368 395.268C135.682 395.331 134.294 396.773 134.294 398.468C134.294 400.163 135.666 401.493 137.368 401.414L209.129 398.309C210.721 398.246 212.014 396.852 212.014 395.204C212.014 393.573 210.721 392.289 209.129 392.353Z" fill="#D8DEE8"/>
<path d="M209.129 402.998L137.368 406.246C135.682 406.325 134.294 407.766 134.294 409.461C134.294 411.157 135.666 412.471 137.368 412.392L209.129 408.97C210.721 408.891 212.014 407.497 212.014 405.85C212.014 404.202 210.721 402.919 209.129 402.998Z" fill="#D8DEE8"/>
<path d="M171.909 227.109L135.808 226.08C134.972 226.048 134.294 226.713 134.294 227.553C134.294 228.393 134.972 229.09 135.808 229.121L171.909 230.103C172.728 230.119 173.375 229.47 173.375 228.646C173.39 227.822 172.728 227.125 171.909 227.109Z" fill="#D8DEE8"/>
<path d="M171.909 232.448L135.808 231.498C134.972 231.482 134.294 232.147 134.294 232.987C134.294 233.827 134.972 234.524 135.808 234.555L171.909 235.458C172.728 235.474 173.375 234.825 173.375 234.001C173.39 233.161 172.728 232.48 171.909 232.448Z" fill="#D8DEE8"/>
<path d="M171.909 237.803L135.808 236.931C134.972 236.916 134.294 237.581 134.294 238.421C134.294 239.26 134.972 239.957 135.808 239.973L171.909 240.797C172.728 240.813 173.375 240.163 173.375 239.324C173.39 238.516 172.728 237.819 171.909 237.803Z" fill="#D8DEE8"/>
<path d="M158.004 295.229C160.353 290.777 164.736 287.609 169.875 287.023L170.238 265.003C155.592 265.383 142.965 274.46 137.321 287.482L158.004 295.229Z" fill="url(#paint24_linear_0_36782)"/>
<path d="M186.743 305.24C185.498 312.559 179.239 318.167 171.688 318.246C169.449 318.262 167.321 317.803 165.398 316.947L153.921 335.91C159.234 338.745 165.288 340.282 171.688 340.171C190.732 339.822 206.165 324.836 207.899 306.048L186.743 305.24Z" fill="url(#paint25_linear_0_36782)"/>
<path d="M150.358 333.755L161.867 314.777C158.398 311.909 156.176 307.553 156.176 302.642C156.176 301.454 156.302 300.298 156.554 299.189L135.839 291.458C134.752 295.007 134.152 298.793 134.152 302.706C134.168 315.648 140.6 327.022 150.358 333.755Z" fill="url(#paint26_linear_0_36782)"/>
<path d="M173.974 287.101C180.879 288.179 186.254 293.945 186.901 301.09L221.898 302.484C221.898 302.468 221.898 302.452 221.898 302.436C221.898 275.173 201.183 252.519 174.573 250.507L173.974 287.101Z" fill="url(#paint27_linear_0_36782)"/>
<path opacity="0.35" d="M183.212 375.165C181.194 350.484 196.281 340.297 190.527 317.929C183.417 290.285 156.065 289.097 146.748 261.992C143.327 252.028 141.893 237.184 150.784 215.83L113.469 214.61C112.366 214.579 111.451 215.434 111.451 216.543V432.163C111.451 433.272 112.35 434.111 113.469 434.048L215.703 428.329C191.473 408.384 184.394 389.707 183.212 375.165Z" fill="white"/>
<path d="M143.658 274.207L86.4173 273.636C85.1246 273.621 84.0684 272.591 84.0684 271.324V249.446C84.0684 248.179 85.1246 247.181 86.4173 247.213L136.249 248.401C137.479 248.432 138.472 249.446 138.472 250.682V269.486L143.658 274.207Z" fill="url(#paint28_linear_0_36782)"/>
<path opacity="0.67" d="M130.432 256.306L92.5182 255.561V252.947L130.432 253.739V256.306Z" fill="white"/>
<path opacity="0.67" d="M130.432 261.454L92.5182 260.805V258.191L130.432 258.872V261.454Z" fill="white"/>
<path opacity="0.67" d="M130.432 266.587L92.5182 266.048V263.434L130.432 264.02V266.587Z" fill="white"/>
<path opacity="0.3" d="M172.051 347.838L223.191 346.729C224.515 346.697 225.603 347.806 225.603 349.184V373.105C225.603 374.483 224.531 375.64 223.191 375.687L169.292 377.509C167.904 377.557 166.769 376.448 166.769 375.022V343.767L172.051 347.838Z" fill="url(#paint29_linear_0_36782)"/>
<path opacity="0.67" d="M175.866 368.084L216.869 366.864V369.747L175.866 371.03V368.084Z" fill="white"/>
<path opacity="0.67" d="M175.866 362.206L216.869 361.065V363.964L175.866 365.153V362.206Z" fill="white"/>
<path opacity="0.67" d="M175.866 356.313L216.869 355.283V358.182L175.866 359.259V356.313Z" fill="white"/>
<path d="M414.961 87.8948L255.362 82.5012C251.705 82.3746 248.745 85.2059 248.745 88.8122V378.487C248.745 382.093 251.705 384.845 255.362 384.639L414.961 375.576C418.269 375.386 420.929 372.46 420.929 369.044V94.3007C420.929 90.8684 418.253 88.0055 414.961 87.8948Z" fill="url(#paint30_linear_0_36782)"/>
<g opacity="0.3">
<path d="M349.472 301.805C346.765 268.684 367.122 255.018 359.35 224.997C349.757 187.906 312.841 186.309 300.256 149.945C295.444 136.01 293.528 114.942 307.332 84.2568L255.346 82.5012C251.689 82.3746 248.729 85.2059 248.729 88.8122V378.487C248.729 382.093 251.689 384.845 255.346 384.639L397.659 376.557C361.455 348.545 351.15 322.162 349.472 301.805Z" fill="#D8DEE8"/>
</g>
<path d="M414.961 91.5487L255.362 86.329C253.874 86.2816 252.655 87.4362 252.655 88.9231V378.265C252.655 379.736 253.874 380.875 255.362 380.796L414.961 371.907C416.322 371.828 417.414 370.626 417.414 369.218V94.1743C417.414 92.7824 416.306 91.5961 414.961 91.5487Z" fill="url(#paint31_linear_0_36782)"/>
<path d="M384.82 310.584L287.972 314.063C285.692 314.143 283.824 316.056 283.824 318.35C283.824 320.628 285.676 322.415 287.972 322.32L384.82 318.587C386.973 318.508 388.715 316.642 388.715 314.443C388.715 312.245 386.973 310.52 384.82 310.584Z" fill="#D8DEE8"/>
<path d="M384.82 324.867L287.972 328.789C285.692 328.884 283.824 330.814 283.824 333.091C283.824 335.369 285.676 337.141 287.972 337.046L384.82 332.886C386.973 332.791 388.715 330.924 388.715 328.71C388.715 326.496 386.973 324.772 384.82 324.867Z" fill="#D8DEE8"/>
<path d="M384.82 339.134L287.972 343.483C285.692 343.578 283.824 345.524 283.824 347.801C283.824 350.079 285.676 351.851 287.972 351.74L384.82 347.153C386.973 347.058 388.715 345.176 388.715 342.961C388.715 340.747 386.973 339.039 384.82 339.134Z" fill="#D8DEE8"/>
<path d="M334.591 103.143L285.882 101.766C284.742 101.735 283.824 102.621 283.824 103.759C283.824 104.882 284.742 105.831 285.882 105.863L334.591 107.176C335.684 107.208 336.586 106.322 336.586 105.215C336.586 104.092 335.7 103.174 334.591 103.143Z" fill="#D8DEE8"/>
<path d="M334.591 110.308L285.882 109.042C284.742 109.011 283.824 109.912 283.824 111.035C283.824 112.158 284.742 113.107 285.882 113.139L334.591 114.357C335.684 114.388 336.586 113.503 336.586 112.396C336.586 111.257 335.7 110.339 334.591 110.308Z" fill="#D8DEE8"/>
<path d="M334.591 117.489L285.882 116.318C284.742 116.287 283.824 117.188 283.824 118.311C283.824 119.434 284.742 120.383 285.882 120.399L334.591 121.506C335.684 121.538 336.586 120.652 336.586 119.545C336.586 118.438 335.7 117.504 334.591 117.489Z" fill="#D8DEE8"/>
<path d="M315.833 194.549C318.999 188.57 324.919 184.331 331.853 183.54L332.344 153.994C312.572 154.516 295.554 166.695 287.924 184.142L315.833 194.549Z" fill="url(#paint32_linear_0_36782)"/>
<path d="M354.601 207.978C352.907 217.8 344.485 225.329 334.275 225.424C331.251 225.456 328.386 224.823 325.79 223.684L310.292 249.134C317.447 252.93 325.632 255.018 334.275 254.86C359.983 254.385 380.799 234.298 383.142 209.069L354.601 207.978Z" fill="url(#paint33_linear_0_36782)"/>
<path d="M305.512 246.224L321.041 220.758C316.355 216.915 313.363 211.063 313.363 204.467C313.363 202.869 313.537 201.319 313.87 199.832L285.914 189.472C284.442 194.233 283.65 199.31 283.65 204.562C283.666 221.945 292.341 237.192 305.512 246.224Z" fill="url(#paint34_linear_0_36782)"/>
<path d="M337.378 183.635C346.701 185.091 353.952 192.825 354.822 202.41L402.059 204.277C402.059 204.261 402.059 204.229 402.059 204.213C402.059 167.628 374.103 137.244 338.185 134.539L337.378 183.635Z" fill="url(#paint35_linear_0_36782)"/>
<path opacity="0.35" d="M349.836 301.789C347.129 268.668 367.486 255.002 359.714 224.997C350.121 187.906 313.205 186.324 300.636 149.945C296.014 136.58 294.082 116.666 306.081 88.0053L255.726 86.3603C254.238 86.3128 253.019 87.4675 253.019 88.9543V378.265C253.019 379.736 254.238 380.875 255.726 380.796L393.685 373.124C360.996 346.362 351.435 321.292 349.836 301.789Z" fill="white"/>
<path opacity="0.3" d="M334.781 265.125L403.785 263.638C405.574 263.607 407.03 265.078 407.03 266.928V299.037C407.03 300.888 405.574 302.453 403.785 302.501L331.045 304.953C329.162 305.016 327.642 303.529 327.642 301.615V259.652L334.781 265.125Z" fill="url(#paint36_linear_0_36782)"/>
<path opacity="0.67" d="M339.926 292.299L395.268 290.638V294.529L339.926 296.253V292.299Z" fill="white"/>
<path opacity="0.67" d="M339.926 284.406L395.268 282.888V286.763L339.926 288.345V284.406Z" fill="white"/>
<path opacity="0.67" d="M339.926 276.513L395.268 275.122V278.997L339.926 280.452V276.513Z" fill="white"/>
<path d="M336.676 442.054C336.676 442.054 325.396 447.23 325.222 448.037C325.033 448.86 332.49 447.752 335.523 447.863C338.556 447.974 341.068 447.071 340.784 445.774C340.5 444.491 339.441 441.247 339.441 441.247L336.676 442.054Z" fill="url(#paint37_linear_0_36782)"/>
<path d="M336.25 437.875L336.945 442.972C336.945 442.972 338.73 443.605 339.931 442.845L340.437 437.258L336.25 437.875Z" fill="url(#paint38_linear_0_36782)"/>
<path d="M389.428 437.875L390.74 439.98C391.103 440.566 391.214 441.278 391.04 441.959C390.582 443.716 389.681 447.135 389.27 448.037C388.733 449.256 381.418 450 381.418 450C381.418 450 380.771 449.082 382.272 447.974C383.788 446.866 384.768 446.691 385.289 445.045C385.826 443.399 386.174 438.777 386.174 438.777L389.428 437.875Z" fill="url(#paint39_linear_0_36782)"/>
<path d="M383.946 432.525C384.42 432.905 386.79 440.044 386.79 440.044C386.79 440.044 387.548 441.009 388.986 439.569C390.424 438.128 389.634 438.92 389.634 438.92L389.349 431.908L383.946 432.525Z" fill="url(#paint40_linear_0_36782)"/>
<path d="M329.804 335.576C329.251 350.771 329.267 367.28 330.167 384.913C331.194 404.762 333.216 423.123 335.744 439.743C336.676 439.774 337.64 439.774 338.651 439.743C339.331 439.727 339.994 439.679 340.642 439.648C341.922 436.197 343.438 431.654 344.797 426.225C346.219 420.527 347.072 415.414 347.688 410.523C349.821 393.318 347.262 391.814 348.999 379.056C350.532 367.755 352.76 367.312 355.335 351.277C358.131 333.866 356.014 331.27 354.987 330.32C350.595 326.3 340.358 329.07 329.804 335.576Z" fill="url(#paint41_linear_0_36782)"/>
<path opacity="0.3" d="M354.971 330.305C350.8 326.49 341.29 328.833 331.257 334.689C342.854 347.178 344.133 355.298 342.759 360.569C341.211 366.52 336.455 368.246 336.487 374.767C336.534 382.76 343.738 384.866 343.612 393.334C343.517 398.937 340.358 398.874 339.631 405.791C338.762 413.974 342.917 416.776 341.59 422.838C341.021 425.45 339.378 428.853 334.702 432.367C335.049 434.852 335.397 437.305 335.76 439.727C336.692 439.759 337.656 439.759 338.667 439.727C339.346 439.711 340.01 439.664 340.658 439.632C341.937 436.182 343.454 431.639 344.813 426.21C346.235 420.511 347.088 415.399 347.704 410.508C349.837 393.302 347.277 391.799 349.015 379.041C350.548 367.739 352.775 367.296 355.335 351.262C358.115 333.851 355.998 331.255 354.971 330.305Z" fill="url(#paint42_linear_0_36782)"/>
<path d="M336.961 335.291C346.946 349.853 357.736 367.993 367.389 389.709C374.688 406.123 379.981 421.54 383.883 435.28C384.404 435.517 385.637 436.008 387.217 435.786C389.365 435.501 390.645 434.124 390.993 433.728C392.541 423.867 392.351 415.526 391.798 409.495C391.451 405.633 390.835 399.222 388.354 391.292C385.589 382.412 383.693 381.922 380.091 372.535C376.347 362.785 377.248 360.348 373.645 348.16C372.176 343.142 369.696 335.687 365.636 326.775C356.061 329.625 346.519 332.458 336.961 335.291Z" fill="url(#paint43_linear_0_36782)"/>
<path d="M296.374 314.746C296.469 318.291 302.283 321.409 306.975 322.375C317.923 324.607 330.625 316.645 336.645 307.828C337.83 306.103 339.141 303.998 339.457 304.156C340.168 304.52 333.596 315.363 330.736 327.677C329.283 333.977 329.662 336.937 326.929 341.132C326.312 342.081 325.554 343.078 325.823 344.202C326.486 347.02 332.916 347.748 337.387 348.254C342.095 348.793 346.487 348.745 350.832 348.682C357.784 348.587 358.336 348.223 359.916 348.998C364.751 351.373 364.419 357.071 368.068 357.831C371.118 358.464 374.23 355.045 375.21 353.968C380.312 348.334 380.044 341.543 380.944 334.689C383.046 318.766 391.688 301.323 400.14 290.275C402.699 286.919 404.485 285.162 404.595 282.044C404.927 272.911 390.471 262.812 378.432 261.657C375.131 261.34 369.222 261.435 363.692 261.958C361.48 262.163 359.126 262.48 356.599 262.923C350.453 263.999 346.187 264.743 341.827 266.738C324.259 274.794 328.098 292.712 309.076 305.106C302.52 309.38 296.279 311.026 296.374 314.746Z" fill="url(#paint44_linear_0_36782)"/>
<path d="M368.353 252.176C368.353 252.176 369.111 256.386 370.849 259.394C372.413 262.1 378.906 263.082 380.265 263.556C381.624 264.031 378.227 266.39 374.625 267.244C371.023 268.099 360.469 268.653 358.4 267.514C356.33 266.374 359.743 266.026 362.223 264.728C364.703 263.414 365.541 258.111 364.767 255.848C363.977 253.585 368.353 252.176 368.353 252.176Z" fill="url(#paint45_linear_0_36782)"/>
<path d="M361.496 250.957C358.874 249.089 358.147 244.008 359.6 242.884C360.011 242.552 360.406 242.71 366.315 245.084C369.253 246.256 370.691 246.889 371.165 248.187C371.449 248.978 371.402 250.054 371.086 250.893C370.928 251.321 370.596 251.875 369.885 252.904C369.253 253.822 369.301 253.79 369.095 254.059C368.621 254.692 367.721 255.768 366.078 257.019C365.983 256.56 365.841 255.974 365.604 255.341C365.509 255.104 365.13 254.154 364.53 253.347C363.503 251.954 362.334 251.558 361.496 250.957Z" fill="url(#paint46_linear_0_36782)"/>
<path d="M368.195 255.768C368.195 255.768 366.489 258.317 363.313 257.984C360.469 257.668 360.343 251.257 362.207 249.975C362.839 249.548 364.056 249.421 365.035 249.738C365.62 249.928 365.793 250.181 366.741 250.466C367.61 250.735 367.863 250.64 368.132 250.877C368.448 251.178 368.669 251.875 368.021 253.727C368.59 253.204 369.253 253.014 369.696 253.252C369.775 253.283 369.964 253.426 370.059 253.632C370.454 254.391 369.743 255.294 368.195 255.768Z" fill="url(#paint47_linear_0_36782)"/>
<path opacity="0.3" d="M311.73 314.191C319.661 312.403 322.837 312.45 326.755 309.285C333.295 304.014 334.275 295.973 338.067 296.084C339.868 296.131 341.321 297.967 342.364 299.772C341.4 301.275 340.452 302.779 339.489 304.267C339.489 304.204 339.473 304.172 339.441 304.156C339.125 303.998 337.814 306.087 336.629 307.828C330.61 316.645 317.907 324.622 306.959 322.375C303.815 321.726 300.181 320.111 298.08 318.054C303.499 316.217 308.112 315.014 311.73 314.191Z" fill="url(#paint48_linear_0_36782)"/>
<path d="M298.807 321.029C298.807 321.029 294.32 320.586 291.666 319.446C288.996 318.307 287.274 319.953 287.511 321.077C287.764 322.216 292.14 323.799 293.909 323.847C295.647 323.91 298.807 321.029 298.807 321.029Z" fill="url(#paint49_linear_0_36782)"/>
<path d="M395.29 344.772C400.093 345.2 410.93 345.405 418.577 338.299C431.327 326.49 425.007 303.998 420.568 294.327C415.481 283.231 407.376 277.027 402.462 273.259C396.364 268.574 392.636 265.725 388.149 266.358C376.552 268.02 368.527 291.826 374.894 298.632C376.979 300.864 379.033 299.598 385.068 301.529C387.027 302.162 401.688 306.832 404.248 317.642C406.033 325.208 401.483 334.072 393.394 340.024C394.01 341.607 394.642 343.189 395.29 344.772Z" fill="url(#paint50_linear_0_36782)"/>
<path opacity="0.3" d="M341.369 340.847C346.819 337.396 347.625 333.898 353.723 331.539C361.638 328.469 365.446 332.362 369.38 329.228C374.056 325.477 369.917 318.956 373.408 307.638C374.009 305.723 378.511 291.129 388.86 289.262C393.678 288.391 400.061 290.243 402.51 294.342C404.437 297.54 402.636 299.93 404.974 303.476C407.313 307.005 410.109 306.151 413.079 309.095C417.803 313.78 418.53 323.657 414.264 329.244C412.273 331.856 409.682 332.885 404.816 334.816C401.846 336.003 399.081 336.731 396.696 337.206C402.652 331.476 405.749 324.084 404.216 317.642C402.62 310.899 396.332 306.546 391.34 304.061C386.348 313.479 382.256 324.385 380.897 334.673C379.997 341.527 380.265 348.318 375.162 353.952C374.183 355.029 371.086 358.448 368.021 357.815C364.387 357.055 364.703 351.357 359.869 348.982C358.289 348.207 357.736 348.571 350.785 348.666C346.44 348.729 342.048 348.777 337.34 348.238C333.374 347.779 327.861 347.162 326.218 345.041C333.406 344.851 338.193 342.873 341.369 340.847Z" fill="url(#paint51_linear_0_36782)"/>
<path d="M392.13 348.555L392.683 346.909C393.583 344.282 392.114 341.464 389.397 340.641L283.403 308.288L280.18 319.257L385.637 351.8C388.322 352.639 391.229 351.183 392.13 348.555Z" fill="url(#paint52_linear_0_36782)"/>
<path fill-rule="evenodd" clip-rule="evenodd" d="M249.373 236.236C217.965 227.167 186.209 246.509 178.104 278.578C170.173 309.934 187.71 342.556 217.554 352.243C247.919 362.104 280.449 344.867 289.944 312.91C299.66 280.176 281.349 245.464 249.373 236.236ZM246.718 245.892C273.418 253.679 288.743 282.693 280.717 310.076C272.834 336.921 245.565 351.547 219.987 343.316C194.804 335.196 180.032 307.67 186.794 281.253C193.698 254.313 220.413 238.231 246.718 245.892Z" fill="url(#paint53_linear_0_36782)"/>
<path opacity="0.3" d="M283.419 308.303L296.927 312.434C297.859 316.756 299.66 319.225 301.477 320.729C308.302 326.395 317.418 320.222 330.136 326.87C336.518 330.21 335.302 332.331 341.29 334.658C351.18 338.504 355.698 333.17 364.451 336.684C373.298 340.229 374.183 347.874 379.191 347.605C381.339 347.495 384.104 345.927 387.185 339.992L389.397 340.672C392.098 341.496 393.568 344.313 392.683 346.941L392.13 348.587C391.245 351.214 388.338 352.655 385.653 351.832L280.196 319.288L283.419 308.303Z" fill="#D8DEE8"/>
<path opacity="0.56" d="M217.491 347.7C243.938 356.232 272.17 341.131 280.338 313.337C288.68 284.972 272.802 254.93 245.139 246.873C217.902 238.943 190.254 255.626 183.144 283.5C176.161 310.836 191.439 339.295 217.491 347.7Z" fill="white"/>
<path fill-rule="evenodd" clip-rule="evenodd" d="M247.319 238.99C215.911 229.921 184.155 249.263 176.051 281.331C168.12 312.688 185.656 345.31 215.5 354.997C245.865 364.858 278.395 347.621 287.89 315.663C297.606 282.93 279.295 248.218 247.319 238.99ZM244.665 248.646C271.364 256.433 286.689 285.447 278.663 312.83C270.78 339.675 243.511 354.285 217.949 346.07C192.75 337.95 177.978 310.424 184.74 284.006C191.644 257.066 218.36 240.985 244.665 248.646Z" fill="url(#paint54_linear_0_36782)"/>
<path fill-rule="evenodd" clip-rule="evenodd" d="M246.371 242.425C216.78 233.846 186.794 252.033 179.116 282.281C171.595 311.88 188.152 342.714 216.353 351.847C245.028 361.139 275.709 344.819 284.62 314.666C293.735 283.832 276.483 251.147 246.371 242.425ZM244.665 248.646C271.364 256.433 286.689 285.447 278.663 312.83C270.78 339.675 243.511 354.285 217.949 346.07C192.75 337.95 177.978 310.424 184.74 284.006C191.644 257.066 218.36 240.985 244.665 248.646Z" fill="url(#paint55_linear_0_36782)"/>
<path d="M394.879 343.759L393.805 341.1C393.805 341.1 392.051 341.211 390.613 340.182C389.839 339.628 388.449 339.454 388.038 339.564C387.627 339.675 386.111 339.612 387.849 340.435C389.586 341.258 389.571 341.875 388.844 342.556C388.117 343.237 385.368 344.709 384.373 344.772C383.377 344.835 385.179 346.371 386.174 346.576C387.169 346.766 388.812 347.02 390.834 345.817C391.593 345.373 394.879 343.759 394.879 343.759Z" fill="url(#paint56_linear_0_36782)"/>
<path fill-rule="evenodd" clip-rule="evenodd" d="M316.188 81.8865C315.236 83.7713 313.083 84.5723 311.367 83.6927C311.273 83.6456 311.195 83.5985 311.133 83.5357C310.493 84.4152 309.807 85.2163 309.058 85.9702L309.058 85.9702C309.12 86.0487 309.183 86.1273 309.229 86.2215C310.243 87.9178 309.697 90.258 308.028 91.436C306.359 92.614 304.174 92.2056 303.16 90.5093C303.114 90.4308 303.067 90.3366 303.02 90.2423C302.084 90.6821 301.117 91.0434 300.134 91.3261C300.134 91.3714 300.137 91.4203 300.141 91.4711C300.145 91.526 300.149 91.5831 300.149 91.6402C300.18 93.6977 298.636 95.5197 296.67 95.6924C294.72 95.8652 293.097 94.3417 293.051 92.2842C293.051 92.2292 293.054 92.1781 293.058 92.1271C293.062 92.076 293.066 92.025 293.066 91.97C292.083 91.8601 291.116 91.6716 290.149 91.4046C290.117 91.5145 290.071 91.6088 290.024 91.703C289.072 93.5878 286.919 94.3888 285.203 93.5093C283.487 92.6297 282.847 90.3994 283.799 88.5303L283.799 88.5303C283.846 88.4361 283.892 88.3418 283.955 88.2476C283.436 87.8297 282.938 87.391 282.47 86.9268C280.722 87.872 277.634 87.0828 276.669 85.4676C275.655 83.7713 276.201 81.431 277.87 80.253C277.948 80.1902 278.042 80.1274 278.135 80.0803C277.777 79.1065 277.496 78.117 277.293 77.096C277.199 77.1118 277.106 77.1275 276.996 77.1432C275.046 77.3159 273.424 75.7924 273.377 73.7349C273.346 71.6773 274.89 69.8554 276.856 69.6826C276.95 69.6669 277.059 69.6669 277.153 69.6669C277.309 68.6146 277.558 67.578 277.87 66.5413C277.824 66.5136 277.773 66.4913 277.719 66.468C277.682 66.4518 277.643 66.4351 277.605 66.4157C275.889 65.5361 275.249 63.3058 276.201 61.4367C277.153 59.552 279.306 58.751 281.022 59.6305C281.083 59.6551 281.153 59.699 281.219 59.7395C281.237 59.7507 281.254 59.7616 281.271 59.7719C281.911 58.8923 282.597 58.0913 283.346 57.3374C283.284 57.2588 283.222 57.1803 283.175 57.0861C282.161 55.3898 282.707 53.0495 284.376 51.8715C286.045 50.6936 288.23 51.1019 289.244 52.7982C289.291 52.8768 289.337 52.971 289.384 53.0652C290.32 52.6254 291.288 52.2642 292.27 51.9815C292.27 51.9362 292.267 51.8872 292.263 51.8364C292.259 51.7815 292.255 51.7244 292.255 51.6674C292.208 49.6098 293.659 47.7408 297.949 47.8193C299.486 47.8561 299.45 48.5452 299.383 49.8265C299.364 50.1848 299.343 50.5895 299.354 51.0391C299.354 51.0941 299.35 51.1451 299.346 51.1962C299.342 51.2472 299.338 51.2983 299.338 51.3532C300.321 51.4632 301.288 51.6517 302.255 51.9187C302.287 51.8087 302.333 51.7145 302.38 51.6203L302.38 51.6202C303.316 49.7512 305.033 48.0706 309.042 50.0339C310.643 50.8181 309.71 52.6226 308.808 54.3676C308.735 54.51 308.661 54.6519 308.59 54.7929C308.543 54.8872 308.496 54.9814 308.434 55.0756C309.214 55.7039 309.947 56.3793 310.602 57.1175C310.68 57.0547 310.758 56.9918 310.852 56.929C312.521 55.751 314.705 56.1594 315.72 57.8557C316.734 59.552 316.188 61.8922 314.518 63.0702C314.44 63.133 314.347 63.1959 314.253 63.243C314.612 64.2168 314.893 65.2063 315.096 66.2272C315.189 66.2115 315.283 66.1958 315.392 66.1801C317.342 66.0073 318.965 67.5308 319.012 69.5884C319.043 71.6459 317.498 73.4679 315.532 73.6406C315.439 73.6563 315.33 73.6563 315.236 73.6563C315.08 74.7087 314.83 75.7453 314.518 76.7819C314.564 76.8097 314.616 76.832 314.669 76.8552C314.706 76.8715 314.745 76.8882 314.783 76.9076C316.5 77.7871 317.139 80.0174 316.188 81.8865ZM281.786 86.2058C281.806 86.2278 281.825 86.2498 281.845 86.2718C281.796 86.2405 281.772 86.2171 281.786 86.2058ZM284.875 65.8817C281.459 72.6825 283.721 80.7714 289.961 83.9598C296.202 87.1482 304.034 84.2268 307.451 77.4259C310.868 70.625 308.605 62.5362 302.365 59.3478C296.14 56.1594 288.308 59.0808 284.875 65.8817Z" fill="url(#paint57_linear_0_36782)"/>
<path d="M315.532 73.6567C317.498 73.4839 319.043 71.662 319.012 69.6045C318.965 67.5469 317.342 66.0234 315.392 66.1962C315.283 66.2119 315.189 66.2276 315.096 66.2433C314.893 65.2224 314.612 64.2329 314.253 63.2591C314.347 63.2119 314.44 63.1491 314.518 63.0863C316.188 61.9083 318.263 59.0497 317.093 57.4634C314.846 54.4635 312.521 55.7671 310.852 56.9451C310.758 57.0079 310.68 57.0707 310.602 57.1336C309.947 56.3954 309.214 55.72 308.434 55.0917C308.496 54.9975 308.543 54.9032 308.59 54.809C309.105 53.7881 309.151 52.6729 308.808 51.7148C307.186 54.5891 305.594 57.4634 304.018 60.3534C308.995 64.0287 310.571 71.2536 307.466 77.4105C304.83 82.6408 299.603 85.5622 294.486 85.2009C294.252 85.7978 294.033 86.3946 293.784 86.9915C293.129 88.5935 292.364 90.1642 291.615 91.7191C292.083 91.8133 292.567 91.8762 293.051 91.9233C293.051 92.0332 293.035 92.1275 293.035 92.2374C293.082 94.2949 294.314 96.0541 297.871 95.8499C299.837 95.7399 300.18 93.651 300.134 91.5934C300.134 91.4835 300.118 91.3736 300.118 91.2793C301.101 90.9966 302.068 90.6353 303.004 90.1956C303.051 90.2898 303.098 90.384 303.145 90.4626C304.159 92.1589 307.685 92.8814 309.354 91.7034C311.024 90.5254 310.228 87.8867 309.214 86.1904C309.167 86.0962 309.105 86.0177 309.042 85.9391C309.791 85.1852 310.477 84.3842 311.117 83.5046C311.195 83.5518 311.289 83.6146 311.367 83.646C313.083 84.5256 315.236 83.7245 316.188 81.8398C317.124 79.9707 316.5 77.7404 314.784 76.8608C314.69 76.8137 314.596 76.7823 314.518 76.7352C314.83 75.6985 315.08 74.6619 315.236 73.6096C315.33 73.6724 315.423 73.6724 315.532 73.6567Z" fill="url(#paint58_linear_0_36782)"/>
<path fill-rule="evenodd" clip-rule="evenodd" d="M318.029 82.1065C317.077 83.9912 314.924 84.7923 313.208 83.9127C313.191 83.9025 313.173 83.8915 313.155 83.8803C313.09 83.8398 313.019 83.7959 312.958 83.7713C312.319 84.6509 311.632 85.4519 310.883 86.2058L310.883 86.2059C310.946 86.2844 311.008 86.3629 311.055 86.4571C312.069 88.1534 311.523 90.4937 309.853 91.6717C308.184 92.8496 306 92.4413 304.986 90.745C304.939 90.6665 304.892 90.5722 304.845 90.478C303.909 90.9178 302.942 91.279 301.959 91.5617C301.959 91.607 301.963 91.656 301.966 91.7068C301.97 91.7617 301.975 91.8188 301.975 91.8759C302.006 93.9334 300.461 95.7553 298.496 95.9281C296.545 96.1009 294.923 94.5774 294.876 92.5198C294.876 92.4648 294.88 92.4138 294.884 92.3627C294.888 92.3117 294.892 92.2607 294.892 92.2057C293.909 92.0957 292.941 91.9073 291.974 91.6403C291.943 91.7502 291.896 91.8444 291.849 91.9387C290.898 93.8234 288.745 94.6245 287.028 93.7449C285.312 92.8654 284.673 90.635 285.624 88.766L285.624 88.7659C285.671 88.6717 285.718 88.5775 285.78 88.4833C285 87.855 284.267 87.1796 283.612 86.4414L283.612 86.4415C283.534 86.5043 283.456 86.5671 283.362 86.6299C281.693 87.8079 279.508 87.3995 278.494 85.7032C277.48 84.0069 278.026 81.6667 279.696 80.4887C279.774 80.4259 279.867 80.363 279.961 80.3159C279.602 79.3421 279.321 78.3526 279.118 77.3317C279.025 77.3474 278.931 77.3631 278.822 77.3788C276.872 77.5516 275.249 76.0281 275.202 73.9705C275.171 71.913 276.716 70.091 278.682 69.9183C278.775 69.9026 278.884 69.9026 278.978 69.9026C279.134 68.8502 279.384 67.8136 279.696 66.777C279.65 66.7493 279.598 66.727 279.545 66.7037C279.507 66.6874 279.469 66.6707 279.43 66.6513C277.714 65.7718 277.075 63.5415 278.026 61.6724C278.978 59.7876 281.131 58.9866 282.847 59.8662C282.908 59.8908 282.979 59.9346 283.044 59.9751C283.062 59.9863 283.08 59.9973 283.097 60.0075C283.736 59.128 284.423 58.3269 285.172 57.573C285.109 57.4945 285.047 57.416 285 57.3217C283.986 55.6254 284.532 53.2852 286.201 52.1072C287.871 50.9292 290.055 51.3376 291.069 53.0339C291.116 53.1124 291.163 53.2066 291.21 53.3009C292.146 52.8611 293.113 52.4999 294.096 52.2171C294.096 52.1718 294.092 52.1229 294.089 52.0721C294.084 52.0172 294.08 51.9601 294.08 51.903C294.049 49.8455 295.594 48.0235 297.559 47.8508C299.51 47.678 301.132 49.2015 301.179 51.2591C301.179 51.314 301.175 51.3651 301.171 51.4161C301.167 51.4672 301.163 51.5182 301.163 51.5732C302.146 51.6831 303.114 51.8716 304.081 52.1386C304.112 52.0287 304.159 51.9344 304.206 51.8402L304.206 51.8402C305.157 49.9554 307.31 49.1544 309.027 50.0339C310.743 50.9135 311.367 53.1438 310.431 55.0129C310.384 55.1071 310.337 55.2014 310.275 55.2956C311.055 55.9239 311.788 56.5992 312.443 57.3374C312.521 57.2746 312.599 57.2118 312.693 57.149C314.362 55.971 316.547 56.3793 317.561 58.0756C318.575 59.7719 318.029 62.1122 316.359 63.2902C316.281 63.353 316.188 63.4158 316.094 63.4629C316.453 64.4367 316.734 65.4262 316.937 66.4472C317.03 66.4314 317.124 66.4157 317.233 66.4C319.183 66.2273 320.806 67.7508 320.853 69.8083C320.884 71.8659 319.339 73.6878 317.373 73.8606C317.28 73.8763 317.171 73.8763 317.077 73.8763C316.921 74.9286 316.671 75.9652 316.359 77.0019C316.405 77.0296 316.457 77.0519 316.51 77.0752C316.548 77.0914 316.586 77.1081 316.625 77.1275C318.341 78.0071 318.965 80.2374 318.029 82.1065ZM286.716 66.1016C283.3 72.9025 285.562 80.9913 291.802 84.1797C298.043 87.3681 305.875 84.4467 309.292 77.6458C312.709 70.845 310.446 62.7561 304.206 59.5677C297.981 56.3793 290.149 59.3007 286.716 66.1016Z" fill="url(#paint59_linear_0_36782)"/>
<defs>
<linearGradient id="paint0_linear_0_36782" x1="101.748" y1="128.922" x2="40.9693" y2="305.802" gradientUnits="userSpaceOnUse">
<stop offset="0.00359712" stop-color="#E38DDD"/>
<stop offset="1" stop-color="#9571F6"/>
</linearGradient>
<linearGradient id="paint1_linear_0_36782" x1="141.844" y1="58.8831" x2="68.3624" y2="217.69" gradientUnits="userSpaceOnUse">
<stop stop-color="#AA80F9"/>
<stop offset="0.9964" stop-color="#6165D7"/>
</linearGradient>
<linearGradient id="paint2_linear_0_36782" x1="178.5" y1="194.401" x2="309.664" y2="273.78" gradientUnits="userSpaceOnUse">
<stop stop-color="#FF9085"/>
<stop offset="1" stop-color="#FB6FBB"/>
</linearGradient>
<linearGradient id="paint3_linear_0_36782" x1="279.951" y1="-50.0989" x2="115.42" y2="33.869" gradientUnits="userSpaceOnUse">
<stop stop-color="white"/>
<stop offset="0.9964" stop-color="#EBEFF2"/>
</linearGradient>
<linearGradient id="paint4_linear_0_36782" x1="207.051" y1="264.519" x2="307.554" y2="264.519" gradientUnits="userSpaceOnUse">
<stop stop-color="white"/>
<stop offset="0.9964" stop-color="#EBEFF2"/>
</linearGradient>
<linearGradient id="paint5_linear_0_36782" x1="207.051" y1="278.66" x2="307.554" y2="278.66" gradientUnits="userSpaceOnUse">
<stop stop-color="white"/>
<stop offset="0.9964" stop-color="#EBEFF2"/>
</linearGradient>
<linearGradient id="paint6_linear_0_36782" x1="207.051" y1="292.793" x2="307.554" y2="292.793" gradientUnits="userSpaceOnUse">
<stop stop-color="white"/>
<stop offset="0.9964" stop-color="#EBEFF2"/>
</linearGradient>
<linearGradient id="paint7_linear_0_36782" x1="207.051" y1="57.6681" x2="257.605" y2="57.6681" gradientUnits="userSpaceOnUse">
<stop stop-color="white"/>
<stop offset="0.9964" stop-color="#EBEFF2"/>
</linearGradient>
<linearGradient id="paint8_linear_0_36782" x1="207.051" y1="64.5689" x2="257.605" y2="64.5689" gradientUnits="userSpaceOnUse">
<stop stop-color="white"/>
<stop offset="0.9964" stop-color="#EBEFF2"/>
</linearGradient>
<linearGradient id="paint9_linear_0_36782" x1="207.051" y1="71.4696" x2="257.605" y2="71.4696" gradientUnits="userSpaceOnUse">
<stop stop-color="white"/>
<stop offset="0.9964" stop-color="#EBEFF2"/>
</linearGradient>
<linearGradient id="paint10_linear_0_36782" x1="184.297" y1="231.271" x2="184.552" y2="224.036" gradientUnits="userSpaceOnUse">
<stop offset="0.003597" stop-color="#26264F"/>
<stop offset="1" stop-color="#444B8C"/>
</linearGradient>
<linearGradient id="paint11_linear_0_36782" x1="191.905" y1="226.473" x2="193.8" y2="209.458" gradientUnits="userSpaceOnUse">
<stop offset="0.003597" stop-color="#26264F"/>
<stop offset="1" stop-color="#444B8C"/>
</linearGradient>
<linearGradient id="paint12_linear_0_36782" x1="163.672" y1="221.607" x2="193.467" y2="221.607" gradientUnits="userSpaceOnUse">
<stop offset="0.003597" stop-color="#26264F"/>
<stop offset="1" stop-color="#444B8C"/>
</linearGradient>
<linearGradient id="paint13_linear_0_36782" x1="199.124" y1="221.578" x2="200.243" y2="203.957" gradientUnits="userSpaceOnUse">
<stop offset="0.003597" stop-color="#26264F"/>
<stop offset="1" stop-color="#444B8C"/>
</linearGradient>
<linearGradient id="paint14_linear_0_36782" x1="162.337" y1="215.683" x2="194.787" y2="215.683" gradientUnits="userSpaceOnUse">
<stop offset="0.003597" stop-color="#26264F"/>
<stop offset="1" stop-color="#444B8C"/>
</linearGradient>
<linearGradient id="paint15_linear_0_36782" x1="161.856" y1="213.763" x2="195.283" y2="213.763" gradientUnits="userSpaceOnUse">
<stop offset="0.003597" stop-color="#26264F"/>
<stop offset="1" stop-color="#444B8C"/>
</linearGradient>
<linearGradient id="paint16_linear_0_36782" x1="210.33" y1="203.697" x2="210.516" y2="188.184" gradientUnits="userSpaceOnUse">
<stop offset="0.003597" stop-color="#26264F"/>
<stop offset="1" stop-color="#444B8C"/>
</linearGradient>
<linearGradient id="paint17_linear_0_36782" x1="162.324" y1="242.974" x2="177.997" y2="242.005" gradientUnits="userSpaceOnUse">
<stop stop-color="#FFC444"/>
<stop offset="0.9964" stop-color="#F36F56"/>
</linearGradient>
<linearGradient id="paint18_linear_0_36782" x1="175.054" y1="247.351" x2="190.728" y2="246.381" gradientUnits="userSpaceOnUse">
<stop stop-color="#FFC444"/>
<stop offset="0.9964" stop-color="#F36F56"/>
</linearGradient>
<linearGradient id="paint19_linear_0_36782" x1="213.527" y1="197.746" x2="215.02" y2="158.235" gradientUnits="userSpaceOnUse">
<stop stop-color="#FFC444"/>
<stop offset="0.9964" stop-color="#F36F56"/>
</linearGradient>
<linearGradient id="paint20_linear_0_36782" x1="134.32" y1="84.5852" x2="110.528" y2="189.879" gradientUnits="userSpaceOnUse">
<stop stop-color="#FCB148"/>
<stop offset="0.0520724" stop-color="#FDBA46"/>
<stop offset="0.1424" stop-color="#FFC244"/>
<stop offset="0.3183" stop-color="#FFC444"/>
<stop offset="0.4849" stop-color="#FDB946"/>
<stop offset="0.7754" stop-color="#F99C4D"/>
<stop offset="0.8658" stop-color="#F8924F"/>
<stop offset="1" stop-color="#F8924F"/>
</linearGradient>
<linearGradient id="paint21_linear_0_36782" x1="135.881" y1="171.027" x2="222.875" y2="171.027" gradientUnits="userSpaceOnUse">
<stop stop-color="#FFC444"/>
<stop offset="0.9964" stop-color="#F36F56"/>
</linearGradient>
<linearGradient id="paint22_linear_0_36782" x1="189.33" y1="176.384" x2="98.4717" y2="232.836" gradientUnits="userSpaceOnUse">
<stop offset="0.00359712" stop-color="#E38DDD"/>
<stop offset="1" stop-color="#9571F6"/>
</linearGradient>
<linearGradient id="paint23_linear_0_36782" x1="190.669" y1="146.552" x2="63.3038" y2="211.378" gradientUnits="userSpaceOnUse">
<stop stop-color="white"/>
<stop offset="0.9964" stop-color="#EBEFF2"/>
</linearGradient>
<linearGradient id="paint24_linear_0_36782" x1="113.528" y1="265.127" x2="120.123" y2="336.177" gradientUnits="userSpaceOnUse">
<stop stop-color="#FFC444"/>
<stop offset="0.9964" stop-color="#F36F56"/>
</linearGradient>
<linearGradient id="paint25_linear_0_36782" x1="130.431" y1="328.156" x2="144.269" y2="395.202" gradientUnits="userSpaceOnUse">
<stop offset="0.00359712" stop-color="#E38DDD"/>
<stop offset="1" stop-color="#9571F6"/>
</linearGradient>
<linearGradient id="paint26_linear_0_36782" x1="116.107" y1="324.48" x2="171.067" y2="354.965" gradientUnits="userSpaceOnUse">
<stop stop-color="#AA80F9"/>
<stop offset="0.9964" stop-color="#6165D7"/>
</linearGradient>
<linearGradient id="paint27_linear_0_36782" x1="199.063" y1="226.919" x2="162.151" y2="270.895" gradientUnits="userSpaceOnUse">
<stop stop-color="#FF9085"/>
<stop offset="1" stop-color="#FB6FBB"/>
</linearGradient>
<linearGradient id="paint28_linear_0_36782" x1="2.45639" y1="236.055" x2="-4.24837" y2="343.62" gradientUnits="userSpaceOnUse">
<stop stop-color="#FF9085"/>
<stop offset="1" stop-color="#FB6FBB"/>
</linearGradient>
<linearGradient id="paint29_linear_0_36782" x1="215.507" y1="424.988" x2="232.483" y2="352.672" gradientUnits="userSpaceOnUse">
<stop stop-color="#FF9085"/>
<stop offset="1" stop-color="#FB6FBB"/>
</linearGradient>
<linearGradient id="paint30_linear_0_36782" x1="358.098" y1="35.0792" x2="235.883" y2="111.452" gradientUnits="userSpaceOnUse">
<stop offset="0.00359712" stop-color="#E38DDD"/>
<stop offset="1" stop-color="#9571F6"/>
</linearGradient>
<linearGradient id="paint31_linear_0_36782" x1="359.91" y1="-4.95527" x2="188.445" y2="82.8077" gradientUnits="userSpaceOnUse">
<stop stop-color="white"/>
<stop offset="0.9964" stop-color="#EBEFF2"/>
</linearGradient>
<linearGradient id="paint32_linear_0_36782" x1="255.809" y1="154.148" x2="264.608" y2="249.489" gradientUnits="userSpaceOnUse">
<stop stop-color="#FFC444"/>
<stop offset="0.9964" stop-color="#F36F56"/>
</linearGradient>
<linearGradient id="paint33_linear_0_36782" x1="278.63" y1="238.72" x2="297.106" y2="328.722" gradientUnits="userSpaceOnUse">
<stop offset="0.00359712" stop-color="#E38DDD"/>
<stop offset="1" stop-color="#9571F6"/>
</linearGradient>
<linearGradient id="paint34_linear_0_36782" x1="259.296" y1="233.794" x2="333.263" y2="275.041" gradientUnits="userSpaceOnUse">
<stop stop-color="#AA80F9"/>
<stop offset="0.9964" stop-color="#6165D7"/>
</linearGradient>
<linearGradient id="paint35_linear_0_36782" x1="371.228" y1="102.888" x2="321.761" y2="162.181" gradientUnits="userSpaceOnUse">
<stop stop-color="#FF9085"/>
<stop offset="1" stop-color="#FB6FBB"/>
</linearGradient>
<linearGradient id="paint36_linear_0_36782" x1="393.377" y1="368.655" x2="416.068" y2="271.562" gradientUnits="userSpaceOnUse">
<stop stop-color="#FF9085"/>
<stop offset="1" stop-color="#FB6FBB"/>
</linearGradient>
<linearGradient id="paint37_linear_0_36782" x1="291.893" y1="424.885" x2="292.493" y2="460.683" gradientUnits="userSpaceOnUse">
<stop stop-color="#311944"/>
<stop offset="1" stop-color="#A03976"/>
</linearGradient>
<linearGradient id="paint38_linear_0_36782" x1="351.46" y1="443.696" x2="350.247" y2="406.675" gradientUnits="userSpaceOnUse">
<stop stop-color="#FFC444"/>
<stop offset="0.9964" stop-color="#F36F56"/>
</linearGradient>
<linearGradient id="paint39_linear_0_36782" x1="369.649" y1="421.708" x2="374.014" y2="457.286" gradientUnits="userSpaceOnUse">
<stop stop-color="#311944"/>
<stop offset="1" stop-color="#A03976"/>
</linearGradient>
<linearGradient id="paint40_linear_0_36782" x1="399.966" y1="442.905" x2="398.74" y2="405.884" gradientUnits="userSpaceOnUse">
<stop stop-color="#FFC444"/>
<stop offset="0.9964" stop-color="#F36F56"/>
</linearGradient>
<linearGradient id="paint41_linear_0_36782" x1="329.493" y1="439.883" x2="356.83" y2="439.879" gradientUnits="userSpaceOnUse">
<stop stop-color="#444B8C"/>
<stop offset="0.9964" stop-color="#3E4177"/>
</linearGradient>
<linearGradient id="paint42_linear_0_36782" x1="329.493" y1="443.902" x2="356.83" y2="443.899" gradientUnits="userSpaceOnUse">
<stop stop-color="#444B8C"/>
<stop offset="0.9964" stop-color="#3E4177"/>
</linearGradient>
<linearGradient id="paint43_linear_0_36782" x1="337.102" y1="435.746" x2="392.135" y2="435.712" gradientUnits="userSpaceOnUse">
<stop stop-color="#444B8C"/>
<stop offset="0.9964" stop-color="#3E4177"/>
</linearGradient>
<linearGradient id="paint44_linear_0_36782" x1="325.624" y1="229.105" x2="273.981" y2="336.101" gradientUnits="userSpaceOnUse">
<stop stop-color="#AA80F9"/>
<stop offset="0.9964" stop-color="#6165D7"/>
</linearGradient>
<linearGradient id="paint45_linear_0_36782" x1="333.442" y1="253.385" x2="330.566" y2="305.164" gradientUnits="userSpaceOnUse">
<stop stop-color="#FFC444"/>
<stop offset="0.9964" stop-color="#F36F56"/>
</linearGradient>
<linearGradient id="paint46_linear_0_36782" x1="382.494" y1="262.762" x2="372.159" y2="239.402" gradientUnits="userSpaceOnUse">
<stop stop-color="#444B8C"/>
<stop offset="0.9964" stop-color="#3E4177"/>
</linearGradient>
<linearGradient id="paint47_linear_0_36782" x1="344.318" y1="251.597" x2="348.198" y2="289.701" gradientUnits="userSpaceOnUse">
<stop stop-color="#FFC444"/>
<stop offset="0.9964" stop-color="#F36F56"/>
</linearGradient>
<linearGradient id="paint48_linear_0_36782" x1="298.096" y1="322.75" x2="342.369" y2="322.75" gradientUnits="userSpaceOnUse">
<stop stop-color="#AA80F9"/>
<stop offset="0.9964" stop-color="#6165D7"/>
</linearGradient>
<linearGradient id="paint49_linear_0_36782" x1="282.562" y1="320.333" x2="284.644" y2="327.398" gradientUnits="userSpaceOnUse">
<stop stop-color="#FFC444"/>
<stop offset="0.9964" stop-color="#F36F56"/>
</linearGradient>
<linearGradient id="paint50_linear_0_36782" x1="381.748" y1="231.583" x2="293.303" y2="298.777" gradientUnits="userSpaceOnUse">
<stop stop-color="#AA80F9"/>
<stop offset="0.9964" stop-color="#6165D7"/>
</linearGradient>
<linearGradient id="paint51_linear_0_36782" x1="326.246" y1="357.894" x2="417.079" y2="357.894" gradientUnits="userSpaceOnUse">
<stop stop-color="#AA80F9"/>
<stop offset="0.9964" stop-color="#6165D7"/>
</linearGradient>
<linearGradient id="paint52_linear_0_36782" x1="280.19" y1="352.041" x2="392.946" y2="352.041" gradientUnits="userSpaceOnUse">
<stop stop-color="#444B8C"/>
<stop offset="0.9964" stop-color="#26264F"/>
</linearGradient>
<linearGradient id="paint53_linear_0_36782" x1="176.198" y1="355.014" x2="292.542" y2="355.014" gradientUnits="userSpaceOnUse">
<stop stop-color="#444B8C"/>
<stop offset="0.9964" stop-color="#26264F"/>
</linearGradient>
<linearGradient id="paint54_linear_0_36782" x1="260.051" y1="369.751" x2="280.213" y2="284.001" gradientUnits="userSpaceOnUse">
<stop stop-color="#444B8C"/>
<stop offset="0.9964" stop-color="#26264F"/>
</linearGradient>
<linearGradient id="paint55_linear_0_36782" x1="190.987" y1="220.455" x2="162.86" y2="335.42" gradientUnits="userSpaceOnUse">
<stop stop-color="#444B8C"/>
<stop offset="0.9964" stop-color="#26264F"/>
</linearGradient>
<linearGradient id="paint56_linear_0_36782" x1="395.615" y1="352.95" x2="397.728" y2="340.69" gradientUnits="userSpaceOnUse">
<stop stop-color="#FFC444"/>
<stop offset="0.9964" stop-color="#F36F56"/>
</linearGradient>
<linearGradient id="paint57_linear_0_36782" x1="223.125" y1="102.545" x2="330.962" y2="153.311" gradientUnits="userSpaceOnUse">
<stop stop-color="#444B8C"/>
<stop offset="0.9964" stop-color="#3E4177"/>
</linearGradient>
<linearGradient id="paint58_linear_0_36782" x1="232.515" y1="131.791" x2="344.888" y2="154.222" gradientUnits="userSpaceOnUse">
<stop stop-color="#444B8C"/>
<stop offset="0.9964" stop-color="#3E4177"/>
</linearGradient>
<linearGradient id="paint59_linear_0_36782" x1="250.278" y1="-9.2721" x2="143.237" y2="127.967" gradientUnits="userSpaceOnUse">
<stop stop-color="#AA80F9"/>
<stop offset="0.9964" stop-color="#6165D7"/>
</linearGradient>
</defs>
</svg>
