<svg width="30" height="30" viewBox="0 0 30 30" fill="none" xmlns="http://www.w3.org/2000/svg">
<path fill-rule="evenodd" clip-rule="evenodd" d="M14.9997 0C6.71567 0 0 6.71587 0 14.9999C0 23.2836 6.71567 30 14.9997 30C23.2836 30 29.9998 23.2836 29.9998 14.9999C29.9998 6.71587 23.2836 0 14.9997 0ZM15 5.26865L23.8763 10.8037H6.12356L15 5.26865ZM23.986 19.6425H23.9869V11.1559C23.9869 11.0618 23.9773 10.9707 23.9617 10.881L15.4809 16.1694C15.4749 16.1731 15.4688 16.1761 15.4626 16.1791C15.4579 16.1814 15.4532 16.1837 15.4487 16.1863C15.4375 16.1925 15.4261 16.1985 15.4147 16.2042C15.3545 16.2351 15.293 16.26 15.23 16.2763C15.2279 16.2768 15.2258 16.2773 15.2238 16.2777C15.2193 16.2786 15.2149 16.2793 15.2105 16.2804C15.1413 16.297 15.0712 16.3069 15.0012 16.3069H15.0002H14.9997C14.9296 16.3069 14.8595 16.2967 14.7903 16.2804C14.7877 16.2797 14.785 16.2792 14.7823 16.2787C14.7785 16.278 14.7747 16.2773 14.7708 16.2763C14.7077 16.26 14.646 16.2351 14.5861 16.2042C14.5747 16.1985 14.5633 16.1925 14.5521 16.1863C14.5476 16.1837 14.543 16.1815 14.5384 16.1792C14.5322 16.1762 14.5259 16.1731 14.5199 16.1694L6.03906 10.881C6.02346 10.9707 6.01386 11.062 6.01386 11.1559V19.6425C6.01386 20.5302 6.73327 21.2497 7.62108 21.2497H22.3788C23.2665 21.2497 23.986 20.5303 23.986 19.6425Z" fill="#ADADAD"/>
</svg>
