<svg width="30" height="30" viewBox="0 0 30 30" fill="none" xmlns="http://www.w3.org/2000/svg">
<circle cx="15" cy="15" r="15" fill="#ADADAD"/>
<path fill-rule="evenodd" clip-rule="evenodd" d="M9.26674 6.40932C8.04023 6.40932 7.23779 7.21443 7.23779 8.27222C7.23779 9.30755 8.01697 10.1359 9.21968 10.1359H9.24294C10.4935 10.1359 11.2711 9.30755 11.2711 8.27222C11.2473 7.21443 10.4935 6.40932 9.26674 6.40932ZM23.9625 16.207V22.3912H20.377V16.6214C20.377 15.1727 19.8594 14.1834 18.5612 14.1834C17.5705 14.1834 16.982 14.8495 16.7221 15.4944C16.6277 15.7249 16.6034 16.045 16.6034 16.3682V22.3909H13.0177C13.0177 22.3909 13.0658 12.6189 13.0177 11.6074H16.6036V13.1355C16.6003 13.1411 16.5962 13.1467 16.5922 13.1522L16.5922 13.1522L16.5922 13.1523C16.5877 13.1585 16.5832 13.1647 16.5798 13.1708H16.6036V13.1355C17.0801 12.4023 17.9299 11.3541 19.835 11.3541C22.1939 11.3541 23.9625 12.8954 23.9625 16.207ZM11.0353 22.3912H7.4509V11.6074H11.0353V22.3912Z" fill="white"/>
</svg>
