<svg width="30" height="30" viewBox="0 0 30 30" fill="none" xmlns="http://www.w3.org/2000/svg">
<path fill-rule="evenodd" clip-rule="evenodd" d="M0 14.9998C0 6.71614 6.71564 0 14.9996 0C23.2836 0 30 6.71574 30 14.9998C30 23.2839 23.2836 30.0002 14.9996 30.0002C6.71564 30.0002 0 23.2835 0 14.9998ZM18.8677 15.9989L22.5364 12.3303C23.3578 11.5091 23.3578 10.1724 22.5371 9.35146L21.1502 7.96415C20.752 7.56635 20.223 7.34715 19.6604 7.34715C19.0978 7.34715 18.5687 7.56635 18.1706 7.96445L14.5017 11.6331C13.6808 12.4545 13.6808 13.791 14.5022 14.6121L14.6454 14.7553L14.2548 15.1459L14.1116 15.0027C13.7134 14.6049 13.1847 14.3857 12.6218 14.3857C12.0589 14.3857 11.5299 14.6048 11.132 15.0027L7.46305 18.6711C6.64194 19.4928 6.64194 20.8292 7.46335 21.6501L8.84986 23.0371C9.24796 23.4352 9.77707 23.6544 10.3399 23.6544C10.9028 23.6544 11.4318 23.4353 11.8297 23.0374L15.4978 19.3687C16.3192 18.5473 16.3192 17.2108 15.4978 16.3894L15.3544 16.246L15.745 15.8554L15.8887 15.9991C16.2866 16.3967 16.8157 16.6159 17.3782 16.6159C17.9408 16.6159 18.4698 16.3968 18.8677 15.9989Z" fill="#ADADAD"/>
<path d="M14.254 17.346L13.5447 18.0553L12.4445 16.9554L13.1538 16.2461L13.0106 16.1029C12.9066 15.9992 12.7684 15.9418 12.6216 15.9418C12.4745 15.9418 12.3363 15.9991 12.2323 16.1029L8.56371 19.771C8.34921 19.9857 8.34921 20.3348 8.56371 20.5493L9.95072 21.9366C10.159 22.1449 10.5215 22.1446 10.7293 21.9369L14.3974 18.2683C14.6122 18.0536 14.6122 17.7042 14.3974 17.4894L14.254 17.346Z" fill="#ADADAD"/>
<path d="M20.0494 9.06436C19.9454 8.96036 19.8069 8.90306 19.6598 8.90306C19.5127 8.90306 19.3742 8.96036 19.2702 9.06466L15.6015 12.7331C15.3873 12.9478 15.3873 13.2969 15.6018 13.5117L15.7452 13.6549L16.8332 12.5666L17.9334 13.6668L16.8454 14.7551L16.9888 14.8985C17.1971 15.1062 17.5591 15.1065 17.7674 14.8982L21.4359 11.2301C21.6504 11.0154 21.6504 10.6663 21.4359 10.4515L20.0494 9.06436Z" fill="#ADADAD"/>
</svg>
