<?xml version="1.0" encoding="utf-8"?>
<svg width="70px" height="70px" viewBox="0 0 70 70" version="1.1" xmlns:xlink="http://www.w3.org/1999/xlink" xmlns="http://www.w3.org/2000/svg">
  <g id="Group-2">
    <path d="M34.3 59.7917C34.3 58.975 33.6583 58.3333 32.8417 58.3333L7.29167 58.3333C4.87083 58.3333 2.91667 56.3792 2.91667 53.9583L2.91667 7.29167C2.91667 4.87083 4.87083 2.91667 7.29167 2.91667L42.2917 2.91667C44.7125 2.91667 46.6667 4.87083 46.6667 7.29167L46.6667 39.9C46.6667 40.7167 47.3083 41.3583 48.125 41.3583C48.4167 41.3583 48.7083 41.2708 48.9417 41.125C49.3208 40.8625 49.5833 40.425 49.5833 39.9L49.5833 7.29167C49.5833 3.26667 46.3167 0 42.2917 0L7.29167 0C3.26667 0 0 3.26667 0 7.29167L0 53.9583C0 57.9833 3.26667 61.25 7.29167 61.25L32.8417 61.25C33.6583 61.25 34.3 60.6083 34.3 59.7917ZM24.7917 11.6667C25.6083 11.6667 26.25 12.3084 26.25 13.125C26.25 13.9417 25.6083 14.5834 24.7917 14.5834L10.2083 14.5834C9.39167 14.5834 8.75 13.9417 8.75 13.125C8.75 12.3084 9.39167 11.6667 10.2083 11.6667L24.7917 11.6667ZM39.375 23.3333C40.1917 23.3333 40.8333 23.975 40.8333 24.7916C40.8333 25.6083 40.1917 26.25 39.375 26.25L10.2083 26.25C9.39167 26.25 8.75 25.6083 8.75 24.7916C8.75 23.975 9.39167 23.3333 10.2083 23.3333L39.375 23.3333ZM29.1667 36.4583C29.1667 35.6417 28.525 35 27.7083 35L10.2083 35C9.39167 35 8.75 35.6417 8.75 36.4583C8.75 37.275 9.39167 37.9167 10.2083 37.9167L27.7083 37.9167C28.525 37.9167 29.1667 37.275 29.1667 36.4583ZM59.996 44.8875C61.046 45.9958 62.5335 46.6667 64.1668 46.6667C67.3752 46.6667 70.0002 44.0417 70.0002 40.8333C70.0002 37.625 67.3752 35 64.1668 35C60.9585 35 58.3335 37.625 58.3335 40.8333C58.3335 41.3583 58.3918 41.8833 58.5377 42.35C58.8001 43.3416 59.2959 44.1875 59.9959 44.8875L61.1334 44.2458C61.7459 43.925 62.0084 43.1666 61.8043 42.525C61.6876 42.35 61.5709 42.175 61.5126 42L61.4834 41.9708C61.3377 41.6208 61.2502 41.2416 61.2502 40.8333C61.2502 39.2292 62.5627 37.9167 64.1668 37.9167C65.771 37.9167 67.0835 39.2292 67.0835 40.8333C67.0835 42.4375 65.771 43.75 64.1668 43.75C63.2043 43.75 62.3293 43.2542 61.8043 42.525C62.0085 43.1667 61.746 43.925 61.1335 44.2458L59.996 44.8875ZM61.6877 42.2625C61.7169 42.35 61.7752 42.4375 61.8044 42.525C61.6877 42.35 61.571 42.175 61.5127 42L61.6877 42.2625ZM47.8917 48.4167L47.8916 48.4166L51.8291 46.1708L58.5374 42.35C58.7999 43.3416 59.2958 44.1875 59.9958 44.8875L49.3792 50.9541L49.3792 50.9542L49.3791 50.9543C49.4957 51.4501 49.5832 51.975 49.5832 52.5C49.5832 53.0249 49.5249 53.5499 49.3791 54.0165L49.3793 54.0167L60.0251 60.0833C59.9446 60.1638 59.8668 60.2462 59.7918 60.3306C59.8669 60.2462 59.9447 60.1638 60.0252 60.0833C61.0752 59.0041 62.5627 58.3333 64.1668 58.3333C67.3752 58.3333 70.0002 60.9583 70.0002 64.1666C70.0002 67.375 67.3752 70 64.1668 70C60.9585 70 58.3335 67.375 58.3335 64.1666C58.3335 63.6416 58.421 63.1166 58.5376 62.6208L47.9209 56.5542L47.9209 56.5541L46.7835 55.9125C46.171 55.5917 45.9085 54.8333 46.1127 54.1917C46.2294 54.0167 46.346 53.8417 46.4044 53.6667L46.4335 53.6375C46.6024 53.4686 46.8095 53.3456 47.0327 53.2725C46.8094 53.3454 46.6022 53.4685 46.4332 53.6375C46.579 53.2875 46.6665 52.9083 46.6665 52.5C46.6665 52.0333 46.5499 51.5958 46.3457 51.1875C46.4288 51.3167 46.5322 51.4254 46.6488 51.5137C46.5323 51.4254 46.4289 51.3167 46.3459 51.1875C46.3167 51.1584 46.2875 51.1 46.2584 51.0709C46.2292 51.0125 46.2 50.9542 46.1709 50.8667C45.9084 50.225 46.1417 49.4375 46.7834 49.0584L47.8917 48.4167ZM43.7498 46.6667C40.5415 46.6667 37.9165 49.2917 37.9165 52.5C37.9165 53.4917 38.179 54.4542 38.6165 55.2709C39.6082 57.0792 41.5332 58.3334 43.7498 58.3334C45.3832 58.3334 46.8707 57.6625 47.9207 56.5542L46.7832 55.9125C46.1707 55.5917 45.9082 54.8334 46.1123 54.1917C45.5873 54.9209 44.7123 55.4167 43.7498 55.4167C42.1457 55.4167 40.8332 54.1042 40.8332 52.5C40.8332 50.8959 42.1457 49.5834 43.7498 49.5834C44.7415 49.5834 45.6457 50.1084 46.1707 50.8667C45.9082 50.225 46.1415 49.4375 46.7832 49.0584L47.8915 48.4167C46.8415 47.3375 45.354 46.6667 43.7498 46.6667ZM46.229 53.9292L46.404 53.6667C46.3456 53.8417 46.229 54.0167 46.1123 54.1917C46.1415 54.1042 46.1998 54.0167 46.229 53.9292ZM61.2502 64.1666C61.2502 63.7291 61.3668 63.2916 61.5418 62.9125L61.5418 62.9125L61.542 62.912C61.6001 62.8538 61.6582 62.7957 61.6873 62.7375C61.7164 62.6502 61.7745 62.5629 61.8037 62.4757L61.8043 62.475C62.3293 61.7458 63.2043 61.25 64.1668 61.25C65.771 61.25 67.0835 62.5625 67.0835 64.1666C67.0835 65.7708 65.771 67.0833 64.1668 67.0833C62.5627 67.0833 61.2502 65.7708 61.2502 64.1666Z" id="Combined-Shape-Copy" fill="#544837" fill-rule="evenodd" stroke="none" />
  </g>
</svg>