<?xml version="1.0" encoding="utf-8"?>
<svg width="70px" height="70px" viewBox="0 0 70 70" version="1.1" xmlns:xlink="http://www.w3.org/1999/xlink" xmlns="http://www.w3.org/2000/svg">
  <g id="Group">
    <path d="M67.6116 54.4278C67.6115 54.4276 67.6112 54.4273 67.611 54.4272L67.6099 54.4284L52.7808 39.594C52.3258 39.139 51.5883 39.139 51.1334 39.594L47.8339 42.8958L43.7141 38.7747L47.9597 34.5323C53.8097 35.8448 59.9246 34.0787 64.1752 29.8493C68.9244 25.063 70.5198 17.9816 68.2821 11.6199C68.1486 11.2433 67.8317 10.9614 67.4421 10.8728C67.0522 10.7861 66.6451 10.9033 66.3609 11.184L58.0889 19.452L51.914 17.3926L49.8553 11.2155L58.1203 2.94049C58.5749 2.48492 58.5741 1.74688 58.1186 1.29219C57.9961 1.16981 57.8477 1.07643 57.6846 1.01859C48.5925 -2.22162 38.5961 2.52499 35.357 11.6202C34.2461 14.7395 34.0437 18.1102 34.7733 21.3401L30.5325 25.5871L15.6812 10.7201L15.2152 5.6957C15.1766 5.27919 14.9178 4.91541 14.5371 4.74233L5.47514 0.628152C5.03401 0.426668 4.51438 0.51947 4.17025 0.86125L0.884731 4.14793C0.543072 4.49219 0.450302 5.012 0.651715 5.45328L4.76444 14.5208C4.93731 14.9024 5.30154 15.1618 5.71864 15.2003L10.7413 15.6665L25.5984 30.523L2.38419 53.743C-0.794728 56.9318 -0.794728 62.0926 2.38419 65.2814L4.02694 66.9247C7.21489 70.1042 12.3733 70.1042 15.5612 66.9247L38.7812 43.7093L42.9009 47.8293L39.6003 51.1324C39.1454 51.5875 39.1454 52.3252 39.6003 52.7803L54.4294 67.6135C57.6163 70.7955 62.7767 70.7955 65.9636 67.6135L67.611 65.9655C70.7961 62.7797 70.7964 57.6139 67.6116 54.4278ZM12.187 13.8384C11.995 13.6463 11.7419 13.5273 11.4713 13.5021L6.7094 13.0645L3.21826 5.36078L5.35949 3.21838L13.0633 6.70952L13.502 11.4703C13.5269 11.7407 13.6454 11.9938 13.8371 12.1859L28.9654 27.3282L27.328 28.9655L12.187 13.8384ZM13.9564 65.0836C11.688 67.3476 8.01546 67.3476 5.74703 65.0836L4.11119 63.4473C1.8477 61.1783 1.8477 57.5048 4.11119 55.2358L36.828 22.5106C37.1212 22.2174 37.2358 21.7901 37.1285 21.3896C34.9949 13.3211 39.8044 5.05034 47.8708 2.91623C50.1801 2.30525 52.6014 2.2507 54.9359 2.7571L47.592 10.1122C47.2813 10.4233 47.1729 10.8834 47.3124 11.3005L49.772 18.6811C49.8877 19.0275 50.1598 19.2993 50.5064 19.4145L57.8851 21.8735C58.3011 22.0123 58.76 21.9046 59.0708 21.595L66.4251 14.2492C68.2165 22.3821 63.0774 30.4278 54.9466 32.2197C52.5847 32.7403 50.1322 32.6847 47.7962 32.0578C47.3961 31.9487 46.9683 32.0636 46.6767 32.3583L13.9564 65.0836ZM40.23 41.8309L41.5236 40.5373L41.831 40.2299L45.8622 44.2564L44.2565 45.862L40.23 41.8309ZM65.8698 64.2155L65.8698 64.2202L64.2127 65.8728C61.9228 68.1574 58.2161 68.1574 55.9262 65.8728L41.8389 51.785L51.7824 41.8391L65.8698 55.9281C68.1581 58.2166 68.1581 61.927 65.8698 64.2155Z" id="Shape-Copy-3" fill="#544837" stroke="none" />
  </g>
</svg>